<svg width="91" height="69" viewBox="0 0 91 69" fill="none" xmlns="http://www.w3.org/2000/svg">
<path d="M26.2666 27.1684H34.2773V68.1617H26.2666V27.1684Z" fill="#EBEBEB"/>
<path d="M0.999632 27.1684H26.3281V68.1617H0.999632V27.1684Z" fill="#F5F5F5"/>
<path d="M2.1952 28.4487H24.2754V46.3458H2.1952V28.4487Z" fill="#E0E0E0"/>
<path d="M2.1952 48.2566H24.2754V66.1537H2.1952V48.2566Z" fill="#E0E0E0"/>
<path d="M21.7832 40.9692V46.0714H13.6035H4.58135V40.9692H21.7832Z" fill="#F5F5F5"/>
<path d="M22.5039 39.5417V40.9677H3.98034V39.5417H13.6035H22.5039Z" fill="#F5F5F5"/>
<path d="M13.2441 46.07H4.58328V40.9677H3.98233V39.5417H13.6055V40.8352L13.2441 46.07Z" fill="#F5F5F5"/>
<path d="M15.8871 41.7904H19.375V42.559H15.8871V41.7904Z" fill="white"/>
<path d="M15.3445 43.5185H19.8242V45.1398H15.3445V43.5185Z" fill="white"/>
<path d="M3.82965 40.9546C3.82965 40.9976 7.9892 41.0334 13.1189 41.0334C18.2486 41.0334 22.4082 40.9976 22.4082 40.9546C22.4082 40.9116 18.2506 40.8776 13.1189 40.8776C7.98724 40.8776 3.82965 40.9116 3.82965 40.9546Z" fill="#E0E0E0"/>
<path d="M13.0093 46.0517C13.0564 46.0517 13.0957 44.9213 13.0957 43.5257C13.0957 42.1301 13.0564 40.9979 13.0093 40.9979C12.9622 40.9979 12.9248 42.1301 12.9248 43.5257C12.9248 44.9213 12.9622 46.0517 13.0093 46.0517Z" fill="#E0E0E0"/>
<path d="M21.7832 60.8887V65.9909H13.6035H4.58135V60.8887H21.7832Z" fill="#EBEBEB"/>
<path d="M22.5039 59.4621V60.8881H3.97839V59.4621H13.6015H22.5039Z" fill="#EBEBEB"/>
<path d="M13.2461 65.9903H4.58328V60.8881H3.98233V59.4621H13.6055V60.7573L13.2461 65.9903Z" fill="#EBEBEB"/>
<path d="M15.8871 61.7117H19.375V62.4802H15.8871V61.7117Z" fill="white"/>
<path d="M15.3445 63.4406H19.8242V65.0619H15.3445V63.4406Z" fill="white"/>
<path d="M3.82965 60.8741C3.82965 60.9171 7.9892 60.9529 13.1189 60.9529C18.2486 60.9529 22.4082 60.9171 22.4082 60.8741C22.4082 60.8311 18.2506 60.7971 13.1189 60.7971C7.98724 60.7971 3.82965 60.8311 3.82965 60.8741Z" fill="#E0E0E0"/>
<path d="M13.0093 65.9729C13.0564 65.9729 13.0957 64.8407 13.0957 63.4451C13.0957 62.0495 13.0564 60.9191 13.0093 60.9191C12.9622 60.9191 12.9248 62.0495 12.9248 63.4451C12.9248 64.8407 12.9622 65.9729 13.0093 65.9729Z" fill="#E0E0E0"/>
<path d="M20.1875 35.5085V39.5429H13.7223H6.58942V35.5085H20.1875Z" fill="#EBEBEB"/>
<path d="M20.7637 34.3815V35.5083H6.11882V34.3815H13.727H20.7637Z" fill="#EBEBEB"/>
<path d="M13.4418 39.5428H6.59561V35.5083H6.12035V34.3815H13.7285V35.4044L13.4418 39.5428Z" fill="#EBEBEB"/>
<path d="M15.5337 36.1586H18.291V36.7659H15.5337V36.1586Z" fill="white"/>
<path d="M15.1153 37.5257H18.6562V38.8085H15.1153V37.5257Z" fill="white"/>
<path d="M6.02288 35.4978C6.02288 35.5408 9.31046 35.5749 13.3659 35.5749C17.4214 35.5749 20.7109 35.5408 20.7109 35.4978C20.7109 35.4548 17.4234 35.419 13.3659 35.419C9.30849 35.419 6.02288 35.4638 6.02288 35.4978Z" fill="#E0E0E0"/>
<path d="M13.2671 39.527C13.3142 39.527 13.3535 38.6312 13.3535 37.5294C13.3535 36.4277 13.3142 35.5319 13.2671 35.5319C13.22 35.5319 13.1827 36.4277 13.1827 37.5294C13.1827 38.6312 13.2219 39.527 13.2671 39.527Z" fill="#E0E0E0"/>
<path d="M6.04738 39.5063C6.04738 39.5493 9.2132 39.5851 13.1174 39.5851C17.0217 39.5851 20.1875 39.5493 20.1875 39.5063C20.1875 39.4633 17.0236 39.4292 13.1174 39.4292C9.21123 39.4292 6.04738 39.4633 6.04738 39.5063Z" fill="#E0E0E0"/>
<path d="M14.9496 26.6807L15.9434 26.5535V22.9167L14.9496 23.0439V26.6807Z" fill="#E0E0E0"/>
<path d="M15.3796 23.1495C20.8058 23.1495 25.2207 19.1652 25.2207 14.2673C25.216 12.677 24.7431 11.1171 23.8515 9.75058C22.9598 8.38408 21.6821 7.26119 20.1519 6.49928L20.0419 6.44374L19.384 7.275L19.6138 7.42549L20.1244 6.77875C21.5811 7.52701 22.7942 8.6144 23.6398 9.92997C24.4855 11.2455 24.9334 12.7422 24.9379 14.2673C24.9379 19.0237 20.6507 22.8934 15.3796 22.8934C13.1997 22.8929 11.0843 22.2191 9.37787 20.9818L9.77066 20.6235L9.57427 20.4444L8.95367 21.0033L9.07347 21.0947C11.2966 22.759 12.9993 23.1495 15.3796 23.1495Z" fill="#E0E0E0"/>
<path d="M11.1885 26.5547H19.9062V27.1692H11.1885V26.5547Z" fill="#E0E0E0"/>
<path d="M14.9505 22.1225C10.1684 22.1225 6.29166 18.562 6.29166 14.17C6.29166 9.77793 10.1684 6.21748 14.9505 6.21748C19.7327 6.21748 23.6094 9.77793 23.6094 14.17C23.6094 18.562 19.7327 22.1225 14.9505 22.1225Z" fill="#F5F5F5"/>
<path d="M18.1569 17.7135C18.1118 17.3677 17.8172 17.0166 17.9861 16.7048C18.1825 16.3555 18.7324 16.411 19.1212 16.2552C19.6672 16.0366 19.8361 15.4203 20.1915 14.9832C20.5117 14.5927 21.256 14.1645 21.8236 14.2827C21.9802 14.3038 22.1243 14.3733 22.2315 14.4796C22.3387 14.5859 22.4027 14.7226 22.4127 14.8668H22.4638C22.617 14.8524 22.7937 14.8453 22.8782 14.7306C22.9626 14.6159 22.8782 14.3974 22.9783 14.2666C23.0411 14.2065 23.1149 14.1568 23.1963 14.1197C23.269 14.0713 23.3318 13.9817 23.2867 13.9083C23.2415 13.8348 23.1551 13.8348 23.106 13.7793C23.087 13.757 23.0768 13.7296 23.0768 13.7014C23.0768 13.6732 23.087 13.6457 23.106 13.6234C23.2611 13.4443 23.4359 13.8026 23.5223 13.8796C23.5437 13.9008 23.5667 13.9205 23.5911 13.9388V13.9388C23.592 13.9531 23.592 13.9674 23.5911 13.9817C23.5911 14.0283 23.5911 14.0767 23.5911 14.1251C23.5911 14.1734 23.5911 14.22 23.5911 14.2666C23.5911 14.3132 23.5911 14.3436 23.5911 14.383C23.5911 14.4225 23.5911 14.4601 23.5911 14.4977C23.4978 14.5293 23.4083 14.5696 23.324 14.6177C23.157 14.7073 22.9685 14.8238 22.9567 15.0011C22.9611 15.0302 22.9549 15.0598 22.9391 15.0853C22.9186 15.107 22.8897 15.1205 22.8585 15.1229C22.7141 15.154 22.5668 15.1726 22.4186 15.1785C22.4186 15.3379 22.4049 15.5045 22.4068 15.6622C22.442 15.8878 22.4617 16.1151 22.4658 16.343C22.4265 16.6618 22.1829 16.9252 21.9708 17.1832C21.1617 18.1667 20.7257 19.2971 20.2544 20.4527C20.166 20.5172 20.0403 20.6014 19.95 20.6605C19.8597 20.7196 19.8145 20.7483 19.7399 20.7931C19.6652 20.8378 19.6024 20.8755 19.5278 20.9185C19.4531 20.9615 19.4649 20.9579 19.4119 20.9865C19.4119 20.9722 19.4119 20.9865 19.4119 20.9865C19.6083 20.6067 19.6083 20.0782 19.1939 19.8901C19.1114 19.8623 19.0334 19.8243 18.9621 19.7773C18.7795 19.6214 18.9288 19.2954 18.7461 19.1377C18.644 19.0517 18.483 19.0571 18.3533 19.0051C18.1236 18.9084 18.0489 18.6468 18.0666 18.4103C18.122 18.1814 18.1523 17.9479 18.1569 17.7135V17.7135Z" fill="#E0E0E0"/>
<path d="M23.0719 11.8935C23.0341 11.8599 22.9892 11.8335 22.94 11.8161C22.8907 11.7986 22.8381 11.7904 22.7853 11.7919C22.7325 11.7934 22.6806 11.8046 22.6326 11.8248C22.5847 11.8451 22.5417 11.8739 22.5063 11.9097C22.4336 12.034 22.4174 12.1794 22.4611 12.3145C22.4925 12.4937 22.5239 12.6836 22.5573 12.8681C22.5719 12.9233 22.5685 12.9812 22.5475 13.0347C22.4886 13.153 22.2765 13.1297 22.196 13.024C22.1268 12.9098 22.1085 12.7757 22.1449 12.6496C22.1834 12.5236 22.1834 12.3904 22.1449 12.2644C22.0074 11.967 21.5224 12.0118 21.2396 11.8183C21.0831 11.6779 20.9612 11.5088 20.8821 11.322C20.8416 11.2288 20.7738 11.1475 20.6862 11.0869C20.5987 11.0263 20.4946 10.9886 20.3853 10.9781C20.3106 10.9781 20.238 11.0049 20.1653 11.0032C20.1129 10.9977 20.0631 10.9796 20.021 10.9506C19.979 10.9216 19.9462 10.8829 19.9261 10.8384C19.9061 10.7939 19.8994 10.7454 19.907 10.6978C19.9145 10.6502 19.9359 10.6053 19.9689 10.5678C20.0048 10.5416 20.0372 10.5116 20.0651 10.4782C20.0804 10.4432 20.0819 10.4044 20.0694 10.3685C20.0569 10.3326 20.0311 10.3017 19.9964 10.2812C19.9267 10.2427 19.8479 10.2199 19.7666 10.2149L19.2128 10.1343C19.0164 10.1056 18.7454 10.0089 18.7749 9.82256C18.8043 9.63624 19.04 9.58966 19.0753 9.43021C19.0781 9.39009 19.086 9.3504 19.0989 9.31197C19.1539 9.20986 19.3228 9.25106 19.4308 9.31197C19.4446 9.27644 19.4672 9.24428 19.4968 9.218C19.5264 9.19171 19.5623 9.17199 19.6016 9.16039C19.6409 9.14878 19.6826 9.14559 19.7235 9.15106C19.7644 9.15653 19.8033 9.17052 19.8373 9.19194C19.9473 9.27435 19.961 9.41947 20.0003 9.55025C20.1219 9.84274 20.3299 10.0988 20.6013 10.2901C20.6762 10.3691 20.779 10.4217 20.8919 10.4388C21.0058 10.4388 21.1256 10.3331 21.0746 10.2418C21.0373 10.1791 20.9391 10.1432 20.9489 10.0734C20.9587 10.0035 21.1296 9.99275 21.163 9.90855C21.0962 9.66132 20.7859 9.55025 20.5483 9.42663C20.2561 9.26376 20.0337 9.01472 19.9178 8.72078C19.9068 8.69793 19.901 8.67321 19.901 8.64822C19.901 8.62323 19.9068 8.59852 19.9178 8.57567C19.9532 8.51296 20.0455 8.50401 20.1241 8.50401C20.3067 8.50401 20.5365 8.52371 20.6032 8.68316C20.6207 8.77133 20.6312 8.86054 20.6347 8.95009C20.6995 9.20986 21.0903 9.23852 21.3279 9.39259C21.4109 9.4634 21.501 9.52697 21.597 9.58249C21.713 9.62201 21.8365 9.64027 21.9603 9.63624C21.9819 9.63624 22.0389 9.63624 22.0605 9.63624C22.1351 9.73119 22.196 9.81539 22.2569 9.9175C22.3177 10.0196 22.3983 10.1271 22.4631 10.2292C22.7677 10.7142 23.014 11.2277 23.1976 11.761C23.2663 11.9401 23.3233 12.1497 23.3743 12.3432C23.4254 12.5367 23.4627 12.7176 23.498 12.9165C23.4248 12.7567 23.3727 12.5895 23.3429 12.4184C23.3168 12.2214 23.2217 12.0374 23.0719 11.8935V11.8935Z" fill="#E0E0E0"/>
<path d="M15.802 8.32044C15.7195 8.2219 15.7431 8.08217 15.6901 7.96214C15.6036 7.78298 15.3287 7.70595 15.2344 7.52142C15.1971 7.44976 15.1893 7.36198 15.1245 7.31003C15.0596 7.25807 14.9929 7.25628 14.9281 7.21687C14.9012 7.19046 14.8812 7.15888 14.8696 7.12448C14.8579 7.09007 14.8549 7.05371 14.8608 7.0181C14.8666 6.98248 14.8812 6.94853 14.9034 6.91874C14.9256 6.88895 14.9548 6.8641 14.9889 6.84603C15.3287 6.64717 15.9532 6.87648 16.2458 7.06997C16.6229 7.31898 16.9921 7.61817 17.4949 7.5895C17.6302 7.5635 17.77 7.5635 17.9053 7.5895C18.035 7.63429 18.1155 7.81165 18.0035 7.88689C17.9427 7.9281 17.8543 7.91735 17.7836 7.94601C17.725 7.98309 17.6843 8.03921 17.6697 8.10284C17.6551 8.16648 17.6677 8.2328 17.705 8.28819C17.7679 8.40464 17.8818 8.49242 17.9564 8.6035C18.0287 8.71073 18.0611 8.83641 18.0487 8.9618C18.0473 9.00543 18.0364 9.04837 18.0165 9.08807C17.9966 9.12777 17.9681 9.16342 17.9328 9.1929C17.7757 9.30756 17.5401 9.21082 17.4065 9.07287C17.273 8.93492 17.1826 8.75936 17.0137 8.6662C16.9249 8.62366 16.8296 8.59347 16.7309 8.57662L16.077 8.43509C15.9739 8.42558 15.8773 8.38527 15.802 8.32044V8.32044Z" fill="#E0E0E0"/>
<path d="M6.29601 14.1079C6.29601 13.9933 6.29601 13.8822 6.29601 13.7693C6.29601 13.6565 6.30779 13.5436 6.31958 13.4325C6.33136 13.3215 6.33921 13.2534 6.35296 13.1638C6.36671 13.0742 6.37849 12.9614 6.39617 12.87C6.44533 12.6017 6.5109 12.3362 6.59256 12.0746C6.62594 11.9725 6.67897 11.8614 6.71628 11.7611C6.7536 11.6607 6.79091 11.5586 6.83215 11.4583C6.87732 11.3831 6.92249 11.3096 6.97355 11.2362C7.45471 10.5411 8.1519 9.99643 8.68215 9.33178C8.85498 9.11501 8.98852 8.93765 9.29489 8.89466C9.74659 8.83016 9.9744 9.07381 10.2965 8.6743C10.3809 8.57039 10.5322 8.47186 10.6598 8.53456L10.5596 8.78717C10.5547 8.80541 10.5547 8.82446 10.5596 8.8427C10.5596 8.90003 10.6618 8.91615 10.7168 8.88391C10.7657 8.84435 10.8063 8.797 10.8366 8.74417C10.8742 8.70003 10.9214 8.66348 10.9753 8.63682C11.0291 8.61016 11.0885 8.59396 11.1495 8.58924C11.2106 8.58453 11.2721 8.59141 11.3301 8.60944C11.3881 8.62747 11.4414 8.65626 11.4866 8.69401C11.492 8.65528 11.5081 8.61846 11.5336 8.58709C11.559 8.55571 11.5929 8.53084 11.6319 8.51486C11.6385 8.55242 11.6536 8.5883 11.6764 8.62016C11.6991 8.65203 11.729 8.67916 11.764 8.69978C11.799 8.7204 11.8384 8.73406 11.8796 8.73986C11.9208 8.74565 11.9629 8.74346 12.0031 8.73342C12.0306 8.65818 11.8814 8.64385 11.8283 8.57935C11.7753 8.51486 11.8382 8.43245 11.899 8.38049C12.0634 8.25121 12.2713 8.17722 12.4882 8.17089C12.6263 8.18706 12.7667 8.17167 12.8967 8.1261C12.9654 8.08848 13.0145 8.02578 13.0931 7.98995C13.1756 7.96359 13.2641 7.95633 13.3504 7.96884C13.4368 7.98135 13.5185 8.01322 13.588 8.06161C13.8103 8.14871 13.9889 8.30845 14.0888 8.50948C14.1634 8.7173 13.9984 8.99856 13.7589 8.97169C13.7005 8.95517 13.6391 8.94909 13.5782 8.95378C13.5378 8.97016 13.5037 8.99715 13.4803 9.0313C13.4569 9.06544 13.4451 9.1052 13.4466 9.14547C13.4525 9.22479 13.4391 9.30434 13.4073 9.37836C13.3661 9.44823 13.2423 9.48406 13.1932 9.41778C13.1469 9.36102 13.1164 9.29481 13.1044 9.22489C13.0925 9.15496 13.0993 9.08343 13.1245 9.01648C13.1735 8.88188 13.1622 8.73505 13.0931 8.60801C13.0008 8.49515 12.7396 8.53098 12.7573 8.67072C12.769 8.75313 12.8712 8.81404 12.8672 8.89824C12.8633 8.98244 12.7494 9.02723 12.6571 9.02364C12.5652 9.00795 12.4714 9.00373 12.3782 9.0111C12.2879 9.03081 12.2152 9.14009 12.28 9.201C12.3939 9.31924 12.6905 9.1168 12.7494 9.26371C12.7553 9.30354 12.7553 9.34391 12.7494 9.38374C12.7592 9.50556 12.9281 9.55035 13.0617 9.56289C13.1929 9.58566 13.3284 9.57639 13.4544 9.53602C13.4853 9.52446 13.5134 9.50742 13.5369 9.48587C13.5605 9.46433 13.5792 9.43872 13.5918 9.41054C13.6044 9.38236 13.6107 9.35217 13.6104 9.32173C13.6101 9.29129 13.6031 9.26121 13.59 9.23325C13.6086 9.22433 13.6291 9.21907 13.6501 9.21779C13.6711 9.21651 13.6922 9.21924 13.7119 9.22582C13.7317 9.2324 13.7498 9.24267 13.765 9.25598C13.7801 9.26929 13.7921 9.28535 13.8001 9.30312C13.829 9.37604 13.8345 9.45499 13.8158 9.53064C13.9572 9.50198 14.0849 9.61126 14.1654 9.72054C14.2459 9.82982 14.3264 9.95702 14.4639 9.99643C14.6014 10.0358 14.7958 9.9821 14.8685 10.0968C14.9627 10.2472 14.6897 10.4371 14.786 10.5858C14.841 10.67 14.9725 10.6665 15.0766 10.6933C15.1414 10.7171 15.1993 10.7544 15.2455 10.8021C15.2917 10.8499 15.325 10.9069 15.3427 10.9685C15.3605 11.0302 15.3622 11.0947 15.3477 11.1571C15.3332 11.2194 15.3029 11.2778 15.2593 11.3275C15.2093 11.3732 15.1499 11.4095 15.0845 11.4343C15.0191 11.459 14.9491 11.4718 14.8783 11.4718C14.8075 11.4718 14.7374 11.459 14.672 11.4343C14.6066 11.4095 14.5473 11.3732 14.4973 11.3275C14.3791 11.1835 14.2802 11.0272 14.2027 10.8617C14.1025 10.7095 13.914 10.5679 13.7255 10.6181C13.6526 10.6438 13.5859 10.6821 13.5291 10.731L13.2541 10.9423C13.1952 10.9871 13.1304 11.0445 13.1363 11.1215C13.1422 11.1985 13.1893 11.22 13.2109 11.2738C13.2679 11.4243 13.0283 11.5676 12.8771 11.4852C12.8072 11.4368 12.7612 11.3652 12.7491 11.286C12.7369 11.2068 12.7596 11.1264 12.8122 11.0624C12.9556 10.8832 13.2777 10.7919 13.2698 10.5697C13.1049 10.4479 12.8456 10.5697 12.7494 10.7489C12.6532 10.928 12.6512 11.1269 12.5707 11.306C12.4902 11.4852 12.2781 11.6357 12.0817 11.5461L12.229 11.0839C12.1092 11.0015 11.9697 11.2415 11.8264 11.2021C11.738 11.177 11.7282 11.0606 11.7655 10.9836C11.8155 10.9131 11.8557 10.8373 11.8853 10.7578C11.887 10.7198 11.8794 10.6819 11.8631 10.6469C11.8468 10.612 11.8221 10.5807 11.7909 10.5555C11.7597 10.5303 11.7227 10.5117 11.6826 10.5012C11.6426 10.4906 11.6004 10.4883 11.5593 10.4945C11.4764 10.5127 11.4014 10.5531 11.344 10.6106C11.2866 10.6681 11.2494 10.74 11.2372 10.8169C11.2321 10.8782 11.2176 10.9385 11.194 10.9961C11.1311 11.1161 10.9681 11.1537 10.8346 11.2039C10.701 11.2541 10.5577 11.3831 10.6146 11.4995C10.6402 11.5533 10.703 11.6034 10.6794 11.659C10.6559 11.7145 10.5812 11.7288 10.5812 11.7808C10.5812 11.8327 10.6205 11.8399 10.6578 11.8542C10.7482 11.8883 10.8542 11.899 10.9328 11.9384C10.9785 11.9539 11.0182 11.9814 11.0469 12.0174C11.0755 12.0535 11.0919 12.0964 11.0938 12.1409C11.084 12.2645 10.921 12.32 10.8425 12.4293C10.7918 12.5391 10.7555 12.6539 10.7344 12.7715C10.6783 12.8707 10.6083 12.9628 10.5263 13.0456C10.3004 13.3268 10.2454 13.6905 10.1335 14.0255C10.0844 14.1778 9.99404 14.3462 9.82318 14.3838C9.7291 14.3901 9.63488 14.3734 9.5502 14.3355C9.29841 14.2661 9.06823 14.1434 8.87855 13.9772C8.787 13.8904 8.73159 13.7772 8.7219 13.6572C8.71222 13.5371 8.74888 13.4177 8.82552 13.3197C8.84543 13.2947 8.87485 13.2775 8.908 13.2713C8.95462 13.2735 8.99959 13.2878 9.03762 13.3125C9.10244 13.3341 9.17261 13.3384 9.24004 13.3251C9.30747 13.3118 9.36938 13.2814 9.41862 13.2373C9.51646 13.1482 9.5939 13.0422 9.64643 12.9255C9.71321 12.8019 9.78194 12.6783 9.84282 12.5529C9.79792 12.5269 9.74479 12.5152 9.6918 12.5197C9.63882 12.5243 9.58899 12.5448 9.5502 12.578C9.47641 12.6462 9.4106 12.7213 9.35381 12.8019C9.12933 13.023 8.81953 13.156 8.48969 13.1728C8.40632 13.1764 8.32411 13.1921 8.24617 13.2194C8.00461 13.3197 7.9339 13.6457 7.6786 13.7156C7.60483 13.7257 7.53198 13.7406 7.4606 13.7604C7.41249 13.7872 7.37127 13.8232 7.33975 13.8659C7.30824 13.9085 7.28717 13.9569 7.27796 14.0076C7.23933 14.1955 7.1855 14.3805 7.11692 14.5612C7.0822 14.6509 7.02051 14.7299 6.93889 14.7892C6.85728 14.8484 6.75904 14.8855 6.6554 14.8962C6.59097 14.896 6.52726 14.8839 6.46816 14.8605C6.40907 14.8371 6.35583 14.8029 6.31172 14.7601C6.3019 14.5809 6.28815 14.4018 6.28815 14.2351C6.29208 14.1796 6.29208 14.1438 6.29601 14.1079Z" fill="#E0E0E0"/>
<path d="M9.80058 17.3853C9.92824 17.4086 9.95377 17.4785 10.0245 17.5645C10.0952 17.6504 10.2464 17.7902 10.3289 17.903C10.4703 18.0929 10.3426 18.3885 10.5253 18.548C10.5669 18.5759 10.6069 18.6058 10.6451 18.6376C10.6789 18.6795 10.6934 18.732 10.6853 18.7836C10.6772 18.8352 10.6473 18.8818 10.6019 18.9135C10.5536 18.9419 10.4973 18.9571 10.4398 18.9571C10.3824 18.9571 10.3261 18.9419 10.2778 18.9135C10.1817 18.8563 10.1118 18.769 10.0814 18.668C10.0681 18.5937 10.0336 18.5238 9.98126 18.4656C9.87521 18.3814 9.71024 18.4441 9.5708 18.4262C8.98163 18.3563 9.23498 17.285 9.80058 17.3853Z" fill="#E0E0E0"/>
<path d="M9.60188 15.8966C9.26016 15.6279 9.12269 15.0188 9.54689 14.8772C9.70793 14.8235 9.89254 14.8665 10.0516 14.811C10.2598 14.7375 10.358 14.5243 10.4326 14.3326C10.629 13.8292 10.8254 13.3276 11.0218 12.8242C11.1416 12.5214 11.3223 12.1703 11.6699 12.1255C11.8704 12.1282 12.0692 12.1596 12.259 12.2186C12.9346 12.3315 14.0737 10.8392 14.5882 11.8442C14.6589 11.5701 15.146 11.6651 15.3011 11.9159C15.4563 12.1667 15.4975 12.4802 15.7371 12.6486C15.9335 12.7758 16.2006 12.7848 16.3538 12.946C16.4484 13.0712 16.4978 13.2203 16.4952 13.3724C16.5207 13.659 16.5463 13.9474 16.5737 14.2341C16.6185 14.464 16.5878 14.7008 16.4854 14.9149C16.3597 15.1173 16.0317 15.2302 15.8432 15.0743C15.7696 14.9905 15.7039 14.9012 15.6468 14.8074C15.5887 14.739 15.51 14.6875 15.4204 14.6592C15.3308 14.6309 15.2341 14.627 15.1421 14.6479C14.9883 14.6952 14.8522 14.7808 14.7493 14.8952C13.8694 15.7604 13.5533 16.9912 13.514 18.1718C13.5243 18.3878 13.4924 18.6038 13.4197 18.8096C13.3176 19.0461 13.1035 19.236 13.0387 19.4832C12.9916 19.6713 13.0387 19.8809 12.9484 20.0565C12.7834 20.3825 12.2355 20.3951 11.9389 20.1622C11.6424 19.9293 11.5363 19.5531 11.4754 19.2001C11.4146 18.8472 11.3772 18.4728 11.1593 18.1754C10.9995 18.0085 10.8569 17.8286 10.7331 17.638C10.6015 17.3531 10.6977 17.0127 10.576 16.7225C10.4228 16.3373 9.9436 16.1671 9.60188 15.8966Z" fill="#E0E0E0"/>
<path d="M57.6128 0.692032H90.082V47.5005H57.6128V0.692032Z" fill="#E0E0E0"/>
<path d="M58.6054 1.57103H89.2148V46.7313H58.6054V1.57103Z" fill="#F5F5F5"/>
<path d="M61.6908 4.20108H73.8965V21.4784H61.6908V4.20108Z" fill="white"/>
<path d="M67.1493 5.72544C67.1493 5.80765 67.176 5.88801 67.2261 5.95636C67.2762 6.02471 67.3473 6.07798 67.4306 6.10944C67.5138 6.1409 67.6054 6.14913 67.6938 6.13309C67.7822 6.11705 67.8634 6.07747 67.9271 6.01934C67.9908 5.96121 68.0342 5.88715 68.0518 5.80653C68.0694 5.72591 68.0603 5.64234 68.0259 5.56639C67.9914 5.49044 67.933 5.42553 67.8581 5.37986C67.7831 5.33419 67.695 5.30981 67.6049 5.30981C67.4841 5.30981 67.3682 5.3536 67.2827 5.43155C67.1973 5.5095 67.1493 5.61521 67.1493 5.72544Z" fill="#E0E0E0"/>
<path d="M73.9896 26.2872H86.1953V43.5645H73.9896V26.2872Z" fill="white"/>
<path d="M79.4501 27.8151C79.4497 27.8971 79.4759 27.9773 79.5254 28.0457C79.5749 28.1141 79.6455 28.1677 79.7282 28.1996C79.811 28.2315 79.9022 28.2404 79.9905 28.2252C80.0788 28.2099 80.1602 28.1712 80.2244 28.1138C80.2886 28.0565 80.3328 27.9831 80.3514 27.9029C80.3701 27.8227 80.3623 27.7393 80.329 27.6631C80.2958 27.587 80.2386 27.5215 80.1647 27.4749C80.0908 27.4283 80.0034 27.4027 79.9136 27.4012C79.8532 27.4003 79.7933 27.4103 79.7372 27.4306C79.6812 27.451 79.6301 27.4813 79.587 27.5198C79.5439 27.5583 79.5096 27.6042 79.4861 27.6549C79.4626 27.7056 79.4503 27.76 79.4501 27.8151V27.8151Z" fill="#E0E0E0"/>
<path d="M75.9408 4.20108H86.3652V17.6929H75.9408V4.20108Z" fill="white"/>
<path d="M80.7791 5.42708C80.7787 5.49555 80.8006 5.56257 80.842 5.61967C80.8834 5.67676 80.9424 5.72136 81.0117 5.7478C81.0809 5.77425 81.1572 5.78135 81.2308 5.76821C81.3045 5.75507 81.3722 5.72229 81.4254 5.674C81.4786 5.62572 81.5149 5.56411 81.5297 5.49699C81.5445 5.42987 81.5371 5.36026 81.5084 5.29698C81.4798 5.23369 81.4312 5.17959 81.3689 5.14151C81.3065 5.10344 81.2331 5.08312 81.1581 5.08311C81.0579 5.08311 80.9618 5.1193 80.8908 5.18375C80.8197 5.24821 80.7796 5.33569 80.7791 5.42708V5.42708Z" fill="#E0E0E0"/>
<path d="M61.2944 26.5231L72.4414 27.6709L71.7442 33.3052L60.5972 32.1574L61.2944 26.5231Z" fill="white"/>
<path d="M66.3492 28.1673C66.3492 28.2381 66.3722 28.3074 66.4154 28.3663C66.4586 28.4253 66.5199 28.4712 66.5917 28.4983C66.6634 28.5254 66.7424 28.5325 66.8186 28.5187C66.8948 28.5049 66.9648 28.4707 67.0197 28.4206C67.0747 28.3705 67.1121 28.3067 67.1272 28.2372C67.1424 28.1677 67.1346 28.0956 67.1049 28.0302C67.0751 27.9647 67.0248 27.9087 66.9602 27.8694C66.8956 27.83 66.8197 27.809 66.742 27.809C66.6378 27.809 66.5379 27.8467 66.4642 27.9139C66.3906 27.9811 66.3492 28.0722 66.3492 28.1673Z" fill="#E0E0E0"/>
<path d="M75.6268 30.2292C75.6268 30.2739 77.5436 30.3116 79.9081 30.3116C82.2727 30.3116 84.1875 30.2739 84.1875 30.2292C84.1875 30.1844 82.2727 30.1467 79.9081 30.1467C77.5436 30.1467 75.6268 30.1826 75.6268 30.2292Z" fill="#E0E0E0"/>
<path d="M75.6268 31.4651C75.6268 31.5099 77.5436 31.5475 79.9081 31.5475C82.2727 31.5475 84.1875 31.5099 84.1875 31.4651C84.1875 31.4203 82.2727 31.3827 79.9081 31.3827C77.5436 31.3827 75.6268 31.4186 75.6268 31.4651Z" fill="#E0E0E0"/>
<path d="M75.6268 32.7003C75.6268 32.745 77.5436 32.7827 79.9081 32.7827C82.2727 32.7827 84.1875 32.745 84.1875 32.7003C84.1875 32.6555 82.2727 32.6178 79.9081 32.6178C77.5436 32.6178 75.6268 32.6537 75.6268 32.7003Z" fill="#E0E0E0"/>
<path d="M75.6268 33.9359C75.6268 33.9807 77.5436 34.0183 79.9081 34.0183C82.2727 34.0183 84.1875 33.9807 84.1875 33.9359C84.1875 33.8911 82.2727 33.8499 79.9081 33.8499C77.5436 33.8499 75.6268 33.8893 75.6268 33.9359Z" fill="#E0E0E0"/>
<path d="M75.6268 35.174C75.6268 35.2188 77.5436 35.2564 79.9081 35.2564C82.2727 35.2564 84.1875 35.2188 84.1875 35.174C84.1875 35.1292 82.2727 35.0916 79.9081 35.0916C77.5436 35.0916 75.6268 35.1274 75.6268 35.174Z" fill="#E0E0E0"/>
<path d="M75.6268 36.4104C75.6268 36.4552 77.5436 36.4928 79.9081 36.4928C82.2727 36.4928 84.1875 36.4552 84.1875 36.4104C84.1875 36.3656 82.2727 36.328 79.9081 36.328C77.5436 36.328 75.6268 36.3602 75.6268 36.4104Z" fill="#E0E0E0"/>
<path d="M75.6268 37.6459C75.6268 37.6907 77.5436 37.7283 79.9081 37.7283C82.2727 37.7283 84.1875 37.6907 84.1875 37.6459C84.1875 37.6011 82.2727 37.5635 79.9081 37.5635C77.5436 37.5635 75.6268 37.5993 75.6268 37.6459Z" fill="#E0E0E0"/>
<path d="M62.3304 28.9047C62.3304 28.9495 64.2157 29.2308 66.5567 29.5318C68.8977 29.8327 70.8007 30.0406 70.8086 29.9958C70.8164 29.951 68.9232 29.6697 66.5822 29.3669C64.2413 29.0642 62.3382 28.8582 62.3304 28.9047Z" fill="#E0E0E0"/>
<path d="M62.1722 29.6768C62.1722 29.7234 64.0556 30.0047 66.3966 30.3057C68.7375 30.6066 70.6406 30.8144 70.6484 30.7679C70.6563 30.7213 68.7631 30.4418 66.4221 30.1408C64.0811 29.8399 62.1879 29.6321 62.1722 29.6768Z" fill="#E0E0E0"/>
<path d="M62.0179 30.3912C62.0179 30.436 63.9032 30.7173 66.2442 31.0183C68.5852 31.3192 70.4882 31.5271 70.4961 31.4823C70.5039 31.4375 68.6107 31.1562 66.2697 30.8552C63.9288 30.5543 62.0258 30.3465 62.0179 30.3912Z" fill="#E0E0E0"/>
<path d="M62.7692 7.81734C62.7692 7.86213 64.9295 7.89975 67.6043 7.89975C70.2791 7.89975 72.4414 7.86213 72.4414 7.81734C72.4414 7.77255 70.2811 7.73314 67.6043 7.73314C64.9275 7.73314 62.7692 7.77076 62.7692 7.81734Z" fill="#E0E0E0"/>
<path d="M62.7692 8.55211C62.7692 8.59869 64.9295 8.63452 67.6043 8.63452C70.2791 8.63452 72.4414 8.59869 72.4414 8.55211C72.4414 8.50553 70.2811 8.4697 67.6043 8.4697C64.9275 8.4697 62.7692 8.50553 62.7692 8.55211Z" fill="#E0E0E0"/>
<path d="M62.7692 9.28562C62.7692 9.3322 64.9295 9.36982 67.6043 9.36982C70.2791 9.36982 72.4414 9.3322 72.4414 9.28562C72.4414 9.23904 70.2811 9.20321 67.6043 9.20321C64.9275 9.20321 62.7692 9.24083 62.7692 9.28562Z" fill="#E0E0E0"/>
<path d="M62.7692 10.0248C62.7692 10.0696 64.9295 10.1072 67.6043 10.1072C70.2791 10.1072 72.4414 10.0696 72.4414 10.0248C72.4414 9.98004 70.2811 9.94063 67.6043 9.94063C64.9275 9.94063 62.7692 9.97646 62.7692 10.0248Z" fill="#E0E0E0"/>
<path d="M62.7692 10.7557C62.7692 10.8005 64.9295 10.8381 67.6043 10.8381C70.2791 10.8381 72.4414 10.8005 72.4414 10.7557C72.4414 10.711 70.2811 10.6715 67.6043 10.6715C64.9275 10.6715 62.7692 10.7092 62.7692 10.7557Z" fill="#E0E0E0"/>
<path d="M62.7692 11.4914C62.7692 11.5379 64.9295 11.5738 67.6043 11.5738C70.2791 11.5738 72.4414 11.5379 72.4414 11.4914C72.4414 11.4448 70.2811 11.409 67.6043 11.409C64.9275 11.409 62.7692 11.4466 62.7692 11.4914Z" fill="#E0E0E0"/>
<path d="M62.7692 12.2244C62.7692 12.271 64.9295 12.3086 67.6043 12.3086C70.2791 12.3086 72.4414 12.271 72.4414 12.2244C72.4414 12.1779 70.2811 12.142 67.6043 12.142C64.9275 12.142 62.7692 12.1725 62.7692 12.2244Z" fill="#E0E0E0"/>
<path d="M62.7692 14.4085C62.7692 14.4533 64.9295 14.4909 67.6043 14.4909C70.2791 14.4909 72.4414 14.4533 72.4414 14.4085C72.4414 14.3637 70.2811 14.3261 67.6043 14.3261C64.9275 14.3261 62.7692 14.3619 62.7692 14.4085Z" fill="#E0E0E0"/>
<path d="M62.7067 15.1841C62.7067 15.2307 64.867 15.2665 67.5438 15.2665C70.2206 15.2665 72.3789 15.2307 72.3789 15.1841C72.3789 15.1375 70.2186 15.1017 67.5438 15.1017C64.8689 15.1017 62.7067 15.1393 62.7067 15.1841Z" fill="#E0E0E0"/>
<path d="M62.6344 15.9585C62.6344 16.005 64.7947 16.0427 67.4696 16.0427C70.1444 16.0427 72.3047 16.005 72.3047 15.9585C72.3047 15.9119 70.1444 15.876 67.4696 15.876C64.7947 15.876 62.6344 15.9137 62.6344 15.9585Z" fill="#E0E0E0"/>
<path d="M62.568 16.738C62.568 16.7828 64.7283 16.8204 67.4031 16.8204C70.078 16.8204 72.2402 16.7828 72.2402 16.738C72.2402 16.6932 70.0799 16.6556 67.4031 16.6556C64.7263 16.6556 62.568 16.6914 62.568 16.738Z" fill="#E0E0E0"/>
<path d="M62.4938 17.5132C62.4938 17.5598 64.6541 17.5956 67.3309 17.5956C70.0077 17.5956 72.166 17.5598 72.166 17.5132C72.166 17.4666 70.0057 17.4308 67.3309 17.4308C64.656 17.4308 62.4938 17.4684 62.4938 17.5132Z" fill="#E0E0E0"/>
<path d="M62.4371 18.2893C62.4371 18.3359 64.5974 18.3735 67.2723 18.3735C69.9471 18.3735 72.1074 18.3359 72.1074 18.2893C72.1074 18.2427 69.9471 18.2069 67.2723 18.2069C64.5974 18.2069 62.4371 18.2445 62.4371 18.2893Z" fill="#E0E0E0"/>
</svg>
