<svg width="154" height="142" viewBox="0 0 154 142" fill="none" xmlns="http://www.w3.org/2000/svg">
<path d="M18.7988 124.522V127.089H39.9926V124.522H18.7988Z" fill="#E0E0E0"/>
<path d="M21.6961 124.625C21.7676 124.625 21.8278 125.164 21.8278 125.83C21.8278 126.495 21.7676 127.031 21.6961 127.031C21.6245 127.031 21.5605 126.492 21.5605 125.83C21.5605 125.168 21.6208 124.625 21.6961 124.625Z" fill="#FAFAFA"/>
<path d="M21.2314 124.573C21.3066 124.573 21.3631 125.113 21.3631 125.775C21.3631 126.437 21.3066 126.98 21.2314 126.98C21.1561 126.98 21.0996 126.44 21.0996 125.775C21.0996 125.109 21.1561 124.573 21.2314 124.573Z" fill="#FAFAFA"/>
<path d="M38.3622 124.625C38.4375 124.625 38.4977 125.164 38.4977 125.83C38.4977 126.495 38.4375 127.031 38.3622 127.031C38.2869 127.031 38.2305 126.492 38.2305 125.83C38.2305 125.168 38.2907 124.625 38.3622 124.625Z" fill="#FAFAFA"/>
<path d="M37.905 124.573C37.9766 124.573 38.0368 125.113 38.0368 125.775C38.0368 126.437 37.9766 126.98 37.905 126.98C37.8335 126.98 37.7695 126.44 37.7695 125.775C37.7695 125.109 37.8298 124.573 37.905 124.573Z" fill="#FAFAFA"/>
<path d="M35.1326 125.88C35.1326 125.948 32.7045 125.999 29.7118 125.999C26.7191 125.999 24.291 125.948 24.291 125.88C24.291 125.811 26.7191 125.76 29.7118 125.76C32.7045 125.76 35.1326 125.811 35.1326 125.88Z" fill="#FAFAFA"/>
<path d="M18.7266 136.079V141.212H39.9203V136.079H18.7266Z" fill="#E0E0E0"/>
<path d="M40.1815 139.769C40.1815 139.769 40.1476 139.793 40.0685 139.827C39.9895 139.861 39.8728 139.913 39.7147 139.974C39.254 140.151 38.771 140.276 38.2767 140.346C37.4845 140.476 36.6672 140.371 35.9465 140.046C35.5007 139.83 35.1205 139.519 34.8397 139.138C34.5175 138.704 34.3834 138.178 34.4633 137.66C34.5096 137.379 34.6398 137.114 34.8397 136.895C34.9469 136.776 35.0832 136.68 35.238 136.616C35.3928 136.552 35.5619 136.521 35.7319 136.527C35.9069 136.54 36.0771 136.585 36.2319 136.66C36.3867 136.736 36.5227 136.839 36.6316 136.964C36.8634 137.211 37.0065 137.517 37.0419 137.841C37.0708 138.174 37.0206 138.508 36.8946 138.822C36.7686 139.136 36.5698 139.422 36.3116 139.66C35.7753 140.174 35.052 140.496 34.2751 140.565C33.4751 140.634 32.6679 140.543 31.911 140.298C31.1021 140.069 30.3841 139.631 29.8443 139.039C29.566 138.721 29.3982 138.334 29.3625 137.93C29.34 137.719 29.3688 137.507 29.4468 137.307C29.5249 137.108 29.6503 136.926 29.8142 136.776C29.9936 136.62 30.2285 136.527 30.4768 136.513C30.7222 136.507 30.9638 136.569 31.1694 136.691C31.5667 136.927 31.8464 137.294 31.9487 137.715C32.0373 138.125 32.0069 138.549 31.8604 138.946C31.7139 139.343 31.4564 139.698 31.113 139.977C30.4401 140.492 29.6045 140.801 28.7263 140.858C27.8939 140.945 27.0506 140.869 26.2531 140.636C25.4702 140.413 24.8021 139.942 24.3709 139.308C24.1564 139.008 24.0235 138.666 23.9829 138.31C23.9423 137.954 23.9953 137.594 24.1375 137.261C24.2079 137.093 24.3238 136.945 24.4746 136.829C24.6253 136.713 24.8059 136.634 24.9995 136.598C25.1857 136.568 25.3769 136.573 25.5609 136.613C25.7449 136.653 25.9177 136.727 26.0686 136.831C26.3328 137.041 26.5219 137.318 26.6118 137.626C26.7016 137.934 26.6881 138.26 26.5731 138.561C26.367 139.099 25.9962 139.573 25.504 139.926C24.6887 140.552 23.6655 140.913 22.5978 140.95C21.9479 140.971 21.3005 140.868 20.6974 140.647C20.0943 140.427 19.549 140.094 19.0969 139.67C19.0064 139.586 18.9209 139.497 18.8409 139.404C18.8127 139.373 18.7875 139.34 18.7656 139.305C19.2131 139.753 19.7478 140.122 20.3429 140.394C21.0441 140.706 21.8213 140.852 22.6016 140.817C23.6316 140.764 24.6135 140.404 25.3948 139.793C25.8533 139.456 26.1978 139.009 26.3886 138.503C26.4883 138.239 26.4997 137.954 26.4213 137.685C26.3429 137.415 26.1783 137.173 25.9482 136.988C25.8217 136.902 25.6773 136.841 25.5239 136.808C25.3704 136.775 25.2112 136.771 25.056 136.796C24.8986 136.826 24.7522 136.892 24.6309 136.987C24.5096 137.083 24.4175 137.205 24.3633 137.342C24.2396 137.644 24.1959 137.968 24.2358 138.287C24.2757 138.607 24.398 138.913 24.593 139.182C24.9971 139.767 25.6197 140.201 26.3472 140.404C27.1103 140.624 27.9161 140.693 28.7113 140.609C29.5331 140.553 30.3152 140.266 30.9473 139.786C31.2574 139.533 31.4898 139.211 31.6217 138.852C31.7537 138.493 31.7807 138.11 31.7002 137.738C31.6153 137.377 31.3791 137.06 31.0414 136.854C30.8891 136.752 30.7021 136.702 30.5129 136.712C30.3237 136.722 30.1444 136.791 30.0062 136.909C29.8693 137.035 29.7647 137.186 29.6996 137.352C29.6345 137.519 29.6107 137.696 29.6298 137.872C29.6615 138.23 29.8095 138.572 30.0552 138.855C30.5625 139.41 31.2356 139.821 31.9938 140.039C32.7166 140.275 33.4875 140.364 34.2525 140.302C34.9686 140.239 35.6363 139.946 36.1347 139.476C36.3723 139.26 36.5561 139.001 36.6737 138.715C36.7912 138.43 36.8398 138.124 36.8161 137.82C36.8034 137.544 36.6877 137.28 36.4881 137.071C36.2884 136.862 36.0166 136.721 35.7169 136.67C35.5773 136.666 35.4386 136.691 35.3114 136.743C35.1842 136.795 35.0718 136.873 34.9828 136.97C34.7992 137.165 34.6781 137.401 34.6327 137.653C34.5557 138.131 34.6778 138.618 34.9753 139.018C35.2363 139.383 35.5917 139.684 36.0105 139.896C36.706 140.219 37.4974 140.333 38.2691 140.22C38.7576 140.159 39.2372 140.05 39.6996 139.896C40.0158 139.824 40.1777 139.759 40.1815 139.769Z" fill="#FAFAFA"/>
<path d="M20.6133 127.16V136.069H39.9135V127.16H20.6133Z" fill="#EBEBEB"/>
<path d="M23.8133 127.468C23.8848 127.468 23.945 129.396 23.945 131.778C23.945 134.161 23.8848 136.089 23.8133 136.089C23.7417 136.089 23.6777 134.161 23.6777 131.778C23.6777 129.396 23.738 127.468 23.8133 127.468Z" fill="#E0E0E0"/>
<path d="M25.282 127.355C25.3535 127.355 25.4138 129.263 25.4138 131.611C25.4138 133.959 25.3535 135.867 25.282 135.867C25.2105 135.867 25.1465 133.963 25.1465 131.611C25.1465 129.259 25.2067 127.355 25.282 127.355Z" fill="#E0E0E0"/>
<path d="M37.7293 127.082C37.8008 127.082 37.861 129.089 37.861 131.567C37.861 134.045 37.8008 136.049 37.7293 136.049C37.6577 136.049 37.5938 134.042 37.5938 131.567C37.5938 129.093 37.654 127.082 37.7293 127.082Z" fill="#E0E0E0"/>
<path d="M36.0086 127.191C36.0801 127.191 36.1403 129.144 36.1403 131.557C36.1403 133.97 36.0801 135.922 36.0086 135.922C35.937 135.922 35.873 133.97 35.873 131.557C35.873 129.144 35.9333 127.191 36.0086 127.191Z" fill="#E0E0E0"/>
<path d="M139.905 107.715C141.907 106.777 144.26 106.657 146.485 106.988C147.678 107.169 148.921 107.49 149.734 108.306C150.547 109.122 150.697 110.548 149.768 111.245C149.21 111.661 148.439 111.726 147.716 111.716C145.977 111.699 144.049 111.422 142.66 112.371C141.866 112.91 141.339 113.811 140.402 114.078C139.464 114.344 138.429 113.842 137.94 113.084C137.487 112.294 137.388 111.376 137.661 110.521C137.772 109.928 138.032 109.367 138.421 108.88C138.81 108.394 139.318 107.995 139.905 107.715Z" fill="#EBEBEB"/>
<path d="M135.318 99.6913C136.541 101.275 138.92 100.749 140.023 99.7835C141.126 98.8176 141.593 97.4148 142.015 96.0768C142.986 93.0255 143.961 89.8205 143.242 86.7112C143.07 85.768 142.612 84.8866 141.921 84.165C141.571 83.8092 141.124 83.5426 140.626 83.3917C140.127 83.2408 139.594 83.2109 139.078 83.3049C137.881 83.595 137.136 84.6701 136.598 85.6702C135.011 88.6614 134.179 91.9353 134.162 95.2542C134.162 96.797 134.358 98.4148 135.318 99.6913Z" fill="#EBEBEB"/>
<path d="M131.973 101.964C133.301 100.534 133.554 98.4488 132.963 96.6604C132.372 94.8719 131.035 93.3428 129.496 92.1004C127.684 90.6382 125.576 89.5101 123.288 88.7794C122.403 88.4564 121.452 88.3097 120.499 88.3494C120.022 88.3744 119.56 88.5047 119.152 88.729C118.743 88.9533 118.402 89.2647 118.157 89.6361C117.502 90.7659 118.131 92.1345 118.808 93.2541C120.003 95.2223 121.364 97.1029 122.882 98.8789C124.105 100.309 125.517 101.719 127.365 102.364C129.213 103.009 131.163 102.93 132.15 101.76" fill="#EBEBEB"/>
<path d="M135.234 123.59C135.299 123.354 135.336 123.113 135.347 122.87C135.403 122.348 135.471 121.689 135.558 120.907C135.666 119.939 135.828 118.977 136.043 118.023C136.327 116.859 136.713 115.718 137.199 114.61C137.676 113.51 138.321 112.476 139.115 111.538C139.762 110.774 140.589 110.15 141.536 109.712C142.179 109.426 142.867 109.231 143.576 109.135C143.843 109.128 144.108 109.094 144.366 109.033C144.099 109.006 143.829 109.006 143.561 109.033C142.825 109.084 142.104 109.254 141.434 109.535C140.438 109.962 139.565 110.591 138.882 111.374C138.051 112.326 137.381 113.384 136.894 114.515C136.408 115.635 136.03 116.792 135.765 117.972C135.56 118.936 135.418 119.911 135.339 120.89C135.272 121.723 135.245 122.399 135.234 122.867C135.206 123.107 135.206 123.35 135.234 123.59Z" fill="#E0E0E0"/>
<path d="M135.394 122.078C135.416 121.965 135.424 121.851 135.416 121.737C135.416 121.487 135.416 121.17 135.416 120.781C135.416 119.955 135.416 118.753 135.461 117.272C135.544 114.31 135.838 111.129 136.369 106.623C136.884 102.398 137.573 97.476 138.303 94.2779C138.458 93.5509 138.616 92.8956 138.766 92.3222C138.917 91.7488 139.026 91.2539 139.143 90.8545C139.26 90.4552 139.324 90.1719 139.388 89.9262C139.422 89.8145 139.444 89.7002 139.455 89.5848C139.398 89.684 139.355 89.7896 139.327 89.8988C139.245 90.1378 139.143 90.4415 139.019 90.8136C138.894 91.1856 138.744 91.701 138.586 92.2744C138.428 92.8478 138.247 93.4997 138.078 94.2267C137.173 98.0091 136.493 101.833 136.041 105.681C135.499 110.187 135.254 114.289 135.232 117.259C135.213 118.743 135.232 119.945 135.288 120.774C135.314 121.163 135.337 121.481 135.352 121.73C135.35 121.847 135.364 121.964 135.394 122.078Z" fill="#E0E0E0"/>
<path d="M135.414 114.167C135.442 113.835 135.442 113.502 135.414 113.171C135.372 112.529 135.274 111.6 135.075 110.467C134.835 109.139 134.512 107.824 134.107 106.529C133.633 104.935 133.025 103.376 132.289 101.866C131.03 99.0828 129.222 96.5303 126.955 94.3334C126.56 93.9582 126.14 93.6048 125.698 93.2753C125.506 93.1286 125.321 92.9818 125.163 92.8658L124.677 92.562C124.384 92.3592 124.073 92.1789 123.748 92.0227C123.695 92.0876 125.061 92.8146 126.785 94.4802C128.979 96.6963 130.738 99.2358 131.988 101.989C132.707 103.489 133.315 105.03 133.806 106.604C134.284 108.051 134.6 109.382 134.841 110.501C135.082 111.621 135.199 112.549 135.278 113.181C135.294 113.512 135.339 113.842 135.414 114.167Z" fill="#407BFF"/>
<path d="M126.383 126.922L127.26 137.782H142.645L143.522 126.922H126.383Z" fill="#407BFF"/>
<path d="M145.362 122.641H124.902V126.921H145.362V122.641Z" fill="#EBEBEB"/>
<path d="M124.902 137.367V138.554H125.866H145.027V137.367H124.902Z" fill="#E0E0E0"/>
<path d="M126.804 140.509L125.863 138.423H144.29L143.191 140.509H126.804Z" fill="#E0E0E0"/>
<path d="M143.746 126.851C143.746 126.899 139.887 126.936 135.133 126.936C130.378 126.936 126.52 126.899 126.52 126.851C126.52 126.803 130.374 126.766 135.133 126.766C139.891 126.766 143.746 126.803 143.746 126.851Z" fill="#F5F5F5"/>
<path d="M73.8632 12.2228H0.347656V62.1331H73.8632V12.2228Z" fill="#E0E0E0"/>
<path d="M71.5757 14.5453H2.92383V60.0834H71.5757V14.5453Z" fill="#FAFAFA"/>
<path d="M18.0918 34.4386C18.0918 34.4386 18.1633 42.0806 18.5925 44.4152L29.1668 43.9612C29.1668 43.9612 28.2407 36.4523 28.5983 34.4386H18.0918Z" fill="#E0E0E0"/>
<path d="M23.2971 35.5168H23.4514C23.5986 35.5119 23.746 35.5187 23.8919 35.5373C24.1236 35.5685 24.3492 35.6294 24.5619 35.7182C24.8436 35.8447 25.0925 36.0238 25.2922 36.2438C25.5378 36.5114 25.7117 36.8268 25.8004 37.1654C25.8831 37.5618 25.8454 37.9712 25.6913 38.3497C25.6125 38.5556 25.5129 38.7544 25.3939 38.9436C25.2675 39.1362 25.1544 39.3357 25.0551 39.5409C24.8442 39.9762 24.6999 40.4355 24.6259 40.9062V40.9369H24.5921H23.5493H22.4539H22.4124V40.9028C22.3655 40.4344 22.1909 39.984 21.9042 39.5921C21.7763 39.3941 21.637 39.2133 21.5278 39.0255C21.3911 38.8488 21.2655 38.6654 21.1514 38.476C20.9583 38.1134 20.9001 37.7038 20.9857 37.3087C21.0472 36.9676 21.187 36.642 21.396 36.353C21.5746 36.1208 21.8088 35.9283 22.0812 35.7899C22.4174 35.6282 22.7861 35.5295 23.1653 35.4998H23.3159C23.3159 35.4998 23.3159 35.4998 23.2783 35.4998H23.1653C23.0217 35.5151 22.8795 35.5402 22.7399 35.5748C22.5173 35.6275 22.3034 35.7067 22.1038 35.8104C21.8374 35.9468 21.6094 36.1372 21.4375 36.3667C21.243 36.6532 21.1149 36.9725 21.061 37.3053C20.9789 37.6882 21.037 38.0849 21.2266 38.4351C21.3419 38.6216 21.4676 38.8027 21.6031 38.9777C21.7348 39.1586 21.8741 39.3464 22.0021 39.5443C22.2993 39.9452 22.4793 40.4079 22.5254 40.8891L22.484 40.8516H23.5794H24.6259L24.5845 40.8857C24.6598 40.409 24.8067 39.9439 25.0212 39.5034C25.1245 39.2965 25.2401 39.0948 25.3675 38.8992C25.4844 38.7142 25.5827 38.52 25.6611 38.319C25.8135 37.9521 25.8539 37.5547 25.7778 37.1688C25.692 36.8383 25.5261 36.5294 25.2922 36.2643C25.098 36.047 24.8556 35.8691 24.5808 35.7421C24.3724 35.6508 24.1505 35.5875 23.922 35.5544C23.7787 35.5345 23.634 35.5231 23.4891 35.5202H23.3724C23.3121 35.5202 23.2971 35.5202 23.2971 35.5168Z" fill="white"/>
<path d="M23.8409 40.8464C23.8401 40.8362 23.8401 40.8259 23.8409 40.8157V40.727C23.8409 40.6485 23.807 40.5324 23.7844 40.3857C23.7355 40.0853 23.6639 39.6552 23.6188 39.1194C23.6188 38.9863 23.5962 38.8463 23.5924 38.6996C23.5829 38.5461 23.5829 38.3923 23.5924 38.2388C23.5965 38.0741 23.6361 37.9118 23.7091 37.761C23.7905 37.598 23.9352 37.468 24.1157 37.3957C24.2118 37.3591 24.3176 37.349 24.4201 37.3666C24.5225 37.3842 24.6169 37.4288 24.6916 37.4947C24.7314 37.5281 24.7627 37.5689 24.7835 37.6142C24.8043 37.6596 24.814 37.7085 24.8121 37.7575C24.8099 37.8564 24.773 37.9521 24.7067 38.0306C24.6386 38.1104 24.551 38.1746 24.4507 38.2183C24.3512 38.2607 24.2462 38.2917 24.1382 38.3105C23.6972 38.3922 23.2442 38.4061 22.7981 38.3514C22.6878 38.3378 22.5801 38.3102 22.4781 38.2695C22.3787 38.229 22.2892 38.171 22.2146 38.0989C22.1382 38.0266 22.0849 37.937 22.0603 37.8395C22.0366 37.7439 22.0499 37.6439 22.0979 37.5562C22.1415 37.4678 22.2211 37.3981 22.32 37.3616C22.367 37.3433 22.4176 37.3339 22.4687 37.3339C22.5198 37.3339 22.5704 37.3433 22.6174 37.3616C22.7083 37.399 22.7863 37.458 22.8433 37.5323C22.8963 37.6052 22.9345 37.6861 22.9562 37.7712C22.9881 37.9335 23.0057 38.0979 23.0089 38.2627L23.0616 39.1399C23.088 39.6757 23.1143 40.1092 23.1294 40.413C23.1294 40.5597 23.1294 40.6758 23.1294 40.7543V40.8737C23.1302 40.8635 23.1302 40.8532 23.1294 40.843C23.1294 40.8225 23.1294 40.7918 23.1294 40.7543C23.1294 40.7167 23.1294 40.5563 23.1068 40.413C23.1068 40.1092 23.0579 39.6757 23.024 39.1399C23.024 38.8736 22.9901 38.5801 22.9713 38.2627C22.9689 38.0999 22.95 37.9377 22.9148 37.778C22.8964 37.6963 22.8606 37.6186 22.8094 37.5493C22.7535 37.4798 22.6799 37.4236 22.5948 37.3855C22.5514 37.3687 22.5047 37.36 22.4574 37.36C22.4102 37.36 22.3635 37.3687 22.32 37.3855C22.2284 37.4201 22.1545 37.4847 22.113 37.5664C22.0696 37.6493 22.0577 37.7429 22.0791 37.8326C22.1045 37.9234 22.155 38.0069 22.2259 38.075C22.3787 38.2116 22.5774 38.2981 22.7906 38.3207C23.0114 38.347 23.2343 38.3561 23.4569 38.348C23.6795 38.3427 23.9012 38.3199 24.1194 38.2798C24.2251 38.2614 24.3277 38.2305 24.4243 38.1876C24.5197 38.1461 24.6034 38.0854 24.669 38.0101C24.7312 37.9363 24.7667 37.8469 24.7707 37.7541C24.7705 37.709 24.7604 37.6643 24.741 37.6227C24.7216 37.5811 24.6933 37.5434 24.6577 37.5118C24.5869 37.4506 24.4982 37.409 24.4021 37.3921C24.306 37.3751 24.2066 37.3835 24.1157 37.4162C23.9485 37.4846 23.8147 37.606 23.7392 37.7575C23.6676 37.9064 23.628 38.0663 23.6225 38.2286C23.6225 38.3856 23.6225 38.5357 23.6225 38.6825C23.6225 38.8293 23.6225 38.9692 23.6489 39.1057C23.694 39.6416 23.7618 40.0716 23.8032 40.3686C23.8258 40.5188 23.8446 40.6314 23.8559 40.7099V40.7986C23.853 40.8151 23.8479 40.8311 23.8409 40.8464Z" fill="white"/>
<path d="M22.4375 40.8974C22.4547 41.0025 22.4647 41.1085 22.4676 41.2148C22.4676 41.4423 22.4827 41.7188 22.5128 42.0442V42.0237L23.228 42.778H23.1904L24.0148 42.737H23.9809L24.3875 42.2865L24.5945 42.0578V42.0885C24.5945 41.6482 24.5719 41.2353 24.5644 40.8598L24.6096 40.8974H23.0699H22.4375C22.4862 40.8911 22.5356 40.8911 22.5843 40.8974L23.0172 40.8769L24.5832 40.8223H24.6284V40.8632C24.6284 41.2421 24.6548 41.6551 24.6698 42.092V42.0954C24.6021 42.1705 24.5343 42.249 24.4628 42.324L24.0524 42.778H24.0299L23.2054 42.8155H23.1904L22.4902 42.0612C22.4902 41.7199 22.4902 41.4469 22.4902 41.2079C22.4659 41.1054 22.4483 41.0017 22.4375 40.8974Z" fill="white"/>
<path d="M24.57 41.9759C24.57 41.9759 24.5399 41.9759 24.491 41.9452C24.4209 41.9168 24.3493 41.8918 24.2764 41.8701C24.0347 41.7936 23.7793 41.7589 23.5235 41.7677C23.2649 41.7729 23.0096 41.8215 22.7706 41.9111L22.5636 41.9998L22.4883 42.034C22.5077 42.0155 22.5307 42.0005 22.556 41.9896C22.6228 41.9528 22.6919 41.9198 22.7631 41.8906C23.0005 41.7951 23.2563 41.7429 23.516 41.737C23.7727 41.7284 24.0288 41.7667 24.2689 41.8497C24.3414 41.8732 24.4119 41.9017 24.4797 41.935L24.57 41.9759Z" fill="white"/>
<path d="M24.5662 41.6788L24.491 41.6481L24.2764 41.5696C24.0341 41.4951 23.7792 41.4605 23.5235 41.4672C23.2653 41.4756 23.0107 41.5241 22.7706 41.6106C22.6803 41.6447 22.6125 41.6754 22.5636 41.6993L22.4883 41.7335L22.556 41.6891C22.6222 41.6523 22.6914 41.6204 22.7631 41.5935C23.0002 41.4967 23.256 41.4433 23.516 41.4365C23.7725 41.4313 24.0278 41.4695 24.2689 41.5491C24.3592 41.5833 24.4307 41.614 24.4797 41.6379C24.5286 41.6618 24.57 41.6754 24.5662 41.6788Z" fill="white"/>
<path d="M24.5545 41.3917L24.4792 41.3644C24.4265 41.3439 24.355 41.3132 24.2647 41.2859C24.0224 41.2115 23.7675 41.1769 23.5118 41.1835C23.2531 41.1881 22.9977 41.2367 22.7589 41.3268C22.6685 41.361 22.6008 41.3917 22.5519 41.4156L22.4766 41.4497L22.5443 41.4053C22.6106 41.3678 22.6798 41.3348 22.7514 41.3063C22.9894 41.2125 23.2448 41.1604 23.5043 41.1528C23.7607 41.1479 24.016 41.186 24.2571 41.2654C24.3296 41.2905 24.4 41.3202 24.4679 41.3541C24.4993 41.3613 24.5287 41.3741 24.5545 41.3917Z" fill="white"/>
<path d="M15.2149 25.1514C14.0413 25.309 12.8585 25.4047 11.6726 25.4381C10.4902 25.537 9.30215 25.57 8.11523 25.5371C9.28917 25.3816 10.4718 25.2859 11.6576 25.2504C12.8403 25.1557 14.028 25.1226 15.2149 25.1514Z" fill="white"/>
<path d="M15.2209 26.7705C14.0475 26.9307 12.8647 27.0276 11.6786 27.0606C10.4972 27.1554 9.31065 27.1884 8.125 27.1596C9.29865 27.0018 10.4814 26.9061 11.6673 26.8729C12.8487 26.7761 14.0352 26.7419 15.2209 26.7705Z" fill="white"/>
<path d="M13.4297 28.3595C12.7665 28.4892 12.0904 28.5578 11.412 28.5643C10.7386 28.6264 10.0601 28.6264 9.38672 28.5643C10.0487 28.4347 10.7235 28.3661 11.4007 28.3595C12.0753 28.2973 12.7551 28.2973 13.4297 28.3595Z" fill="white"/>
<path d="M5.80664 44.4327C5.80664 44.4327 5.87816 52.0747 6.30731 54.4093L16.8816 53.9554C16.8816 53.9554 15.9518 46.4465 16.3094 44.4327H5.80664Z" fill="#EBEBEB"/>
<path d="M14.7073 47.642C13.5338 47.8017 12.351 47.8986 11.1649 47.9321C9.98348 48.0268 8.79698 48.0598 7.61133 48.0311C8.7837 47.8732 9.96522 47.7774 11.1499 47.7444C12.3325 47.6476 13.5203 47.6134 14.7073 47.642Z" fill="white"/>
<path d="M14.7073 49.2623C13.5337 49.4202 12.3509 49.516 11.1649 49.549C9.98348 49.6437 8.79698 49.6768 7.61133 49.6479C8.78497 49.4902 9.96775 49.3944 11.1537 49.3612C12.3351 49.2665 13.5216 49.2335 14.7073 49.2623Z" fill="white"/>
<path d="M12.92 50.8534C12.258 50.9827 11.5831 51.0502 10.906 51.0548C10.232 51.1226 9.55219 51.1283 8.87695 51.0718C9.53896 50.9423 10.2137 50.8737 10.8909 50.867C11.5649 50.7992 12.2449 50.7946 12.92 50.8534Z" fill="white"/>
<path d="M34.7051 23.9674L35.7516 46.0163L66.108 46.3474L64.7452 24.2575L34.7051 23.9674Z" fill="#EBEBEB"/>
<path d="M64.5065 23.8115H34.3496V44.4576H64.5065V23.8115Z" fill="#F5F5F5"/>
<path d="M64.5004 44.4575C64.5004 44.4575 64.5004 44.3244 64.5004 44.0718C64.5004 43.8192 64.5004 43.4506 64.5004 42.9728C64.5004 42.0034 64.5004 40.5836 64.4778 38.7951C64.4778 35.1942 64.4515 30.0438 64.4326 23.8114L64.5192 23.8865H34.3661L34.4715 23.7943C34.4715 31.2179 34.4715 38.249 34.4715 44.4404L34.3774 44.3551L56.1283 44.396L62.317 44.4199H63.9621H64.3875H64.5343H63.9809L62.3246 44.4848L56.1622 44.5087L34.3285 44.5496H34.2344V44.4677C34.2344 38.2763 34.2344 31.2452 34.2344 23.8216V23.7261H34.3398H64.4929H64.5832V23.8046C64.5832 30.054 64.5493 35.2249 64.538 38.8224C64.538 40.6143 64.538 42.0171 64.5155 42.983C64.5155 43.454 64.5155 43.8158 64.5155 44.0684C64.5079 44.3346 64.5004 44.4575 64.5004 44.4575Z" fill="#E0E0E0"/>
<path d="M50.2114 28.1824H37.9883V42.1319H50.2114V28.1824Z" fill="#F5F5F5"/>
<path d="M50.2099 42.1332C50.2057 42.1095 50.2057 42.0853 50.2099 42.0616V41.8636C50.2099 41.6793 50.2099 41.4267 50.2099 41.1025C50.2099 40.4198 50.2099 39.4608 50.1873 38.2388C50.1873 35.7848 50.1572 32.3102 50.1384 28.1837L50.2325 28.2691H38.0094C37.983 28.2691 38.2051 28.0916 38.111 28.1769V31.9689C38.111 33.2079 38.111 34.4161 38.111 35.5868C38.111 37.9317 38.111 40.1263 38.111 42.1196L38.0282 42.0411L46.8784 42.082L49.3591 42.1025H50.0179H50.2513C50.1799 42.1072 50.1082 42.1072 50.0367 42.1025H49.3968L46.9311 42.123L38.0282 42.164H37.9416V42.0855C37.9416 40.0922 37.9416 37.8975 37.9416 35.5527C37.9416 34.382 37.9416 33.1635 37.9416 31.9348V28.1906C37.8475 28.2725 38.0659 28.0711 38.047 28.095H50.2701H50.3642V28.1803C50.3454 32.3273 50.3266 35.8223 50.3153 38.29L50.2927 41.1332C50.2927 41.4517 50.2927 41.7009 50.2927 41.8807C50.2927 41.9558 50.2927 42.0172 50.2927 42.0684C50.268 42.0929 50.2402 42.1147 50.2099 42.1332Z" fill="#E0E0E0"/>
<path d="M61.8967 24.9918H38.4707V27.0022H61.8967V24.9918Z" fill="#F5F5F5"/>
<path d="M61.8819 27.0038C61.8819 27.0038 61.8819 26.9526 61.8819 26.8672C61.8819 26.7819 61.8819 26.6386 61.8819 26.4747C61.8819 26.1334 61.8819 25.6317 61.8556 24.9934L61.897 25.031C57.9481 25.0651 48.9436 25.089 38.4709 25.089C38.678 24.8979 38.5274 25.0344 38.5763 24.9934V26.9969L38.4747 26.9014L55.0796 26.9423L60.0637 26.9696H61.4189H61.7765C61.8179 26.9668 61.8594 26.9668 61.9007 26.9696H61.7916H61.449H60.1164L55.1549 27.0004L38.4747 27.0379H38.373V26.9457C38.373 26.6249 38.373 26.2938 38.373 25.9594V24.9354L38.4785 24.8398C48.9511 24.8398 57.9556 24.8637 61.9045 24.8979H61.9497V24.9354C61.9497 25.5805 61.9497 26.0856 61.9271 26.4406C61.9271 26.601 61.9271 26.7239 61.9271 26.8195C61.924 26.8828 61.9087 26.9452 61.8819 27.0038Z" fill="#E0E0E0"/>
<path d="M61.8725 28.1824H51.6973V36.5889H61.8725V28.1824Z" fill="#F5F5F5"/>
<path d="M61.8844 36.5897C61.8844 36.5897 61.8844 36.5317 61.8844 36.4293V35.972C61.8844 35.5624 61.8844 34.9856 61.8618 34.2654C61.8618 32.7841 61.8355 30.6987 61.8167 28.19L61.9032 28.2719H51.7393L51.8409 28.1798V30.4359C51.8409 31.1731 51.8409 31.8967 51.8409 32.6032C51.8409 34.0128 51.8409 35.3337 51.8409 36.5829L51.7468 36.501L59.0875 36.542L61.1692 36.5659H61.7263C61.7915 36.5609 61.8569 36.5609 61.9221 36.5659C61.8632 36.5708 61.804 36.5708 61.7451 36.5659H61.2068L59.1477 36.5863L51.7468 36.6273H51.6565V36.542C51.6565 35.3098 51.6565 33.9719 51.6565 32.5622C51.6565 31.8557 51.6565 31.1321 51.6565 30.3949V28.1388C51.5624 28.2207 51.7807 28.0228 51.7619 28.0432H61.9258H62.0162V28.1217C61.9974 30.6509 61.9823 32.7568 61.971 34.2654C61.971 34.9822 61.9522 35.5522 61.9484 35.972C61.9484 36.1517 61.9484 36.2985 61.9484 36.4123C61.9362 36.4738 61.9146 36.5335 61.8844 36.5897Z" fill="#E0E0E0"/>
<path d="M61.8725 37.9066H51.6973V42.1321H61.8725V37.9066Z" fill="#F5F5F5"/>
<path d="M61.8812 42.1322C61.8812 42.1322 61.8812 42.023 61.8812 41.825L61.8624 40.9785C61.8624 40.2311 61.8398 39.1901 61.821 37.9067L61.8963 37.975L51.7323 38.0023C51.6382 38.0876 51.8566 37.8862 51.834 37.9101V40.0843C51.834 40.7908 51.834 41.4769 51.834 42.1322L51.7323 42.0434L59.009 42.0844L61.1321 42.1117H61.7043H61.9076C61.8475 42.1167 61.787 42.1167 61.7269 42.1117H61.1735L59.0767 42.139L51.7323 42.18H51.6345V42.0912C51.6345 41.4359 51.6345 40.7499 51.6345 40.0433V37.8692C51.6119 37.8692 51.8302 37.6883 51.7399 37.7736L61.9038 37.7975H61.9528V37.8658C61.9528 39.1662 61.9226 40.2242 61.9151 40.9785C61.9151 41.3199 61.9151 41.6031 61.9151 41.8113C61.9153 41.919 61.9039 42.0265 61.8812 42.1322Z" fill="#E0E0E0"/>
<path d="M49.9102 28.207C46.1232 32.9479 41.7715 37.3918 37.9883 42.1326L49.9102 28.207Z" fill="white"/>
<path d="M37.9883 42.1328C37.9883 42.1328 38.0146 42.0748 38.0862 41.9758L38.4061 41.5526C38.6847 41.184 39.1026 40.6617 39.6296 40.0235C40.6798 38.7401 42.1819 37.0063 43.8683 35.112C45.5548 33.2177 47.0719 31.4975 48.1485 30.238L49.4246 28.7465L49.7747 28.3403C49.8575 28.2516 49.9027 28.2038 49.9102 28.2072C49.8829 28.2628 49.8489 28.3155 49.8086 28.3642L49.4886 28.7874C49.21 29.1561 48.7922 29.6783 48.2652 30.3199C47.2149 31.5999 45.7129 33.3337 44.0264 35.228C42.34 37.1223 40.8267 38.8425 39.7463 40.102L38.4701 41.5969L38.12 41.9997C38.082 42.0486 38.0378 42.0932 37.9883 42.1328Z" fill="#E0E0E0"/>
<path d="M50.2163 42.1322C50.1712 42.1629 47.3968 39.0603 44.0238 35.2171C40.6509 31.3739 37.9481 28.2168 38.0008 28.1827C38.0535 28.1485 40.8165 31.2545 44.1932 35.1011C47.5699 38.9477 50.2615 42.0946 50.2163 42.1322Z" fill="#E0E0E0"/>
<path d="M35.7465 28.2132C35.7465 28.5562 35.6344 28.8914 35.4243 29.1765C35.2141 29.4617 34.9155 29.6839 34.566 29.8151C34.2166 29.9464 33.8321 29.9807 33.4611 29.9138C33.0902 29.8469 32.7494 29.6818 32.482 29.4393C32.2145 29.1968 32.0324 28.8878 31.9586 28.5515C31.8848 28.2152 31.9227 27.8665 32.0674 27.5497C32.2122 27.2329 32.4573 26.9621 32.7718 26.7716C33.0863 26.5811 33.456 26.4794 33.8342 26.4794C34.3411 26.4803 34.8269 26.6632 35.1853 26.9882C35.5437 27.3132 35.7455 27.7537 35.7465 28.2132Z" fill="#E0E0E0"/>
<path d="M141.838 36.0808H119.801V65.0447H141.838V36.0808Z" fill="#E0E0E0"/>
<path d="M140.73 36.0808H118.693V65.0447H140.73V36.0808Z" fill="#F5F5F5"/>
<path d="M137.997 39.2174H121.434V61.9079H137.997V39.2174Z" fill="white"/>
<path d="M138.003 61.9088C138.003 61.9088 138.003 61.8678 138.003 61.7961C138.003 61.7245 138.003 61.6153 138.003 61.4753C138.003 61.1886 138.003 60.7722 138.003 60.2295C138.003 59.1441 138.003 57.557 138.003 55.5569C138.003 51.5567 138.003 45.8909 137.977 39.2182L138.033 39.2694H121.44L121.5 39.2148C121.5 47.775 121.5 55.6662 121.5 61.9054L121.451 61.861L133.497 61.8849H136.829H137.702H138.007H137.713H136.848H133.527L121.443 61.9054H121.395V61.8644C121.395 55.6252 121.395 47.734 121.395 39.1739V39.1193H121.44H138.003H138.056V39.167C138.056 45.8534 138.037 51.5294 138.03 55.5501C138.03 57.5468 138.03 59.1271 138.03 60.2125C138.03 60.7483 138.03 61.1613 138.03 61.4446C138.03 61.5845 138.03 61.6869 138.03 61.762L138.003 61.9088Z" fill="#E0E0E0"/>
<path d="M140.786 36.0808C140.68 36.2646 140.554 36.4384 140.41 36.5996C140.154 36.9102 139.788 37.33 139.374 37.7874C138.96 38.2447 138.572 38.6475 138.286 38.9376C138.14 39.1001 137.978 39.2498 137.801 39.3847C137.926 39.2087 138.067 39.042 138.222 38.8864L139.284 37.7191L140.342 36.5518C140.477 36.3852 140.625 36.2278 140.786 36.0808Z" fill="#E0E0E0"/>
<path d="M138.08 61.8337C138.902 63.0217 139.871 64.121 140.967 65.1104L138.08 61.8337Z" fill="white"/>
<path d="M140.967 65.1104C140.784 64.9887 140.616 64.8491 140.467 64.694C140.082 64.3405 139.717 63.9691 139.375 63.5813C139.033 63.1934 138.712 62.7902 138.415 62.373C138.283 62.2046 138.17 62.0238 138.08 61.8337C138.228 61.99 138.364 62.1553 138.487 62.3286C138.728 62.6392 139.07 63.0591 139.469 63.513C139.868 63.967 140.248 64.3595 140.527 64.6428C140.687 64.788 140.834 64.9443 140.967 65.1104Z" fill="#E0E0E0"/>
<path d="M118.693 65.0213L121.581 61.7925L118.693 65.0213Z" fill="white"/>
<path d="M121.584 61.7925C121.607 61.7925 120.982 62.5502 120.187 63.441C119.717 63.9915 119.214 64.519 118.682 65.0213C119.581 63.8999 120.545 62.8221 121.569 61.7925H121.584Z" fill="#E0E0E0"/>
<path d="M118.693 36.0808C119.188 36.5655 119.655 37.0724 120.094 37.5997C120.561 38.1064 120.997 38.6363 121.4 39.1868C120.904 38.6998 120.436 38.1894 120 37.6577C119.531 37.1553 119.095 36.6288 118.693 36.0808Z" fill="#E0E0E0"/>
<path d="M132.826 43.8252H127.281V58.1024H132.826V43.8252Z" fill="#E0E0E0"/>
<path d="M136.752 5.30545L133.598 5.32092L133.683 19.5535L136.837 19.538L136.752 5.30545Z" fill="#E0E0E0"/>
<path d="M114.446 5.34359L106.277 5.38367L106.324 13.2406L114.493 13.2005L114.446 5.34359Z" fill="#EBEBEB"/>
<path d="M122.563 5.30685L114.395 5.34692L114.441 13.2039L122.61 13.1638L122.563 5.30685Z" fill="#F5F5F5"/>
<path d="M106.28 7.55994C111.709 7.6009 117.152 7.55994 122.58 7.49167C122.603 7.49167 122.625 7.4834 122.642 7.46868C122.658 7.45395 122.667 7.43399 122.667 7.41317C122.667 7.39234 122.658 7.37238 122.642 7.35765C122.625 7.34293 122.603 7.33466 122.58 7.33466C117.147 7.30735 111.714 7.33693 106.28 7.4234C106.26 7.4234 106.241 7.4306 106.227 7.4434C106.213 7.4562 106.205 7.47357 106.205 7.49167C106.205 7.50978 106.213 7.52714 106.227 7.53994C106.241 7.55274 106.26 7.55994 106.28 7.55994Z" fill="#E0E0E0"/>
<path d="M116.011 13.0737L101.168 13.1465L101.206 19.5494L116.049 19.4766L116.011 13.0737Z" fill="#EBEBEB"/>
<path d="M130.794 13.002L115.951 13.0748L115.989 19.4778L130.832 19.405L130.794 13.002Z" fill="#F5F5F5"/>
<path d="M101.183 14.9292C111.046 15.0316 120.938 14.9292 130.798 14.7961C130.82 14.7961 130.842 14.7879 130.859 14.7731C130.875 14.7584 130.884 14.7384 130.884 14.7176C130.884 14.6968 130.875 14.6768 130.859 14.6621C130.842 14.6474 130.82 14.6391 130.798 14.6391C120.935 14.5913 111.042 14.5982 101.183 14.7927C101.163 14.7927 101.144 14.7999 101.129 14.8127C101.115 14.8255 101.107 14.8429 101.107 14.861C101.107 14.8791 101.115 14.8964 101.129 14.9092C101.144 14.922 101.163 14.9292 101.183 14.9292Z" fill="#E0E0E0"/>
<path d="M153.138 19.5516H95.6328V21.8453H153.138V19.5516Z" fill="#E0E0E0"/>
<path d="M107.395 20.6527H105.061V28.479H107.395V20.6527Z" fill="#E0E0E0"/>
<path d="M142.228 20.6527H139.895V28.479H142.228V20.6527Z" fill="#E0E0E0"/>
<path d="M139.838 -0.000460513L136.684 0.0150146L136.8 19.5891L139.955 19.5736L139.838 -0.000460513Z" fill="#EBEBEB"/>
<path d="M144.774 3.64454L139.873 3.66858L139.968 19.5326L144.869 19.5086L144.774 3.64454Z" fill="#F5F5F5"/>
<path d="M144.728 6.70401C143.099 6.80836 141.463 6.80836 139.834 6.70401C141.463 6.6042 143.098 6.6042 144.728 6.70401Z" fill="#E0E0E0"/>
<path d="M144.728 6.03823C143.099 6.14257 141.463 6.14257 139.834 6.03823C141.463 5.93843 143.098 5.93843 144.728 6.03823Z" fill="#E0E0E0"/>
<path d="M144.728 17.1252C143.099 17.2295 141.463 17.2295 139.834 17.1252C141.463 17.0253 143.098 17.0253 144.728 17.1252Z" fill="#E0E0E0"/>
<path d="M144.728 16.4588C143.099 16.5631 141.463 16.5631 139.834 16.4588C141.463 16.359 143.098 16.359 144.728 16.4588Z" fill="#E0E0E0"/>
<path d="M142.36 15.0054C142.311 15.0054 142.273 13.4046 142.273 11.4318C142.273 9.45904 142.311 7.85828 142.36 7.85828C142.409 7.85828 142.443 9.45904 142.443 11.4318C142.443 13.4046 142.405 15.0054 142.36 15.0054Z" fill="#E0E0E0"/>
<path d="M150.119 7.54346H144.785V19.5167H150.119V7.54346Z" fill="#EBEBEB"/>
<path d="M147.607 16.415C147.448 16.4234 147.289 16.4013 147.141 16.3501C146.992 16.2989 146.857 16.2198 146.744 16.118C146.631 16.0162 146.544 15.8939 146.487 15.7593C146.43 15.6246 146.405 15.4805 146.414 15.3365C146.405 15.1795 146.44 15.0232 146.516 14.8818C146.592 14.7404 146.705 14.6186 146.847 14.5276L146.967 14.6812C146.854 14.756 146.763 14.855 146.702 14.9692C146.641 15.0835 146.612 15.2096 146.617 15.3365C146.617 15.5746 146.721 15.8029 146.907 15.9712C147.093 16.1396 147.345 16.2341 147.607 16.2341C147.87 16.2341 148.122 16.1396 148.307 15.9712C148.493 15.8029 148.597 15.5746 148.597 15.3365C148.603 15.2092 148.573 15.0827 148.512 14.9683C148.45 14.8539 148.358 14.7552 148.243 14.6812L148.368 14.5276C148.507 14.6198 148.619 14.742 148.694 14.8831C148.769 15.0243 148.804 15.18 148.797 15.3365C148.805 15.4802 148.781 15.624 148.724 15.7584C148.667 15.8928 148.58 16.0149 148.468 16.1167C148.355 16.2185 148.221 16.2976 148.072 16.349C147.924 16.4004 147.766 16.4229 147.607 16.415Z" fill="#FAFAFA"/>
<path d="M148.494 14.2305L148.317 14.1383C148.502 13.9176 148.601 13.6476 148.599 13.3704C148.599 12.9233 148.423 12.7424 148.159 12.7424C147.474 12.7424 147.978 14.1554 147.056 14.1554C146.702 14.1554 146.412 13.8858 146.412 13.3465C146.408 13.0878 146.488 12.8337 146.642 12.6161L146.823 12.7117C146.681 12.8993 146.607 13.1225 146.612 13.3499C146.612 13.7663 146.8 13.9506 147.052 13.9506C147.756 13.9506 147.259 12.5376 148.155 12.5376C148.532 12.5376 148.795 12.838 148.795 13.3806C148.807 13.687 148.7 13.9875 148.494 14.2305Z" fill="#FAFAFA"/>
<path d="M148.494 12.2818L148.317 12.1896C148.502 11.9689 148.601 11.6989 148.599 11.4217C148.599 10.9746 148.423 10.7937 148.159 10.7937C147.474 10.7937 147.978 12.2033 147.056 12.2033C146.702 12.2033 146.412 11.9371 146.412 11.3978C146.408 11.1391 146.488 10.885 146.642 10.6674L146.823 10.7595C146.681 10.9486 146.608 11.1727 146.612 11.4012C146.612 11.8176 146.8 12.0019 147.052 12.0019C147.756 12.0019 147.259 10.5889 148.155 10.5889C148.532 10.5889 148.795 10.8858 148.795 11.4285C148.807 11.736 148.701 12.0377 148.494 12.2818Z" fill="#FAFAFA"/>
<path d="M138.204 4.1721C138.705 4.1721 139.111 3.80383 139.111 3.34954C139.111 2.89525 138.705 2.52698 138.204 2.52698C137.703 2.52698 137.297 2.89525 137.297 3.34954C137.297 3.80383 137.703 4.1721 138.204 4.1721Z" fill="#E0E0E0"/>
<path d="M138.489 5.60852H137.928V17.2542H138.489V5.60852Z" fill="#E0E0E0"/>
</svg>
