<svg width="120" height="59" viewBox="0 0 120 59" fill="none" xmlns="http://www.w3.org/2000/svg">
<g style="mix-blend-mode:multiply">
<g style="mix-blend-mode:multiply">
<path d="M92.4883 36.2592L92.3438 36.1382L93.4683 35.1997L93.6129 35.3237L92.4883 36.2592Z" fill="#EBEBEB"/>
</g>
<g style="mix-blend-mode:multiply">
<path d="M93.4082 37.0292L93.2637 36.9082L94.3882 35.9697L94.5328 36.0937L93.4082 37.0292Z" fill="#EBEBEB"/>
</g>
<g style="mix-blend-mode:multiply">
<path d="M95.4938 38.7854L95.3457 38.6615L96.4703 37.726L96.6183 37.8469L95.4938 38.7854Z" fill="#EBEBEB"/>
</g>
<g style="mix-blend-mode:multiply">
<path d="M96.4098 39.5525L96.2617 39.4315L97.3863 38.496L97.5308 38.617L96.4098 39.5525Z" fill="#EBEBEB"/>
</g>
<g style="mix-blend-mode:multiply">
<path d="M98.4961 41.3082L98.3516 41.1872L99.4761 40.2488L99.6207 40.3698L98.4961 41.3082Z" fill="#EBEBEB"/>
</g>
<g style="mix-blend-mode:multiply">
<path d="M99.4062 42.0787L99.2617 41.9548L100.383 41.0193L100.531 41.1403L99.4062 42.0787Z" fill="#EBEBEB"/>
</g>
<g style="mix-blend-mode:multiply">
<path d="M101.492 43.8315L101.344 43.7105L102.468 42.7721L102.616 42.896L101.492 43.8315Z" fill="#EBEBEB"/>
</g>
<g style="mix-blend-mode:multiply">
<path d="M102.408 44.6021L102.264 44.4811L103.388 43.5426L103.533 43.6636L102.408 44.6021Z" fill="#EBEBEB"/>
</g>
<g style="mix-blend-mode:multiply">
<path d="M104.498 46.3548L104.354 46.2338L105.478 45.2983L105.623 45.4193L104.498 46.3548Z" fill="#EBEBEB"/>
</g>
<g style="mix-blend-mode:multiply">
<path d="M105.414 47.1248L105.266 47.0039L106.39 46.0684L106.538 46.1894L105.414 47.1248Z" fill="#EBEBEB"/>
</g>
<g style="mix-blend-mode:multiply">
<path d="M107.5 48.8806L107.352 48.7567L108.476 47.8212L108.621 47.9422L107.5 48.8806Z" fill="#EBEBEB"/>
</g>
<g style="mix-blend-mode:multiply">
<path d="M108.412 49.6511L108.268 49.5272L109.392 48.5917L109.537 48.7127L108.412 49.6511Z" fill="#EBEBEB"/>
</g>
<g style="mix-blend-mode:multiply">
<path d="M110.525 51.4248L110.381 51.3038L111.502 50.3654L111.65 50.4893L110.525 51.4248Z" fill="#EBEBEB"/>
</g>
<g style="mix-blend-mode:multiply">
<path d="M111.441 52.1949L111.293 52.074L112.418 51.1355L112.566 51.2594L111.441 52.1949Z" fill="#EBEBEB"/>
</g>
<g style="mix-blend-mode:multiply">
<path d="M113.539 53.9598L113.395 53.8388L114.519 52.9004L114.664 53.0214L113.539 53.9598Z" fill="#EBEBEB"/>
</g>
<g style="mix-blend-mode:multiply">
<path d="M114.455 54.7299L114.307 54.6059L115.431 53.6704L115.579 53.7914L114.455 54.7299Z" fill="#EBEBEB"/>
</g>
<g style="mix-blend-mode:multiply">
<path d="M116.603 56.5359L116.455 56.4119L117.58 55.4764L117.728 55.5974L116.603 56.5359Z" fill="#EBEBEB"/>
</g>
<g style="mix-blend-mode:multiply">
<path d="M117.521 57.3064L117.373 57.1825L118.498 56.2469L118.642 56.3679L117.521 57.3064Z" fill="#EBEBEB"/>
</g>
<g style="mix-blend-mode:multiply">
<path d="M90.5216 36.1882L90.3242 36.02L92.3936 34.2965L92.591 34.4618L90.5216 36.1882Z" fill="#EBEBEB"/>
</g>
<g style="mix-blend-mode:multiply">
<path d="M93.5353 38.7232L93.3379 38.555L95.4073 36.8315L95.6047 36.9968L93.5353 38.7232Z" fill="#EBEBEB"/>
</g>
<g style="mix-blend-mode:multiply">
<path d="M96.549 41.2582L96.3516 41.09L98.4209 39.3666L98.6183 39.5318L96.549 41.2582Z" fill="#EBEBEB"/>
</g>
<g style="mix-blend-mode:multiply">
<path d="M99.5646 43.7903L99.3672 43.6251L101.437 41.9016L101.634 42.0669L99.5646 43.7903Z" fill="#EBEBEB"/>
</g>
<g style="mix-blend-mode:multiply">
<path d="M102.578 46.3253L102.381 46.16L104.45 44.4336L104.648 44.6018L102.578 46.3253Z" fill="#EBEBEB"/>
</g>
<g style="mix-blend-mode:multiply">
<path d="M105.592 48.8599L105.395 48.6947L107.464 46.9683L107.661 47.1365L105.592 48.8599Z" fill="#EBEBEB"/>
</g>
<g style="mix-blend-mode:multiply">
<path d="M108.606 51.3948L108.408 51.2296L110.478 49.5032L110.675 49.6714L108.606 51.3948Z" fill="#EBEBEB"/>
</g>
<g style="mix-blend-mode:multiply">
<path d="M111.619 53.9303L111.422 53.7651L113.491 52.0387L113.689 52.2069L111.619 53.9303Z" fill="#EBEBEB"/>
</g>
<g style="mix-blend-mode:multiply">
<path d="M114.637 56.4654L114.439 56.3001L116.509 54.5737L116.706 54.7419L114.637 56.4654Z" fill="#EBEBEB"/>
</g>
<g style="mix-blend-mode:multiply">
<path d="M117.649 59.0003L117.451 58.835L119.521 57.1086L119.718 57.2739L117.649 59.0003Z" fill="#EBEBEB"/>
</g>
</g>
<g style="mix-blend-mode:multiply">
<g style="mix-blend-mode:multiply">
<path d="M2.81055 2.95361L2.66602 2.82967L3.79058 1.89417L3.93512 2.01516L2.81055 2.95361Z" fill="#EBEBEB"/>
</g>
<g style="mix-blend-mode:multiply">
<path d="M3.73048 3.72327L3.58594 3.59932L4.71052 2.66382L4.85506 2.78481L3.73048 3.72327Z" fill="#EBEBEB"/>
</g>
<g style="mix-blend-mode:multiply">
<path d="M5.81603 5.47693L5.66797 5.35594L6.79255 4.41748L6.94061 4.54143L5.81603 5.47693Z" fill="#EBEBEB"/>
</g>
<g style="mix-blend-mode:multiply">
<path d="M6.72852 6.24695L6.58398 6.12595L7.70856 5.1875L7.8531 5.3085L6.72852 6.24695Z" fill="#EBEBEB"/>
</g>
<g style="mix-blend-mode:multiply">
<path d="M8.81837 7.99976L8.67383 7.87876L9.79841 6.94031L9.94295 7.06425L8.81837 7.99976Z" fill="#EBEBEB"/>
</g>
<g style="mix-blend-mode:multiply">
<path d="M9.73205 8.77026L9.58398 8.64927L10.7085 7.71082L10.8566 7.83477L9.73205 8.77026Z" fill="#EBEBEB"/>
</g>
<g style="mix-blend-mode:multiply">
<path d="M11.8141 10.526L11.666 10.4021L12.7906 9.46655L12.9351 9.58755L11.8141 10.526Z" fill="#EBEBEB"/>
</g>
<g style="mix-blend-mode:multiply">
<path d="M12.7305 11.2931L12.5859 11.1721L13.7105 10.2366L13.855 10.3576L12.7305 11.2931Z" fill="#EBEBEB"/>
</g>
<g style="mix-blend-mode:multiply">
<path d="M14.8203 13.0493L14.6758 12.9283L15.8004 11.9899L15.9449 12.1109L14.8203 13.0493Z" fill="#EBEBEB"/>
</g>
<g style="mix-blend-mode:multiply">
<path d="M15.736 13.8193L15.5879 13.6954L16.7125 12.7599L16.8605 12.8809L15.736 13.8193Z" fill="#EBEBEB"/>
</g>
<g style="mix-blend-mode:multiply">
<path d="M17.8219 15.5721L17.6738 15.4511L18.7984 14.5127L18.9429 14.6366L17.8219 15.5721Z" fill="#EBEBEB"/>
</g>
<g style="mix-blend-mode:multiply">
<path d="M18.7344 16.3427L18.5898 16.2217L19.7144 15.2832L19.8589 15.4042L18.7344 16.3427Z" fill="#EBEBEB"/>
</g>
<g style="mix-blend-mode:multiply">
<path d="M20.8477 18.1193L20.7031 17.9953L21.8277 17.0598L21.9722 17.1808L20.8477 18.1193Z" fill="#EBEBEB"/>
</g>
<g style="mix-blend-mode:multiply">
<path d="M21.7633 18.8894L21.6152 18.7654L22.7398 17.83L22.8879 17.951L21.7633 18.8894Z" fill="#EBEBEB"/>
</g>
<g style="mix-blend-mode:multiply">
<path d="M23.8613 20.6514L23.7168 20.5304L24.8378 19.5919L24.9859 19.7159L23.8613 20.6514Z" fill="#EBEBEB"/>
</g>
<g style="mix-blend-mode:multiply">
<path d="M24.777 21.4215L24.6289 21.3005L25.7535 20.3621L25.9016 20.486L24.777 21.4215Z" fill="#EBEBEB"/>
</g>
<g style="mix-blend-mode:multiply">
<path d="M26.9254 23.2274L26.7773 23.1064L27.9019 22.168L28.05 22.2919L26.9254 23.2274Z" fill="#EBEBEB"/>
</g>
<g style="mix-blend-mode:multiply">
<path d="M27.8434 23.9979L27.6953 23.8769L28.8199 22.9385L28.9644 23.0624L27.8434 23.9979Z" fill="#EBEBEB"/>
</g>
<g style="mix-blend-mode:multiply">
<path d="M0.843901 2.8797L0.646484 2.71444L2.71584 0.988037L2.91327 1.15625L0.843901 2.8797Z" fill="#EBEBEB"/>
</g>
<g style="mix-blend-mode:multiply">
<path d="M3.85757 5.41473L3.66016 5.24947L5.7295 3.52307L5.92691 3.69129L3.85757 5.41473Z" fill="#EBEBEB"/>
</g>
<g style="mix-blend-mode:multiply">
<path d="M6.87124 7.94977L6.67383 7.78451L8.74318 6.05811L8.9406 6.22632L6.87124 7.94977Z" fill="#EBEBEB"/>
</g>
<g style="mix-blend-mode:multiply">
<path d="M9.88688 10.4847L9.68945 10.3194L11.7588 8.59302L11.9562 8.76123L9.88688 10.4847Z" fill="#EBEBEB"/>
</g>
<g style="mix-blend-mode:multiply">
<path d="M12.9005 13.0197L12.7031 12.8544L14.7725 11.1281L14.9699 11.2933L12.9005 13.0197Z" fill="#EBEBEB"/>
</g>
<g style="mix-blend-mode:multiply">
<path d="M15.9142 15.5547L15.7168 15.3865L17.7862 13.6631L17.9836 13.8283L15.9142 15.5547Z" fill="#EBEBEB"/>
</g>
<g style="mix-blend-mode:multiply">
<path d="M18.9279 18.0898L18.7305 17.9216L20.7998 16.1981L20.9972 16.3634L18.9279 18.0898Z" fill="#EBEBEB"/>
</g>
<g style="mix-blend-mode:multiply">
<path d="M24.9591 23.1564L24.7617 22.9911L26.8311 21.2677L27.0285 21.433L24.9591 23.1564Z" fill="#EBEBEB"/>
</g>
<g style="mix-blend-mode:multiply">
<path d="M27.9709 25.6918L27.7734 25.5265L29.8428 23.8031L30.0402 23.9684L27.9709 25.6918Z" fill="#EBEBEB"/>
</g>
</g>
</svg>
