<svg width="127" height="83" viewBox="0 0 127 83" fill="none" xmlns="http://www.w3.org/2000/svg">
<path d="M126.014 77.903H0V77.9625H126.014V77.903Z" fill="#EBEBEB"/>
<path d="M41.4819 81.572H33.1348V81.6315H41.4819V81.572Z" fill="#EBEBEB"/>
<path d="M65.2351 80.9272H63.0449V80.9868H65.2351V80.9272Z" fill="#EBEBEB"/>
<path d="M18.0591 79.9231H13.2227V79.9826H18.0591V79.9231Z" fill="#EBEBEB"/>
<path d="M104.788 79.5233H98.2148V79.5828H104.788V79.5233Z" fill="#EBEBEB"/>
<path d="M95.9681 79.5233H90.0605V79.5828H95.9681V79.5233Z" fill="#EBEBEB"/>
<path d="M113.391 82.3786H89.7812V82.438H113.391V82.3786Z" fill="#EBEBEB"/>
<path d="M59.7295 67.2906H11.0655C10.6842 67.29 10.3188 67.1466 10.0495 66.8919C9.78018 66.6371 9.62891 66.2919 9.62891 65.932V1.34676C9.63222 0.988903 9.78496 0.646728 10.0539 0.394564C10.3229 0.1424 10.6864 0.000613037 11.0655 0H59.7295C60.1112 0 60.4772 0.143144 60.7471 0.397943C61.017 0.652742 61.1686 0.998322 61.1686 1.35866V65.932C61.1686 66.2923 61.017 66.6379 60.7471 66.8927C60.4772 67.1475 60.1112 67.2906 59.7295 67.2906ZM11.0655 0.047589C10.7009 0.0482194 10.3516 0.185374 10.0941 0.428949C9.83655 0.672523 9.69191 1.00261 9.69191 1.34676V65.932C9.69191 66.2761 9.83655 66.6062 10.0941 66.8498C10.3516 67.0934 10.7009 67.2305 11.0655 67.2312H59.7295C60.0943 67.2305 60.4439 67.0935 60.7018 66.85C60.9597 66.6064 61.1049 66.2764 61.1056 65.932V1.34676C61.1049 1.0024 60.9597 0.67231 60.7018 0.428803C60.4439 0.185297 60.0943 0.048218 59.7295 0.047589H11.0655Z" fill="#EBEBEB"/>
<path d="M114.248 67.2906H65.5817C65.2002 67.29 64.8345 67.1467 64.5648 66.892C64.2951 66.6374 64.1432 66.2921 64.1426 65.932V1.34676C64.1466 0.988686 64.2999 0.646513 64.5692 0.394415C64.8386 0.142317 65.2024 0.000606351 65.5817 0H114.248C114.627 0.00123838 114.99 0.143302 115.258 0.395399C115.527 0.647496 115.679 0.989313 115.682 1.34676V65.932C115.682 66.2915 115.531 66.6364 115.263 66.891C114.994 67.1457 114.629 67.2894 114.248 67.2906ZM65.5817 0.047589C65.2169 0.048218 64.8673 0.185297 64.6094 0.428803C64.3514 0.67231 64.2063 1.0024 64.2056 1.34676V65.932C64.2063 66.2764 64.3514 66.6064 64.6094 66.85C64.8673 67.0935 65.2169 67.2305 65.5817 67.2312H114.248C114.613 67.2305 114.963 67.0935 115.221 66.85C115.478 66.6064 115.624 66.2764 115.624 65.932V1.34676C115.624 1.0024 115.478 0.67231 115.221 0.428803C114.963 0.185297 114.613 0.048218 114.248 0.047589H65.5817Z" fill="#EBEBEB"/>
<path d="M80.2952 77.194H86.2305V52.6762H80.2952V77.194Z" fill="#F0F0F0"/>
<path d="M58.9629 77.903H85.0957V77.1938H58.9629V77.903Z" fill="#F0F0F0"/>
<path d="M80.2962 52.6761H57.8203V77.1938H80.2962V52.6761Z" fill="#F5F5F5"/>
<path d="M77.9606 54.0514H60.1523V64.3877H77.9606V54.0514Z" fill="#F0F0F0"/>
<path d="M77.9606 65.4822H60.1523V75.8185H77.9606V65.4822Z" fill="#F0F0F0"/>
<path d="M73.6744 55.8525H64.4427C64.154 55.8529 63.8681 55.7993 63.6014 55.6949C63.3348 55.5906 63.0926 55.4374 62.8888 55.2444C62.685 55.0513 62.5237 54.8222 62.4141 54.57C62.3044 54.3179 62.2487 54.0478 62.25 53.7753H75.8595C75.8609 54.0472 75.8054 54.3167 75.6962 54.5684C75.587 54.82 75.4264 55.0489 75.2234 55.2419C75.0204 55.4348 74.7792 55.5881 74.5134 55.6929C74.2476 55.7977 73.9625 55.8519 73.6744 55.8525Z" fill="#F5F5F5"/>
<path d="M73.6758 67.2836H64.444C63.8632 67.2836 63.3061 67.0658 62.8954 66.678C62.4847 66.2902 62.2539 65.7643 62.2539 65.2159H75.8634C75.8634 65.7639 75.633 66.2895 75.2228 66.6772C74.8126 67.0649 74.2562 67.283 73.6758 67.2836Z" fill="#F5F5F5"/>
<path d="M104.537 77.194H110.473V52.6762H104.537V77.194Z" fill="#F0F0F0"/>
<path d="M83.1993 77.903H109.332V77.1938H83.1993V77.903Z" fill="#F0F0F0"/>
<path d="M104.536 52.6761H82.0605V77.1938H104.536V52.6761Z" fill="#F5F5F5"/>
<path d="M102.203 54.0514H84.3945V64.3877H102.203V54.0514Z" fill="#F0F0F0"/>
<path d="M102.203 65.4822H84.3945V75.8185H102.203V65.4822Z" fill="#F0F0F0"/>
<path d="M97.9141 55.8528H88.6823C88.1015 55.8528 87.5444 55.6349 87.1337 55.2472C86.7229 54.8594 86.4922 54.3334 86.4922 53.785H100.102C100.102 54.333 99.8713 54.8586 99.4611 55.2463C99.0509 55.634 98.4945 55.8522 97.9141 55.8528Z" fill="#F5F5F5"/>
<path d="M97.9141 67.2836H88.6823C88.1015 67.2836 87.5444 67.0658 87.1337 66.678C86.7229 66.2902 86.4922 65.7643 86.4922 65.2159H100.102C100.102 65.7639 99.8713 66.2895 99.4611 66.6772C99.0509 67.0649 98.4945 67.283 97.9141 67.2836Z" fill="#F5F5F5"/>
<path d="M28.0812 19.735H38.248V8.63977L28.0812 8.63977V19.735Z" fill="#E6E6E6"/>
<path d="M26.9226 19.735H37.9766V8.63977L26.9226 8.63977V19.735Z" fill="#F5F5F5"/>
<path d="M37.0469 18.8617V9.51532H27.8453V18.8617H37.0469Z" fill="white"/>
<path d="M34.8188 16.5967V16.2564C34.8181 15.0696 34.3184 13.9315 33.4295 13.0923C32.5406 12.2531 31.3352 11.7813 30.0781 11.7807V12.121C30.0781 13.308 30.5776 14.4464 31.4666 15.2858C32.3557 16.1251 33.5615 16.5967 34.8188 16.5967Z" fill="#F5F5F5"/>
<path d="M72.24 40.6766L110.473 40.6766V6.91235L72.24 6.91235V40.6766Z" fill="#E6E6E6"/>
<path d="M71.0572 40.6766L109.92 40.6766V6.91235L71.0572 6.91235V40.6766Z" fill="#F0F0F0"/>
<path d="M72.24 41.8804L110.473 41.8804V40.6765L72.24 40.6765V41.8804Z" fill="#E6E6E6"/>
<path d="M69.0807 41.8804L107.943 41.8804V40.6765L69.0807 40.6765V41.8804Z" fill="#F0F0F0"/>
<path d="M108.26 38.8636V8.72552L72.7138 8.72552V38.8636H108.26Z" fill="#FAFAFA"/>
<path d="M98.1795 38.866L92.2593 8.72552H82.5059L88.426 38.866H98.1795Z" fill="white"/>
<path d="M107.492 28.6389C107.525 28.6364 107.557 28.6216 107.579 28.5975C107.601 28.5735 107.612 28.5422 107.61 28.5104V9.90547C107.61 9.87581 107.598 9.84737 107.575 9.82639C107.553 9.80542 107.523 9.79364 107.492 9.79364C107.46 9.79364 107.43 9.80542 107.408 9.82639C107.386 9.84737 107.373 9.87581 107.373 9.90547V28.5104C107.371 28.5422 107.382 28.5735 107.405 28.5975C107.427 28.6216 107.458 28.6364 107.492 28.6389Z" fill="#F0F0F0"/>
<path d="M86.3281 38.866L80.4105 8.72552H76.6074L82.525 38.866H86.3281Z" fill="white"/>
<path d="M72.9238 38.8636V8.72552H72.7121V38.8636H72.9238Z" fill="#E6E6E6"/>
<path opacity="0.4" d="M70.6641 11.0455H108.894L109.048 9.43225H70.8153L70.6641 11.0455Z" fill="#E6E6E6"/>
<path opacity="0.4" d="M70.6641 12.9037H108.894L109.048 11.2881H70.8153L70.6641 12.9037Z" fill="#E6E6E6"/>
<path opacity="0.4" d="M70.6641 14.7598H108.894L109.048 13.1465H70.8153L70.6641 14.7598Z" fill="#E6E6E6"/>
<path opacity="0.4" d="M70.6641 16.618H108.894L109.048 15.0024H70.8153L70.6641 16.618Z" fill="#E6E6E6"/>
<path opacity="0.4" d="M70.6641 18.474H108.894L109.048 16.8607H70.8153L70.6641 18.474Z" fill="#E6E6E6"/>
<path opacity="0.4" d="M70.6641 20.3325H108.894L109.048 18.7169H70.8153L70.6641 20.3325Z" fill="#E6E6E6"/>
<path opacity="0.4" d="M70.6641 22.1882H108.894L109.048 20.575H70.8153L70.6641 22.1882Z" fill="#E6E6E6"/>
<path opacity="0.4" d="M70.6641 24.0467H108.894L109.048 22.4311H70.8153L70.6641 24.0467Z" fill="#E6E6E6"/>
<path opacity="0.4" d="M70.6641 25.9027H108.894L109.048 24.2894H70.8153L70.6641 25.9027Z" fill="#E6E6E6"/>
<path d="M20.8734 37.8354H28.8047V29.2433H20.8734V37.8354Z" fill="#E6E6E6"/>
<path d="M19.9757 37.8354H28.5371V29.2433H19.9757V37.8354Z" fill="#F5F5F5"/>
<path d="M27.8223 37.1575V29.9192H20.6949V37.1575H27.8223Z" fill="white"/>
<path d="M26.0917 33.6714V33.4072C26.0917 33.1796 26.0441 32.9541 25.9517 32.7438C25.8594 32.5335 25.724 32.3424 25.5534 32.1815C25.3827 32.0206 25.1802 31.8931 24.9573 31.8062C24.7344 31.7193 24.4955 31.6747 24.2544 31.675C23.7695 31.6775 23.3054 31.8611 22.9635 32.1857C22.6216 32.5103 22.4297 32.9495 22.4297 33.4072V33.6714C22.4297 34.1308 22.623 34.5714 22.9671 34.8963C23.3112 35.2211 23.7778 35.4036 24.2645 35.4036C24.7497 35.4017 25.2145 35.2184 25.5569 34.8937C25.8994 34.5691 26.0917 34.1296 26.0917 33.6714Z" fill="#F5F5F5"/>
<path d="M40.6548 34.7565H51.5449V22.9116H40.6548V34.7565Z" fill="#E6E6E6"/>
<path d="M39.4188 34.7565H51.2188V22.9116H39.4188V34.7565Z" fill="#F5F5F5"/>
<path d="M50.2305 33.826V23.8491H40.4064V33.826H50.2305Z" fill="white"/>
<path d="M45.7306 26.9853L47.5956 30.0358C47.6372 30.1039 47.6591 30.1811 47.659 30.2596C47.659 30.3382 47.6371 30.4154 47.5955 30.4834C47.5538 30.5514 47.4939 30.6079 47.4218 30.6471C47.3497 30.6863 47.268 30.7069 47.1848 30.7068H43.4548C43.3715 30.7069 43.2898 30.6863 43.2177 30.6471C43.1456 30.6079 43.0857 30.5514 43.0441 30.4834C43.0024 30.4154 42.9805 30.3382 42.9805 30.2596C42.9804 30.1811 43.0023 30.1039 43.0439 30.0358L44.909 26.9853C44.951 26.9177 45.011 26.8617 45.0831 26.8227C45.1551 26.7837 45.2367 26.7632 45.3198 26.7632C45.4028 26.7632 45.4844 26.7837 45.5565 26.8227C45.6285 26.8617 45.6885 26.9177 45.7306 26.9853Z" fill="#F5F5F5"/>
<path d="M22.6882 77.9007H28.6738L28.6738 60.0834H22.6882L22.6882 77.9007Z" fill="#E6E6E6"/>
<path d="M23.8241 77.9029H22.6875V74.85H25.0162L23.8241 77.9029Z" fill="#F0F0F0"/>
<path d="M45.0554 77.9007H51.041V60.0834H45.0554V77.9007Z" fill="#E6E6E6"/>
<path d="M22.6889 76.028H46.0469V60.0834H22.6889L22.6889 76.028Z" fill="#F0F0F0"/>
<path d="M23.5703 61.0851V72.2137H33.9866V61.0851H23.5703Z" fill="#E6E6E6"/>
<path d="M34.75 61.0851V72.2137H45.1663V61.0851H34.75Z" fill="#E6E6E6"/>
<path d="M38.928 61.9393H40.987C41.4293 61.9406 41.8671 61.8568 42.274 61.6932C42.6808 61.5296 43.0482 61.2895 43.3536 60.9875H36.5488C36.8555 61.2912 37.2248 61.5323 37.634 61.696C38.0432 61.8596 38.4836 61.9425 38.928 61.9393Z" fill="#F0F0F0"/>
<path d="M27.6422 61.9393H29.7038C30.146 61.9405 30.5839 61.8567 30.9907 61.693C31.3975 61.5294 31.7649 61.2894 32.0704 60.9875H25.2656C25.5722 61.2907 25.9412 61.5314 26.3498 61.6951C26.7585 61.8588 27.1983 61.9419 27.6422 61.9393Z" fill="#F0F0F0"/>
<path d="M44.9128 77.9029H46.0494V74.85H43.7207L44.9128 77.9029Z" fill="#F0F0F0"/>
<path d="M38.748 57.6968C38.7476 57.9393 38.8233 58.1765 38.9656 58.3783C39.1079 58.5801 39.3104 58.7375 39.5475 58.8307C39.7847 58.9238 40.0457 58.9484 40.2977 58.9014C40.5496 58.8544 40.7811 58.7378 40.9629 58.5665C41.1447 58.3953 41.2685 58.1769 41.3188 57.9392C41.3691 57.7014 41.3435 57.4549 41.2454 57.2308C41.1472 57.0068 40.9809 56.8153 40.7674 56.6805C40.5539 56.5457 40.3028 56.4738 40.046 56.4738C39.7024 56.4744 39.373 56.6034 39.1298 56.8326C38.8866 57.0617 38.7494 57.3725 38.748 57.6968Z" fill="#E0E0E0"/>
<path d="M40.6333 58.1251C41.3488 58.1251 41.9287 57.5775 41.9287 56.902C41.9287 56.2266 41.3488 55.679 40.6333 55.679C39.9179 55.679 39.3379 56.2266 39.3379 56.902C39.3379 57.5775 39.9179 58.1251 40.6333 58.1251Z" fill="#E0E0E0"/>
<path d="M32.2598 57.8943C32.2598 58.1362 32.3357 58.3726 32.4781 58.5737C32.6204 58.7749 32.8227 58.9316 33.0595 59.0242C33.2962 59.1168 33.5566 59.141 33.8079 59.0938C34.0592 59.0466 34.29 58.9301 34.4712 58.7591C34.6524 58.588 34.7757 58.3701 34.8257 58.1329C34.8757 57.8956 34.8501 57.6497 34.752 57.4262C34.654 57.2027 34.4879 57.0117 34.2749 56.8773C34.0619 56.7429 33.8114 56.6712 33.5552 56.6712C33.2116 56.6712 32.8821 56.8001 32.6392 57.0294C32.3962 57.2588 32.2598 57.5699 32.2598 57.8943Z" fill="#E0E0E0"/>
<path d="M42.3676 58.6034C43.2459 58.6034 43.9579 57.9312 43.9579 57.102C43.9579 56.2727 43.2459 55.6005 42.3676 55.6005C41.4893 55.6005 40.7773 56.2727 40.7773 57.102C40.7773 57.9312 41.4893 58.6034 42.3676 58.6034Z" fill="#E0E0E0"/>
<path d="M37.6289 55.7195C37.6284 56.0166 37.7213 56.3071 37.8957 56.5543C38.0701 56.8015 38.3183 56.9943 38.6089 57.1084C38.8994 57.2224 39.2193 57.2524 39.5279 57.1948C39.8366 57.1371 40.1202 56.9943 40.3428 56.7844C40.5655 56.5745 40.7172 56.307 40.7788 56.0157C40.8403 55.7244 40.809 55.4224 40.6887 55.1479C40.5684 54.8734 40.3646 54.6387 40.103 54.4737C39.8414 54.3086 39.5338 54.2205 39.2192 54.2205C38.7981 54.2211 38.3943 54.3791 38.0963 54.6601C37.7983 54.941 37.6302 55.3219 37.6289 55.7195Z" fill="#E0E0E0"/>
<path d="M35.1074 56.1024C35.1069 56.3995 35.1998 56.69 35.3742 56.9372C35.5487 57.1845 35.7968 57.3773 36.0874 57.4913C36.3779 57.6053 36.6978 57.6354 37.0064 57.5777C37.3151 57.52 37.5987 57.3772 37.8213 57.1673C38.044 56.9575 38.1957 56.6899 38.2573 56.3986C38.3188 56.1073 38.2875 55.8053 38.1672 55.5308C38.0469 55.2563 37.8431 55.0217 37.5815 54.8566C37.3199 54.6915 37.0124 54.6034 36.6977 54.6034C36.2764 54.6034 35.8723 54.7612 35.5741 55.0423C35.2759 55.3234 35.1081 55.7047 35.1074 56.1024Z" fill="#E0E0E0"/>
<path d="M36.1719 57.3136C36.1719 57.596 36.2606 57.872 36.4267 58.1068C36.5929 58.3416 36.829 58.5245 37.1054 58.6326C37.3817 58.7407 37.6857 58.7689 37.9791 58.7138C38.2724 58.6588 38.5418 58.5228 38.7533 58.3231C38.9648 58.1235 39.1088 57.8691 39.1672 57.5921C39.2255 57.3152 39.1956 57.0281 39.0811 56.7673C38.9667 56.5064 38.7728 56.2834 38.5242 56.1265C38.2755 55.9697 37.9831 55.8859 37.684 55.8859C37.283 55.8859 36.8984 56.0363 36.6148 56.3041C36.3312 56.5718 36.1719 56.935 36.1719 57.3136Z" fill="#E0E0E0"/>
<path d="M33.543 57.2209C33.543 57.5259 33.6388 57.824 33.8182 58.0776C33.9977 58.3311 34.2527 58.5287 34.5511 58.6454C34.8496 58.7622 35.1779 58.7927 35.4947 58.7332C35.8115 58.6737 36.1025 58.5268 36.3309 58.3112C36.5593 58.0956 36.7149 57.8208 36.7779 57.5217C36.8409 57.2226 36.8085 56.9126 36.6849 56.6309C36.5613 56.3491 36.352 56.1083 36.0834 55.9389C35.8149 55.7694 35.4991 55.679 35.1761 55.679C34.743 55.679 34.3276 55.8415 34.0213 56.1306C33.715 56.4198 33.543 56.812 33.543 57.2209Z" fill="#E0E0E0"/>
<path d="M44.9044 57.697C44.9044 57.697 44.728 60.0763 37.9056 60.0763C31.0832 60.0763 30.9043 57.697 30.9043 57.697H44.9044Z" fill="#F0F0F0"/>
</svg>
