<svg width="28" height="25" viewBox="0 0 28 25" fill="none" xmlns="http://www.w3.org/2000/svg">
<path opacity="0.15" d="M0.970703 22.5929V13.6248C0.978069 13.5094 1.01406 13.3972 1.07581 13.2972C1.13756 13.1972 1.22334 13.1122 1.3263 13.0489L24.1229 0.690074C24.3157 0.585372 24.4742 0.669944 24.4742 0.883374V9.84745C24.468 9.96265 24.433 10.0748 24.3719 10.1749C24.3109 10.275 24.2256 10.3601 24.1229 10.4233L1.3263 22.7902C1.12922 22.8909 0.970703 22.8063 0.970703 22.5929Z" fill="black"/>
<path d="M25.3573 1.35851L2.56067 13.7254C2.457 13.7879 2.37067 13.8728 2.30883 13.9729C2.24699 14.0731 2.21143 14.1856 2.20508 14.3013V23.2653C2.2114 23.3804 2.24699 23.4924 2.30886 23.5919C2.37074 23.6914 2.45709 23.7755 2.56067 23.8372L3.84596 24.5057C3.95611 24.5584 4.07795 24.5858 4.20155 24.5858C4.32515 24.5858 4.44699 24.5584 4.55715 24.5057L27.3538 12.1428C27.4564 12.0796 27.5417 11.9945 27.6028 11.8944C27.6638 11.7943 27.6989 11.6821 27.7051 11.5669V2.5948C27.6981 2.47986 27.6622 2.36812 27.6004 2.26873C27.5386 2.16933 27.4526 2.08511 27.3495 2.02296L26.0642 1.35448C25.9542 1.30338 25.833 1.27715 25.7102 1.27785C25.5875 1.27854 25.4667 1.30617 25.3573 1.35851V1.35851Z" fill="#407BFF"/>
<path d="M4.18359 24.3124V15.3443C4.19029 15.2287 4.226 15.1163 4.2878 15.0162C4.34961 14.9161 4.43576 14.8312 4.53919 14.7684L27.3358 2.40556C27.5286 2.29684 27.6871 2.38543 27.6871 2.59483V11.5629C27.6809 11.6781 27.6459 11.7903 27.5848 11.8904C27.5238 11.9905 27.4385 12.0756 27.3358 12.1388L4.53919 24.5017C4.34211 24.6104 4.18359 24.5218 4.18359 24.3124Z" fill="#407BFF"/>
<path opacity="0.2" d="M4.53958 24.5017C4.42913 24.5534 4.3074 24.5804 4.18398 24.5804C4.06057 24.5804 3.93883 24.5534 3.82839 24.5017L2.5431 23.8332C2.43926 23.7718 2.35272 23.6877 2.29082 23.5882C2.22891 23.4886 2.19347 23.3765 2.1875 23.2613V14.3013C2.19827 14.1862 2.23951 14.0754 2.30746 13.9791L4.28252 15.0382C4.21547 15.1356 4.1784 15.2485 4.17541 15.3644V24.3325C4.18398 24.5057 4.32965 24.6184 4.53958 24.5017Z" fill="black"/>
<path opacity="0.4" d="M27.6824 2.53445C27.6567 2.36934 27.511 2.30894 27.3311 2.40559L4.53875 14.7846C4.43324 14.8449 4.34731 14.9313 4.29026 15.0342L2.30664 13.9792C2.36619 13.8824 2.45003 13.8008 2.55085 13.7416L25.3475 1.3787C25.4572 1.32698 25.5782 1.30005 25.7009 1.30005C25.8236 1.30005 25.9447 1.32698 26.0544 1.3787L27.3396 2.04718C27.4293 2.10198 27.5059 2.17351 27.5649 2.25733C27.6239 2.34116 27.6638 2.43548 27.6824 2.53445V2.53445Z" fill="white"/>
<path d="M10.2888 13.9792L11.5398 18.4934C11.5439 18.5336 11.5439 18.5741 11.5398 18.6142C11.5398 18.7109 11.4627 18.8156 11.2828 18.9163L11.1114 19.0089C10.9657 19.0854 10.8543 19.1055 10.8329 19.0089L10.5759 18.0545L9.16205 18.8116L8.90499 20.0438C8.88936 20.1049 8.85982 20.1622 8.8184 20.2115C8.77698 20.2609 8.72467 20.3012 8.66507 20.3297L8.51084 20.4143C8.30519 20.523 8.21094 20.519 8.21094 20.4143C8.21338 20.3641 8.22055 20.3143 8.23236 20.2653L9.48337 14.402C9.50385 14.3347 9.53977 14.2724 9.58863 14.2195C9.63748 14.1666 9.69807 14.1245 9.76613 14.096L10.0189 13.9792C10.1517 13.8986 10.2588 13.8825 10.2888 13.9792ZM9.86039 15.2638C9.86039 15.445 9.81755 15.6262 9.77899 15.8074L9.35056 17.8209L10.3574 17.2733L9.92893 15.7188C9.89355 15.5687 9.8678 15.4168 9.85182 15.2638H9.86039Z" fill="white"/>
<path d="M14.6296 13.1738C14.6598 13.636 14.5629 14.0977 14.3484 14.5145C14.1338 14.9313 13.8086 15.2892 13.4043 15.5537L12.7188 15.9242V17.9377C12.7116 18.0208 12.6802 18.1004 12.628 18.1679C12.5759 18.2354 12.505 18.2881 12.4232 18.3203L12.2904 18.3928C12.089 18.5015 11.9991 18.4693 11.9991 18.3243V13.202C11.9864 13.1241 11.9983 13.0444 12.0333 12.9728C12.0684 12.9012 12.125 12.8409 12.1961 12.7993L13.3486 12.1751C13.8327 11.9173 14.6296 11.6918 14.6296 13.1738ZM12.7188 13.4114V15.0222L13.3443 14.6839C13.535 14.5612 13.687 14.3925 13.7842 14.1955C13.8815 13.9985 13.9204 13.7805 13.897 13.5644C13.897 12.908 13.5714 12.9402 13.3143 13.0811L12.7188 13.4114Z" fill="white"/>
<path d="M17.782 11.4622C17.8122 11.9244 17.7153 12.3861 17.5007 12.803C17.2861 13.2198 16.961 13.5777 16.5566 13.8422L15.8712 14.2167V16.2302C15.8639 16.3133 15.8325 16.3929 15.7804 16.4604C15.7282 16.5279 15.6574 16.5806 15.5755 16.6128L15.4427 16.6852C15.2414 16.794 15.1514 16.7617 15.1514 16.6168V11.4904C15.1387 11.4125 15.1507 11.3329 15.1857 11.2613C15.2207 11.1897 15.2773 11.1294 15.3485 11.0877L16.501 10.4635C16.9851 10.2058 17.782 9.98029 17.782 11.4622ZM15.8712 11.6998V13.3106L16.4967 12.9723C16.6873 12.8497 16.8393 12.681 16.9366 12.4839C17.0338 12.2869 17.0728 12.0689 17.0493 11.8528C17.0493 11.1964 16.7237 11.2327 16.4667 11.3696L15.8712 11.6998Z" fill="white"/>
<path d="M19.0459 9.29578V13.806L20.3826 13.0771C20.4855 13.0248 20.5283 13.1053 20.5283 13.3469V13.5443C20.5283 13.7859 20.4855 13.9147 20.3826 13.9671L18.5275 14.9738C18.3862 15.0503 18.3262 14.9738 18.3262 14.7966V9.6864C18.333 9.60373 18.3638 9.5244 18.4152 9.45698C18.4665 9.38955 18.5365 9.33661 18.6175 9.30384L18.7503 9.23134C18.956 9.12262 19.0459 9.14678 19.0459 9.29578Z" fill="white"/>
<path d="M23.3431 6.73059C23.553 6.61381 23.6473 6.62186 23.6473 6.73059C23.6398 6.80087 23.6225 6.86993 23.5959 6.93597L22.4734 10.1052V12.6301C22.467 12.7129 22.4364 12.7924 22.385 12.8599C22.3336 12.9274 22.2633 12.9803 22.182 13.0127L22.0492 13.0852C21.8436 13.1939 21.7579 13.1617 21.7579 13.0167V10.4717L20.6354 8.54274C20.6061 8.49754 20.5885 8.4465 20.584 8.39374C20.584 8.29709 20.6782 8.19238 20.8967 8.07157L21.0767 7.97493C21.2181 7.89842 21.3252 7.87425 21.3723 7.97493L22.1306 9.36425L22.9018 7.13732C22.9596 7.00454 23.0681 6.89684 23.206 6.8353L23.3431 6.73059Z" fill="white"/>
</svg>
