<svg width="28" height="25" viewBox="0 0 28 25" fill="none" xmlns="http://www.w3.org/2000/svg">
<path opacity="0.15" d="M0.970703 22.5929V13.6248C0.978069 13.5094 1.01406 13.3972 1.07581 13.2972C1.13756 13.1972 1.22334 13.1122 1.3263 13.0489L24.1229 0.690074C24.3157 0.585372 24.4742 0.669944 24.4742 0.883374V9.84745C24.468 9.96265 24.433 10.0748 24.3719 10.1749C24.3109 10.275 24.2256 10.3601 24.1229 10.4233L1.3263 22.7902C1.12922 22.8909 0.970703 22.8063 0.970703 22.5929Z" fill="black"/>
<path d="M25.3573 1.35851L2.56067 13.7254C2.457 13.7879 2.37067 13.8728 2.30883 13.9729C2.24699 14.0731 2.21143 14.1856 2.20508 14.3013V23.2653C2.2114 23.3804 2.24699 23.4924 2.30886 23.5919C2.37074 23.6914 2.45709 23.7755 2.56067 23.8372L3.84596 24.5057C3.95611 24.5584 4.07796 24.5858 4.20155 24.5858C4.32515 24.5858 4.44699 24.5584 4.55715 24.5057L27.3538 12.1428C27.4564 12.0796 27.5417 11.9945 27.6028 11.8944C27.6638 11.7943 27.6989 11.6821 27.7051 11.5669V2.5948C27.6981 2.47986 27.6622 2.36812 27.6004 2.26873C27.5386 2.16933 27.4526 2.08511 27.3495 2.02296L26.0642 1.35448C25.9542 1.30338 25.833 1.27715 25.7102 1.27785C25.5875 1.27854 25.4667 1.30617 25.3573 1.35851Z" fill="#407BFF"/>
<path d="M4.18359 24.3124V15.3443C4.19029 15.2287 4.226 15.1163 4.2878 15.0162C4.34961 14.9161 4.43576 14.8312 4.53919 14.7684L27.3358 2.40556C27.5286 2.29684 27.6871 2.38543 27.6871 2.59483V11.5629C27.6809 11.6781 27.6459 11.7903 27.5848 11.8904C27.5238 11.9905 27.4385 12.0756 27.3358 12.1388L4.53919 24.5017C4.34211 24.6104 4.18359 24.5218 4.18359 24.3124Z" fill="#407BFF"/>
<path opacity="0.2" d="M4.53958 24.5017C4.42913 24.5534 4.3074 24.5804 4.18398 24.5804C4.06057 24.5804 3.93883 24.5534 3.82839 24.5017L2.5431 23.8332C2.43926 23.7718 2.35272 23.6877 2.29082 23.5882C2.22891 23.4886 2.19347 23.3765 2.1875 23.2613V14.3013C2.19827 14.1862 2.23951 14.0754 2.30746 13.9791L4.28252 15.0382C4.21547 15.1356 4.1784 15.2485 4.17541 15.3644V24.3325C4.18398 24.5057 4.32965 24.6184 4.53958 24.5017Z" fill="black"/>
<path opacity="0.4" d="M27.6824 2.53445C27.6567 2.36934 27.511 2.30894 27.3311 2.40559L4.53875 14.7846C4.43324 14.8449 4.34731 14.9313 4.29026 15.0342L2.30664 13.9792C2.36619 13.8824 2.45003 13.8008 2.55085 13.7416L25.3475 1.3787C25.4572 1.32698 25.5782 1.30005 25.7009 1.30005C25.8236 1.30005 25.9447 1.32698 26.0544 1.3787L27.3396 2.04718C27.4293 2.10198 27.5059 2.17351 27.5649 2.25733C27.6239 2.34116 27.6638 2.43548 27.6824 2.53445Z" fill="white"/>
</svg>
