<svg width="33" height="56" viewBox="0 0 33 56" fill="none" xmlns="http://www.w3.org/2000/svg">
<path d="M6.78193 16.0444L6.57527 16.2538L6.35348 16.4918C6.20479 16.6536 6.05609 16.8177 5.91496 16.9867C5.63268 17.3246 5.36049 17.6696 5.10594 18.0241C4.59948 18.7098 4.17675 19.4474 3.8458 20.2227C3.69165 20.5913 3.57191 20.9719 3.48793 21.3601C3.4476 21.579 3.4224 21.6742 3.4098 21.767C3.39584 21.841 3.39584 21.9167 3.4098 21.9907C3.45205 22.107 3.51837 22.2142 3.60491 22.3061C3.69144 22.398 3.79645 22.4728 3.91385 22.526C4.08399 22.625 4.26274 22.7102 4.44815 22.7806C4.5456 22.8187 4.64641 22.8544 4.75058 22.8877C4.84635 22.921 4.96733 22.9543 5.04294 22.9829V24.294C4.86652 24.3178 4.73798 24.3368 4.58929 24.3463C4.44059 24.3558 4.29693 24.3582 4.14824 24.3463C3.84253 24.3405 3.53837 24.3038 3.24094 24.2369C2.90582 24.1625 2.5846 24.0406 2.28827 23.8752C1.93985 23.6827 1.64045 23.4203 1.41121 23.1066C1.17522 22.7727 1.01873 22.3944 0.952525 21.9978C0.935659 21.9049 0.924717 21.8112 0.919761 21.717C0.914767 21.6267 0.914767 21.5361 0.919761 21.4458V21.3125C0.916921 21.2769 0.916921 21.2411 0.919761 21.2054L0.939923 20.9961C1.00439 20.4522 1.12596 19.9158 1.30284 19.3947C1.64416 18.3937 2.12468 17.44 2.73184 16.5584C3.02356 16.1255 3.34077 15.7085 3.68199 15.3092C3.85085 15.1093 4.02475 14.9142 4.20621 14.7215C4.29442 14.6239 4.38766 14.5287 4.48344 14.4335C4.57921 14.3384 4.66742 14.2551 4.79847 14.1361L6.78193 16.0444Z" fill="#B55B52"/>
<path d="M4.54102 22.9541L5.71547 22.1404L6.38335 24.4199C6.38335 24.4199 5.34247 24.7839 4.54858 24.2938L4.54102 22.9541Z" fill="#B55B52"/>
<path d="M7.34742 21.5932L7.80612 23.5015L6.38468 24.42L5.7168 22.1405L7.34742 21.5932Z" fill="#B55B52"/>
<path d="M14.774 7.29744C14.721 7.43784 14.7588 7.57824 14.8571 7.60917C14.9554 7.64011 15.0764 7.55444 15.1268 7.41404C15.1772 7.27364 15.1419 7.13086 15.0462 7.09993C14.9504 7.06899 14.8269 7.15466 14.774 7.29744Z" fill="#263238"/>
<path d="M14.7462 7.57361C14.7658 8.06364 14.8566 8.54882 15.0159 9.01557C14.8889 9.04992 14.7556 9.05793 14.6251 9.03903C14.4946 9.02014 14.37 8.97479 14.2598 8.90612L14.7462 7.57361Z" fill="#A02724"/>
<path d="M14.5306 6.34098C14.5494 6.34696 14.5698 6.34696 14.5886 6.34098C14.6992 6.30614 14.8169 6.29661 14.9322 6.31316C15.0474 6.32971 15.1568 6.37187 15.2514 6.43617C15.2704 6.44915 15.2938 6.45493 15.3171 6.45234C15.3403 6.44975 15.3617 6.43899 15.377 6.42219C15.3922 6.4054 15.4002 6.38381 15.3994 6.3617C15.3985 6.3396 15.3889 6.31861 15.3724 6.3029C15.2541 6.21965 15.1164 6.16433 14.9709 6.14157C14.8253 6.1188 14.6761 6.12924 14.5357 6.17202C14.5173 6.17797 14.5013 6.18919 14.49 6.20413C14.4787 6.21906 14.4727 6.23695 14.4727 6.25531C14.4727 6.27366 14.4787 6.29155 14.49 6.30648C14.5013 6.32142 14.5173 6.33265 14.5357 6.3386L14.5306 6.34098Z" fill="#263238"/>
<path d="M9.24769 7.81616C9.52996 9.17007 9.80971 11.6518 8.80664 12.556C8.80664 12.556 9.1998 13.929 11.8663 13.929C14.7973 13.929 13.2675 12.556 13.2675 12.556C11.6672 12.1943 11.7075 11.0736 11.9872 10.0219L9.24769 7.81616Z" fill="#B55B52"/>
<path d="M8.42301 13.0273C8.21131 12.5919 7.98196 12.0945 8.45829 11.9399C8.98503 11.7685 11.8682 11.5924 12.8612 11.9137C12.9925 11.9474 13.1153 12.0055 13.2226 12.0846C13.3298 12.1637 13.4192 12.2622 13.4856 12.3743C13.552 12.4864 13.5941 12.6099 13.6094 12.7376C13.6246 12.8652 13.6127 12.9945 13.5745 13.1177L8.42301 13.0273Z" fill="#263238"/>
<path d="M18.4903 15.3497C19.1078 16.399 19.7706 17.4793 20.441 18.5167C21.1114 19.5542 21.8145 20.5869 22.5656 21.5291C22.7521 21.7671 22.9461 21.9931 23.1377 22.2192C23.2335 22.3358 23.3343 22.4309 23.4325 22.538L23.5787 22.695L23.6165 22.7355L23.6342 22.7545L23.6518 22.776C23.7693 22.8832 23.9104 22.9644 24.0651 23.0139C24.3033 23.0921 24.5489 23.1487 24.7985 23.1828C26.0236 23.2996 27.2588 23.286 28.4807 23.1424L28.8638 24.4035C28.5235 24.5463 28.206 24.6415 27.8682 24.7604C27.5305 24.8794 27.1978 24.9579 26.8601 25.0388C26.1443 25.2083 25.4104 25.3009 24.6725 25.3148C24.2583 25.3211 23.8448 25.282 23.4401 25.1982C22.9434 25.1051 22.475 24.9084 22.0691 24.6224L21.9002 24.4915L21.8599 24.4582L21.8347 24.4344L21.7868 24.3892L21.5902 24.206C21.4617 24.0847 21.3206 23.9681 21.2046 23.8396C20.9526 23.5897 20.7157 23.3399 20.4964 23.0829C19.6159 22.0783 18.8036 21.0221 18.0644 19.9206C17.6964 19.3781 17.3419 18.83 17.0008 18.2764C16.658 17.7172 16.3279 17.17 16.0078 16.5798L18.4903 15.3497Z" fill="#B55B52"/>
<path d="M5.29441 12.9749C3.45461 13.3723 1.34766 18.105 1.34766 18.105L5.03987 20.4844C5.95817 19.2411 6.77298 17.9325 7.47698 16.5702C8.56826 14.4145 7.17454 12.568 5.29441 12.9749Z" fill="#407BFF"/>
<path opacity="0.2" d="M6.61122 15.992L4.86719 20.3797L5.03856 20.4939C5.03856 20.4939 5.79465 19.4922 6.61122 18.1406V15.992Z" fill="black"/>
<path d="M16.2833 13.0678C16.2833 13.0678 18.3701 15.2949 16.3993 29.0719H5.90735C5.83678 27.5514 6.84741 20.1371 5.29492 12.9726C6.45441 12.7618 7.6271 12.6219 8.80567 12.5538C10.2914 12.4717 11.7809 12.4717 13.2666 12.5538C14.2848 12.6506 15.2935 12.8224 16.2833 13.0678Z" fill="#407BFF"/>
<path opacity="0.2" d="M15.1172 17.0533C15.3909 18.617 16.1066 20.0819 17.1889 21.2935C17.2317 20.406 17.2493 19.6089 17.2468 18.8974L15.1172 17.0533Z" fill="black"/>
<path d="M14.2078 14.5716C13.9557 16.3253 17.6101 20.8034 17.6101 20.8034L21.2872 18.4239C21.2872 18.4239 20.2665 15.9564 18.5502 14.3384C16.5945 12.4824 14.4951 12.6633 14.2078 14.5716Z" fill="#407BFF"/>
<path d="M28.0684 23.1541L29.5654 22.5735L31.1053 23.6728C31.1053 23.6728 29.636 24.9006 28.3002 24.4224L28.0684 23.1541Z" fill="#B55B52"/>
<path d="M30.5521 22.5164L31.6812 23.2778L31.0965 23.6727L29.5566 22.5735L30.5521 22.5164Z" fill="#B55B52"/>
<path d="M9.90012 5.36058C9.3759 7.13087 8.97266 8.14213 9.57248 9.33422C10.4722 11.1307 13.0303 11.0807 14.109 9.49603C15.0768 8.06837 15.7724 5.41292 14.23 4.13517C13.8913 3.85118 13.4814 3.65365 13.0391 3.56136C12.5969 3.46907 12.1369 3.48508 11.7031 3.60787C11.2692 3.73066 10.8758 3.95615 10.5602 4.26292C10.2447 4.56969 10.0174 4.94754 9.90012 5.36058Z" fill="#B55B52"/>
<path d="M13.8927 5.37968C13.1366 7.41174 12.247 9.64367 10.0745 9.22012C8.67323 8.94649 8.56234 6.81687 8.05828 5.84844C7.6122 4.99897 7.63992 3.29052 8.56234 3.26911C8.14901 2.7028 10.2383 0.63029 11.6648 1.72484C12.0302 1.24895 14.6639 -0.152553 16.6146 2.07224C18.4519 4.17568 17.5522 5.92934 13.8927 5.37968Z" fill="#263238"/>
<path d="M12.1899 6.67895C12.1394 7.13284 12.2473 7.58987 12.4973 7.98048C12.8325 8.48967 13.324 8.29456 13.5054 7.77347C13.6667 7.2976 13.6844 6.47671 13.2181 6.14597C12.7519 5.81524 12.2604 6.13169 12.1899 6.67895Z" fill="#B55B52"/>
<path d="M28.2899 53.7276C28.5419 53.7276 28.794 53.6943 28.8671 53.5872C28.8879 53.5589 28.899 53.5253 28.899 53.4909C28.899 53.4564 28.8879 53.4228 28.8671 53.3945C28.8335 53.3444 28.7814 53.3079 28.7209 53.2922C28.3932 53.2089 27.7128 53.5777 27.68 53.5944C27.6714 53.5984 27.6645 53.6051 27.6604 53.6133C27.6563 53.6215 27.6552 53.6307 27.6573 53.6396C27.659 53.6481 27.6632 53.656 27.6694 53.6623C27.6757 53.6686 27.6837 53.6731 27.6926 53.6753C27.8897 53.7092 28.0896 53.7267 28.2899 53.7276ZM28.6024 53.3683C28.6317 53.3644 28.6614 53.3644 28.6906 53.3683C28.7097 53.3717 28.7277 53.379 28.7434 53.3897C28.759 53.4004 28.772 53.4142 28.7814 53.4302C28.8141 53.4849 28.8041 53.5111 28.7814 53.5254C28.6906 53.6467 28.1941 53.6491 27.8287 53.5991C28.0683 53.4755 28.3311 53.3971 28.6024 53.3683Z" fill="#407BFF"/>
<path d="M27.6969 53.6754H27.717C27.954 53.5754 28.4227 53.1757 28.3849 52.9615C28.3849 52.9115 28.3396 52.852 28.2135 52.8378C28.1683 52.8341 28.1227 52.8389 28.0794 52.8519C28.0362 52.865 27.9961 52.8861 27.9615 52.9139C27.7095 53.1066 27.6591 53.6063 27.6566 53.6278C27.6556 53.6354 27.6568 53.6431 27.6599 53.6501C27.6629 53.6572 27.6679 53.6634 27.6742 53.6682C27.6812 53.6721 27.6889 53.6745 27.6969 53.6754ZM28.1757 52.9258H28.2035C28.2866 52.9258 28.2917 52.9663 28.2942 52.9758C28.3169 53.1019 27.9968 53.416 27.7549 53.5516C27.7749 53.3421 27.863 53.1435 28.0069 52.9829C28.0539 52.945 28.1139 52.9246 28.1757 52.9258Z" fill="#407BFF"/>
<path d="M25.418 53.6324H27.3787L27.8248 49.3423H25.8641L25.418 53.6324Z" fill="#B55B52"/>
<path d="M27.4895 53.4184H25.3498C25.3104 53.4186 25.2722 53.4314 25.2415 53.4547C25.2109 53.4781 25.1895 53.5106 25.1809 53.5469L24.7928 55.184C24.7828 55.2238 24.7826 55.2654 24.7922 55.3053C24.8018 55.3453 24.8209 55.3827 24.8482 55.4146C24.8754 55.4465 24.91 55.4721 24.9493 55.4895C24.9887 55.5068 25.0317 55.5155 25.0751 55.5147C25.8463 55.5028 26.9628 55.46 27.9331 55.46C29.0697 55.46 30.0501 55.5171 31.3808 55.5171C32.1873 55.5171 32.4116 54.7485 32.0739 54.6795C30.539 54.363 29.2865 54.3297 27.9608 53.5564C27.8202 53.4703 27.6571 53.4225 27.4895 53.4184Z" fill="#263238"/>
<path opacity="0.2" d="M27.821 49.3445L27.5942 51.5551H25.6309L25.8602 49.3445H27.821Z" fill="black"/>
<path d="M20.4301 53.7253C20.5132 53.7356 20.5977 53.7301 20.6786 53.7093C20.7595 53.6885 20.8352 53.6527 20.9013 53.6039C20.9245 53.5739 20.937 53.5376 20.937 53.5004C20.937 53.4632 20.9245 53.427 20.9013 53.3969C20.8864 53.3708 20.8656 53.3481 20.8403 53.3304C20.8151 53.3127 20.786 53.3005 20.7552 53.2946C20.4679 53.2304 19.926 53.5801 19.9033 53.5944C19.8961 53.5997 19.8905 53.6066 19.887 53.6145C19.8834 53.6225 19.8821 53.6311 19.8832 53.6396C19.8849 53.6478 19.8892 53.6554 19.8955 53.6613C19.9018 53.6672 19.9098 53.6713 19.9184 53.6729C20.0865 53.7076 20.258 53.7251 20.4301 53.7253ZM20.6821 53.3731C20.7005 53.3707 20.7191 53.3707 20.7375 53.3731C20.7556 53.3756 20.7727 53.3821 20.7876 53.392C20.8025 53.4019 20.8147 53.415 20.8232 53.4302C20.8661 53.504 20.8409 53.5326 20.8232 53.5445C20.74 53.6468 20.3393 53.6491 20.0445 53.6039C20.2341 53.4828 20.4504 53.4039 20.677 53.3731H20.6821Z" fill="#407BFF"/>
<path d="M19.9307 53.6753H19.9509C20.155 53.5706 20.5482 53.166 20.5053 52.9614C20.4988 52.9286 20.4804 52.899 20.4533 52.8777C20.4261 52.8564 20.3919 52.8448 20.3566 52.8448C20.3214 52.8407 20.2858 52.8437 20.2519 52.8535C20.218 52.8634 20.1867 52.8799 20.16 52.9019C19.9332 53.078 19.8853 53.6158 19.8828 53.6348C19.8827 53.6428 19.8847 53.6507 19.8887 53.6578C19.8926 53.6649 19.8984 53.6709 19.9055 53.6753C19.9137 53.6777 19.9225 53.6777 19.9307 53.6753ZM20.3264 52.9257H20.3465C20.407 52.9257 20.4121 52.959 20.4146 52.9709C20.4398 53.0923 20.1878 53.3992 19.9861 53.5444C19.9997 53.3332 20.0805 53.1308 20.218 52.9638C20.2482 52.9392 20.2866 52.9257 20.3264 52.9257Z" fill="#407BFF"/>
<path d="M17.6816 53.6324H19.6424L20.6278 49.3423H18.6671L17.6816 53.6324Z" fill="#B55B52"/>
<path d="M19.7812 53.4183H17.5784C17.5393 53.4186 17.5015 53.4315 17.4713 53.4549C17.441 53.4783 17.4201 53.5107 17.4121 53.5468L17.024 55.1838C17.0149 55.224 17.0155 55.2656 17.0258 55.3055C17.036 55.3454 17.0557 55.3827 17.0833 55.4144C17.1109 55.4462 17.1457 55.4717 17.1852 55.489C17.2247 55.5064 17.2678 55.5151 17.3113 55.5145C18.08 55.5026 18.4555 55.4598 19.4233 55.4598C20.0206 55.4598 20.7842 55.5169 21.6084 55.5169C22.4325 55.5169 22.5383 54.7484 22.2006 54.6794C20.6885 54.3677 20.5851 53.937 20.1012 53.5254C20.012 53.454 19.8981 53.4159 19.7812 53.4183Z" fill="#263238"/>
<g opacity="0.2">
<path opacity="0.2" d="M18.6673 49.3446H20.6281L20.119 51.5551H18.1582L18.6673 49.3446Z" fill="black"/>
</g>
<path d="M16.3996 29.074C16.3996 29.074 31.0928 30.5422 30.9315 37.6186C30.8274 42.0629 29.9223 46.4579 28.255 50.6152H25.3415C25.3415 50.6152 25.4902 46.1252 25.3919 38.8797C25.3617 36.7073 20.7168 35.9911 16.1778 35.7389C14.2557 35.6248 12.4056 35.0058 10.8362 33.9517C9.2669 32.8977 8.04082 31.4505 7.29632 29.7736L6.98633 29.074H16.3996Z" fill="#263238"/>
<path d="M28.9671 49.8777C28.9822 49.8777 28.7781 51.1793 28.7781 51.1793H24.7457L24.6348 50.0181L28.9671 49.8777Z" fill="#407BFF"/>
<path d="M13.2538 29.074C13.2538 29.074 23.9045 32.4053 24.1742 36.536C24.6782 44.1359 20.7188 50.6152 20.7188 50.6152H17.7777C17.7777 50.6152 18.8942 47.4029 19.2899 40.5168C19.7939 31.8675 2.69885 40.5025 5.90213 29.074H13.2538Z" fill="#263238"/>
<path d="M21.61 49.8777C21.6251 49.8777 21.2395 51.1793 21.2395 51.1793H17.207L17.2801 50.0181L21.61 49.8777Z" fill="#407BFF"/>
<path d="M20.9365 36.36H4.55469C4.55469 35.8918 4.75171 35.4427 5.10241 35.1116C5.45311 34.7805 5.92877 34.5945 6.42473 34.5945H19.0665C19.5624 34.5945 20.0381 34.7805 20.3888 35.1116C20.7395 35.4427 20.9365 35.8918 20.9365 36.36Z" fill="#407BFF"/>
<path d="M5.31167 36.3578L2.8418 55.9073H3.37105L6.50376 36.3578H5.31167Z" fill="#407BFF"/>
<path opacity="0.4" d="M5.31167 36.3578L2.8418 55.9073H3.37105L6.50376 36.3578H5.31167Z" fill="black"/>
<path d="M8.61625 36.3578L8.56836 55.9073H9.0951L9.80833 36.3578H8.61625Z" fill="#407BFF"/>
<path opacity="0.4" d="M8.61625 36.3578L8.56836 55.9073H9.0951L9.80833 36.3578H8.61625Z" fill="black"/>
<path d="M20.1779 36.3578L22.6477 55.9073H22.1185L18.9883 36.3578H20.1779Z" fill="#407BFF"/>
<path opacity="0.4" d="M20.1779 36.3578L22.6477 55.9073H22.1185L18.9883 36.3578H20.1779Z" fill="black"/>
<path d="M16.8718 36.3578L16.9197 55.9073H16.3929L15.6797 36.3578H16.8718Z" fill="#407BFF"/>
<path opacity="0.4" d="M16.8718 36.3578L16.9197 55.9073H16.3929L15.6797 36.3578H16.8718Z" fill="black"/>
</svg>
