<svg width="46" height="63" viewBox="0 0 46 63" fill="none" xmlns="http://www.w3.org/2000/svg">
<path d="M44.0723 61.792V55.2774C44.0718 54.3143 43.6498 53.3909 42.8991 52.71C42.1484 52.0292 41.1305 51.6468 40.0691 51.6468H18.1166C17.0561 51.6481 16.0396 52.0311 15.29 52.7118C14.5405 53.3924 14.1192 54.3152 14.1188 55.2774L14.2259 61.792H44.0723Z" fill="#455A64"/>
<path d="M44.0772 61.7915H45.7031V56.276C45.7031 56.0801 45.6174 55.8923 45.4648 55.7538C45.3121 55.6154 45.1051 55.5376 44.8893 55.5376C44.6737 55.538 44.4672 55.616 44.315 55.7544C44.1627 55.8928 44.0772 56.0804 44.0772 56.276V61.7915Z" fill="#E0E0E0"/>
<path d="M44.0685 61.7904C44.0685 61.7904 44.0685 61.7759 44.0685 61.7483V61.6334C44.0685 61.5265 44.0685 61.3808 44.0685 61.1961C44.0685 60.814 44.0685 60.2715 44.0846 59.6043C44.1007 58.9371 44.0846 58.1388 44.0971 57.2579C44.0971 57.036 44.0971 56.8109 44.0971 56.5794C44.0971 56.466 44.0971 56.3446 44.0971 56.2328C44.1035 56.1182 44.1415 56.0068 44.2077 55.909C44.2754 55.8081 44.3702 55.7245 44.4832 55.6661C44.5962 55.6076 44.7237 55.5762 44.8538 55.5747C44.9839 55.5733 45.1123 55.6018 45.2269 55.6577C45.3414 55.7137 45.4385 55.7951 45.5088 55.8944C45.5939 56.0167 45.6362 56.1595 45.6302 56.3041V56.751C45.6302 57.0457 45.6302 57.3356 45.6302 57.619C45.6302 58.1858 45.6302 58.7266 45.6302 59.2383C45.6302 60.2488 45.6409 61.1217 45.6445 61.7921L45.6712 61.7662L44.4808 61.7807H44.1595H44.0453C44.0798 61.7831 44.1144 61.7831 44.1488 61.7807H44.463L45.6712 61.7937H45.6998V61.7678C45.6998 61.0974 45.6998 60.2245 45.7123 59.2141C45.7123 58.7072 45.7123 58.1663 45.7123 57.5947V56.2798C45.7167 56.1731 45.697 56.0666 45.6543 55.9671C45.6116 55.8676 45.5468 55.7771 45.464 55.7012C45.3812 55.6253 45.2821 55.5656 45.1728 55.5259C45.0636 55.4861 44.9465 55.4672 44.8288 55.4701C44.6846 55.4733 44.5436 55.5093 44.4189 55.575C44.2941 55.6407 44.1896 55.7338 44.1149 55.8458C44.0409 55.9536 43.9985 56.0768 43.9918 56.2037C43.9918 56.3267 43.9918 56.4417 43.9918 56.5583C43.9918 56.7915 43.9918 57.0198 43.9918 57.2433C43.9918 58.1323 44.0007 58.9323 44.0043 59.6076C44.0078 60.2828 44.0168 60.8124 44.0203 61.1945C44.0203 61.3743 44.0203 61.5184 44.0203 61.6204C44.0301 61.6784 44.0463 61.7354 44.0685 61.7904V61.7904Z" fill="#263238"/>
<path d="M12.6019 61.7915H14.2207V56.276C14.2207 56.0804 14.1352 55.8928 13.983 55.7544C13.8307 55.616 13.6242 55.538 13.4086 55.5376V55.5376C13.1928 55.5376 12.9858 55.6154 12.8332 55.7538C12.6805 55.8923 12.5948 56.0801 12.5948 56.276L12.6019 61.7915Z" fill="#E0E0E0"/>
<path d="M40.6992 61.7918L40.3084 51.6385C40.3084 51.6385 38.504 50.3009 35.9375 51.6385L37.8525 61.7918H40.6992Z" fill="#263238"/>
<path d="M35.1191 20.224L35.0763 11.6414L30.1861 10.7929L29.2063 19.0046C29.2063 19.0046 31.7549 22.8765 35.1191 20.224Z" fill="#FFBF9D"/>
<path d="M35.0865 11.791C35.0865 11.791 35.6219 11.1676 35.281 9.10453C34.9401 7.04148 34.5028 5.29095 34.0977 4.75495L33.8175 4.38735C33.8175 4.38735 33.4748 3.03195 32.8216 2.09921C32.1684 1.16646 31.7936 0.630453 31.3581 0.743808C30.9226 0.857163 31.0779 1.16646 31.2028 1.47737C31.3278 1.78829 32.47 3.93555 32.3808 4.24647C32.2915 4.55739 32.1059 4.30315 32.0113 4.04891C31.9167 3.79467 31.1404 2.18341 30.1748 1.13407C29.2093 0.0847307 29.054 0.0604403 28.6185 0.0895886C28.183 0.118737 28.2616 0.555962 28.4258 0.813439L28.9255 1.65388C28.9255 1.65388 27.5905 -0.177605 26.8124 0.0831111C26.0342 0.343827 27.0622 1.38831 27.0622 1.38831C27.0622 1.38831 28.026 2.52186 28.4008 3.1113C28.7756 3.70075 29.3663 4.72094 29.3663 4.72094C29.3663 4.72094 27.7154 3.19551 27.28 2.91374C26.8445 2.63197 25.7843 1.27496 25.1008 1.84011C24.4172 2.40526 27.7779 5.11444 28.2437 5.92088L28.7113 6.53462L29.054 7.43822C28.8178 7.18108 28.5144 6.98173 28.1715 6.8584C27.8285 6.73506 27.457 6.69167 27.0908 6.73218C25.7825 6.84553 26.873 7.60825 27.2157 7.89002C27.5584 8.17178 28.3044 8.85029 28.6167 9.41545C28.9291 9.9806 30.0231 10.9781 30.5157 11.2405C31.0083 11.5028 32.1345 11.791 32.1345 11.791H35.0865Z" fill="#FFBF9D"/>
<path d="M29.0537 5.48844C29.0662 5.49816 29.2179 5.35241 29.5053 5.16457C29.6745 5.05448 29.8536 4.95751 30.0407 4.8747C30.2704 4.7755 30.5093 4.69476 30.7546 4.63342C30.9992 4.57624 31.2488 4.53885 31.5006 4.52169C31.7064 4.50983 31.9129 4.51308 32.1182 4.5314C32.4751 4.56379 32.6821 4.62047 32.6875 4.60589C32.6419 4.58192 32.5926 4.56444 32.5412 4.55407C32.4059 4.51626 32.2674 4.48864 32.1271 4.47149C31.9185 4.44481 31.7076 4.43559 31.4971 4.44396C31.2386 4.45736 30.9821 4.49369 30.7314 4.55245C30.4847 4.61458 30.2455 4.69921 30.0175 4.80507C29.8291 4.89389 29.6499 4.99795 29.4821 5.11599C29.3701 5.19482 29.2656 5.28203 29.1698 5.3767C29.0841 5.44472 29.0484 5.48358 29.0537 5.48844Z" fill="#FF9A6C"/>
<path d="M28.805 1.51433C28.7925 1.51433 28.9264 1.67626 29.1173 1.94022C29.3623 2.28592 29.5858 2.64382 29.7866 3.01223C30.0258 3.4446 30.2203 3.84458 30.3631 4.13282C30.4317 4.29126 30.514 4.4445 30.6094 4.5911C30.566 4.42464 30.5063 4.26205 30.4309 4.10529C30.3024 3.81057 30.1168 3.40411 29.8776 2.97174C29.6764 2.59955 29.4424 2.24268 29.178 1.90459C29.0978 1.80198 29.0121 1.70308 28.921 1.60825C28.8478 1.537 28.8103 1.50137 28.805 1.51433Z" fill="#FF9A6C"/>
<path d="M28.7557 7.08405C28.817 7.1656 28.8863 7.24202 28.9627 7.31237C29.1162 7.48403 29.2822 7.66539 29.4624 7.86457C29.5572 7.96842 29.665 8.0619 29.7837 8.1431C29.8857 8.20558 30.0003 8.24906 30.121 8.27103C30.2283 8.2983 30.3403 8.30709 30.4512 8.29694C30.3497 8.2597 30.2445 8.2315 30.1371 8.21274C30.028 8.18537 29.9252 8.14039 29.8336 8.07995C29.7239 7.99863 29.623 7.90808 29.532 7.80952C29.3357 7.599 29.1554 7.40144 29.0109 7.27189C28.9401 7.1948 28.8534 7.13099 28.7557 7.08405V7.08405Z" fill="#FF9A6C"/>
<path d="M6.19559 30.6626C6.14204 28.9785 5.82079 27.3057 5.86005 25.6216C5.89932 23.9374 6.358 22.1772 7.63053 20.9497C8.90306 19.7223 11.8051 18.8008 13.0098 20.6437V21.6153C12.5315 28.117 12.7313 34.7159 12.253 41.2176C12.1906 42.0726 11.441 42.8547 11.0269 43.6255C10.6128 44.3964 9.76688 45.036 8.82453 44.9988C7.59126 44.9486 6.76135 43.8263 6.35979 42.7673C4.90878 38.9213 6.32944 34.711 6.19559 30.6626Z" fill="#263238"/>
<path d="M10.0758 21.8078C10.2389 21.3452 10.4797 20.9083 10.7897 20.5123C11.1199 20.135 11.616 19.8435 12.1479 19.8516C12.2734 19.846 12.3984 19.8697 12.5109 19.9204C12.6234 19.9712 12.7196 20.0473 12.7904 20.1415C12.9118 20.3391 12.7904 20.6484 12.5406 20.6694L12.4959 20.718C12.0319 21.2427 11.5572 21.7609 11.0681 22.2677C10.9538 22.4026 10.812 22.5164 10.6505 22.6029C10.5684 22.6459 10.4745 22.667 10.3797 22.6635C10.2849 22.6601 10.1932 22.6323 10.1151 22.5835C9.87949 22.4151 9.96515 22.0701 10.0758 21.8078Z" fill="#455A64"/>
<path d="M9.34477 23.6004C10.7833 21.2945 13.0107 19.748 15.8823 19.2557C17.5011 18.9772 18.2311 19.1796 19.4518 19.2832C20.6726 19.3869 21.8398 19.7901 22.7072 20.5787C23.7388 21.5163 24.6615 22.6029 25.0649 23.8757C25.4789 25.1842 25.8948 26.5007 26.0376 27.8561C26.1803 29.2115 26.0376 30.6203 25.3736 31.8413L21.7345 33.0186C19.6749 33.4056 17.5868 33.7943 15.4879 33.6809C13.389 33.5676 11.242 32.889 9.85699 31.4527C7.9366 29.4593 7.90447 25.908 9.34477 23.6004Z" fill="#263238"/>
<path d="M12.6811 23.0517L17.3393 20.4607L18.6708 20.3943C21.612 19.9458 24.2035 22.5691 24.6247 24.7261C25.1012 27.1227 25.5796 30.07 25.4939 31.8982C25.3154 35.5871 22.035 36.4049 22.035 36.4049C22.035 36.4049 22.4634 38.2898 22.715 39.4817L20.6001 44.0256L14.9656 40.1747L11.5907 24.467C11.5452 24.1502 11.6318 23.8294 11.8335 23.5675C12.0353 23.3057 12.3376 23.1217 12.6811 23.0517Z" fill="#FFBF9D"/>
<path d="M19.4609 31.9949C19.4566 31.8079 19.5277 31.626 19.6608 31.4832C19.7818 31.3502 19.9477 31.2571 20.1328 31.2182C20.318 31.1792 20.5121 31.1967 20.6852 31.2678C20.8675 31.3553 21.0209 31.4852 21.1294 31.6444C21.2379 31.8035 21.2978 31.986 21.3027 32.173V32.173C21.2379 32.2962 21.1446 32.4053 21.0291 32.4927C20.9136 32.5802 20.7786 32.644 20.6335 32.6799C20.5883 32.691 20.5424 32.6996 20.496 32.7058C20.2626 32.7416 20.0228 32.6959 19.825 32.5779C19.7194 32.5122 19.6317 32.4256 19.5686 32.3246C19.5055 32.2236 19.4686 32.1108 19.4609 31.9949Z" fill="#FF9A6C"/>
<path d="M23.3221 27.7974C23.339 27.9183 23.303 28.0404 23.222 28.1375C23.1409 28.2347 23.0212 28.2992 22.8884 28.3173C22.824 28.3289 22.7576 28.3287 22.6933 28.3167C22.6289 28.3047 22.5679 28.281 22.5138 28.2472C22.4597 28.2134 22.4137 28.17 22.3784 28.1198C22.3431 28.0695 22.3193 28.0133 22.3084 27.9545C22.2914 27.8337 22.3271 27.7116 22.4077 27.6143C22.4884 27.5169 22.6077 27.4519 22.7403 27.4331C22.8049 27.4217 22.8714 27.4221 22.9359 27.4343C23.0003 27.4465 23.0615 27.4702 23.1157 27.5042C23.1699 27.5381 23.2161 27.5816 23.2515 27.6319C23.2869 27.6823 23.311 27.7385 23.3221 27.7974V27.7974Z" fill="#263238"/>
<path d="M23.9555 26.078C23.9002 26.146 23.479 25.9258 22.9275 25.9857C22.376 26.0456 22.0048 26.3371 21.937 26.282C21.9048 26.2577 21.9566 26.1428 22.1154 26.0067C22.3347 25.8326 22.6075 25.7235 22.8971 25.6942C23.1838 25.663 23.474 25.7158 23.7253 25.8448C23.9109 25.9452 23.9823 26.0488 23.9555 26.078Z" fill="#263238"/>
<path d="M21.1828 30.5015C21.1828 30.4739 21.5112 30.3832 22.0573 30.2618C22.1965 30.2326 22.3268 30.1938 22.3393 30.0999C22.3348 29.9664 22.2849 29.8374 22.1965 29.7306L21.6611 28.8028C20.9062 27.4797 20.3422 26.3867 20.4011 26.3591C20.46 26.3316 21.115 27.3826 21.8735 28.7056C22.0579 29.0295 22.2328 29.3415 22.3982 29.6416C22.5044 29.7843 22.5529 29.9559 22.5356 30.1274C22.5207 30.1745 22.4941 30.218 22.4579 30.2544C22.4218 30.2909 22.3769 30.3195 22.3268 30.3379C22.252 30.3661 22.1734 30.3851 22.093 30.3946C21.5397 30.5015 21.1828 30.5371 21.1828 30.5015Z" fill="#263238"/>
<path d="M22.0429 36.4124C20.1675 36.6371 18.26 36.3849 16.5334 35.6836C16.5334 35.6836 18.2771 38.043 22.2285 37.2836L22.0429 36.4124Z" fill="#FF9A6C"/>
<path d="M19.6041 31.024C19.6933 31.0095 19.7647 31.5519 20.318 31.8839C20.8712 32.2159 21.5084 32.0879 21.5227 32.1641C21.5352 32.1964 21.3942 32.2839 21.1247 32.3179C20.775 32.3599 20.4203 32.2882 20.1234 32.1155C19.8444 31.947 19.6471 31.688 19.5719 31.3916C19.513 31.1665 19.563 31.0256 19.6041 31.024Z" fill="#263238"/>
<path d="M23.436 24.3727C23.3593 24.5039 22.9274 24.4666 22.4402 24.5557C21.9529 24.6448 21.5585 24.8051 21.4353 24.7063C21.38 24.6577 21.4193 24.533 21.5745 24.3938C21.7891 24.2192 22.0525 24.1016 22.3358 24.0539C22.6192 24.0062 22.9115 24.0302 23.1808 24.1233C23.3861 24.2043 23.47 24.3079 23.436 24.3727Z" fill="#263238"/>
<path d="M17.1789 28.5386C17.1976 28.6594 17.2677 28.7687 17.3741 28.8431C17.4805 28.9176 17.6148 28.9513 17.7483 28.937C17.8134 28.9323 17.8768 28.916 17.9349 28.889C17.993 28.862 18.0447 28.8249 18.087 28.7798C18.1292 28.7346 18.1613 28.6824 18.1813 28.626C18.2012 28.5696 18.2088 28.5102 18.2034 28.4512C18.1839 28.3305 18.1133 28.2214 18.0067 28.147C17.9002 28.0727 17.7658 28.0389 17.6323 28.0528C17.5673 28.0575 17.5039 28.0738 17.4459 28.1008C17.3879 28.1278 17.3363 28.1649 17.2942 28.2101C17.252 28.2553 17.2202 28.3075 17.2004 28.3639C17.1806 28.4203 17.1733 28.4797 17.1789 28.5386V28.5386Z" fill="#263238"/>
<path d="M16.5403 27.0392C16.6134 27.091 16.9561 26.7785 17.504 26.7024C18.0519 26.6263 18.4963 26.819 18.5445 26.7493C18.5695 26.7186 18.4856 26.6198 18.2911 26.5275C18.0287 26.4115 17.7331 26.3724 17.4451 26.4158C17.1601 26.4544 16.8962 26.5747 16.692 26.7591C16.5403 26.8999 16.4974 27.0165 16.5403 27.0392Z" fill="#263238"/>
<path d="M16.5572 25.4013C16.6839 25.4985 17.0926 25.322 17.5941 25.2394C18.0956 25.1568 18.5472 25.1843 18.6257 25.0515C18.6596 24.9884 18.5722 24.8896 18.3669 24.8038C18.0873 24.7081 17.7838 24.6851 17.4906 24.7374C17.1964 24.7813 16.9222 24.9004 16.6999 25.0807C16.5375 25.2281 16.5001 25.3527 16.5572 25.4013Z" fill="#263238"/>
<path d="M13.4156 30.4042C13.3799 30.1338 12.9551 29.5346 12.6571 29.5233C11.8593 29.4958 10.4529 29.7014 10.6706 31.5086C10.9687 33.9798 13.6422 33.1992 13.6387 33.128C13.6351 33.0567 13.5369 31.3354 13.4156 30.4042Z" fill="#FFBF9D"/>
<path d="M12.7705 32.298C12.7562 32.298 12.7258 32.3336 12.6509 32.3741C12.5424 32.4296 12.4144 32.4447 12.2939 32.4162C11.9959 32.3498 11.7032 31.9595 11.6353 31.5142C11.6033 31.3034 11.6234 31.0888 11.6942 30.8859C11.7102 30.806 11.7475 30.7309 11.8029 30.6671C11.8583 30.6033 11.9301 30.5528 12.0119 30.5199C12.0648 30.5016 12.123 30.5004 12.1767 30.5166C12.2305 30.5329 12.2763 30.5655 12.3064 30.609C12.351 30.6754 12.3385 30.7256 12.3546 30.7288C12.3707 30.7321 12.4081 30.6819 12.3725 30.5815C12.3501 30.5219 12.306 30.4711 12.2475 30.4373C12.1663 30.3941 12.0698 30.3807 11.978 30.4001C11.8687 30.4316 11.7701 30.4878 11.6914 30.5634C11.6127 30.6391 11.5566 30.7317 11.5283 30.8325C11.4386 31.0584 11.4104 31.3006 11.4462 31.5385C11.5247 32.034 11.862 32.4729 12.2672 32.536C12.3427 32.5484 12.4203 32.5451 12.4942 32.5263C12.5681 32.5075 12.6363 32.4737 12.6937 32.4275C12.7722 32.3595 12.7794 32.3028 12.7705 32.298Z" fill="#FF9A6C"/>
<path d="M12.5462 29.5471L13.3529 30.0848C15.823 27.055 20.3812 19.7209 20.1349 20.1581C20.1349 20.1581 17.9665 19.7177 15.8319 20.401C13.6973 21.0844 9.71735 22.7329 10.2278 25.0761C10.7382 27.4193 12.5462 29.5471 12.5462 29.5471Z" fill="#263238"/>
<path d="M8.51788 29.6187C8.51588 29.5692 8.52067 29.5197 8.53216 29.4714C8.55524 29.3304 8.59228 29.1917 8.64281 29.0568C8.83453 28.5604 9.14403 28.1082 9.54947 27.7322C10.1528 27.1789 10.8568 26.7242 11.6305 26.3881C12.4818 25.98 13.4581 25.6157 14.3808 25.0716C15.256 24.5686 16.0634 23.9746 16.7866 23.3016C17.3772 22.7528 17.9118 22.1566 18.384 21.5203C18.7009 21.0893 18.9893 20.6415 19.2478 20.1795C19.3335 20.0257 19.4013 19.8993 19.4548 19.8006C19.4759 19.7547 19.5029 19.7112 19.5352 19.671C19.5226 19.7195 19.5047 19.7667 19.4816 19.8119C19.4406 19.901 19.3834 20.0354 19.3031 20.2022C19.0607 20.6745 18.7828 21.1311 18.4714 21.5689C18.0081 22.2194 17.4768 22.8278 16.8848 23.3858C16.1593 24.0701 15.3456 24.6726 14.4611 25.1801C13.5259 25.7306 12.5407 26.095 11.6947 26.4934C10.9313 26.8181 10.2329 27.2559 9.628 27.7888C9.22346 28.1527 8.90679 28.5889 8.69814 29.0698C8.55536 29.4163 8.53216 29.622 8.51788 29.6187Z" fill="#455A64"/>
<path d="M9.38443 29.8832C9.3407 29.7012 9.3407 29.5129 9.38443 29.331C9.49849 28.8324 9.77522 28.3765 10.1786 28.0225C10.6695 27.5529 11.428 27.1918 12.2757 26.8712C13.2038 26.5471 14.0896 26.1311 14.9172 25.6307C15.7377 25.1231 16.4853 24.5248 17.1427 23.8494C17.6824 23.297 18.1606 22.6977 18.5705 22.0601C18.842 21.6284 19.0846 21.1822 19.2969 20.7241L19.4594 20.3452C19.4765 20.3001 19.4986 20.2567 19.5254 20.2156C19.519 20.2629 19.5058 20.3091 19.4861 20.3533C19.4504 20.4553 19.404 20.5832 19.3469 20.7419C19.1542 21.2108 18.9233 21.666 18.6562 22.1038C17.7671 23.5572 16.5161 24.8021 15.0028 25.7392C14.1655 26.2448 13.2673 26.6621 12.3257 26.9829C11.4779 27.2971 10.7337 27.642 10.2483 28.0889C9.85012 28.4274 9.56867 28.8633 9.43798 29.3439C9.40121 29.5217 9.38328 29.7023 9.38443 29.8832V29.8832Z" fill="#455A64"/>
<path d="M13.418 33.6734C13.418 33.6572 13.1806 33.6653 12.763 33.6329C12.1751 33.5716 11.6102 33.3906 11.1103 33.1034C10.3765 32.6652 9.76979 32.0731 9.3416 31.3771C8.80118 30.5314 8.42223 29.6089 8.22078 28.6485C8.00448 27.6907 8.0197 26.7018 8.26539 25.7499C8.47031 24.9732 8.81589 24.2328 9.28805 23.5589C10.1019 22.4075 10.8622 21.8764 10.8247 21.8472C10.7749 21.872 10.7293 21.9031 10.6891 21.9395C10.607 22.0076 10.4767 22.1015 10.3321 22.2375C9.90168 22.6191 9.51755 23.0415 9.18633 23.4974C8.69114 24.1748 8.32885 24.9248 8.11548 25.7143C7.99334 26.1823 7.92279 26.6602 7.90487 27.1409C7.89543 27.657 7.94568 28.1727 8.0548 28.6793C8.25921 29.6583 8.64996 30.5975 9.20953 31.4549C9.65749 32.1658 10.2912 32.7658 11.055 33.2021C11.5748 33.4866 12.1625 33.6533 12.7683 33.688C12.9317 33.6984 13.0957 33.6984 13.2591 33.688C13.3126 33.6897 13.366 33.6848 13.418 33.6734V33.6734Z" fill="#455A64"/>
<path d="M10.1554 51.7765C10.0037 51.9465 8.28146 56.9471 8.28146 56.9471L17.9727 58.4142L17.6782 62.5922L3.40016 62.4108C3.40016 62.4108 0.392853 61.2773 1.09248 58.1373C1.69572 55.4298 4.94575 46.112 5.1974 45.2181C5.44905 44.3242 7.61574 41.1357 9.96983 40.4556L12.3596 47.1808L10.1554 51.7765Z" fill="#407BFF"/>
<path d="M36.8203 61.7548C36.8203 61.7548 32.6833 57.2125 32.2281 55.428C31.773 53.6434 32.8028 42.3727 32.8028 42.3727L25.4497 36.4167L22.5405 38.496C22.5405 38.496 21.6481 41.8837 19.5421 42.078C17.4361 42.2723 14.834 39.615 14.834 39.615C14.834 39.615 11.3055 39.6312 8.97819 40.8457L9.34942 47.8186C9.83844 50.8759 10.3292 53.8102 10.9896 55.0733L11.0431 55.428L14.5734 61.677L36.8203 61.7548Z" fill="#407BFF"/>
<path d="M32.8077 42.5087C32.8077 42.5087 32.781 40.1898 32.781 39.9842C32.781 39.7785 34.4283 32.3084 34.8263 29.3725C35.2243 26.4367 35.1011 19.0184 35.1011 19.0184L29.3096 18.0468L27.7158 29.1685L26.288 33.0452L25.3189 36.9317L26.0774 38.1333L32.8077 42.5087Z" fill="#407BFF"/>
<path d="M31.986 32.7231C31.9764 32.7475 31.9716 32.7733 31.9717 32.7992C31.9717 32.8575 31.9556 32.9288 31.9467 33.0146C31.9288 33.217 31.9039 33.4858 31.8735 33.8129C31.7892 34.6911 31.7617 35.573 31.7914 36.4541C31.8424 37.3363 32.001 38.2107 32.2644 39.0613C32.3697 39.3851 32.4571 39.6475 32.5285 39.8256L32.6106 40.0313C32.6177 40.056 32.6292 40.0795 32.6445 40.1009C32.6419 40.0751 32.6365 40.0496 32.6285 40.0248L32.5642 39.8159C32.5035 39.6345 32.4232 39.3722 32.3286 39.0451C32.0851 38.1972 31.9368 37.3291 31.886 36.4541C31.8343 35.4274 31.9039 34.4963 31.9396 33.821C31.9574 33.4972 31.9717 33.2251 31.9824 33.0227C31.9824 32.9369 31.9824 32.8608 31.9824 32.8041C31.9891 32.7775 31.9903 32.7501 31.986 32.7231V32.7231Z" fill="#263238"/>
<path d="M9.35025 47.3938C9.35019 47.4275 9.35377 47.4611 9.36096 47.4942L9.40914 47.776C9.44662 48.0334 9.50016 48.3865 9.56441 48.8188C9.69649 49.6981 9.87496 50.924 10.1623 52.2486C10.3859 53.391 10.7222 54.5129 11.1671 55.6007C11.2135 55.7043 11.251 55.8047 11.2974 55.8954L11.4295 56.1529L11.5455 56.3763C11.5812 56.4444 11.624 56.5027 11.6579 56.5561L11.8203 56.8022C11.8371 56.8321 11.8581 56.8599 11.8828 56.8848C11.87 56.8535 11.8545 56.8232 11.8364 56.7941L11.6901 56.5399C11.6597 56.4848 11.6187 56.4265 11.5848 56.3585C11.5508 56.2905 11.5152 56.2128 11.4759 56.1334L11.351 55.8743C11.3081 55.7837 11.2724 55.6833 11.2278 55.5796C10.8033 54.4898 10.4774 53.3703 10.2533 52.2324C9.96777 50.9045 9.77858 49.6884 9.63045 48.8107C9.55727 48.3703 9.49302 48.0156 9.45197 47.7711C9.42699 47.648 9.402 47.5541 9.38773 47.491C9.38006 47.4572 9.36745 47.4245 9.35025 47.3938V47.3938Z" fill="#263238"/>
<path d="M5.38013 59.3264C5.51486 59.1989 5.63894 59.0625 5.75136 58.9183C6.03068 58.5779 6.33288 58.2534 6.65623 57.9467C7.42903 57.2407 8.29642 56.9751 8.275 56.9395C8.25358 56.9038 8.21967 56.9492 8.12508 56.9799C7.99126 57.0279 7.86021 57.0819 7.73244 57.1419C7.31114 57.3365 6.92579 57.5895 6.5902 57.8916C6.26291 58.1983 5.96442 58.5293 5.69782 58.8811C5.57894 59.0215 5.4727 59.1705 5.38013 59.3264V59.3264Z" fill="#263238"/>
<path d="M17.6666 62.5922C17.675 62.5664 17.6798 62.5398 17.6809 62.5129C17.6809 62.4546 17.6934 62.3785 17.7041 62.2829C17.7201 62.0757 17.7451 61.7842 17.7755 61.4215C17.8326 60.6749 17.9129 59.6402 18.0039 58.4159V58.3803H17.9646L15.3982 57.9884L10.3634 57.237L8.83563 57.02L8.41979 56.965C8.37153 56.9567 8.32255 56.9524 8.27344 56.952C8.32024 56.9647 8.36795 56.9744 8.41622 56.9812L8.83028 57.0524L10.3527 57.297L15.3839 58.071L17.9504 58.4564L17.9147 58.4159C17.8361 59.6353 17.7683 60.683 17.7201 61.4231C17.6987 61.7874 17.6826 62.0708 17.6719 62.2862C17.6719 62.3817 17.6719 62.4578 17.663 62.5161C17.6622 62.5416 17.6633 62.567 17.6666 62.5922Z" fill="#263238"/>
<path d="M19.4903 52.815C19.4903 52.815 19.5135 52.8393 19.5653 52.8782L19.7937 53.0482L19.9615 53.168C20.024 53.2101 20.0954 53.2506 20.1703 53.2976C20.3394 53.4051 20.5146 53.5045 20.695 53.5955L21.0092 53.7575C21.118 53.8125 21.2394 53.8563 21.3661 53.9097C21.6088 54.0198 21.8801 54.104 22.1639 54.2012C23.4143 54.5908 24.7445 54.7231 26.0582 54.5882C26.3581 54.5493 26.6454 54.5186 26.9078 54.4603C27.0381 54.4311 27.1666 54.4117 27.2879 54.3809L27.6324 54.287C27.8299 54.234 28.0242 54.1713 28.2142 54.0992C28.2999 54.0684 28.3784 54.0425 28.4498 54.0133L28.6425 53.9291L28.9049 53.8093C28.9363 53.7964 28.9662 53.7806 28.9941 53.7623C28.96 53.7685 28.927 53.7789 28.896 53.7931L28.6265 53.8984L28.4337 53.9761C28.3606 54.0036 28.2802 54.0263 28.1964 54.0554C28.0179 54.1089 27.8394 54.1801 27.6127 54.2303L27.2701 54.3178C27.1505 54.3469 27.022 54.3647 26.8917 54.3906C26.6133 54.4434 26.3321 54.4834 26.0493 54.5105C25.4 54.5688 24.746 54.5688 24.0968 54.5105C23.45 54.4405 22.8122 54.3136 22.1925 54.1315C21.9105 54.0376 21.6392 53.955 21.3982 53.8482C21.2769 53.798 21.1555 53.7542 21.0413 53.7024L20.7272 53.5502C20.5219 53.4579 20.3542 53.351 20.1917 53.2652C20.1168 53.2198 20.0436 53.181 19.9794 53.1421L19.8009 53.0271L19.5635 52.8652C19.5406 52.8468 19.5161 52.83 19.4903 52.815V52.815Z" fill="#263238"/>
<path d="M32.6742 62.3835C32.6963 62.3428 32.7087 62.2984 32.7107 62.2531C32.7126 62.2078 32.7041 62.1626 32.6856 62.1204C32.6671 62.0783 32.639 62.0402 32.6032 62.0085C32.5674 61.9768 32.5247 61.9523 32.4778 61.9366C31.3606 61.5819 27.3734 60.3172 27.1093 60.2314C26.8041 60.1391 20.6842 59.0638 20.6842 59.0638L17.9196 58.9246L17.684 62.288H20.3094C20.6499 62.3804 20.9978 62.4487 21.3499 62.492C21.7408 62.526 27.6126 62.8046 29.1707 62.7446C29.2683 62.7403 29.363 62.7131 29.4455 62.6657C29.5281 62.6183 29.5957 62.5524 29.6419 62.4742V62.4742C29.6419 62.4742 30.6217 62.8272 31.2356 62.7527C31.8496 62.6782 31.8478 62.5665 31.8478 62.5665C31.8478 62.5665 32.4404 62.7786 32.6742 62.3835Z" fill="#FFBF9D"/>
<path d="M24.9975 61.2676C25.0519 61.3033 25.1121 61.3312 25.176 61.3501C25.3415 61.4115 25.5122 61.4608 25.6864 61.4975C25.9041 61.5461 26.1683 61.5882 26.4521 61.6594C26.5948 61.6918 26.7376 61.742 26.8965 61.7841C27.0553 61.8262 27.2159 61.8635 27.3837 61.8959C27.721 61.9623 28.0387 62.0141 28.3332 62.0578C28.6277 62.1015 28.8972 62.1064 29.1131 62.1485C29.2842 62.1644 29.4454 62.229 29.5736 62.3331C29.5916 62.3563 29.6037 62.3829 29.6089 62.4109C29.6142 62.439 29.6125 62.4677 29.6039 62.495C29.6039 62.495 29.62 62.4837 29.6307 62.4529C29.641 62.4067 29.6315 62.3586 29.6039 62.3185C29.4796 62.1943 29.3108 62.114 29.1274 62.0918C28.9061 62.04 28.6366 62.0254 28.3475 61.9817C28.0583 61.938 27.7353 61.8732 27.4033 61.8084C27.2373 61.776 27.0749 61.7404 26.9214 61.6999C26.768 61.6594 26.6198 61.6109 26.4735 61.5801C26.1826 61.5137 25.9184 61.4781 25.7007 61.4376C25.4632 61.3918 25.2285 61.335 24.9975 61.2676Z" fill="#FF9A6C"/>
<path d="M26.2256 60.5783C26.3017 60.6091 26.3805 60.634 26.4611 60.6528L27.1144 60.8261C27.6641 60.9718 28.4262 61.1726 29.2561 61.4042C30.086 61.6358 30.8498 61.8512 31.3978 62.0082C31.5192 62.0368 31.6333 62.0868 31.7333 62.1556C31.7691 62.182 31.7986 62.2146 31.8201 62.2517C31.8416 62.2887 31.8545 62.3293 31.8582 62.371C31.862 62.407 31.8571 62.4433 31.8438 62.4774C31.8306 62.5115 31.8093 62.5426 31.7815 62.5685C31.7815 62.5685 31.8047 62.5685 31.835 62.5329C31.8773 62.488 31.8985 62.4299 31.8939 62.371C31.8932 62.3238 31.8817 62.2773 31.8602 62.2344C31.8387 62.1915 31.8077 62.1531 31.769 62.1216C31.6632 62.0465 31.5418 61.9914 31.412 61.9596C30.8766 61.788 30.1145 61.5629 29.2703 61.3313C28.4262 61.0998 27.6641 60.9087 27.1108 60.7775C26.8342 60.7111 26.6075 60.6609 26.4504 60.6285C26.3775 60.6052 26.3021 60.5884 26.2256 60.5783V60.5783Z" fill="#FF9A6C"/>
</svg>
