<svg width="49" height="79" viewBox="0 0 49 79" fill="none" xmlns="http://www.w3.org/2000/svg">
<path d="M37.0585 13.7519L37.6997 14.2036C37.9223 14.363 38.1466 14.5136 38.3725 14.6554C38.8235 14.9494 39.277 15.2434 39.7353 15.5111C40.1936 15.7788 40.6568 16.0322 41.1151 16.2569C41.5448 16.4693 41.9896 16.6506 42.4462 16.7995C42.3449 16.7749 42.2398 16.77 42.1366 16.7852C42.0749 16.7926 42.0149 16.8095 41.9586 16.8354C41.8879 16.8712 41.9099 16.8736 41.9464 16.8521C42.0875 16.7563 42.2146 16.6421 42.3243 16.5127C42.6451 16.1372 42.9353 15.7376 43.1922 15.3175C43.4774 14.8777 43.7504 14.4116 44.0113 13.9335C44.2721 13.4555 44.533 12.9654 44.7743 12.4993L44.7914 12.4683C44.9149 12.2299 45.1245 12.0452 45.3794 11.9502C45.6342 11.8551 45.916 11.8565 46.1699 11.9541C46.4237 12.0517 46.6314 12.2385 46.7524 12.478C46.8735 12.7176 46.8992 12.9927 46.8246 13.2499C46.4932 14.3887 46.0735 15.5011 45.5691 16.5772C45.2957 17.1562 44.9736 17.7119 44.6061 18.2385C44.3763 18.5648 44.107 18.8625 43.8041 19.1253C43.5825 19.3145 43.3315 19.4678 43.0605 19.5794C42.8699 19.6561 42.67 19.7083 42.4657 19.7348C42.2213 19.7621 41.974 19.7483 41.7343 19.6942C41.0831 19.546 40.4455 19.3453 39.8279 19.0942C39.2501 18.8636 38.6853 18.6027 38.1361 18.3126C37.5949 18.0305 37.0675 17.7333 36.5539 17.421C36.2979 17.2632 36.0444 17.1031 35.7933 16.9429C35.5422 16.7828 35.3057 16.6154 35.0302 16.4194C34.7224 16.1412 34.5297 15.7617 34.4887 15.3532C34.4477 14.9447 34.5612 14.5357 34.8078 14.2039C35.0543 13.8722 35.4166 13.6408 35.8258 13.554C36.2349 13.4671 36.6624 13.5307 37.0268 13.7327L37.0585 13.7519Z" fill="#407BFF"/>
<path opacity="0.2" d="M37.0585 13.7519L37.6997 14.2036C37.9223 14.363 38.1466 14.5136 38.3725 14.6554C38.8235 14.9494 39.277 15.2434 39.7353 15.5111C40.1936 15.7788 40.6568 16.0322 41.1151 16.2569C41.5448 16.4693 41.9896 16.6506 42.4462 16.7995C42.3449 16.7749 42.2398 16.77 42.1366 16.7852C42.0749 16.7926 42.0149 16.8095 41.9586 16.8354C41.8879 16.8712 41.9099 16.8736 41.9464 16.8521C42.0875 16.7563 42.2146 16.6421 42.3243 16.5127C42.6451 16.1372 42.9353 15.7376 43.1922 15.3175C43.4774 14.8777 43.7504 14.4116 44.0113 13.9335C44.2721 13.4555 44.533 12.9654 44.7743 12.4993L44.7914 12.4683C44.9149 12.2299 45.1245 12.0452 45.3794 11.9502C45.6342 11.8551 45.916 11.8565 46.1699 11.9541C46.4237 12.0517 46.6314 12.2385 46.7524 12.478C46.8735 12.7176 46.8992 12.9927 46.8246 13.2499C46.4932 14.3887 46.0735 15.5011 45.5691 16.5772C45.2957 17.1562 44.9736 17.7119 44.6061 18.2385C44.3763 18.5648 44.107 18.8625 43.8041 19.1253C43.5825 19.3145 43.3315 19.4678 43.0605 19.5794C42.8699 19.6561 42.67 19.7083 42.4657 19.7348C42.2213 19.7621 41.974 19.7483 41.7343 19.6942C41.0831 19.546 40.4455 19.3453 39.8279 19.0942C39.2501 18.8636 38.6853 18.6027 38.1361 18.3126C37.5949 18.0305 37.0675 17.7333 36.5539 17.421C36.2979 17.2632 36.0444 17.1031 35.7933 16.9429C35.5422 16.7828 35.3057 16.6154 35.0302 16.4194C34.7224 16.1412 34.5297 15.7617 34.4887 15.3532C34.4477 14.9447 34.5612 14.5357 34.8078 14.2039C35.0543 13.8722 35.4166 13.6408 35.8258 13.554C36.2349 13.4671 36.6624 13.5307 37.0268 13.7327L37.0585 13.7519Z" fill="black"/>
<path d="M45.3874 12.0523L46.048 10.9575L47.3157 12.2985C47.1326 12.6879 46.8021 12.9922 46.3942 13.1471C46.3026 13.1777 46.2049 13.1871 46.109 13.1747C46.013 13.1623 45.9212 13.1283 45.8408 13.0753L45.597 12.9224C45.4548 12.8315 45.3536 12.6905 45.3146 12.5285C45.2755 12.3665 45.3016 12.1959 45.3874 12.0523Z" fill="#FFB573"/>
<path d="M47.8436 10.3048L48.1239 10.4745C48.2119 10.5279 48.2858 10.6007 48.3399 10.6871C48.394 10.7735 48.4268 10.8711 48.4355 10.9721C48.4443 11.0732 48.4289 11.1748 48.3904 11.269C48.352 11.3631 48.2916 11.4471 48.2141 11.5143L47.3146 12.2983L46.0469 10.9573L47.1512 10.3024C47.2556 10.2399 47.3755 10.2071 47.4977 10.2075C47.62 10.2079 47.7397 10.2416 47.8436 10.3048Z" fill="#FFB573"/>
<path d="M21.5508 76.4063L23.4816 76.4613L24.208 72.0774L22.2797 72.0225L21.5508 76.4063Z" fill="#FFB573"/>
<path d="M23.7828 75.9285L21.6253 75.6608C21.5891 75.6553 21.5521 75.664 21.5225 75.685C21.4928 75.7061 21.4728 75.7377 21.4668 75.7731L21.1475 77.432C21.1357 77.5198 21.1598 77.6086 21.2147 77.6789C21.2695 77.7492 21.3505 77.7954 21.44 77.8073C22.1933 77.8886 22.5565 77.8886 23.5049 78.0057C24.0875 78.0798 25.6063 78.4383 26.4132 78.3403C27.2202 78.2423 27.0983 77.4655 26.7472 77.4368C25.1748 77.3029 24.5848 76.5691 24.0973 76.0839C24.0127 75.9996 23.9022 75.945 23.7828 75.9285Z" fill="#263238"/>
<path opacity="0.2" d="M22.2739 72.0249L24.2046 72.0799L23.8292 74.3387L21.8984 74.2837L22.2739 72.0249Z" fill="black"/>
<path d="M32.8275 30.0055C32.8275 30.0055 31.1429 45.6836 30.0215 51.0092C28.8026 56.8416 24.8606 73.9037 24.8606 73.9037L21.3281 73.6479C21.3281 73.6479 23.2638 55.9978 24.8484 50.2849C24.8484 44.3522 26.3111 27.7251 26.3111 27.7251L32.8275 30.0055Z" fill="#263238"/>
<path opacity="0.3" d="M27.2006 35.3049C27.1689 34.0787 26.4912 33.6843 25.8232 33.6986C25.5794 36.6483 25.3186 40.2648 25.1211 43.5276C26.3059 41.644 27.2883 38.7111 27.2006 35.3049Z" fill="black"/>
<path d="M21.2249 73.6719L25.0085 73.9467L25.4424 72.5484L21.0859 72.5054L21.2249 73.6719Z" fill="white"/>
<path d="M1.96875 61.7126L3.18524 63.1874L6.82496 60.6131L5.60603 59.1406L1.96875 61.7126Z" fill="#FFB573"/>
<path d="M3.44827 63.1903L2.36586 61.3425C2.34875 61.3111 2.31978 61.2876 2.28515 61.2768C2.25052 61.2661 2.21299 61.2691 2.18059 61.2852L0.637424 62.0357C0.559121 62.0794 0.501599 62.1516 0.477395 62.2367C0.453192 62.3218 0.464271 62.4128 0.508218 62.4899C0.895837 63.1281 1.11524 63.4126 1.59063 64.2253C1.88317 64.7248 2.65353 66.1614 3.05334 66.8546C3.45315 67.5478 4.14306 67.1343 4.02848 66.8068C3.54091 65.3344 3.40195 64.2085 3.50191 63.5369C3.5242 63.4187 3.50531 63.2966 3.44827 63.1903Z" fill="#263238"/>
<path opacity="0.2" d="M5.60371 59.1406L6.82264 60.6155L4.94549 61.9397L3.72656 60.4673L5.60371 59.1406Z" fill="black"/>
<path d="M29.3035 28.6575C29.3035 28.6575 24.5521 41.9907 22.3922 47.0008C20.0299 52.4866 5.90252 62.2296 5.90252 62.2296L3.67188 59.5309C3.67188 59.5309 13.2722 50.0963 16.8363 45.6216C18.811 39.5287 23.026 26.4561 23.026 26.4561L29.3035 28.6575Z" fill="#263238"/>
<path d="M3.57812 59.421L5.98916 62.3372L7.16665 61.6703L4.34361 58.582L3.57812 59.421Z" fill="white"/>
<path d="M32.81 30.0963L23.0195 26.4559C23.2633 25.5786 24.5432 23.0018 25.6817 19.414C26.5427 16.7627 27.1691 14.0436 27.5539 11.2869C27.5639 11.2065 27.5905 11.129 27.6321 11.0591C27.6737 10.9891 27.7294 10.9283 27.7958 10.8802C27.8622 10.8321 27.9379 10.7977 28.0183 10.7793C28.0987 10.7609 28.1821 10.7587 28.2634 10.773C28.4462 10.804 28.6632 10.8447 28.9021 10.8901C29.5189 11.012 30.2892 11.1841 31.023 11.404C32.4315 11.8089 33.8153 12.2925 35.1674 12.8525C35.6202 13.0524 36.0606 13.2783 36.4862 13.529C36.7396 13.6704 36.9745 13.8414 37.1859 14.0381C37.2624 14.0983 37.3257 14.1728 37.3722 14.2574C37.4187 14.342 37.4474 14.4349 37.4565 14.5305C37.4565 15.9026 36.0547 21.2187 32.81 30.0963Z" fill="#F0F0F0"/>
<path d="M34.972 12.7639C33.8701 12.0612 33.9238 11.258 34.2968 10.4836C34.3904 10.2921 34.4954 10.1061 34.6112 9.92662L33.5508 8.16973L32.7707 6.88135C32.6 8.29642 32.0783 10.8015 30.8594 11.356C31.5255 12.2783 32.477 12.9656 33.5727 13.3161C35.3719 13.8659 34.972 12.7639 34.972 12.7639Z" fill="#FFB573"/>
<path d="M33.5016 13.2878L33.4846 12.8384L32.2656 13.0726L33.5016 13.2878Z" fill="#E0E0E0"/>
<path d="M33.5 13.2876L33.7267 12.9219L34.5141 13.8613L33.5 13.2876Z" fill="#E0E0E0"/>
<path d="M31.0222 11.1412C31.7637 11.8101 32.5915 12.3807 33.4844 12.8383C32.9969 13.1323 32.5337 13.9068 32.3581 14.5474C31.9632 14.2773 30.3835 11.7292 30.1641 11.0288L31.0222 11.1412Z" fill="white"/>
<path d="M34.7407 12.4922C34.452 12.7285 34.0998 12.8779 33.7266 12.9224C33.9874 13.2977 34.2141 14.2706 34.2141 14.8347C34.67 14.5431 35.3746 13.5248 35.4867 13.0635L34.7407 12.4922Z" fill="white"/>
<path opacity="0.3" d="M34.7792 12.4585C34.7792 12.4585 35.8445 12.9605 36.7855 13.5294C37.1711 13.7624 37.469 14.112 37.6343 14.5254C37.7996 14.9389 37.8234 15.3938 37.7022 15.8217C36.5393 19.8518 34.9693 23.7647 34.3184 25.9423C33.6285 28.2633 32.668 31.1747 32.668 31.1747L31.0078 31.5595C31.0078 31.5595 35.1692 15.9531 34.7792 12.4585Z" fill="black"/>
<path opacity="0.3" d="M30.9992 10.9592C30.9992 10.9592 29.5682 10.7751 28.3176 10.7202C27.879 10.7008 27.4471 10.8302 27.0945 11.0867C26.7419 11.3431 26.4903 11.7109 26.3819 12.1281C25.7481 14.5853 25.28 19.2847 24.6389 21.1133C23.8417 23.3984 22.7617 27.854 22.7617 27.854L28.4322 31.0665C28.4322 31.0665 34.1611 13.8108 30.9992 10.9592Z" fill="black"/>
<path d="M30.9997 10.9592C30.9997 10.9592 29.5687 10.7751 28.3181 10.7202C27.8795 10.7008 27.4475 10.8302 27.095 11.0867C26.7424 11.3431 26.4907 11.7109 26.3824 12.1281C25.7486 14.5853 24.8856 19.1747 24.242 21.0057C23.4399 23.2908 21.7383 27.1751 21.7383 27.1751L28.891 30.4642C28.891 30.4642 34.1616 13.8108 30.9997 10.9592Z" fill="#407BFF"/>
<path opacity="0.2" d="M30.9997 10.9592C30.9997 10.9592 29.5687 10.7751 28.3181 10.7202C27.8795 10.7008 27.4475 10.8302 27.095 11.0867C26.7424 11.3431 26.4907 11.7109 26.3824 12.1281C25.7486 14.5853 24.8856 19.1747 24.242 21.0057C23.4399 23.2908 21.7383 27.1751 21.7383 27.1751L28.891 30.4642C28.891 30.4642 34.1616 13.8108 30.9997 10.9592Z" fill="black"/>
<path d="M34.7774 12.4585C34.7774 12.4585 35.8428 12.9605 36.7838 13.5294C37.1693 13.7624 37.4672 14.112 37.6325 14.5254C37.7979 14.9389 37.8217 15.3938 37.7004 15.8217C36.5375 19.8517 35.6185 24.0754 35.1553 26.2984C34.6677 28.6649 34.1582 30.8185 34.1582 30.8185L31.4766 31.1747C31.4766 31.1747 35.1675 15.9531 34.7774 12.4585Z" fill="#407BFF"/>
<path opacity="0.2" d="M34.7774 12.4585C34.7774 12.4585 35.8428 12.9605 36.7838 13.5294C37.1693 13.7624 37.4672 14.112 37.6325 14.5254C37.7979 14.9389 37.8217 15.3938 37.7004 15.8217C36.5375 19.8517 35.6185 24.0754 35.1553 26.2984C34.6677 28.6649 34.1582 30.8185 34.1582 30.8185L31.4766 31.1747C31.4766 31.1747 35.1675 15.9531 34.7774 12.4585Z" fill="black"/>
<path opacity="0.2" d="M34.6083 9.92681C34.4922 10.1086 34.3872 10.297 34.2938 10.4909C33.7721 10.1826 33.2358 9.33162 33.3626 8.74121C33.4024 8.5446 33.4645 8.35298 33.5478 8.16992L34.6083 9.92681Z" fill="black"/>
<path d="M36.1128 2.67969C37.4097 2.84462 37.8851 4.56087 37.1684 5.69388C35.9933 4.02305 36.1128 2.67969 36.1128 2.67969Z" fill="#263238"/>
<path d="M32.0736 5.84406C32.5124 7.68221 32.6709 8.77698 33.7948 9.60164C34.1569 9.87387 34.5881 10.0438 35.0417 10.0929C35.4953 10.1421 35.954 10.0686 36.368 9.88054C36.7821 9.69244 37.1358 9.39686 37.3908 9.0258C37.6458 8.65474 37.7924 8.22234 37.8148 7.77544C37.9367 6.0568 37.2004 3.33901 35.2136 2.84661C34.7862 2.72839 34.3346 2.72255 33.9041 2.82966C33.4737 2.93677 33.0795 3.15307 32.7613 3.45682C32.4432 3.76058 32.2121 4.14109 32.0914 4.56012C31.9707 4.97916 31.9645 5.42197 32.0736 5.84406Z" fill="#FFB573"/>
<path d="M32.6542 7.48165C33.7829 7.51272 33.6074 5.67935 33.1149 4.98615C34.6801 5.22518 37.2739 3.86987 37.5348 2.45002C37.9127 0.391958 34.7117 0.391958 33.6757 1.04691C34.1218 1.07798 34.3485 1.44848 34.2412 1.63971C34.2412 1.63971 32.6956 1.18076 31.6961 1.7138C32.1325 1.87157 32.5957 2.48827 30.9355 2.68427C29.3558 2.87072 29.8336 4.42921 30.6308 4.40052C30.2066 5.03874 29.6971 6.48966 30.6527 7.10637C31.6084 7.72307 32.2617 8.52622 32.0545 8.85608C32.3885 8.84413 33.0979 8.44973 32.6542 7.48165Z" fill="#263238"/>
<path d="M30.8596 4.25684C30.1038 4.32855 29.6699 4.907 29.6406 5.69102C29.9643 5.15091 30.3761 4.66643 30.8596 4.25684Z" fill="#263238"/>
<path d="M31.6222 7.50523C31.8148 7.8825 32.1457 8.17448 32.5486 8.32272C33.0776 8.51155 33.3555 8.05261 33.219 7.54108C33.0947 7.07736 32.6705 6.4248 32.1341 6.45827C31.5978 6.49173 31.3882 7.03673 31.6222 7.50523Z" fill="#FFB573"/>
<path d="M35.0456 5.98517C35.0699 6.13576 35.1748 6.24572 35.2747 6.22421C35.3747 6.20269 35.4356 6.07839 35.4112 5.9278C35.3869 5.77721 35.282 5.66486 35.1796 5.68876C35.0773 5.71267 35.0187 5.83458 35.0456 5.98517Z" fill="#263238"/>
<path d="M36.7956 5.75563C36.8199 5.90621 36.9223 6.01617 37.0247 5.99465C37.1271 5.97314 37.1856 5.84885 37.1612 5.69587C37.1369 5.54289 37.032 5.43533 36.9296 5.45684C36.8272 5.47835 36.7687 5.60265 36.7956 5.75563Z" fill="#263238"/>
<path d="M36.25 5.9043C36.5151 6.3424 36.8381 6.74425 37.2105 7.09945C36.9814 7.3839 36.4962 7.33848 36.4962 7.33848L36.25 5.9043Z" fill="#ED893E"/>
<path d="M35.9408 7.81845C35.7605 7.8232 35.5811 7.79195 35.4134 7.72662C35.2458 7.66129 35.0935 7.56323 34.9657 7.4384C34.9576 7.42998 34.9531 7.41887 34.9531 7.40732C34.9531 7.39578 34.9576 7.38467 34.9657 7.37625C34.97 7.37199 34.9751 7.3686 34.9807 7.36629C34.9864 7.36398 34.9925 7.36279 34.9986 7.36279C35.0047 7.36279 35.0108 7.36398 35.0164 7.36629C35.0221 7.3686 35.0272 7.37199 35.0315 7.37625C35.1727 7.51042 35.3437 7.61068 35.5311 7.66916C35.7185 7.72763 35.9171 7.74274 36.1115 7.71328C36.1179 7.71117 36.1248 7.71049 36.1315 7.71127C36.1383 7.71206 36.1448 7.7143 36.1506 7.71783C36.1564 7.72137 36.1613 7.72611 36.165 7.73172C36.1687 7.73733 36.1711 7.74367 36.172 7.75029C36.1729 7.75691 36.1723 7.76364 36.1703 7.77001C36.1682 7.77639 36.1648 7.78224 36.1601 7.78715C36.1555 7.79206 36.1499 7.79591 36.1436 7.79843C36.1372 7.80095 36.1304 7.80208 36.1236 7.80172C36.0632 7.81198 36.0021 7.81757 35.9408 7.81845Z" fill="#263238"/>
<path d="M35.4495 8.31566C35.3037 8.21031 35.1814 8.0769 35.09 7.92359C34.9986 7.77028 34.9401 7.6003 34.918 7.42406C34.9174 7.41239 34.9213 7.40091 34.929 7.39201C34.9367 7.3831 34.9476 7.37746 34.9595 7.37625C34.9655 7.37559 34.9715 7.37613 34.9772 7.37785C34.983 7.37956 34.9883 7.38241 34.9928 7.38622C34.9974 7.39003 35.0011 7.39471 35.0038 7.39999C35.0064 7.40526 35.008 7.41101 35.0082 7.41688C35.0367 7.60767 35.109 7.78963 35.2197 7.94905C35.3303 8.10846 35.4764 8.24117 35.647 8.33717C35.6522 8.33991 35.6568 8.34366 35.6605 8.34818C35.6642 8.3527 35.6669 8.35791 35.6685 8.36349C35.6701 8.36907 35.6705 8.37491 35.6697 8.38066C35.669 8.3864 35.667 8.39194 35.664 8.39693C35.661 8.40212 35.6569 8.40667 35.6521 8.41032C35.6473 8.41397 35.6418 8.41665 35.6359 8.41821C35.63 8.41976 35.6239 8.42016 35.6178 8.41938C35.6118 8.4186 35.6059 8.41666 35.6007 8.41366C35.5486 8.3835 35.4982 8.35079 35.4495 8.31566Z" fill="#263238"/>
<path d="M34.4144 5.50458C34.4 5.50812 34.3849 5.50812 34.3705 5.50458C34.3596 5.49928 34.3499 5.49187 34.342 5.4828C34.3341 5.47373 34.3281 5.46318 34.3244 5.45179C34.3208 5.4404 34.3195 5.4284 34.3208 5.41652C34.322 5.40464 34.3256 5.39313 34.3315 5.38267C34.3958 5.25458 34.4912 5.14397 34.6094 5.0606C34.7276 4.97723 34.8649 4.92365 35.0092 4.9046C35.0213 4.90362 35.0334 4.90503 35.0449 4.90874C35.0563 4.91244 35.0669 4.91838 35.076 4.92618C35.0851 4.93398 35.0925 4.9435 35.0978 4.95417C35.1031 4.96483 35.1061 4.97642 35.1067 4.98826C35.1077 5.00007 35.1063 5.01196 35.1025 5.02321C35.0987 5.03447 35.0927 5.04487 35.0847 5.05378C35.0768 5.0627 35.0671 5.06996 35.0562 5.07513C35.0453 5.0803 35.0335 5.08327 35.0214 5.08387C34.9094 5.09963 34.8029 5.1415 34.7109 5.20597C34.6188 5.27044 34.5439 5.35563 34.4924 5.45438C34.4858 5.46927 34.4749 5.48195 34.461 5.49086C34.4472 5.49977 34.431 5.50454 34.4144 5.50458Z" fill="#263238"/>
<path d="M37.4454 5.06976C37.4305 5.07018 37.4157 5.0669 37.4025 5.06021C37.3893 5.05352 37.378 5.04364 37.3698 5.03151C37.305 4.93545 37.2185 4.85531 37.117 4.79728C37.0156 4.73925 36.9019 4.70489 36.7847 4.69686C36.763 4.69337 36.7433 4.68245 36.7291 4.66603C36.7148 4.64961 36.707 4.62876 36.707 4.60722C36.707 4.58567 36.7148 4.56483 36.7291 4.54841C36.7433 4.53199 36.763 4.52106 36.7847 4.51758C36.9308 4.52563 37.073 4.56698 37.2 4.63835C37.3269 4.70972 37.4351 4.80915 37.516 4.92872C37.523 4.93826 37.528 4.94907 37.5307 4.96052C37.5334 4.97196 37.5337 4.98381 37.5317 4.99538C37.5296 5.00695 37.5252 5.01801 37.5188 5.02791C37.5123 5.0378 37.504 5.04634 37.4941 5.05302C37.4802 5.06371 37.463 5.06959 37.4454 5.06976Z" fill="#263238"/>
<path d="M28.8434 13.8138C28.3558 14.2034 27.8414 14.636 27.3514 15.0591C26.8614 15.4822 26.3616 15.9172 25.8887 16.3618C24.9477 17.2158 24.0665 18.131 23.2509 19.1011L22.973 19.4549L22.9389 19.5003C22.9462 19.4897 22.9527 19.4785 22.9584 19.4669C22.9731 19.4401 22.9853 19.4121 22.995 19.3832C23.0135 19.335 23.0234 19.2841 23.0242 19.2326C23.0242 19.1513 23.0096 19.1513 23.0242 19.1896C23.0349 19.2631 23.0562 19.3347 23.0876 19.4023C23.1859 19.628 23.3084 19.8428 23.4533 20.0429C23.6212 20.2846 23.8018 20.5176 23.9945 20.7409C24.387 21.219 24.8258 21.6755 25.2865 22.1273C25.7473 22.579 26.2349 23.0356 26.7005 23.4539L26.7322 23.4802C26.9376 23.6612 27.0656 23.9115 27.0907 24.1812C27.1157 24.4508 27.0359 24.7197 26.8672 24.9341C26.6986 25.1485 26.4535 25.2924 26.1812 25.3371C25.9088 25.3817 25.6293 25.3238 25.3987 25.1749C24.1758 24.4149 23.0326 23.5382 21.9857 22.5575C21.72 22.297 21.4591 22.0245 21.2031 21.7233C20.9263 21.3968 20.6814 21.0455 20.4718 20.674C20.3447 20.4455 20.241 20.2053 20.1622 19.9569C20.0562 19.6224 20.0181 19.2707 20.05 18.9219C20.07 18.7033 20.1209 18.4885 20.2012 18.2836C20.2433 18.1776 20.293 18.0745 20.3499 17.9753L20.4377 17.8343L20.4767 17.7769L20.7936 17.3156C21.6383 16.1592 22.5785 15.0728 23.6044 14.0671C24.092 13.5699 24.6039 13.0847 25.1232 12.6162C25.6425 12.1477 26.1569 11.6959 26.7298 11.237C27.0818 11.0325 27.4971 10.9589 27.8999 11.0296C28.3027 11.1002 28.6662 11.3104 28.9241 11.6218C29.182 11.9333 29.3173 12.3252 29.3052 12.7263C29.293 13.1273 29.1343 13.5107 28.858 13.8066L28.8434 13.8138Z" fill="#407BFF"/>
<path opacity="0.2" d="M28.8434 13.8138C28.3558 14.2034 27.8414 14.636 27.3514 15.0591C26.8614 15.4822 26.3616 15.9172 25.8887 16.3618C24.9477 17.2158 24.0665 18.131 23.2509 19.1011L22.973 19.4549L22.9389 19.5003C22.9462 19.4897 22.9527 19.4785 22.9584 19.4669C22.9731 19.4401 22.9853 19.4121 22.995 19.3832C23.0135 19.335 23.0234 19.2841 23.0242 19.2326C23.0242 19.1513 23.0096 19.1513 23.0242 19.1896C23.0349 19.2631 23.0562 19.3347 23.0876 19.4023C23.1859 19.628 23.3084 19.8428 23.4533 20.0429C23.6212 20.2846 23.8018 20.5176 23.9945 20.7409C24.387 21.219 24.8258 21.6755 25.2865 22.1273C25.7473 22.579 26.2349 23.0356 26.7005 23.4539L26.7322 23.4802C26.9376 23.6612 27.0656 23.9115 27.0907 24.1812C27.1157 24.4508 27.0359 24.7197 26.8672 24.9341C26.6986 25.1485 26.4535 25.2924 26.1812 25.3371C25.9088 25.3817 25.6293 25.3238 25.3987 25.1749C24.1758 24.4149 23.0326 23.5382 21.9857 22.5575C21.72 22.297 21.4591 22.0245 21.2031 21.7233C20.9263 21.3968 20.6814 21.0455 20.4718 20.674C20.3447 20.4455 20.241 20.2053 20.1622 19.9569C20.0562 19.6224 20.0181 19.2707 20.05 18.9219C20.07 18.7033 20.1209 18.4885 20.2012 18.2836C20.2433 18.1776 20.293 18.0745 20.3499 17.9753L20.4377 17.8343L20.4767 17.7769L20.7936 17.3156C21.6383 16.1592 22.5785 15.0728 23.6044 14.0671C24.092 13.5699 24.6039 13.0847 25.1232 12.6162C25.6425 12.1477 26.1569 11.6959 26.7298 11.237C27.0818 11.0325 27.4971 10.9589 27.8999 11.0296C28.3027 11.1002 28.6662 11.3104 28.9241 11.6218C29.182 11.9333 29.3173 12.3252 29.3052 12.7263C29.293 13.1273 29.1343 13.5107 28.858 13.8066L28.8434 13.8138Z" fill="black"/>
<path d="M27.0658 23.8486L28.7235 24.843L26.605 26.0262C26.605 26.0262 25.196 24.9936 25.7981 24.3267L26.5051 23.8486C26.5885 23.7954 26.6859 23.7671 26.7854 23.7671C26.885 23.7671 26.9824 23.7954 27.0658 23.8486Z" fill="#FFB573"/>
<path d="M28.8142 26.659L27.9024 27.1848C27.8393 27.2217 27.7693 27.2459 27.6965 27.2557C27.6238 27.2656 27.5497 27.261 27.4788 27.2423C27.4078 27.2236 27.3414 27.1911 27.2835 27.1467C27.2257 27.1023 27.1775 27.047 27.1418 26.9841L26.6055 26.0279L28.724 24.8447L29.0653 26.0399C29.0991 26.1558 29.0929 26.2794 29.0474 26.3914C29.002 26.5035 28.92 26.5975 28.8142 26.659Z" fill="#FFB573"/>
</svg>
