<svg width="63" height="74" viewBox="0 0 63 74" fill="none" xmlns="http://www.w3.org/2000/svg">
<path d="M35.7915 46.6541L27.698 38.425L27.6152 48.4289L30.0546 54.8456L5.8041 58.6581L4.77641 41.3091L3.02972 27.9978C2.92593 27.2042 3.11488 26.4018 3.56707 25.7158C4.01926 25.0298 4.70924 24.4989 5.52929 24.2058L12.2036 21.8167L21.6147 23.3799L25.398 24.6837C26.9842 25.2314 28.3982 26.1232 29.5162 27.2811L40.8999 39.0837" fill="#407BFF"/>
<path d="M27.1484 36.4452C27.6054 36.4396 28.0617 36.41 28.5149 36.3565C29.6068 36.2054 30.624 35.7622 31.4362 35.0835C32.2484 34.4049 32.8186 33.5218 33.0737 32.5474C33.1674 32.1405 33.2365 31.7291 33.2807 31.3153C33.3112 31.4268 33.3227 31.5419 33.3146 31.6566C33.3174 31.9664 33.282 32.2755 33.2092 32.5782C32.9813 33.5916 32.4075 34.5144 31.569 35.2158C30.7306 35.9172 29.67 36.3616 28.5375 36.4862C28.1992 36.5258 27.8572 36.5327 27.5174 36.5067C27.3915 36.5043 27.267 36.4836 27.1484 36.4452Z" fill="white"/>
<path d="M27.8521 48.0014C27.9085 48.0014 27.9236 44.5337 27.886 40.2604C27.8483 35.9872 27.7693 32.5228 27.7128 32.5228C27.6563 32.5228 27.6413 35.9872 27.6789 40.2638C27.7166 44.5405 27.7956 48.0014 27.8521 48.0014Z" fill="#263238"/>
<path d="M26.958 50.544L12.3068 45.1956C11.7276 44.9842 11.2251 44.6303 10.856 44.1738C10.4868 43.7172 10.2657 43.1763 10.2176 42.6119L9.1447 29.874C9.1447 29.874 9.27268 24.454 5.53837 24.1912L3.42653 24.9489C0.682255 26.2698 0.00465462 29.8945 0.377333 32.6899C0.908118 36.6628 1.13022 42.2876 1.72124 45.7349C2.21061 48.5576 3.9799 51.0389 7.03661 51.7659L25.0833 55.3087L26.958 50.544Z" fill="#407BFF"/>
<path d="M9.34994 31.8171C9.37445 31.9124 9.38956 32.0095 9.39511 32.1073C9.4177 32.3155 9.45158 32.5953 9.48923 32.9469C9.56451 33.6944 9.66992 34.7456 9.79791 36.0358C9.9259 37.3259 10.069 38.8994 10.2346 40.6196C10.2722 41.0531 10.3136 41.4934 10.3551 41.9439C10.3841 42.4023 10.447 42.8584 10.5433 43.3092C10.6455 43.765 10.9005 44.1811 11.2736 44.5004C11.675 44.8204 12.1315 45.0787 12.625 45.2649C16.6642 46.8486 20.3873 48.1592 23.0901 49.0774L26.3012 50.1491L27.1745 50.4392C27.2767 50.4698 27.3761 50.5075 27.4719 50.5518C27.3654 50.5342 27.2608 50.508 27.1595 50.4734L26.2748 50.214C25.5219 49.9819 24.3926 49.6371 23.0449 49.19C20.3233 48.3026 16.5965 47.0124 12.5422 45.4356C12.0294 45.2402 11.5552 44.9704 11.138 44.6369C10.7377 44.2923 10.4643 43.8441 10.3551 43.3535C10.2579 42.8961 10.1962 42.4331 10.1706 41.9678C10.1292 41.5139 10.0915 41.0736 10.0539 40.6401C9.90708 38.9335 9.77156 37.3635 9.67745 36.0528C9.58334 34.7422 9.48922 33.708 9.42899 32.9605C9.40264 32.6192 9.38382 32.3257 9.37253 32.1175C9.35543 32.0182 9.34787 31.9177 9.34994 31.8171Z" fill="#263238"/>
<path d="M0.965528 38.7417C0.98064 38.7976 0.98946 38.8548 0.99187 38.9124L1.04081 39.4038C1.08598 39.8578 1.14245 40.4687 1.21397 41.2128C1.28549 41.9569 1.39843 42.8818 1.54524 43.8853C1.6893 44.972 1.90934 46.0493 2.20402 47.1107C2.3426 47.6574 2.5846 48.1782 2.91927 48.65C3.24622 49.0832 3.61265 49.4908 4.0147 49.8685C4.69984 50.5076 5.49119 51.0455 6.35995 51.4625C7.16985 51.8357 8.03832 52.0935 8.93481 52.227C8.87108 52.2344 8.80656 52.2344 8.74283 52.227C8.56078 52.216 8.37972 52.1944 8.20076 52.1622C7.53857 52.0503 6.89723 51.8538 6.29595 51.5785C5.40269 51.1708 4.5889 50.6336 3.88672 49.988C3.4705 49.6062 3.09256 49.1916 2.75739 48.749C2.40587 48.264 2.15104 47.7268 2.0045 47.1619C1.70571 46.0924 1.48813 45.0056 1.35326 43.9092C1.21774 42.8852 1.12739 41.991 1.06716 41.2265C1.00693 40.4619 0.973057 39.8407 0.954235 39.4107C0.954235 39.2127 0.954235 39.0489 0.954235 38.9158C0.947757 38.8576 0.951569 38.7988 0.965528 38.7417Z" fill="#263238"/>
<path d="M7.22852 47.6538C7.26699 47.405 7.35772 47.1651 7.49579 46.9473C7.79769 46.4033 8.2162 45.9194 8.72683 45.5238C9.23746 45.1282 9.82997 44.8289 10.4697 44.6434C10.729 44.5536 11.0053 44.5107 11.2828 44.5171C11.0365 44.6102 10.7852 44.6922 10.5299 44.7629C9.92472 44.9751 9.36346 45.2786 8.86981 45.6605C8.37737 46.0432 7.95879 46.4977 7.63131 47.0053C7.3678 47.3978 7.25863 47.664 7.22852 47.6538Z" fill="#263238"/>
<path d="M10.0996 37.967C10.1316 37.9755 10.162 37.9881 10.19 38.0045L10.4535 38.1308C10.7933 38.2826 11.1427 38.4159 11.5 38.5301C12.8173 38.9492 14.23 39.0596 15.607 38.851C17.6522 38.5202 19.4794 37.4903 20.7115 35.9737C21.448 35.0977 21.9097 34.0576 22.0479 32.9633C22.1163 32.3883 22.0496 31.8067 21.8522 31.2567C21.6439 30.6953 21.2811 30.1913 20.7981 29.7925C20.3221 29.3884 19.7224 29.1243 19.0778 29.0348C18.7724 28.9852 18.4585 28.9991 18.1599 29.0753C17.8613 29.1516 17.5856 29.2883 17.3537 29.4751C17.1436 29.6616 17.022 29.9151 17.0149 30.1816C17.0213 30.4466 17.1217 30.7027 17.301 30.912C17.4879 31.1143 17.7172 31.2809 17.9757 31.4022C18.2342 31.5235 18.5167 31.597 18.8067 31.6185C19.8261 31.7337 20.8611 31.615 21.8168 31.2733C22.7724 30.9316 23.6182 30.3779 24.2764 29.6628C24.7754 29.1064 25.1512 28.4678 25.3832 27.7822C25.5562 27.2626 25.65 26.724 25.6618 26.1814C25.6659 25.8386 25.6382 25.4961 25.5789 25.1574C25.5563 25.0516 25.5375 24.9629 25.5262 24.8946C25.523 24.864 25.523 24.8331 25.5262 24.8025C25.6818 25.2436 25.7581 25.7046 25.7521 26.1677C25.7559 26.7184 25.6723 27.2668 25.5037 27.7958C25.0845 29.071 24.1798 30.1698 22.9507 30.8968C21.7215 31.6237 20.2477 31.9315 18.7917 31.7653C18.4808 31.7404 18.1784 31.6601 17.9019 31.5288C17.6254 31.3976 17.3802 31.2182 17.1805 31.0007C16.976 30.7622 16.8624 30.47 16.8568 30.1679C16.8571 29.8573 16.9923 29.5594 17.2332 29.3385C17.4861 29.1338 17.7867 28.9833 18.1125 28.8982C18.4383 28.8131 18.7811 28.7956 19.1154 28.8471C19.8001 28.939 20.4372 29.219 20.9412 29.6491C21.4508 30.0667 21.8322 30.5971 22.0479 31.1885C22.2529 31.7605 22.3222 32.3653 22.2512 32.9633C22.1043 34.0814 21.627 35.1427 20.8696 36.0351C19.8246 37.328 18.3413 38.275 16.6465 38.7311C14.9516 39.1873 13.1387 39.1274 11.4849 38.5609C10.9963 38.419 10.5305 38.2193 10.0996 37.967Z" fill="white"/>
<path d="M0.513672 34.57C0.57723 34.4678 0.658592 34.3756 0.754601 34.2969C0.995197 34.066 1.25994 33.8568 1.54512 33.6723C2.50613 33.0736 3.62392 32.7146 4.7863 32.6313C5.42403 32.5663 6.06899 32.5904 6.69862 32.703C7.21035 32.7994 7.70544 32.9578 8.17052 33.174C8.4827 33.3166 8.78224 33.481 9.06645 33.6655C9.17642 33.7266 9.27544 33.8025 9.36008 33.8908C9.33749 33.9181 8.90081 33.6177 8.11028 33.2866C7.07981 32.8534 5.93692 32.688 4.80889 32.8088C3.67619 32.8899 2.58269 33.2215 1.62418 33.7747C0.897648 34.215 0.540023 34.5939 0.513672 34.57Z" fill="white"/>
<path d="M2.85938 25.4602C3.21654 25.7652 3.61499 26.0279 4.04517 26.2418C4.51492 26.4602 5.02567 26.5968 5.55094 26.6446C6.19039 26.7028 6.8359 26.6208 7.43316 26.4057C8.01869 26.1793 8.53526 25.828 8.93893 25.3817C9.27217 25.0094 9.52735 24.5849 9.69181 24.1291C9.82714 23.7012 9.90425 23.2599 9.92144 22.8151C9.95807 22.9327 9.97457 23.0547 9.97038 23.1769C9.97669 23.5116 9.9272 23.8453 9.82357 24.1667C9.67011 24.6463 9.41431 25.0939 9.07068 25.4841C8.65802 25.9736 8.10972 26.3553 7.48155 26.5903C6.85339 26.8253 6.16779 26.9053 5.49448 26.8221C4.94861 26.766 4.4203 26.6129 3.93976 26.3715C3.61624 26.2105 3.32172 26.0056 3.06641 25.764C2.97739 25.6751 2.9072 25.5722 2.85938 25.4602Z" fill="white"/>
<path d="M15.625 46.4086C15.6257 46.3238 15.6358 46.2391 15.6551 46.1561C15.7077 45.919 15.7951 45.6895 15.9149 45.4734C16.3935 44.6785 17.1709 44.0656 18.1058 43.7464C19.4817 43.2504 21.0045 43.2009 22.416 43.6065C23.1915 43.8147 24.0799 44.074 24.6747 44.7601C24.8243 44.9353 24.9187 45.144 24.9479 45.364C24.977 45.5839 24.9399 45.807 24.8403 46.0093C24.6132 46.4041 24.2458 46.718 23.7976 46.9001C23.3649 47.0943 22.8911 47.2014 22.4085 47.2141C21.9294 47.2352 21.4575 47.1022 21.0759 46.8387C20.8997 46.7024 20.7561 46.5349 20.6539 46.3465C20.5516 46.1581 20.4928 45.9528 20.4811 45.7431C20.4565 45.3512 20.5245 44.959 20.6806 44.5929C21.2479 43.3486 22.3284 42.3542 23.6922 41.8214C24.597 41.4558 25.5882 41.301 26.5757 41.3708C26.9353 41.3956 27.2897 41.4633 27.6298 41.5722C27.6298 41.5961 27.2533 41.4835 26.5682 41.4391C25.7501 41.3989 24.9315 41.5104 24.1625 41.7668C23.3936 42.0233 22.6904 42.4193 22.0961 42.9306C21.5442 43.4099 21.1139 43.9922 20.835 44.6372C20.6889 44.9818 20.6261 45.3507 20.6505 45.7192C20.6614 45.9059 20.7145 46.0885 20.8064 46.2559C20.8984 46.4232 21.0273 46.5716 21.1851 46.6919C21.5292 46.9317 21.9562 47.0526 22.3897 47.0332C22.8422 47.0225 23.2868 46.9224 23.6922 46.7397C24.1014 46.5742 24.438 46.2895 24.6483 45.9308C24.7331 45.7565 24.7646 45.5646 24.7394 45.3755C24.7142 45.1863 24.6334 45.0067 24.5053 44.8557C24.2427 44.5551 23.9062 44.3143 23.5228 44.1526C23.151 43.9913 22.7643 43.86 22.3671 43.76C20.9928 43.3568 19.5078 43.3917 18.1585 43.859C17.244 44.1591 16.4742 44.7399 15.9826 45.5007C15.8197 45.7877 15.6994 46.093 15.625 46.4086Z" fill="white"/>
<path d="M5.85742 51.2039C5.85742 51.1698 6.41455 51.1289 7.26155 50.8626C8.3673 50.5095 9.35794 49.911 10.1431 49.1216C10.9282 48.3323 11.4828 47.3772 11.7563 46.3436C11.9709 45.5518 11.9633 45.0364 12.001 45.0398C12.0273 45.1577 12.0337 45.2786 12.0198 45.3982C12.0111 45.7254 11.9683 46.0511 11.8918 46.3709C11.6478 47.4378 11.0943 48.4264 10.2883 49.2346C9.48227 50.0427 8.45301 50.6413 7.30672 50.9684C6.96353 51.0697 6.61065 51.1417 6.25268 51.1835C6.12271 51.2076 5.98958 51.2145 5.85742 51.2039Z" fill="white"/>
<path d="M1.11719 41.3008C1.17289 41.2725 1.23234 41.2507 1.29412 41.236C1.41458 41.2019 1.58775 41.1541 1.81738 41.0995C2.46902 40.944 3.14346 40.8818 3.81629 40.9152C4.28354 40.9472 4.7416 41.0498 5.17148 41.2189C5.67216 41.4147 6.10805 41.7252 6.43633 42.12C6.79673 42.5678 6.97135 43.1165 6.92947 43.6696C6.90529 43.9638 6.80607 44.2489 6.63961 44.5024C6.47111 44.7696 6.20474 44.9749 5.88672 45.0826C5.71904 45.1344 5.53926 45.1453 5.36546 45.1142C5.19167 45.083 5.02998 45.0109 4.89668 44.9051C4.67074 44.6793 4.54823 44.3839 4.55411 44.0791C4.5347 43.5353 4.65319 42.9946 4.90045 42.4988C5.244 41.7923 5.83805 41.2101 6.58827 40.8446C7.33849 40.4791 8.20188 40.3514 9.04132 40.4817C9.22181 40.5071 9.39944 40.5471 9.5721 40.6011C9.6888 40.6421 9.74903 40.666 9.74526 40.6728C9.7415 40.6796 9.49305 40.6011 9.03002 40.5499C8.37566 40.4781 7.71188 40.5556 7.09887 40.7752C6.19074 41.1056 5.4639 41.7486 5.07737 42.5637C4.84747 43.0373 4.73811 43.5517 4.7574 44.0689C4.74942 44.33 4.85176 44.5839 5.0435 44.7788C5.15145 44.8621 5.28145 44.9185 5.42071 44.9424C5.55997 44.9664 5.7037 44.957 5.83778 44.9153C6.11664 44.8218 6.35089 44.6432 6.50033 44.4102C6.65013 44.1801 6.74023 43.9222 6.76383 43.6559C6.80332 43.1432 6.64496 42.634 6.31587 42.2156C6.01025 41.8399 5.6014 41.5433 5.13007 41.3554C4.71817 41.1859 4.27798 41.0797 3.82758 41.0414C3.16928 40.9969 2.50734 41.0394 1.86255 41.1677C1.37694 41.253 1.12472 41.3145 1.11719 41.3008Z" fill="white"/>
<g opacity="0.3">
<path opacity="0.3" d="M22.7655 49.0247C21.1995 48.2226 19.6674 47.6048 18.0299 46.9324C16.3923 46.2601 14.7849 45.3897 13.7121 44.0791C11.6906 41.6079 11.9202 38.0412 9.85352 35.6042C9.98904 37.2426 10.1233 38.882 10.2563 40.5226C10.3805 42.0244 10.1283 43.5125 11.1937 44.533C12.0933 45.3931 13.8476 46.0518 15.0898 46.4239C17.5857 47.1714 20.2735 48.2806 22.7655 49.0247Z" fill="black"/>
</g>
<path d="M48.2173 67.7466C48.2173 67.7466 60.478 70.8184 60.9712 70.9822C61.7241 71.2177 61.5848 73.6718 60.4366 73.6308C59.8908 73.6138 51.0256 73.9312 49.8962 73.8698C48.7669 73.8083 45.3789 72.5967 45.3789 72.5967L48.2173 67.7466Z" fill="#407BFF"/>
<path d="M53.3231 71.9893C53.4746 71.5807 53.6556 71.1816 53.8651 70.7947C54.129 70.4368 54.4183 70.0947 54.731 69.7708C54.2947 69.9873 53.9326 70.3085 53.6843 70.6992C53.436 71.0899 53.311 71.5351 53.3231 71.9859V71.9893Z" fill="#263238"/>
<path d="M52.0391 71.4633C52.0993 71.4633 52.2235 70.9479 52.551 70.3677C52.8785 69.7875 53.2625 69.3813 53.2211 69.3438C52.8633 69.5964 52.5716 69.9178 52.3672 70.2849C52.1629 70.652 52.0508 71.0556 52.0391 71.4667V71.4633Z" fill="#263238"/>
<path d="M50.8639 71.1724C50.9241 70.7747 51.0197 70.382 51.15 69.9983C51.3422 69.6362 51.565 69.2882 51.8163 68.9573C51.4276 69.1946 51.1281 69.5339 50.9579 69.9297C50.7877 70.3256 50.7549 70.7592 50.8639 71.1724Z" fill="#263238"/>
<path d="M51.051 69.7368C51.1591 69.4731 51.204 69.1915 51.1828 68.9108C51.1789 68.6049 51.1372 68.3004 51.0586 68.0029C51.0114 67.8272 50.9497 67.6549 50.8741 67.4876C50.8386 67.3816 50.7707 67.287 50.6784 67.2145C50.6164 67.1729 50.5404 67.1522 50.4635 67.1559C50.3865 67.1597 50.3134 67.1876 50.2567 67.235C50.1616 67.3178 50.1039 67.4297 50.0949 67.549C50.0856 67.6466 50.0856 67.7448 50.0949 67.8425C50.096 68.0255 50.1213 68.2077 50.1702 68.3852C50.2516 68.6829 50.3783 68.969 50.5466 69.2351C50.6814 69.4916 50.8678 69.7231 51.0962 69.9177C51.1263 69.9177 50.9193 69.6412 50.6746 69.1873C50.5316 68.9247 50.4241 68.6473 50.3546 68.3613C50.315 68.1942 50.2948 68.0237 50.2944 67.8527C50.2944 67.6821 50.2944 67.4705 50.4073 67.3886C50.4295 67.3703 50.4583 67.3602 50.4883 67.3602C50.5182 67.3602 50.547 67.3703 50.5692 67.3886C50.6304 67.443 50.6768 67.5096 50.7047 67.5831C50.7768 67.7435 50.8384 67.9076 50.8892 68.0746C50.9754 68.3579 51.0296 68.6483 51.051 68.9415C51.0736 69.4194 51.0171 69.7334 51.051 69.7368Z" fill="#263238"/>
<path d="M51.0346 69.6238C50.7848 69.5293 50.514 69.4895 50.244 69.5077C49.951 69.5077 49.659 69.5398 49.3745 69.6033C49.1991 69.6394 49.0296 69.6956 48.87 69.7705C48.7696 69.8168 48.6885 69.8915 48.6389 69.9832C48.5894 70.0749 48.574 70.1788 48.5952 70.2791C48.6234 70.3749 48.6789 70.4623 48.7562 70.5324C48.8336 70.6026 48.93 70.6529 49.0357 70.6784C49.2161 70.7195 49.4049 70.7195 49.5853 70.6784C49.8754 70.6184 50.1477 70.5019 50.3833 70.3371C50.6065 70.2016 50.7993 70.029 50.9518 69.8286C50.7253 69.9487 50.5078 70.0821 50.3005 70.2279C50.0728 70.3696 49.8172 70.4704 49.5476 70.5248C49.3981 70.5589 49.2416 70.5589 49.0921 70.5248C49.0214 70.5087 48.9567 70.4758 48.9045 70.4297C48.8522 70.3835 48.8144 70.3257 48.7947 70.262C48.7833 70.1995 48.7947 70.1352 48.8274 70.0791C48.86 70.023 48.912 69.9782 48.9754 69.9514C49.1152 69.8816 49.2646 69.8288 49.4196 69.7944C49.6898 69.7246 49.9674 69.6811 50.2478 69.6647C50.7259 69.6101 51.027 69.6545 51.0346 69.6238Z" fill="#263238"/>
<path d="M55.2022 72.109C55.2548 71.7693 55.3366 71.4338 55.4469 71.1056C55.619 70.8007 55.8192 70.5095 56.0455 70.2352C55.6884 70.4117 55.4095 70.6946 55.2558 71.036C55.1022 71.3774 55.0833 71.7564 55.2022 72.109Z" fill="#263238"/>
<path d="M46.6406 72.6234C46.7891 72.7086 46.9484 72.7773 47.1149 72.8282C47.5599 72.9813 48.0151 73.109 48.4777 73.2104C50.0152 73.5145 51.5875 73.6498 53.1606 73.6132C54.9977 73.5927 56.654 73.5176 57.8549 73.4732L59.2741 73.405C59.4484 73.4023 59.6222 73.3863 59.7935 73.3572C59.6205 73.3325 59.4451 73.3245 59.2703 73.3333H57.8511L53.1606 73.4152C51.602 73.4515 50.0435 73.3371 48.5115 73.0739C47.337 72.8589 46.6557 72.5858 46.6406 72.6234Z" fill="#263238"/>
<path d="M46.2832 72.8758C46.2832 72.8997 46.6333 72.7222 47.2017 72.4969C47.9239 72.1877 48.7276 72.0694 49.5206 72.1556C50.3005 72.3089 51.0045 72.6874 51.527 73.2342C51.7445 73.4672 51.9798 73.6862 52.231 73.8895C52.0695 73.6181 51.8681 73.3678 51.6325 73.1454C51.3908 72.8907 51.118 72.6617 50.8193 72.4628C50.4452 72.2117 50.0102 72.0455 49.5507 71.9781C48.7187 71.8868 47.8758 72.031 47.1377 72.3911C46.8259 72.5098 46.5374 72.6735 46.2832 72.8758Z" fill="#263238"/>
<path d="M35.1922 64.6785C35.1922 64.6785 23.5902 71.5662 23.1761 71.846C22.5512 72.2727 23.2664 74.3103 24.3506 73.9588C24.8626 73.7915 34.5974 71.3341 35.6439 70.9655C36.6904 70.5968 39.5099 68.5285 39.5099 68.5285L35.1922 64.6785Z" fill="#407BFF"/>
<path d="M31.7554 70.1248C31.6155 69.6917 31.347 69.3019 30.9791 68.9979C30.6113 68.6939 30.1584 68.4874 29.6699 68.4011C30.0779 68.6229 30.469 68.8692 30.8407 69.1384C31.1679 69.4496 31.4734 69.779 31.7554 70.1248Z" fill="#263238"/>
<path d="M32.7857 69.2727C32.6381 68.8832 32.3972 68.5281 32.0802 68.233C31.7632 67.9379 31.3781 67.7102 30.9524 67.5662C30.9223 67.6139 31.4305 67.9075 31.9312 68.358C32.4319 68.8085 32.733 69.3 32.7857 69.2727Z" fill="#263238"/>
<path d="M33.8349 68.6639C33.8334 68.2344 33.6532 67.8212 33.3305 67.5068C33.0608 67.1599 32.6582 66.9165 32.2012 66.8242C32.5503 67.0714 32.8788 67.3418 33.1837 67.6331C33.4306 67.9605 33.6483 68.3052 33.8349 68.6639Z" fill="#263238"/>
<path d="M33.158 67.3579C33.1881 67.3579 33.03 67.061 32.8982 66.5695C32.819 66.2845 32.7724 65.9928 32.759 65.6991C32.746 65.5264 32.746 65.3531 32.759 65.1803C32.7576 65.1025 32.7797 65.0258 32.8229 64.9585C32.8392 64.9353 32.8649 64.9187 32.8944 64.9124C32.9239 64.906 32.955 64.9103 32.9811 64.9243C33.1128 64.9721 33.1806 65.1769 33.2446 65.3407C33.2998 65.5032 33.3376 65.67 33.3575 65.8391C33.3866 66.1315 33.3765 66.426 33.3274 66.7162C33.2483 67.2146 33.1392 67.5183 33.1693 67.5286C33.3244 67.2844 33.4266 67.0156 33.4704 66.7367C33.5426 66.4377 33.568 66.1309 33.5457 65.8254C33.5306 65.6426 33.494 65.4619 33.4365 65.2861C33.4056 65.1919 33.3678 65.0995 33.3236 65.0097C33.2734 64.8979 33.1796 64.8068 33.0601 64.7537C32.9903 64.7242 32.9113 64.718 32.837 64.7361C32.7626 64.7542 32.6977 64.7955 32.6536 64.8527C32.5913 64.9476 32.5587 65.0562 32.5594 65.1667C32.518 65.6528 32.5793 66.1417 32.7401 66.607C32.8194 66.8813 32.9618 67.1372 33.158 67.3579Z" fill="#263238"/>
<path d="M33.1172 67.2452C33.1172 67.2725 33.4033 67.1496 33.8701 67.0438C34.1429 66.9845 34.4216 66.9502 34.702 66.9414C34.862 66.9316 35.0227 66.9407 35.1801 66.9687C35.2494 66.9773 35.3138 67.0059 35.3639 67.0501C35.414 67.0943 35.4472 67.1519 35.4586 67.2145C35.4618 67.2823 35.445 67.3497 35.4099 67.4097C35.3749 67.4696 35.3228 67.5201 35.2591 67.5558C35.1296 67.6296 34.9825 67.6741 34.83 67.6855C34.5549 67.7099 34.2772 67.6843 34.0131 67.6104C33.7678 67.5271 33.5162 67.4598 33.2602 67.409C33.4726 67.5628 33.7154 67.6787 33.9755 67.7503C34.2548 67.8473 34.5541 67.8881 34.8526 67.8698C35.0383 67.8609 35.2184 67.8093 35.3758 67.7196C35.469 67.6677 35.545 67.5941 35.596 67.5064C35.647 67.4188 35.6711 67.3203 35.6657 67.2213C35.6524 67.1197 35.603 67.0247 35.5249 66.9508C35.4468 66.8769 35.3442 66.8281 35.2328 66.8117C35.0564 66.7834 34.8766 66.7765 34.6982 66.7912C34.4055 66.809 34.1161 66.8583 33.8362 66.938C33.5736 66.9888 33.3276 67.0939 33.1172 67.2452Z" fill="#263238"/>
<path d="M25.8327 73.5808C25.8327 73.5978 26.0284 73.475 26.1188 73.1746C26.2089 72.7822 26.1309 72.3733 25.9004 72.0312C25.7889 71.8481 25.6631 71.6725 25.524 71.5056C25.4108 71.3634 25.278 71.2349 25.1287 71.1233C25.0218 71.0432 24.8905 70.9944 24.7523 70.9834C24.6544 70.9834 24.6055 71.0005 24.6055 71.0107C24.6055 71.0209 24.8125 71.0278 25.0271 71.2257C25.1537 71.3418 25.266 71.47 25.3621 71.608C25.4971 71.7727 25.6228 71.9436 25.7386 72.12C25.9465 72.4262 26.0366 72.7863 25.9945 73.1439C25.9503 73.2924 25.8963 73.4383 25.8327 73.5808Z" fill="#263238"/>
<path d="M29.993 70.7578C30.0086 70.5731 29.98 70.3875 29.9092 70.2137C29.8383 70.04 29.727 69.8821 29.5827 69.7509C29.4668 69.5983 29.3154 69.4706 29.1391 69.3768C28.9628 69.2831 28.766 69.2255 28.5625 69.2083C28.8702 69.4063 29.1586 69.6278 29.4246 69.8704C29.6412 70.1512 29.8314 70.448 29.993 70.7578Z" fill="#263238"/>
<path d="M38.3112 68.8933C38.1308 68.9843 37.9595 69.0894 37.7992 69.2073C37.3394 69.4968 36.8618 69.7623 36.3687 70.0026C35.639 70.3535 34.8845 70.6602 34.1101 70.9207C33.2292 71.2177 32.2279 71.4975 31.2039 71.7706C29.1147 72.3167 27.2249 72.815 25.8622 73.187L24.2397 73.6478C24.0395 73.696 23.8442 73.7599 23.6562 73.8389C23.8614 73.8136 24.0641 73.7737 24.2623 73.7195L25.8923 73.3065C27.2663 72.9652 29.1598 72.4873 31.2491 71.9412C32.2918 71.6648 33.2819 71.3781 34.1628 71.0709C34.9467 70.8007 35.7079 70.479 36.4403 70.1084C36.9321 69.8558 37.4027 69.5706 37.8481 69.2551C38.0133 69.1463 38.1681 69.0253 38.3112 68.8933Z" fill="#263238"/>
<path d="M38.7488 69.0332C38.4367 68.9086 38.1053 68.828 37.7663 68.7943C36.9416 68.6558 36.0898 68.7511 35.327 69.0673C34.9146 69.263 34.5606 69.5464 34.2955 69.8933C34.0772 70.167 33.894 70.4625 33.7497 70.7739C33.5987 71.0502 33.491 71.3443 33.4297 71.6476C33.6001 71.384 33.751 71.1103 33.8814 70.8285C34.1953 70.1621 34.7397 69.6062 35.4324 69.2448C36.161 68.9476 36.9672 68.8423 37.7588 68.941C38.3611 68.9854 38.7413 69.0605 38.7488 69.0332Z" fill="#263238"/>
<path d="M59.315 47.8828C59.315 47.8828 62.7971 49.0091 62.8084 52.5485C62.8385 59.3236 47.7055 66.795 47.7055 66.795L27.5658 54.6988L26.3047 54.2346C26.3047 54.2346 53.5027 44.9782 59.315 47.8828Z" fill="#263238"/>
<path d="M37.7715 60.8083C37.9569 60.7152 38.1332 60.6078 38.2985 60.4875C38.626 60.269 39.0966 59.9482 39.6725 59.542C40.8282 58.7365 42.3942 57.5897 44.0844 56.2757C45.7747 54.9616 47.2578 53.7295 48.3119 52.8182C48.8389 52.3642 49.2605 51.9888 49.5504 51.726C49.7069 51.5979 49.8505 51.4574 49.9795 51.3062C49.8063 51.4161 49.6438 51.5395 49.4939 51.6748L48.214 52.7226C47.1336 53.6066 45.6354 54.8251 43.9489 56.1357C42.2624 57.4464 40.7115 58.6068 39.5859 59.4396L38.2496 60.4295C38.0793 60.544 37.9195 60.6707 37.7715 60.8083Z" fill="#455A64"/>
<path d="M53.6275 50.4159C52.3105 50.2896 50.9919 50.6418 49.9609 51.3955C49.9948 51.4467 50.7138 51.0201 51.7453 50.7538C52.7767 50.4876 53.6275 50.474 53.6275 50.4159Z" fill="#455A64"/>
<path d="M51.8942 49.3453C51.4283 49.5246 51.0183 49.8053 50.7005 50.1625C50.3827 50.5197 50.1669 50.9424 50.0723 51.3932C50.1325 51.3932 50.3508 50.8437 50.859 50.2805C51.3672 49.7174 51.9281 49.3931 51.8942 49.3453Z" fill="#455A64"/>
<path d="M60.4099 70.8087C60.4099 70.7882 60.169 70.7439 59.8904 70.9521C59.5622 71.2294 59.3562 71.6054 59.3107 72.0101C59.2447 72.408 59.3074 72.8147 59.4914 73.1808C59.6344 73.4573 59.7925 73.587 59.8113 73.5733C59.7617 73.4216 59.7 73.2733 59.6269 73.1296C59.4951 72.7787 59.4564 72.4045 59.5139 72.0374C59.5587 71.6718 59.724 71.3268 59.9883 71.0476C60.2028 70.8462 60.4136 70.8394 60.4099 70.8087Z" fill="#263238"/>
<path d="M54.6758 36.8069L47.5045 53.2924L16.6249 53.7497L16.0527 52.2343L26.8755 51.8793L32.0779 37.254L54.6758 36.8069Z" fill="#455A64"/>
<path d="M40.2466 43.9536C40.4838 43.8457 40.7502 43.8021 41.014 43.8281C41.2778 43.8542 41.5276 43.9487 41.7336 44.1004C41.9084 44.2495 42.0296 44.4429 42.0813 44.6554C42.133 44.8679 42.1129 45.0896 42.0234 45.2916C41.9267 45.4932 41.7697 45.6662 41.5701 45.7911C41.3705 45.916 41.1363 45.9877 40.8941 45.9981C40.6391 46.0129 40.3858 45.952 40.1725 45.8245C39.9592 45.697 39.7975 45.5099 39.7121 45.2916C39.6315 45.0474 39.6383 44.7864 39.7317 44.5459C39.825 44.3055 40 44.0982 40.2316 43.9536" fill="#EBEBEB"/>
<path d="M49.5977 67.6199C49.5977 67.6199 21.1462 50.6976 19.9867 50.3461C18.8273 49.9945 16.004 48.3221 13.1919 49.0252C10.3799 49.7283 7.85021 52.0185 6.58913 55.3634C5.86636 57.2747 5.52756 60.5343 5.36569 62.9815C5.14998 65.9078 6.19597 68.7958 8.28312 71.0365C9.20768 72.0821 10.4358 72.8729 11.8292 73.3199C12.1266 73.4052 12.4353 73.4769 12.7515 73.5383C18.1309 74.5964 23.6683 72.4052 26.6799 68.2343L27.3424 67.3196C27.3424 67.3196 45.9575 73.5178 46.2474 73.4325L49.5977 67.6199Z" fill="#263238"/>
<path d="M14.4082 62.9616C14.4584 62.9845 14.5099 63.0051 14.5625 63.023L15.0293 63.1903L16.8325 63.8217L23.5369 66.1119C26.3829 67.0744 29.7934 68.2212 33.6219 69.4841C37.4503 70.747 41.689 72.1293 46.2214 73.5184L46.3004 73.5457L46.3419 73.4741L48.5666 69.624L49.696 67.6615L49.7374 67.5864L49.6583 67.542L27.9564 55.05L21.4364 51.3228L19.6671 50.3193L19.2041 50.0634C19.0987 50.0053 19.0422 49.9814 19.0422 49.9814L19.1928 50.0804L19.6445 50.3501L21.395 51.374L27.8999 55.1592L49.568 67.699L49.5303 67.5762C49.1727 68.2008 48.7774 68.8663 48.401 69.5387L46.18 73.3887L46.3042 73.3444C41.7869 71.9586 37.5331 70.5797 33.7009 69.3271L23.6009 65.9959L16.8589 63.75L15.0444 63.1493L14.5701 62.9991L14.4082 62.9616Z" fill="#455A64"/>
<path d="M17.3567 2.87347C17.8423 1.68229 18.9151 1.1669 20.2741 0.869961C20.9576 0.725731 21.6695 0.733265 22.3491 0.891923C23.0288 1.05058 23.6561 1.35568 24.1778 1.78127C24.8667 2.35126 25.3711 3.14652 26.2219 3.48784C27.626 4.06466 29.4217 3.22161 30.7392 3.92813C31.135 4.13952 31.4378 4.46869 31.5962 4.85966C31.7545 5.25062 31.7586 5.67925 31.6078 6.07265C31.4569 6.46604 31.1605 6.79993 30.7688 7.01752C30.3771 7.23511 29.9144 7.32298 29.4593 7.26618C30.3741 7.65528 30.5435 8.90449 29.9148 9.62124C29.2861 10.338 28.1229 10.5326 27.148 10.2834C26.1869 9.98323 25.3344 9.45101 24.6823 8.74407C23.9971 8.06144 23.3948 7.32761 22.6495 6.69618C21.934 6.03715 20.9847 5.62855 19.9692 5.54255C18.6027 5.49476 17.3341 6.33097 16.6226 7.38563C15.9111 8.44029 15.6363 9.69292 15.4368 10.9216C15.2373 12.1504 15.0867 13.3996 14.5635 14.5464C14.5032 14.6829 14.4129 14.8297 14.2585 14.8604C14.0289 14.9048 13.8633 14.6761 13.7729 14.4815C12.7428 12.2896 12.198 9.9354 12.1693 7.55288C12.1505 6.18763 12.3236 4.8804 13.2685 3.79843C14.2134 2.71647 16.393 2.04408 17.3454 2.8564" fill="#263238"/>
<path d="M14.1429 8.37963L12.0499 22.1619C11.966 22.7184 12.0079 23.2847 12.173 23.8261C12.3381 24.3675 12.6231 24.8728 13.0104 25.3112C13.3978 25.7496 13.8796 26.1119 14.4263 26.3762C14.973 26.6404 15.5734 26.801 16.1908 26.8481C17.3596 26.9403 18.5227 26.6214 19.4393 25.9574C20.3559 25.2934 20.9557 24.3353 21.1146 23.2814C21.269 22.2574 21.4007 21.3803 21.4271 21.2745C21.4271 21.2745 25.3459 21.4281 26.1514 17.991C26.5279 16.3288 27.0361 12.8474 27.4464 9.69369C27.6534 8.06166 27.176 6.41872 26.1091 5.09096C25.0422 3.7632 23.4636 2.84768 21.6868 2.52611L21.3104 2.46126C17.3013 1.94246 14.5909 4.74123 14.1429 8.37963Z" fill="#FFBE9D"/>
<path d="M21.4373 21.2257C19.6753 20.9325 18.0492 20.1709 16.7656 19.0378C16.7656 19.0378 17.3905 21.7274 21.2491 22.1097L21.4373 21.2257Z" fill="#EB996E"/>
<path d="M25.8164 11.8015C25.7898 11.9299 25.7086 12.0438 25.5903 12.1185C25.472 12.1932 25.3261 12.2228 25.1839 12.2008C25.1139 12.1937 25.0462 12.1739 24.9848 12.1425C24.9235 12.1111 24.8698 12.0688 24.8269 12.0181C24.784 11.9675 24.7528 11.9094 24.7353 11.8476C24.7177 11.7857 24.7141 11.7213 24.7247 11.6581C24.7504 11.529 24.8312 11.4143 24.9496 11.3389C25.068 11.2635 25.2144 11.2335 25.3571 11.2554C25.4273 11.2629 25.4951 11.2831 25.5564 11.3149C25.6178 11.3466 25.6715 11.3892 25.7144 11.4402C25.7572 11.4911 25.7883 11.5494 25.8059 11.6114C25.8234 11.6735 25.8269 11.7381 25.8164 11.8015Z" fill="#263238"/>
<path d="M26.243 11.2348C26.1602 11.2894 25.8101 10.9379 25.2267 10.8321C24.6432 10.7262 24.1538 10.9174 24.0973 10.8321C24.0409 10.7467 24.1689 10.6955 24.3834 10.6068C24.6694 10.4915 24.9884 10.4616 25.2944 10.5215C25.5984 10.5742 25.8755 10.7142 26.0849 10.9208C26.2468 11.0846 26.2807 11.2143 26.243 11.2348Z" fill="#263238"/>
<path d="M20.0534 10.9416C20.0277 11.0707 19.9469 11.1854 19.8285 11.2608C19.7101 11.3362 19.5637 11.3662 19.421 11.3444C19.3509 11.3364 19.2833 11.3159 19.222 11.2841C19.1607 11.2522 19.1069 11.2097 19.0639 11.1589C19.0208 11.1081 18.9893 11.0501 18.9711 10.9882C18.9529 10.9263 18.9485 10.8618 18.958 10.7983C18.9863 10.6704 19.0678 10.5574 19.1855 10.4824C19.3032 10.4075 19.4482 10.3764 19.5904 10.3956C19.6607 10.4031 19.7286 10.4233 19.7902 10.455C19.8517 10.4867 19.9057 10.5293 19.9488 10.5802C19.992 10.631 20.0235 10.6892 20.0414 10.7513C20.0594 10.8134 20.0635 10.8781 20.0534 10.9416Z" fill="#263238"/>
<path d="M20.4755 10.2968C20.3926 10.348 20.0426 9.99643 19.4591 9.89063C18.8756 9.78482 18.3862 9.97595 18.3297 9.89063C18.2733 9.8053 18.4013 9.7541 18.6158 9.66536C18.9024 9.55185 19.2208 9.52202 19.5268 9.58003C19.8306 9.63585 20.108 9.7753 20.3211 9.97936C20.4792 10.1637 20.5131 10.2729 20.4755 10.2968Z" fill="#263238"/>
<path d="M21.7383 14.602C22.0652 14.569 22.3955 14.5747 22.7208 14.6191C22.8751 14.6191 23.022 14.6191 23.0671 14.5406C23.115 14.4052 23.115 14.2596 23.0671 14.1242C22.9994 13.7829 22.9278 13.4006 22.8525 13.0115C22.5627 11.4346 22.3858 10.1513 22.4535 10.1411C22.5213 10.1308 22.83 11.4005 23.1048 12.9774C23.1725 13.3665 23.2403 13.7351 23.3005 14.0901C23.3594 14.2707 23.3447 14.4645 23.2591 14.6362C23.2272 14.6793 23.1848 14.7152 23.1352 14.7413C23.0856 14.7673 23.0302 14.7827 22.973 14.7863C22.8869 14.7974 22.7994 14.7974 22.7133 14.7863C22.3811 14.762 22.0535 14.7001 21.7383 14.602Z" fill="#263238"/>
<path d="M19.9414 14.6611C20.0393 14.6611 19.9113 15.2482 20.363 15.7533C20.8148 16.2585 21.4924 16.3199 21.4924 16.4018C21.4924 16.4837 21.3192 16.4838 21.0331 16.4394C20.6603 16.3771 20.3233 16.1983 20.0807 15.9342C19.8509 15.6783 19.7389 15.3519 19.7683 15.0229C19.7984 14.7772 19.9 14.6475 19.9414 14.6611Z" fill="#263238"/>
<path d="M21.0789 8.24474C20.9923 8.38126 20.4239 8.20719 19.7199 8.15599C19.016 8.1048 18.4287 8.17647 18.3647 8.02971C18.3384 7.96145 18.4664 7.84541 18.7186 7.74643C19.0533 7.62667 19.4143 7.5799 19.7726 7.60989C20.133 7.63483 20.4816 7.73783 20.789 7.91025C21.0186 8.04677 21.1127 8.1833 21.0789 8.24474Z" fill="#263238"/>
<path d="M26.3634 9.66486C26.2354 9.76725 25.8627 9.56929 25.3771 9.47372C24.8915 9.37815 24.4661 9.39521 24.4021 9.25185C24.372 9.18359 24.4624 9.07438 24.6694 8.99246C24.939 8.89613 25.2351 8.87824 25.5164 8.94126C25.8002 8.99551 26.0575 9.13065 26.2505 9.32694C26.3898 9.48054 26.4236 9.61366 26.3634 9.66486Z" fill="#263238"/>
<path d="M13.9091 10.9869C13.8489 10.9494 11.451 9.81278 11.0143 12.1849C10.5776 14.5571 13.2955 14.4649 13.3106 14.3966C13.3256 14.3284 13.9091 10.9869 13.9091 10.9869Z" fill="#FFBE9D"/>
<path d="M12.6635 13.3758C12.6635 13.3758 12.6146 13.3996 12.5318 13.4201C12.4155 13.4453 12.293 13.4295 12.1892 13.3758C12.0368 13.2539 11.9234 13.0969 11.8611 12.9215C11.7989 12.7461 11.7899 12.5587 11.8353 12.3791C11.8655 12.1742 11.9466 11.9781 12.0725 11.8057C12.1081 11.735 12.1619 11.6729 12.2294 11.6249C12.2968 11.5768 12.376 11.544 12.4602 11.5293C12.5153 11.5251 12.5703 11.5384 12.6157 11.5671C12.6611 11.5958 12.694 11.6379 12.7087 11.6863C12.7313 11.7545 12.7087 11.8023 12.7087 11.8057C12.7087 11.8091 12.7727 11.775 12.7689 11.676C12.7649 11.6153 12.7384 11.5575 12.6936 11.5122C12.6631 11.4816 12.626 11.457 12.5845 11.4399C12.5431 11.4229 12.4982 11.4138 12.4527 11.4132C12.3422 11.4161 12.2344 11.4446 12.1395 11.496C12.0446 11.5474 11.9658 11.6199 11.9106 11.7067C11.7611 11.8957 11.6642 12.1147 11.6283 12.345C11.5568 12.8262 11.745 13.3143 12.1064 13.4679C12.1733 13.4972 12.2466 13.5125 12.3209 13.5125C12.3953 13.5125 12.4686 13.4972 12.5355 13.4679C12.6485 13.4338 12.671 13.3826 12.6635 13.3758Z" fill="#EB996E"/>
<path d="M28.3977 9.1387C27.5131 9.18196 26.6298 9.03436 25.8203 8.70803C25.0109 8.3817 24.2983 7.88595 23.7411 7.26147C22.9882 6.38088 22.4876 5.23065 21.3997 4.6982C21.025 4.53104 20.6175 4.43291 20.2007 4.40947C19.7839 4.38604 19.3662 4.43777 18.9716 4.56167C18.1862 4.81627 17.4663 5.21346 16.856 5.72897C17.2023 7.61302 16.28 9.48343 15.3803 11.19C15.3028 11.3913 15.153 11.5632 14.9549 11.6781C14.6011 11.8385 14.1795 11.5859 13.9649 11.2822C13.6642 10.7729 13.5334 10.1954 13.5885 9.61996C13.5965 8.30865 13.8908 7.01175 14.4543 5.80406C15.0265 4.5928 15.978 3.56035 17.191 2.83462C18.7468 1.97331 20.6106 1.6931 22.3897 2.05301C24.1587 2.42613 25.7535 3.2942 26.9484 4.53437C27.5307 5.08403 27.9536 5.75597 28.1794 6.4901" fill="#263238"/>
</svg>
