<svg width="20" height="18" viewBox="0 0 20 18" fill="none" xmlns="http://www.w3.org/2000/svg">
<path d="M2.52464 9.42027C2.18351 5.55133 5.36371 2.16403 9.62781 1.85451C13.8919 1.545 17.6252 4.43048 17.9663 8.29942C18.3074 12.1684 15.1272 15.5557 10.8631 15.8652C6.59905 16.1747 2.86577 13.2892 2.52464 9.42027Z" fill="#407BFF"/>
<path d="M5.17378 13.4488C2.44507 10.9729 2.44507 6.95881 5.17378 4.48298C7.9025 2.00714 12.3266 2.00714 15.0553 4.48298C17.784 6.95881 17.784 10.9729 15.0553 13.4488C12.3266 15.9246 7.90249 15.9246 5.17378 13.4488Z" fill="#FAFAFA"/>
<path d="M17.1729 8.58767C17.1729 8.58767 17.1729 8.6233 17.1729 8.69131V8.99413C17.1729 9.06052 17.1729 9.13663 17.1729 9.2176C17.1729 9.29857 17.1551 9.38925 17.1479 9.48642C17.1408 9.58358 17.1265 9.68722 17.1158 9.79895C17.1051 9.91069 17.0712 10.0273 17.0498 10.152C16.9292 10.7573 16.7084 11.3426 16.3948 11.8879C15.9867 12.613 15.4279 13.2597 14.7492 13.7923L14.4672 14.0141C14.3655 14.0838 14.2584 14.1485 14.1513 14.2165C14.0463 14.2879 13.9373 14.3544 13.8247 14.4157L13.4678 14.5955L13.2893 14.6862L13.1001 14.7607L12.7164 14.9226C12.5861 14.9712 12.4487 15.0052 12.313 15.0473C12.177 15.0921 12.0382 15.1294 11.8972 15.159C11.609 15.2251 11.3162 15.2738 11.0209 15.3048C10.871 15.3177 10.7193 15.3404 10.5658 15.3469H10.1035C10.025 15.3469 9.94647 15.3469 9.86972 15.3469L9.63414 15.329C9.47708 15.3145 9.31824 15.3064 9.15939 15.2869C8.83918 15.2416 8.5226 15.1773 8.21169 15.0942L7.97432 15.0311C7.93505 15.0214 7.894 15.0117 7.85474 14.9987L7.74051 14.9566L7.2747 14.7947C7.12299 14.7299 6.97486 14.6554 6.82315 14.5841C6.74819 14.5469 6.66966 14.5161 6.59827 14.474L6.3841 14.3461C6.09138 14.1762 5.81172 13.9885 5.54705 13.7842C5.42212 13.6724 5.2954 13.5623 5.1669 13.4506L5.0723 13.3664L4.98485 13.2757L4.80638 13.0911L4.6279 12.9049L4.47263 12.7057L4.31736 12.5049L4.23883 12.4029C4.21563 12.3689 4.19421 12.3316 4.17101 12.296L3.90151 11.8636L3.67841 11.407C3.40236 10.775 3.23211 10.1091 3.17333 9.43136C3.13631 8.74842 3.21333 8.06434 3.40178 7.40231L3.55705 6.9165C3.62487 6.76266 3.69269 6.60882 3.7623 6.4566L3.81227 6.34163L3.87652 6.23151L4.00145 6.01452L4.11568 5.804L4.27095 5.59349L4.4173 5.38945L4.49048 5.28905L4.57258 5.19351C4.68323 5.06882 4.7921 4.94251 4.90097 4.81782C5.13459 4.58447 5.38437 4.36487 5.64878 4.16036L5.84332 4.00976C5.90936 3.95794 5.98253 3.91908 6.05035 3.87211C6.19135 3.78629 6.32699 3.69237 6.46798 3.6114L6.90525 3.38793L7.01234 3.33125L7.12656 3.28591L7.35144 3.19361C7.6487 3.07529 7.9539 2.97415 8.26523 2.89079C8.41872 2.85192 8.57578 2.82601 8.72927 2.79362L8.9595 2.74828C9.03625 2.73371 9.11477 2.72885 9.19152 2.72075L9.64842 2.67865C9.8019 2.66731 9.95361 2.67865 10.1053 2.66731C10.4034 2.66264 10.7016 2.67616 10.9977 2.7078C11.1417 2.72079 11.2847 2.74134 11.426 2.76933C11.567 2.79524 11.7098 2.81306 11.8454 2.84544L12.247 2.95232L12.4469 3.00414L12.6361 3.07215L13.0109 3.2098C13.134 3.2519 13.2465 3.31668 13.3678 3.37173C13.4892 3.42679 13.5981 3.47861 13.7087 3.53367L14.0264 3.7199C14.7757 4.16834 15.4228 4.74341 15.9325 5.41374C16.3196 5.91707 16.6205 6.47069 16.8249 7.05576C16.8708 7.16755 16.9095 7.28163 16.9409 7.39745C16.9695 7.50756 16.9945 7.60958 17.0177 7.70513C17.0409 7.80067 17.0658 7.88649 17.0819 7.96746C17.098 8.04843 17.1033 8.1294 17.1123 8.18931C17.1301 8.32048 17.1444 8.42088 17.1533 8.49051C17.1622 8.56014 17.1711 8.59253 17.1711 8.59253C17.1711 8.59253 17.1711 8.55691 17.1711 8.48889C17.1711 8.42088 17.1515 8.32696 17.1355 8.18769C17.1283 8.12184 17.1194 8.04735 17.1087 7.96422C17.0962 7.88325 17.0712 7.80229 17.0498 7.70027C17.0284 7.59825 17.0034 7.50109 16.9766 7.39097C16.945 7.27484 16.9069 7.16026 16.8624 7.04767C16.6609 6.457 16.3599 5.89818 15.97 5.39107C15.4607 4.71337 14.8116 4.13156 14.0585 3.67779L13.7337 3.48833C13.6231 3.43003 13.5053 3.37821 13.391 3.32639C13.2768 3.27457 13.159 3.20818 13.0341 3.16446L12.6575 3.02681L12.4665 2.95718L12.2666 2.90374L11.8597 2.79524C11.7223 2.76286 11.5795 2.74504 11.4385 2.71752C11.2956 2.68821 11.1507 2.66712 11.0048 2.65436C10.7088 2.62162 10.4106 2.60756 10.1125 2.61226C9.95896 2.61226 9.80547 2.61226 9.6502 2.62197L9.18616 2.67217C9.10764 2.67217 9.02911 2.68513 8.95236 2.69808L8.71856 2.74504C8.56329 2.77743 8.40444 2.80334 8.24917 2.8422C7.93566 2.92405 7.62808 3.02356 7.32824 3.14017L7.09979 3.23247C7.06231 3.24866 7.02304 3.26162 6.98556 3.27943L6.87669 3.33449L6.43407 3.5612C6.29129 3.64379 6.15387 3.73609 6.01287 3.82515C5.9407 3.86774 5.871 3.91368 5.80406 3.9628L5.60595 4.12473C5.33769 4.33051 5.08488 4.55231 4.84921 4.78867C4.73856 4.9139 4.6279 5.04021 4.51725 5.1676L4.43337 5.26314L4.3584 5.36516L4.21206 5.57082L4.06392 5.77647L3.93721 5.99509L3.81049 6.21694L3.74623 6.32706L3.69448 6.44203L3.48745 6.9084C3.43569 7.07034 3.38215 7.23228 3.33039 7.39421C3.14487 8.06104 3.07146 8.74948 3.11265 9.43622C3.17001 10.1178 3.34028 10.7876 3.61773 11.4232L3.84261 11.8863L4.11568 12.3235L4.1835 12.432L4.26203 12.534L4.42087 12.7365L4.57793 12.9389L4.75641 13.1251L4.93488 13.3113L5.02412 13.4053L5.1205 13.4895L5.50422 13.8263C5.7723 14.0322 6.05489 14.2221 6.35019 14.3947L6.56793 14.5226C6.63932 14.5647 6.71964 14.5971 6.7946 14.6343C6.94809 14.704 7.098 14.7817 7.25149 14.8449L7.72266 15.0165L7.83867 15.0602L7.95825 15.0926L8.19741 15.1558C8.51181 15.2392 8.83199 15.3036 9.15582 15.3485C9.31645 15.3679 9.47708 15.376 9.63592 15.389L9.8733 15.4084C9.95182 15.4084 10.0321 15.4084 10.1107 15.4084H10.5783C10.7318 15.4084 10.8835 15.3792 11.0352 15.3647C11.3359 15.3331 11.6341 15.2833 11.9275 15.2157C12.0696 15.1853 12.2097 15.1474 12.347 15.1023C12.4826 15.0586 12.6218 15.0246 12.7539 14.976L13.1412 14.8141L13.3304 14.738L13.5088 14.6457L13.8658 14.4643C13.9836 14.406 14.0871 14.3283 14.196 14.2635C14.3048 14.1987 14.4101 14.1275 14.5119 14.0579L14.801 13.8328C15.4756 13.2926 16.0288 12.6394 16.4305 11.909C16.7425 11.3592 16.9604 10.7694 17.0766 10.1601C17.1061 10.0425 17.1287 9.92357 17.1444 9.80381C17.1533 9.69207 17.164 9.58681 17.1729 9.48965C17.1819 9.39249 17.1908 9.30181 17.1926 9.22084C17.1944 9.13987 17.1926 9.05891 17.1926 8.99575C17.1926 8.86458 17.1926 8.76256 17.1836 8.69293C17.1747 8.6233 17.1729 8.58767 17.1729 8.58767Z" fill="#263238"/>
<path d="M6.93023 9.14109C7.01234 9.15207 7.09532 9.15694 7.17831 9.15567L7.86187 9.16862C8.44191 9.16862 9.24862 9.18158 10.1606 9.18158H10.207V8.72816C10.207 7.8035 10.207 6.96792 10.1928 6.36228C10.1928 6.07079 10.182 5.82951 10.1785 5.6449C10.1811 5.55715 10.1751 5.46936 10.1606 5.38257C10.1473 5.46947 10.1413 5.55717 10.1428 5.6449C10.1428 5.82951 10.1428 6.07079 10.1285 6.36228C10.1285 6.96792 10.116 7.8035 10.116 8.72816V9.14109L10.1606 9.10061C9.24862 9.10061 8.44191 9.10061 7.86187 9.11356L7.17831 9.12652C7.09532 9.12524 7.01234 9.13011 6.93023 9.14109Z" fill="#263238"/>
<path d="M10.1435 3.61501C10.099 3.79008 10.084 3.97025 10.0989 4.1494C10.084 4.32909 10.0991 4.50978 10.1435 4.68541C10.1891 4.50994 10.2047 4.32917 10.1899 4.1494C10.2047 3.97017 10.189 3.78994 10.1435 3.61501Z" fill="#263238"/>
<path d="M6.9409 4.47534C7.0436 4.62648 7.1712 4.76247 7.31927 4.87856C7.44722 5.01291 7.59709 5.12868 7.76367 5.22186C7.66066 5.07045 7.53242 4.93444 7.38352 4.81865C7.25643 4.68413 7.10712 4.56832 6.9409 4.47534Z" fill="#263238"/>
<path d="M5.08011 6.33061C5.22521 6.44554 5.38524 6.54398 5.55664 6.62372C5.71699 6.73005 5.89074 6.81866 6.07422 6.88767C5.79221 6.6396 5.45252 6.45202 5.08011 6.33871V6.33061Z" fill="#263238"/>
<path d="M3.98162 9.08596C4.5154 9.13969 5.0541 9.13969 5.58789 9.08596C5.05424 9.03008 4.51527 9.03008 3.98162 9.08596Z" fill="#263238"/>
<path d="M15.1259 8.99281C15.631 9.04679 16.1414 9.04679 16.6465 8.99281C16.1415 8.93663 15.6308 8.93663 15.1259 8.99281Z" fill="#263238"/>
<path d="M14.348 11.0374C14.5182 11.2152 14.7111 11.3739 14.9227 11.5103C15.114 11.6686 15.3255 11.8056 15.5527 11.9184C15.3829 11.7408 15.1906 11.5821 14.9798 11.4455C14.7873 11.2878 14.5753 11.1508 14.348 11.0374Z" fill="#263238"/>
<path d="M12.3886 12.623C12.5011 12.837 12.6318 13.0428 12.7795 13.2384C12.9014 13.4483 13.0404 13.6496 13.1953 13.8408C13.1204 13.6104 13.0066 13.3919 12.858 13.193C12.7348 12.9822 12.5765 12.7899 12.3886 12.623Z" fill="#263238"/>
<path d="M10.1434 14.6678C10.1892 14.4267 10.2048 14.1817 10.1898 13.9375C10.2048 13.6932 10.1892 13.4482 10.1434 13.2071C10.0988 13.4483 10.0838 13.6933 10.0988 13.9375C10.0837 14.1817 10.0987 14.4266 10.1434 14.6678Z" fill="#263238"/>
<path d="M6.66912 13.6899C6.9117 13.5896 7.13377 13.4527 7.3259 13.285C7.53675 13.1335 7.71778 12.9506 7.86133 12.7442C7.6513 12.8961 7.45052 13.0583 7.25987 13.23C7.05397 13.3735 6.85677 13.527 6.66912 13.6899Z" fill="#263238"/>
<path d="M5.03799 12.1055C5.2357 11.9847 5.41562 11.8416 5.57341 11.6796C5.75177 11.5367 5.90895 11.3734 6.04102 11.1938C5.84387 11.3152 5.66403 11.4582 5.50559 11.6197C5.32762 11.7629 5.17049 11.9262 5.03799 12.1055Z" fill="#263238"/>
<path d="M14.4069 7.02409C14.5828 6.92239 14.7416 6.79802 14.8781 6.65488C15.0352 6.5315 15.1716 6.38803 15.2832 6.22899C15.1079 6.33021 14.9498 6.45404 14.8138 6.59658C14.6561 6.72044 14.519 6.86445 14.4069 7.02409Z" fill="#263238"/>
<path d="M12.4084 5.10549C12.5788 5.00526 12.7316 4.88244 12.8618 4.74113C13.0167 4.62069 13.1509 4.47987 13.2598 4.32334C13.0872 4.42206 12.9314 4.54318 12.7975 4.68284C12.6458 4.80576 12.5147 4.94815 12.4084 5.10549Z" fill="#263238"/>
<path d="M16.3732 9.02888C16.3732 7.41297 15.6929 5.85809 14.4714 4.68211C13.25 3.50612 11.5796 2.79785 9.80176 2.70206C9.93919 2.70206 10.0766 2.68911 10.2158 2.68911C11.1334 2.68911 12.042 2.85309 12.8897 3.1717C13.7375 3.4903 14.5078 3.95728 15.1566 4.54599C15.8054 5.13469 16.3201 5.83358 16.6712 6.60276C17.0224 7.37193 17.2031 8.19633 17.2031 9.02888C17.2031 9.86143 17.0224 10.6858 16.6712 11.455C16.3201 12.2242 15.8054 12.9231 15.1566 13.5118C14.5078 14.1005 13.7375 14.5675 12.8897 14.8861C12.042 15.2047 11.1334 15.3687 10.2158 15.3687C10.0766 15.3687 9.93919 15.3687 9.80176 15.3573C11.5796 15.2608 13.2497 14.552 14.4711 13.3759C15.6924 12.1997 16.3728 10.6448 16.3732 9.02888Z" fill="#E0E0E0"/>
</svg>
