<svg width="90" height="73" viewBox="0 0 90 73" fill="none" xmlns="http://www.w3.org/2000/svg">
<path d="M25.2666 28.1684H33.2773V69.1617H25.2666V28.1684Z" fill="#EBEBEB"/>
<path d="M-0.000368118 28.1684H25.3281V69.1617H-0.000368118V28.1684Z" fill="#F5F5F5"/>
<path d="M1.1952 29.4487H23.2754V47.3458H1.1952V29.4487Z" fill="#E0E0E0"/>
<path d="M1.1952 49.2566H23.2754V67.1537H1.1952V49.2566Z" fill="#E0E0E0"/>
<path d="M20.7832 41.9692V47.0714H12.6035H3.58135V41.9692H20.7832Z" fill="#F5F5F5"/>
<path d="M21.5039 40.5417V41.9677H2.98034V40.5417H12.6035H21.5039Z" fill="#F5F5F5"/>
<path d="M12.2441 47.07H3.58328V41.9677H2.98233V40.5417H12.6055V41.8352L12.2441 47.07Z" fill="#F5F5F5"/>
<path d="M14.8871 42.7904H18.375V43.559H14.8871V42.7904Z" fill="white"/>
<path d="M14.3445 44.5185H18.8242V46.1398H14.3445V44.5185Z" fill="white"/>
<path d="M2.82965 41.9546C2.82965 41.9976 6.9892 42.0334 12.1189 42.0334C17.2486 42.0334 21.4082 41.9976 21.4082 41.9546C21.4082 41.9116 17.2506 41.8776 12.1189 41.8776C6.98724 41.8776 2.82965 41.9116 2.82965 41.9546Z" fill="#E0E0E0"/>
<path d="M12.0093 47.0517C12.0564 47.0517 12.0957 45.9213 12.0957 44.5257C12.0957 43.1301 12.0564 41.9979 12.0093 41.9979C11.9622 41.9979 11.9248 43.1301 11.9248 44.5257C11.9248 45.9213 11.9622 47.0517 12.0093 47.0517Z" fill="#E0E0E0"/>
<path d="M20.7832 61.8887V66.9909H12.6035H3.58135V61.8887H20.7832Z" fill="#EBEBEB"/>
<path d="M21.5039 60.4621V61.8881H2.97839V60.4621H12.6015H21.5039Z" fill="#EBEBEB"/>
<path d="M12.2461 66.9903H3.58328V61.8881H2.98233V60.4621H12.6055V61.7573L12.2461 66.9903Z" fill="#EBEBEB"/>
<path d="M14.8871 62.7117H18.375V63.4802H14.8871V62.7117Z" fill="white"/>
<path d="M14.3445 64.4406H18.8242V66.0619H14.3445V64.4406Z" fill="white"/>
<path d="M2.82965 61.8741C2.82965 61.9171 6.9892 61.9529 12.1189 61.9529C17.2486 61.9529 21.4082 61.9171 21.4082 61.8741C21.4082 61.8311 17.2506 61.7971 12.1189 61.7971C6.98724 61.7971 2.82965 61.8311 2.82965 61.8741Z" fill="#E0E0E0"/>
<path d="M12.0093 66.9729C12.0564 66.9729 12.0957 65.8407 12.0957 64.4451C12.0957 63.0495 12.0564 61.9191 12.0093 61.9191C11.9622 61.9191 11.9248 63.0495 11.9248 64.4451C11.9248 65.8407 11.9622 66.9729 12.0093 66.9729Z" fill="#E0E0E0"/>
<path d="M19.1875 36.5085V40.5429H12.7223H5.58942V36.5085H19.1875Z" fill="#EBEBEB"/>
<path d="M19.7637 35.3815V36.5083H5.11882V35.3815H12.727H19.7637Z" fill="#EBEBEB"/>
<path d="M12.4418 40.5428H5.59561V36.5083H5.12035V35.3815H12.7285V36.4044L12.4418 40.5428Z" fill="#EBEBEB"/>
<path d="M14.5337 37.1586H17.291V37.7659H14.5337V37.1586Z" fill="white"/>
<path d="M14.1153 38.5257H17.6562V39.8085H14.1153V38.5257Z" fill="white"/>
<path d="M5.02288 36.4978C5.02288 36.5408 8.31046 36.5749 12.3659 36.5749C16.4214 36.5749 19.7109 36.5408 19.7109 36.4978C19.7109 36.4548 16.4234 36.419 12.3659 36.419C8.30849 36.419 5.02288 36.4638 5.02288 36.4978Z" fill="#E0E0E0"/>
<path d="M12.2671 40.527C12.3142 40.527 12.3535 39.6312 12.3535 38.5294C12.3535 37.4277 12.3142 36.5319 12.2671 36.5319C12.22 36.5319 12.1827 37.4277 12.1827 38.5294C12.1827 39.6312 12.2219 40.527 12.2671 40.527Z" fill="#E0E0E0"/>
<path d="M5.04738 40.5063C5.04738 40.5493 8.2132 40.5851 12.1174 40.5851C16.0217 40.5851 19.1875 40.5493 19.1875 40.5063C19.1875 40.4633 16.0236 40.4292 12.1174 40.4292C8.21123 40.4292 5.04738 40.4633 5.04738 40.5063Z" fill="#E0E0E0"/>
<path d="M13.9496 27.6807L14.9434 27.5535V23.9167L13.9496 24.0439V27.6807Z" fill="#E0E0E0"/>
<path d="M14.3796 24.1495C19.8058 24.1495 24.2207 20.1652 24.2207 15.2673C24.216 13.677 23.7431 12.1171 22.8515 10.7506C21.9598 9.38408 20.6821 8.26119 19.1519 7.49928L19.0419 7.44374L18.384 8.275L18.6138 8.42549L19.1244 7.77875C20.5811 8.52701 21.7942 9.6144 22.6398 10.93C23.4855 12.2455 23.9334 13.7422 23.9379 15.2673C23.9379 20.0237 19.6507 23.8934 14.3796 23.8934C12.1997 23.8929 10.0843 23.2191 8.37787 21.9818L8.77066 21.6235L8.57427 21.4444L7.95367 22.0033L8.07347 22.0947C10.2966 23.759 11.9993 24.1495 14.3796 24.1495Z" fill="#E0E0E0"/>
<path d="M10.1885 27.5547H18.9062V28.1692H10.1885V27.5547Z" fill="#E0E0E0"/>
<path d="M13.9505 23.1225C9.16836 23.1225 5.29166 19.562 5.29166 15.17C5.29166 10.7779 9.16836 7.21748 13.9505 7.21748C18.7327 7.21748 22.6094 10.7779 22.6094 15.17C22.6094 19.562 18.7327 23.1225 13.9505 23.1225Z" fill="#F5F5F5"/>
<path d="M17.1569 18.7135C17.1118 18.3677 16.8172 18.0166 16.9861 17.7048C17.1825 17.3555 17.7324 17.411 18.1212 17.2552C18.6672 17.0366 18.8361 16.4203 19.1915 15.9832C19.5117 15.5927 20.256 15.1645 20.8236 15.2827C20.9802 15.3038 21.1243 15.3733 21.2315 15.4796C21.3387 15.5859 21.4027 15.7226 21.4127 15.8668H21.4638C21.617 15.8524 21.7937 15.8453 21.8782 15.7306C21.9626 15.6159 21.8782 15.3974 21.9783 15.2666C22.0411 15.2065 22.1149 15.1568 22.1963 15.1197C22.269 15.0713 22.3318 14.9817 22.2867 14.9083C22.2415 14.8348 22.1551 14.8348 22.106 14.7793C22.087 14.757 22.0768 14.7296 22.0768 14.7014C22.0768 14.6732 22.087 14.6457 22.106 14.6234C22.2611 14.4443 22.4359 14.8026 22.5223 14.8796C22.5437 14.9008 22.5667 14.9205 22.5911 14.9388C22.592 14.9531 22.592 14.9674 22.5911 14.9817C22.5911 15.0283 22.5911 15.0767 22.5911 15.1251C22.5911 15.1734 22.5911 15.22 22.5911 15.2666C22.5911 15.3132 22.5911 15.3436 22.5911 15.383C22.5911 15.4225 22.5911 15.4601 22.5911 15.4977C22.4978 15.5293 22.4083 15.5696 22.324 15.6177C22.157 15.7073 21.9685 15.8238 21.9567 16.0011C21.9611 16.0302 21.9549 16.0598 21.9391 16.0853C21.9186 16.107 21.8897 16.1205 21.8585 16.1229C21.7141 16.154 21.5668 16.1726 21.4186 16.1785C21.4186 16.3379 21.4049 16.5045 21.4068 16.6622C21.442 16.8878 21.4617 17.1151 21.4658 17.343C21.4265 17.6618 21.1829 17.9252 20.9708 18.1832C20.1617 19.1667 19.7257 20.2971 19.2544 21.4527C19.166 21.5172 19.0403 21.6014 18.95 21.6605C18.8597 21.7196 18.8145 21.7483 18.7399 21.7931C18.6652 21.8378 18.6024 21.8755 18.5278 21.9185C18.4531 21.9615 18.4649 21.9579 18.4119 21.9865C18.4119 21.9722 18.4119 21.9865 18.4119 21.9865C18.6083 21.6067 18.6083 21.0782 18.1939 20.8901C18.1114 20.8623 18.0334 20.8243 17.9621 20.7773C17.7795 20.6214 17.9288 20.2954 17.7461 20.1377C17.644 20.0517 17.483 20.0571 17.3533 20.0051C17.1236 19.9084 17.0489 19.6468 17.0666 19.4103C17.122 19.1814 17.1523 18.9479 17.1569 18.7135Z" fill="#E0E0E0"/>
<path d="M22.0719 12.8935C22.0341 12.8599 21.9892 12.8335 21.94 12.8161C21.8907 12.7986 21.8381 12.7904 21.7853 12.7919C21.7325 12.7934 21.6806 12.8046 21.6326 12.8248C21.5847 12.8451 21.5417 12.8739 21.5063 12.9097C21.4336 13.034 21.4174 13.1794 21.4611 13.3145C21.4925 13.4937 21.5239 13.6836 21.5573 13.8681C21.5719 13.9233 21.5685 13.9812 21.5475 14.0347C21.4886 14.153 21.2765 14.1297 21.196 14.024C21.1268 13.9098 21.1085 13.7757 21.1449 13.6496C21.1834 13.5236 21.1834 13.3904 21.1449 13.2644C21.0074 12.967 20.5224 13.0118 20.2396 12.8183C20.0831 12.6779 19.9612 12.5088 19.8821 12.322C19.8416 12.2288 19.7738 12.1475 19.6862 12.0869C19.5987 12.0263 19.4946 11.9886 19.3853 11.9781C19.3106 11.9781 19.238 12.0049 19.1653 12.0032C19.1129 11.9977 19.0631 11.9796 19.021 11.9506C18.979 11.9216 18.9462 11.8829 18.9261 11.8384C18.9061 11.7939 18.8994 11.7454 18.907 11.6978C18.9145 11.6502 18.9359 11.6053 18.9689 11.5678C19.0048 11.5416 19.0372 11.5116 19.0651 11.4782C19.0804 11.4432 19.0819 11.4044 19.0694 11.3685C19.0569 11.3326 19.0311 11.3017 18.9964 11.2812C18.9267 11.2427 18.8479 11.2199 18.7666 11.2149L18.2128 11.1343C18.0164 11.1056 17.7454 11.0089 17.7749 10.8226C17.8043 10.6362 18.04 10.5897 18.0753 10.4302C18.0781 10.3901 18.086 10.3504 18.0989 10.312C18.1539 10.2099 18.3228 10.2511 18.4308 10.312C18.4446 10.2764 18.4672 10.2443 18.4968 10.218C18.5264 10.1917 18.5623 10.172 18.6016 10.1604C18.6409 10.1488 18.6826 10.1456 18.7235 10.1511C18.7644 10.1565 18.8033 10.1705 18.8373 10.1919C18.9473 10.2744 18.961 10.4195 19.0003 10.5502C19.1219 10.8427 19.3299 11.0988 19.6013 11.2901C19.6762 11.3691 19.779 11.4217 19.8919 11.4388C20.0058 11.4388 20.1256 11.3331 20.0746 11.2418C20.0373 11.1791 19.9391 11.1432 19.9489 11.0734C19.9587 11.0035 20.1296 10.9927 20.163 10.9085C20.0962 10.6613 19.7859 10.5502 19.5483 10.4266C19.2561 10.2638 19.0337 10.0147 18.9178 9.72078C18.9068 9.69793 18.901 9.67321 18.901 9.64822C18.901 9.62323 18.9068 9.59852 18.9178 9.57567C18.9532 9.51296 19.0455 9.50401 19.1241 9.50401C19.3067 9.50401 19.5365 9.52371 19.6032 9.68316C19.6207 9.77133 19.6312 9.86054 19.6347 9.95009C19.6995 10.2099 20.0903 10.2385 20.3279 10.3926C20.4109 10.4634 20.501 10.527 20.597 10.5825C20.713 10.622 20.8365 10.6403 20.9603 10.6362C20.9819 10.6362 21.0389 10.6362 21.0605 10.6362C21.1351 10.7312 21.196 10.8154 21.2569 10.9175C21.3177 11.0196 21.3983 11.1271 21.4631 11.2292C21.7677 11.7142 22.014 12.2277 22.1976 12.761C22.2663 12.9401 22.3233 13.1497 22.3743 13.3432C22.4254 13.5367 22.4627 13.7176 22.498 13.9165C22.4248 13.7567 22.3727 13.5895 22.3429 13.4184C22.3168 13.2214 22.2217 13.0374 22.0719 12.8935Z" fill="#E0E0E0"/>
<path d="M14.802 9.32044C14.7195 9.2219 14.7431 9.08217 14.6901 8.96214C14.6036 8.78298 14.3287 8.70595 14.2344 8.52142C14.1971 8.44976 14.1893 8.36198 14.1245 8.31003C14.0596 8.25807 13.9929 8.25628 13.9281 8.21687C13.9012 8.19046 13.8812 8.15888 13.8696 8.12448C13.8579 8.09007 13.8549 8.05371 13.8608 8.0181C13.8666 7.98248 13.8812 7.94853 13.9034 7.91874C13.9256 7.88895 13.9548 7.8641 13.9889 7.84603C14.3287 7.64717 14.9532 7.87648 15.2458 8.06997C15.6229 8.31898 15.9921 8.61817 16.4949 8.5895C16.6302 8.5635 16.77 8.5635 16.9053 8.5895C17.035 8.63429 17.1155 8.81165 17.0035 8.88689C16.9427 8.9281 16.8543 8.91735 16.7836 8.94601C16.725 8.98309 16.6843 9.03921 16.6697 9.10284C16.6551 9.16648 16.6677 9.2328 16.705 9.28819C16.7679 9.40464 16.8818 9.49242 16.9564 9.6035C17.0287 9.71073 17.0611 9.83641 17.0487 9.9618C17.0473 10.0054 17.0364 10.0484 17.0165 10.0881C16.9966 10.1278 16.9681 10.1634 16.9328 10.1929C16.7757 10.3076 16.5401 10.2108 16.4065 10.0729C16.273 9.93492 16.1826 9.75936 16.0137 9.6662C15.9249 9.62366 15.8296 9.59347 15.7309 9.57662L15.077 9.43509C14.9739 9.42558 14.8773 9.38527 14.802 9.32044Z" fill="#E0E0E0"/>
<path d="M5.29601 15.1079C5.29601 14.9933 5.29601 14.8822 5.29601 14.7693C5.29601 14.6565 5.30779 14.5436 5.31958 14.4325C5.33136 14.3215 5.33921 14.2534 5.35296 14.1638C5.36671 14.0742 5.37849 13.9614 5.39616 13.87C5.44533 13.6017 5.5109 13.3362 5.59256 13.0746C5.62594 12.9725 5.67897 12.8614 5.71628 12.7611C5.7536 12.6607 5.79091 12.5586 5.83215 12.4583C5.87732 12.3831 5.92249 12.3096 5.97355 12.2362C6.45471 11.5411 7.1519 10.9964 7.68215 10.3318C7.85498 10.115 7.98852 9.93765 8.29489 9.89466C8.74659 9.83016 8.9744 10.0738 9.29649 9.6743C9.38093 9.57039 9.53216 9.47186 9.65981 9.53456L9.55965 9.78717C9.55474 9.80541 9.55474 9.82446 9.55965 9.8427C9.55965 9.90003 9.66177 9.91615 9.71676 9.88391C9.76566 9.84435 9.80626 9.797 9.83656 9.74417C9.87418 9.70003 9.9214 9.66348 9.97527 9.63682C10.0291 9.61016 10.0885 9.59396 10.1495 9.58924C10.2106 9.58453 10.2721 9.59141 10.3301 9.60944C10.3881 9.62747 10.4414 9.65626 10.4866 9.69401C10.492 9.65528 10.5081 9.61846 10.5336 9.58709C10.559 9.55571 10.5929 9.53084 10.6319 9.51486C10.6385 9.55242 10.6536 9.5883 10.6764 9.62016C10.6991 9.65203 10.729 9.67916 10.764 9.69978C10.799 9.7204 10.8384 9.73406 10.8796 9.73986C10.9208 9.74565 10.9629 9.74346 11.0031 9.73342C11.0306 9.65818 10.8814 9.64385 10.8283 9.57935C10.7753 9.51486 10.8382 9.43245 10.899 9.38049C11.0634 9.25121 11.2713 9.17722 11.4882 9.17089C11.6263 9.18706 11.7667 9.17167 11.8967 9.1261C11.9654 9.08848 12.0145 9.02578 12.0931 8.98995C12.1756 8.96359 12.2641 8.95633 12.3504 8.96884C12.4368 8.98135 12.5185 9.01322 12.588 9.06161C12.8103 9.14871 12.9889 9.30845 13.0888 9.50948C13.1634 9.7173 12.9984 9.99856 12.7589 9.97169C12.7005 9.95517 12.6391 9.94909 12.5782 9.95378C12.5378 9.97016 12.5037 9.99715 12.4803 10.0313C12.4569 10.0654 12.4451 10.1052 12.4466 10.1455C12.4525 10.2248 12.4391 10.3043 12.4073 10.3784C12.3661 10.4482 12.2423 10.4841 12.1932 10.4178C12.1469 10.361 12.1164 10.2948 12.1044 10.2249C12.0925 10.155 12.0993 10.0834 12.1245 10.0165C12.1735 9.88188 12.1622 9.73505 12.0931 9.60801C12.0008 9.49515 11.7396 9.53098 11.7573 9.67072C11.769 9.75313 11.8712 9.81404 11.8672 9.89824C11.8633 9.98244 11.7494 10.0272 11.6571 10.0236C11.5652 10.0079 11.4714 10.0037 11.3782 10.0111C11.2879 10.0308 11.2152 10.1401 11.28 10.201C11.3939 10.3192 11.6905 10.1168 11.7494 10.2637C11.7553 10.3035 11.7553 10.3439 11.7494 10.3837C11.7592 10.5056 11.9281 10.5503 12.0617 10.5629C12.1929 10.5857 12.3284 10.5764 12.4544 10.536C12.4853 10.5245 12.5134 10.5074 12.5369 10.4859C12.5605 10.4643 12.5792 10.4387 12.5918 10.4105C12.6044 10.3824 12.6107 10.3522 12.6104 10.3217C12.6101 10.2913 12.6031 10.2612 12.59 10.2333C12.6086 10.2243 12.6291 10.2191 12.6501 10.2178C12.6711 10.2165 12.6922 10.2192 12.7119 10.2258C12.7317 10.2324 12.7498 10.2427 12.765 10.256C12.7801 10.2693 12.7921 10.2853 12.8001 10.3031C12.829 10.376 12.8345 10.455 12.8158 10.5306C12.9572 10.502 13.0849 10.6113 13.1654 10.7205C13.2459 10.8298 13.3264 10.957 13.4639 10.9964C13.6014 11.0358 13.7958 10.9821 13.8685 11.0968C13.9627 11.2472 13.6897 11.4371 13.786 11.5858C13.841 11.67 13.9725 11.6665 14.0766 11.6933C14.1414 11.7171 14.1993 11.7544 14.2455 11.8021C14.2917 11.8499 14.325 11.9069 14.3427 11.9685C14.3605 12.0302 14.3622 12.0947 14.3477 12.1571C14.3332 12.2194 14.3029 12.2778 14.2593 12.3275C14.2093 12.3732 14.1499 12.4095 14.0845 12.4343C14.0191 12.459 13.9491 12.4718 13.8783 12.4718C13.8075 12.4718 13.7374 12.459 13.672 12.4343C13.6066 12.4095 13.5473 12.3732 13.4973 12.3275C13.3791 12.1835 13.2802 12.0272 13.2027 11.8617C13.1025 11.7095 12.914 11.5679 12.7255 11.6181C12.6526 11.6438 12.5859 11.6821 12.5291 11.731L12.2541 11.9423C12.1952 11.9871 12.1304 12.0445 12.1363 12.1215C12.1422 12.1985 12.1893 12.22 12.2109 12.2738C12.2679 12.4243 12.0283 12.5676 11.8771 12.4852C11.8072 12.4368 11.7612 12.3652 11.7491 12.286C11.7369 12.2068 11.7596 12.1264 11.8122 12.0624C11.9556 11.8832 12.2777 11.7919 12.2698 11.5697C12.1049 11.4479 11.8456 11.5697 11.7494 11.7489C11.6532 11.928 11.6512 12.1269 11.5707 12.306C11.4902 12.4852 11.2781 12.6357 11.0817 12.5461L11.229 12.0839C11.1092 12.0015 10.9697 12.2415 10.8264 12.2021C10.738 12.177 10.7282 12.0606 10.7655 11.9836C10.8155 11.9131 10.8557 11.8373 10.8853 11.7578C10.887 11.7198 10.8794 11.6819 10.8631 11.6469C10.8468 11.612 10.8221 11.5807 10.7909 11.5555C10.7597 11.5303 10.7227 11.5117 10.6826 11.5012C10.6426 11.4906 10.6004 11.4883 10.5593 11.4945C10.4764 11.5127 10.4014 11.5531 10.344 11.6106C10.2866 11.6681 10.2494 11.74 10.2372 11.8169C10.2321 11.8782 10.2176 11.9385 10.194 11.9961C10.1311 12.1161 9.96814 12.1537 9.83459 12.2039C9.70105 12.2541 9.55768 12.3831 9.61464 12.4995C9.64017 12.5533 9.70301 12.6034 9.67944 12.659C9.65588 12.7145 9.58125 12.7288 9.58125 12.7808C9.58125 12.8327 9.62053 12.8399 9.65784 12.8542C9.74818 12.8883 9.85423 12.899 9.93279 12.9384C9.97852 12.9539 10.0182 12.9814 10.0469 13.0174C10.0755 13.0535 10.0919 13.0964 10.0938 13.1409C10.084 13.2645 9.92101 13.32 9.84245 13.4293C9.79178 13.5391 9.75553 13.6539 9.73444 13.7715C9.6783 13.8707 9.60832 13.9628 9.52626 14.0456C9.30041 14.3268 9.24542 14.6905 9.13348 15.0255C9.08438 15.1778 8.99404 15.3462 8.82318 15.3838C8.7291 15.3901 8.63488 15.3734 8.5502 15.3355C8.29841 15.2661 8.06823 15.1434 7.87855 14.9772C7.787 14.8904 7.73159 14.7772 7.7219 14.6572C7.71222 14.5371 7.74888 14.4177 7.82552 14.3197C7.84543 14.2947 7.87485 14.2775 7.908 14.2713C7.95462 14.2735 7.99959 14.2878 8.03762 14.3125C8.10244 14.3341 8.17262 14.3384 8.24004 14.3251C8.30747 14.3118 8.36938 14.2814 8.41862 14.2373C8.51646 14.1482 8.5939 14.0422 8.64643 13.9255C8.71321 13.8019 8.78194 13.6783 8.84282 13.5529C8.79792 13.5269 8.74479 13.5152 8.6918 13.5197C8.63882 13.5243 8.58899 13.5448 8.5502 13.578C8.47641 13.6462 8.4106 13.7213 8.35381 13.8019C8.12933 14.023 7.81953 14.156 7.48969 14.1728C7.40632 14.1764 7.32411 14.1921 7.24617 14.2194C7.00461 14.3197 6.9339 14.6457 6.6786 14.7156C6.60483 14.7257 6.53198 14.7406 6.4606 14.7604C6.41249 14.7872 6.37127 14.8232 6.33975 14.8659C6.30824 14.9085 6.28717 14.9569 6.27796 15.0076C6.23933 15.1955 6.1855 15.3805 6.11692 15.5612C6.0822 15.6509 6.02051 15.7299 5.93889 15.7892C5.85728 15.8484 5.75904 15.8855 5.6554 15.8962C5.59097 15.896 5.52726 15.8839 5.46816 15.8605C5.40907 15.8371 5.35583 15.8029 5.31172 15.7601C5.3019 15.5809 5.28815 15.4018 5.28815 15.2351C5.29208 15.1796 5.29208 15.1438 5.29601 15.1079Z" fill="#E0E0E0"/>
<path d="M8.80058 18.3853C8.92824 18.4086 8.95377 18.4785 9.02447 18.5645C9.09517 18.6504 9.24639 18.7902 9.32888 18.903C9.47028 19.0929 9.34262 19.3885 9.52527 19.548C9.56692 19.5759 9.60691 19.6058 9.64506 19.6376C9.67893 19.6795 9.69339 19.732 9.68531 19.7836C9.67723 19.8352 9.64726 19.8818 9.60186 19.9135C9.55358 19.9419 9.49732 19.9571 9.43984 19.9571C9.38235 19.9571 9.32609 19.9419 9.27781 19.9135C9.18166 19.8563 9.11179 19.769 9.08142 19.668C9.06814 19.5937 9.03359 19.5238 8.98126 19.4656C8.87521 19.3814 8.71024 19.4441 8.5708 19.4262C7.98163 19.3563 8.23498 18.285 8.80058 18.3853Z" fill="#E0E0E0"/>
<path d="M8.60188 16.8966C8.26016 16.6279 8.12269 16.0188 8.54689 15.8772C8.70793 15.8235 8.89254 15.8665 9.05162 15.811C9.25979 15.7375 9.35798 15.5243 9.43261 15.3326C9.629 14.8292 9.82539 14.3276 10.0218 13.8242C10.1416 13.5214 10.3223 13.1703 10.6699 13.1255C10.8704 13.1282 11.0692 13.1596 11.259 13.2186C11.9346 13.3315 13.0737 11.8392 13.5882 12.8442C13.6589 12.5701 14.146 12.6651 14.3011 12.9159C14.4563 13.1667 14.4975 13.4802 14.7371 13.6486C14.9335 13.7758 15.2006 13.7848 15.3538 13.946C15.4484 14.0712 15.4978 14.2203 15.4952 14.3724C15.5207 14.659 15.5463 14.9474 15.5737 15.2341C15.6185 15.464 15.5878 15.7008 15.4854 15.9149C15.3597 16.1173 15.0317 16.2302 14.8432 16.0743C14.7696 15.9905 14.7039 15.9012 14.6468 15.8074C14.5887 15.739 14.51 15.6875 14.4204 15.6592C14.3308 15.6309 14.2341 15.627 14.1421 15.6479C13.9883 15.6952 13.8522 15.7808 13.7493 15.8952C12.8694 16.7604 12.5533 17.9912 12.514 19.1718C12.5243 19.3878 12.4924 19.6038 12.4197 19.8096C12.3176 20.0461 12.1035 20.236 12.0387 20.4832C11.9916 20.6713 12.0387 20.8809 11.9484 21.0565C11.7834 21.3825 11.2355 21.3951 10.9389 21.1622C10.6424 20.9293 10.5363 20.5531 10.4754 20.2001C10.4146 19.8472 10.3772 19.4728 10.1593 19.1754C9.99955 19.0085 9.8569 18.8286 9.73309 18.638C9.6015 18.3531 9.69774 18.0127 9.57597 17.7225C9.42279 17.3373 8.9436 17.1671 8.60188 16.8966Z" fill="#E0E0E0"/>
<path d="M56.6128 1.69203H89.082V48.5005H56.6128V1.69203Z" fill="#E0E0E0"/>
<path d="M57.6054 2.57103H88.2148V47.7313H57.6054V2.57103Z" fill="#F5F5F5"/>
<path d="M60.6908 5.20108H72.8965V22.4784H60.6908V5.20108Z" fill="white"/>
<path d="M66.1493 6.72544C66.1493 6.80765 66.176 6.88801 66.2261 6.95636C66.2762 7.02471 66.3473 7.07798 66.4306 7.10944C66.5138 7.1409 66.6054 7.14913 66.6938 7.13309C66.7822 7.11705 66.8634 7.07747 66.9271 7.01934C66.9908 6.96121 67.0342 6.88715 67.0518 6.80653C67.0694 6.72591 67.0603 6.64234 67.0259 6.56639C66.9914 6.49044 66.933 6.42553 66.8581 6.37986C66.7831 6.33419 66.695 6.30981 66.6049 6.30981C66.4841 6.30981 66.3682 6.3536 66.2827 6.43155C66.1973 6.5095 66.1493 6.61521 66.1493 6.72544Z" fill="#E0E0E0"/>
<path d="M72.9896 27.2872H85.1953V44.5645H72.9896V27.2872Z" fill="white"/>
<path d="M78.4501 28.8151C78.4497 28.8971 78.4759 28.9773 78.5254 29.0457C78.5749 29.1141 78.6455 29.1677 78.7282 29.1996C78.811 29.2315 78.9022 29.2404 78.9905 29.2252C79.0788 29.2099 79.1602 29.1712 79.2244 29.1138C79.2886 29.0565 79.3328 28.9831 79.3514 28.9029C79.3701 28.8227 79.3623 28.7393 79.329 28.6631C79.2958 28.587 79.2386 28.5215 79.1647 28.4749C79.0908 28.4283 79.0034 28.4027 78.9136 28.4012C78.8532 28.4003 78.7933 28.4103 78.7372 28.4306C78.6812 28.451 78.6301 28.4813 78.587 28.5198C78.5439 28.5583 78.5096 28.6042 78.4861 28.6549C78.4626 28.7056 78.4503 28.76 78.4501 28.8151Z" fill="#E0E0E0"/>
<path d="M74.9408 5.20108H85.3652V18.6929H74.9408V5.20108Z" fill="white"/>
<path d="M79.7791 6.42708C79.7787 6.49555 79.8006 6.56257 79.842 6.61967C79.8834 6.67676 79.9424 6.72136 80.0117 6.7478C80.0809 6.77425 80.1572 6.78135 80.2308 6.76821C80.3045 6.75507 80.3722 6.72229 80.4254 6.674C80.4786 6.62572 80.5149 6.56411 80.5297 6.49699C80.5445 6.42987 80.5371 6.36026 80.5084 6.29698C80.4798 6.23369 80.4312 6.17959 80.3689 6.14151C80.3065 6.10344 80.2331 6.08312 80.1581 6.08311C80.0579 6.08311 79.9618 6.1193 79.8908 6.18375C79.8197 6.24821 79.7796 6.33569 79.7791 6.42708Z" fill="#E0E0E0"/>
<path d="M60.2944 27.5231L71.4414 28.6709L70.7442 34.3052L59.5972 33.1574L60.2944 27.5231Z" fill="white"/>
<path d="M65.3492 29.1673C65.3492 29.2381 65.3722 29.3074 65.4154 29.3663C65.4586 29.4253 65.5199 29.4712 65.5917 29.4983C65.6634 29.5254 65.7424 29.5325 65.8186 29.5187C65.8948 29.5049 65.9648 29.4707 66.0197 29.4206C66.0747 29.3705 66.1121 29.3067 66.1272 29.2372C66.1424 29.1677 66.1346 29.0956 66.1049 29.0302C66.0751 28.9647 66.0248 28.9087 65.9602 28.8694C65.8956 28.83 65.8197 28.809 65.742 28.809C65.6378 28.809 65.5379 28.8467 65.4642 28.9139C65.3906 28.9811 65.3492 29.0722 65.3492 29.1673Z" fill="#E0E0E0"/>
<path d="M74.6268 31.2292C74.6268 31.2739 76.5436 31.3116 78.9081 31.3116C81.2727 31.3116 83.1875 31.2739 83.1875 31.2292C83.1875 31.1844 81.2727 31.1467 78.9081 31.1467C76.5436 31.1467 74.6268 31.1826 74.6268 31.2292Z" fill="#E0E0E0"/>
<path d="M74.6268 32.4651C74.6268 32.5099 76.5436 32.5475 78.9081 32.5475C81.2727 32.5475 83.1875 32.5099 83.1875 32.4651C83.1875 32.4203 81.2727 32.3827 78.9081 32.3827C76.5436 32.3827 74.6268 32.4186 74.6268 32.4651Z" fill="#E0E0E0"/>
<path d="M74.6268 33.7003C74.6268 33.745 76.5436 33.7827 78.9081 33.7827C81.2727 33.7827 83.1875 33.745 83.1875 33.7003C83.1875 33.6555 81.2727 33.6178 78.9081 33.6178C76.5436 33.6178 74.6268 33.6537 74.6268 33.7003Z" fill="#E0E0E0"/>
<path d="M74.6268 34.9359C74.6268 34.9807 76.5436 35.0183 78.9081 35.0183C81.2727 35.0183 83.1875 34.9807 83.1875 34.9359C83.1875 34.8911 81.2727 34.8499 78.9081 34.8499C76.5436 34.8499 74.6268 34.8893 74.6268 34.9359Z" fill="#E0E0E0"/>
<path d="M74.6268 36.174C74.6268 36.2188 76.5436 36.2564 78.9081 36.2564C81.2727 36.2564 83.1875 36.2188 83.1875 36.174C83.1875 36.1292 81.2727 36.0916 78.9081 36.0916C76.5436 36.0916 74.6268 36.1274 74.6268 36.174Z" fill="#E0E0E0"/>
<path d="M74.6268 37.4104C74.6268 37.4552 76.5436 37.4928 78.9081 37.4928C81.2727 37.4928 83.1875 37.4552 83.1875 37.4104C83.1875 37.3656 81.2727 37.328 78.9081 37.328C76.5436 37.328 74.6268 37.3602 74.6268 37.4104Z" fill="#E0E0E0"/>
<path d="M74.6268 38.6459C74.6268 38.6907 76.5436 38.7283 78.9081 38.7283C81.2727 38.7283 83.1875 38.6907 83.1875 38.6459C83.1875 38.6011 81.2727 38.5635 78.9081 38.5635C76.5436 38.5635 74.6268 38.5993 74.6268 38.6459Z" fill="#E0E0E0"/>
<path d="M61.3304 29.9047C61.3304 29.9495 63.2157 30.2308 65.5567 30.5318C67.8977 30.8327 69.8007 31.0406 69.8086 30.9958C69.8164 30.951 67.9232 30.6697 65.5822 30.3669C63.2413 30.0642 61.3382 29.8582 61.3304 29.9047Z" fill="#E0E0E0"/>
<path d="M61.1722 30.6768C61.1722 30.7234 63.0556 31.0047 65.3966 31.3057C67.7375 31.6066 69.6406 31.8144 69.6484 31.7679C69.6563 31.7213 67.7631 31.4418 65.4221 31.1408C63.0811 30.8399 61.1879 30.6321 61.1722 30.6768Z" fill="#E0E0E0"/>
<path d="M61.0179 31.3912C61.0179 31.436 62.9032 31.7173 65.2442 32.0183C67.5852 32.3192 69.4882 32.5271 69.4961 32.4823C69.5039 32.4375 67.6107 32.1562 65.2697 31.8552C62.9288 31.5543 61.0258 31.3465 61.0179 31.3912Z" fill="#E0E0E0"/>
<path d="M61.7692 8.81734C61.7692 8.86213 63.9295 8.89975 66.6043 8.89975C69.2791 8.89975 71.4414 8.86213 71.4414 8.81734C71.4414 8.77255 69.2811 8.73314 66.6043 8.73314C63.9275 8.73314 61.7692 8.77076 61.7692 8.81734Z" fill="#E0E0E0"/>
<path d="M61.7692 9.55211C61.7692 9.59869 63.9295 9.63452 66.6043 9.63452C69.2791 9.63452 71.4414 9.59869 71.4414 9.55211C71.4414 9.50553 69.2811 9.4697 66.6043 9.4697C63.9275 9.4697 61.7692 9.50553 61.7692 9.55211Z" fill="#E0E0E0"/>
<path d="M61.7692 10.2856C61.7692 10.3322 63.9295 10.3698 66.6043 10.3698C69.2791 10.3698 71.4414 10.3322 71.4414 10.2856C71.4414 10.239 69.2811 10.2032 66.6043 10.2032C63.9275 10.2032 61.7692 10.2408 61.7692 10.2856Z" fill="#E0E0E0"/>
<path d="M61.7692 11.0248C61.7692 11.0696 63.9295 11.1072 66.6043 11.1072C69.2791 11.1072 71.4414 11.0696 71.4414 11.0248C71.4414 10.98 69.2811 10.9406 66.6043 10.9406C63.9275 10.9406 61.7692 10.9765 61.7692 11.0248Z" fill="#E0E0E0"/>
<path d="M61.7692 11.7557C61.7692 11.8005 63.9295 11.8381 66.6043 11.8381C69.2791 11.8381 71.4414 11.8005 71.4414 11.7557C71.4414 11.711 69.2811 11.6715 66.6043 11.6715C63.9275 11.6715 61.7692 11.7092 61.7692 11.7557Z" fill="#E0E0E0"/>
<path d="M61.7692 12.4914C61.7692 12.5379 63.9295 12.5738 66.6043 12.5738C69.2791 12.5738 71.4414 12.5379 71.4414 12.4914C71.4414 12.4448 69.2811 12.409 66.6043 12.409C63.9275 12.409 61.7692 12.4466 61.7692 12.4914Z" fill="#E0E0E0"/>
<path d="M61.7692 13.2244C61.7692 13.271 63.9295 13.3086 66.6043 13.3086C69.2791 13.3086 71.4414 13.271 71.4414 13.2244C71.4414 13.1779 69.2811 13.142 66.6043 13.142C63.9275 13.142 61.7692 13.1725 61.7692 13.2244Z" fill="#E0E0E0"/>
<path d="M61.7692 15.4085C61.7692 15.4533 63.9295 15.4909 66.6043 15.4909C69.2791 15.4909 71.4414 15.4533 71.4414 15.4085C71.4414 15.3637 69.2811 15.3261 66.6043 15.3261C63.9275 15.3261 61.7692 15.3619 61.7692 15.4085Z" fill="#E0E0E0"/>
<path d="M61.7067 16.1841C61.7067 16.2307 63.867 16.2665 66.5438 16.2665C69.2206 16.2665 71.3789 16.2307 71.3789 16.1841C71.3789 16.1375 69.2186 16.1017 66.5438 16.1017C63.8689 16.1017 61.7067 16.1393 61.7067 16.1841Z" fill="#E0E0E0"/>
<path d="M61.6344 16.9585C61.6344 17.005 63.7947 17.0427 66.4696 17.0427C69.1444 17.0427 71.3047 17.005 71.3047 16.9585C71.3047 16.9119 69.1444 16.876 66.4696 16.876C63.7947 16.876 61.6344 16.9137 61.6344 16.9585Z" fill="#E0E0E0"/>
<path d="M61.568 17.738C61.568 17.7828 63.7283 17.8204 66.4031 17.8204C69.078 17.8204 71.2402 17.7828 71.2402 17.738C71.2402 17.6932 69.0799 17.6556 66.4031 17.6556C63.7263 17.6556 61.568 17.6914 61.568 17.738Z" fill="#E0E0E0"/>
<path d="M61.4938 18.5132C61.4938 18.5598 63.6541 18.5956 66.3309 18.5956C69.0077 18.5956 71.166 18.5598 71.166 18.5132C71.166 18.4666 69.0057 18.4308 66.3309 18.4308C63.656 18.4308 61.4938 18.4684 61.4938 18.5132Z" fill="#E0E0E0"/>
<path d="M61.4371 19.2893C61.4371 19.3359 63.5974 19.3735 66.2723 19.3735C68.9471 19.3735 71.1074 19.3359 71.1074 19.2893C71.1074 19.2427 68.9471 19.2069 66.2723 19.2069C63.5974 19.2069 61.4371 19.2445 61.4371 19.2893Z" fill="#E0E0E0"/>
<path d="M7.2294 62.791C7.2294 62.8137 25.6463 62.8331 48.359 62.8331C71.0718 62.8331 89.4922 62.8137 89.4922 62.791C89.4922 62.7683 71.0807 62.7538 48.3608 62.7538C25.6409 62.7538 7.2294 62.7667 7.2294 62.791Z" fill="#263238"/>
<path d="M66.1015 22.5578C65.7686 19.32 68.3916 16.4504 71.96 16.1483C75.5285 15.8463 78.6912 18.2261 79.0241 21.4639C79.3571 24.7017 76.7341 27.5713 73.1657 27.8734C69.5972 28.1754 66.4345 25.7956 66.1015 22.5578Z" fill="white"/>
<path d="M65.3869 24.0916C65.3869 24.0916 65.4315 24.1418 65.4886 24.2422C65.5653 24.3866 65.5921 24.5486 65.5654 24.707C65.5484 24.8147 65.5051 24.9176 65.4386 25.0082C65.3607 25.1113 65.2517 25.1917 65.1245 25.2398C64.9811 25.3016 64.8202 25.3222 64.6635 25.2987C64.5067 25.2752 64.3617 25.2087 64.2478 25.1082C64.134 25.0077 64.0567 24.878 64.0265 24.7365C63.9962 24.595 64.0144 24.4485 64.0787 24.3167C64.1283 24.2006 64.2139 24.1 64.325 24.0269C64.4236 23.9638 64.5363 23.9212 64.6551 23.9022C64.8283 23.8739 65.0068 23.8936 65.1674 23.9588C65.2816 24.0074 65.3316 24.0528 65.3458 24.0479C65.3353 24.0354 65.3227 24.0245 65.3084 24.0155C65.2941 24.0018 65.2779 23.9898 65.2602 23.9799C65.2374 23.9646 65.2128 23.9516 65.187 23.941C65.0228 23.8625 64.8346 23.8352 64.6516 23.8633C64.5237 23.8808 64.4018 23.9239 64.2946 23.9896C64.1732 24.0664 64.0794 24.174 64.0251 24.2989C63.9651 24.4356 63.9472 24.5845 63.9734 24.7297C63.9958 24.8884 64.0768 25.0357 64.2032 25.1474C64.3296 25.2591 64.4939 25.3288 64.6694 25.345C64.8306 25.3658 64.9949 25.3456 65.1442 25.2867C65.2801 25.2338 65.3961 25.146 65.4779 25.0341C65.5463 24.9359 65.5902 24.8254 65.6064 24.7102C65.6332 24.5429 65.5987 24.3722 65.5082 24.2244C65.4942 24.202 65.4787 24.1804 65.4618 24.1596C65.4476 24.1418 65.4333 24.1273 65.4226 24.1159C65.4113 24.1071 65.3994 24.099 65.3869 24.0916Z" fill="#263238"/>
<path d="M67.2971 18.4894C67.2971 18.4894 67.3221 18.4651 67.3667 18.4165L67.5666 18.1995L67.7112 18.0376C67.7683 17.9809 67.8361 17.9242 67.9075 17.861C67.9789 17.7979 68.0538 17.7283 68.1359 17.6554C68.1766 17.616 68.2207 17.5797 68.268 17.5469L68.4162 17.44C68.8994 17.0748 69.441 16.7783 70.0224 16.5607C70.7937 16.2666 71.6203 16.1104 72.4568 16.1008H72.8138C72.9316 16.1008 73.0512 16.1202 73.1707 16.1283L73.3492 16.1429C73.4092 16.1467 73.4688 16.1543 73.5277 16.1656L73.8953 16.2287C73.9578 16.2401 74.0203 16.2482 74.0738 16.2611L74.2523 16.3097L74.6271 16.4101C74.752 16.4473 74.8716 16.4975 74.9965 16.5413L75.175 16.6093L75.2678 16.6449L75.3571 16.687C75.6039 16.7972 75.8424 16.9221 76.071 17.0611C76.1852 17.1323 76.3083 17.1987 76.4279 17.2765L76.7617 17.5242C76.817 17.5679 76.8759 17.6068 76.9294 17.6521L77.0847 17.793C77.1864 17.8886 77.2953 17.9809 77.3952 18.0813C77.5931 18.2862 77.7762 18.5026 77.9432 18.729L78.0699 18.9023C78.0913 18.9314 78.1127 18.9606 78.1323 18.9897L78.1877 19.0837L78.4054 19.4577C78.4714 19.5857 78.5268 19.7201 78.5839 19.8528C78.6124 19.9192 78.6481 19.984 78.6713 20.0536L78.7409 20.2609C78.8359 20.5411 78.9098 20.8267 78.9623 21.1159C78.9801 21.2633 78.9962 21.4123 79.014 21.5613L79.0265 21.673C79.0265 21.7102 79.0265 21.7475 79.0265 21.7847V22.2382L79.0051 22.4649L78.9819 22.6916L78.9712 22.8066C78.9712 22.8438 78.9551 22.881 78.948 22.9199C78.9176 23.0705 78.8855 23.2211 78.8534 23.3733C78.8213 23.5255 78.7588 23.6713 78.7106 23.8203C78.2928 25.0318 77.4506 26.0865 76.3119 26.8242L75.8836 27.0816L75.4338 27.2922L75.3214 27.3456L75.2053 27.3893L74.9715 27.4768L74.7395 27.5626L74.5004 27.629L74.2612 27.6938L74.1434 27.7261L74.0221 27.7488L73.5402 27.8363C73.2196 27.876 72.8964 27.8965 72.5728 27.8978H72.3337C72.2534 27.8978 72.1748 27.8865 72.0963 27.8832C71.9393 27.8687 71.7804 27.8606 71.6269 27.8411L71.1682 27.7634L71.054 27.744L70.9416 27.7148L70.7221 27.6565C70.4322 27.5807 70.1484 27.4871 69.8725 27.3764C69.7369 27.3197 69.6084 27.2533 69.4763 27.1918L69.2818 27.0995C69.2193 27.0687 69.1604 27.0282 69.1033 26.9926L68.7463 26.7772C68.6303 26.7027 68.525 26.6153 68.4144 26.5375C68.1995 26.3791 67.9968 26.2076 67.8075 26.0242L67.7362 25.9594C67.713 25.9368 67.6933 25.9125 67.6701 25.8882L67.5434 25.7473C67.4613 25.6518 67.3649 25.5627 67.2953 25.4655L67.0794 25.1708C67.0437 25.1222 67.008 25.0736 66.9741 25.0251L66.883 24.8745L66.7046 24.5733C66.6741 24.5244 66.6478 24.4736 66.626 24.421L66.5564 24.2688C66.5118 24.1668 66.4636 24.0664 66.4226 23.966C66.3815 23.8656 66.353 23.762 66.3191 23.6616C66.0819 22.9347 66.0019 22.1732 66.0835 21.4188C66.0835 21.3362 66.0978 21.2568 66.1067 21.1742L66.1549 20.9411C66.1709 20.8649 66.1852 20.7905 66.2013 20.716C66.2013 20.6803 66.2138 20.6431 66.2245 20.6075C66.2352 20.5718 66.2459 20.5378 66.2584 20.5038C66.3012 20.3662 66.3441 20.235 66.3833 20.1103C66.4226 19.9856 66.485 19.8723 66.5297 19.7622L66.6011 19.6002C66.6211 19.5494 66.6456 19.5002 66.6742 19.4529C66.726 19.3606 66.776 19.2731 66.8224 19.1938C66.8688 19.1144 66.908 19.0318 66.9509 18.9719L67.0758 18.7986L67.2454 18.5606L67.3007 18.4796L67.24 18.5574L67.0615 18.7922L66.9348 18.9654C66.8902 19.0302 66.8509 19.1063 66.8027 19.1857C66.7545 19.265 66.7046 19.3476 66.651 19.4448C66.6218 19.492 66.5967 19.5413 66.5761 19.5921L66.5047 19.7541C66.4583 19.8642 66.3994 19.9775 66.3548 20.1022L66.2263 20.4973C66.2156 20.5314 66.2031 20.567 66.1923 20.6026C66.1816 20.6382 66.1763 20.6739 66.1674 20.7111C66.1531 20.784 66.137 20.8601 66.121 20.9362C66.1049 21.0123 66.0888 21.0981 66.071 21.171C66.0531 21.2439 66.0549 21.3329 66.046 21.4171C65.962 22.1754 66.0395 22.9412 66.2744 23.6729C66.3078 23.7733 66.3417 23.8753 66.3762 23.979C66.4172 24.081 66.4672 24.1814 66.5118 24.2834L66.5814 24.4453C66.6034 24.4975 66.629 24.5484 66.6582 24.5976L66.8366 24.9004C66.867 24.9522 66.8955 25.004 66.9277 25.0623L67.0348 25.2097L67.2507 25.506C67.3275 25.6048 67.4167 25.6939 67.5006 25.791L67.6273 25.9335C67.6505 25.9562 67.6701 25.9821 67.6933 26.0048L67.7665 26.0712C67.9563 26.2556 68.1596 26.4282 68.3751 26.5877C68.4858 26.6687 68.5928 26.7497 68.7106 26.8306L69.0676 27.0493C69.1283 27.0849 69.1872 27.1237 69.2461 27.1561L69.4424 27.2501C69.5745 27.3116 69.7047 27.378 69.8404 27.4363C70.1187 27.5478 70.4049 27.6425 70.6971 27.7197L70.9202 27.7796L71.0308 27.8087L71.1468 27.8282L71.6091 27.9075C71.7661 27.9269 71.925 27.935 72.0838 27.9496C72.1623 27.9496 72.2427 27.9658 72.323 27.9642H72.5639C72.8899 27.9643 73.2154 27.9443 73.5384 27.9043L74.0256 27.8152L74.1488 27.7925L74.2684 27.7602L74.5093 27.6938L74.7502 27.629L74.9858 27.5415L75.2196 27.4541L75.3392 27.4104L75.4516 27.3553L75.9157 27.1302L76.3476 26.8695C77.5082 26.1308 78.3707 25.0679 78.8034 23.8429C78.8522 23.6907 78.9004 23.5401 78.948 23.3911C78.9801 23.2292 79.0122 23.0851 79.0426 22.9329C79.0426 22.894 79.0586 22.8567 79.0658 22.8179L79.0765 22.7029L79.0997 22.473L79.1211 22.2446V21.7864C79.1211 21.7475 79.1211 21.7102 79.1211 21.673L79.1086 21.5596C79.0908 21.409 79.0729 21.2601 79.0568 21.1111C79.0024 20.8198 78.9272 20.5321 78.832 20.2496L78.7606 20.0391C78.7392 19.9694 78.7017 19.9047 78.6731 19.8367C78.6107 19.7039 78.5553 19.5678 78.4946 19.4383L78.2733 19.061L78.218 18.9671C78.1984 18.9379 78.1752 18.9088 78.1555 18.8796L78.027 18.7031C77.8512 18.4734 77.6599 18.2538 77.4541 18.0456C77.3524 17.9452 77.2435 17.8529 77.14 17.7558L76.983 17.6149C76.9294 17.5679 76.8705 17.5291 76.8152 17.487L76.4779 17.2376C76.3637 17.1582 76.2405 17.0918 76.1209 17.019C75.889 16.8795 75.6469 16.7545 75.3963 16.6449L75.3124 16.6044C75.2821 16.5915 75.2482 16.5817 75.2178 16.5704L75.0287 16.5008C74.9037 16.4571 74.7824 16.4069 74.6556 16.3696L74.2791 16.2708L74.1006 16.2206L73.9114 16.1882L73.5277 16.1186C73.4687 16.1085 73.4091 16.1015 73.3492 16.0976L73.1707 16.083C73.0476 16.0749 72.928 16.0619 72.8138 16.0571H72.4568C71.6172 16.0703 70.7882 16.2303 70.0153 16.5283C69.4328 16.7495 68.8911 17.0504 68.409 17.4206L68.2627 17.5291C68.2154 17.5618 68.1712 17.5981 68.1306 17.6376L67.9021 17.8465C67.8325 17.9112 67.7647 17.9679 67.7094 18.0262C67.6541 18.0845 67.6077 18.1396 67.5648 18.1882L67.3703 18.4084L67.2971 18.4894Z" fill="#263238"/>
<path d="M35.5246 9.42027C35.1835 5.55133 38.3637 2.16403 42.6278 1.85451C46.8919 1.545 50.6252 4.43048 50.9663 8.29942C51.3074 12.1684 48.1272 15.5557 43.8631 15.8652C39.599 16.1747 35.8658 13.2892 35.5246 9.42027Z" fill="#407BFF"/>
<path d="M38.1738 13.4488C35.4451 10.9729 35.4451 6.95881 38.1738 4.48298C40.9025 2.00714 45.3266 2.00714 48.0553 4.48298C50.784 6.95881 50.784 10.9729 48.0553 13.4488C45.3266 15.9246 40.9025 15.9246 38.1738 13.4488Z" fill="#FAFAFA"/>
<path d="M50.1729 8.58767C50.1729 8.58767 50.1729 8.6233 50.1729 8.69131V8.99413C50.1729 9.06052 50.1729 9.13663 50.1729 9.2176C50.1729 9.29857 50.1551 9.38925 50.1479 9.48642C50.1408 9.58358 50.1265 9.68722 50.1158 9.79895C50.1051 9.91069 50.0712 10.0273 50.0498 10.152C49.9292 10.7573 49.7084 11.3426 49.3948 11.8879C48.9867 12.613 48.4279 13.2597 47.7492 13.7923L47.4672 14.0141C47.3655 14.0838 47.2584 14.1485 47.1513 14.2165C47.0463 14.2879 46.9373 14.3544 46.8247 14.4157L46.4678 14.5955L46.2893 14.6862L46.1001 14.7607L45.7164 14.9226C45.5861 14.9712 45.4487 15.0052 45.313 15.0473C45.177 15.0921 45.0382 15.1294 44.8972 15.159C44.609 15.2251 44.3162 15.2738 44.0209 15.3048C43.871 15.3177 43.7193 15.3404 43.5658 15.3469H43.1035C43.025 15.3469 42.9465 15.3469 42.8697 15.3469L42.6341 15.329C42.4771 15.3145 42.3182 15.3064 42.1594 15.2869C41.8392 15.2416 41.5226 15.1773 41.2117 15.0942L40.9743 15.0311C40.9351 15.0214 40.894 15.0117 40.8547 14.9987L40.7405 14.9566L40.2747 14.7947C40.123 14.7299 39.9749 14.6554 39.8232 14.5841C39.7482 14.5469 39.6697 14.5161 39.5983 14.474L39.3841 14.3461C39.0914 14.1762 38.8117 13.9885 38.5471 13.7842C38.4221 13.6724 38.2954 13.5623 38.1669 13.4506L38.0723 13.3664L37.9849 13.2757L37.8064 13.0911L37.6279 12.9049L37.4726 12.7057L37.3174 12.5049L37.2388 12.4029C37.2156 12.3689 37.1942 12.3316 37.171 12.296L36.9015 11.8636L36.6784 11.407C36.4024 10.775 36.2321 10.1091 36.1733 9.43136C36.1363 8.74842 36.2133 8.06434 36.4018 7.40231L36.5571 6.9165C36.6249 6.76266 36.6927 6.60882 36.7623 6.4566L36.8123 6.34163L36.8765 6.23151L37.0015 6.01452L37.1157 5.804L37.271 5.59349L37.4173 5.38945L37.4905 5.28905L37.5726 5.19351C37.6832 5.06882 37.7921 4.94251 37.901 4.81782C38.1346 4.58447 38.3844 4.36487 38.6488 4.16036L38.8433 4.00976C38.9094 3.95794 38.9825 3.91908 39.0504 3.87211C39.1913 3.78629 39.327 3.69237 39.468 3.6114L39.9053 3.38793L40.0123 3.33125L40.1266 3.28591L40.3514 3.19361C40.6487 3.07529 40.9539 2.97415 41.2652 2.89079C41.4187 2.85192 41.5758 2.82601 41.7293 2.79362L41.9595 2.74828C42.0362 2.73371 42.1148 2.72885 42.1915 2.72075L42.6484 2.67865C42.8019 2.66731 42.9536 2.67865 43.1053 2.66731C43.4034 2.66264 43.7016 2.67616 43.9977 2.7078C44.1417 2.72079 44.2847 2.74134 44.426 2.76933C44.567 2.79524 44.7098 2.81306 44.8454 2.84544L45.247 2.95232L45.4469 3.00414L45.6361 3.07215L46.0109 3.2098C46.134 3.2519 46.2465 3.31668 46.3678 3.37173C46.4892 3.42679 46.5981 3.47861 46.7087 3.53367L47.0264 3.7199C47.7757 4.16834 48.4228 4.74341 48.9325 5.41374C49.3196 5.91707 49.6205 6.47069 49.8249 7.05576C49.8708 7.16755 49.9095 7.28163 49.9409 7.39745C49.9695 7.50756 49.9945 7.60958 50.0177 7.70513C50.0409 7.80067 50.0658 7.88649 50.0819 7.96746C50.098 8.04843 50.1033 8.1294 50.1123 8.18931C50.1301 8.32048 50.1444 8.42088 50.1533 8.49051C50.1622 8.56014 50.1711 8.59253 50.1711 8.59253C50.1711 8.59253 50.1711 8.55691 50.1711 8.48889C50.1711 8.42088 50.1515 8.32696 50.1355 8.18769C50.1283 8.12184 50.1194 8.04735 50.1087 7.96422C50.0962 7.88325 50.0712 7.80229 50.0498 7.70027C50.0284 7.59825 50.0034 7.50109 49.9766 7.39097C49.945 7.27484 49.9069 7.16026 49.8624 7.04767C49.6609 6.457 49.3599 5.89818 48.97 5.39107C48.4607 4.71337 47.8116 4.13156 47.0585 3.67779L46.7337 3.48833C46.6231 3.43003 46.5053 3.37821 46.391 3.32639C46.2768 3.27457 46.159 3.20818 46.0341 3.16446L45.6575 3.02681L45.4665 2.95718L45.2666 2.90374L44.8597 2.79524C44.7223 2.76286 44.5795 2.74504 44.4385 2.71752C44.2956 2.68821 44.1507 2.66712 44.0048 2.65436C43.7088 2.62162 43.4106 2.60756 43.1125 2.61226C42.959 2.61226 42.8055 2.61226 42.6502 2.62197L42.1862 2.67217C42.1076 2.67217 42.0291 2.68513 41.9524 2.69808L41.7186 2.74504C41.5633 2.77743 41.4044 2.80334 41.2492 2.8422C40.9357 2.92405 40.6281 3.02356 40.3282 3.14017L40.0998 3.23247C40.0623 3.24866 40.023 3.26162 39.9856 3.27943L39.8767 3.33449L39.4341 3.5612C39.2913 3.64379 39.1539 3.73609 39.0129 3.82515C38.9407 3.86774 38.871 3.91368 38.8041 3.9628L38.606 4.12473C38.3377 4.33051 38.0849 4.55231 37.8492 4.78867C37.7386 4.9139 37.6279 5.04021 37.5173 5.1676L37.4334 5.26314L37.3584 5.36516L37.2121 5.57082L37.0639 5.77647L36.9372 5.99509L36.8105 6.21694L36.7462 6.32706L36.6945 6.44203L36.4874 6.9084C36.4357 7.07034 36.3821 7.23228 36.3304 7.39421C36.1449 8.06104 36.0715 8.74948 36.1126 9.43622C36.17 10.1178 36.3403 10.7876 36.6177 11.4232L36.8426 11.8863L37.1157 12.3235L37.1835 12.432L37.262 12.534L37.4209 12.7365L37.5779 12.9389L37.7564 13.1251L37.9349 13.3113L38.0241 13.4053L38.1205 13.4895L38.5042 13.8263C38.7723 14.0322 39.0549 14.2221 39.3502 14.3947L39.5679 14.5226C39.6393 14.5647 39.7196 14.5971 39.7946 14.6343C39.9481 14.704 40.098 14.7817 40.2515 14.8449L40.7227 15.0165L40.8387 15.0602L40.9583 15.0926L41.1974 15.1558C41.5118 15.2392 41.832 15.3036 42.1558 15.3485C42.3164 15.3679 42.4771 15.376 42.6359 15.389L42.8733 15.4084C42.9518 15.4084 43.0321 15.4084 43.1107 15.4084H43.5783C43.7318 15.4084 43.8835 15.3792 44.0352 15.3647C44.3359 15.3331 44.6341 15.2833 44.9275 15.2157C45.0696 15.1853 45.2097 15.1474 45.347 15.1023C45.4826 15.0586 45.6218 15.0246 45.7539 14.976L46.1412 14.8141L46.3304 14.738L46.5088 14.6457L46.8658 14.4643C46.9836 14.406 47.0871 14.3283 47.196 14.2635C47.3048 14.1987 47.4101 14.1275 47.5119 14.0579L47.801 13.8328C48.4756 13.2926 49.0288 12.6394 49.4305 11.909C49.7425 11.3592 49.9604 10.7694 50.0766 10.1601C50.1061 10.0425 50.1287 9.92357 50.1444 9.80381C50.1533 9.69207 50.164 9.58681 50.1729 9.48965C50.1819 9.39249 50.1908 9.30181 50.1926 9.22084C50.1944 9.13987 50.1926 9.05891 50.1926 8.99575C50.1926 8.86458 50.1926 8.76256 50.1836 8.69293C50.1747 8.6233 50.1729 8.58767 50.1729 8.58767Z" fill="#263238"/>
<path d="M39.9302 9.14109C40.0123 9.15207 40.0953 9.15694 40.1783 9.15567L40.8619 9.16862C41.4419 9.16862 42.2486 9.18158 43.1606 9.18158H43.207V8.72816C43.207 7.8035 43.207 6.96792 43.1928 6.36228C43.1928 6.07079 43.182 5.82951 43.1785 5.6449C43.1811 5.55715 43.1751 5.46936 43.1606 5.38257C43.1473 5.46947 43.1413 5.55717 43.1428 5.6449C43.1428 5.82951 43.1428 6.07079 43.1285 6.36228C43.1285 6.96792 43.116 7.8035 43.116 8.72816V9.14109L43.1606 9.10061C42.2486 9.10061 41.4419 9.10061 40.8619 9.11356L40.1783 9.12652C40.0953 9.12524 40.0123 9.13011 39.9302 9.14109Z" fill="#263238"/>
<path d="M43.1435 3.61501C43.099 3.79008 43.084 3.97025 43.0989 4.1494C43.084 4.32909 43.0991 4.50978 43.1435 4.68541C43.1891 4.50994 43.2047 4.32917 43.1899 4.1494C43.2047 3.97017 43.189 3.78994 43.1435 3.61501Z" fill="#263238"/>
<path d="M39.9409 4.47534C40.0436 4.62648 40.1712 4.76247 40.3193 4.87856C40.4472 5.01291 40.5971 5.12868 40.7637 5.22186C40.6607 5.07045 40.5324 4.93444 40.3835 4.81865C40.2564 4.68413 40.1071 4.56832 39.9409 4.47534Z" fill="#263238"/>
<path d="M38.0801 6.33061C38.2252 6.44554 38.3852 6.54398 38.5566 6.62372C38.717 6.73005 38.8907 6.81866 39.0742 6.88767C38.7922 6.6396 38.4525 6.45202 38.0801 6.33871V6.33061Z" fill="#263238"/>
<path d="M36.9816 9.08596C37.5154 9.13969 38.0541 9.13969 38.5879 9.08596C38.0542 9.03008 37.5153 9.03008 36.9816 9.08596Z" fill="#263238"/>
<path d="M48.1259 8.99281C48.631 9.04679 49.1414 9.04679 49.6465 8.99281C49.1415 8.93663 48.6308 8.93663 48.1259 8.99281Z" fill="#263238"/>
<path d="M47.348 11.0374C47.5182 11.2152 47.7111 11.3739 47.9227 11.5103C48.114 11.6686 48.3255 11.8056 48.5527 11.9184C48.3829 11.7408 48.1906 11.5821 47.9798 11.4455C47.7873 11.2878 47.5753 11.1508 47.348 11.0374Z" fill="#263238"/>
<path d="M45.3886 12.623C45.5011 12.837 45.6318 13.0428 45.7795 13.2384C45.9014 13.4483 46.0404 13.6496 46.1953 13.8408C46.1204 13.6104 46.0066 13.3919 45.858 13.193C45.7348 12.9822 45.5765 12.7899 45.3886 12.623Z" fill="#263238"/>
<path d="M43.1434 14.6678C43.1892 14.4267 43.2048 14.1817 43.1898 13.9375C43.2048 13.6932 43.1892 13.4482 43.1434 13.2071C43.0988 13.4483 43.0838 13.6933 43.0988 13.9375C43.0837 14.1817 43.0987 14.4266 43.1434 14.6678Z" fill="#263238"/>
<path d="M39.6691 13.6899C39.9117 13.5896 40.1338 13.4527 40.3259 13.285C40.5367 13.1335 40.7178 12.9506 40.8613 12.7442C40.6513 12.8961 40.4505 13.0583 40.2599 13.23C40.054 13.3735 39.8568 13.527 39.6691 13.6899Z" fill="#263238"/>
<path d="M38.038 12.1055C38.2357 11.9847 38.4156 11.8416 38.5734 11.6796C38.7518 11.5367 38.909 11.3734 39.041 11.1938C38.8439 11.3152 38.664 11.4582 38.5056 11.6197C38.3276 11.7629 38.1705 11.9262 38.038 12.1055Z" fill="#263238"/>
<path d="M47.4069 7.02409C47.5828 6.92239 47.7416 6.79802 47.8781 6.65488C48.0352 6.5315 48.1716 6.38803 48.2832 6.22899C48.1079 6.33021 47.9498 6.45404 47.8138 6.59658C47.6561 6.72044 47.519 6.86445 47.4069 7.02409Z" fill="#263238"/>
<path d="M45.4084 5.10549C45.5788 5.00526 45.7316 4.88244 45.8618 4.74113C46.0167 4.62069 46.1509 4.47987 46.2598 4.32334C46.0872 4.42206 45.9314 4.54318 45.7975 4.68284C45.6458 4.80576 45.5147 4.94815 45.4084 5.10549Z" fill="#263238"/>
<path d="M49.3732 9.02888C49.3732 7.41297 48.6929 5.85809 47.4714 4.68211C46.25 3.50612 44.5796 2.79785 42.8018 2.70206C42.9392 2.70206 43.0766 2.68911 43.2158 2.68911C44.1334 2.68911 45.042 2.85309 45.8897 3.1717C46.7375 3.4903 47.5078 3.95728 48.1566 4.54599C48.8054 5.13469 49.3201 5.83358 49.6712 6.60276C50.0224 7.37193 50.2031 8.19633 50.2031 9.02888C50.2031 9.86143 50.0224 10.6858 49.6712 11.455C49.3201 12.2242 48.8054 12.9231 48.1566 13.5118C47.5078 14.1005 46.7375 14.5675 45.8897 14.8861C45.042 15.2047 44.1334 15.3687 43.2158 15.3687C43.0766 15.3687 42.9392 15.3687 42.8018 15.3573C44.5796 15.2608 46.2497 14.552 47.4711 13.3759C48.6924 12.1997 49.3728 10.6448 49.3732 9.02888Z" fill="#E0E0E0"/>
<path d="M49.3282 65.7006L62.5586 65.5532L56.2566 72.0436H40.4544L49.3282 65.7006Z" fill="#F5F5F5"/>
<path d="M47.1484 65.0582L60.377 64.9092L54.0768 71.3996H38.2728L47.1484 65.0582Z" fill="#EBEBEB"/>
<path d="M50.789 63.9109L64.0176 63.7635L57.7174 70.2539H41.9134L50.789 63.9109Z" fill="#EBEBEB"/>
<path d="M62.2925 63.2163L62.4121 64.3612L56.0388 70.7917L40.3008 70.7107V69.7067L62.2925 63.2163Z" fill="#E0E0E0"/>
<path d="M49.0546 63.3637L62.2832 63.2163L55.983 69.7067H40.1791L49.0546 63.3637Z" fill="white"/>
<path d="M49.0738 63.3645L48.9096 63.4762L48.4349 63.8082L46.6323 65.0842L40.175 69.6799C40.1712 69.6831 40.1681 69.687 40.166 69.6913C40.1639 69.6956 40.1628 69.7003 40.1628 69.705C40.1628 69.7098 40.1639 69.7144 40.166 69.7188C40.1681 69.7231 40.1712 69.727 40.175 69.7301C40.1788 69.7341 40.1834 69.7373 40.1887 69.7396C40.1939 69.7418 40.1996 69.743 40.2054 69.7431H53.8391H55.9951C56.0016 69.7434 56.0081 69.7423 56.0141 69.7397C56.02 69.7372 56.0251 69.7333 56.029 69.7285L62.3256 63.2414C62.3295 63.2381 62.3326 63.234 62.3347 63.2296C62.3368 63.2251 62.3379 63.2203 62.3379 63.2155C62.3379 63.2106 62.3368 63.2058 62.3347 63.2014C62.3326 63.1969 62.3295 63.1929 62.3256 63.1896C62.3183 63.1834 62.3088 63.1799 62.2988 63.1799L52.7165 63.3029L50.0215 63.3434L49.3076 63.3564H49.1291H49.0684C49.0892 63.3578 49.1101 63.3578 49.1309 63.3564H50.0233L52.72 63.3353L62.2917 63.2446L62.2613 63.1831L55.9576 69.6702L55.9915 69.6557H53.8212H40.1875L40.2125 69.7188L46.6376 65.1053L48.4224 63.8098L48.8917 63.4665C49.0131 63.4033 49.0738 63.3645 49.0738 63.3645Z" fill="#263238"/>
<path d="M44.6149 68.1546C44.6149 68.1789 47.0332 68.1967 50.0155 68.1967C52.9978 68.1967 55.418 68.1789 55.418 68.1546C55.418 68.1303 52.9996 68.1125 50.0155 68.1125C47.0314 68.1125 44.6149 68.1319 44.6149 68.1546Z" fill="#263238"/>
<path d="M45.65 67.5596C45.65 67.5839 48.0684 67.6017 51.0507 67.6017C54.033 67.6017 56.4531 67.5839 56.4531 67.5596C56.4531 67.5353 54.0348 67.5175 51.0507 67.5175C48.0666 67.5175 45.65 67.537 45.65 67.5596Z" fill="#263238"/>
<path d="M46.2303 66.9099C46.2303 66.9326 48.6486 66.952 51.6327 66.952C54.6168 66.952 57.0352 66.9326 57.0352 66.9099C57.0352 66.8873 54.6168 66.8678 51.6327 66.8678C48.6486 66.8678 46.2303 66.8856 46.2303 66.9099Z" fill="#263238"/>
<path d="M47.2067 66.2581C47.2067 66.2807 49.625 66.3002 52.6073 66.3002C55.5896 66.3002 58.0098 66.2807 58.0098 66.2581C58.0098 66.2354 55.5914 66.216 52.6073 66.216C49.6232 66.216 47.2067 66.2354 47.2067 66.2581Z" fill="#263238"/>
<path d="M47.9684 65.5534C47.9684 65.5761 50.3867 65.5955 53.369 65.5955C56.3514 65.5955 58.7715 65.5761 58.7715 65.5534C58.7715 65.5307 56.3531 65.5081 53.3673 65.5081C50.3814 65.5081 47.9684 65.5307 47.9684 65.5534Z" fill="#263238"/>
<path d="M56.0376 70.7924C56.0805 70.6066 56.0937 70.4163 56.0769 70.2272C56.0895 70.0374 56.0709 69.8469 56.0216 69.662C55.9658 70.0386 55.9713 70.4205 56.0376 70.7956V70.7924Z" fill="#263238"/>
<path d="M71.0723 62.792V56.2774C71.0718 55.3143 70.6498 54.3909 69.8991 53.71C69.1484 53.0292 68.1305 52.6468 67.0691 52.6468H45.1166C44.0561 52.6481 43.0396 53.0311 42.29 53.7118C41.5405 54.3924 41.1192 55.3152 41.1188 56.2774L41.2259 62.792H71.0723Z" fill="#455A64"/>
<path d="M71.0772 62.7915H72.7031V57.276C72.7031 57.0801 72.6174 56.8923 72.4648 56.7538C72.3121 56.6154 72.1051 56.5376 71.8893 56.5376C71.6737 56.538 71.4672 56.616 71.315 56.7544C71.1627 56.8928 71.0772 57.0804 71.0772 57.276V62.7915Z" fill="#E0E0E0"/>
<path d="M71.0685 62.7904C71.0685 62.7904 71.0685 62.7759 71.0685 62.7483V62.6334C71.0685 62.5265 71.0685 62.3808 71.0685 62.1961C71.0685 61.814 71.0685 61.2715 71.0846 60.6043C71.1007 59.9371 71.0846 59.1388 71.0971 58.2579C71.0971 58.036 71.0971 57.8109 71.0971 57.5794C71.0971 57.466 71.0971 57.3446 71.0971 57.2328C71.1035 57.1182 71.1415 57.0068 71.2077 56.909C71.2754 56.8081 71.3702 56.7245 71.4832 56.6661C71.5962 56.6076 71.7237 56.5762 71.8538 56.5747C71.9839 56.5733 72.1123 56.6018 72.2269 56.6577C72.3414 56.7137 72.4385 56.7951 72.5088 56.8944C72.5939 57.0167 72.6362 57.1595 72.6302 57.3041V57.751C72.6302 58.0457 72.6302 58.3356 72.6302 58.619C72.6302 59.1858 72.6302 59.7266 72.6302 60.2383C72.6302 61.2488 72.6409 62.1217 72.6445 62.7921L72.6712 62.7662L71.4808 62.7807H71.1595H71.0453C71.0798 62.7831 71.1144 62.7831 71.1488 62.7807H71.463L72.6712 62.7937H72.6998V62.7678C72.6998 62.0974 72.6998 61.2245 72.7123 60.2141C72.7123 59.7072 72.7123 59.1663 72.7123 58.5947V57.2798C72.7167 57.1731 72.697 57.0666 72.6543 56.9671C72.6116 56.8676 72.5468 56.7771 72.464 56.7012C72.3812 56.6253 72.2821 56.5656 72.1728 56.5259C72.0636 56.4861 71.9465 56.4672 71.8288 56.4701C71.6846 56.4733 71.5436 56.5093 71.4189 56.575C71.2941 56.6407 71.1896 56.7338 71.1149 56.8458C71.0409 56.9536 70.9985 57.0768 70.9918 57.2037C70.9918 57.3267 70.9918 57.4417 70.9918 57.5583C70.9918 57.7915 70.9918 58.0198 70.9918 58.2433C70.9918 59.1323 71.0007 59.9323 71.0043 60.6076C71.0078 61.2828 71.0168 61.8124 71.0203 62.1945C71.0203 62.3743 71.0203 62.5184 71.0203 62.6204C71.0301 62.6784 71.0463 62.7354 71.0685 62.7904Z" fill="#263238"/>
<path d="M39.6019 62.7915H41.2207V57.276C41.2207 57.0804 41.1352 56.8928 40.983 56.7544C40.8307 56.616 40.6242 56.538 40.4086 56.5376C40.1928 56.5376 39.9858 56.6154 39.8332 56.7538C39.6805 56.8923 39.5948 57.0801 39.5948 57.276L39.6019 62.7915Z" fill="#E0E0E0"/>
<path d="M67.6992 62.7918L67.3084 52.6385C67.3084 52.6385 65.504 51.3009 62.9375 52.6385L64.8525 62.7918H67.6992Z" fill="#263238"/>
<path d="M62.1191 21.224L62.0763 12.6414L57.1861 11.7929L56.2063 20.0046C56.2063 20.0046 58.7549 23.8765 62.1191 21.224Z" fill="#FFBF9D"/>
<path d="M62.0865 12.791C62.0865 12.791 62.6219 12.1676 62.281 10.1045C61.9401 8.04148 61.5028 6.29095 61.0977 5.75495L60.8175 5.38735C60.8175 5.38735 60.4748 4.03195 59.8216 3.09921C59.1684 2.16646 58.7936 1.63045 58.3581 1.74381C57.9226 1.85716 58.0779 2.16646 58.2028 2.47737C58.3278 2.78829 59.47 4.93555 59.3808 5.24647C59.2915 5.55739 59.1059 5.30315 59.0113 5.04891C58.9167 4.79467 58.1404 3.18341 57.1748 2.13407C56.2093 1.08473 56.054 1.06044 55.6185 1.08959C55.183 1.11874 55.2616 1.55596 55.4258 1.81344L55.9255 2.65388C55.9255 2.65388 54.5905 0.822395 53.8124 1.08311C53.0342 1.34383 54.0622 2.38831 54.0622 2.38831C54.0622 2.38831 55.026 3.52186 55.4008 4.1113C55.7756 4.70075 56.3663 5.72094 56.3663 5.72094C56.3663 5.72094 54.7154 4.19551 54.28 3.91374C53.8445 3.63197 52.7843 2.27496 52.1008 2.84011C51.4172 3.40526 54.7779 6.11444 55.2437 6.92088L55.7113 7.53462L56.054 8.43822C55.8178 8.18108 55.5144 7.98173 55.1715 7.8584C54.8285 7.73506 54.457 7.69167 54.0908 7.73218C52.7825 7.84553 53.873 8.60825 54.2157 8.89002C54.5584 9.17178 55.3044 9.85029 55.6167 10.4154C55.9291 10.9806 57.0231 11.9781 57.5157 12.2405C58.0083 12.5028 59.1345 12.791 59.1345 12.791H62.0865Z" fill="#FFBF9D"/>
<path d="M56.0537 6.48844C56.0662 6.49816 56.2179 6.35241 56.5053 6.16457C56.6745 6.05448 56.8536 5.95751 57.0407 5.8747C57.2704 5.7755 57.5093 5.69476 57.7546 5.63342C57.9992 5.57624 58.2488 5.53885 58.5006 5.52169C58.7064 5.50983 58.9129 5.51308 59.1182 5.5314C59.4751 5.56379 59.6821 5.62047 59.6875 5.60589C59.6419 5.58192 59.5926 5.56444 59.5412 5.55407C59.4059 5.51626 59.2674 5.48864 59.1271 5.47149C58.9185 5.44481 58.7076 5.43559 58.4971 5.44396C58.2386 5.45736 57.9821 5.49369 57.7314 5.55245C57.4847 5.61458 57.2455 5.69921 57.0175 5.80507C56.8291 5.89389 56.6499 5.99795 56.4821 6.11599C56.3701 6.19482 56.2656 6.28203 56.1698 6.3767C56.0841 6.44472 56.0484 6.48358 56.0537 6.48844Z" fill="#FF9A6C"/>
<path d="M55.805 2.51433C55.7925 2.51433 55.9264 2.67626 56.1173 2.94022C56.3623 3.28592 56.5858 3.64382 56.7866 4.01223C57.0258 4.4446 57.2203 4.84458 57.3631 5.13282C57.4317 5.29126 57.514 5.4445 57.6094 5.5911C57.566 5.42464 57.5063 5.26205 57.4309 5.10529C57.3024 4.81057 57.1168 4.40411 56.8776 3.97174C56.6764 3.59955 56.4424 3.24268 56.178 2.90459C56.0978 2.80198 56.0121 2.70308 55.921 2.60825C55.8478 2.537 55.8103 2.50137 55.805 2.51433Z" fill="#FF9A6C"/>
<path d="M55.7557 8.08405C55.817 8.1656 55.8863 8.24202 55.9627 8.31237C56.1162 8.48403 56.2822 8.66539 56.4624 8.86457C56.5572 8.96842 56.665 9.0619 56.7837 9.1431C56.8857 9.20558 57.0003 9.24906 57.121 9.27103C57.2283 9.2983 57.3403 9.30709 57.4512 9.29694C57.3497 9.2597 57.2445 9.2315 57.1371 9.21274C57.028 9.18537 56.9252 9.14039 56.8336 9.07995C56.7239 8.99863 56.623 8.90808 56.532 8.80952C56.3357 8.599 56.1554 8.40144 56.0109 8.27189C55.9401 8.1948 55.8534 8.13099 55.7557 8.08405Z" fill="#FF9A6C"/>
<path d="M33.1956 31.6626C33.142 29.9785 32.8208 28.3057 32.8601 26.6216C32.8993 24.9374 33.358 23.1772 34.6305 21.9497C35.9031 20.7223 38.8051 19.8008 40.0098 21.6437V22.6153C39.5315 29.117 39.7313 35.7159 39.253 42.2176C39.1906 43.0726 38.441 43.8547 38.0269 44.6255C37.6128 45.3964 36.7669 46.036 35.8245 45.9988C34.5913 45.9486 33.7614 44.8263 33.3598 43.7673C31.9088 39.9213 33.3294 35.711 33.1956 31.6626Z" fill="#263238"/>
<path d="M37.0758 22.8078C37.2389 22.3452 37.4797 21.9083 37.7897 21.5123C38.1199 21.135 38.616 20.8435 39.1479 20.8516C39.2734 20.846 39.3984 20.8697 39.5109 20.9204C39.6234 20.9712 39.7196 21.0473 39.7904 21.1415C39.9118 21.3391 39.7904 21.6484 39.5406 21.6694L39.4959 21.718C39.0319 22.2427 38.5572 22.7609 38.0681 23.2677C37.9538 23.4026 37.812 23.5164 37.6505 23.6029C37.5684 23.6459 37.4745 23.667 37.3797 23.6635C37.2849 23.6601 37.1932 23.6323 37.1151 23.5835C36.8795 23.4151 36.9652 23.0701 37.0758 22.8078Z" fill="#455A64"/>
<path d="M36.3448 24.6004C37.7833 22.2945 40.0107 20.748 42.8823 20.2557C44.5011 19.9772 45.2311 20.1796 46.4518 20.2832C47.6726 20.3869 48.8398 20.7901 49.7072 21.5787C50.7388 22.5163 51.6615 23.6029 52.0649 24.8757C52.4789 26.1842 52.8948 27.5007 53.0376 28.8561C53.1803 30.2115 53.0376 31.6203 52.3736 32.8413L48.7345 34.0186C46.6749 34.4056 44.5868 34.7943 42.4879 34.6809C40.389 34.5676 38.242 33.889 36.857 32.4527C34.9366 30.4593 34.9045 26.908 36.3448 24.6004Z" fill="#263238"/>
<path d="M39.6811 24.0517L44.3393 21.4607L45.6708 21.3943C48.612 20.9458 51.2035 23.5691 51.6247 25.7261C52.1012 28.1227 52.5796 31.07 52.4939 32.8982C52.3154 36.5871 49.035 37.4049 49.035 37.4049C49.035 37.4049 49.4634 39.2898 49.715 40.4817L47.6001 45.0256L41.9656 41.1747L38.5907 25.467C38.5452 25.1502 38.6318 24.8294 38.8335 24.5675C39.0353 24.3057 39.3376 24.1217 39.6811 24.0517Z" fill="#FFBF9D"/>
<path d="M46.4609 32.9949C46.4566 32.8079 46.5277 32.626 46.6608 32.4832C46.7818 32.3502 46.9477 32.2571 47.1328 32.2182C47.318 32.1792 47.5121 32.1967 47.6852 32.2678C47.8675 32.3553 48.0209 32.4852 48.1294 32.6444C48.2379 32.8035 48.2978 32.986 48.3027 33.173C48.2379 33.2962 48.1446 33.4053 48.0291 33.4927C47.9136 33.5802 47.7786 33.644 47.6335 33.6799C47.5883 33.691 47.5424 33.6996 47.496 33.7058C47.2626 33.7416 47.0228 33.6959 46.825 33.5779C46.7194 33.5122 46.6317 33.4256 46.5686 33.3246C46.5055 33.2236 46.4686 33.1108 46.4609 32.9949Z" fill="#FF9A6C"/>
<path d="M50.3221 28.7974C50.339 28.9183 50.303 29.0404 50.222 29.1375C50.1409 29.2347 50.0212 29.2992 49.8884 29.3173C49.824 29.3289 49.7576 29.3287 49.6933 29.3167C49.6289 29.3047 49.5679 29.281 49.5138 29.2472C49.4597 29.2134 49.4137 29.17 49.3784 29.1198C49.3431 29.0695 49.3193 29.0133 49.3084 28.9545C49.2914 28.8337 49.3271 28.7116 49.4077 28.6143C49.4884 28.5169 49.6077 28.4519 49.7403 28.4331C49.8049 28.4217 49.8714 28.4221 49.9359 28.4343C50.0003 28.4465 50.0615 28.4702 50.1157 28.5042C50.1699 28.5381 50.2161 28.5816 50.2515 28.6319C50.2869 28.6823 50.311 28.7385 50.3221 28.7974Z" fill="#263238"/>
<path d="M50.9555 27.078C50.9002 27.146 50.479 26.9258 49.9275 26.9857C49.376 27.0456 49.0048 27.3371 48.937 27.282C48.9048 27.2577 48.9566 27.1428 49.1154 27.0067C49.3347 26.8326 49.6075 26.7235 49.8971 26.6942C50.1838 26.663 50.474 26.7158 50.7253 26.8448C50.9109 26.9452 50.9823 27.0488 50.9555 27.078Z" fill="#263238"/>
<path d="M48.1828 31.5015C48.1828 31.4739 48.5112 31.3832 49.0573 31.2618C49.1965 31.2326 49.3268 31.1938 49.3393 31.0999C49.3348 30.9664 49.2849 30.8374 49.1965 30.7306L48.6611 29.8028C47.9062 28.4797 47.3422 27.3867 47.4011 27.3591C47.46 27.3316 48.115 28.3826 48.8735 29.7056C49.0579 30.0295 49.2328 30.3415 49.3982 30.6416C49.5044 30.7843 49.5529 30.9559 49.5356 31.1274C49.5207 31.1745 49.4941 31.218 49.4579 31.2544C49.4218 31.2909 49.3769 31.3195 49.3268 31.3379C49.252 31.3661 49.1734 31.3851 49.093 31.3946C48.5397 31.5015 48.1828 31.5371 48.1828 31.5015Z" fill="#263238"/>
<path d="M49.0429 37.4124C47.1675 37.6371 45.26 37.3849 43.5334 36.6836C43.5334 36.6836 45.2771 39.043 49.2285 38.2836L49.0429 37.4124Z" fill="#FF9A6C"/>
<path d="M46.6041 32.024C46.6933 32.0095 46.7647 32.5519 47.318 32.8839C47.8712 33.2159 48.5084 33.0879 48.5227 33.1641C48.5352 33.1964 48.3942 33.2839 48.1247 33.3179C47.775 33.3599 47.4203 33.2882 47.1234 33.1155C46.8444 32.947 46.6471 32.688 46.5719 32.3916C46.513 32.1665 46.563 32.0256 46.6041 32.024Z" fill="#263238"/>
<path d="M50.436 25.3727C50.3593 25.5039 49.9274 25.4666 49.4402 25.5557C48.9529 25.6448 48.5585 25.8051 48.4353 25.7063C48.38 25.6577 48.4193 25.533 48.5745 25.3938C48.7891 25.2192 49.0525 25.1016 49.3358 25.0539C49.6192 25.0062 49.9115 25.0302 50.1808 25.1233C50.3861 25.2043 50.47 25.3079 50.436 25.3727Z" fill="#263238"/>
<path d="M44.1789 29.5386C44.1976 29.6594 44.2677 29.7687 44.3741 29.8431C44.4805 29.9176 44.6148 29.9513 44.7483 29.937C44.8134 29.9323 44.8768 29.916 44.9349 29.889C44.993 29.862 45.0447 29.8249 45.087 29.7798C45.1292 29.7346 45.1613 29.6824 45.1813 29.626C45.2012 29.5696 45.2088 29.5102 45.2034 29.4512C45.1839 29.3305 45.1133 29.2214 45.0067 29.147C44.9002 29.0727 44.7658 29.0389 44.6323 29.0528C44.5673 29.0575 44.5039 29.0738 44.4459 29.1008C44.3879 29.1278 44.3363 29.1649 44.2942 29.2101C44.252 29.2553 44.2202 29.3075 44.2004 29.3639C44.1806 29.4203 44.1733 29.4797 44.1789 29.5386Z" fill="#263238"/>
<path d="M43.5403 28.0392C43.6134 28.091 43.9561 27.7785 44.504 27.7024C45.0519 27.6263 45.4963 27.819 45.5445 27.7493C45.5695 27.7186 45.4856 27.6198 45.2911 27.5275C45.0287 27.4115 44.7331 27.3724 44.4451 27.4158C44.1601 27.4544 43.8962 27.5747 43.692 27.7591C43.5403 27.8999 43.4974 28.0165 43.5403 28.0392Z" fill="#263238"/>
<path d="M43.5572 26.4013C43.6839 26.4985 44.0926 26.322 44.5941 26.2394C45.0956 26.1568 45.5472 26.1843 45.6257 26.0515C45.6596 25.9884 45.5722 25.8896 45.3669 25.8038C45.0873 25.7081 44.7838 25.6851 44.4906 25.7374C44.1964 25.7813 43.9222 25.9004 43.6999 26.0807C43.5375 26.2281 43.5001 26.3527 43.5572 26.4013Z" fill="#263238"/>
<path d="M40.4156 31.4042C40.3799 31.1338 39.9551 30.5346 39.6571 30.5233C38.8593 30.4958 37.4529 30.7014 37.6706 32.5086C37.9687 34.9798 40.6422 34.1992 40.6387 34.128C40.6351 34.0567 40.5369 32.3354 40.4156 31.4042Z" fill="#FFBF9D"/>
<path d="M39.7705 33.298C39.7562 33.298 39.7258 33.3336 39.6509 33.3741C39.5424 33.4296 39.4144 33.4447 39.2939 33.4162C38.9959 33.3498 38.7032 32.9595 38.6353 32.5142C38.6033 32.3034 38.6234 32.0888 38.6942 31.8859C38.7102 31.806 38.7475 31.7309 38.8029 31.6671C38.8583 31.6033 38.9301 31.5528 39.0119 31.5199C39.0648 31.5016 39.123 31.5004 39.1767 31.5166C39.2305 31.5329 39.2763 31.5655 39.3064 31.609C39.351 31.6754 39.3385 31.7256 39.3546 31.7288C39.3707 31.7321 39.4081 31.6819 39.3725 31.5815C39.3501 31.5219 39.306 31.4711 39.2475 31.4373C39.1663 31.3941 39.0698 31.3807 38.978 31.4001C38.8687 31.4316 38.7701 31.4878 38.6914 31.5634C38.6127 31.6391 38.5566 31.7317 38.5283 31.8325C38.4386 32.0584 38.4104 32.3006 38.4462 32.5385C38.5247 33.034 38.862 33.4729 39.2672 33.536C39.3427 33.5484 39.4203 33.5451 39.4942 33.5263C39.5681 33.5075 39.6363 33.4737 39.6937 33.4275C39.7722 33.3595 39.7794 33.3028 39.7705 33.298Z" fill="#FF9A6C"/>
<path d="M39.5462 30.5471L40.3529 31.0848C42.823 28.055 47.3812 20.7209 47.1349 21.1581C47.1349 21.1581 44.9665 20.7177 42.8319 21.401C40.6973 22.0844 36.7174 23.7329 37.2278 26.0761C37.7382 28.4193 39.5462 30.5471 39.5462 30.5471Z" fill="#263238"/>
<path d="M35.5179 30.6187C35.5159 30.5692 35.5207 30.5197 35.5322 30.4714C35.5552 30.3304 35.5923 30.1917 35.6428 30.0568C35.8345 29.5604 36.144 29.1082 36.5495 28.7322C37.1528 28.1789 37.8568 27.7242 38.6305 27.3881C39.4818 26.98 40.4581 26.6157 41.3808 26.0716C42.256 25.5686 43.0634 24.9746 43.7866 24.3016C44.3772 23.7528 44.9118 23.1566 45.384 22.5203C45.7009 22.0893 45.9893 21.6415 46.2478 21.1795C46.3335 21.0257 46.4013 20.8993 46.4548 20.8006C46.4759 20.7547 46.5029 20.7112 46.5352 20.671C46.5226 20.7195 46.5047 20.7667 46.4816 20.8119C46.4406 20.901 46.3834 21.0354 46.3031 21.2022C46.0607 21.6745 45.7828 22.1311 45.4714 22.5689C45.0081 23.2194 44.4768 23.8278 43.8848 24.3858C43.1593 25.0701 42.3456 25.6726 41.4611 26.1801C40.5259 26.7306 39.5407 27.095 38.6947 27.4934C37.9313 27.8181 37.2329 28.2559 36.628 28.7888C36.2235 29.1527 35.9068 29.5889 35.6981 30.0698C35.5554 30.4163 35.5322 30.622 35.5179 30.6187Z" fill="#455A64"/>
<path d="M36.3844 30.8832C36.3407 30.7012 36.3407 30.5129 36.3844 30.331C36.4985 29.8324 36.7752 29.3765 37.1786 29.0225C37.6695 28.5529 38.428 28.1918 39.2757 27.8712C40.2038 27.5471 41.0896 27.1311 41.9172 26.6307C42.7377 26.1231 43.4853 25.5248 44.1427 24.8494C44.6824 24.297 45.1606 23.6977 45.5705 23.0601C45.842 22.6284 46.0846 22.1822 46.2969 21.7241L46.4594 21.3452C46.4765 21.3001 46.4986 21.2567 46.5254 21.2156C46.519 21.2629 46.5058 21.3091 46.4861 21.3533C46.4504 21.4553 46.404 21.5832 46.3469 21.7419C46.1542 22.2108 45.9233 22.666 45.6562 23.1038C44.7671 24.5572 43.5161 25.8021 42.0028 26.7392C41.1655 27.2448 40.2673 27.6621 39.3257 27.9829C38.4779 28.2971 37.7337 28.642 37.2483 29.0889C36.8501 29.4274 36.5687 29.8633 36.438 30.3439C36.4012 30.5217 36.3833 30.7023 36.3844 30.8832Z" fill="#455A64"/>
<path d="M40.418 34.6734C40.418 34.6572 40.1806 34.6653 39.763 34.6329C39.1751 34.5716 38.6102 34.3906 38.1103 34.1034C37.3765 33.6652 36.7698 33.0731 36.3416 32.3771C35.8012 31.5314 35.4222 30.6089 35.2208 29.6485C35.0045 28.6907 35.0197 27.7018 35.2654 26.7499C35.4703 25.9732 35.8159 25.2328 36.2881 24.5589C37.1019 23.4075 37.8622 22.8764 37.8247 22.8472C37.7749 22.872 37.7293 22.9031 37.6891 22.9395C37.607 23.0076 37.4767 23.1015 37.3321 23.2375C36.9017 23.6191 36.5175 24.0415 36.1863 24.4974C35.6911 25.1748 35.3288 25.9248 35.1155 26.7143C34.9933 27.1823 34.9228 27.6602 34.9049 28.1409C34.8954 28.657 34.9457 29.1727 35.0548 29.6793C35.2592 30.6583 35.65 31.5975 36.2095 32.4549C36.6575 33.1658 37.2912 33.7658 38.055 34.2021C38.5748 34.4866 39.1625 34.6533 39.7683 34.688C39.9317 34.6984 40.0957 34.6984 40.2591 34.688C40.3126 34.6897 40.366 34.6848 40.418 34.6734Z" fill="#455A64"/>
<path d="M37.1554 52.7765C37.0037 52.9465 35.2815 57.9471 35.2815 57.9471L44.9727 59.4142L44.6782 63.5922L30.4002 63.4108C30.4002 63.4108 27.3929 62.2773 28.0925 59.1373C28.6957 56.4298 31.9458 47.112 32.1974 46.2181C32.4491 45.3242 34.6157 42.1357 36.9698 41.4556L39.3596 48.1808L37.1554 52.7765Z" fill="#407BFF"/>
<path d="M63.8203 62.7548C63.8203 62.7548 59.6833 58.2125 59.2281 56.428C58.773 54.6434 59.8028 43.3727 59.8028 43.3727L52.4497 37.4167L49.5405 39.496C49.5405 39.496 48.6481 42.8837 46.5421 43.078C44.4361 43.2723 41.834 40.615 41.834 40.615C41.834 40.615 38.3055 40.6312 35.9782 41.8457L36.3494 48.8186C36.8384 51.8759 37.3292 54.8102 37.9896 56.0733L38.0431 56.428L41.5734 62.677L63.8203 62.7548Z" fill="#407BFF"/>
<path d="M59.8077 43.5087C59.8077 43.5087 59.781 41.1898 59.781 40.9842C59.781 40.7785 61.4283 33.3084 61.8263 30.3725C62.2243 27.4367 62.1011 20.0184 62.1011 20.0184L56.3096 19.0468L54.7158 30.1685L53.288 34.0452L52.3189 37.9317L53.0774 39.1333L59.8077 43.5087Z" fill="#407BFF"/>
<path d="M58.986 33.7231C58.9764 33.7475 58.9716 33.7733 58.9717 33.7992C58.9717 33.8575 58.9556 33.9288 58.9467 34.0146C58.9288 34.217 58.9039 34.4858 58.8735 34.8129C58.7892 35.6911 58.7617 36.573 58.7914 37.4541C58.8424 38.3363 59.001 39.2107 59.2644 40.0613C59.3697 40.3851 59.4571 40.6475 59.5285 40.8256L59.6106 41.0313C59.6177 41.056 59.6292 41.0795 59.6445 41.1009C59.6419 41.0751 59.6365 41.0496 59.6285 41.0248L59.5642 40.8159C59.5035 40.6345 59.4232 40.3722 59.3286 40.0451C59.0851 39.1972 58.9368 38.3291 58.886 37.4541C58.8343 36.4274 58.9039 35.4963 58.9396 34.821C58.9574 34.4972 58.9717 34.2251 58.9824 34.0227C58.9824 33.9369 58.9824 33.8608 58.9824 33.8041C58.9891 33.7775 58.9903 33.7501 58.986 33.7231Z" fill="#263238"/>
<path d="M36.3502 48.3938C36.3502 48.4275 36.3538 48.4611 36.361 48.4942L36.4091 48.776C36.4466 49.0334 36.5002 49.3865 36.5644 49.8188C36.6965 50.6981 36.875 51.924 37.1623 53.2486C37.3859 54.391 37.7222 55.5129 38.1671 56.6007C38.2135 56.7043 38.251 56.8047 38.2974 56.8954L38.4295 57.1529L38.5455 57.3763C38.5812 57.4444 38.624 57.5027 38.6579 57.5561L38.8203 57.8022C38.8371 57.8321 38.8581 57.8599 38.8828 57.8848C38.87 57.8535 38.8545 57.8232 38.8364 57.7941L38.6901 57.5399C38.6597 57.4848 38.6187 57.4265 38.5848 57.3585C38.5508 57.2905 38.5152 57.2128 38.4759 57.1334L38.351 56.8743C38.3081 56.7837 38.2724 56.6833 38.2278 56.5796C37.8033 55.4898 37.4774 54.3703 37.2533 53.2324C36.9678 51.9045 36.7786 50.6884 36.6304 49.8107C36.5573 49.3703 36.493 49.0156 36.452 48.7711C36.427 48.648 36.402 48.5541 36.3877 48.491C36.3801 48.4572 36.3675 48.4245 36.3502 48.3938Z" fill="#263238"/>
<path d="M32.3801 60.3264C32.5149 60.1989 32.6389 60.0625 32.7514 59.9183C33.0307 59.5779 33.3329 59.2534 33.6562 58.9467C34.429 58.2407 35.2964 57.9751 35.275 57.9395C35.2536 57.9038 35.2197 57.9492 35.1251 57.9799C34.9913 58.0279 34.8602 58.0819 34.7324 58.1419C34.3111 58.3365 33.9258 58.5895 33.5902 58.8916C33.2629 59.1983 32.9644 59.5293 32.6978 59.8811C32.5789 60.0215 32.4727 60.1705 32.3801 60.3264Z" fill="#263238"/>
<path d="M44.6666 63.5922C44.675 63.5664 44.6798 63.5398 44.6809 63.5129C44.6809 63.4546 44.6934 63.3785 44.7041 63.2829C44.7201 63.0757 44.7451 62.7842 44.7755 62.4215C44.8326 61.6749 44.9129 60.6402 45.0039 59.4159V59.3803H44.9646L42.3982 58.9884L37.3634 58.237L35.8356 58.02L35.4198 57.965C35.3715 57.9567 35.3225 57.9524 35.2734 57.952C35.3202 57.9647 35.368 57.9744 35.4162 57.9812L35.8303 58.0524L37.3527 58.297L42.3839 59.071L44.9504 59.4564L44.9147 59.4159C44.8361 60.6353 44.7683 61.683 44.7201 62.4231C44.6987 62.7874 44.6826 63.0708 44.6719 63.2862C44.6719 63.3817 44.6719 63.4578 44.663 63.5161C44.6622 63.5416 44.6633 63.567 44.6666 63.5922Z" fill="#263238"/>
<path d="M46.4903 53.815C46.4903 53.815 46.5135 53.8393 46.5653 53.8782L46.7937 54.0482L46.9615 54.168C47.024 54.2101 47.0954 54.2506 47.1703 54.2976C47.3394 54.4051 47.5146 54.5045 47.695 54.5955L48.0092 54.7575C48.118 54.8125 48.2394 54.8563 48.3661 54.9097C48.6088 55.0198 48.8801 55.104 49.1639 55.2012C50.4143 55.5908 51.7445 55.7231 53.0582 55.5882C53.3581 55.5493 53.6454 55.5186 53.9078 55.4603C54.0381 55.4311 54.1666 55.4117 54.2879 55.3809L54.6324 55.287C54.8299 55.234 55.0242 55.1713 55.2142 55.0992C55.2999 55.0684 55.3784 55.0425 55.4498 55.0133L55.6425 54.9291L55.9049 54.8093C55.9363 54.7964 55.9662 54.7806 55.9941 54.7623C55.96 54.7685 55.927 54.7789 55.896 54.7931L55.6265 54.8984L55.4337 54.9761C55.3606 55.0036 55.2802 55.0263 55.1964 55.0554C55.0179 55.1089 54.8394 55.1801 54.6127 55.2303L54.2701 55.3178C54.1505 55.3469 54.022 55.3647 53.8917 55.3906C53.6133 55.4434 53.3321 55.4834 53.0493 55.5105C52.4 55.5688 51.746 55.5688 51.0968 55.5105C50.45 55.4405 49.8122 55.3136 49.1925 55.1315C48.9105 55.0376 48.6392 54.955 48.3982 54.8482C48.2769 54.798 48.1555 54.7542 48.0413 54.7024L47.7272 54.5502C47.5219 54.4579 47.3542 54.351 47.1917 54.2652C47.1168 54.2198 47.0436 54.181 46.9794 54.1421L46.8009 54.0271L46.5635 53.8652C46.5406 53.8468 46.5161 53.83 46.4903 53.815Z" fill="#263238"/>
<path d="M59.6742 63.3835C59.6963 63.3428 59.7087 63.2984 59.7107 63.2531C59.7126 63.2078 59.7041 63.1626 59.6856 63.1204C59.6671 63.0783 59.639 63.0402 59.6032 63.0085C59.5674 62.9768 59.5247 62.9523 59.4778 62.9366C58.3606 62.5819 54.3734 61.3172 54.1093 61.2314C53.8041 61.1391 47.6842 60.0638 47.6842 60.0638L44.9196 59.9246L44.684 63.288H47.3094C47.6499 63.3804 47.9978 63.4487 48.3499 63.492C48.7408 63.526 54.6126 63.8046 56.1707 63.7446C56.2683 63.7403 56.363 63.7131 56.4455 63.6657C56.5281 63.6183 56.5957 63.5524 56.6419 63.4742C56.6419 63.4742 57.6217 63.8272 58.2356 63.7527C58.8496 63.6782 58.8478 63.5665 58.8478 63.5665C58.8478 63.5665 59.4404 63.7786 59.6742 63.3835Z" fill="#FFBF9D"/>
<path d="M51.9975 62.2676C52.0519 62.3033 52.1121 62.3312 52.176 62.3501C52.3415 62.4115 52.5122 62.4608 52.6864 62.4975C52.9041 62.5461 53.1683 62.5882 53.4521 62.6594C53.5948 62.6918 53.7376 62.742 53.8965 62.7841C54.0553 62.8262 54.2159 62.8635 54.3837 62.8959C54.721 62.9623 55.0387 63.0141 55.3332 63.0578C55.6277 63.1015 55.8972 63.1064 56.1131 63.1485C56.2842 63.1644 56.4454 63.229 56.5736 63.3331C56.5916 63.3563 56.6037 63.3829 56.6089 63.4109C56.6142 63.439 56.6125 63.4677 56.6039 63.495C56.6039 63.495 56.62 63.4837 56.6307 63.4529C56.641 63.4067 56.6315 63.3586 56.6039 63.3185C56.4796 63.1943 56.3108 63.114 56.1274 63.0918C55.9061 63.04 55.6366 63.0254 55.3475 62.9817C55.0583 62.938 54.7353 62.8732 54.4033 62.8084C54.2373 62.776 54.0749 62.7404 53.9214 62.6999C53.768 62.6594 53.6198 62.6109 53.4735 62.5801C53.1826 62.5137 52.9184 62.4781 52.7007 62.4376C52.4632 62.3918 52.2285 62.335 51.9975 62.2676Z" fill="#FF9A6C"/>
<path d="M53.2256 61.5783C53.3017 61.6091 53.3805 61.634 53.4611 61.6528L54.1144 61.8261C54.6641 61.9718 55.4262 62.1726 56.2561 62.4042C57.086 62.6358 57.8498 62.8512 58.3978 63.0082C58.5192 63.0368 58.6333 63.0868 58.7333 63.1556C58.7691 63.182 58.7986 63.2146 58.8201 63.2517C58.8416 63.2887 58.8545 63.3293 58.8582 63.371C58.862 63.407 58.8571 63.4433 58.8438 63.4774C58.8306 63.5115 58.8093 63.5426 58.7815 63.5685C58.7815 63.5685 58.8047 63.5685 58.835 63.5329C58.8773 63.488 58.8985 63.4299 58.8939 63.371C58.8932 63.3238 58.8817 63.2773 58.8602 63.2344C58.8387 63.1915 58.8077 63.1531 58.769 63.1216C58.6632 63.0465 58.5418 62.9914 58.412 62.9596C57.8766 62.788 57.1145 62.5629 56.2703 62.3313C55.4262 62.0998 54.6641 61.9087 54.1108 61.7775C53.8342 61.7111 53.6075 61.6609 53.4504 61.6285C53.3775 61.6052 53.3021 61.5884 53.2256 61.5783Z" fill="#FF9A6C"/>
</svg>
