<svg width="60" height="60" viewBox="0 0 60 60" fill="none" xmlns="http://www.w3.org/2000/svg">
<path d="M16.3573 15.1644C14.0869 15.1644 12.2461 13.3236 12.2461 11.0532C12.2461 8.78282 14.0869 6.94202 16.3573 6.94202C18.6277 6.94202 20.4685 8.78282 20.4685 11.0532C20.4685 13.3236 18.6277 15.1644 16.3573 15.1644Z" fill="#CDE6FA"/>
<path d="M15.343 10.1365H14.4922V12.8857H15.343V10.1365Z" fill="white"/>
<path d="M14.913 9.77765C15.1914 9.77765 15.4158 9.55085 15.4158 9.27005C15.4158 8.99045 15.1902 8.76245 14.913 8.76245C14.6346 8.76245 14.4102 8.98925 14.4102 9.27005C14.4102 9.54965 14.6358 9.77765 14.913 9.77765Z" fill="white"/>
<path d="M16.7035 11.4433C16.7035 11.0569 16.8811 10.8265 17.2219 10.8265C17.5351 10.8265 17.6851 11.0473 17.6851 11.4433C17.6851 11.8393 17.6851 12.8857 17.6851 12.8857H18.5323C18.5323 12.8857 18.5323 11.8813 18.5323 11.1457C18.5323 10.4089 18.1147 10.0537 17.5327 10.0537C16.9495 10.0537 16.7047 10.5073 16.7047 10.5073V10.1365H15.8887V12.8857H16.7047C16.7035 12.8857 16.7035 11.8669 16.7035 11.4433Z" fill="white"/>
<path d="M21.8658 2.86682L22.4286 3.89522L23.4582 4.45922L22.4286 5.02202L21.8658 6.05042L21.303 5.02202L20.2734 4.45922L21.303 3.89522L21.8658 2.86682Z" fill="#CDE6FA"/>
<path d="M45.3444 30.7524L45.7668 31.5252L46.5384 31.9464L45.7668 32.3688L45.3444 33.1416L44.922 32.3688L44.1504 31.9464L44.922 31.5252L45.3444 30.7524Z" fill="#CDE6FA"/>
<path d="M46.5388 26.9412L46.7296 27.2892L47.0776 27.48L46.7296 27.6708L46.5388 28.0188L46.348 27.6708L46 27.48L46.348 27.2892L46.5388 26.9412Z" fill="#CDE6FA"/>
<path d="M17.8454 3.25317L18.0362 3.60117L18.3842 3.79197L18.0362 3.98277L17.8454 4.33077L17.6558 3.98277L17.3066 3.79197L17.6558 3.60117L17.8454 3.25317Z" fill="#CDE6FA"/>
<path d="M8.29538 35.6112C8.72497 35.424 9.02618 34.9752 9.02258 34.4508C9.01658 33.7632 8.48858 33.21 7.84418 33.216C7.19978 33.2208 6.68258 33.7836 6.68858 34.47C6.69338 34.9992 7.00898 35.4468 7.44698 35.622C5.65418 35.916 5.76098 37.8672 5.76098 37.8672L10.0078 37.8324C10.0078 37.8312 10.0798 35.8572 8.29538 35.6112Z" fill="#CDE6FA"/>
<path d="M51.8008 23.178L52.2556 23.088L52.9744 21.5064L52.7944 20.598C52.7944 20.598 53.4892 20.4156 53.6428 21.6216C53.7964 22.8276 53.8252 22.5072 53.8252 22.5072C53.8252 22.5072 55.3204 22.2168 55.4704 22.3224C55.5796 22.3992 55.9144 23.874 56.0896 24.6756C56.1772 25.0788 56.0044 25.5048 55.6468 25.6752C55.5964 25.6992 55.5436 25.7184 55.4908 25.7292C55.1188 25.8036 53.1544 25.878 53.1544 25.878L52.3684 26.034L51.8008 23.178Z" fill="#CDE6FA"/>
<path d="M50.4492 23.1875L51.3468 26.2439L52.1256 26.0891L51.5208 23.0399L50.4492 23.1875Z" fill="#CDE6FA"/>
<path d="M38.7703 56.406L22.2235 56.3964C20.2339 56.3952 18.6211 54.7812 18.6211 52.7916L18.6295 11.3088C18.6295 9.318 20.2447 7.704 22.2355 7.7052L38.7823 7.7148C40.7719 7.716 42.3847 9.33 42.3847 11.3196L42.3763 52.8024C42.3763 54.7932 40.7611 56.4072 38.7703 56.406Z" fill="#4141F9"/>
<path d="M38.7652 9.18243L35.5576 9.18003C35.128 9.18003 34.7788 9.54483 34.7788 9.99363V10.5756C34.7788 11.0256 34.4296 11.3892 34 11.3892L27.7468 11.3856C27.3172 11.3856 26.968 11.0208 26.968 10.5708V9.98883C26.968 9.53883 26.6188 9.17403 26.1892 9.17403L25.0612 9.17283L22.2532 9.17163C20.8588 9.17043 19.7272 10.3008 19.7272 11.6952L19.7188 52.1844C19.7188 53.5788 20.848 54.708 22.2412 54.7092L38.7544 54.72C40.1488 54.7212 41.2792 53.5908 41.2804 52.1964L41.2888 11.706C41.2876 10.3128 40.1584 9.18243 38.7652 9.18243Z" fill="white"/>
<path d="M39.0062 12.4716C39.0062 12.4824 38.5886 12.4944 38.075 12.4992C37.5602 12.504 37.1426 12.498 37.1426 12.4872C37.1426 12.4764 37.559 12.4644 38.0738 12.4596C38.5886 12.4548 39.0062 12.4608 39.0062 12.4716Z" fill="#4141F9"/>
<path d="M39.0101 12.948C39.0101 12.9588 38.5925 12.9708 38.0789 12.9756C37.5641 12.9804 37.1465 12.9744 37.1465 12.9636C37.1465 12.9528 37.5629 12.9408 38.0777 12.936C38.5925 12.9324 39.0101 12.9372 39.0101 12.948Z" fill="#4141F9"/>
<path d="M39.014 13.4243C39.014 13.4351 38.5964 13.4471 38.0828 13.4519C37.568 13.4567 37.1504 13.4507 37.1504 13.4399C37.1504 13.4291 37.568 13.4171 38.0816 13.4123C38.5964 13.4087 39.014 13.4135 39.014 13.4243Z" fill="#4141F9"/>
<path d="M33.2381 46.5647L33.6049 45.3328C33.6691 45.0655 33.7541 44.7505 33.868 44.391C33.9706 44.0677 34.2348 43.7279 34.4752 43.4834C34.8492 43.1032 35.0274 43.1 35.2792 42.898C35.302 42.8835 35.3279 42.8628 35.3496 42.8504C35.4014 42.8224 35.4398 42.7851 35.4719 42.7447C35.6884 42.5105 35.4802 42.1479 35.0398 42.1821C34.7083 42.208 34.1685 42.3033 33.2889 43.2099C33.2775 43.2233 33.2661 43.2347 33.2557 43.2492C32.7947 43.8491 32.3616 42.1375 32.2828 41.5004C32.2321 41.087 31.7855 40.8331 31.3804 40.9823L29.2399 41.9832C29.0627 41.921 28.8534 41.9314 28.6151 42.0039C28.3002 42.1199 28.1251 42.4442 28.2069 42.7592L29.0752 46.2248L26.5254 54.7092H32.0218L33.2381 46.5647Z" fill="#F3DDAE"/>
<path d="M37.4594 38.7713L35.7602 42.1002L34.9106 41.864L30.6399 45.3379C30.2763 45.6332 29.7437 45.5866 29.4381 45.2312L27.8125 43.3414C27.8125 43.3414 31.0906 41.9293 31.6967 40.7606C32.3028 39.5919 31.6025 39.3266 31.6025 39.3266L33.1452 37.5736L37.4594 38.7713Z" fill="#FD9921"/>
<path d="M35.2567 31.9706C35.2567 31.9706 32.7702 31.4204 29.2703 28.0552C25.7705 24.6901 24.1262 20.2205 23.6973 20.2422C23.2694 20.264 21.3982 19.3958 17.8414 27.1342C14.2835 34.8726 15.6853 36.6702 16.393 36.6557C17.1006 36.6412 21.908 35.3015 24.9095 35.6424C27.912 35.9833 31.7714 37.5488 31.7714 37.5488L35.2567 31.9706Z" fill="#FD9921"/>
<path d="M40.5403 36.1884L39.6917 37.8015L39.3115 38.5237C38.7903 39.5152 37.5843 39.9244 36.5669 39.4561L31.2363 37.5985L34.3404 30.5117L39.6658 33.3495C40.6894 33.8955 41.079 35.1637 40.5403 36.1884Z" fill="#FD9921"/>
<g opacity="0.4">
<path opacity="0.4" d="M40.5403 36.1884L39.6917 37.8015L39.3115 38.5237C38.7903 39.5152 37.5843 39.9244 36.5669 39.4561L31.2363 37.5985L34.3404 30.5117L39.6658 33.3495C40.6894 33.8955 41.079 35.1637 40.5403 36.1884Z" fill="#09005D"/>
</g>
<path d="M18.1296 27.2751C16.2367 31.467 15.4483 35.2031 16.3693 35.6185C17.2904 36.035 19.5718 32.9735 21.4647 28.7815C23.3576 24.5896 24.1461 20.8545 23.225 20.438C22.304 20.0226 20.0225 23.0831 18.1296 27.2751Z" fill="#FD9921"/>
<g opacity="0.5">
<path opacity="0.5" d="M18.1296 27.2751C16.2367 31.467 15.4483 35.2031 16.3693 35.6185C17.2904 36.035 19.5718 32.9735 21.4647 28.7815C23.3576 24.5896 24.1461 20.8545 23.225 20.438C22.304 20.0226 20.0225 23.0831 18.1296 27.2751Z" fill="#09005D"/>
</g>
<path d="M40.9981 38.5196L39.5527 38.0658L40.4469 36.3656L41.5306 37.0401L40.9981 38.5196Z" fill="#FD9921"/>
<g opacity="0.6">
<path opacity="0.6" d="M40.4469 36.3656L39.5527 38.0658L39.8501 38.1591L40.5764 36.4464L40.4469 36.3656Z" fill="#09005D"/>
</g>
<path d="M39.4516 36.7582C39.4309 36.8049 38.7097 36.5251 37.8415 36.1324C36.9723 35.7398 36.2864 35.3844 36.3071 35.3367C36.3278 35.2901 37.0489 35.5699 37.9172 35.9625C38.7864 36.3552 39.4723 36.7116 39.4516 36.7582Z" fill="#FD9921"/>
<path d="M39.8948 35.746C39.872 35.7926 39.2193 35.517 38.4371 35.1316C37.6548 34.7462 37.0384 34.397 37.0612 34.3504C37.084 34.3048 37.7356 34.5794 38.5189 34.9648C39.3011 35.3502 39.9176 35.6994 39.8948 35.746Z" fill="#FD9921"/>
<path d="M38.8907 37.8202C38.8835 37.845 38.7115 37.8057 38.438 37.7207C38.3012 37.6782 38.1396 37.6254 37.9593 37.5632C37.7811 37.499 37.5967 37.4047 37.3977 37.3156C36.6072 36.9488 36.0042 36.5893 36.0239 36.5468C36.0477 36.4961 36.6922 36.7841 37.4754 37.1467C37.6723 37.2358 37.8536 37.3343 38.0256 37.4057C38.1976 37.4752 38.353 37.5404 38.4815 37.5974C38.7405 37.7124 38.898 37.7953 38.8907 37.8202Z" fill="#FD9921"/>
<path d="M21.9878 26.3436C21.9878 26.3436 19.8266 25.003 18.6434 27.9237C17.4612 30.8443 19.7354 31.324 19.7354 31.324C20.6668 29.8808 21.4221 28.2262 21.9878 26.3436Z" fill="#FD9921"/>
<g opacity="0.5">
<path opacity="0.5" d="M24.2859 22.8624C24.2984 22.8645 24.2683 23.0634 24.201 23.4209C24.1326 23.7773 24.0362 24.2953 23.8974 24.9315C23.8062 25.2444 23.7057 25.5863 23.599 25.953C23.5452 26.1364 23.4892 26.3271 23.4312 26.5218C23.4022 26.6192 23.3732 26.7187 23.3431 26.8192C23.311 26.9187 23.2685 27.0171 23.2312 27.1176C23.0758 27.5196 22.9121 27.9413 22.7432 28.3775C22.7008 28.4862 22.6583 28.5971 22.6148 28.708C22.5723 28.8199 22.5132 28.9245 22.4625 29.0343C22.3568 29.2519 22.2501 29.4736 22.1413 29.6964C22.0325 29.9202 21.9247 30.1408 21.8191 30.3584C21.7641 30.4662 21.7175 30.5781 21.6564 30.6796C21.5953 30.7822 21.5362 30.8837 21.4761 30.9852C21.2378 31.3883 21.0068 31.7778 20.7871 32.1488C20.7312 32.241 20.6804 32.3342 20.6214 32.4212C20.5602 32.5072 20.5012 32.5922 20.4421 32.6751C20.324 32.8419 20.209 33.0035 20.0981 33.16C19.8754 33.4708 19.6682 33.7619 19.4786 34.0271C19.0652 34.5276 18.7191 34.9233 18.4808 35.1969C18.2415 35.4704 18.1037 35.6165 18.0944 35.6092C18.084 35.6009 18.2032 35.4383 18.4249 35.1513C18.6559 34.8591 18.9792 34.4478 19.377 33.9443C19.5594 33.6759 19.7593 33.3837 19.9738 33.0698C20.0816 32.9134 20.1924 32.7507 20.3074 32.5839C20.3644 32.501 20.4235 32.4161 20.4825 32.3301C20.5395 32.243 20.5892 32.1488 20.6431 32.0576C20.8586 31.6877 21.0845 31.2992 21.3176 30.8972C21.3767 30.7967 21.4357 30.6951 21.4948 30.5926C21.5559 30.491 21.6004 30.3802 21.6554 30.2724C21.76 30.0559 21.8667 29.8362 21.9745 29.6145C22.0822 29.3928 22.1889 29.1732 22.2946 28.9577C22.3454 28.8489 22.4044 28.7442 22.4469 28.6344C22.4904 28.5246 22.5339 28.4147 22.5764 28.307C22.7484 27.875 22.9131 27.4574 23.0717 27.0596C23.11 26.9601 23.1535 26.8627 23.1867 26.7643C23.2178 26.6648 23.2478 26.5664 23.2778 26.47C23.3379 26.2763 23.397 26.0888 23.454 25.9075C23.5679 25.5448 23.6747 25.2071 23.7721 24.8973C23.9223 24.2746 24.0445 23.7669 24.1316 23.4053C24.2186 23.0541 24.2735 22.8604 24.2859 22.8624Z" fill="#09005D"/>
</g>
<g opacity="0.4">
<path opacity="0.4" d="M28.332 43.1104C28.5289 43.4678 28.7309 43.8315 29.0221 44.1174C29.3142 44.4034 29.7142 44.6064 30.1213 44.565C30.5275 44.5236 30.9129 44.1868 30.917 43.7776C31.1118 43.9247 31.4112 43.8449 31.5729 43.6615C31.7345 43.4782 31.7873 43.2243 31.806 42.9808C32.0712 43.1373 32.4401 43.013 32.6162 42.7612C32.7934 42.5094 32.8037 42.1706 32.7188 41.8743C32.6328 41.579 32.4618 41.3169 32.2929 41.0589C32.497 41.0755 32.7136 41.09 32.8959 40.9968C33.0783 40.9046 33.2016 40.6632 33.0949 40.4881C33.0327 40.3855 32.9125 40.3347 32.7975 40.2985C32.4774 40.198 32.2536 40.1182 31.92 40.1565C31.8422 40.1576 32.0536 41.0351 29.9638 42.2349C28.732 42.9467 28.332 43.1104 28.332 43.1104Z" fill="#09005D"/>
</g>
<path d="M28.4688 42.5541C28.8055 42.8773 29.0355 43.2348 29.3888 43.5601C29.5494 43.7083 29.798 43.988 30.0135 44.0253C30.229 44.0626 30.3668 44.0336 30.4518 43.8326C30.5212 43.6699 30.3969 43.4472 30.3119 43.3135C30.0871 42.9602 29.8716 42.6846 29.7037 42.4101C29.625 42.2816 29.7265 42.2546 29.7638 42.3147C29.9255 42.4826 30.1679 42.6287 30.313 42.811C30.5119 43.0617 30.5481 43.3933 31.0672 43.2886C31.1356 43.2752 31.205 43.2513 31.2599 43.2089C31.4557 43.0586 31.464 42.7986 31.3812 42.5903C31.3169 42.4266 31.2029 42.2878 31.0921 42.1521C31.3138 42.4018 31.5552 42.6649 31.9064 42.6939C32.1105 42.7105 32.3167 42.6152 32.3996 42.4277C32.5032 42.1914 32.354 41.9625 32.2048 41.7781C31.9396 41.4507 31.6433 41.1481 31.3211 40.8756C31.2009 40.7741 31.0486 40.7171 30.8911 40.7161C30.7087 40.7151 30.4808 40.7492 30.3689 40.9078C30.1648 41.1948 30.228 41.4496 30.228 41.4496C30.228 41.4496 29.7711 41.2186 29.4043 41.46C29.0376 41.7024 28.9464 42.1179 28.9464 42.1179L28.4688 42.5541Z" fill="#F3DDAE"/>
<path d="M30.8972 40.6145C30.7563 40.4726 30.7232 40.2125 30.833 39.997C30.9107 39.8447 31.0081 39.6966 31.1076 39.6634C31.5417 39.5173 33.4387 39.8447 33.4221 40.2664C33.4045 40.6984 33.2667 40.8891 32.2369 40.7399C32.0556 40.714 31.7717 40.6777 31.7717 40.6777L31.523 41.0507L30.8972 40.6145Z" fill="#F3DDAE"/>
<path d="M31.2369 42.3779C31.2214 42.3872 31.0774 42.0929 30.7831 41.8287C30.491 41.5614 30.1843 41.4464 30.1915 41.4309C30.1936 41.4247 30.2734 41.4454 30.3925 41.5013C30.5117 41.5573 30.6692 41.6536 30.8194 41.7894C30.9686 41.9251 31.0805 42.0722 31.1468 42.1862C31.2152 42.2981 31.2431 42.3747 31.2369 42.3779Z" fill="#FD9921"/>
<path d="M31.5555 41.0838C31.5461 41.0931 31.4208 40.9905 31.2498 40.8859C31.1649 40.8341 31.0861 40.7895 31.0271 40.7636C30.968 40.7357 30.9297 40.7284 30.9297 40.7201C30.9297 40.7129 30.9742 40.7077 31.0405 40.7274C31.1069 40.746 31.1908 40.7864 31.2788 40.8403C31.4539 40.947 31.5689 41.0724 31.5555 41.0838Z" fill="#FD9921"/>
<path d="M31.8741 40.6923C31.873 40.7037 31.7073 40.7088 31.5084 40.6508C31.4099 40.6208 31.326 40.5731 31.2742 40.5286C31.2224 40.484 31.2006 40.4467 31.2058 40.4426C31.2162 40.4332 31.3333 40.5451 31.5239 40.599C31.7125 40.6539 31.8762 40.6746 31.8741 40.6923Z" fill="#FD9921"/>
<path d="M30.03 42.8991C30.0238 42.9032 29.9565 42.8183 29.857 42.6742C29.7555 42.5344 29.626 42.3251 29.4146 42.1707C29.2032 42.0163 28.9546 41.9801 28.7878 42.0049C28.6179 42.0288 28.5288 42.0992 28.5236 42.0889C28.5215 42.0868 28.5412 42.0671 28.5837 42.0412C28.6262 42.0143 28.6935 41.9852 28.7816 41.9676C28.9556 41.9314 29.2219 41.9645 29.4467 42.1272C29.6705 42.2909 29.7959 42.5085 29.8902 42.6535C29.9803 42.8017 30.0363 42.8949 30.03 42.8991Z" fill="#FD9921"/>
<path d="M6.2285 28.5037L6.3641 28.7521L6.6125 28.8877L6.3641 29.0233L6.2285 29.2705L6.0929 29.0233L5.8457 28.8877L6.0929 28.7521L6.2285 28.5037Z" fill="#FD9921"/>
<path d="M50.9004 40.0992L51.036 40.3476L51.2832 40.4832L51.036 40.6188L50.9004 40.866L50.7648 40.6188L50.5176 40.4832L50.7648 40.3476L50.9004 40.0992Z" fill="#FD9921"/>
<path d="M8.76797 24.6121L9.07997 25.1821L9.65116 25.4941L9.07997 25.8073L8.76797 26.3773L8.45597 25.8073L7.88477 25.4941L8.45597 25.1821L8.76797 24.6121Z" fill="#FD9921"/>
</svg>
