<svg width="60" height="60" viewBox="0 0 60 60" fill="none" xmlns="http://www.w3.org/2000/svg">
<path d="M24.5489 45.6471C24.5489 47.4281 23.2061 48.8679 21.5547 48.8679C19.9034 48.8679 18.5605 47.4234 18.5605 45.6471C18.5605 43.8661 19.9034 42.4264 21.5547 42.4264C23.2061 42.4264 24.5489 43.8661 24.5489 45.6471Z" fill="#4141F9"/>
<path d="M20.3687 45.2919L21.3943 42.3797C21.4508 42.2254 21.5899 42.1226 21.742 42.1226H25.3142C25.6401 42.1226 25.8096 42.5386 25.5879 42.7957L22.3721 46.5306C22.1027 46.8438 21.6942 46.956 21.3161 46.8251L20.9945 46.7129C20.4513 46.5166 20.1645 45.8715 20.3687 45.2919Z" fill="#EABD83"/>
<path d="M21.5542 46.3904C21.9359 46.3904 22.2452 46.0577 22.2452 45.6472C22.2452 45.2367 21.9359 44.9039 21.5542 44.9039C21.1726 44.9039 20.8633 45.2367 20.8633 45.6472C20.8633 46.0577 21.1726 46.3904 21.5542 46.3904Z" fill="#4141F9"/>
<path d="M41.8984 45.647C41.8984 47.428 43.2413 48.8677 44.8926 48.8677C46.5484 48.8677 47.8868 47.4233 47.8868 45.647C47.8868 43.866 46.544 42.4263 44.8926 42.4263C43.2369 42.4263 41.8984 43.866 41.8984 45.647Z" fill="#4141F9"/>
<path d="M46.0735 45.2919L45.0479 42.3797C44.9914 42.2254 44.8523 42.1226 44.7002 42.1226H41.128C40.8021 42.1226 40.6326 42.5386 40.8543 42.7957L44.0701 46.5306C44.3395 46.8438 44.748 46.956 45.1261 46.8251L45.4477 46.7129C45.9909 46.5166 46.2777 45.8715 46.0735 45.2919Z" fill="#EABD83"/>
<path d="M44.8921 46.3904C45.2737 46.3904 45.5831 46.0577 45.5831 45.6472C45.5831 45.2367 45.2737 44.9039 44.8921 44.9039C44.5105 44.9039 44.2012 45.2367 44.2012 45.6472C44.2012 46.0577 44.5105 46.3904 44.8921 46.3904Z" fill="#4141F9"/>
<path d="M13.7197 15.7163C13.5459 15.7163 13.3851 15.6088 13.3113 15.4265C12.2944 12.8976 10.6039 8.77937 10.304 8.26518C9.85207 7.90991 6.432 6.60105 3.33785 5.52124C3.15533 5.4558 3.0293 5.27349 3.0293 5.06782C3.0293 4.86214 3.15533 4.67983 3.33785 4.61439L8.83952 2.69784C8.92209 2.66979 9.009 2.66511 9.09157 2.69316C9.6174 2.84742 14.263 4.23107 15.2581 5.23141C16.0534 6.02608 18.3914 11.2756 18.852 12.318C18.9563 12.5564 18.8607 12.8415 18.6434 12.9537C18.4218 13.0659 18.1567 12.9631 18.0524 12.7293C17.0138 10.378 15.1712 6.45146 14.6541 5.93259C14.037 5.31555 10.9037 4.2264 8.98293 3.65611L4.90231 5.07716C7.74441 6.09153 10.6821 7.22276 10.995 7.67618C11.3644 8.2044 13.6676 13.9167 14.1239 15.0572C14.2195 15.3003 14.1152 15.5808 13.8936 15.6836C13.8414 15.7023 13.7806 15.7163 13.7197 15.7163Z" fill="#F29937"/>
<path d="M12.1504 13.3837L17.9954 34.1151C18.1692 34.7368 18.7124 35.1528 19.3165 35.1342L51.6442 34.059C52.2439 34.0403 52.7611 33.5916 52.9001 32.9605L57.0286 14.5897L12.1504 13.3837Z" fill="#F29937"/>
<path d="M20.847 22.0596C22.9373 26.7341 27.5568 27.6783 31.9547 27.4446C41.3979 26.9398 49.6504 22.9758 55.1825 14.5476C55.1825 14.5476 20.8036 13.6221 20.7949 13.6221C20.2864 13.6127 20.0387 17.1607 20.0126 17.6235C19.9257 19.152 20.2299 20.6853 20.847 22.0596Z" fill="#EABD83"/>
<path d="M51.5671 45.5537C51.1717 43.8569 50.359 42.1554 49.7724 41.2953C49.4682 40.8512 48.964 40.337 47.7907 40.337H21.0211C20.5996 40.337 19.8434 40.2622 19.5262 39.7573C19.2263 39.2852 19.3958 38.5373 19.5957 37.9951C20.3867 35.8214 21.0906 34.4424 21.095 34.4284L20.0477 34.5219C20.0173 34.578 19.5783 35.4054 18.7657 37.6445C18.3659 38.743 18.3746 39.6358 18.7918 40.2902C19.2046 40.94 19.9782 41.2859 21.0211 41.2859H22.4552V41.931C22.4552 42.333 22.7551 42.6555 23.1288 42.6555H23.6416C24.0153 42.6555 24.3152 42.3283 24.3152 41.931V41.2859H42.0153V41.931C42.0153 42.333 42.3151 42.6555 42.6888 42.6555H43.2016C43.5754 42.6555 43.8752 42.3283 43.8752 41.931V41.2859H47.7864C48.5947 41.2859 48.8641 41.5804 49.051 41.8562C49.6072 42.6696 50.3547 44.2776 50.7023 45.7781C50.7806 46.1147 50.7588 46.3718 50.6371 46.5447C50.3938 46.886 49.781 46.928 49.5985 46.9327C43.3972 47.0823 30.0167 46.9982 22.8333 46.9561C20.6952 46.9421 19.0786 46.9327 18.3094 46.9327C17.2186 46.9327 16.4103 46.5961 16.0236 45.9885C15.6542 45.3995 15.6672 44.5394 16.054 43.497C16.9101 41.2018 19.4262 34.3723 19.4262 34.3723L18.6006 34.0217C18.6006 34.0217 16.0844 40.8512 15.2326 43.1417C14.5982 44.8479 14.9111 45.923 15.2891 46.5214C15.841 47.4002 16.9144 47.8863 18.3094 47.8863C18.8135 47.8863 19.6913 47.891 20.8342 47.8957V48.522C20.8342 48.9241 21.1385 49.2466 21.5078 49.2466H22.0206C22.3944 49.2466 22.6942 48.9241 22.6942 48.522V48.0546C22.7464 47.9985 22.7724 47.9658 22.8246 47.9097C26.9183 47.9331 33.024 47.9705 38.6691 47.9705C40.2031 47.9705 41.698 47.9658 43.1147 47.9611V48.522C43.1147 48.9241 43.4146 49.2466 43.7883 49.2466H44.3011C44.6748 49.2466 44.9747 48.9241 44.9747 48.522V47.9518C46.7477 47.9377 48.3339 47.919 49.6159 47.8863C50.0635 47.877 50.8848 47.7601 51.3368 47.1244C51.641 46.7177 51.7105 46.1895 51.5671 45.5537Z" fill="#F29937"/>
<path d="M19.5513 56.6743C21.4953 56.6743 23.0713 54.9791 23.0713 52.8879C23.0713 50.7968 21.4953 49.1016 19.5513 49.1016C17.6072 49.1016 16.0312 50.7968 16.0312 52.8879C16.0312 54.9791 17.6072 56.6743 19.5513 56.6743Z" fill="#4141F9"/>
<path d="M18.1607 52.4719L19.3688 49.0502C19.434 48.8679 19.5948 48.7463 19.7773 48.7463H23.9753C24.3577 48.7463 24.5576 49.2372 24.2969 49.541L20.5204 53.9257C20.2076 54.2903 19.7208 54.4259 19.2819 54.2716L18.9039 54.1407C18.2607 53.9117 17.9217 53.1544 18.1607 52.4719Z" fill="#EABD83"/>
<path d="M20.3647 52.8879C20.3647 53.3694 20.004 53.7574 19.5564 53.7574C19.1087 53.7574 18.748 53.3694 18.748 52.8879C18.748 52.4065 19.1087 52.0185 19.5564 52.0185C19.9996 52.0138 20.3647 52.4065 20.3647 52.8879Z" fill="#4141F9"/>
<path d="M46.4341 56.6744C48.3781 56.6744 49.9541 54.9792 49.9541 52.888C49.9541 50.7969 48.3781 49.1017 46.4341 49.1017C44.49 49.1017 42.9141 50.7969 42.9141 52.888C42.9141 54.9792 44.49 56.6744 46.4341 56.6744Z" fill="#4141F9"/>
<path d="M47.8244 52.4719L46.6163 49.0502C46.5511 48.8679 46.3904 48.7463 46.2078 48.7463H42.0099C41.6274 48.7463 41.4276 49.2372 41.6883 49.541L45.4647 53.9257C45.7776 54.2903 46.2643 54.4259 46.7032 54.2716L47.0813 54.1407C47.7288 53.9117 48.0635 53.1544 47.8244 52.4719Z" fill="#EABD83"/>
<path d="M45.627 52.8879C45.627 53.3694 45.9876 53.7574 46.4352 53.7574C46.8829 53.7574 47.2436 53.3694 47.2436 52.8879C47.2436 52.4065 46.8829 52.0185 46.4352 52.0185C45.9876 52.0138 45.627 52.4065 45.627 52.8879Z" fill="#4141F9"/>
<path d="M12.5215 13.2997L17.5277 9.9574L56.1437 11.9861L57.0303 14.5898L12.5215 13.2997Z" fill="white" stroke="#F29937" stroke-width="2" stroke-miterlimit="10" stroke-linecap="round" stroke-linejoin="round"/>
<path d="M23.791 6.45599V13.2013L38.6012 13.6173V5.76416L23.791 6.45599Z" fill="#CDE6FA"/>
<path d="M38.5996 5.76416V13.6173L45.6571 13.8604V7.13847L38.5996 5.76416Z" fill="#4141F9"/>
<path d="M23.3555 5.17991L38.9435 4.49744V6.68978L23.3555 7.38628V5.17991Z" fill="#4141F9"/>
<path d="M38.9434 6.68978L46.1703 8.01734V5.94186L38.9434 4.49744V6.68978Z" fill="#4141F9"/>
</svg>
