<svg width="36" height="31" viewBox="0 0 36 31" fill="none" xmlns="http://www.w3.org/2000/svg">
<path d="M8.05647 2.58334H24.9014C25.8726 2.58334 26.804 2.92356 27.4908 3.52914C28.1775 4.13473 28.5633 4.95608 28.5633 5.81251V14.6126C26.8942 14.1358 25.1081 14.0749 23.4022 14.4367C21.6963 14.7985 20.137 15.5689 18.8963 16.663C17.6557 17.757 16.782 19.132 16.3717 20.6363C15.9614 22.1406 16.0304 23.7156 16.5712 25.1875H6.5917C6.5917 25.5301 6.74602 25.8586 7.02072 26.1009C7.29542 26.3431 7.66799 26.4792 8.05647 26.4792H17.185C17.6043 27.1878 18.136 27.8402 18.764 28.4167H8.05647C7.08527 28.4167 6.15384 28.0765 5.46709 27.4709C4.78034 26.8653 4.39453 26.0439 4.39453 25.1875V5.81251C4.39453 4.95608 4.78034 4.13473 5.46709 3.52914C6.15384 2.92356 7.08527 2.58334 8.05647 2.58334ZM10.2536 6.45834C9.86515 6.45834 9.49258 6.59443 9.21788 6.83666C8.94319 7.0789 8.78886 7.40744 8.78886 7.75001V9.04168C8.78886 9.38425 8.94319 9.71279 9.21788 9.95502C9.49258 10.1973 9.86515 10.3333 10.2536 10.3333H21.9718C22.3603 10.3333 22.7329 10.1973 23.0076 9.95502C23.2823 9.71279 23.4366 9.38425 23.4366 9.04168V7.75001C23.4366 7.40744 23.2823 7.0789 23.0076 6.83666C22.7329 6.59443 22.3603 6.45834 21.9718 6.45834H10.2536Z" fill="#4141F9"/>
<path fill-rule="evenodd" clip-rule="evenodd" d="M26.2018 30.21C30.6516 30.21 34.259 27.029 34.259 23.105C34.259 19.181 30.6516 16 26.2018 16C21.7519 16 18.1445 19.181 18.1445 23.105C18.1445 27.029 21.7519 30.21 26.2018 30.21ZM29.6416 22.5772L25.5314 20.2005V20.1992C25.4152 20.1288 25.2802 20.0863 25.1396 20.0761C24.9991 20.066 24.8579 20.0884 24.7302 20.1411C24.5695 20.2048 24.4331 20.3083 24.3377 20.439C24.2423 20.5697 24.1919 20.722 24.1926 20.8774V25.7315C24.1923 25.8365 24.2157 25.9406 24.2615 26.0376C24.3082 26.1324 24.3726 26.2197 24.4519 26.2959C24.534 26.368 24.6297 26.427 24.7346 26.4703C24.9167 26.543 25.1228 26.5536 25.3132 26.5C25.3952 26.4765 25.4731 26.443 25.5446 26.4005L29.6563 23.927C29.7806 23.8541 29.8807 23.7534 29.9463 23.6351C30.0158 23.5156 30.0519 23.3832 30.0518 23.2489C30.0536 23.1154 30.0169 22.9838 29.9452 22.8663C29.8734 22.7488 29.769 22.6493 29.6416 22.5772Z" fill="#FF991F"/>
</svg>
