<svg width="332" height="100" viewBox="0 0 332 100" fill="none" xmlns="http://www.w3.org/2000/svg">
<rect width="100" height="100" rx="16" fill="white"/>
<path d="M27.1511 85.895C27.1511 85.7017 27.1227 85.5233 27.0661 85.36C27.0127 85.1967 26.9327 85.055 26.8261 84.935C26.7194 84.815 26.5894 84.7217 26.4361 84.655C26.2827 84.5883 26.1061 84.555 25.9061 84.555C25.4961 84.555 25.1727 84.6733 24.9361 84.91C24.7027 85.1467 24.5544 85.475 24.4911 85.895H27.1511ZM27.9561 88.275C27.8361 88.415 27.6977 88.5367 27.5411 88.64C27.3844 88.74 27.2177 88.8217 27.0411 88.885C26.8644 88.9483 26.6811 88.995 26.4911 89.025C26.3044 89.055 26.1194 89.07 25.9361 89.07C25.5861 89.07 25.2611 89.0117 24.9611 88.895C24.6644 88.775 24.4061 88.6017 24.1861 88.375C23.9694 88.145 23.7994 87.8617 23.6761 87.525C23.5561 87.185 23.4961 86.795 23.4961 86.355C23.4961 86.0017 23.5511 85.6733 23.6611 85.37C23.7711 85.0633 23.9277 84.7967 24.1311 84.57C24.3377 84.3433 24.5894 84.165 24.8861 84.035C25.1827 83.905 25.5161 83.84 25.8861 83.84C26.1961 83.84 26.4811 83.8917 26.7411 83.995C27.0044 84.095 27.2311 84.2417 27.4211 84.435C27.6111 84.6283 27.7594 84.8667 27.8661 85.15C27.9761 85.4333 28.0311 85.7567 28.0311 86.12C28.0311 86.27 28.0144 86.3717 27.9811 86.425C27.9477 86.475 27.8861 86.5 27.7961 86.5H24.4661C24.4761 86.8033 24.5194 87.0683 24.5961 87.295C24.6727 87.5183 24.7777 87.705 24.9111 87.855C25.0477 88.005 25.2094 88.1167 25.3961 88.19C25.5827 88.2633 25.7911 88.3 26.0211 88.3C26.2377 88.3 26.4244 88.275 26.5811 88.225C26.7411 88.175 26.8777 88.1217 26.9911 88.065C27.1077 88.005 27.2044 87.95 27.2811 87.9C27.3611 87.85 27.4311 87.825 27.4911 87.825C27.5711 87.825 27.6327 87.855 27.6761 87.915L27.9561 88.275ZM34.3891 87.46C34.4491 87.46 34.5008 87.4833 34.5441 87.53L34.9641 87.99C34.6708 88.3367 34.3125 88.605 33.8891 88.795C33.4691 88.985 32.9625 89.08 32.3691 89.08C31.8491 89.08 31.3775 88.99 30.9541 88.81C30.5341 88.63 30.1741 88.3783 29.8741 88.055C29.5775 87.7317 29.3475 87.345 29.1841 86.895C29.0208 86.445 28.9391 85.95 28.9391 85.41C28.9391 84.87 29.0241 84.375 29.1941 83.925C29.3675 83.475 29.6091 83.0883 29.9191 82.765C30.2291 82.4417 30.5991 82.19 31.0291 82.01C31.4625 81.83 31.9408 81.74 32.4641 81.74C32.9741 81.74 33.4275 81.8233 33.8241 81.99C34.2208 82.1567 34.5658 82.3783 34.8591 82.655L34.5091 83.15C34.4858 83.1867 34.4558 83.2167 34.4191 83.24C34.3858 83.2633 34.3408 83.275 34.2841 83.275C34.2208 83.275 34.1458 83.2433 34.0591 83.18C33.9758 83.1167 33.8641 83.0467 33.7241 82.97C33.5875 82.89 33.4175 82.8183 33.2141 82.755C33.0108 82.6917 32.7575 82.66 32.4541 82.66C32.0975 82.66 31.7708 82.7233 31.4741 82.85C31.1775 82.9733 30.9208 83.1533 30.7041 83.39C30.4908 83.6233 30.3241 83.9117 30.2041 84.255C30.0875 84.595 30.0291 84.98 30.0291 85.41C30.0291 85.8467 30.0908 86.235 30.2141 86.575C30.3375 86.915 30.5075 87.2033 30.7241 87.44C30.9408 87.6767 31.1958 87.8567 31.4891 87.98C31.7825 88.1033 32.0991 88.165 32.4391 88.165C32.6458 88.165 32.8308 88.1533 32.9941 88.13C33.1608 88.1033 33.3125 88.065 33.4491 88.015C33.5891 87.965 33.7208 87.9017 33.8441 87.825C33.9675 87.745 34.0891 87.65 34.2091 87.54C34.2358 87.5167 34.2641 87.4983 34.2941 87.485C34.3241 87.4683 34.3558 87.46 34.3891 87.46ZM38.026 83.84C38.3994 83.84 38.736 83.9017 39.036 84.025C39.3394 84.145 39.596 84.32 39.806 84.55C40.0194 84.7767 40.1827 85.0517 40.296 85.375C40.4094 85.695 40.466 86.055 40.466 86.455C40.466 86.855 40.4094 87.2167 40.296 87.54C40.1827 87.8633 40.0194 88.1383 39.806 88.365C39.596 88.5917 39.3394 88.7667 39.036 88.89C38.736 89.01 38.3994 89.07 38.026 89.07C37.6494 89.07 37.3094 89.01 37.006 88.89C36.706 88.7667 36.4494 88.5917 36.236 88.365C36.0227 88.1383 35.8577 87.8633 35.741 87.54C35.6277 87.2167 35.571 86.855 35.571 86.455C35.571 86.055 35.6277 85.695 35.741 85.375C35.8577 85.0517 36.0227 84.7767 36.236 84.55C36.4494 84.32 36.706 84.145 37.006 84.025C37.3094 83.9017 37.6494 83.84 38.026 83.84ZM38.026 88.31C38.506 88.31 38.8644 88.1483 39.101 87.825C39.3377 87.5017 39.456 87.0467 39.456 86.46C39.456 85.8733 39.3377 85.4183 39.101 85.095C38.8644 84.7683 38.506 84.605 38.026 84.605C37.5394 84.605 37.176 84.7683 36.936 85.095C36.6994 85.4183 36.581 85.8733 36.581 86.46C36.581 87.0467 36.6994 87.5017 36.936 87.825C37.176 88.1483 37.5394 88.31 38.026 88.31ZM41.6788 89V83.92H42.2638C42.4004 83.92 42.4854 83.985 42.5188 84.115L42.5888 84.6C42.7754 84.3767 42.9821 84.195 43.2088 84.055C43.4388 83.9117 43.7071 83.84 44.0138 83.84C44.3504 83.84 44.6238 83.9333 44.8338 84.12C45.0438 84.3033 45.1971 84.5533 45.2938 84.87C45.3671 84.69 45.4621 84.535 45.5788 84.405C45.6954 84.275 45.8254 84.1683 45.9688 84.085C46.1121 84.0017 46.2638 83.94 46.4238 83.9C46.5871 83.86 46.7521 83.84 46.9188 83.84C47.1888 83.84 47.4288 83.8833 47.6388 83.97C47.8521 84.0533 48.0321 84.1767 48.1788 84.34C48.3254 84.5033 48.4371 84.705 48.5138 84.945C48.5904 85.185 48.6288 85.4583 48.6288 85.765V89H47.6488V85.765C47.6488 85.385 47.5654 85.0983 47.3988 84.905C47.2354 84.7117 46.9954 84.615 46.6788 84.615C46.5388 84.615 46.4054 84.64 46.2788 84.69C46.1521 84.7367 46.0404 84.8083 45.9438 84.905C45.8504 85.0017 45.7754 85.1217 45.7188 85.265C45.6654 85.4083 45.6388 85.575 45.6388 85.765V89H44.6588V85.765C44.6588 85.3717 44.5804 85.0817 44.4238 84.895C44.2671 84.7083 44.0371 84.615 43.7338 84.615C43.5238 84.615 43.3288 84.67 43.1488 84.78C42.9688 84.89 42.8038 85.04 42.6538 85.23V89H41.6788ZM50.0649 89V83.92H50.6499C50.7865 83.92 50.8715 83.985 50.9049 84.115L50.9749 84.6C51.1615 84.3767 51.3682 84.195 51.5949 84.055C51.8249 83.9117 52.0932 83.84 52.3999 83.84C52.7365 83.84 53.0099 83.9333 53.2199 84.12C53.4299 84.3033 53.5832 84.5533 53.6799 84.87C53.7532 84.69 53.8482 84.535 53.9649 84.405C54.0815 84.275 54.2115 84.1683 54.3549 84.085C54.4982 84.0017 54.6499 83.94 54.8099 83.9C54.9732 83.86 55.1382 83.84 55.3049 83.84C55.5749 83.84 55.8149 83.8833 56.0249 83.97C56.2382 84.0533 56.4182 84.1767 56.5649 84.34C56.7115 84.5033 56.8232 84.705 56.8999 84.945C56.9765 85.185 57.0149 85.4583 57.0149 85.765V89H56.0349V85.765C56.0349 85.385 55.9515 85.0983 55.7849 84.905C55.6215 84.7117 55.3815 84.615 55.0649 84.615C54.9249 84.615 54.7915 84.64 54.6649 84.69C54.5382 84.7367 54.4265 84.8083 54.3299 84.905C54.2365 85.0017 54.1615 85.1217 54.1049 85.265C54.0515 85.4083 54.0249 85.575 54.0249 85.765V89H53.0449V85.765C53.0449 85.3717 52.9665 85.0817 52.8099 84.895C52.6532 84.7083 52.4232 84.615 52.1199 84.615C51.9099 84.615 51.7149 84.67 51.5349 84.78C51.3549 84.89 51.1899 85.04 51.0399 85.23V89H50.0649ZM61.816 85.895C61.816 85.7017 61.7877 85.5233 61.731 85.36C61.6777 85.1967 61.5977 85.055 61.491 84.935C61.3843 84.815 61.2543 84.7217 61.101 84.655C60.9477 84.5883 60.771 84.555 60.571 84.555C60.161 84.555 59.8377 84.6733 59.601 84.91C59.3677 85.1467 59.2193 85.475 59.156 85.895H61.816ZM62.621 88.275C62.501 88.415 62.3627 88.5367 62.206 88.64C62.0493 88.74 61.8827 88.8217 61.706 88.885C61.5293 88.9483 61.346 88.995 61.156 89.025C60.9693 89.055 60.7843 89.07 60.601 89.07C60.251 89.07 59.926 89.0117 59.626 88.895C59.3293 88.775 59.071 88.6017 58.851 88.375C58.6343 88.145 58.4643 87.8617 58.341 87.525C58.221 87.185 58.161 86.795 58.161 86.355C58.161 86.0017 58.216 85.6733 58.326 85.37C58.436 85.0633 58.5927 84.7967 58.796 84.57C59.0027 84.3433 59.2543 84.165 59.551 84.035C59.8477 83.905 60.181 83.84 60.551 83.84C60.861 83.84 61.146 83.8917 61.406 83.995C61.6693 84.095 61.896 84.2417 62.086 84.435C62.276 84.6283 62.4243 84.8667 62.531 85.15C62.641 85.4333 62.696 85.7567 62.696 86.12C62.696 86.27 62.6793 86.3717 62.646 86.425C62.6127 86.475 62.551 86.5 62.461 86.5H59.131C59.141 86.8033 59.1843 87.0683 59.261 87.295C59.3377 87.5183 59.4427 87.705 59.576 87.855C59.7127 88.005 59.8743 88.1167 60.061 88.19C60.2477 88.2633 60.456 88.3 60.686 88.3C60.9027 88.3 61.0893 88.275 61.246 88.225C61.406 88.175 61.5427 88.1217 61.656 88.065C61.7727 88.005 61.8693 87.95 61.946 87.9C62.026 87.85 62.096 87.825 62.156 87.825C62.236 87.825 62.2977 87.855 62.341 87.915L62.621 88.275ZM64.7883 84.895C64.9517 84.5617 65.1483 84.3 65.3783 84.11C65.6083 83.92 65.885 83.825 66.2083 83.825C66.3183 83.825 66.4217 83.8383 66.5183 83.865C66.6183 83.8883 66.705 83.925 66.7783 83.975L66.7133 84.71C66.69 84.8 66.635 84.845 66.5483 84.845C66.5017 84.845 66.4317 84.8367 66.3383 84.82C66.245 84.8 66.145 84.79 66.0383 84.79C65.8817 84.79 65.7433 84.8133 65.6233 84.86C65.5033 84.9033 65.395 84.97 65.2983 85.06C65.205 85.1467 65.1217 85.255 65.0483 85.385C64.975 85.5117 64.9067 85.6567 64.8433 85.82V89H63.8683V83.92H64.4283C64.535 83.92 64.6067 83.94 64.6433 83.98C64.6833 84.0167 64.7117 84.0833 64.7283 84.18L64.7883 84.895ZM71.0293 84.87C70.9993 84.9067 70.9693 84.9367 70.9393 84.96C70.9126 84.98 70.8726 84.99 70.8193 84.99C70.766 84.99 70.7093 84.97 70.6493 84.93C70.5926 84.8867 70.5193 84.8417 70.4293 84.795C70.3426 84.745 70.236 84.7 70.1093 84.66C69.986 84.6167 69.8326 84.595 69.6493 84.595C69.4093 84.595 69.1976 84.6383 69.0143 84.725C68.831 84.8117 68.6776 84.935 68.5543 85.095C68.4343 85.255 68.3426 85.45 68.2793 85.68C68.216 85.91 68.1843 86.1683 68.1843 86.455C68.1843 86.7517 68.2176 87.0167 68.2843 87.25C68.351 87.48 68.446 87.675 68.5693 87.835C68.6926 87.9917 68.8426 88.1117 69.0193 88.195C69.196 88.275 69.3926 88.315 69.6093 88.315C69.8193 88.315 69.9926 88.29 70.1293 88.24C70.266 88.1867 70.3793 88.13 70.4693 88.07C70.5593 88.01 70.6343 87.955 70.6943 87.905C70.7543 87.8517 70.816 87.825 70.8793 87.825C70.9593 87.825 71.021 87.855 71.0643 87.915L71.3443 88.275C71.2276 88.4183 71.096 88.54 70.9493 88.64C70.806 88.74 70.6526 88.8217 70.4893 88.885C70.326 88.9483 70.1543 88.995 69.9743 89.025C69.7976 89.055 69.6176 89.07 69.4343 89.07C69.1176 89.07 68.821 89.0117 68.5443 88.895C68.271 88.7783 68.0326 88.6083 67.8293 88.385C67.6293 88.1617 67.471 87.8883 67.3543 87.565C67.2376 87.2383 67.1793 86.8683 67.1793 86.455C67.1793 86.0783 67.231 85.73 67.3343 85.41C67.441 85.09 67.596 84.815 67.7993 84.585C68.006 84.3517 68.2593 84.17 68.5593 84.04C68.8593 83.9067 69.2026 83.84 69.5893 83.84C69.9526 83.84 70.2726 83.8983 70.5493 84.015C70.826 84.1317 71.0726 84.2967 71.2893 84.51L71.0293 84.87ZM75.656 85.895C75.656 85.7017 75.6276 85.5233 75.571 85.36C75.5176 85.1967 75.4376 85.055 75.331 84.935C75.2243 84.815 75.0943 84.7217 74.941 84.655C74.7876 84.5883 74.611 84.555 74.411 84.555C74.001 84.555 73.6776 84.6733 73.441 84.91C73.2076 85.1467 73.0593 85.475 72.996 85.895H75.656ZM76.461 88.275C76.341 88.415 76.2026 88.5367 76.046 88.64C75.8893 88.74 75.7226 88.8217 75.546 88.885C75.3693 88.9483 75.186 88.995 74.996 89.025C74.8093 89.055 74.6243 89.07 74.441 89.07C74.091 89.07 73.766 89.0117 73.466 88.895C73.1693 88.775 72.911 88.6017 72.691 88.375C72.4743 88.145 72.3043 87.8617 72.181 87.525C72.061 87.185 72.001 86.795 72.001 86.355C72.001 86.0017 72.056 85.6733 72.166 85.37C72.276 85.0633 72.4326 84.7967 72.636 84.57C72.8426 84.3433 73.0943 84.165 73.391 84.035C73.6876 83.905 74.021 83.84 74.391 83.84C74.701 83.84 74.986 83.8917 75.246 83.995C75.5093 84.095 75.736 84.2417 75.926 84.435C76.116 84.6283 76.2643 84.8667 76.371 85.15C76.481 85.4333 76.536 85.7567 76.536 86.12C76.536 86.27 76.5193 86.3717 76.486 86.425C76.4526 86.475 76.391 86.5 76.301 86.5H72.971C72.981 86.8033 73.0243 87.0683 73.101 87.295C73.1776 87.5183 73.2826 87.705 73.416 87.855C73.5526 88.005 73.7143 88.1167 73.901 88.19C74.0876 88.2633 74.296 88.3 74.526 88.3C74.7426 88.3 74.9293 88.275 75.086 88.225C75.246 88.175 75.3826 88.1217 75.496 88.065C75.6126 88.005 75.7093 87.95 75.786 87.9C75.866 87.85 75.936 87.825 75.996 87.825C76.076 87.825 76.1376 87.855 76.181 87.915L76.461 88.275Z" fill="black"/>
<path d="M44.5489 57.6471C44.5489 59.4281 43.2061 60.8679 41.5547 60.8679C39.9034 60.8679 38.5605 59.4234 38.5605 57.6471C38.5605 55.8661 39.9034 54.4264 41.5547 54.4264C43.2061 54.4264 44.5489 55.8661 44.5489 57.6471Z" fill="#4141F9"/>
<path d="M40.3687 57.2919L41.3943 54.3797C41.4508 54.2254 41.5899 54.1226 41.742 54.1226H45.3142C45.6401 54.1226 45.8096 54.5386 45.5879 54.7957L42.3721 58.5306C42.1027 58.8438 41.6942 58.956 41.3161 58.8251L40.9945 58.7129C40.4513 58.5166 40.1645 57.8715 40.3687 57.2919Z" fill="#EABD83"/>
<path d="M41.5542 58.3904C41.9359 58.3904 42.2452 58.0577 42.2452 57.6472C42.2452 57.2367 41.9359 56.9039 41.5542 56.9039C41.1726 56.9039 40.8633 57.2367 40.8633 57.6472C40.8633 58.0577 41.1726 58.3904 41.5542 58.3904Z" fill="#4141F9"/>
<path d="M61.8984 57.647C61.8984 59.428 63.2413 60.8677 64.8926 60.8677C66.5484 60.8677 67.8868 59.4233 67.8868 57.647C67.8868 55.866 66.544 54.4263 64.8926 54.4263C63.2369 54.4263 61.8984 55.866 61.8984 57.647Z" fill="#4141F9"/>
<path d="M66.0735 57.2919L65.0479 54.3797C64.9914 54.2254 64.8523 54.1226 64.7002 54.1226H61.128C60.8021 54.1226 60.6326 54.5386 60.8543 54.7957L64.0701 58.5306C64.3395 58.8438 64.748 58.956 65.1261 58.8251L65.4477 58.7129C65.9909 58.5166 66.2777 57.8715 66.0735 57.2919Z" fill="#EABD83"/>
<path d="M64.8921 58.3904C65.2737 58.3904 65.5831 58.0577 65.5831 57.6472C65.5831 57.2367 65.2737 56.9039 64.8921 56.9039C64.5105 56.9039 64.2012 57.2367 64.2012 57.6472C64.2012 58.0577 64.5105 58.3904 64.8921 58.3904Z" fill="#4141F9"/>
<path d="M33.7197 27.7163C33.5459 27.7163 33.3851 27.6088 33.3113 27.4265C32.2944 24.8976 30.6039 20.7794 30.304 20.2652C29.8521 19.9099 26.432 18.6011 23.3379 17.5212C23.1553 17.4558 23.0293 17.2735 23.0293 17.0678C23.0293 16.8621 23.1553 16.6798 23.3379 16.6144L28.8395 14.6978C28.9221 14.6698 29.009 14.6651 29.0916 14.6932C29.6174 14.8474 34.263 16.2311 35.2581 17.2314C36.0534 18.0261 38.3914 23.2756 38.852 24.318C38.9563 24.5564 38.8607 24.8415 38.6434 24.9537C38.4218 25.0659 38.1567 24.9631 38.0524 24.7293C37.0138 22.378 35.1712 18.4515 34.6541 17.9326C34.037 17.3156 30.9037 16.2264 28.9829 15.6561L24.9023 17.0772C27.7444 18.0915 30.6821 19.2228 30.995 19.6762C31.3644 20.2044 33.6676 25.9167 34.1239 27.0572C34.2195 27.3003 34.1152 27.5808 33.8936 27.6836C33.8414 27.7023 33.7806 27.7163 33.7197 27.7163Z" fill="#F29937"/>
<path d="M32.1504 25.3837L37.9954 46.1151C38.1692 46.7368 38.7124 47.1528 39.3165 47.1342L71.6442 46.059C72.2439 46.0403 72.7611 45.5916 72.9001 44.9605L77.0286 26.5897L32.1504 25.3837Z" fill="#F29937"/>
<path d="M40.847 34.0596C42.9373 38.7341 47.5568 39.6783 51.9547 39.4446C61.3979 38.9398 69.6504 34.9758 75.1825 26.5476C75.1825 26.5476 40.8036 25.6221 40.7949 25.6221C40.2864 25.6127 40.0387 29.1607 40.0126 29.6235C39.9257 31.152 40.2299 32.6853 40.847 34.0596Z" fill="#EABD83"/>
<path d="M71.5671 57.5537C71.1717 55.8569 70.359 54.1554 69.7724 53.2953C69.4682 52.8512 68.964 52.337 67.7907 52.337H41.0211C40.5996 52.337 39.8434 52.2622 39.5262 51.7573C39.2263 51.2852 39.3958 50.5373 39.5957 49.9951C40.3867 47.8214 41.0906 46.4424 41.095 46.4284L40.0477 46.5219C40.0173 46.578 39.5783 47.4054 38.7657 49.6445C38.3659 50.743 38.3746 51.6358 38.7918 52.2902C39.2046 52.94 39.9782 53.2859 41.0211 53.2859H42.4552V53.931C42.4552 54.333 42.7551 54.6555 43.1288 54.6555H43.6416C44.0153 54.6555 44.3152 54.3283 44.3152 53.931V53.2859H62.0153V53.931C62.0153 54.333 62.3151 54.6555 62.6888 54.6555H63.2016C63.5754 54.6555 63.8752 54.3283 63.8752 53.931V53.2859H67.7864C68.5947 53.2859 68.8641 53.5804 69.051 53.8562C69.6072 54.6696 70.3547 56.2776 70.7023 57.7781C70.7806 58.1147 70.7588 58.3718 70.6371 58.5447C70.3938 58.886 69.781 58.928 69.5985 58.9327C63.3972 59.0823 50.0167 58.9982 42.8333 58.9561C40.6952 58.9421 39.0786 58.9327 38.3094 58.9327C37.2186 58.9327 36.4103 58.5961 36.0236 57.9885C35.6542 57.3995 35.6672 56.5394 36.054 55.497C36.9101 53.2018 39.4262 46.3723 39.4262 46.3723L38.6006 46.0217C38.6006 46.0217 36.0844 52.8512 35.2326 55.1417C34.5982 56.8479 34.9111 57.923 35.2891 58.5214C35.841 59.4002 36.9144 59.8863 38.3094 59.8863C38.8135 59.8863 39.6913 59.891 40.8342 59.8957V60.522C40.8342 60.9241 41.1385 61.2466 41.5078 61.2466H42.0206C42.3944 61.2466 42.6942 60.9241 42.6942 60.522V60.0546C42.7464 59.9985 42.7724 59.9658 42.8246 59.9097C46.9183 59.9331 53.024 59.9705 58.6691 59.9705C60.2031 59.9705 61.698 59.9658 63.1147 59.9611V60.522C63.1147 60.9241 63.4146 61.2466 63.7883 61.2466H64.3011C64.6748 61.2466 64.9747 60.9241 64.9747 60.522V59.9518C66.7477 59.9377 68.3339 59.919 69.6159 59.8863C70.0635 59.877 70.8848 59.7601 71.3368 59.1244C71.641 58.7177 71.7105 58.1895 71.5671 57.5537Z" fill="#F29937"/>
<path d="M39.5513 68.6743C41.4953 68.6743 43.0713 66.9791 43.0713 64.8879C43.0713 62.7968 41.4953 61.1016 39.5513 61.1016C37.6072 61.1016 36.0312 62.7968 36.0312 64.8879C36.0312 66.9791 37.6072 68.6743 39.5513 68.6743Z" fill="#4141F9"/>
<path d="M38.1607 64.4719L39.3688 61.0502C39.434 60.8679 39.5948 60.7463 39.7773 60.7463H43.9753C44.3577 60.7463 44.5576 61.2372 44.2969 61.541L40.5204 65.9257C40.2076 66.2903 39.7208 66.4259 39.2819 66.2716L38.9039 66.1407C38.2607 65.9117 37.9217 65.1544 38.1607 64.4719Z" fill="#EABD83"/>
<path d="M40.3647 64.8879C40.3647 65.3694 40.004 65.7574 39.5564 65.7574C39.1087 65.7574 38.748 65.3694 38.748 64.8879C38.748 64.4065 39.1087 64.0185 39.5564 64.0185C39.9996 64.0138 40.3647 64.4065 40.3647 64.8879Z" fill="#4141F9"/>
<path d="M66.4341 68.6744C68.3781 68.6744 69.9541 66.9792 69.9541 64.888C69.9541 62.7969 68.3781 61.1017 66.4341 61.1017C64.49 61.1017 62.9141 62.7969 62.9141 64.888C62.9141 66.9792 64.49 68.6744 66.4341 68.6744Z" fill="#4141F9"/>
<path d="M67.8244 64.4719L66.6163 61.0502C66.5511 60.8679 66.3904 60.7463 66.2078 60.7463H62.0099C61.6274 60.7463 61.4276 61.2372 61.6883 61.541L65.4647 65.9257C65.7776 66.2903 66.2643 66.4259 66.7032 66.2716L67.0813 66.1407C67.7288 65.9117 68.0635 65.1544 67.8244 64.4719Z" fill="#EABD83"/>
<path d="M65.627 64.8879C65.627 65.3694 65.9876 65.7574 66.4352 65.7574C66.8829 65.7574 67.2436 65.3694 67.2436 64.8879C67.2436 64.4065 66.8829 64.0185 66.4352 64.0185C65.9876 64.0138 65.627 64.4065 65.627 64.8879Z" fill="#4141F9"/>
<path d="M32.5215 25.2997L37.5277 21.9574L76.1437 23.9861L77.0303 26.5898L32.5215 25.2997Z" fill="white" stroke="#F29937" stroke-width="2" stroke-miterlimit="10" stroke-linecap="round" stroke-linejoin="round"/>
<path d="M43.791 18.456V25.2013L58.6012 25.6173V17.7642L43.791 18.456Z" fill="#CDE6FA"/>
<path d="M58.5996 17.7642V25.6173L65.6571 25.8604V19.1385L58.5996 17.7642Z" fill="#4141F9"/>
<path d="M43.3555 17.1799L58.9435 16.4974V18.6898L43.3555 19.3863V17.1799Z" fill="#4141F9"/>
<path d="M58.9434 18.6898L66.1703 20.0173V17.9419L58.9434 16.4974V18.6898Z" fill="#4141F9"/>
<rect x="116" width="100" height="100" rx="16" fill="white"/>
<path d="M134.176 85.41C134.176 85.9467 134.09 86.435 133.916 86.875C133.746 87.315 133.505 87.6933 133.191 88.01C132.878 88.3233 132.503 88.5667 132.066 88.74C131.63 88.9133 131.145 89 130.611 89H127.911V81.82H130.611C131.145 81.82 131.63 81.9067 132.066 82.08C132.503 82.2533 132.878 82.4983 133.191 82.815C133.505 83.1283 133.746 83.5067 133.916 83.95C134.09 84.39 134.176 84.8767 134.176 85.41ZM133.086 85.41C133.086 84.9833 133.028 84.6017 132.911 84.265C132.795 83.925 132.628 83.6383 132.411 83.405C132.198 83.1683 131.938 82.9883 131.631 82.865C131.328 82.7417 130.988 82.68 130.611 82.68H128.981V88.14H130.611C130.988 88.14 131.328 88.0783 131.631 87.955C131.938 87.8317 132.198 87.6533 132.411 87.42C132.628 87.1833 132.795 86.8967 132.911 86.56C133.028 86.2233 133.086 85.84 133.086 85.41ZM136.366 83.92V89H135.391V83.92H136.366ZM136.551 82.35C136.551 82.44 136.532 82.5267 136.496 82.61C136.459 82.69 136.409 82.7617 136.346 82.825C136.286 82.885 136.214 82.9333 136.131 82.97C136.047 83.0033 135.961 83.02 135.871 83.02C135.781 83.02 135.696 83.0033 135.616 82.97C135.536 82.9333 135.464 82.885 135.401 82.825C135.341 82.7617 135.292 82.69 135.256 82.61C135.222 82.5267 135.206 82.44 135.206 82.35C135.206 82.2567 135.222 82.17 135.256 82.09C135.292 82.0067 135.341 81.935 135.401 81.875C135.464 81.8117 135.536 81.7633 135.616 81.73C135.696 81.6933 135.781 81.675 135.871 81.675C135.961 81.675 136.047 81.6933 136.131 81.73C136.214 81.7633 136.286 81.8117 136.346 81.875C136.409 81.935 136.459 82.0067 136.496 82.09C136.532 82.17 136.551 82.2567 136.551 82.35ZM139.687 86.465C139.86 86.465 140.012 86.4417 140.142 86.395C140.275 86.3483 140.385 86.2833 140.472 86.2C140.562 86.1133 140.628 86.01 140.672 85.89C140.718 85.77 140.742 85.6383 140.742 85.495C140.742 85.2017 140.652 84.9683 140.472 84.795C140.295 84.6183 140.033 84.53 139.687 84.53C139.343 84.53 139.082 84.6183 138.902 84.795C138.725 84.9683 138.637 85.2017 138.637 85.495C138.637 85.6383 138.658 85.77 138.702 85.89C138.748 86.0067 138.815 86.1083 138.902 86.195C138.992 86.2783 139.102 86.345 139.232 86.395C139.365 86.4417 139.517 86.465 139.687 86.465ZM141.242 89.265C141.242 89.145 141.208 89.05 141.142 88.98C141.075 88.9067 140.983 88.85 140.867 88.81C140.753 88.7667 140.62 88.7367 140.467 88.72C140.313 88.7 140.152 88.685 139.982 88.675C139.815 88.665 139.643 88.6567 139.467 88.65C139.29 88.64 139.12 88.6233 138.957 88.6C138.783 88.6867 138.64 88.7917 138.527 88.915C138.417 89.0383 138.362 89.1833 138.362 89.35C138.362 89.4567 138.388 89.5567 138.442 89.65C138.498 89.7433 138.583 89.8233 138.697 89.89C138.813 89.96 138.958 90.0133 139.132 90.05C139.308 90.09 139.518 90.11 139.762 90.11C140.002 90.11 140.213 90.0883 140.397 90.045C140.58 90.005 140.733 89.9467 140.857 89.87C140.983 89.7967 141.078 89.7083 141.142 89.605C141.208 89.5017 141.242 89.3883 141.242 89.265ZM142.232 84.11V84.475C142.232 84.595 142.157 84.67 142.007 84.7L141.462 84.78C141.508 84.8833 141.545 84.9933 141.572 85.11C141.598 85.2233 141.612 85.3433 141.612 85.47C141.612 85.72 141.563 85.9467 141.467 86.15C141.37 86.35 141.237 86.5217 141.067 86.665C140.897 86.8083 140.693 86.9183 140.457 86.995C140.223 87.0717 139.967 87.11 139.687 87.11C139.457 87.11 139.242 87.085 139.042 87.035C138.942 87.095 138.865 87.1617 138.812 87.235C138.762 87.305 138.737 87.375 138.737 87.445C138.737 87.5617 138.785 87.6483 138.882 87.705C138.982 87.7617 139.11 87.8033 139.267 87.83C139.427 87.8533 139.608 87.8683 139.812 87.875C140.018 87.8817 140.227 87.8933 140.437 87.91C140.65 87.9233 140.858 87.95 141.062 87.99C141.268 88.0267 141.45 88.0883 141.607 88.175C141.767 88.2583 141.895 88.375 141.992 88.525C142.092 88.6717 142.142 88.8633 142.142 89.1C142.142 89.32 142.087 89.5333 141.977 89.74C141.87 89.9467 141.713 90.13 141.507 90.29C141.3 90.45 141.048 90.5783 140.752 90.675C140.455 90.7717 140.118 90.82 139.742 90.82C139.365 90.82 139.037 90.7833 138.757 90.71C138.48 90.6367 138.248 90.5383 138.062 90.415C137.878 90.2917 137.74 90.1483 137.647 89.985C137.557 89.8217 137.512 89.6517 137.512 89.475C137.512 89.2283 137.588 89.02 137.742 88.85C137.895 88.6767 138.107 88.5417 138.377 88.445C138.23 88.3783 138.113 88.2883 138.027 88.175C137.94 88.0583 137.897 87.905 137.897 87.715C137.897 87.6417 137.91 87.5667 137.937 87.49C137.963 87.41 138.003 87.3317 138.057 87.255C138.113 87.175 138.182 87.1 138.262 87.03C138.345 86.96 138.44 86.8967 138.547 86.84C138.297 86.7 138.1 86.515 137.957 86.285C137.813 86.0517 137.742 85.78 137.742 85.47C137.742 85.22 137.79 84.995 137.887 84.795C137.983 84.595 138.117 84.4233 138.287 84.28C138.46 84.1367 138.665 84.0267 138.902 83.95C139.142 83.8733 139.403 83.835 139.687 83.835C140.127 83.835 140.505 83.9267 140.822 84.11H142.232ZM144.271 83.92V89H143.296V83.92H144.271ZM144.456 82.35C144.456 82.44 144.437 82.5267 144.401 82.61C144.364 82.69 144.314 82.7617 144.251 82.825C144.191 82.885 144.119 82.9333 144.036 82.97C143.952 83.0033 143.866 83.02 143.776 83.02C143.686 83.02 143.601 83.0033 143.521 82.97C143.441 82.9333 143.369 82.885 143.306 82.825C143.246 82.7617 143.197 82.69 143.161 82.61C143.127 82.5267 143.111 82.44 143.111 82.35C143.111 82.2567 143.127 82.17 143.161 82.09C143.197 82.0067 143.246 81.935 143.306 81.875C143.369 81.8117 143.441 81.7633 143.521 81.73C143.601 81.6933 143.686 81.675 143.776 81.675C143.866 81.675 143.952 81.6933 144.036 81.73C144.119 81.7633 144.191 81.8117 144.251 81.875C144.314 81.935 144.364 82.0067 144.401 82.09C144.437 82.17 144.456 82.2567 144.456 82.35ZM147.397 89.08C146.987 89.08 146.67 88.965 146.447 88.735C146.227 88.505 146.117 88.1767 146.117 87.75V84.71H145.527C145.47 84.71 145.422 84.6933 145.382 84.66C145.345 84.6233 145.327 84.57 145.327 84.5V84.105L146.152 83.99L146.372 82.475C146.385 82.4183 146.41 82.375 146.447 82.345C146.487 82.3117 146.537 82.295 146.597 82.295H147.092V84H148.532V84.71H147.092V87.685C147.092 87.885 147.14 88.035 147.237 88.135C147.337 88.2317 147.463 88.28 147.617 88.28C147.707 88.28 147.783 88.2683 147.847 88.245C147.913 88.2217 147.97 88.1967 148.017 88.17C148.063 88.14 148.103 88.1133 148.137 88.09C148.17 88.0667 148.2 88.055 148.227 88.055C148.26 88.055 148.285 88.0633 148.302 88.08C148.322 88.0933 148.342 88.1167 148.362 88.15L148.652 88.62C148.492 88.7667 148.302 88.88 148.082 88.96C147.862 89.04 147.633 89.08 147.397 89.08ZM152.284 86.745C151.887 86.7583 151.551 86.79 151.274 86.84C150.997 86.8867 150.772 86.95 150.599 87.03C150.426 87.11 150.301 87.205 150.224 87.315C150.147 87.4217 150.109 87.5417 150.109 87.675C150.109 87.8017 150.129 87.9117 150.169 88.005C150.212 88.095 150.269 88.17 150.339 88.23C150.412 88.2867 150.497 88.3283 150.594 88.355C150.691 88.3817 150.796 88.395 150.909 88.395C151.059 88.395 151.196 88.38 151.319 88.35C151.446 88.32 151.564 88.2783 151.674 88.225C151.784 88.1683 151.889 88.1 151.989 88.02C152.089 87.94 152.187 87.8483 152.284 87.745V86.745ZM149.424 84.63C149.707 84.36 150.014 84.1583 150.344 84.025C150.677 83.8917 151.042 83.825 151.439 83.825C151.729 83.825 151.986 83.8733 152.209 83.97C152.432 84.0633 152.621 84.195 152.774 84.365C152.927 84.535 153.042 84.7383 153.119 84.975C153.199 85.2117 153.239 85.4733 153.239 85.76V89H152.804C152.707 89 152.634 88.985 152.584 88.955C152.534 88.9217 152.494 88.8617 152.464 88.775L152.359 88.33C152.229 88.45 152.101 88.5567 151.974 88.65C151.847 88.74 151.714 88.8183 151.574 88.885C151.437 88.9483 151.291 88.9967 151.134 89.03C150.977 89.0633 150.804 89.08 150.614 89.08C150.414 89.08 150.226 89.0533 150.049 89C149.876 88.9433 149.724 88.8583 149.594 88.745C149.464 88.6317 149.361 88.49 149.284 88.32C149.211 88.15 149.174 87.9517 149.174 87.725C149.174 87.525 149.227 87.3333 149.334 87.15C149.444 86.9633 149.621 86.7967 149.864 86.65C150.111 86.5033 150.431 86.3833 150.824 86.29C151.221 86.1967 151.707 86.1433 152.284 86.13V85.76C152.284 85.3767 152.202 85.09 152.039 84.9C151.876 84.71 151.636 84.615 151.319 84.615C151.106 84.615 150.926 84.6417 150.779 84.695C150.636 84.7483 150.511 84.8083 150.404 84.875C150.301 84.9383 150.209 84.9967 150.129 85.05C150.052 85.1033 149.972 85.13 149.889 85.13C149.822 85.13 149.764 85.1117 149.714 85.075C149.667 85.0383 149.629 84.995 149.599 84.945L149.424 84.63ZM155.669 81.62V89H154.689V81.62H155.669ZM167.589 81.82V89H166.659V83.89C166.659 83.8133 166.661 83.7317 166.664 83.645C166.671 83.5583 166.678 83.47 166.684 83.38L164.294 87.765C164.211 87.9283 164.083 88.01 163.909 88.01H163.759C163.586 88.01 163.459 87.9283 163.379 87.765L160.944 83.365C160.964 83.5517 160.974 83.7267 160.974 83.89V89H160.039V81.82H160.829C160.923 81.82 160.994 81.83 161.044 81.85C161.098 81.8667 161.148 81.9167 161.194 82L163.594 86.3C163.641 86.3867 163.684 86.4783 163.724 86.575C163.764 86.6717 163.803 86.7683 163.839 86.865C163.909 86.6683 163.991 86.4783 164.084 86.295L166.439 82C166.483 81.9167 166.529 81.8667 166.579 81.85C166.633 81.83 166.706 81.82 166.799 81.82H167.589ZM171.873 86.745C171.477 86.7583 171.14 86.79 170.863 86.84C170.587 86.8867 170.362 86.95 170.188 87.03C170.015 87.11 169.89 87.205 169.813 87.315C169.737 87.4217 169.698 87.5417 169.698 87.675C169.698 87.8017 169.718 87.9117 169.758 88.005C169.802 88.095 169.858 88.17 169.928 88.23C170.002 88.2867 170.087 88.3283 170.183 88.355C170.28 88.3817 170.385 88.395 170.498 88.395C170.648 88.395 170.785 88.38 170.908 88.35C171.035 88.32 171.153 88.2783 171.263 88.225C171.373 88.1683 171.478 88.1 171.578 88.02C171.678 87.94 171.777 87.8483 171.873 87.745V86.745ZM169.013 84.63C169.297 84.36 169.603 84.1583 169.933 84.025C170.267 83.8917 170.632 83.825 171.028 83.825C171.318 83.825 171.575 83.8733 171.798 83.97C172.022 84.0633 172.21 84.195 172.363 84.365C172.517 84.535 172.632 84.7383 172.708 84.975C172.788 85.2117 172.828 85.4733 172.828 85.76V89H172.393C172.297 89 172.223 88.985 172.173 88.955C172.123 88.9217 172.083 88.8617 172.053 88.775L171.948 88.33C171.818 88.45 171.69 88.5567 171.563 88.65C171.437 88.74 171.303 88.8183 171.163 88.885C171.027 88.9483 170.88 88.9967 170.723 89.03C170.567 89.0633 170.393 89.08 170.203 89.08C170.003 89.08 169.815 89.0533 169.638 89C169.465 88.9433 169.313 88.8583 169.183 88.745C169.053 88.6317 168.95 88.49 168.873 88.32C168.8 88.15 168.763 87.9517 168.763 87.725C168.763 87.525 168.817 87.3333 168.923 87.15C169.033 86.9633 169.21 86.7967 169.453 86.65C169.7 86.5033 170.02 86.3833 170.413 86.29C170.81 86.1967 171.297 86.1433 171.873 86.13V85.76C171.873 85.3767 171.792 85.09 171.628 84.9C171.465 84.71 171.225 84.615 170.908 84.615C170.695 84.615 170.515 84.6417 170.368 84.695C170.225 84.7483 170.1 84.8083 169.993 84.875C169.89 84.9383 169.798 84.9967 169.718 85.05C169.642 85.1033 169.562 85.13 169.478 85.13C169.412 85.13 169.353 85.1117 169.303 85.075C169.257 85.0383 169.218 84.995 169.188 84.945L169.013 84.63ZM175.178 84.895C175.341 84.5617 175.538 84.3 175.768 84.11C175.998 83.92 176.275 83.825 176.598 83.825C176.708 83.825 176.811 83.8383 176.908 83.865C177.008 83.8883 177.095 83.925 177.168 83.975L177.103 84.71C177.08 84.8 177.025 84.845 176.938 84.845C176.891 84.845 176.821 84.8367 176.728 84.82C176.635 84.8 176.535 84.79 176.428 84.79C176.271 84.79 176.133 84.8133 176.013 84.86C175.893 84.9033 175.785 84.97 175.688 85.06C175.595 85.1467 175.511 85.255 175.438 85.385C175.365 85.5117 175.296 85.6567 175.233 85.82V89H174.258V83.92H174.818C174.925 83.92 174.996 83.94 175.033 83.98C175.073 84.0167 175.101 84.0833 175.118 84.18L175.178 84.895ZM179.02 81.62V85.935H179.25C179.32 85.935 179.378 85.925 179.425 85.905C179.471 85.885 179.52 85.845 179.57 85.785L181.09 84.11C181.136 84.0467 181.188 84 181.245 83.97C181.301 83.9367 181.373 83.92 181.46 83.92H182.35L180.555 85.885C180.458 86.0083 180.355 86.1033 180.245 86.17C180.308 86.2133 180.363 86.2633 180.41 86.32C180.46 86.3767 180.508 86.4383 180.555 86.505L182.465 89H181.59C181.51 89 181.44 88.9867 181.38 88.96C181.323 88.9333 181.271 88.885 181.225 88.815L179.655 86.775C179.605 86.6983 179.555 86.65 179.505 86.63C179.455 86.6067 179.38 86.595 179.28 86.595H179.02V89H178.045V81.62H179.02ZM186.397 85.895C186.397 85.7017 186.369 85.5233 186.312 85.36C186.259 85.1967 186.179 85.055 186.072 84.935C185.966 84.815 185.836 84.7217 185.682 84.655C185.529 84.5883 185.352 84.555 185.152 84.555C184.742 84.555 184.419 84.6733 184.182 84.91C183.949 85.1467 183.801 85.475 183.737 85.895H186.397ZM187.202 88.275C187.082 88.415 186.944 88.5367 186.787 88.64C186.631 88.74 186.464 88.8217 186.287 88.885C186.111 88.9483 185.927 88.995 185.737 89.025C185.551 89.055 185.366 89.07 185.182 89.07C184.832 89.07 184.507 89.0117 184.207 88.895C183.911 88.775 183.652 88.6017 183.432 88.375C183.216 88.145 183.046 87.8617 182.922 87.525C182.802 87.185 182.742 86.795 182.742 86.355C182.742 86.0017 182.797 85.6733 182.907 85.37C183.017 85.0633 183.174 84.7967 183.377 84.57C183.584 84.3433 183.836 84.165 184.132 84.035C184.429 83.905 184.762 83.84 185.132 83.84C185.442 83.84 185.727 83.8917 185.987 83.995C186.251 84.095 186.477 84.2417 186.667 84.435C186.857 84.6283 187.006 84.8667 187.112 85.15C187.222 85.4333 187.277 85.7567 187.277 86.12C187.277 86.27 187.261 86.3717 187.227 86.425C187.194 86.475 187.132 86.5 187.042 86.5H183.712C183.722 86.8033 183.766 87.0683 183.842 87.295C183.919 87.5183 184.024 87.705 184.157 87.855C184.294 88.005 184.456 88.1167 184.642 88.19C184.829 88.2633 185.037 88.3 185.267 88.3C185.484 88.3 185.671 88.275 185.827 88.225C185.987 88.175 186.124 88.1217 186.237 88.065C186.354 88.005 186.451 87.95 186.527 87.9C186.607 87.85 186.677 87.825 186.737 87.825C186.817 87.825 186.879 87.855 186.922 87.915L187.202 88.275ZM190 89.08C189.59 89.08 189.274 88.965 189.05 88.735C188.83 88.505 188.72 88.1767 188.72 87.75V84.71H188.13C188.074 84.71 188.025 84.6933 187.985 84.66C187.949 84.6233 187.93 84.57 187.93 84.5V84.105L188.755 83.99L188.975 82.475C188.989 82.4183 189.014 82.375 189.05 82.345C189.09 82.3117 189.14 82.295 189.2 82.295H189.695V84H191.135V84.71H189.695V87.685C189.695 87.885 189.744 88.035 189.84 88.135C189.94 88.2317 190.067 88.28 190.22 88.28C190.31 88.28 190.387 88.2683 190.45 88.245C190.517 88.2217 190.574 88.1967 190.62 88.17C190.667 88.14 190.707 88.1133 190.74 88.09C190.774 88.0667 190.804 88.055 190.83 88.055C190.864 88.055 190.889 88.0633 190.905 88.08C190.925 88.0933 190.945 88.1167 190.965 88.15L191.255 88.62C191.095 88.7667 190.905 88.88 190.685 88.96C190.465 89.04 190.237 89.08 190 89.08ZM193.178 83.92V89H192.203V83.92H193.178ZM193.363 82.35C193.363 82.44 193.345 82.5267 193.308 82.61C193.271 82.69 193.221 82.7617 193.158 82.825C193.098 82.885 193.026 82.9333 192.943 82.97C192.86 83.0033 192.773 83.02 192.683 83.02C192.593 83.02 192.508 83.0033 192.428 82.97C192.348 82.9333 192.276 82.885 192.213 82.825C192.153 82.7617 192.105 82.69 192.068 82.61C192.035 82.5267 192.018 82.44 192.018 82.35C192.018 82.2567 192.035 82.17 192.068 82.09C192.105 82.0067 192.153 81.935 192.213 81.875C192.276 81.8117 192.348 81.7633 192.428 81.73C192.508 81.6933 192.593 81.675 192.683 81.675C192.773 81.675 192.86 81.6933 192.943 81.73C193.026 81.7633 193.098 81.8117 193.158 81.875C193.221 81.935 193.271 82.0067 193.308 82.09C193.345 82.17 193.363 82.2567 193.363 82.35ZM195.629 84.625C195.739 84.5083 195.854 84.4017 195.974 84.305C196.094 84.2083 196.221 84.1267 196.354 84.06C196.491 83.99 196.636 83.9367 196.789 83.9C196.946 83.86 197.112 83.84 197.289 83.84C197.569 83.84 197.814 83.8867 198.024 83.98C198.237 84.0733 198.416 84.205 198.559 84.375C198.702 84.5417 198.811 84.7433 198.884 84.98C198.957 85.2167 198.994 85.4783 198.994 85.765V89H198.014V85.765C198.014 85.4017 197.931 85.12 197.764 84.92C197.597 84.7167 197.342 84.615 196.999 84.615C196.749 84.615 196.514 84.675 196.294 84.795C196.077 84.9117 195.876 85.0717 195.689 85.275V89H194.714V83.92H195.299C195.436 83.92 195.521 83.985 195.554 84.115L195.629 84.625ZM202.219 86.465C202.392 86.465 202.544 86.4417 202.674 86.395C202.807 86.3483 202.917 86.2833 203.004 86.2C203.094 86.1133 203.161 86.01 203.204 85.89C203.251 85.77 203.274 85.6383 203.274 85.495C203.274 85.2017 203.184 84.9683 203.004 84.795C202.827 84.6183 202.566 84.53 202.219 84.53C201.876 84.53 201.614 84.6183 201.434 84.795C201.257 84.9683 201.169 85.2017 201.169 85.495C201.169 85.6383 201.191 85.77 201.234 85.89C201.281 86.0067 201.347 86.1083 201.434 86.195C201.524 86.2783 201.634 86.345 201.764 86.395C201.897 86.4417 202.049 86.465 202.219 86.465ZM203.774 89.265C203.774 89.145 203.741 89.05 203.674 88.98C203.607 88.9067 203.516 88.85 203.399 88.81C203.286 88.7667 203.152 88.7367 202.999 88.72C202.846 88.7 202.684 88.685 202.514 88.675C202.347 88.665 202.176 88.6567 201.999 88.65C201.822 88.64 201.652 88.6233 201.489 88.6C201.316 88.6867 201.172 88.7917 201.059 88.915C200.949 89.0383 200.894 89.1833 200.894 89.35C200.894 89.4567 200.921 89.5567 200.974 89.65C201.031 89.7433 201.116 89.8233 201.229 89.89C201.346 89.96 201.491 90.0133 201.664 90.05C201.841 90.09 202.051 90.11 202.294 90.11C202.534 90.11 202.746 90.0883 202.929 90.045C203.112 90.005 203.266 89.9467 203.389 89.87C203.516 89.7967 203.611 89.7083 203.674 89.605C203.741 89.5017 203.774 89.3883 203.774 89.265ZM204.764 84.11V84.475C204.764 84.595 204.689 84.67 204.539 84.7L203.994 84.78C204.041 84.8833 204.077 84.9933 204.104 85.11C204.131 85.2233 204.144 85.3433 204.144 85.47C204.144 85.72 204.096 85.9467 203.999 86.15C203.902 86.35 203.769 86.5217 203.599 86.665C203.429 86.8083 203.226 86.9183 202.989 86.995C202.756 87.0717 202.499 87.11 202.219 87.11C201.989 87.11 201.774 87.085 201.574 87.035C201.474 87.095 201.397 87.1617 201.344 87.235C201.294 87.305 201.269 87.375 201.269 87.445C201.269 87.5617 201.317 87.6483 201.414 87.705C201.514 87.7617 201.642 87.8033 201.799 87.83C201.959 87.8533 202.141 87.8683 202.344 87.875C202.551 87.8817 202.759 87.8933 202.969 87.91C203.182 87.9233 203.391 87.95 203.594 87.99C203.801 88.0267 203.982 88.0883 204.139 88.175C204.299 88.2583 204.427 88.375 204.524 88.525C204.624 88.6717 204.674 88.8633 204.674 89.1C204.674 89.32 204.619 89.5333 204.509 89.74C204.402 89.9467 204.246 90.13 204.039 90.29C203.832 90.45 203.581 90.5783 203.284 90.675C202.987 90.7717 202.651 90.82 202.274 90.82C201.897 90.82 201.569 90.7833 201.289 90.71C201.012 90.6367 200.781 90.5383 200.594 90.415C200.411 90.2917 200.272 90.1483 200.179 89.985C200.089 89.8217 200.044 89.6517 200.044 89.475C200.044 89.2283 200.121 89.02 200.274 88.85C200.427 88.6767 200.639 88.5417 200.909 88.445C200.762 88.3783 200.646 88.2883 200.559 88.175C200.472 88.0583 200.429 87.905 200.429 87.715C200.429 87.6417 200.442 87.5667 200.469 87.49C200.496 87.41 200.536 87.3317 200.589 87.255C200.646 87.175 200.714 87.1 200.794 87.03C200.877 86.96 200.972 86.8967 201.079 86.84C200.829 86.7 200.632 86.515 200.489 86.285C200.346 86.0517 200.274 85.78 200.274 85.47C200.274 85.22 200.322 84.995 200.419 84.795C200.516 84.595 200.649 84.4233 200.819 84.28C200.992 84.1367 201.197 84.0267 201.434 83.95C201.674 83.8733 201.936 83.835 202.219 83.835C202.659 83.835 203.037 83.9267 203.354 84.11H204.764Z" fill="black"/>
<path d="M152.357 27.1644C150.087 27.1644 148.246 25.3236 148.246 23.0532C148.246 20.7828 150.087 18.942 152.357 18.942C154.628 18.942 156.468 20.7828 156.468 23.0532C156.468 25.3236 154.628 27.1644 152.357 27.1644Z" fill="#CDE6FA"/>
<path d="M151.343 22.1365H150.492V24.8857H151.343V22.1365Z" fill="white"/>
<path d="M150.913 21.7777C151.191 21.7777 151.416 21.5509 151.416 21.2701C151.416 20.9905 151.19 20.7625 150.913 20.7625C150.635 20.7625 150.41 20.9893 150.41 21.2701C150.41 21.5497 150.636 21.7777 150.913 21.7777Z" fill="white"/>
<path d="M152.703 23.4433C152.703 23.0569 152.881 22.8265 153.222 22.8265C153.535 22.8265 153.685 23.0473 153.685 23.4433C153.685 23.8393 153.685 24.8857 153.685 24.8857H154.532C154.532 24.8857 154.532 23.8813 154.532 23.1457C154.532 22.4089 154.115 22.0537 153.533 22.0537C152.949 22.0537 152.705 22.5073 152.705 22.5073V22.1365H151.889V24.8857H152.705C152.703 24.8857 152.703 23.8669 152.703 23.4433Z" fill="white"/>
<path d="M157.866 14.8668L158.429 15.8952L159.458 16.4592L158.429 17.022L157.866 18.0504L157.303 17.022L156.273 16.4592L157.303 15.8952L157.866 14.8668Z" fill="#CDE6FA"/>
<path d="M181.344 42.7524L181.767 43.5252L182.538 43.9464L181.767 44.3688L181.344 45.1416L180.922 44.3688L180.15 43.9464L180.922 43.5252L181.344 42.7524Z" fill="#CDE6FA"/>
<path d="M182.539 38.9412L182.73 39.2892L183.078 39.48L182.73 39.6708L182.539 40.0188L182.348 39.6708L182 39.48L182.348 39.2892L182.539 38.9412Z" fill="#CDE6FA"/>
<path d="M153.845 15.2532L154.036 15.6012L154.384 15.792L154.036 15.9828L153.845 16.3308L153.656 15.9828L153.307 15.792L153.656 15.6012L153.845 15.2532Z" fill="#CDE6FA"/>
<path d="M144.295 47.6112C144.725 47.424 145.026 46.9752 145.023 46.4508C145.017 45.7632 144.489 45.21 143.844 45.216C143.2 45.2208 142.683 45.7836 142.689 46.47C142.693 46.9992 143.009 47.4468 143.447 47.622C141.654 47.916 141.761 49.8672 141.761 49.8672L146.008 49.8324C146.008 49.8312 146.08 47.8572 144.295 47.6112Z" fill="#CDE6FA"/>
<path d="M187.801 35.178L188.256 35.088L188.974 33.5064L188.794 32.598C188.794 32.598 189.489 32.4156 189.643 33.6216C189.796 34.8276 189.825 34.5072 189.825 34.5072C189.825 34.5072 191.32 34.2168 191.47 34.3224C191.58 34.3992 191.914 35.874 192.09 36.6756C192.177 37.0788 192.004 37.5048 191.647 37.6752C191.596 37.6992 191.544 37.7184 191.491 37.7292C191.119 37.8036 189.154 37.878 189.154 37.878L188.368 38.034L187.801 35.178Z" fill="#CDE6FA"/>
<path d="M186.449 35.1875L187.347 38.2439L188.126 38.0891L187.521 35.0399L186.449 35.1875Z" fill="#CDE6FA"/>
<path d="M174.77 68.406L158.223 68.3964C156.234 68.3952 154.621 66.7812 154.621 64.7916L154.629 23.3088C154.629 21.318 156.245 19.704 158.235 19.7052L174.782 19.7148C176.772 19.716 178.385 21.33 178.385 23.3196L178.376 64.8024C178.376 66.7932 176.761 68.4072 174.77 68.406Z" fill="#4141F9"/>
<path d="M174.765 21.1824L171.558 21.18C171.128 21.18 170.779 21.5448 170.779 21.9936V22.5756C170.779 23.0256 170.43 23.3892 170 23.3892L163.747 23.3856C163.317 23.3856 162.968 23.0208 162.968 22.5708V21.9888C162.968 21.5388 162.619 21.174 162.189 21.174L161.061 21.1728L158.253 21.1716C156.859 21.1704 155.727 22.3008 155.727 23.6952L155.719 64.1844C155.719 65.5788 156.848 66.708 158.241 66.7092L174.754 66.72C176.149 66.7212 177.279 65.5908 177.28 64.1964L177.289 23.706C177.288 22.3128 176.158 21.1824 174.765 21.1824Z" fill="white"/>
<path d="M175.006 24.4716C175.006 24.4824 174.589 24.4944 174.075 24.4992C173.56 24.504 173.143 24.498 173.143 24.4872C173.143 24.4764 173.559 24.4644 174.074 24.4596C174.589 24.4548 175.006 24.4608 175.006 24.4716Z" fill="#4141F9"/>
<path d="M175.01 24.948C175.01 24.9588 174.592 24.9708 174.079 24.9756C173.564 24.9804 173.146 24.9744 173.146 24.9636C173.146 24.9528 173.563 24.9408 174.078 24.936C174.592 24.9324 175.01 24.9372 175.01 24.948Z" fill="#4141F9"/>
<path d="M175.014 25.4243C175.014 25.4351 174.596 25.4471 174.083 25.4519C173.568 25.4567 173.15 25.4507 173.15 25.4399C173.15 25.4291 173.568 25.4171 174.082 25.4123C174.596 25.4087 175.014 25.4135 175.014 25.4243Z" fill="#4141F9"/>
<path d="M169.238 58.5647L169.605 57.3328C169.669 57.0655 169.754 56.7505 169.868 56.391C169.971 56.0677 170.235 55.7279 170.475 55.4834C170.849 55.1032 171.027 55.1 171.279 54.898C171.302 54.8835 171.328 54.8628 171.35 54.8504C171.401 54.8224 171.44 54.7851 171.472 54.7447C171.688 54.5105 171.48 54.1479 171.04 54.1821C170.708 54.208 170.168 54.3033 169.289 55.2099C169.277 55.2233 169.266 55.2347 169.256 55.2492C168.795 55.8491 168.362 54.1375 168.283 53.5004C168.232 53.087 167.786 52.8331 167.38 52.9823L165.24 53.9832C165.063 53.921 164.853 53.9314 164.615 54.0039C164.3 54.1199 164.125 54.4442 164.207 54.7592L165.075 58.2248L162.525 66.7092H168.022L169.238 58.5647Z" fill="#F3DDAE"/>
<path d="M173.459 50.7713L171.76 54.1002L170.911 53.864L166.64 57.3379C166.276 57.6332 165.744 57.5866 165.438 57.2312L163.812 55.3414C163.812 55.3414 167.091 53.9293 167.697 52.7606C168.303 51.5919 167.602 51.3266 167.602 51.3266L169.145 49.5736L173.459 50.7713Z" fill="#FD9921"/>
<path d="M171.257 43.9706C171.257 43.9706 168.77 43.4204 165.27 40.0552C161.77 36.6901 160.126 32.2205 159.697 32.2422C159.269 32.264 157.398 31.3958 153.841 39.1342C150.284 46.8726 151.685 48.6702 152.393 48.6557C153.101 48.6412 157.908 47.3015 160.909 47.6424C163.912 47.9833 167.771 49.5488 167.771 49.5488L171.257 43.9706Z" fill="#FD9921"/>
<path d="M176.54 48.1884L175.692 49.8015L175.311 50.5237C174.79 51.5152 173.584 51.9244 172.567 51.4561L167.236 49.5985L170.34 42.5117L175.666 45.3495C176.689 45.8955 177.079 47.1637 176.54 48.1884Z" fill="#FD9921"/>
<g opacity="0.4">
<path opacity="0.4" d="M176.54 48.1884L175.692 49.8015L175.311 50.5237C174.79 51.5152 173.584 51.9244 172.567 51.4561L167.236 49.5985L170.34 42.5117L175.666 45.3495C176.689 45.8955 177.079 47.1637 176.54 48.1884Z" fill="#09005D"/>
</g>
<path d="M154.13 39.2751C152.237 43.467 151.448 47.2031 152.369 47.6185C153.29 48.035 155.572 44.9735 157.465 40.7815C159.358 36.5896 160.146 32.8545 159.225 32.438C158.304 32.0226 156.023 35.0831 154.13 39.2751Z" fill="#FD9921"/>
<g opacity="0.5">
<path opacity="0.5" d="M154.13 39.2751C152.237 43.467 151.448 47.2031 152.369 47.6185C153.29 48.035 155.572 44.9735 157.465 40.7815C159.358 36.5896 160.146 32.8545 159.225 32.438C158.304 32.0226 156.023 35.0831 154.13 39.2751Z" fill="#09005D"/>
</g>
<path d="M176.998 50.5196L175.553 50.0658L176.447 48.3656L177.531 49.0401L176.998 50.5196Z" fill="#FD9921"/>
<g opacity="0.6">
<path opacity="0.6" d="M176.447 48.3656L175.553 50.0658L175.85 50.1591L176.576 48.4464L176.447 48.3656Z" fill="#09005D"/>
</g>
<path d="M175.452 48.7582C175.431 48.8049 174.71 48.5251 173.842 48.1324C172.972 47.7398 172.286 47.3844 172.307 47.3367C172.328 47.2901 173.049 47.5699 173.917 47.9625C174.786 48.3552 175.472 48.7116 175.452 48.7582Z" fill="#FD9921"/>
<path d="M175.895 47.746C175.872 47.7926 175.219 47.517 174.437 47.1316C173.655 46.7462 173.038 46.397 173.061 46.3504C173.084 46.3048 173.736 46.5794 174.519 46.9648C175.301 47.3502 175.918 47.6994 175.895 47.746Z" fill="#FD9921"/>
<path d="M174.891 49.8202C174.883 49.845 174.711 49.8057 174.438 49.7207C174.301 49.6782 174.14 49.6254 173.959 49.5632C173.781 49.499 173.597 49.4047 173.398 49.3156C172.607 48.9488 172.004 48.5893 172.024 48.5468C172.048 48.4961 172.692 48.7841 173.475 49.1467C173.672 49.2358 173.854 49.3343 174.026 49.4057C174.198 49.4752 174.353 49.5404 174.481 49.5974C174.74 49.7124 174.898 49.7953 174.891 49.8202Z" fill="#FD9921"/>
<path d="M157.988 38.3436C157.988 38.3436 155.827 37.003 154.643 39.9237C153.461 42.8443 155.735 43.324 155.735 43.324C156.667 41.8808 157.422 40.2262 157.988 38.3436Z" fill="#FD9921"/>
<g opacity="0.5">
<path opacity="0.5" d="M160.286 34.8624C160.298 34.8645 160.268 35.0634 160.201 35.4209C160.133 35.7773 160.036 36.2953 159.897 36.9315C159.806 37.2444 159.706 37.5863 159.599 37.953C159.545 38.1364 159.489 38.3271 159.431 38.5218C159.402 38.6192 159.373 38.7187 159.343 38.8192C159.311 38.9187 159.269 39.0171 159.231 39.1176C159.076 39.5196 158.912 39.9413 158.743 40.3775C158.701 40.4862 158.658 40.5971 158.615 40.708C158.572 40.8199 158.513 40.9245 158.462 41.0343C158.357 41.2519 158.25 41.4736 158.141 41.6964C158.032 41.9202 157.925 42.1408 157.819 42.3584C157.764 42.4662 157.718 42.5781 157.656 42.6796C157.595 42.7822 157.536 42.8837 157.476 42.9852C157.238 43.3883 157.007 43.7778 156.787 44.1488C156.731 44.241 156.68 44.3342 156.621 44.4212C156.56 44.5072 156.501 44.5922 156.442 44.6751C156.324 44.8419 156.209 45.0035 156.098 45.16C155.875 45.4708 155.668 45.7619 155.479 46.0271C155.065 46.5276 154.719 46.9233 154.481 47.1969C154.241 47.4704 154.104 47.6165 154.094 47.6092C154.084 47.6009 154.203 47.4383 154.425 47.1513C154.656 46.8591 154.979 46.4478 155.377 45.9443C155.559 45.6759 155.759 45.3837 155.974 45.0698C156.082 44.9134 156.192 44.7507 156.307 44.5839C156.364 44.501 156.423 44.4161 156.483 44.3301C156.54 44.243 156.589 44.1488 156.643 44.0576C156.859 43.6877 157.084 43.2992 157.318 42.8972C157.377 42.7967 157.436 42.6951 157.495 42.5926C157.556 42.491 157.6 42.3802 157.655 42.2724C157.76 42.0559 157.867 41.8362 157.974 41.6145C158.082 41.3928 158.189 41.1732 158.295 40.9577C158.345 40.8489 158.404 40.7442 158.447 40.6344C158.49 40.5246 158.534 40.4147 158.576 40.307C158.748 39.875 158.913 39.4574 159.072 39.0596C159.11 38.9601 159.154 38.8627 159.187 38.7643C159.218 38.6648 159.248 38.5664 159.278 38.47C159.338 38.2763 159.397 38.0888 159.454 37.9075C159.568 37.5448 159.675 37.2071 159.772 36.8973C159.922 36.2746 160.045 35.7669 160.132 35.4053C160.219 35.0541 160.274 34.8604 160.286 34.8624Z" fill="#09005D"/>
</g>
<g opacity="0.4">
<path opacity="0.4" d="M164.332 55.1104C164.529 55.4678 164.731 55.8315 165.022 56.1174C165.314 56.4034 165.714 56.6064 166.121 56.565C166.527 56.5236 166.913 56.1868 166.917 55.7776C167.112 55.9247 167.411 55.8449 167.573 55.6615C167.734 55.4782 167.787 55.2243 167.806 54.9808C168.071 55.1373 168.44 55.013 168.616 54.7612C168.793 54.5094 168.804 54.1706 168.719 53.8743C168.633 53.579 168.462 53.3169 168.293 53.0589C168.497 53.0755 168.714 53.09 168.896 52.9968C169.078 52.9046 169.202 52.6632 169.095 52.4881C169.033 52.3855 168.913 52.3347 168.798 52.2985C168.477 52.198 168.254 52.1182 167.92 52.1565C167.842 52.1576 168.054 53.0351 165.964 54.2349C164.732 54.9467 164.332 55.1104 164.332 55.1104Z" fill="#09005D"/>
</g>
<path d="M164.469 54.5541C164.805 54.8773 165.035 55.2348 165.389 55.5601C165.549 55.7083 165.798 55.988 166.014 56.0253C166.229 56.0626 166.367 56.0336 166.452 55.8326C166.521 55.6699 166.397 55.4472 166.312 55.3135C166.087 54.9602 165.872 54.6846 165.704 54.4101C165.625 54.2816 165.727 54.2546 165.764 54.3147C165.925 54.4826 166.168 54.6287 166.313 54.811C166.512 55.0617 166.548 55.3933 167.067 55.2886C167.136 55.2752 167.205 55.2513 167.26 55.2089C167.456 55.0586 167.464 54.7986 167.381 54.5903C167.317 54.4266 167.203 54.2878 167.092 54.1521C167.314 54.4018 167.555 54.6649 167.906 54.6939C168.111 54.7105 168.317 54.6152 168.4 54.4277C168.503 54.1914 168.354 53.9625 168.205 53.7781C167.94 53.4507 167.643 53.1481 167.321 52.8756C167.201 52.7741 167.049 52.7171 166.891 52.7161C166.709 52.7151 166.481 52.7492 166.369 52.9078C166.165 53.1948 166.228 53.4496 166.228 53.4496C166.228 53.4496 165.771 53.2186 165.404 53.46C165.038 53.7024 164.946 54.1179 164.946 54.1179L164.469 54.5541Z" fill="#F3DDAE"/>
<path d="M166.897 52.6145C166.756 52.4726 166.723 52.2125 166.833 51.997C166.911 51.8447 167.008 51.6966 167.108 51.6634C167.542 51.5173 169.439 51.8447 169.422 52.2664C169.405 52.6984 169.267 52.8891 168.237 52.7399C168.056 52.714 167.772 52.6777 167.772 52.6777L167.523 53.0507L166.897 52.6145Z" fill="#F3DDAE"/>
<path d="M167.237 54.3779C167.221 54.3872 167.077 54.0929 166.783 53.8287C166.491 53.5614 166.184 53.4464 166.192 53.4309C166.194 53.4247 166.273 53.4454 166.393 53.5013C166.512 53.5573 166.669 53.6536 166.819 53.7894C166.969 53.9251 167.08 54.0722 167.147 54.1862C167.215 54.2981 167.243 54.3747 167.237 54.3779Z" fill="#FD9921"/>
<path d="M167.555 53.0838C167.546 53.0931 167.421 52.9905 167.25 52.8859C167.165 52.8341 167.086 52.7895 167.027 52.7636C166.968 52.7357 166.93 52.7284 166.93 52.7201C166.93 52.7129 166.974 52.7077 167.041 52.7274C167.107 52.746 167.191 52.7864 167.279 52.8403C167.454 52.947 167.569 53.0724 167.555 53.0838Z" fill="#FD9921"/>
<path d="M167.874 52.6923C167.873 52.7037 167.707 52.7088 167.508 52.6508C167.41 52.6208 167.326 52.5731 167.274 52.5286C167.222 52.484 167.201 52.4467 167.206 52.4426C167.216 52.4332 167.333 52.5451 167.524 52.599C167.712 52.6539 167.876 52.6746 167.874 52.6923Z" fill="#FD9921"/>
<path d="M166.03 54.8991C166.024 54.9032 165.956 54.8183 165.857 54.6742C165.755 54.5344 165.626 54.3251 165.415 54.1707C165.203 54.0163 164.955 53.9801 164.788 54.0049C164.618 54.0288 164.529 54.0992 164.524 54.0889C164.522 54.0868 164.541 54.0671 164.584 54.0412C164.626 54.0143 164.694 53.9852 164.782 53.9676C164.956 53.9314 165.222 53.9645 165.447 54.1272C165.671 54.2909 165.796 54.5085 165.89 54.6535C165.98 54.8017 166.036 54.8949 166.03 54.8991Z" fill="#FD9921"/>
<path d="M142.229 40.5037L142.364 40.7521L142.613 40.8877L142.364 41.0233L142.229 41.2705L142.093 41.0233L141.846 40.8877L142.093 40.7521L142.229 40.5037Z" fill="#FD9921"/>
<path d="M186.9 52.0992L187.036 52.3476L187.283 52.4832L187.036 52.6188L186.9 52.866L186.765 52.6188L186.518 52.4832L186.765 52.3476L186.9 52.0992Z" fill="#FD9921"/>
<path d="M144.768 36.6121L145.08 37.1821L145.651 37.4941L145.08 37.8073L144.768 38.3773L144.456 37.8073L143.885 37.4941L144.456 37.1821L144.768 36.6121Z" fill="#FD9921"/>
<rect x="232" width="100" height="100" rx="16" fill="white"/>
<path d="M258.696 82.99C258.663 83.0467 258.628 83.0883 258.591 83.115C258.554 83.1417 258.508 83.155 258.451 83.155C258.391 83.155 258.323 83.1283 258.246 83.075C258.169 83.0183 258.073 82.9567 257.956 82.89C257.843 82.82 257.706 82.7583 257.546 82.705C257.386 82.6483 257.194 82.62 256.971 82.62C256.761 82.62 256.576 82.6483 256.416 82.705C256.259 82.7583 256.128 82.8333 256.021 82.93C255.914 83.0233 255.833 83.135 255.776 83.265C255.723 83.3917 255.696 83.53 255.696 83.68C255.696 83.8733 255.744 84.0333 255.841 84.16C255.941 84.2867 256.071 84.395 256.231 84.485C256.391 84.575 256.573 84.6533 256.776 84.72C256.979 84.7867 257.188 84.8567 257.401 84.93C257.614 85 257.823 85.0817 258.026 85.175C258.229 85.2683 258.411 85.3867 258.571 85.53C258.731 85.67 258.859 85.8433 258.956 86.05C259.056 86.2533 259.106 86.5033 259.106 86.8C259.106 87.1167 259.051 87.4133 258.941 87.69C258.834 87.9667 258.678 88.2083 258.471 88.415C258.264 88.6217 258.009 88.785 257.706 88.905C257.406 89.0217 257.064 89.08 256.681 89.08C256.451 89.08 256.228 89.0567 256.011 89.01C255.794 88.9667 255.589 88.905 255.396 88.825C255.203 88.7417 255.021 88.6433 254.851 88.53C254.684 88.4133 254.534 88.2833 254.401 88.14L254.706 87.63C254.736 87.59 254.771 87.5567 254.811 87.53C254.854 87.5033 254.903 87.49 254.956 87.49C255.026 87.49 255.106 87.5267 255.196 87.6C255.289 87.6733 255.403 87.755 255.536 87.845C255.673 87.9317 255.834 88.0117 256.021 88.085C256.211 88.1583 256.441 88.195 256.711 88.195C256.931 88.195 257.128 88.1667 257.301 88.11C257.474 88.05 257.619 87.9667 257.736 87.86C257.856 87.75 257.948 87.6183 258.011 87.465C258.074 87.3117 258.106 87.1417 258.106 86.955C258.106 86.745 258.058 86.5733 257.961 86.44C257.864 86.3067 257.736 86.195 257.576 86.105C257.416 86.015 257.234 85.9383 257.031 85.875C256.828 85.8117 256.619 85.7467 256.406 85.68C256.193 85.61 255.984 85.53 255.781 85.44C255.578 85.35 255.396 85.2333 255.236 85.09C255.076 84.9433 254.948 84.7617 254.851 84.545C254.754 84.325 254.706 84.055 254.706 83.735C254.706 83.4783 254.756 83.23 254.856 82.99C254.956 82.75 255.101 82.5383 255.291 82.355C255.484 82.1683 255.721 82.02 256.001 81.91C256.281 81.7967 256.601 81.74 256.961 81.74C257.364 81.74 257.734 81.805 258.071 81.935C258.411 82.0617 258.706 82.245 258.956 82.485L258.696 82.99ZM264.472 83.92V89H263.887C263.754 89 263.667 88.935 263.627 88.805L263.557 88.295C263.447 88.4117 263.332 88.5183 263.212 88.615C263.092 88.7117 262.964 88.795 262.827 88.865C262.691 88.9317 262.546 88.9833 262.392 89.02C262.239 89.06 262.074 89.08 261.897 89.08C261.617 89.08 261.371 89.0333 261.157 88.94C260.947 88.8467 260.771 88.7167 260.627 88.55C260.484 88.38 260.376 88.1767 260.302 87.94C260.229 87.7033 260.192 87.4417 260.192 87.155V83.92H261.172V87.155C261.172 87.5183 261.256 87.8017 261.422 88.005C261.589 88.205 261.844 88.305 262.187 88.305C262.437 88.305 262.671 88.2467 262.887 88.13C263.104 88.01 263.307 87.8467 263.497 87.64V83.92H264.472ZM266.933 87.75C267.093 87.96 267.264 88.1067 267.448 88.19C267.634 88.2733 267.843 88.315 268.073 88.315C268.519 88.315 268.864 88.155 269.108 87.835C269.354 87.5117 269.478 87.0417 269.478 86.425C269.478 86.1017 269.449 85.8267 269.393 85.6C269.339 85.37 269.259 85.1833 269.153 85.04C269.049 84.8933 268.921 84.7867 268.768 84.72C268.614 84.65 268.441 84.615 268.248 84.615C267.964 84.615 267.718 84.6783 267.508 84.805C267.301 84.9317 267.109 85.1117 266.933 85.345V87.75ZM266.883 84.68C266.989 84.5533 267.103 84.4383 267.223 84.335C267.346 84.2283 267.478 84.1383 267.618 84.065C267.758 83.9883 267.906 83.93 268.063 83.89C268.223 83.8467 268.393 83.825 268.573 83.825C268.863 83.825 269.124 83.8817 269.358 83.995C269.594 84.1083 269.796 84.275 269.963 84.495C270.129 84.715 270.258 84.9867 270.348 85.31C270.441 85.6333 270.488 86.005 270.488 86.425C270.488 86.8017 270.436 87.1517 270.333 87.475C270.233 87.795 270.088 88.0733 269.898 88.31C269.711 88.5467 269.481 88.7333 269.208 88.87C268.938 89.0033 268.633 89.07 268.293 89.07C267.989 89.07 267.729 89.02 267.513 88.92C267.296 88.82 267.103 88.68 266.933 88.5V90.705H265.958V83.92H266.543C266.679 83.92 266.764 83.985 266.798 84.115L266.883 84.68ZM272.682 87.75C272.842 87.96 273.014 88.1067 273.197 88.19C273.384 88.2733 273.592 88.315 273.822 88.315C274.269 88.315 274.614 88.155 274.857 87.835C275.104 87.5117 275.227 87.0417 275.227 86.425C275.227 86.1017 275.199 85.8267 275.142 85.6C275.089 85.37 275.009 85.1833 274.902 85.04C274.799 84.8933 274.67 84.7867 274.517 84.72C274.364 84.65 274.19 84.615 273.997 84.615C273.714 84.615 273.467 84.6783 273.257 84.805C273.05 84.9317 272.859 85.1117 272.682 85.345V87.75ZM272.632 84.68C272.739 84.5533 272.852 84.4383 272.972 84.335C273.095 84.2283 273.227 84.1383 273.367 84.065C273.507 83.9883 273.655 83.93 273.812 83.89C273.972 83.8467 274.142 83.825 274.322 83.825C274.612 83.825 274.874 83.8817 275.107 83.995C275.344 84.1083 275.545 84.275 275.712 84.495C275.879 84.715 276.007 84.9867 276.097 85.31C276.19 85.6333 276.237 86.005 276.237 86.425C276.237 86.8017 276.185 87.1517 276.082 87.475C275.982 87.795 275.837 88.0733 275.647 88.31C275.46 88.5467 275.23 88.7333 274.957 88.87C274.687 89.0033 274.382 89.07 274.042 89.07C273.739 89.07 273.479 89.02 273.262 88.92C273.045 88.82 272.852 88.68 272.682 88.5V90.705H271.707V83.92H272.292C272.429 83.92 272.514 83.985 272.547 84.115L272.632 84.68ZM278.456 81.62V89H277.476V81.62H278.456ZM284.413 83.92L281.593 90.475C281.563 90.5483 281.523 90.605 281.473 90.645C281.423 90.685 281.35 90.705 281.253 90.705H280.528L281.458 88.68L279.373 83.92H280.223C280.307 83.92 280.372 83.94 280.418 83.98C280.465 84.02 280.498 84.065 280.518 84.115L281.808 87.165C281.835 87.2417 281.86 87.32 281.883 87.4C281.91 87.4767 281.932 87.5533 281.948 87.63C281.972 87.55 281.997 87.4717 282.023 87.395C282.05 87.315 282.078 87.2367 282.108 87.16L283.353 84.115C283.377 84.0583 283.413 84.0117 283.463 83.975C283.513 83.9383 283.57 83.92 283.633 83.92H284.413ZM291.253 84.87C291.223 84.9067 291.193 84.9367 291.163 84.96C291.136 84.98 291.096 84.99 291.043 84.99C290.99 84.99 290.933 84.97 290.873 84.93C290.816 84.8867 290.743 84.8417 290.653 84.795C290.566 84.745 290.46 84.7 290.333 84.66C290.21 84.6167 290.056 84.595 289.873 84.595C289.633 84.595 289.421 84.6383 289.238 84.725C289.055 84.8117 288.901 84.935 288.778 85.095C288.658 85.255 288.566 85.45 288.503 85.68C288.44 85.91 288.408 86.1683 288.408 86.455C288.408 86.7517 288.441 87.0167 288.508 87.25C288.575 87.48 288.67 87.675 288.793 87.835C288.916 87.9917 289.066 88.1117 289.243 88.195C289.42 88.275 289.616 88.315 289.833 88.315C290.043 88.315 290.216 88.29 290.353 88.24C290.49 88.1867 290.603 88.13 290.693 88.07C290.783 88.01 290.858 87.955 290.918 87.905C290.978 87.8517 291.04 87.825 291.103 87.825C291.183 87.825 291.245 87.855 291.288 87.915L291.568 88.275C291.451 88.4183 291.32 88.54 291.173 88.64C291.03 88.74 290.876 88.8217 290.713 88.885C290.55 88.9483 290.378 88.995 290.198 89.025C290.021 89.055 289.841 89.07 289.658 89.07C289.341 89.07 289.045 89.0117 288.768 88.895C288.495 88.7783 288.256 88.6083 288.053 88.385C287.853 88.1617 287.695 87.8883 287.578 87.565C287.461 87.2383 287.403 86.8683 287.403 86.455C287.403 86.0783 287.455 85.73 287.558 85.41C287.665 85.09 287.82 84.815 288.023 84.585C288.23 84.3517 288.483 84.17 288.783 84.04C289.083 83.9067 289.426 83.84 289.813 83.84C290.176 83.84 290.496 83.8983 290.773 84.015C291.05 84.1317 291.296 84.2967 291.513 84.51L291.253 84.87ZM293.577 84.565C293.791 84.3483 294.026 84.1733 294.282 84.04C294.542 83.9067 294.841 83.84 295.177 83.84C295.457 83.84 295.702 83.8867 295.912 83.98C296.126 84.0733 296.304 84.205 296.447 84.375C296.591 84.5417 296.699 84.7433 296.772 84.98C296.846 85.2167 296.882 85.4783 296.882 85.765V89H295.902V85.765C295.902 85.4017 295.819 85.12 295.652 84.92C295.486 84.7167 295.231 84.615 294.887 84.615C294.637 84.615 294.402 84.675 294.182 84.795C293.966 84.9117 293.764 85.0717 293.577 85.275V89H292.602V81.62H293.577V84.565ZM301.053 86.745C300.656 86.7583 300.319 86.79 300.043 86.84C299.766 86.8867 299.541 86.95 299.368 87.03C299.194 87.11 299.069 87.205 298.993 87.315C298.916 87.4217 298.878 87.5417 298.878 87.675C298.878 87.8017 298.898 87.9117 298.938 88.005C298.981 88.095 299.038 88.17 299.108 88.23C299.181 88.2867 299.266 88.3283 299.363 88.355C299.459 88.3817 299.564 88.395 299.678 88.395C299.828 88.395 299.964 88.38 300.088 88.35C300.214 88.32 300.333 88.2783 300.443 88.225C300.553 88.1683 300.658 88.1 300.758 88.02C300.858 87.94 300.956 87.8483 301.053 87.745V86.745ZM298.193 84.63C298.476 84.36 298.783 84.1583 299.113 84.025C299.446 83.8917 299.811 83.825 300.208 83.825C300.498 83.825 300.754 83.8733 300.978 83.97C301.201 84.0633 301.389 84.195 301.543 84.365C301.696 84.535 301.811 84.7383 301.888 84.975C301.968 85.2117 302.008 85.4733 302.008 85.76V89H301.573C301.476 89 301.403 88.985 301.353 88.955C301.303 88.9217 301.263 88.8617 301.233 88.775L301.128 88.33C300.998 88.45 300.869 88.5567 300.743 88.65C300.616 88.74 300.483 88.8183 300.343 88.885C300.206 88.9483 300.059 88.9967 299.903 89.03C299.746 89.0633 299.573 89.08 299.383 89.08C299.183 89.08 298.994 89.0533 298.818 89C298.644 88.9433 298.493 88.8583 298.363 88.745C298.233 88.6317 298.129 88.49 298.053 88.32C297.979 88.15 297.943 87.9517 297.943 87.725C297.943 87.525 297.996 87.3333 298.103 87.15C298.213 86.9633 298.389 86.7967 298.633 86.65C298.879 86.5033 299.199 86.3833 299.593 86.29C299.989 86.1967 300.476 86.1433 301.053 86.13V85.76C301.053 85.3767 300.971 85.09 300.808 84.9C300.644 84.71 300.404 84.615 300.088 84.615C299.874 84.615 299.694 84.6417 299.548 84.695C299.404 84.7483 299.279 84.8083 299.173 84.875C299.069 84.9383 298.978 84.9967 298.898 85.05C298.821 85.1033 298.741 85.13 298.658 85.13C298.591 85.13 298.533 85.1117 298.483 85.075C298.436 85.0383 298.398 84.995 298.368 84.945L298.193 84.63ZM304.457 83.92V89H303.482V83.92H304.457ZM304.642 82.35C304.642 82.44 304.624 82.5267 304.587 82.61C304.55 82.69 304.5 82.7617 304.437 82.825C304.377 82.885 304.305 82.9333 304.222 82.97C304.139 83.0033 304.052 83.02 303.962 83.02C303.872 83.02 303.787 83.0033 303.707 82.97C303.627 82.9333 303.555 82.885 303.492 82.825C303.432 82.7617 303.384 82.69 303.347 82.61C303.314 82.5267 303.297 82.44 303.297 82.35C303.297 82.2567 303.314 82.17 303.347 82.09C303.384 82.0067 303.432 81.935 303.492 81.875C303.555 81.8117 303.627 81.7633 303.707 81.73C303.787 81.6933 303.872 81.675 303.962 81.675C304.052 81.675 304.139 81.6933 304.222 81.73C304.305 81.7633 304.377 81.8117 304.437 81.875C304.5 81.935 304.55 82.0067 304.587 82.09C304.624 82.17 304.642 82.2567 304.642 82.35ZM306.908 84.625C307.018 84.5083 307.133 84.4017 307.253 84.305C307.373 84.2083 307.5 84.1267 307.633 84.06C307.77 83.99 307.915 83.9367 308.068 83.9C308.225 83.86 308.392 83.84 308.568 83.84C308.848 83.84 309.093 83.8867 309.303 83.98C309.517 84.0733 309.695 84.205 309.838 84.375C309.982 84.5417 310.09 84.7433 310.163 84.98C310.237 85.2167 310.273 85.4783 310.273 85.765V89H309.293V85.765C309.293 85.4017 309.21 85.12 309.043 84.92C308.877 84.7167 308.622 84.615 308.278 84.615C308.028 84.615 307.793 84.675 307.573 84.795C307.357 84.9117 307.155 85.0717 306.968 85.275V89H305.993V83.92H306.578C306.715 83.92 306.8 83.985 306.833 84.115L306.908 84.625Z" fill="black"/>
<g clip-path="url(#clip0_14_15938)">
<path d="M305.842 40.7559C306.435 26.2506 295.104 13.9339 280.532 13.2458C265.961 12.5578 253.667 23.759 253.074 38.2644C252.481 52.7697 263.812 65.0864 278.384 65.7745C292.955 66.4625 305.249 55.2613 305.842 40.7559Z" fill="#CDE6FA"/>
<g opacity="0.68">
<path opacity="0.68" d="M286.205 39.6336C286.199 44.2705 285.903 48.917 285.142 53.4883C284.95 54.6301 284.727 55.7665 284.461 56.8921C284.194 58.0174 283.886 59.1328 283.509 60.2232C283.129 61.3109 282.687 62.383 282.089 63.3627C281.787 63.849 281.445 64.3149 281.023 64.6983C280.812 64.8887 280.581 65.0578 280.326 65.1814C280.071 65.3042 279.793 65.3821 279.511 65.3876C279.23 65.3965 278.947 65.3371 278.688 65.2249C278.428 65.1137 278.19 64.9525 277.974 64.7683C277.542 64.397 277.192 63.936 276.885 63.4537C276.276 62.4809 275.829 61.411 275.445 60.325C275.063 59.2363 274.752 58.1219 274.483 56.9974C274.214 55.8726 273.989 54.7367 273.795 53.5951C273.407 51.3116 273.143 49.0062 272.965 46.6943C272.788 44.3822 272.699 42.0627 272.688 39.7426C272.683 38.5827 272.712 37.4231 272.751 36.2644C272.791 35.1055 272.851 33.9474 272.93 32.791C273.09 30.4781 273.328 28.1704 273.682 25.8818C273.86 24.7377 274.068 23.5983 274.317 22.4694C274.567 21.3406 274.858 20.2208 275.219 19.1252C275.4 18.5778 275.598 18.0365 275.824 17.5077C276.05 16.9792 276.302 16.462 276.599 15.9733C276.896 15.4865 277.238 15.022 277.664 14.6502C277.877 14.4658 278.111 14.3056 278.368 14.1968C278.624 14.0868 278.901 14.031 279.178 14.0423C279.454 14.0507 279.726 14.1249 279.978 14.2438C280.229 14.3632 280.461 14.5259 280.673 14.71C281.098 15.0809 281.449 15.5342 281.761 16.0104C282.381 16.9693 282.848 18.0266 283.253 19.1024C283.655 20.1812 283.987 21.288 284.276 22.4063C284.564 23.5252 284.808 24.6564 285.019 25.794C285.853 30.3491 286.193 34.996 286.205 39.6336ZM285.886 39.6336C285.89 37.3232 285.808 35.0121 285.629 32.7096C285.453 30.4074 285.186 28.1116 284.789 25.8412C284.59 24.7063 284.359 23.5776 284.084 22.4617C283.808 21.3463 283.489 20.242 283.101 19.1664C282.71 18.0938 282.257 17.0402 281.655 16.0882C281.353 15.6156 281.012 15.1666 280.603 14.8015C280.398 14.6201 280.176 14.4606 279.936 14.3429C279.696 14.227 279.437 14.1509 279.174 14.1435C278.912 14.1346 278.649 14.1914 278.406 14.2987C278.162 14.405 277.938 14.5617 277.734 14.7424C277.326 15.1071 276.995 15.5656 276.707 16.0482C276.42 16.5327 276.176 17.0464 275.958 17.5722C275.739 18.0983 275.548 18.6374 275.374 19.1827C275.027 20.2744 274.749 21.3913 274.512 22.5173C274.275 23.6436 274.08 24.7802 273.915 25.9216C273.585 28.2048 273.371 30.5068 273.235 32.813C273.098 35.1194 273.051 37.4313 273.055 39.7419C273.049 42.0523 273.121 44.3632 273.281 46.6674C273.442 48.9711 273.689 51.2691 274.058 53.5444C274.243 54.6818 274.459 55.8135 274.718 56.9334C274.977 58.053 275.278 59.1619 275.648 60.2432C276.021 61.3215 276.456 62.3825 277.045 63.338C277.341 63.8119 277.678 64.261 278.087 64.6173C278.291 64.794 278.513 64.947 278.753 65.0516C278.993 65.1567 279.249 65.215 279.507 65.2056C279.764 65.1984 280.018 65.1255 280.253 65.0096C280.489 64.8927 280.706 64.7322 280.906 64.549C281.305 64.1805 281.635 63.7256 281.926 63.2477C282.505 62.2846 282.934 61.2214 283.302 60.1414C283.667 59.0581 283.965 57.9481 284.222 56.8278C284.478 55.7072 284.691 54.575 284.874 53.4371C285.241 51.1613 285.485 48.8631 285.647 46.5596C285.811 44.2559 285.886 41.9445 285.886 39.6336Z" fill="white"/>
<path opacity="0.68" d="M297.092 39.6337C297.077 42.6197 296.72 45.6072 295.976 48.4867C295.219 51.3597 294.077 54.1235 292.528 56.6049C291.754 57.8442 290.876 59.0107 289.896 60.0693C288.916 61.1273 287.831 62.0768 286.655 62.8728C285.477 63.6656 284.205 64.3002 282.873 64.7306C281.542 65.1622 280.153 65.3872 278.762 65.3886C277.372 65.3884 275.982 65.1647 274.651 64.7343C273.318 64.3049 272.045 63.6713 270.866 62.8795C269.688 62.0845 268.602 61.1357 267.621 60.0782C266.639 59.0201 265.759 57.8538 264.983 56.6146C263.431 54.1329 262.287 51.3678 261.527 48.4933C261.152 47.0536 260.874 45.5852 260.69 44.1039C260.507 42.6224 260.415 41.1283 260.408 39.6337C260.415 38.1391 260.508 36.645 260.693 35.1637C260.878 33.6827 261.157 32.2148 261.532 30.7756C262.295 27.9023 263.44 25.139 264.993 22.66C265.77 21.4218 266.649 20.2567 267.631 19.2001C268.613 18.1441 269.698 17.1963 270.876 16.4037C272.054 15.6139 273.327 14.985 274.657 14.5559C275.986 14.125 277.374 13.9 278.763 13.8986C280.151 13.9013 281.538 14.1272 282.867 14.5593C284.196 14.9897 285.468 15.6199 286.645 16.4104C287.822 17.2037 288.905 18.1525 289.885 19.209C290.866 20.2661 291.744 21.4314 292.519 22.6697C294.069 25.1484 295.211 27.9105 295.97 30.7822C296.716 33.6607 297.075 36.6477 297.092 39.6337ZM296.725 39.6337C296.721 36.6816 296.379 33.7262 295.654 30.8764C294.925 28.0311 293.828 25.2841 292.317 22.8138C291.561 21.58 290.704 20.4169 289.743 19.3596C288.782 18.304 287.721 17.3491 286.56 16.5553C285.398 15.766 284.143 15.1306 282.827 14.701C281.512 14.2709 280.138 14.0449 278.762 14.04C277.387 14.0461 276.013 14.2733 274.699 14.7045C273.384 15.1353 272.13 15.7719 270.969 16.562C269.809 17.3567 268.749 18.3124 267.79 19.3685C266.831 20.4263 265.975 21.5894 265.222 22.8234C263.714 25.2935 262.618 28.0392 261.893 30.8831C261.532 32.3068 261.27 33.7584 261.093 35.2206C260.915 36.6831 260.827 38.1581 260.824 39.6335C260.828 41.1088 260.917 42.5836 261.095 44.0458C261.273 45.5081 261.536 46.9592 261.899 48.3821C262.626 51.225 263.723 53.9687 265.232 56.4363C265.985 57.6691 266.842 58.831 267.8 59.8873C268.76 60.9417 269.819 61.8966 270.978 62.6889C272.139 63.477 273.392 64.1089 274.705 64.5397C276.017 64.9714 277.388 65.1998 278.762 65.2072C280.136 65.201 281.507 64.9741 282.82 64.5435C284.134 64.1138 285.389 63.4829 286.55 62.6958C287.711 61.9045 288.772 60.9503 289.733 59.8965C290.693 58.8406 291.551 57.6788 292.306 56.4462C293.818 53.9783 294.918 51.2334 295.648 48.3893C296.375 45.5407 296.72 42.5858 296.725 39.6337Z" fill="white"/>
<path opacity="0.68" d="M257.374 29.494C257.36 29.4938 257.35 29.4822 257.35 29.4678C257.35 29.4537 257.36 29.4424 257.374 29.4421L262.878 29.3944L268.383 29.3672L279.391 29.3455L290.4 29.3694L295.905 29.3991L301.409 29.4508C301.418 29.4508 301.425 29.4587 301.425 29.4683C301.425 29.4777 301.418 29.4854 301.409 29.4856L295.905 29.5373L290.4 29.567L279.391 29.5909L268.383 29.5692L262.878 29.542L257.374 29.494Z" fill="white"/>
<path opacity="0.68" d="M255.461 39.4006C255.448 39.4006 255.438 39.3888 255.438 39.3747C255.438 39.3606 255.448 39.3492 255.461 39.349L261.444 39.3013L267.427 39.2741L279.392 39.2523L291.358 39.2763L297.34 39.306L303.323 39.3576C303.332 39.3576 303.339 39.3655 303.339 39.3752C303.339 39.3846 303.332 39.3922 303.323 39.3925L297.34 39.4441L291.358 39.4738L279.392 39.4978L267.427 39.476L261.444 39.4488L255.461 39.4006Z" fill="white"/>
<path opacity="0.68" d="M257.374 49.2551L262.878 49.2074L268.383 49.1802L279.391 49.1584L290.4 49.1824L295.905 49.2121L301.409 49.2638C301.418 49.2638 301.425 49.2717 301.425 49.2813C301.425 49.2907 301.418 49.2984 301.409 49.2986L295.905 49.3503L290.4 49.3799L279.391 49.4039L268.383 49.3822L262.878 49.355L257.374 49.3068C257.36 49.3068 257.35 49.2949 257.35 49.2808C257.35 49.2665 257.36 49.2551 257.374 49.2551Z" fill="white"/>
<path opacity="0.68" d="M295.896 59.1875C295.896 59.2377 295.858 59.2782 295.811 59.2782H264.547C264.501 59.2782 264.463 59.2377 264.463 59.1875C264.463 59.1373 264.501 59.0968 264.547 59.0968H295.811C295.858 59.0968 295.896 59.1373 295.896 59.1875Z" fill="white"/>
</g>
<path d="M261.856 30.1243C261.837 30.1243 261.819 30.1196 261.801 30.1097C261.711 30.0603 261.662 29.9016 261.693 29.7551C261.715 29.6486 261.737 29.5424 261.761 29.4364C261.793 29.2911 261.892 29.2161 261.981 29.2686C262.07 29.3213 262.116 29.4817 262.084 29.6273C262.061 29.729 262.039 29.8313 262.018 29.9337C261.994 30.0507 261.927 30.1243 261.856 30.1243ZM262.166 28.8283C262.143 28.8283 262.119 28.8204 262.096 28.8041C262.01 28.7413 261.971 28.5759 262.009 28.4346C262.037 28.3318 262.066 28.2296 262.095 28.1275C262.136 27.9874 262.238 27.9275 262.324 27.9932C262.41 28.0589 262.447 28.2258 262.406 28.3656C262.378 28.4641 262.35 28.5629 262.323 28.6624C262.295 28.7662 262.232 28.8283 262.166 28.8283ZM262.547 27.5827C262.519 27.5827 262.49 27.5714 262.464 27.5479C262.381 27.4733 262.35 27.3029 262.396 27.1676C262.429 27.0696 262.463 26.972 262.498 26.8746C262.545 26.7406 262.65 26.695 262.733 26.7722C262.815 26.8494 262.843 27.0206 262.795 27.1547C262.762 27.2487 262.729 27.3431 262.697 27.4381C262.666 27.5304 262.607 27.5827 262.547 27.5827ZM262.988 26.3931C262.956 26.3931 262.923 26.3783 262.894 26.3469C262.815 26.2617 262.793 26.0881 262.845 25.9591C262.883 25.8656 262.921 25.7728 262.96 25.6803C263.014 25.5527 263.121 25.5201 263.199 25.6074C263.277 25.6947 263.297 25.869 263.244 25.9965C263.206 26.0862 263.169 26.1766 263.132 26.267C263.099 26.3488 263.044 26.3931 262.988 26.3931ZM263.484 25.2607C263.447 25.2607 263.411 25.2417 263.38 25.2029C263.304 25.1089 263.29 24.9331 263.348 24.8103C263.389 24.7219 263.432 24.6336 263.474 24.5459C263.534 24.4248 263.642 24.4046 263.716 24.5006C263.79 24.5967 263.803 24.7727 263.744 24.8938C263.702 24.9792 263.661 25.065 263.621 25.1511C263.587 25.223 263.536 25.2607 263.484 25.2607ZM264.026 24.1862C263.986 24.1862 263.945 24.1634 263.913 24.1167C263.841 24.0148 263.834 23.8378 263.897 23.7217C263.942 23.6378 263.988 23.5544 264.034 23.4714C264.098 23.3568 264.206 23.3479 264.277 23.4515C264.347 23.5553 264.353 23.7323 264.289 23.8469C264.244 23.9277 264.2 24.009 264.155 24.0908C264.121 24.1538 264.074 24.1862 264.026 24.1862ZM264.609 23.1693C264.565 23.1693 264.522 23.1422 264.488 23.0882C264.421 22.9794 264.42 22.8022 264.487 22.6924C264.535 22.6132 264.584 22.5346 264.633 22.4562C264.7 22.3478 264.809 22.3495 264.876 22.4598C264.942 22.5701 264.941 22.7473 264.874 22.8557C264.826 22.9322 264.778 23.0091 264.731 23.0863C264.698 23.1417 264.653 23.1693 264.609 23.1693ZM265.227 22.2095C265.18 22.2095 265.134 22.1783 265.1 22.1169C265.036 22.002 265.042 21.8251 265.112 21.7215C265.163 21.6469 265.214 21.5726 265.266 21.499C265.337 21.3971 265.445 21.4084 265.508 21.5244C265.571 21.6405 265.564 21.8174 265.493 21.9196C265.442 21.9917 265.392 22.0644 265.343 22.1373C265.31 22.1857 265.268 22.2095 265.227 22.2095ZM265.877 21.3052C265.827 21.3052 265.777 21.2698 265.743 21.2017C265.683 21.0815 265.695 20.9053 265.768 20.8079C265.821 20.7377 265.875 20.6682 265.928 20.5989C266.003 20.5029 266.111 20.5233 266.17 20.6447C266.229 20.766 266.216 20.942 266.142 21.0379C266.089 21.1057 266.037 21.1741 265.985 21.2429C265.953 21.2849 265.915 21.3052 265.877 21.3052ZM266.554 20.4547C266.501 20.4547 266.449 20.4152 266.416 20.3401C266.359 20.2154 266.376 20.0402 266.453 19.9491C266.508 19.8831 266.563 19.8177 266.619 19.7527C266.697 19.6628 266.804 19.6918 266.859 19.8176C266.914 19.9433 266.897 20.1183 266.819 20.2083C266.765 20.272 266.71 20.3363 266.656 20.401C266.625 20.4372 266.59 20.4547 266.554 20.4547ZM267.256 19.6584C267.201 19.6584 267.146 19.6143 267.113 19.533C267.061 19.404 267.082 19.2304 267.162 19.1451C267.219 19.0834 267.276 19.0225 267.333 18.9619C267.413 18.878 267.519 18.9151 267.571 19.0448C267.622 19.1746 267.6 19.3479 267.52 19.4318C267.464 19.4913 267.407 19.5513 267.351 19.6117C267.322 19.6433 267.289 19.6584 267.256 19.6584ZM267.98 18.9166C267.921 18.9166 267.864 18.8681 267.832 18.7804C267.783 18.6478 267.81 18.4758 267.891 18.3965C267.95 18.3392 268.009 18.2826 268.068 18.2265C268.15 18.1485 268.255 18.1934 268.303 18.3269C268.351 18.4605 268.323 18.6319 268.241 18.7099C268.183 18.765 268.126 18.8206 268.068 18.8768C268.04 18.9036 268.01 18.9166 267.98 18.9166ZM268.722 18.2286C268.661 18.2286 268.602 18.1754 268.57 18.0816C268.525 17.9457 268.557 17.7757 268.64 17.7023C268.7 17.6496 268.76 17.5973 268.82 17.5455C268.905 17.4736 269.008 17.5258 269.053 17.6627C269.097 17.7994 269.065 17.9687 268.981 18.0409C268.921 18.0917 268.862 18.143 268.803 18.1951C268.777 18.2178 268.749 18.2286 268.722 18.2286ZM269.481 17.5954C269.417 17.5954 269.356 17.5373 269.326 17.4374C269.285 17.2983 269.32 17.1307 269.406 17.0633C269.467 17.0149 269.529 16.9671 269.59 16.9197C269.676 16.8537 269.778 16.9134 269.819 17.0532C269.859 17.193 269.823 17.3599 269.737 17.4258C269.676 17.4724 269.616 17.5194 269.556 17.5671C269.532 17.5865 269.506 17.5954 269.481 17.5954ZM270.257 17.0165C270.19 17.0165 270.127 16.9532 270.099 16.8475C270.061 16.7055 270.102 16.5408 270.189 16.4794C270.252 16.4353 270.315 16.3917 270.378 16.3488C270.465 16.2888 270.566 16.3562 270.603 16.4986C270.639 16.6413 270.598 16.8053 270.511 16.865C270.449 16.9072 270.387 16.9501 270.325 16.9935C270.303 17.0091 270.28 17.0165 270.257 17.0165ZM271.049 16.4933C270.979 16.4933 270.914 16.4245 270.888 16.3125C270.854 16.168 270.899 16.0063 270.988 15.9514C271.052 15.9119 271.116 15.873 271.18 15.8347C271.269 15.7814 271.368 15.8558 271.4 16.0011C271.433 16.1461 271.387 16.307 271.298 16.3603C271.235 16.3979 271.172 16.436 271.109 16.4749C271.09 16.4876 271.069 16.4933 271.049 16.4933ZM271.854 16.0298C271.782 16.0298 271.715 15.9548 271.691 15.8368C271.662 15.6898 271.711 15.5318 271.801 15.4839C271.866 15.4491 271.931 15.4153 271.996 15.382C272.087 15.3354 272.183 15.4174 272.212 15.5649C272.24 15.7124 272.19 15.8697 272.1 15.916C272.036 15.9488 271.972 15.9821 271.908 16.0162C271.89 16.0253 271.872 16.0298 271.854 16.0298ZM272.673 15.6294C272.597 15.6294 272.528 15.5477 272.507 15.4232C272.482 15.2741 272.536 15.1201 272.627 15.0794C272.694 15.0499 272.76 15.0211 272.826 14.993C272.918 14.9542 273.012 15.0439 273.035 15.1935C273.059 15.3431 273.004 15.4961 272.912 15.5349C272.848 15.5623 272.783 15.5906 272.718 15.6193C272.703 15.6263 272.688 15.6294 272.673 15.6294ZM273.502 15.2976C273.423 15.2976 273.352 15.2081 273.334 15.077C273.314 14.9259 273.373 14.7768 273.466 14.7439C273.533 14.7202 273.6 14.6972 273.667 14.6749C273.76 14.6439 273.851 14.7417 273.87 14.8933C273.889 15.0448 273.829 15.1925 273.736 15.2235C273.67 15.245 273.605 15.2676 273.539 15.2908C273.527 15.2954 273.514 15.2976 273.502 15.2976ZM277.941 15.0882C277.929 15.0882 277.916 15.0861 277.904 15.0813C277.84 15.058 277.775 15.0362 277.71 15.0158C277.617 14.9866 277.556 14.8401 277.574 14.6883C277.591 14.5365 277.681 14.4367 277.775 14.4662C277.844 14.4876 277.912 14.5106 277.979 14.5353C278.071 14.5691 278.13 14.7187 278.109 14.8696C278.091 14.9995 278.02 15.0882 277.941 15.0882ZM274.342 15.0408C274.259 15.0408 274.185 14.9422 274.172 14.8041C274.158 14.6514 274.222 14.5082 274.315 14.4842C274.383 14.4667 274.451 14.4502 274.519 14.4346C274.612 14.413 274.7 14.5192 274.713 14.6725C274.727 14.8254 274.661 14.9671 274.567 14.989C274.501 15.0043 274.435 15.0204 274.369 15.0372C274.36 15.0398 274.351 15.0408 274.342 15.0408ZM275.19 14.8693C275.102 14.8693 275.027 14.76 275.019 14.6144C275.01 14.4605 275.08 14.3243 275.174 14.3104C275.243 14.3003 275.312 14.2912 275.38 14.2831C275.474 14.272 275.557 14.3876 275.564 14.542C275.571 14.6962 275.499 14.8302 275.405 14.8415C275.339 14.8494 275.272 14.8583 275.205 14.8681C275.2 14.8691 275.195 14.8693 275.19 14.8693ZM277.099 14.8681C277.093 14.8681 277.087 14.8676 277.081 14.8667C277.015 14.8556 276.949 14.8461 276.883 14.8377C276.788 14.8257 276.717 14.6912 276.725 14.537C276.732 14.3828 276.815 14.2679 276.909 14.2795C276.979 14.2881 277.048 14.2982 277.116 14.3097C277.21 14.3255 277.279 14.4629 277.269 14.6166C277.26 14.7609 277.186 14.8681 277.099 14.8681ZM276.043 14.7959C275.949 14.7959 275.872 14.6732 275.871 14.5197C275.87 14.3651 275.946 14.2382 276.041 14.2361C276.087 14.2351 276.134 14.2344 276.18 14.2344L276.247 14.2346C276.342 14.2356 276.418 14.3617 276.418 14.5164C276.417 14.6703 276.34 14.7945 276.246 14.7945C276.246 14.7945 276.245 14.7945 276.245 14.7945L276.18 14.7943C276.136 14.7943 276.092 14.7947 276.048 14.7956C276.046 14.7957 276.044 14.7959 276.043 14.7959Z" fill="white"/>
<path d="M272.193 51.5279C272.193 51.891 272.488 52.1852 272.851 52.1852H310.338C310.701 52.1852 310.996 51.891 310.996 51.5279C310.996 51.1649 310.701 50.8706 310.338 50.8706H272.851C272.488 50.8706 272.193 51.1649 272.193 51.5279Z" fill="#09005D"/>
<path d="M272.193 38.3049C272.193 38.653 272.476 38.9352 272.824 38.9352H311.057C311.405 38.9352 311.687 38.653 311.687 38.3049C311.687 37.9569 311.405 37.6747 311.057 37.6747H272.824C272.476 37.6747 272.193 37.9569 272.193 38.3049Z" fill="#09005D"/>
<path d="M272.193 28.1987C272.193 28.5182 272.452 28.7773 272.772 28.7773H310.718C311.038 28.7773 311.297 28.5182 311.297 28.1987C311.297 27.8792 311.038 27.6201 310.718 27.6201H272.772C272.452 27.6201 272.193 27.8792 272.193 28.1987Z" fill="#09005D"/>
<path d="M310.633 61.4247C310.633 61.8021 310.939 62.108 311.316 62.108C311.693 62.108 311.999 61.8021 311.999 61.4247V19.5961C311.999 19.0677 311.571 18.6393 311.043 18.6393C310.816 18.6393 310.633 18.8363 310.633 19.0796V61.4247Z" fill="#09005D"/>
<path d="M271.953 61.4247C271.953 61.8021 272.259 62.108 272.636 62.108C273.014 62.108 273.32 61.8021 273.32 61.4247V19.5961C273.32 19.0677 272.891 18.6393 272.363 18.6393C272.137 18.6393 271.953 18.8363 271.953 19.0796V61.4247Z" fill="#09005D"/>
<path d="M282.843 51.022C282.343 51.0381 281.932 50.3536 281.932 49.5034V42.7451C281.932 41.8571 282.352 41.1345 282.875 41.1249C284.445 41.0959 287.682 41.0945 290.331 41.4734C290.693 41.5251 290.974 42.0282 290.987 42.6435L291.235 49.1774C291.253 50.0416 290.85 50.7637 290.341 50.78L282.843 51.022Z" fill="#5A9FF0"/>
<path opacity="0.37" d="M286.217 44.7633L287.295 44.8882C287.445 44.9057 287.574 44.772 287.563 44.6096L287.37 41.7873C287.346 41.4338 287.05 41.1553 286.696 41.1459C286.309 41.1357 286 41.4476 286 41.8343V44.5035C286 44.637 286.094 44.749 286.217 44.7633Z" fill="white"/>
<path d="M286.657 44.1663C286.661 44.2284 286.709 44.2761 286.766 44.2761C286.768 44.2761 286.77 44.2761 286.772 44.2758C286.832 44.2721 286.877 44.217 286.874 44.1527L286.717 41.2464C286.714 41.1899 286.668 41.1452 286.611 41.1438C286.548 41.1423 286.497 41.195 286.5 41.2582L286.657 44.1663Z" fill="white"/>
<path d="M292.464 50.9528C291.964 50.9689 291.553 50.2844 291.553 49.4342V42.6758C291.553 41.7879 291.973 41.0653 292.496 41.0557C294.066 41.0267 297.303 41.0253 299.952 41.4042C300.314 41.4559 300.595 41.959 300.608 42.5742L300.856 49.1082C300.874 49.9724 300.471 50.6945 299.962 50.7108L292.464 50.9528Z" fill="#5A9FF0"/>
<path opacity="0.37" d="M295.838 44.6941L296.916 44.8189C297.066 44.8365 297.195 44.7027 297.184 44.5403L296.991 41.7181C296.967 41.3646 296.671 41.0861 296.317 41.0767C295.93 41.0665 295.621 41.3784 295.621 41.765V44.4343C295.621 44.568 295.715 44.6798 295.838 44.6941Z" fill="white"/>
<path d="M296.281 44.0971C296.284 44.1591 296.332 44.2068 296.389 44.2068C296.391 44.2068 296.393 44.2068 296.395 44.2066C296.455 44.2029 296.5 44.1478 296.497 44.0835L296.34 41.1772C296.337 41.1207 296.291 41.076 296.234 41.0746C296.171 41.073 296.12 41.1258 296.124 41.189L296.281 44.0971Z" fill="white"/>
<path d="M302.109 51.0787C301.608 51.0968 301.197 50.3314 301.197 49.3812V41.8268C301.197 40.8343 301.618 40.0266 302.141 40.0158C303.71 39.9834 306.948 39.9817 309.597 40.4054C309.958 40.4632 310.24 41.0254 310.253 41.7133L310.5 49.017C310.519 49.9831 310.116 50.7903 309.607 50.8085L302.109 51.0787Z" fill="#5A9FF0"/>
<path opacity="0.37" d="M305.483 44.0826L306.56 44.2223C306.711 44.2418 306.84 44.0925 306.828 43.9108L306.631 40.6834C306.609 40.3298 306.315 40.0496 305.961 40.0393C305.575 40.028 305.266 40.3394 305.266 40.7258V43.7926C305.266 43.9417 305.359 44.0668 305.483 44.0826Z" fill="white"/>
<path d="M305.925 43.4153C305.928 43.4846 305.976 43.538 306.033 43.538C306.035 43.538 306.037 43.538 306.04 43.5377C306.099 43.5335 306.145 43.472 306.142 43.4003L305.984 40.1404C305.981 40.0837 305.935 40.0386 305.878 40.0371C305.815 40.0353 305.764 40.0878 305.767 40.1509L305.925 43.4153Z" fill="white"/>
<path d="M263.739 32.7726C263.739 36.1095 260.145 38.7049 260.145 38.7049C260.145 38.7049 256.551 36.1095 256.551 32.7726C256.551 31.7893 256.929 30.8462 257.603 30.1509C258.277 29.4556 259.192 29.0649 260.145 29.0649C261.098 29.0649 262.012 29.4556 262.686 30.1509C263.36 30.8462 263.739 31.7893 263.739 32.7726Z" fill="#0015A7"/>
<path d="M260.145 34.2557C260.939 34.2557 261.582 33.5917 261.582 32.7726C261.582 31.9535 260.939 31.2896 260.145 31.2896C259.351 31.2896 258.707 31.9535 258.707 32.7726C258.707 33.5917 259.351 34.2557 260.145 34.2557Z" fill="#CDE6FA"/>
<path d="M280.879 14.6011C280.879 16.8379 278.47 18.5776 278.47 18.5776C278.47 18.5776 276.061 16.8379 276.061 14.6011C276.061 13.9419 276.314 13.3098 276.766 12.8437C277.218 12.3776 277.831 12.1157 278.47 12.1157C279.109 12.1157 279.721 12.3776 280.173 12.8437C280.625 13.3098 280.879 13.9419 280.879 14.6011Z" fill="#0015A7"/>
<path d="M278.47 15.5952C279.002 15.5952 279.433 15.1501 279.433 14.6011C279.433 14.052 279.002 13.6069 278.47 13.6069C277.937 13.6069 277.506 14.052 277.506 14.6011C277.506 15.1501 277.937 15.5952 278.47 15.5952Z" fill="#CDE6FA"/>
<path d="M298.358 53.098C298.281 51.9777 298.036 50.8753 297.632 49.8277L294.275 41.1292C294.175 40.8709 293.889 40.7177 293.565 40.7177C292.846 40.7177 291.464 40.7177 289.802 40.7177C283.074 40.7177 277.617 46.1719 277.617 52.9V54.6701C277.617 60.4206 282.279 65.0823 288.029 65.0823C294.061 65.0823 298.83 59.9739 298.417 53.9567L298.358 53.098Z" fill="#F29937"/>
<path d="M299.577 63.6543C299.445 63.5607 299.284 63.5103 299.099 63.5139L290.347 63.695C289.479 63.7129 288.782 64.4147 288.769 65.2824C288.756 66.1646 289.456 66.893 290.338 66.9163L299.045 67.1461C299.422 67.1461 299.749 66.9504 299.749 66.6762V64.0103C299.749 63.8762 299.71 63.7478 299.577 63.6543Z" fill="#0015A7"/>
<path d="M296.346 51.4343L294.345 45.2727C294.275 45.0585 294.076 44.8956 293.865 44.9149L288.057 45.448C287.933 45.4594 287.82 45.5511 287.741 45.6547C287.661 45.7582 287.626 45.9053 287.641 46.0382L288.193 51.0676C288.219 51.3035 288.398 51.4901 288.62 51.5077L295.874 52.0884C296.03 52.1008 296.181 52.0295 296.276 51.8973C296.371 51.7654 296.397 51.592 296.346 51.4343Z" fill="#0015A7"/>
<path d="M295.509 44.7927C295.493 44.7517 295.449 44.7296 295.406 44.7412C295.279 44.7759 295.172 44.8663 295.11 44.99C295.049 45.1139 295.04 45.2594 295.085 45.391L297.238 51.6897C297.322 51.9334 297.566 52.0676 297.8 51.9983C298.071 51.9181 298.216 51.6225 298.112 51.3614L295.509 44.7927Z" fill="#0015A7"/>
<path d="M291.589 56.9123C291.589 57.1716 291.394 57.3819 291.152 57.3819H289.332C289.09 57.3819 288.895 57.1716 288.895 56.9123V56.6775C288.895 56.4182 289.09 56.2079 289.332 56.2079H291.152C291.394 56.2079 291.589 56.4182 291.589 56.6775V56.9123Z" fill="#F29937"/>
<path d="M292.312 72C294.901 72 296.999 69.7452 296.999 66.9638C296.999 64.1823 294.901 61.9275 292.312 61.9275C289.723 61.9275 287.625 64.1823 287.625 66.9638C287.625 69.7452 289.723 72 292.312 72Z" fill="#0015A7"/>
<path d="M292.993 70.9946C295.061 70.5916 296.434 68.463 296.059 66.2402C295.684 64.0174 293.703 62.5421 291.634 62.9451C289.566 63.3481 288.193 65.4767 288.568 67.6996C288.943 69.9224 290.924 71.3976 292.993 70.9946Z" fill="white"/>
<path d="M295.509 68.4729C295.497 68.4729 295.485 68.4702 295.473 68.4648C295.426 68.4433 295.404 68.3851 295.424 68.3343C295.595 67.9002 295.681 67.439 295.681 66.9634C295.681 65.0217 294.211 63.4417 292.404 63.4417C291.843 63.4417 291.29 63.5964 290.804 63.8889C290.759 63.9158 290.703 63.8984 290.678 63.8506C290.653 63.8026 290.669 63.7419 290.713 63.715C291.227 63.4058 291.812 63.2424 292.404 63.2424C294.313 63.2424 295.867 64.9117 295.867 66.9634C295.867 67.4659 295.776 67.9531 295.595 68.4119C295.58 68.4499 295.545 68.4729 295.509 68.4729Z" fill="white"/>
<path d="M292.312 68.8393C293.276 68.8393 294.058 67.9995 294.058 66.9636C294.058 65.9277 293.276 65.0879 292.312 65.0879C291.348 65.0879 290.566 65.9277 290.566 66.9636C290.566 67.9995 291.348 68.8393 292.312 68.8393Z" fill="#0015A7"/>
<path d="M298.212 63.0869C298.212 63.3615 298.005 63.584 297.749 63.584H296.562C296.307 63.584 296.1 63.3615 296.1 63.0869V61.3421C296.1 61.0675 296.307 60.845 296.562 60.845H297.749C298.005 60.845 298.212 61.0675 298.212 61.3421V63.0869Z" fill="#F29937"/>
<path opacity="0.8" d="M-nan -nanL297.047 60.845V63.0472C297.047 63.2572 296.876 63.4275 296.666 63.4275C296.411 63.4275 296.1 63.1189 296.1 62.8447V61.2091C296.1 60.9349 296.411 60.845 296.666 60.845H297.047L-nan -nanZ" fill="white"/>
<path d="M284.391 62.7035H248.609C247.528 62.7035 246.652 63.5795 246.652 64.66C246.652 65.7406 247.528 66.6165 248.609 66.6165H284.391C285.471 66.6165 286.347 65.7406 286.347 64.66C286.347 63.5795 285.471 62.7035 284.391 62.7035Z" fill="#0015A7"/>
<path d="M285.909 40.3122C285.909 39.3799 284.992 38.599 283.998 38.599H246.54C245.546 38.599 244.758 39.3799 244.758 40.3122V61.5238C244.758 62.4561 245.546 63.2513 246.54 63.2513H283.998C284.992 63.2513 285.909 62.4564 285.909 61.5238V40.3122Z" fill="#0015A7"/>
<path opacity="0.24" d="M284.598 41.1672C284.598 41.1672 284.598 41.1671 284.598 41.167C284.598 40.3139 283.914 39.6165 282.976 39.6165H247.639C246.702 39.6165 245.777 40.314 245.777 41.1672V60.5565C245.777 61.4096 246.702 62.2338 247.639 62.2338H282.976C283.914 62.2338 284.598 61.4093 284.598 60.5565V41.1673C284.598 41.1672 284.598 41.1672 284.598 41.1672Z" fill="#4141F9"/>
<path d="M263.416 71.9999C266.004 71.9999 268.103 69.7451 268.103 66.9636C268.103 64.1822 266.004 61.9274 263.416 61.9274C260.827 61.9274 258.729 64.1822 258.729 66.9636C258.729 69.7451 260.827 71.9999 263.416 71.9999Z" fill="#0015A7"/>
<path d="M264.028 71.0012C266.103 70.6393 267.512 68.5383 267.176 66.3085C266.839 64.0787 264.883 62.5644 262.808 62.9263C260.733 63.2882 259.324 65.3892 259.661 67.619C259.997 69.8488 261.953 71.363 264.028 71.0012Z" fill="white"/>
<path d="M266.613 68.4729C266.601 68.4729 266.589 68.4702 266.577 68.4648C266.53 68.4433 266.508 68.3851 266.528 68.3343C266.699 67.8999 266.785 67.439 266.785 66.9634C266.785 65.0217 265.315 63.4417 263.508 63.4417C262.947 63.4417 262.394 63.5964 261.908 63.8889C261.863 63.9158 261.806 63.8984 261.781 63.8506C261.756 63.8026 261.772 63.7419 261.817 63.715C262.331 63.4058 262.915 63.2424 263.508 63.2424C265.417 63.2424 266.971 64.9117 266.971 66.9634C266.971 67.4656 266.879 67.9528 266.698 68.412C266.684 68.4499 266.649 68.4729 266.613 68.4729Z" fill="white"/>
<path d="M263.416 68.8395C264.38 68.8395 265.161 67.9997 265.161 66.9637C265.161 65.9278 264.38 65.088 263.416 65.088C262.451 65.088 261.67 65.9278 261.67 66.9637C261.67 67.9997 262.451 68.8395 263.416 68.8395Z" fill="#0015A7"/>
<path d="M252.691 71.9999C255.28 71.9999 257.378 69.7451 257.378 66.9636C257.378 64.1822 255.28 61.9274 252.691 61.9274C250.102 61.9274 248.004 64.1822 248.004 66.9636C248.004 69.7451 250.102 71.9999 252.691 71.9999Z" fill="#0015A7"/>
<path d="M252.691 71.0537C254.794 71.0537 256.498 69.2224 256.498 66.9635C256.498 64.7045 254.794 62.8733 252.691 62.8733C250.589 62.8733 248.885 64.7045 248.885 66.9635C248.885 69.2224 250.589 71.0537 252.691 71.0537Z" fill="white"/>
<path d="M255.888 68.4728C255.876 68.4728 255.864 68.4701 255.852 68.4647C255.805 68.4432 255.783 68.3849 255.803 68.3342C255.974 67.9001 256.06 67.4389 256.06 66.9633C256.06 65.0215 254.59 63.4416 252.783 63.4416C252.222 63.4416 251.669 63.5963 251.183 63.8888C251.138 63.9156 251.082 63.8983 251.057 63.8505C251.032 63.8024 251.048 63.7418 251.092 63.7149C251.606 63.4057 252.191 63.2423 252.783 63.2423C254.692 63.2423 256.246 64.9116 256.246 66.9633C256.246 67.4657 256.154 67.953 255.974 68.4118C255.959 68.4498 255.924 68.4728 255.888 68.4728Z" fill="white"/>
<path d="M252.693 68.8392C253.657 68.8392 254.439 67.9994 254.439 66.9635C254.439 65.9276 253.657 65.0878 252.693 65.0878C251.729 65.0878 250.947 65.9276 250.947 66.9635C250.947 67.9994 251.729 68.8392 252.693 68.8392Z" fill="#0015A7"/>
</g>
<defs>
<clipPath id="clip0_14_15938">
<rect width="60" height="60" fill="white" transform="translate(252 12)"/>
</clipPath>
</defs>
</svg>
