<svg width="58" height="37" viewBox="0 0 58 37" fill="none" xmlns="http://www.w3.org/2000/svg">
<path d="M22.5677 8.44294C22.3627 7.80355 22.0909 7.18502 21.7562 6.59648L22.2602 5.03794L19.0015 1.95893L17.3507 2.43482C16.7273 2.11879 16.0722 1.86213 15.395 1.66864L14.5834 0.240967H9.97134L9.16232 1.66864C8.48493 1.86168 7.82974 2.11835 7.20659 2.43482L5.55581 1.95893L2.29456 5.03794L2.79862 6.59648C2.46579 7.18557 2.19482 7.80401 1.98961 8.44294L0.464844 9.20912V13.5635L1.98961 14.3273C2.19432 14.9664 2.4653 15.5849 2.79862 16.1738L2.29456 17.7323L5.55581 20.8113L7.20659 20.3354C7.83032 20.6501 8.4854 20.906 9.16232 21.0992L9.97134 22.5269H14.5834L15.395 21.0992C16.0717 20.9055 16.7268 20.6497 17.3507 20.3354L19.0015 20.8113L22.2627 17.7323L21.7587 16.1738C22.0939 15.5854 22.3657 14.9669 22.5702 14.3273L24.095 13.5635V9.20912L22.5677 8.44294ZM12.2774 17.5705C10.9814 17.5705 9.71448 17.2077 8.63689 16.5279C7.5593 15.8481 6.71942 14.8819 6.22346 13.7514C5.7275 12.621 5.59773 11.3771 5.85057 10.177C6.10341 8.97692 6.7275 7.87458 7.64391 7.00937C8.56033 6.14416 9.72791 5.55495 10.999 5.31624C12.2701 5.07753 13.5877 5.20004 14.785 5.66829C15.9824 6.13654 17.0058 6.92949 17.7258 7.94686C18.4458 8.96424 18.8301 10.1604 18.8301 11.3839C18.8301 13.0247 18.1397 14.5983 16.9109 15.7585C15.682 16.9187 14.0153 17.5705 12.2774 17.5705Z" fill="#407BFF"/>
<path opacity="0.2" d="M22.5677 8.44294C22.3627 7.80355 22.0909 7.18502 21.7562 6.59648L22.2602 5.03794L19.0015 1.95893L17.3507 2.43482C16.7273 2.11879 16.0722 1.86213 15.395 1.66864L14.5834 0.240967H9.97134L9.16232 1.66864C8.48493 1.86168 7.82974 2.11835 7.20659 2.43482L5.55581 1.95893L2.29456 5.03794L2.79862 6.59648C2.46579 7.18557 2.19482 7.80401 1.98961 8.44294L0.464844 9.20912V13.5635L1.98961 14.3273C2.19432 14.9664 2.4653 15.5849 2.79862 16.1738L2.29456 17.7323L5.55581 20.8113L7.20659 20.3354C7.83032 20.6501 8.4854 20.906 9.16232 21.0992L9.97134 22.5269H14.5834L15.395 21.0992C16.0717 20.9055 16.7268 20.6497 17.3507 20.3354L19.0015 20.8113L22.2627 17.7323L21.7587 16.1738C22.0939 15.5854 22.3657 14.9669 22.5702 14.3273L24.095 13.5635V9.20912L22.5677 8.44294ZM12.2774 17.5705C10.9814 17.5705 9.71448 17.2077 8.63689 16.5279C7.5593 15.8481 6.71942 14.8819 6.22346 13.7514C5.7275 12.621 5.59773 11.3771 5.85057 10.177C6.10341 8.97692 6.7275 7.87458 7.64391 7.00937C8.56033 6.14416 9.72791 5.55495 10.999 5.31624C12.2701 5.07753 13.5877 5.20004 14.785 5.66829C15.9824 6.13654 17.0058 6.92949 17.7258 7.94686C18.4458 8.96424 18.8301 10.1604 18.8301 11.3839C18.8301 13.0247 18.1397 14.5983 16.9109 15.7585C15.682 16.9187 14.0153 17.5705 12.2774 17.5705Z" fill="white"/>
<path d="M12.278 9.33521C11.8483 9.33521 11.4282 9.4555 11.071 9.68087C10.7137 9.90625 10.4353 10.2266 10.2708 10.6014C10.1064 10.9762 10.0634 11.3886 10.1472 11.7864C10.231 12.1843 10.4379 12.5498 10.7418 12.8366C11.0456 13.1235 11.4327 13.3188 11.8541 13.398C12.2755 13.4771 12.7124 13.4365 13.1093 13.2812C13.5063 13.126 13.8456 12.8631 14.0843 12.5258C14.323 12.1885 14.4504 11.792 14.4504 11.3863C14.4504 10.8423 14.2215 10.3206 13.8141 9.93595C13.4067 9.5513 12.8541 9.33521 12.278 9.33521Z" fill="#407BFF"/>
<path d="M55.3908 15.3506C55.0979 14.4365 54.7104 13.5518 54.234 12.7094L54.9548 10.4823L50.2998 6.08742L47.9383 6.77032C47.0492 6.31534 46.1125 5.94853 45.1433 5.67578L43.9865 3.61993H37.396L36.2367 5.67578C35.2678 5.9494 34.3312 6.31617 33.4417 6.77032L31.0827 6.08742L26.4227 10.487L27.1435 12.7142C26.6649 13.5557 26.2774 14.4405 25.9867 15.3554L23.8066 16.4475V22.6698L25.9842 23.7643C26.2744 24.6786 26.662 25.5627 27.141 26.4031L26.4202 28.6279L31.0802 33.0275L33.4391 32.347C34.3297 32.7997 35.2671 33.1649 36.2367 33.4368L37.396 35.495H43.9865L45.1433 33.4392C46.1117 33.1643 47.0482 32.7976 47.9383 32.3446L50.2998 33.0251L54.9598 28.6255L54.239 26.3984C54.7142 25.5568 55.1 24.6729 55.3908 23.7596L57.5683 22.665V16.4428L55.3908 15.3506ZM40.69 30.8337C38.3268 30.8337 36.0166 30.172 34.0517 28.9325C32.0867 27.6929 30.5552 25.9311 29.6509 23.8697C28.7465 21.8084 28.5099 19.5402 28.9709 17.3519C29.432 15.1636 30.57 13.1535 32.241 11.5759C33.9121 9.9982 36.0411 8.92379 38.3589 8.48851C40.6767 8.05324 43.0792 8.27664 45.2625 9.13046C47.4459 9.98429 49.312 11.4302 50.6249 13.2853C51.9379 15.1405 52.6386 17.3215 52.6386 19.5527C52.6386 21.0341 52.3296 22.5011 51.7291 23.8697C51.1286 25.2384 50.2485 26.482 49.139 27.5295C48.0294 28.5771 46.7122 29.408 45.2625 29.975C43.8129 30.5419 42.2591 30.8337 40.69 30.8337Z" fill="#407BFF"/>
<path d="M40.6887 9.85382C38.6566 9.85429 36.6702 10.4236 34.9808 11.4899C33.2914 12.5561 31.9748 14.0714 31.1974 15.8441C30.4201 17.6167 30.217 19.5672 30.6138 21.4489C31.0105 23.3305 31.9893 25.0589 33.4264 26.4153C34.8636 27.7718 36.6944 28.6955 38.6875 29.0696C40.6807 29.4438 42.7465 29.2515 44.6239 28.5172C46.5013 27.7829 48.1059 26.5395 49.2349 24.9442C50.3638 23.3489 50.9664 21.4734 50.9664 19.5548C50.963 16.9825 49.8791 14.5165 47.9523 12.6978C46.0255 10.8791 43.4132 9.85634 40.6887 9.85382ZM40.6887 27.9638C38.927 27.9643 37.2047 27.4715 35.7397 26.5478C34.2747 25.6241 33.1327 24.311 32.4582 22.7745C31.7837 21.238 31.6069 19.5471 31.9503 17.9158C32.2937 16.2844 33.1418 14.7859 34.3873 13.6096C35.6328 12.4334 37.2198 11.6323 38.9476 11.3076C40.6754 10.983 42.4664 11.1493 44.094 11.7857C45.7216 12.4221 47.1128 13.4999 48.0916 14.8828C49.0704 16.2657 49.5928 17.8916 49.5928 19.5548C49.5902 21.7839 48.6513 23.9209 46.9821 25.4973C45.3129 27.0736 43.0496 27.9607 40.6887 27.9638Z" fill="#407BFF"/>
<path opacity="0.2" d="M40.6887 9.85382C38.6566 9.85429 36.6702 10.4236 34.9808 11.4899C33.2914 12.5561 31.9748 14.0714 31.1974 15.8441C30.4201 17.6167 30.217 19.5672 30.6138 21.4489C31.0105 23.3305 31.9893 25.0589 33.4264 26.4153C34.8636 27.7718 36.6944 28.6955 38.6875 29.0696C40.6807 29.4438 42.7465 29.2515 44.6239 28.5172C46.5013 27.7829 48.1059 26.5395 49.2349 24.9442C50.3638 23.3489 50.9664 21.4734 50.9664 19.5548C50.963 16.9825 49.8791 14.5165 47.9523 12.6978C46.0255 10.8791 43.4132 9.85634 40.6887 9.85382ZM40.6887 27.9638C38.927 27.9643 37.2047 27.4715 35.7397 26.5478C34.2747 25.6241 33.1327 24.311 32.4582 22.7745C31.7837 21.238 31.6069 19.5471 31.9503 17.9158C32.2937 16.2844 33.1418 14.7859 34.3873 13.6096C35.6328 12.4334 37.2198 11.6323 38.9476 11.3076C40.6754 10.983 42.4664 11.1493 44.094 11.7857C45.7216 12.4221 47.1128 13.4999 48.0916 14.8828C49.0704 16.2657 49.5928 17.8916 49.5928 19.5548C49.5902 21.7839 48.6513 23.9209 46.9821 25.4973C45.3129 27.0736 43.0496 27.9607 40.6887 27.9638Z" fill="black"/>
<path d="M17.0802 36.1066C17.0133 36.1066 16.9492 36.0815 16.9019 36.0369C16.8547 35.9922 16.8281 35.9317 16.8281 35.8686V35.3927C16.8281 35.3296 16.8547 35.269 16.9019 35.2244C16.9492 35.1798 17.0133 35.1547 17.0802 35.1547C17.147 35.1547 17.2111 35.1798 17.2584 35.2244C17.3056 35.269 17.3322 35.3296 17.3322 35.3927V35.8686C17.3322 35.9317 17.3056 35.9922 17.2584 36.0369C17.2111 36.0815 17.147 36.1066 17.0802 36.1066Z" fill="#407BFF"/>
<path d="M13.1577 29.9577C12.9263 29.8173 12.7453 29.6141 12.6385 29.3748C12.6121 29.3167 12.5623 29.2709 12.5002 29.2475C12.438 29.2241 12.3686 29.2249 12.3071 29.2499C12.2456 29.2748 12.1971 29.3218 12.1723 29.3804C12.1475 29.4391 12.1484 29.5047 12.1748 29.5628C12.3228 29.8877 12.5692 30.1642 12.883 30.3575C12.9235 30.3822 12.9708 30.3954 13.0191 30.3956C13.0736 30.3959 13.1268 30.3796 13.1707 30.349C13.2146 30.3184 13.2468 30.2751 13.2624 30.2258C13.278 30.1764 13.2763 30.1236 13.2574 30.0753C13.2385 30.0269 13.2035 29.9857 13.1577 29.9577Z" fill="#407BFF"/>
<path d="M12.2794 26.9861C12.3462 26.9861 12.4103 26.961 12.4576 26.9164C12.5049 26.8718 12.5314 26.8112 12.5314 26.7481V25.8368C12.5314 25.7737 12.5049 25.7131 12.4576 25.6685C12.4103 25.6239 12.3462 25.5988 12.2794 25.5988C12.2125 25.5988 12.1484 25.6239 12.1012 25.6685C12.0539 25.7131 12.0273 25.7737 12.0273 25.8368V26.7481C12.0273 26.8112 12.0539 26.8718 12.1012 26.9164C12.1484 26.961 12.2125 26.9861 12.2794 26.9861Z" fill="#407BFF"/>
<path d="M14.8995 30.1672H13.9317C13.8649 30.1672 13.8008 30.1923 13.7535 30.2369C13.7062 30.2816 13.6797 30.3421 13.6797 30.4052C13.6797 30.4683 13.7062 30.5288 13.7535 30.5734C13.8008 30.6181 13.8649 30.6431 13.9317 30.6431H14.8995C14.9663 30.6431 15.0304 30.6181 15.0777 30.5734C15.125 30.5288 15.1515 30.4683 15.1515 30.4052C15.1515 30.3421 15.125 30.2816 15.0777 30.2369C15.0304 30.1923 14.9663 30.1672 14.8995 30.1672Z" fill="#407BFF"/>
<path d="M12.5314 28.5731V27.6618C12.5314 27.5987 12.5049 27.5381 12.4576 27.4935C12.4103 27.4489 12.3462 27.4238 12.2794 27.4238C12.2125 27.4238 12.1484 27.4489 12.1012 27.4935C12.0539 27.5381 12.0273 27.5987 12.0273 27.6618V28.5731C12.0273 28.6362 12.0539 28.6967 12.1012 28.7413C12.1484 28.786 12.2125 28.811 12.2794 28.811C12.3462 28.811 12.4103 28.786 12.4576 28.7413C12.5049 28.6967 12.5314 28.6362 12.5314 28.5731Z" fill="#407BFF"/>
<path d="M17.317 31.7141C17.3082 31.6516 17.2736 31.595 17.2206 31.5567C17.1677 31.5183 17.1009 31.5013 17.0347 31.5094C17.0019 31.5146 16.9705 31.5259 16.9423 31.5426C16.9141 31.5593 16.8897 31.5811 16.8704 31.6068C16.8512 31.6324 16.8376 31.6614 16.8303 31.6921C16.823 31.7228 16.8223 31.7545 16.828 31.7855C16.8361 31.8407 16.8403 31.8963 16.8406 31.952V32.6659C16.8406 32.729 16.8672 32.7895 16.9145 32.8342C16.9617 32.8788 17.0258 32.9039 17.0927 32.9039C17.1595 32.9039 17.2236 32.8788 17.2709 32.8342C17.3182 32.7895 17.3447 32.729 17.3447 32.6659V31.952C17.3409 31.8722 17.3317 31.7927 17.317 31.7141Z" fill="#407BFF"/>
<path d="M17.0802 33.3295C17.0133 33.3295 16.9492 33.3546 16.9019 33.3992C16.8547 33.4438 16.8281 33.5044 16.8281 33.5675V34.4811C16.8281 34.5442 16.8547 34.6047 16.9019 34.6494C16.9492 34.694 17.0133 34.7191 17.0802 34.7191C17.147 34.7191 17.2111 34.694 17.2584 34.6494C17.3056 34.6047 17.3322 34.5442 17.3322 34.4811V33.5675C17.3322 33.5044 17.3056 33.4438 17.2584 33.3992C17.2111 33.3546 17.147 33.3295 17.0802 33.3295Z" fill="#407BFF"/>
<path d="M16.8618 30.7693C16.6151 30.5033 16.2893 30.3135 15.9268 30.2245C15.8947 30.2166 15.8613 30.2149 15.8284 30.2193C15.7956 30.2236 15.764 30.2341 15.7355 30.25C15.7069 30.2659 15.682 30.287 15.662 30.312C15.6421 30.337 15.6276 30.3655 15.6193 30.3958C15.611 30.4261 15.6092 30.4576 15.6138 30.4886C15.6185 30.5196 15.6295 30.5494 15.6464 30.5764C15.6632 30.6033 15.6855 30.6269 15.712 30.6457C15.7385 30.6645 15.7687 30.6782 15.8008 30.6861C16.0656 30.7506 16.3037 30.8891 16.4838 31.0834C16.5074 31.1088 16.5365 31.1291 16.5691 31.1431C16.6016 31.157 16.637 31.1643 16.6728 31.1643C16.7212 31.1642 16.7686 31.151 16.8093 31.1262C16.85 31.1014 16.8822 31.066 16.9022 31.0243C16.9221 30.9827 16.9289 30.9365 16.9217 30.8912C16.9146 30.846 16.8938 30.8037 16.8618 30.7693Z" fill="#407BFF"/>
<path d="M12.2794 25.1515C12.2125 25.1515 12.1484 25.1264 12.1012 25.0818C12.0539 25.0372 12.0273 24.9766 12.0273 24.9135V24.4376C12.0273 24.3745 12.0539 24.314 12.1012 24.2693C12.1484 24.2247 12.2125 24.1996 12.2794 24.1996C12.3462 24.1996 12.4103 24.2247 12.4576 24.2693C12.5049 24.314 12.5314 24.3745 12.5314 24.4376V24.9135C12.5314 24.9766 12.5049 25.0372 12.4576 25.0818C12.4103 25.1264 12.3462 25.1515 12.2794 25.1515Z" fill="#407BFF"/>
</svg>
