<svg width="40" height="32" viewBox="0 0 40 32" fill="none" xmlns="http://www.w3.org/2000/svg">
<path d="M8.36181 19.7586V11.2021C8.33424 9.54354 9.48304 7.88063 11.8128 6.61941C16.408 4.11856 23.8798 4.11856 28.4842 6.61941C30.814 7.88063 31.9628 9.54354 31.9352 11.2021V19.7283C31.9352 21.3783 30.8048 24.3283 28.4842 25.5852C23.889 28.0861 16.4172 28.0861 11.8128 25.5852C9.51521 24.3413 8.36641 21.4128 8.36181 19.7758V19.7586Z" fill="#EBEBEB"/>
<path d="M20.1487 0.585449L39.6002 11.1417L20.1487 21.6979L0.697266 11.1417L20.1487 0.585449Z" fill="#F5F5F5"/>
<path d="M10.416 16.4157L19.997 11.2758C20.0365 11.2545 20.0801 11.2407 20.1253 11.2353C20.1705 11.2299 20.2163 11.2329 20.2603 11.2441C20.3043 11.2553 20.3454 11.2746 20.3814 11.3008C20.4175 11.3269 20.4477 11.3595 20.4703 11.3967C20.4929 11.4338 20.5076 11.4748 20.5133 11.5173C20.5191 11.5598 20.5159 11.6029 20.504 11.6442C20.492 11.6855 20.4716 11.7242 20.4437 11.7581C20.4158 11.7919 20.3812 11.8203 20.3416 11.8416L11.1007 16.7871L10.416 16.4157Z" fill="#E0E0E0"/>
<path d="M39.598 11.1417V11.8976L20.1465 22.4495V21.698L39.598 11.1417Z" fill="#E6E6E6"/>
<path d="M0.697266 11.1417V11.8976L20.1488 22.4495V21.698L0.697266 11.1417Z" fill="#F0F0F0"/>
<path d="M9.93164 16.9076L10.5244 17.2273C10.614 17.0897 10.7388 16.9754 10.8874 16.8947L11.0942 16.7824L10.4187 16.4196C10.2192 16.5455 10.0527 16.7124 9.93164 16.9076Z" fill="#E0E0E0"/>
<path d="M31.9602 16.0442L20.1506 23.5813L8.37305 16.0615L20.1506 22.4496L31.9602 16.0442Z" fill="#E0E0E0"/>
<path d="M9.17421 25.7968C9.33903 25.8767 9.5218 25.9184 9.70726 25.9184C9.89272 25.9184 10.0755 25.8767 10.2403 25.7968L11.118 31.1224C11.118 32.1288 8.33789 32.1288 8.33789 31.1224L9.17421 25.7968Z" fill="#407BFF"/>
<path d="M9.12521 28.8378L8.95059 31.7576C8.89327 31.7413 8.83785 31.7195 8.78516 31.6928L9.12521 28.8378Z" fill="#EBEBEB"/>
<path d="M10.4379 31.779L10.0703 27.0278L10.6171 31.7099C10.5589 31.7362 10.4991 31.7593 10.4379 31.779Z" fill="#407BFF"/>
<path d="M9.81326 31.8742H9.63867L9.73056 28.1035L9.81326 31.8742Z" fill="#407BFF"/>
<path d="M9.7019 26.2418C9.90559 26.237 10.1028 26.1737 10.2671 26.0604C10.3369 26.0119 10.3844 25.9401 10.3998 25.8598C10.4152 25.7795 10.3973 25.6967 10.3498 25.6284C10.2997 25.5612 10.2236 25.515 10.1378 25.4997C10.052 25.4844 9.96318 25.5011 9.8903 25.5464C9.84658 25.5862 9.78807 25.6085 9.72717 25.6085C9.66627 25.6085 9.60777 25.5862 9.56404 25.5464C9.52831 25.5164 9.48633 25.4939 9.4408 25.48C9.39527 25.4662 9.34717 25.4615 9.29957 25.4661C9.25197 25.4707 9.20592 25.4845 9.16434 25.5068C9.12276 25.529 9.08656 25.5592 9.05806 25.5953C9.02955 25.6314 9.00936 25.6728 8.99878 25.7166C8.98819 25.7605 8.98743 25.8059 8.99656 25.8501C9.00569 25.8942 9.02449 25.9361 9.05179 25.9731C9.07908 26.01 9.11425 26.0412 9.15508 26.0647C9.31323 26.1759 9.50443 26.2378 9.7019 26.2418Z" fill="#E0E0E0"/>
<path d="M9.72493 25.4122C9.76997 25.4128 9.81468 25.4049 9.85647 25.3891C9.89825 25.3733 9.93629 25.3499 9.96835 25.3201C10.0004 25.2904 10.0259 25.255 10.0432 25.2159C10.0606 25.1769 10.0696 25.1349 10.0696 25.0926V17.5425C10.07 17.3728 10.1178 17.2061 10.2081 17.0591C10.2984 16.9121 10.4281 16.7899 10.5842 16.7046L20.3399 11.4783C20.4173 11.4366 20.4743 11.3679 20.4983 11.2871C20.5224 11.2063 20.5117 11.1198 20.4685 11.0464C20.447 11.0099 20.418 10.9778 20.3831 10.9519C20.3483 10.9261 20.3084 10.907 20.2656 10.8957C20.2229 10.8845 20.1782 10.8813 20.1341 10.8864C20.0901 10.8915 20.0476 10.9048 20.009 10.9254L10.2304 16.1604C9.96974 16.3018 9.75317 16.5052 9.60237 16.75C9.45157 16.9948 9.37181 17.2726 9.37109 17.5555V25.1056C9.37287 25.1475 9.38343 25.1888 9.40218 25.2269C9.42093 25.2651 9.4475 25.2994 9.48036 25.3278C9.51322 25.3563 9.55174 25.3784 9.59371 25.3929C9.63567 25.4074 9.68026 25.414 9.72493 25.4122Z" fill="#407BFF"/>
<path d="M10.4779 25.0928C10.4788 24.9525 10.4354 24.8151 10.3532 24.6981C10.2709 24.581 10.1535 24.4896 10.0159 24.4353C9.87828 24.381 9.72661 24.3664 9.58012 24.3932C9.43363 24.4201 9.29892 24.4872 9.19306 24.5861C9.08721 24.685 9.01498 24.8112 8.98552 24.9487C8.95607 25.0862 8.97072 25.2289 9.02763 25.3585C9.08453 25.4882 9.18111 25.5991 9.30514 25.6771C9.42917 25.7552 9.57506 25.7968 9.72431 25.7968C9.82305 25.7974 9.92095 25.7796 10.0124 25.7445C10.1038 25.7094 10.1869 25.6576 10.2569 25.5922C10.327 25.5267 10.3825 25.4489 10.4205 25.3632C10.4584 25.2775 10.4779 25.1856 10.4779 25.0928Z" fill="#F5F5F5"/>
<path d="M8.98058 25.1317C9.01198 25.2047 9.05975 25.2706 9.12066 25.3248C9.18156 25.3789 9.25417 25.4201 9.33353 25.4455C9.41289 25.4709 9.49715 25.48 9.58056 25.472C9.66397 25.4641 9.74458 25.4393 9.81691 25.3995C9.9092 25.3472 9.98555 25.2734 10.0386 25.1852C10.0916 25.0971 10.1194 24.9975 10.1194 24.8963C10.1194 24.795 10.0916 24.6954 10.0386 24.6073C9.98555 24.5191 9.9092 24.4453 9.81691 24.3931C9.95748 24.4113 10.0897 24.4667 10.198 24.5528C10.3064 24.6389 10.3865 24.7522 10.4291 24.8794C10.4716 25.0067 10.4748 25.1427 10.4384 25.2716C10.4019 25.4005 10.3272 25.517 10.2229 25.6075C10.1187 25.6981 9.9893 25.7589 9.84973 25.783C9.71015 25.8071 9.56617 25.7934 9.43455 25.7435C9.30293 25.6936 9.18908 25.6097 9.10627 25.5013C9.02346 25.393 8.97509 25.2648 8.9668 25.1317H8.98058Z" fill="#407BFF"/>
</svg>
