<svg width="28" height="29" viewBox="0 0 28 29" fill="none" xmlns="http://www.w3.org/2000/svg">
<g filter="url(#filter0_d_14_16863)">
<ellipse cx="13.5477" cy="14.0073" rx="11.5477" ry="12.0073" fill="#F2F3FF"/>
</g>
<path d="M18.5346 13.1232H8.48133C8.07249 13.1232 7.75977 13.4941 7.75977 13.9789C7.75977 14.4637 8.07248 14.8345 8.48133 14.8345H18.5586C18.9675 14.8345 19.2802 14.4637 19.2802 13.9789C19.28 13.4941 18.9433 13.1232 18.5345 13.1232H18.5346Z" fill="#333333"/>
<path d="M14.2324 19.2072L14.2324 8.75394C14.2324 8.32883 13.8758 8.00366 13.4095 8.00366C12.9433 8.00366 12.5866 8.32882 12.5866 8.75394L12.5866 19.2322C12.5866 19.6573 12.9433 19.9825 13.4095 19.9825C13.8758 19.9823 14.2324 19.6322 14.2324 19.2071L14.2324 19.2072Z" fill="#333333"/>
<defs>
<filter id="filter0_d_14_16863" x="0" y="0.1" width="27.0957" height="28.0145" filterUnits="userSpaceOnUse" color-interpolation-filters="sRGB">
<feFlood flood-opacity="0" result="BackgroundImageFix"/>
<feColorMatrix in="SourceAlpha" type="matrix" values="0 0 0 0 0 0 0 0 0 0 0 0 0 0 0 0 0 0 127 0" result="hardAlpha"/>
<feOffset dy="0.1"/>
<feGaussianBlur stdDeviation="1"/>
<feComposite in2="hardAlpha" operator="out"/>
<feColorMatrix type="matrix" values="0 0 0 0 0 0 0 0 0 0 0 0 0 0 0 0 0 0 0.25 0"/>
<feBlend mode="normal" in2="BackgroundImageFix" result="effect1_dropShadow_14_16863"/>
<feBlend mode="normal" in="SourceGraphic" in2="effect1_dropShadow_14_16863" result="shape"/>
</filter>
</defs>
</svg>
