<svg width="36" height="30" viewBox="0 0 36 30" fill="none" xmlns="http://www.w3.org/2000/svg">
<path d="M18.2105 14.6342C18.2146 16.6661 19.1329 18.6136 20.764 20.0505C22.3949 21.4872 24.6058 22.2961 26.9124 22.2997C27.7153 22.3021 28.5146 22.2037 29.2858 22.007V25.784C29.2858 26.7081 28.8692 27.5944 28.1273 28.2478C27.3856 28.9013 26.3794 29.2683 25.3304 29.2683H4.76208C3.71304 29.2683 2.7068 28.9013 1.96516 28.2478C1.22323 27.5944 0.806641 26.7081 0.806641 25.784V3.48432C0.806641 2.56023 1.22326 1.67384 1.96516 1.02053C2.7068 0.366974 3.71304 0 4.76208 0H25.3304C26.3794 0 27.3856 0.366998 28.1273 1.02053C28.8692 1.67384 29.2858 2.56023 29.2858 3.48432V7.26126C28.5146 7.06463 27.7153 6.9662 26.9124 6.96864C24.6058 6.97228 22.3949 7.78117 20.764 9.21776C19.1328 10.6547 18.2146 12.6024 18.2105 14.6342ZM7.13527 17.4217C7.13527 17.6065 7.2186 17.7839 7.36703 17.9144C7.51547 18.0452 7.7166 18.1185 7.92657 18.1185H15.8375C16.2742 18.1185 16.6285 17.8065 16.6285 17.4217C16.6285 17.0368 16.2742 16.7249 15.8375 16.7249H7.92657C7.48953 16.7249 7.13527 17.0368 7.13527 17.4217ZM7.92657 12.5436H14.2554C14.6924 12.5436 15.0462 12.2317 15.0462 11.8468C15.0462 11.462 14.6922 11.15 14.2551 11.15H7.92629C7.48925 11.15 7.13527 11.462 7.13527 11.8468C7.13527 12.2317 7.48954 12.5436 7.92657 12.5436ZM7.92657 22.2997C7.48953 22.2997 7.13527 22.6117 7.13527 22.9965C7.13527 23.3814 7.48954 23.6935 7.92657 23.6935H22.1661C22.6032 23.6935 22.9569 23.3814 22.9569 22.9965C22.9569 22.6117 22.6029 22.2997 22.1659 22.2997H7.92657ZM22.1661 6.96865C22.6032 6.96865 22.9569 6.65658 22.9569 6.27185C22.9569 5.88686 22.6029 5.5748 22.1659 5.5748H7.92629C7.48925 5.5748 7.13527 5.88687 7.13527 6.27185C7.13527 6.65659 7.48954 6.96865 7.92657 6.96865H22.1661Z" fill="#4141F9"/>
<path d="M34.5608 10.2019L34.909 9.86751C35.2062 9.58267 35.1849 9.13984 34.8616 8.87808C34.5382 8.61632 34.0349 8.63528 33.7378 8.92013L33.5797 9.07349L31.4281 11.136L29.5771 12.9199L27.457 14.9686L25.7322 12.3903C25.5063 12.059 25.0215 11.9477 24.6408 12.1392C24.2705 12.3431 24.1513 12.7692 24.3717 13.101L26.6342 16.4599C26.7614 16.6526 26.984 16.7817 27.2354 16.8084H27.3146C27.5359 16.8062 27.7467 16.726 27.9001 16.5853L29.577 14.9686L32.2983 12.3762L33.4533 11.2611L34.5608 10.2019Z" fill="#FF991F"/>
<path d="M28.4853 17.0731L33.8172 11.9582C34.1549 12.6932 34.3269 13.4791 34.3236 14.272C34.3206 15.5679 33.8628 16.8312 33.013 17.889C32.1635 18.9467 30.9633 19.7476 29.5771 20.1814C28.8161 20.4233 28.0129 20.546 27.2037 20.5438C24.6601 20.5438 22.3096 19.3483 21.038 17.4078C19.766 15.4671 19.766 13.0765 21.038 11.136C22.3096 9.19556 24.6601 8 27.2037 8C28.0138 8.00243 28.817 8.12979 29.5771 8.37624C30.4539 8.65306 31.2605 9.07961 31.9505 9.63084L27.5994 13.812L26.4127 12.0698C26.2284 11.7104 25.8799 11.4367 25.4533 11.3164C25.0271 11.1961 24.5627 11.2406 24.1756 11.4389C23.7888 11.637 23.5151 11.9704 23.4229 12.3564C23.3305 12.7423 23.4282 13.1446 23.6914 13.4635L25.9538 16.8223C26.2013 17.2073 26.642 17.4659 27.1405 17.5191H27.3146C27.7564 17.5121 28.1771 17.3519 28.4853 17.0731Z" fill="#FF991F"/>
</svg>
