<svg width="35" height="25" viewBox="0 0 35 25" fill="none" xmlns="http://www.w3.org/2000/svg">
<path d="M15.2081 8.90552C15.3214 8.96804 15.4561 8.99917 15.5837 8.99917C15.6899 8.99917 15.8035 8.97405 15.9026 8.93037L20.1552 7.05535C20.3964 6.95542 20.545 6.73674 20.545 6.49922C20.545 6.2617 20.3961 6.04302 20.1552 5.94284L15.9026 4.06781C15.6827 3.96788 15.4205 3.98018 15.2078 4.09292C15.0026 4.2054 14.875 4.40525 14.875 4.6242V8.37425C14.875 8.59293 15.0026 8.79304 15.2081 8.90552Z" fill="#FF991F"/>
<path d="M29.8996 0H4.38382C2.81756 0 1.54883 1.11879 1.54883 2.49994V18.1249H32.7351V2.49994C32.7348 1.11879 31.4659 0 29.8996 0ZM17.1417 1.25011C20.6572 1.25011 23.5207 3.77516 23.5207 6.87518C23.5207 9.9752 20.6572 12.5003 17.1417 12.5003C13.6262 12.5003 10.7628 9.9752 10.7628 6.87518C10.7628 3.77516 13.6262 1.25011 17.1417 1.25011ZM28.4818 15.6249H9.34497V16.2498C9.34497 16.5935 9.02608 16.8747 8.6363 16.8747C8.24651 16.8747 7.92763 16.5935 7.92763 16.2498V15.6249H5.80131C5.41153 15.6249 5.09264 15.3437 5.09264 14.9999C5.09264 14.6562 5.41153 14.375 5.80131 14.375H7.92763V13.7501C7.92763 13.4064 8.24651 13.1252 8.6363 13.1252C9.02608 13.1252 9.34497 13.4064 9.34497 13.7501V14.375H28.4818C28.8716 14.375 29.1905 14.6562 29.1905 14.9999C29.1908 15.3437 28.8716 15.6249 28.4818 15.6249Z" fill="#4141F9"/>
<path d="M28.4818 15.6249H9.34497V16.2498C9.34497 16.5935 9.02608 16.8747 8.6363 16.8747C8.24651 16.8747 7.92763 16.5935 7.92763 16.2498V15.6249H5.80131C5.41153 15.6249 5.09264 15.3437 5.09264 14.9999C5.09264 14.6562 5.41153 14.375 5.80131 14.375H7.92763V13.7501C7.92763 13.4064 8.24651 13.1252 8.6363 13.1252C9.02608 13.1252 9.34497 13.4064 9.34497 13.7501V14.375H28.4818C28.8716 14.375 29.1905 14.6562 29.1905 14.9999C29.1908 15.3437 28.8716 15.6249 28.4818 15.6249Z" fill="#FF991F"/>
<path d="M33.4455 19.375H0.841484C0.451699 19.375 0.132812 19.6562 0.132812 19.9999C0.132812 22.4125 2.35853 24.3749 5.09412 24.3749H29.1921C31.928 24.3749 34.1534 22.4122 34.1534 19.9999C34.1537 19.6565 33.8353 19.375 33.4455 19.375Z" fill="#4141F9"/>
</svg>
