<svg width="34" height="33" viewBox="0 0 34 33" fill="none" xmlns="http://www.w3.org/2000/svg">
<g opacity="0.5">
<path opacity="0.5" d="M25.5873 24.5166C29.7076 20.2444 29.0993 13.12 24.2286 8.60384C19.3579 4.08764 12.0692 3.88982 7.94882 8.162C3.82848 12.4342 4.43678 19.5586 9.3075 24.0748C14.1782 28.591 21.4669 28.7888 25.5873 24.5166Z" fill="#407BFF"/>
<path opacity="0.5" d="M23.8242 22.8838C27.1203 19.4662 26.6337 13.767 22.7373 10.1542C18.8409 6.54146 13.0103 6.3832 9.71419 9.80075C6.4181 13.2183 6.90474 18.9175 10.8011 22.5303C14.6975 26.1431 20.5282 26.3013 23.8242 22.8838Z" fill="white"/>
<path opacity="0.5" d="M22.0564 21.2584C24.5287 18.6959 24.1645 14.4218 21.2429 11.712C18.3214 9.0021 13.9488 8.88265 11.4765 11.4451C9.00419 14.0076 9.36839 18.2817 12.29 20.9916C15.2115 23.7014 19.5841 23.8209 22.0564 21.2584Z" fill="#407BFF"/>
<path opacity="0.5" d="M20.2956 19.6138C21.9441 17.9046 21.7008 15.0542 19.7521 13.2473C17.8034 11.4405 14.8873 11.3614 13.2388 13.0706C11.5903 14.7799 11.8336 17.6303 13.7823 19.4371C15.731 21.244 18.6471 21.3231 20.2956 19.6138Z" fill="white"/>
<path opacity="0.5" d="M18.5323 17.9852C19.3567 17.1308 19.2352 15.7056 18.2611 14.802C17.2869 13.8984 15.8288 13.8586 15.0044 14.7131C14.18 15.5676 14.3014 16.9928 15.2756 17.8963C16.2498 18.7999 17.7078 18.8397 18.5323 17.9852Z" fill="#407BFF"/>
</g>
</svg>
