<svg width="43" height="57" viewBox="0 0 43 57" fill="none" xmlns="http://www.w3.org/2000/svg">
<path d="M3.93172 55.428L38.7586 36.5293C41.4448 30.7465 43.5913 22.0804 41.2349 17.4695C40.5409 16.1084 39.5683 15.5889 38.7115 14.5057C37.5461 13.0197 37.9103 9.46789 37.8289 6.97518C37.6533 -1.3164 32.6878 -1.20767 27.6538 2.54549C24.5091 4.63952 21.8828 5.27982 19.1795 4.3818C17.2001 3.71735 15.1822 3.33881 12.8216 4.7845C11.0008 5.88789 9.98112 6.91075 8.23742 9.67327C7.42196 11.0247 6.81058 12.4763 6.42089 13.9862C4.81857 20.0267 5.99246 25.4188 4.46726 31.4633C3.6104 34.5359 1.82386 37.1817 1.03984 40.3227C-0.83239 46.2464 1.11695 53.5151 3.93172 55.428Z" fill="#407BFF"/>
<path opacity="0.8" d="M3.93172 55.428L38.7586 36.5293C41.4448 30.7465 43.5913 22.0804 41.2349 17.4695C40.5409 16.1084 39.5683 15.5889 38.7115 14.5057C37.5461 13.0197 37.9103 9.46789 37.8289 6.97518C37.6533 -1.3164 32.6878 -1.20767 27.6538 2.54549C24.5091 4.63952 21.8828 5.27982 19.1795 4.3818C17.2001 3.71735 15.1822 3.33881 12.8216 4.7845C11.0008 5.88789 9.98112 6.91075 8.23742 9.67327C7.42196 11.0247 6.81058 12.4763 6.42089 13.9862C4.81857 20.0267 5.99246 25.4188 4.46726 31.4633C3.6104 34.5359 1.82386 37.1817 1.03984 40.3227C-0.83239 46.2464 1.11695 53.5151 3.93172 55.428Z" fill="white"/>
<path d="M40.1816 36.1225L2.16725 56.7568C2.09871 56.7931 2.04301 56.7568 2.04301 56.6441C2.04218 56.5975 2.05298 56.5514 2.07456 56.5094C2.09613 56.4674 2.12789 56.4308 2.16725 56.4025L40.1859 35.7682C40.2544 35.7319 40.3101 35.7682 40.3101 35.8809C40.3105 35.9279 40.299 35.9742 40.2766 36.0162C40.2543 36.0582 40.2217 36.0946 40.1816 36.1225Z" fill="#455A64"/>
<path d="M14.9045 24.549L15.9627 23.9731L15.8984 22.8859L14.8359 23.4617L14.9045 24.549Z" fill="#F5F5F5"/>
<path d="M14.6076 37.4877L15.1903 37.1696L15.1217 36.0863L14.5391 36.4004L14.6076 37.4877Z" fill="#F5F5F5"/>
<path d="M17.6545 35.8327L18.2414 35.5186L18.1729 34.4313L17.5859 34.7494L17.6545 35.8327Z" fill="#F5F5F5"/>
<path d="M17.4665 22.1005L13.1608 24.4201C12.8909 24.5691 12.651 24.3798 12.6253 24.0174L12.4368 20.9891C12.4225 20.8075 12.4561 20.6254 12.5346 20.4589C12.613 20.2925 12.734 20.1467 12.8866 20.0347L17.1709 17.699C17.4451 17.5541 17.6808 17.7393 17.7065 18.1219L17.895 21.1502C17.9125 21.3295 17.8826 21.5101 17.8078 21.676C17.7331 21.8418 17.6158 21.9876 17.4665 22.1005Z" fill="#455A64"/>
<path d="M12.933 20.0106L12.7573 20.1032C12.6083 20.2172 12.4913 20.3638 12.4166 20.5302C12.3419 20.6967 12.3118 20.8777 12.3289 21.0576L12.5174 24.0859C12.5431 24.4645 12.7788 24.6537 13.0529 24.4886L13.2286 24.396C13.3777 24.282 13.4947 24.1354 13.5694 23.969C13.6441 23.8026 13.6742 23.6215 13.657 23.4416L13.4685 20.4133C13.4428 20.0509 13.2072 19.8616 12.933 20.0106Z" fill="#37474F"/>
<path d="M19.1836 33.8835L13.1042 37.1816C12.8343 37.3266 12.5944 37.1373 12.5687 36.7588L11.9518 26.8605C11.935 26.6806 11.9653 26.4996 12.0399 26.3333C12.1146 26.1669 12.2314 26.0203 12.3802 25.9061L18.4553 22.608C18.7295 22.463 18.9651 22.6482 18.9908 23.0308L19.6078 32.9291C19.6254 33.1087 19.596 33.2896 19.522 33.4559C19.4481 33.6223 19.3319 33.7691 19.1836 33.8835Z" fill="#455A64"/>
<path d="M13.2799 37.085L13.1042 37.1817C12.8343 37.3266 12.5944 37.1374 12.5687 36.7588L11.9518 26.8605C11.935 26.6806 11.9653 26.4997 12.0399 26.3333C12.1146 26.167 12.2314 26.0203 12.3802 25.9061L12.5558 25.8135C12.8258 25.6645 13.0657 25.8537 13.0871 26.2162L13.734 36.1306C13.7467 36.3124 13.7119 36.4944 13.6328 36.6607C13.5536 36.827 13.4325 36.9727 13.2799 37.085Z" fill="#37474F"/>
<path d="M22.4568 33.1829L13.5669 38.0152C13.4153 38.1188 13.2917 38.2544 13.2061 38.4111C13.1206 38.5678 13.0754 38.7412 13.0742 38.9173V39.5334C13.0742 39.8838 13.297 40.0489 13.5669 39.9039L22.4568 35.0715C22.6071 34.9671 22.7295 34.8313 22.8142 34.6747C22.899 34.5181 22.9438 34.3451 22.9452 34.1695V33.5533C22.9452 33.199 22.7309 33.0339 22.4568 33.1829Z" fill="#37474F"/>
<path d="M15.9072 39.5052L20.1144 37.2219C20.3078 37.0781 20.4634 36.8943 20.5689 36.6848C20.6745 36.4752 20.7271 36.2456 20.7227 36.0138L15.2988 38.9575C15.2988 39.4408 15.573 39.6864 15.9072 39.5052Z" fill="#263238"/>
<path d="M18.4473 38.8206L17.5904 39.2716C17.3291 39.4126 17.1191 39.2233 17.1191 38.8448L18.8971 37.8783C18.9034 38.0572 18.8661 38.2351 18.7882 38.3984C18.7102 38.5617 18.5936 38.7061 18.4473 38.8206Z" fill="#263238"/>
<path d="M18.4602 41.9295L17.5605 42.4168V39.2918L18.4602 38.8005V41.9295Z" fill="#F5F5F5"/>
<path d="M18.5035 43.9269L17.5224 44.4585C17.4068 44.5189 17.3125 44.4585 17.3125 44.3135V42.9443C17.3153 42.829 17.3466 42.7159 17.4038 42.6138C17.4611 42.5118 17.5427 42.4237 17.6424 42.3564L18.3836 41.9537C18.5635 41.857 18.7092 41.9537 18.7092 42.1872V43.5403C18.7106 43.6156 18.6926 43.69 18.6568 43.7573C18.621 43.8246 18.5684 43.8828 18.5035 43.9269Z" fill="#37474F"/>
<path d="M21.9302 44.4101C21.8317 44.4665 21.7503 44.39 21.7503 44.249C21.7503 43.9913 21.6346 43.8222 21.4675 43.8463L18.5285 43.6812C18.4343 43.6812 18.3829 43.5685 18.4128 43.4154C18.4428 43.2624 18.5499 43.1335 18.6399 43.1255L21.5832 43.2906C21.896 43.2704 22.1102 43.5805 22.1102 44.0638C22.1096 44.1305 22.0931 44.1962 22.0619 44.2561C22.0308 44.316 21.9858 44.3687 21.9302 44.4101Z" fill="#37474F"/>
<path d="M18.0194 47.2492C17.9252 47.3015 17.8438 47.229 17.8438 47.0881V43.5403C17.8435 43.4727 17.8591 43.4059 17.8894 43.3447C17.9198 43.2834 17.9642 43.2292 18.0194 43.186C18.1179 43.1336 18.1951 43.1859 18.1951 43.347V46.8988C18.1969 46.9661 18.182 47.0328 18.1515 47.0936C18.121 47.1544 18.0757 47.2077 18.0194 47.2492Z" fill="#37474F"/>
<path d="M21.9303 44.0597C21.7527 44.1922 21.6101 44.3615 21.5135 44.5542C21.4169 44.747 21.369 44.9581 21.3733 45.1712C21.3733 45.6141 21.6218 45.8397 21.9303 45.6746C22.1078 45.542 22.2504 45.3728 22.347 45.18C22.4436 44.9873 22.4916 44.7761 22.4872 44.5631C22.4872 44.1201 22.2387 43.8946 21.9303 44.0597Z" fill="#263238"/>
<path d="M18.0181 46.19C17.8409 46.3219 17.6985 46.4904 17.6019 46.6825C17.5053 46.8746 17.4571 47.085 17.4612 47.2974C17.4612 47.7404 17.7139 47.9659 18.0181 47.8008C18.1951 47.6687 18.3373 47.5001 18.4339 47.3081C18.5305 47.1161 18.5788 46.9057 18.5751 46.6934C18.5665 46.2464 18.318 46.0209 18.0181 46.19Z" fill="#263238"/>
<path d="M14.0686 48.6747C13.9701 48.731 13.8887 48.6746 13.8887 48.5136C13.8936 48.0195 14.0815 47.5425 14.4199 47.1645L17.3589 43.81C17.4532 43.7134 17.556 43.7335 17.586 43.8503C17.5993 43.9213 17.5959 43.9942 17.5759 44.0638C17.5559 44.1334 17.5199 44.198 17.4703 44.253L14.5313 47.6035C14.3518 47.8061 14.2519 48.0606 14.2485 48.3243C14.2486 48.3917 14.2324 48.4582 14.2013 48.5188C14.1701 48.5795 14.1248 48.6328 14.0686 48.6747Z" fill="#37474F"/>
<path d="M14.0688 48.3284C13.8921 48.4607 13.7501 48.6293 13.6535 48.8213C13.557 49.0132 13.5085 49.2235 13.5119 49.4358C13.5119 49.8788 13.7647 50.1043 14.0688 49.9392C14.2463 49.8075 14.3889 49.639 14.4855 49.4469C14.5821 49.2547 14.6301 49.0442 14.6258 48.8317C14.6258 48.3847 14.3773 48.1794 14.0688 48.3284Z" fill="#263238"/>
<path d="M8.71289 34.9427L35.2154 20.5623V19.5314L8.71289 33.9118V34.9427Z" fill="#407BFF"/>
<path opacity="0.15" d="M14.4581 31.8258L8.71289 34.9427V33.9118L14.4581 30.7949V31.8258Z" fill="black"/>
<path d="M10.7358 51.7433L11.267 51.4574L11.4555 33.4486L10.543 33.944L10.7358 51.7433ZM28.7768 41.9536L29.3081 41.6677L29.4966 23.659L28.584 24.1543L28.7768 41.9536ZM33.5966 21.416L33.7894 39.2153L34.3207 38.9253L34.5092 20.9207L33.5966 21.416Z" fill="#407BFF"/>
<path opacity="0.15" d="M10.7358 51.7433L11.267 51.4574L11.4555 33.4486L10.543 33.944L10.7358 51.7433ZM28.7768 41.9536L29.3081 41.6677L29.4966 23.659L28.584 24.1543L28.7768 41.9536ZM33.5966 21.416L33.7894 39.2153L34.3207 38.9253L34.5092 20.9207L33.5966 21.416Z" fill="black"/>
<path opacity="0.15" d="M10.5648 35.1279L11.4516 34.6446V33.4365L10.5391 33.9319L10.5648 35.1279ZM28.6058 25.3383L29.4927 24.855V23.6469L28.5801 24.1422L28.6058 25.3383ZM33.6056 21.4361V22.616L34.4924 22.1368V20.9287L33.6056 21.4361Z" fill="black"/>
<path d="M23.6819 24.3879C23.6906 24.3017 23.6647 24.2155 23.6091 24.1463C23.5191 24.0658 23.3691 24.1222 23.2106 24.2067C23.2106 24.1463 23.2106 24.0859 23.2106 24.0255L20.8457 25.3101C20.8457 26.4216 21.0299 27.227 22.0282 26.6833C22.4424 26.4641 22.7633 26.1169 22.9364 25.7007C23.1716 25.5619 23.3641 25.3678 23.4949 25.1375C23.6256 24.9072 23.6901 24.6488 23.6819 24.3879ZM23.0564 25.3826C23.1411 25.0799 23.19 24.7692 23.2021 24.4564C23.3263 24.392 23.442 24.3396 23.4891 24.3839C23.5362 24.4282 23.5148 24.4161 23.5148 24.4806C23.5226 24.6547 23.4848 24.8279 23.4049 24.9852C23.325 25.1424 23.2054 25.2789 23.0564 25.3826Z" fill="#407BFF"/>
<path opacity="0.5" d="M23.6819 24.3879C23.6906 24.3017 23.6647 24.2155 23.6091 24.1463C23.5191 24.0658 23.3691 24.1222 23.2106 24.2067C23.2106 24.1463 23.2106 24.0859 23.2106 24.0255L20.8457 25.3101C20.8457 26.4216 21.0299 27.227 22.0282 26.6833C22.4424 26.4641 22.7633 26.1169 22.9364 25.7007C23.1716 25.5619 23.3641 25.3678 23.4949 25.1375C23.6256 24.9072 23.6901 24.6488 23.6819 24.3879ZM23.0564 25.3826C23.1411 25.0799 23.19 24.7692 23.2021 24.4564C23.3263 24.392 23.442 24.3396 23.4891 24.3839C23.5362 24.4282 23.5148 24.4161 23.5148 24.4806C23.5226 24.6547 23.4848 24.8279 23.4049 24.9852C23.325 25.1424 23.2054 25.2789 23.0564 25.3826Z" fill="white"/>
<path d="M21.4458 24.992C21.4458 24.992 21.223 24.8591 21.2959 24.2873C21.3687 23.7154 21.7757 23.1396 21.7243 22.5758C21.6729 22.012 21.3944 21.7946 21.493 21.0496C21.6085 20.4534 21.8028 19.873 22.0713 19.322L23.5066 18.5448C23.209 19.1718 22.9877 19.8283 22.8468 20.5019C22.8468 21.0456 23.1039 21.4281 23.0482 22.0443C22.9925 22.6604 22.3841 23.3128 22.3841 23.9007C22.3776 23.987 22.3907 24.0736 22.4225 24.1548C22.4542 24.2361 22.5039 24.31 22.5683 24.3719L21.4458 24.992Z" fill="white"/>
<path d="M7.20941 47.6881C7.74837 47.1943 8.08252 46.5362 8.15195 45.8317C8.33618 44.5551 8.91027 44.4625 9.14162 43.347C9.37297 42.2316 8.8203 42.0222 9.04737 41.2852C9.27443 40.5483 9.0945 39.8113 8.58895 40.3026C8.08341 40.7939 8.19051 41.5309 7.53073 42.1107C6.87096 42.6906 6.67388 43.9269 6.75099 44.8894C6.82811 45.9203 5.81702 46.9029 6.15548 48.26L7.20941 47.6881Z" fill="#407BFF"/>
<path opacity="0.2" d="M7.20941 47.6881C7.74837 47.1943 8.08252 46.5362 8.15195 45.8317C8.33618 44.5551 8.91027 44.4625 9.14162 43.347C9.37297 42.2316 8.8203 42.0222 9.04737 41.2852C9.27443 40.5483 9.0945 39.8113 8.58895 40.3026C8.08341 40.7939 8.19051 41.5309 7.53073 42.1107C6.87096 42.6906 6.67388 43.9269 6.75099 44.8894C6.82811 45.9203 5.81702 46.9029 6.15548 48.26L7.20941 47.6881Z" fill="white"/>
<path d="M7.20905 47.6881C7.74801 47.1942 8.08217 46.5361 8.1516 45.8316C8.33582 44.5551 8.90992 44.4624 9.14127 43.347C9.37262 42.2315 8.81995 42.0221 9.04701 41.2851C9.21839 40.7375 9.16269 40.1938 8.9142 40.1495C8.35724 41.7603 7.15335 45.4128 6.96484 47.8209L7.20905 47.6881Z" fill="#407BFF"/>
<path opacity="0.1" d="M7.20905 47.6881C7.74801 47.1942 8.08217 46.5361 8.1516 45.8316C8.33582 44.5551 8.90992 44.4624 9.14127 43.347C9.37262 42.2315 8.81995 42.0221 9.04701 41.2851C9.21839 40.7375 9.16269 40.1938 8.9142 40.1495C8.35724 41.7603 7.15335 45.4128 6.96484 47.8209L7.20905 47.6881Z" fill="white"/>
<path d="M4.96466 48.9043C4.96466 48.9043 4.20634 49.1499 4.02212 48.0747C3.8379 46.9995 3.2638 47.5271 3.03245 46.6613C2.8011 45.7954 3.35377 44.99 3.12671 44.4987C2.89964 44.0075 3.07958 43.0772 3.58512 43.0168C4.09067 42.9564 3.98356 43.8222 4.64334 43.6773C5.30312 43.5323 5.5002 44.5712 5.42308 45.6102C5.34596 46.7216 6.35705 46.617 6.01859 48.3365L4.96466 48.9043Z" fill="#407BFF"/>
<path opacity="0.2" d="M4.96466 48.9043C4.96466 48.9043 4.20634 49.1499 4.02212 48.0747C3.8379 46.9995 3.2638 47.5271 3.03245 46.6613C2.8011 45.7954 3.35377 44.99 3.12671 44.4987C2.89964 44.0075 3.07958 43.0772 3.58512 43.0168C4.09067 42.9564 3.98356 43.8222 4.64334 43.6773C5.30312 43.5323 5.5002 44.5712 5.42308 45.6102C5.34596 46.7216 6.35705 46.617 6.01859 48.3365L4.96466 48.9043Z" fill="white"/>
<path d="M4.96466 48.9043C4.96466 48.9043 4.20634 49.1499 4.02212 48.0747C3.83789 46.9995 3.2638 47.527 3.03245 46.6612C2.8011 45.7954 3.35377 44.99 3.12671 44.4987C3.04345 44.2899 3.01214 44.0659 3.03516 43.844C3.05818 43.622 3.13492 43.4079 3.25952 43.2181C3.81647 44.2088 5.02035 46.5726 5.20886 48.7754L4.96466 48.9043Z" fill="#407BFF"/>
<path opacity="0.1" d="M4.96466 48.9043C4.96466 48.9043 4.20634 49.1499 4.02212 48.0747C3.83789 46.9995 3.2638 47.527 3.03245 46.6612C2.8011 45.7954 3.35377 44.99 3.12671 44.4987C3.04345 44.2899 3.01214 44.0659 3.03516 43.844C3.05818 43.622 3.13492 43.4079 3.25952 43.2181C3.81647 44.2088 5.02035 46.5726 5.20886 48.7754L4.96466 48.9043Z" fill="white"/>
<path d="M4.24805 49.2949L4.57794 54.1272C4.63364 54.6588 4.96781 54.8964 5.36197 54.683L6.94715 53.8252C7.17739 53.6569 7.36624 53.4438 7.50081 53.2005C7.63538 52.9573 7.7125 52.6896 7.72689 52.4158L8.06107 47.2451L4.24805 49.2949Z" fill="#407BFF"/>
<path opacity="0.5" d="M4.24805 49.2949L4.57794 54.1272C4.63364 54.6588 4.96781 54.8964 5.36197 54.683L6.94715 53.8252C7.17739 53.6569 7.36624 53.4438 7.50081 53.2005C7.63538 52.9573 7.7125 52.6896 7.72689 52.4158L8.06107 47.2451L4.24805 49.2949Z" fill="white"/>
<path d="M7.20933 44.1524C6.90943 43.4396 6.82374 43.4355 7.16649 42.5416C7.50923 41.6476 7.69775 40.5281 7.24361 40.0046C6.78947 39.481 7.27788 38.5871 7.04225 38.3253C7.02416 38.3055 7.00183 38.2896 6.97673 38.2785C6.95163 38.2674 6.92431 38.2614 6.89657 38.2609H6.87944H6.80661C6.45958 38.3253 6.18538 38.6636 5.94975 39.2555C5.70126 39.9079 5.77837 40.0609 5.52131 40.7254C5.26426 41.3898 4.75442 41.9657 4.87867 42.9885C4.92151 43.3188 5.10145 43.504 5.13144 43.8503C5.20856 44.8812 4.51022 45.4611 4.60447 47.0357C4.63446 47.5793 4.88724 48.4169 5.41421 48.6706L6.6995 47.978C6.96867 47.5279 7.18008 47.0494 7.32929 46.5524C7.60802 45.7662 7.56526 44.9106 7.20933 44.1524Z" fill="#407BFF"/>
<path opacity="0.15" d="M5.94192 39.2475C5.69343 39.8998 5.77055 40.0529 5.51349 40.7173C5.25644 41.3818 4.74661 41.9576 4.87085 42.9805C4.91369 43.3107 5.09363 43.496 5.12362 43.8423C5.20074 44.8732 4.50241 45.4531 4.59666 47.0276C4.62665 47.5713 4.87942 48.4089 5.40639 48.6626L5.99333 48.3444C5.67629 45.7591 5.78768 41.3858 6.7645 38.2528C6.45174 38.3253 6.16898 38.6716 5.94192 39.2475Z" fill="black"/>
<path d="M34.9714 17.2963L25.666 22.3462L26.2872 11.735L35.5841 6.7013C35.8411 6.56035 36.0125 6.75768 36.0125 7.14024L35.477 16.3661C35.4678 16.546 35.418 16.722 35.3308 16.8824C35.2436 17.0428 35.1211 17.1839 34.9714 17.2963Z" fill="#37474F"/>
<path d="M33.0342 20.7153C33.0342 20.7153 32.6871 17.538 31.8988 16.334C31.8876 16.3159 31.8724 16.3003 31.8543 16.2881C31.8362 16.2759 31.8155 16.2674 31.7937 16.2633C31.7719 16.2591 31.7493 16.2593 31.7276 16.2638C31.7058 16.2684 31.6854 16.2772 31.6675 16.2897L30.5921 16.8736C30.4912 16.95 30.4124 17.0491 30.363 17.1617C30.3135 17.2743 30.2951 17.3968 30.3094 17.5179C30.518 19.0469 30.5568 20.5922 30.4251 22.1288L33.0342 20.7153Z" fill="#455A64"/>
<path d="M32.0581 13.4063C32.0669 13.7398 31.9942 14.0707 31.8457 14.3737C31.6971 14.6767 31.4767 14.9436 31.2013 15.154C30.7171 15.4158 30.3444 15.0614 30.3444 14.3486C30.336 14.0152 30.4088 13.6843 30.5573 13.3814C30.7058 13.0785 30.9261 12.8115 31.2013 12.6009C31.6682 12.3392 32.0581 12.7056 32.0581 13.4063Z" fill="#263238"/>
<path d="M28.7286 22.5637L31.7576 20.9207V21.4039L28.4844 23.1798V22.9342C28.4907 22.8586 28.5161 22.7855 28.5586 22.721C28.6011 22.6566 28.6594 22.6026 28.7286 22.5637Z" fill="#455A64"/>
<path d="M26.2487 22.0281L25.666 22.3462L26.2872 11.7351L26.8699 11.417C27.1227 11.2801 27.2983 11.4774 27.2983 11.8599L26.7585 21.0858C26.7518 21.2683 26.7026 21.4472 26.6146 21.61C26.5265 21.7728 26.4016 21.9155 26.2487 22.0281Z" fill="#455A64"/>
</svg>
