<svg width="124" height="89" viewBox="0 0 124 89" fill="none" xmlns="http://www.w3.org/2000/svg">
<path d="M123.987 78.2593H-4V78.319H123.987V78.2593Z" fill="#EBEBEB"/>
<path d="M111.161 82.105H102.684V82.1647H111.161V82.105Z" fill="#EBEBEB"/>
<path d="M80.783 82.7554H78.5586V82.8151H80.783V82.7554Z" fill="#EBEBEB"/>
<path d="M102.432 79.8867H97.5195V79.9465H102.432V79.8867Z" fill="#EBEBEB"/>
<path d="M20.4813 80.2886H9.42578V80.3483H20.4813V80.2886Z" fill="#EBEBEB"/>
<path d="M24.382 80.2886H22.7617V80.3483H24.382V80.2886Z" fill="#EBEBEB"/>
<path d="M53.636 81.2969H29.6562V81.3566H53.636V81.2969Z" fill="#EBEBEB"/>
<path d="M56.6626 67.5982H7.2364C6.8492 67.5976 6.47809 67.4535 6.20454 67.1976C5.93098 66.9417 5.77734 66.5949 5.77734 66.2333V1.35292C5.78071 0.993422 5.93584 0.649683 6.20903 0.396367C6.48222 0.143051 6.85141 0.000615839 7.2364 0H56.6626C57.0502 0 57.422 0.143799 57.6961 0.399762C57.9702 0.655725 58.1242 1.00289 58.1242 1.36487V66.2333C58.1242 66.5953 57.9702 66.9425 57.6961 67.1984C57.422 67.4544 57.0502 67.5982 56.6626 67.5982V67.5982ZM7.2364 0.0478066C6.86617 0.0484397 6.51134 0.186221 6.24979 0.430909C5.98823 0.675597 5.84134 1.0072 5.84134 1.35292V66.2333C5.84134 66.5791 5.98823 66.9107 6.24979 67.1553C6.51134 67.4 6.86617 67.5378 7.2364 67.5384H56.6626C57.0331 67.5378 57.3881 67.4001 57.6501 67.1555C57.9121 66.9109 58.0595 66.5793 58.0602 66.2333V1.35292C58.0595 1.00698 57.9121 0.675383 57.6501 0.430763C57.3881 0.186144 57.0331 0.0484384 56.6626 0.0478066H7.2364Z" fill="#EBEBEB"/>
<path d="M112.039 67.5982H62.6101C62.2226 67.5976 61.8512 67.4536 61.5773 67.1977C61.3033 66.9419 61.1491 66.5951 61.1484 66.2333V1.35292C61.1525 0.993204 61.3082 0.649468 61.5818 0.396217C61.8554 0.142967 62.2248 0.000609122 62.6101 0H112.039C112.423 0.00124404 112.792 0.143957 113.065 0.397206C113.337 0.650455 113.492 0.993835 113.495 1.35292V66.2333C113.495 66.5945 113.342 66.9409 113.069 67.1968C112.796 67.4526 112.426 67.5969 112.039 67.5982V67.5982ZM62.6101 0.0478066C62.2396 0.0484384 61.8845 0.186144 61.6225 0.430763C61.3606 0.675383 61.2131 1.00698 61.2124 1.35292V66.2333C61.2131 66.5793 61.3606 66.9109 61.6225 67.1555C61.8845 67.4001 62.2396 67.5378 62.6101 67.5384H112.039C112.409 67.5378 112.764 67.4001 113.026 67.1555C113.288 66.9109 113.436 66.5793 113.436 66.2333V1.35292C113.436 1.00698 113.288 0.675383 113.026 0.430763C112.764 0.186144 112.409 0.0484384 112.039 0.0478066H62.6101Z" fill="#EBEBEB"/>
<path d="M104.264 5.92334H54.4023V46.8217H104.264V5.92334Z" fill="#E6E6E6"/>
<path d="M105.567 5.92334H55.0117V46.8217H105.567V5.92334Z" fill="#F0F0F0"/>
<path d="M104.264 46.8188H54.4023V47.9471H104.264V46.8188Z" fill="#E6E6E6"/>
<path d="M107.727 46.8188H57.1719V47.9471H107.727V46.8188Z" fill="#F0F0F0"/>
<path d="M103.742 45.1219V7.62256L56.8297 7.62256V45.1219H103.742Z" fill="#FAFAFA"/>
<path d="M63.1055 45.1195L68.2787 7.62256H77.2353L72.0595 45.1195H63.1055Z" fill="white"/>
<path d="M73.9844 45.1195L79.1602 7.62256H82.6517L77.4759 45.1195H73.9844Z" fill="white"/>
<path d="M103.742 45.1194V7.62012H103.512V45.1194H103.742Z" fill="#E6E6E6"/>
<path opacity="0.5" d="M105.989 11.1965H56.1273L55.9609 8.28271H105.822L105.989 11.1965Z" fill="#E0E0E0"/>
<path opacity="0.5" d="M105.989 15.9837H56.1273L55.9609 13.0723H105.822L105.989 15.9837Z" fill="#E0E0E0"/>
<path opacity="0.5" d="M105.989 20.7717H56.1273L55.9609 17.8604H105.822L105.989 20.7717Z" fill="#E0E0E0"/>
<path opacity="0.5" d="M105.989 25.5623H56.1273L55.9609 22.6484H105.822L105.989 25.5623Z" fill="#E0E0E0"/>
<path opacity="0.5" d="M105.989 30.3499H56.1273L55.9609 27.436H105.822L105.989 30.3499Z" fill="#E0E0E0"/>
<path opacity="0.5" d="M105.989 35.1379H56.1273L55.9609 32.2241H105.822L105.989 35.1379Z" fill="#E0E0E0"/>
<path d="M26.5878 14.5142H11.0117V43.2721H26.5878V14.5142Z" fill="#E0E0E0"/>
<path d="M27.5121 14.5142H11.6289V43.2721H27.5121V14.5142Z" fill="#F5F5F5"/>
<path d="M12.9609 16.1773L12.9609 41.6079H26.182V16.1773H12.9609Z" fill="white"/>
<path d="M47.3847 10.126H31.8086V38.8839H47.3847V10.126Z" fill="#E0E0E0"/>
<path d="M48.309 10.126H32.4258V38.8839H48.309V10.126Z" fill="#F5F5F5"/>
<path d="M33.7539 11.7891V37.2197H46.9776V11.7891H33.7539Z" fill="white"/>
<path d="M44.618 51.7554H38.0625V78.2592H44.618V51.7554Z" fill="#E6E6E6"/>
<path d="M43.3719 78.2592H44.6159V75.5605H42.0664L43.3719 78.2592Z" fill="#F0F0F0"/>
<path d="M20.1141 51.7554H13.5586V78.2592H20.1141V51.7554Z" fill="#E6E6E6"/>
<path d="M44.6197 51.7554H19.0273V76.6028H44.6197V51.7554Z" fill="#F0F0F0"/>
<path d="M32.2383 53.4065V73.2271H43.6496V53.4065H32.2383Z" fill="#E6E6E6"/>
<path d="M19.9883 53.4065V73.2271H31.3996V53.4065H19.9883Z" fill="#E6E6E6"/>
<path d="M26.8234 54.1647H24.5657C23.6195 54.1734 22.7007 53.8685 21.9727 53.3042H29.4164C28.6883 53.8685 27.7695 54.1734 26.8234 54.1647Z" fill="#F0F0F0"/>
<path d="M39.1867 54.1647H36.929C35.9827 54.1738 35.0638 53.8689 34.3359 53.3042H41.7797C41.0516 53.8685 40.1328 54.1734 39.1867 54.1647Z" fill="#F0F0F0"/>
<path d="M20.2739 78.2592H19.0273V75.5605H21.5794L20.2739 78.2592Z" fill="#F0F0F0"/>
<path d="M25.0312 49.2261C25.0312 49.2261 25.2258 51.755 32.6875 51.755C40.1491 51.755 40.3437 49.2261 40.3437 49.2261H25.0312Z" fill="#E6E6E6"/>
<path d="M54.4446 60.564L110.457 60.564V56.1849L54.4446 56.1849V60.564Z" fill="#EBEBEB"/>
<path d="M54.4452 60.564H70.3438V56.1849H54.4452V60.564Z" fill="#E0E0E0"/>
<path d="M107.104 78.2593H110.457V60.5638H107.104V78.2593Z" fill="#EBEBEB"/>
<path d="M107.105 61.7902L110.459 61.1783V60.564H107.105V61.7902Z" fill="#E0E0E0"/>
<path d="M54.4475 78.2593H57.8008V60.5638H54.4475V78.2593Z" fill="#E0E0E0"/>
<path d="M66.9905 78.2593H70.3438V60.5638H66.9905V78.2593Z" fill="#EBEBEB"/>
<path d="M66.9922 61.7902L70.3455 61.1783V60.564H66.9922V61.7902Z" fill="#E0E0E0"/>
<path d="M96.6077 78.2593H99.9609V60.5638H96.6077V78.2593Z" fill="#E0E0E0"/>
<path d="M55.9356 88.0533C82.0407 88.0533 103.203 86.8418 103.203 85.3474C103.203 83.853 82.0407 82.6416 55.9356 82.6416C29.8304 82.6416 8.66797 83.853 8.66797 85.3474C8.66797 86.8418 29.8304 88.0533 55.9356 88.0533Z" fill="#F5F5F5"/>
<path d="M51.6624 16.7678H22.5812C22.1207 16.7631 21.6643 16.8524 21.2409 17.03C20.8175 17.2076 20.4364 17.4696 20.1219 17.7994C19.8073 18.1292 19.5662 18.5195 19.4137 18.9456C19.2613 19.3717 19.2009 19.8242 19.2365 20.2743L23.4052 81.0841C23.4838 82.0313 23.9194 82.916 24.627 83.5656C25.3345 84.2151 26.2634 84.5831 27.2326 84.5978H56.3138C56.775 84.603 57.2322 84.5137 57.6561 84.3358C58.0801 84.1578 58.4616 83.8951 58.7761 83.5644C59.0907 83.2337 59.3314 82.8423 59.4829 82.4153C59.6345 81.9882 59.6934 81.5348 59.6561 81.0841L55.4874 20.2743C55.4071 19.3288 54.9711 18.4462 54.2642 17.7982C53.5573 17.1501 52.63 16.7829 51.6624 16.7678Z" fill="#407BFF"/>
<path opacity="0.3" d="M51.6624 16.7678H22.5812C22.1207 16.7631 21.6643 16.8524 21.2409 17.03C20.8175 17.2076 20.4364 17.4696 20.1219 17.7994C19.8073 18.1292 19.5662 18.5195 19.4137 18.9456C19.2613 19.3717 19.2009 19.8242 19.2365 20.2743L23.4052 81.0841C23.4838 82.0313 23.9194 82.916 24.627 83.5656C25.3345 84.2151 26.2634 84.5831 27.2326 84.5978H56.3138C56.775 84.603 57.2322 84.5137 57.6561 84.3358C58.0801 84.1578 58.4616 83.8951 58.7761 83.5644C59.0907 83.2337 59.3314 82.8423 59.4829 82.4153C59.6345 81.9882 59.6934 81.5348 59.6561 81.0841L55.4874 20.2743C55.4071 19.3288 54.9711 18.4462 54.2642 17.7982C53.5573 17.1501 52.63 16.7829 51.6624 16.7678Z" fill="white"/>
<path d="M19.2745 29.797L19.0312 29.813L19.4239 35.5488L19.6671 35.5328L19.2745 29.797Z" fill="#407BFF"/>
<path d="M19.8839 38.5484L19.6406 38.5645L19.8171 41.1354L20.0603 41.1193L19.8839 38.5484Z" fill="#407BFF"/>
<path d="M25.523 81.7053C25.5428 81.9371 25.4758 82.168 25.3345 82.3548C25.1932 82.5416 24.9872 82.6715 24.7552 82.7202C24.5233 82.7689 24.2811 82.7329 24.0742 82.6191C23.8673 82.5054 23.7098 82.3215 23.6312 82.1021C23.51 81.7785 23.4361 81.4397 23.4118 81.0957L19.2431 20.2741C19.2184 19.9317 19.2463 19.5876 19.326 19.2534C19.375 19.0256 19.507 18.8232 19.6974 18.6841C19.8878 18.545 20.1233 18.4788 20.36 18.4978C20.5966 18.5169 20.818 18.62 20.9826 18.7877C21.1473 18.9554 21.2439 19.1762 21.2543 19.4088L25.523 81.7053Z" fill="#407BFF"/>
<path d="M56.3156 83.457H29.2969C28.626 83.4393 27.9852 83.1807 27.4959 82.7304C27.0065 82.2801 26.7027 81.6694 26.6421 81.0141L22.4733 20.2068C22.4466 19.9132 22.4832 19.6174 22.5807 19.3385C22.6782 19.0597 22.8345 18.8041 23.0394 18.5883C23.2442 18.3726 23.4931 18.2015 23.7698 18.0862C24.0465 17.971 24.3449 17.9141 24.6455 17.9193H51.6642C52.3347 17.937 52.9752 18.1952 53.4645 18.645C53.9538 19.0948 54.2578 19.7049 54.319 20.3598L58.4878 81.1695C58.5137 81.463 58.4766 81.7585 58.3788 82.037C58.281 82.3155 58.1247 82.5708 57.92 82.7864C57.7153 83.002 57.4667 83.1731 57.1904 83.2886C56.914 83.4041 56.616 83.4615 56.3156 83.457ZM24.6455 18.175C24.3807 18.1703 24.1179 18.2203 23.8742 18.3218C23.6304 18.4233 23.4113 18.574 23.2309 18.7641C23.0506 18.9542 22.9132 19.1795 22.8276 19.4252C22.742 19.6709 22.7102 19.9315 22.7342 20.1901L26.9029 80.9879C26.9571 81.5791 27.2308 82.1302 27.6722 82.5365C28.1135 82.9427 28.6917 83.1759 29.2969 83.1917H56.3156C56.5804 83.1965 56.8432 83.1465 57.0869 83.045C57.3307 82.9435 57.5498 82.7928 57.7302 82.6026C57.9105 82.4125 58.0479 82.1873 58.1335 81.9416C58.2191 81.6959 58.2509 81.4353 58.2269 81.1767L54.0582 20.3693C54.004 19.7781 53.7303 19.227 53.2889 18.8208C52.8476 18.4145 52.2694 18.1813 51.6642 18.1655L24.6455 18.175Z" fill="white"/>
<g opacity="0.5">
<path opacity="0.5" d="M49.5873 45.5166C53.7076 41.2444 53.0993 34.12 48.2286 29.6038C43.3579 25.0876 36.0692 24.8898 31.9488 29.162C27.8285 33.4342 28.4368 40.5586 33.3075 45.0748C38.1782 49.591 45.4669 49.7888 49.5873 45.5166Z" fill="#407BFF"/>
<path opacity="0.5" d="M47.8242 43.8838C51.1203 40.4662 50.6337 34.767 46.7373 31.1542C42.8409 27.5415 37.0103 27.3832 33.7142 30.8007C30.4181 34.2183 30.9047 39.9175 34.8011 43.5303C38.6975 47.1431 44.5282 47.3013 47.8242 43.8838Z" fill="white"/>
<path opacity="0.5" d="M46.0564 42.2584C48.5287 39.6959 48.1645 35.4218 45.2429 32.712C42.3214 30.0021 37.9488 29.8826 35.4765 32.4451C33.0042 35.0076 33.3684 39.2817 36.29 41.9916C39.2115 44.7014 43.5841 44.8209 46.0564 42.2584Z" fill="#407BFF"/>
<path opacity="0.5" d="M44.2956 40.6138C45.9441 38.9046 45.7008 36.0542 43.7521 34.2473C41.8034 32.4405 38.8873 32.3614 37.2388 34.0706C35.5903 35.7799 35.8336 38.6303 37.7823 40.4371C39.731 42.244 42.6471 42.3231 44.2956 40.6138Z" fill="white"/>
<path opacity="0.5" d="M42.5323 38.9852C43.3567 38.1308 43.2352 36.7056 42.2611 35.802C41.2869 34.8984 39.8288 34.8586 39.0044 35.7131C38.18 36.5676 38.3014 37.9928 39.2756 38.8963C40.2498 39.7999 41.7078 39.8397 42.5323 38.9852Z" fill="#407BFF"/>
</g>
<path d="M42.9805 52.6654C42.9366 52.6654 42.8952 52.6654 42.8513 52.6654C42.5167 52.032 42.013 51.4995 41.3939 51.1248C40.7747 50.7501 40.0634 50.5473 39.3359 50.538C38.9628 50.5377 38.5919 50.5941 38.2365 50.7054C37.8858 50.0752 37.3704 49.548 36.7432 49.1779C36.1159 48.8078 35.3995 48.6082 34.6674 48.5995C34.2073 48.5929 33.7504 48.6754 33.3229 48.8423C32.8954 49.0091 32.5056 49.2572 32.1761 49.5721C31.8466 49.887 31.5837 50.2626 31.4025 50.6773C31.2213 51.0921 31.1254 51.5378 31.1204 51.989C30.7565 52.01 30.4006 52.1023 30.0736 52.2604C29.7467 52.4184 29.4554 52.6391 29.2168 52.9093C28.9782 53.1796 28.7972 53.4939 28.6845 53.8338C28.5718 54.1737 28.5297 54.5323 28.5606 54.8884C28.6238 55.6735 28.9838 56.407 29.5702 56.9452C30.1565 57.4834 30.9267 57.7874 31.7298 57.7974H43.3389C43.6759 57.8013 44.01 57.736 44.3197 57.6058C44.6295 57.4756 44.908 57.2834 45.1376 57.0414C45.3671 56.7995 45.5425 56.5132 45.6526 56.2009C45.7627 55.8886 45.805 55.5571 45.7767 55.2279C45.7192 54.5362 45.4008 53.8905 44.8838 53.4167C44.3667 52.9429 43.6882 52.675 42.9805 52.6654Z" fill="white"/>
<path d="M50.3735 24.8545H50.2736C50.0126 24.3609 49.6199 23.9461 49.1373 23.6544C48.6547 23.3626 48.1003 23.2049 47.5334 23.198C47.2423 23.1974 46.9528 23.2409 46.6753 23.327C46.4016 22.8364 45.9998 22.426 45.511 22.1378C45.0222 21.8497 44.464 21.6942 43.8937 21.6873C43.1716 21.6771 42.475 21.9482 41.9567 22.4412C41.4383 22.9342 41.1407 23.6087 41.1292 24.3166C40.8454 24.3332 40.5679 24.4052 40.313 24.5286C40.0581 24.6519 39.8309 24.824 39.6448 25.0347C39.4588 25.2454 39.3176 25.4905 39.2296 25.7555C39.1416 26.0205 39.1086 26.3002 39.1326 26.5779C39.1823 27.1894 39.4631 27.7606 39.9199 28.1797C40.3766 28.5989 40.9765 28.8357 41.6021 28.8439H50.6514C50.9144 28.8475 51.1753 28.797 51.4173 28.6958C51.6592 28.5946 51.8769 28.4448 52.0562 28.2561C52.2355 28.0674 52.3726 27.844 52.4586 27.6003C52.5446 27.3565 52.5775 27.0978 52.5554 26.8408C52.5071 26.3036 52.2573 25.803 51.8542 25.4361C51.4511 25.0691 50.9235 24.8619 50.3735 24.8545Z" fill="white"/>
<path opacity="0.3" d="M53.9787 62.0713H37.2648C37.144 62.07 37.0243 62.0933 36.9132 62.1399C36.8021 62.1865 36.7022 62.2553 36.6199 62.3419C36.5375 62.4285 36.4744 62.5311 36.4348 62.6429C36.3951 62.7548 36.3798 62.8736 36.3896 62.9916L37.0673 72.7656C37.0868 73.0141 37.2005 73.2463 37.3859 73.4167C37.5714 73.587 37.8152 73.6831 38.0693 73.6859H40.3121L40.4998 76.3894L43.0669 73.6859H54.7686C54.8895 73.6877 55.0094 73.6646 55.1207 73.6181C55.2319 73.5716 55.332 73.5028 55.4144 73.4161C55.4969 73.3294 55.5599 73.2268 55.5994 73.1147C55.6389 73.0027 55.654 72.8838 55.6438 72.7656L54.9685 62.9916C54.9482 62.7456 54.8359 62.5156 54.6532 62.3458C54.4706 62.1759 54.2304 62.0782 53.9787 62.0713Z" fill="white"/>
<path d="M53.8449 68.4966H38.2767L38.1914 67.2607H53.762L53.8449 68.4966Z" fill="white"/>
<path d="M49.104 71.0644H38.4603L38.375 69.8286H49.0187L49.104 71.0644Z" fill="white"/>
<path d="M53.6715 65.9296H38.101L38.0156 64.6938H53.5862L53.6715 65.9296Z" fill="white"/>
<path d="M67.0585 20.7519L67.6997 21.2036C67.9223 21.363 68.1466 21.5136 68.3725 21.6554C68.8235 21.9494 69.277 22.2434 69.7353 22.5111C70.1936 22.7788 70.6568 23.0322 71.1151 23.2569C71.5448 23.4693 71.9896 23.6506 72.4462 23.7995C72.3449 23.7749 72.2398 23.77 72.1366 23.7852C72.0749 23.7926 72.0149 23.8095 71.9586 23.8354C71.8879 23.8712 71.9099 23.8736 71.9464 23.8521C72.0875 23.7563 72.2146 23.6421 72.3243 23.5127C72.6451 23.1372 72.9353 22.7376 73.1922 22.3175C73.4774 21.8777 73.7504 21.4116 74.0113 20.9335C74.2721 20.4555 74.533 19.9654 74.7743 19.4993L74.7914 19.4683C74.9149 19.2299 75.1245 19.0452 75.3794 18.9502C75.6342 18.8551 75.916 18.8565 76.1699 18.9541C76.4237 19.0517 76.6314 19.2385 76.7524 19.478C76.8735 19.7176 76.8992 19.9927 76.8246 20.2499C76.4932 21.3887 76.0735 22.5011 75.5691 23.5772C75.2957 24.1562 74.9736 24.7119 74.6061 25.2385C74.3763 25.5648 74.107 25.8625 73.8041 26.1253C73.5825 26.3145 73.3315 26.4678 73.0605 26.5794C72.8699 26.6561 72.67 26.7083 72.4657 26.7348C72.2213 26.7621 71.974 26.7483 71.7343 26.6942C71.0831 26.546 70.4455 26.3453 69.8279 26.0942C69.2501 25.8636 68.6853 25.6027 68.1361 25.3126C67.5949 25.0305 67.0675 24.7333 66.5539 24.421C66.2979 24.2632 66.0444 24.1031 65.7933 23.9429C65.5422 23.7828 65.3057 23.6154 65.0302 23.4194C64.7224 23.1412 64.5297 22.7617 64.4887 22.3532C64.4477 21.9447 64.5612 21.5357 64.8078 21.2039C65.0543 20.8722 65.4166 20.6408 65.8258 20.554C66.2349 20.4671 66.6624 20.5307 67.0268 20.7327L67.0585 20.7519Z" fill="#407BFF"/>
<path opacity="0.2" d="M67.0585 20.7519L67.6997 21.2036C67.9223 21.363 68.1466 21.5136 68.3725 21.6554C68.8235 21.9494 69.277 22.2434 69.7353 22.5111C70.1936 22.7788 70.6568 23.0322 71.1151 23.2569C71.5448 23.4693 71.9896 23.6506 72.4462 23.7995C72.3449 23.7749 72.2398 23.77 72.1366 23.7852C72.0749 23.7926 72.0149 23.8095 71.9586 23.8354C71.8879 23.8712 71.9099 23.8736 71.9464 23.8521C72.0875 23.7563 72.2146 23.6421 72.3243 23.5127C72.6451 23.1372 72.9353 22.7376 73.1922 22.3175C73.4774 21.8777 73.7504 21.4116 74.0113 20.9335C74.2721 20.4555 74.533 19.9654 74.7743 19.4993L74.7914 19.4683C74.9149 19.2299 75.1245 19.0452 75.3794 18.9502C75.6342 18.8551 75.916 18.8565 76.1699 18.9541C76.4237 19.0517 76.6314 19.2385 76.7524 19.478C76.8735 19.7176 76.8992 19.9927 76.8246 20.2499C76.4932 21.3887 76.0735 22.5011 75.5691 23.5772C75.2957 24.1562 74.9736 24.7119 74.6061 25.2385C74.3763 25.5648 74.107 25.8625 73.8041 26.1253C73.5825 26.3145 73.3315 26.4678 73.0605 26.5794C72.8699 26.6561 72.67 26.7083 72.4657 26.7348C72.2213 26.7621 71.974 26.7483 71.7343 26.6942C71.0831 26.546 70.4455 26.3453 69.8279 26.0942C69.2501 25.8636 68.6853 25.6027 68.1361 25.3126C67.5949 25.0305 67.0675 24.7333 66.5539 24.421C66.2979 24.2632 66.0444 24.1031 65.7933 23.9429C65.5422 23.7828 65.3057 23.6154 65.0302 23.4194C64.7224 23.1412 64.5297 22.7617 64.4887 22.3532C64.4477 21.9447 64.5612 21.5357 64.8078 21.2039C65.0543 20.8722 65.4166 20.6408 65.8258 20.554C66.2349 20.4671 66.6624 20.5307 67.0268 20.7327L67.0585 20.7519Z" fill="black"/>
<path d="M75.3874 19.0523L76.048 17.9575L77.3157 19.2985C77.1326 19.6879 76.8021 19.9922 76.3942 20.1471C76.3026 20.1777 76.2049 20.1871 76.109 20.1747C76.013 20.1623 75.9212 20.1283 75.8408 20.0753L75.597 19.9224C75.4548 19.8315 75.3536 19.6905 75.3146 19.5285C75.2755 19.3665 75.3016 19.1959 75.3874 19.0523Z" fill="#FFB573"/>
<path d="M77.8436 17.3048L78.1239 17.4745C78.2119 17.5279 78.2858 17.6007 78.3399 17.6871C78.394 17.7735 78.4268 17.8711 78.4355 17.9721C78.4443 18.0732 78.4289 18.1748 78.3904 18.269C78.352 18.3631 78.2916 18.4471 78.2141 18.5143L77.3146 19.2983L76.0469 17.9573L77.1512 17.3024C77.2556 17.2399 77.3755 17.2071 77.4977 17.2075C77.62 17.2079 77.7397 17.2416 77.8436 17.3048Z" fill="#FFB573"/>
<path d="M51.5508 83.4063L53.4816 83.4613L54.208 79.0774L52.2797 79.0225L51.5508 83.4063Z" fill="#FFB573"/>
<path d="M53.7828 82.9285L51.6253 82.6608C51.5891 82.6553 51.5521 82.664 51.5225 82.685C51.4928 82.7061 51.4728 82.7377 51.4668 82.7731L51.1475 84.432C51.1357 84.5198 51.1598 84.6086 51.2147 84.6789C51.2695 84.7492 51.3505 84.7954 51.44 84.8073C52.1933 84.8886 52.5565 84.8886 53.5049 85.0057C54.0875 85.0798 55.6063 85.4383 56.4132 85.3403C57.2202 85.2423 57.0983 84.4655 56.7472 84.4368C55.1748 84.3029 54.5848 83.5691 54.0973 83.0839C54.0127 82.9996 53.9022 82.945 53.7828 82.9285Z" fill="#263238"/>
<path opacity="0.2" d="M52.2739 79.0249L54.2046 79.0799L53.8292 81.3387L51.8984 81.2837L52.2739 79.0249Z" fill="black"/>
<path d="M62.8275 37.0055C62.8275 37.0055 61.1429 52.6836 60.0215 58.0092C58.8026 63.8416 54.8606 80.9037 54.8606 80.9037L51.3281 80.6479C51.3281 80.6479 53.2638 62.9978 54.8484 57.2849C54.8484 51.3522 56.3111 34.7251 56.3111 34.7251L62.8275 37.0055Z" fill="#263238"/>
<path opacity="0.3" d="M57.2006 42.3049C57.1689 41.0787 56.4912 40.6843 55.8232 40.6986C55.5794 43.6483 55.3186 47.2648 55.1211 50.5276C56.3059 48.644 57.2883 45.7111 57.2006 42.3049Z" fill="black"/>
<path d="M51.2249 80.6719L55.0085 80.9467L55.4424 79.5484L51.0859 79.5054L51.2249 80.6719Z" fill="white"/>
<path d="M31.9688 68.7126L33.1852 70.1874L36.825 67.6131L35.606 66.1406L31.9688 68.7126Z" fill="#FFB573"/>
<path d="M33.4483 70.1903L32.3659 68.3425C32.3487 68.3111 32.3198 68.2876 32.2851 68.2768C32.2505 68.2661 32.213 68.2691 32.1806 68.2852L30.6374 69.0357C30.5591 69.0794 30.5016 69.1516 30.4774 69.2367C30.4532 69.3218 30.4643 69.4128 30.5082 69.4899C30.8958 70.1281 31.1152 70.4126 31.5906 71.2253C31.8832 71.7248 32.6535 73.1614 33.0533 73.8546C33.4531 74.5478 34.1431 74.1343 34.0285 73.8068C33.5409 72.3344 33.402 71.2085 33.5019 70.5369C33.5242 70.4187 33.5053 70.2966 33.4483 70.1903Z" fill="#263238"/>
<path opacity="0.2" d="M35.6037 66.1406L36.8226 67.6155L34.9455 68.9397L33.7266 67.4673L35.6037 66.1406Z" fill="black"/>
<path d="M59.3035 35.6575C59.3035 35.6575 54.5521 48.9907 52.3922 54.0008C50.0299 59.4866 35.9025 69.2296 35.9025 69.2296L33.6719 66.5309C33.6719 66.5309 43.2722 57.0963 46.8363 52.6216C48.811 46.5287 53.026 33.4561 53.026 33.4561L59.3035 35.6575Z" fill="#263238"/>
<path d="M33.5781 66.421L35.9892 69.3372L37.1666 68.6703L34.3436 65.582L33.5781 66.421Z" fill="white"/>
<path d="M62.81 37.0963L53.0195 33.4559C53.2633 32.5786 54.5432 30.0018 55.6817 26.414C56.5427 23.7627 57.1691 21.0436 57.5539 18.2869C57.5639 18.2065 57.5905 18.129 57.6321 18.0591C57.6737 17.9891 57.7294 17.9283 57.7958 17.8802C57.8622 17.8321 57.9379 17.7977 58.0183 17.7793C58.0987 17.7609 58.1821 17.7587 58.2634 17.773C58.4462 17.804 58.6632 17.8447 58.9021 17.8901C59.5189 18.012 60.2892 18.1841 61.023 18.404C62.4315 18.8089 63.8153 19.2925 65.1674 19.8525C65.6202 20.0524 66.0606 20.2783 66.4862 20.529C66.7396 20.6704 66.9745 20.8414 67.1859 21.0381C67.2624 21.0983 67.3257 21.1728 67.3722 21.2574C67.4187 21.342 67.4474 21.4349 67.4565 21.5305C67.4565 22.9026 66.0547 28.2187 62.81 37.0963Z" fill="#F0F0F0"/>
<path d="M64.972 19.7639C63.8701 19.0612 63.9238 18.258 64.2968 17.4836C64.3904 17.2921 64.4954 17.1061 64.6112 16.9266L63.5508 15.1697L62.7707 13.8813C62.6 15.2964 62.0783 17.8015 60.8594 18.356C61.5255 19.2783 62.477 19.9656 63.5727 20.3161C65.3719 20.8659 64.972 19.7639 64.972 19.7639Z" fill="#FFB573"/>
<path d="M63.5016 20.2878L63.4846 19.8384L62.2656 20.0726L63.5016 20.2878Z" fill="#E0E0E0"/>
<path d="M63.5 20.2876L63.7267 19.9219L64.5141 20.8613L63.5 20.2876Z" fill="#E0E0E0"/>
<path d="M61.0222 18.1412C61.7637 18.8101 62.5915 19.3807 63.4844 19.8383C62.9969 20.1323 62.5337 20.9068 62.3581 21.5474C61.9632 21.2773 60.3835 18.7292 60.1641 18.0288L61.0222 18.1412Z" fill="white"/>
<path d="M64.7407 19.4922C64.452 19.7285 64.0998 19.8779 63.7266 19.9224C63.9874 20.2977 64.2141 21.2706 64.2141 21.8347C64.67 21.5431 65.3746 20.5248 65.4867 20.0635L64.7407 19.4922Z" fill="white"/>
<path opacity="0.3" d="M64.7792 19.4585C64.7792 19.4585 65.8445 19.9605 66.7855 20.5294C67.1711 20.7624 67.469 21.112 67.6343 21.5254C67.7996 21.9389 67.8234 22.3938 67.7022 22.8217C66.5393 26.8518 64.9693 30.7647 64.3184 32.9423C63.6285 35.2633 62.668 38.1747 62.668 38.1747L61.0078 38.5595C61.0078 38.5595 65.1692 22.9531 64.7792 19.4585Z" fill="black"/>
<path opacity="0.3" d="M60.9992 17.9592C60.9992 17.9592 59.5682 17.7751 58.3176 17.7202C57.879 17.7008 57.4471 17.8302 57.0945 18.0867C56.7419 18.3431 56.4903 18.7109 56.3819 19.1281C55.7481 21.5853 55.28 26.2847 54.6389 28.1133C53.8417 30.3984 52.7617 34.854 52.7617 34.854L58.4322 38.0665C58.4322 38.0665 64.1611 20.8108 60.9992 17.9592Z" fill="black"/>
<path d="M60.9997 17.9592C60.9997 17.9592 59.5687 17.7751 58.3181 17.7202C57.8795 17.7008 57.4475 17.8302 57.095 18.0867C56.7424 18.3431 56.4907 18.7109 56.3824 19.1281C55.7486 21.5853 54.8856 26.1747 54.242 28.0057C53.4399 30.2908 51.7383 34.1751 51.7383 34.1751L58.891 37.4642C58.891 37.4642 64.1616 20.8108 60.9997 17.9592Z" fill="#407BFF"/>
<path opacity="0.2" d="M60.9997 17.9592C60.9997 17.9592 59.5687 17.7751 58.3181 17.7202C57.8795 17.7008 57.4475 17.8302 57.095 18.0867C56.7424 18.3431 56.4907 18.7109 56.3824 19.1281C55.7486 21.5853 54.8856 26.1747 54.242 28.0057C53.4399 30.2908 51.7383 34.1751 51.7383 34.1751L58.891 37.4642C58.891 37.4642 64.1616 20.8108 60.9997 17.9592Z" fill="black"/>
<path d="M64.7774 19.4585C64.7774 19.4585 65.8428 19.9605 66.7838 20.5294C67.1693 20.7624 67.4672 21.112 67.6325 21.5254C67.7979 21.9389 67.8217 22.3938 67.7004 22.8217C66.5375 26.8517 65.6185 31.0754 65.1553 33.2984C64.6677 35.6649 64.1582 37.8185 64.1582 37.8185L61.4766 38.1747C61.4766 38.1747 65.1675 22.9531 64.7774 19.4585Z" fill="#407BFF"/>
<path opacity="0.2" d="M64.7774 19.4585C64.7774 19.4585 65.8428 19.9605 66.7838 20.5294C67.1693 20.7624 67.4672 21.112 67.6325 21.5254C67.7979 21.9389 67.8217 22.3938 67.7004 22.8217C66.5375 26.8517 65.6185 31.0754 65.1553 33.2984C64.6677 35.6649 64.1582 37.8185 64.1582 37.8185L61.4766 38.1747C61.4766 38.1747 65.1675 22.9531 64.7774 19.4585Z" fill="black"/>
<path opacity="0.2" d="M64.6083 16.9268C64.4922 17.1086 64.3872 17.297 64.2938 17.4909C63.7721 17.1826 63.2358 16.3316 63.3626 15.7412C63.4024 15.5446 63.4645 15.353 63.5478 15.1699L64.6083 16.9268Z" fill="black"/>
<path d="M66.1128 9.67969C67.4097 9.84462 67.8851 11.5609 67.1684 12.6939C65.9933 11.023 66.1128 9.67969 66.1128 9.67969Z" fill="#263238"/>
<path d="M62.0736 12.8441C62.5124 14.6822 62.6709 15.777 63.7948 16.6016C64.1569 16.8739 64.5881 17.0438 65.0417 17.0929C65.4953 17.1421 65.954 17.0686 66.368 16.8805C66.7821 16.6924 67.1358 16.3969 67.3908 16.0258C67.6458 15.6547 67.7924 15.2223 67.8148 14.7754C67.9367 13.0568 67.2004 10.339 65.2136 9.84661C64.7862 9.72839 64.3346 9.72255 63.9041 9.82966C63.4737 9.93677 63.0795 10.1531 62.7613 10.4568C62.4432 10.7606 62.2121 11.1411 62.0914 11.5601C61.9707 11.9792 61.9645 12.422 62.0736 12.8441Z" fill="#FFB573"/>
<path d="M62.6542 14.4816C63.7829 14.5127 63.6074 12.6793 63.1149 11.9862C64.6801 12.2252 67.2739 10.8699 67.5348 9.45002C67.9127 7.39196 64.7117 7.39196 63.6757 8.04691C64.1218 8.07798 64.3485 8.44848 64.2412 8.63971C64.2412 8.63971 62.6956 8.18076 61.6961 8.7138C62.1325 8.87157 62.5957 9.48827 60.9355 9.68427C59.3558 9.87072 59.8336 11.4292 60.6308 11.4005C60.2066 12.0387 59.6971 13.4897 60.6527 14.1064C61.6084 14.7231 62.2617 15.5262 62.0545 15.8561C62.3885 15.8441 63.0979 15.4497 62.6542 14.4816Z" fill="#263238"/>
<path d="M60.8596 11.2568C60.1038 11.3285 59.6699 11.907 59.6406 12.691C59.9643 12.1509 60.3761 11.6664 60.8596 11.2568Z" fill="#263238"/>
<path d="M61.6222 14.5052C61.8148 14.8825 62.1457 15.1745 62.5486 15.3227C63.0776 15.5115 63.3555 15.0526 63.219 14.5411C63.0947 14.0774 62.6705 13.4248 62.1341 13.4583C61.5978 13.4917 61.3882 14.0367 61.6222 14.5052Z" fill="#FFB573"/>
<path d="M65.0456 12.9852C65.0699 13.1358 65.1748 13.2457 65.2747 13.2242C65.3747 13.2027 65.4356 13.0784 65.4112 12.9278C65.3869 12.7772 65.282 12.6649 65.1796 12.6888C65.0773 12.7127 65.0187 12.8346 65.0456 12.9852Z" fill="#263238"/>
<path d="M66.7956 12.7556C66.8199 12.9062 66.9223 13.0162 67.0247 12.9947C67.1271 12.9731 67.1856 12.8488 67.1612 12.6959C67.1369 12.5429 67.032 12.4353 66.9296 12.4568C66.8272 12.4784 66.7687 12.6026 66.7956 12.7556Z" fill="#263238"/>
<path d="M66.25 12.9043C66.5151 13.3424 66.8381 13.7443 67.2105 14.0994C66.9814 14.3839 66.4962 14.3385 66.4962 14.3385L66.25 12.9043Z" fill="#ED893E"/>
<path d="M65.9408 14.8185C65.7605 14.8232 65.5811 14.792 65.4134 14.7266C65.2458 14.6613 65.0935 14.5632 64.9657 14.4384C64.9576 14.43 64.9531 14.4189 64.9531 14.4073C64.9531 14.3958 64.9576 14.3847 64.9657 14.3763C64.97 14.372 64.9751 14.3686 64.9807 14.3663C64.9864 14.364 64.9925 14.3628 64.9986 14.3628C65.0047 14.3628 65.0108 14.364 65.0164 14.3663C65.0221 14.3686 65.0272 14.372 65.0315 14.3763C65.1727 14.5104 65.3437 14.6107 65.5311 14.6692C65.7185 14.7276 65.9171 14.7427 66.1115 14.7133C66.1179 14.7112 66.1248 14.7105 66.1315 14.7113C66.1383 14.7121 66.1448 14.7143 66.1506 14.7178C66.1564 14.7214 66.1613 14.7261 66.165 14.7317C66.1687 14.7373 66.1711 14.7437 66.172 14.7503C66.1729 14.7569 66.1723 14.7636 66.1703 14.77C66.1682 14.7764 66.1648 14.7822 66.1601 14.7871C66.1555 14.7921 66.1499 14.7959 66.1436 14.7984C66.1372 14.801 66.1304 14.8021 66.1236 14.8017C66.0632 14.812 66.0021 14.8176 65.9408 14.8185Z" fill="#263238"/>
<path d="M65.4495 15.3157C65.3037 15.2103 65.1814 15.0769 65.09 14.9236C64.9986 14.7703 64.9401 14.6003 64.918 14.4241C64.9174 14.4124 64.9213 14.4009 64.929 14.392C64.9367 14.3831 64.9476 14.3775 64.9595 14.3762C64.9655 14.3756 64.9715 14.3761 64.9772 14.3778C64.983 14.3796 64.9883 14.3824 64.9928 14.3862C64.9974 14.39 65.0011 14.3947 65.0038 14.4C65.0064 14.4053 65.008 14.411 65.0082 14.4169C65.0367 14.6077 65.109 14.7896 65.2197 14.949C65.3303 15.1085 65.4764 15.2412 65.647 15.3372C65.6522 15.3399 65.6568 15.3437 65.6605 15.3482C65.6642 15.3527 65.6669 15.3579 65.6685 15.3635C65.6701 15.3691 65.6705 15.3749 65.6697 15.3807C65.669 15.3864 65.667 15.3919 65.664 15.3969C65.661 15.4021 65.6569 15.4067 65.6521 15.4103C65.6473 15.414 65.6418 15.4167 65.6359 15.4182C65.63 15.4198 65.6239 15.4202 65.6178 15.4194C65.6118 15.4186 65.6059 15.4167 65.6007 15.4137C65.5486 15.3835 65.4982 15.3508 65.4495 15.3157Z" fill="#263238"/>
<path d="M64.4144 12.5046C64.4 12.5081 64.3849 12.5081 64.3705 12.5046C64.3596 12.4993 64.3499 12.4919 64.342 12.4828C64.3341 12.4737 64.3281 12.4632 64.3244 12.4518C64.3208 12.4404 64.3195 12.4284 64.3208 12.4165C64.322 12.4046 64.3256 12.3931 64.3315 12.3827C64.3958 12.2546 64.4912 12.144 64.6094 12.0606C64.7276 11.9772 64.8649 11.9237 65.0092 11.9046C65.0213 11.9036 65.0334 11.905 65.0449 11.9087C65.0563 11.9124 65.0669 11.9184 65.076 11.9262C65.0851 11.934 65.0925 11.9435 65.0978 11.9542C65.1031 11.9648 65.1061 11.9764 65.1067 11.9883C65.1077 12.0001 65.1063 12.012 65.1025 12.0232C65.0987 12.0345 65.0927 12.0449 65.0847 12.0538C65.0768 12.0627 65.0671 12.07 65.0562 12.0751C65.0453 12.0803 65.0335 12.0833 65.0214 12.0839C64.9094 12.0996 64.8029 12.1415 64.7109 12.206C64.6188 12.2704 64.5439 12.3556 64.4924 12.4544C64.4858 12.4693 64.4749 12.4819 64.461 12.4909C64.4472 12.4998 64.431 12.5045 64.4144 12.5046Z" fill="#263238"/>
<path d="M67.4454 12.0698C67.4305 12.0702 67.4157 12.0669 67.4025 12.0602C67.3893 12.0535 67.378 12.0436 67.3698 12.0315C67.305 11.9355 67.2185 11.8553 67.117 11.7973C67.0156 11.7392 66.9019 11.7049 66.7847 11.6969C66.763 11.6934 66.7433 11.6824 66.7291 11.666C66.7148 11.6496 66.707 11.6288 66.707 11.6072C66.707 11.5857 66.7148 11.5648 66.7291 11.5484C66.7433 11.532 66.763 11.5211 66.7847 11.5176C66.9308 11.5256 67.073 11.567 67.2 11.6384C67.3269 11.7097 67.4351 11.8091 67.516 11.9287C67.523 11.9383 67.528 11.9491 67.5307 11.9605C67.5334 11.972 67.5337 11.9838 67.5317 11.9954C67.5296 12.007 67.5252 12.018 67.5188 12.0279C67.5123 12.0378 67.504 12.0463 67.4941 12.053C67.4802 12.0637 67.463 12.0696 67.4454 12.0698Z" fill="#263238"/>
<path d="M58.8434 20.8138C58.3558 21.2034 57.8414 21.636 57.3514 22.0591C56.8614 22.4822 56.3616 22.9172 55.8887 23.3618C54.9477 24.2158 54.0665 25.131 53.2509 26.1011L52.973 26.4549L52.9389 26.5003C52.9462 26.4897 52.9527 26.4785 52.9584 26.4669C52.9731 26.4401 52.9853 26.4121 52.995 26.3832C53.0135 26.335 53.0234 26.2841 53.0242 26.2326C53.0242 26.1513 53.0096 26.1513 53.0242 26.1896C53.0349 26.2631 53.0562 26.3347 53.0876 26.4023C53.1859 26.628 53.3084 26.8428 53.4533 27.0429C53.6212 27.2846 53.8018 27.5176 53.9945 27.7409C54.387 28.219 54.8258 28.6755 55.2865 29.1273C55.7473 29.579 56.2349 30.0356 56.7005 30.4539L56.7322 30.4802C56.9376 30.6612 57.0656 30.9115 57.0907 31.1812C57.1157 31.4508 57.0359 31.7197 56.8672 31.9341C56.6986 32.1485 56.4535 32.2924 56.1812 32.3371C55.9088 32.3817 55.6293 32.3238 55.3987 32.1749C54.1758 31.4149 53.0326 30.5382 51.9857 29.5575C51.72 29.297 51.4591 29.0245 51.2031 28.7233C50.9263 28.3968 50.6814 28.0455 50.4718 27.674C50.3447 27.4455 50.241 27.2053 50.1622 26.9569C50.0562 26.6224 50.0181 26.2707 50.05 25.9219C50.07 25.7033 50.1209 25.4885 50.2012 25.2836C50.2433 25.1776 50.293 25.0745 50.3499 24.9753L50.4377 24.8343L50.4767 24.7769L50.7936 24.3156C51.6383 23.1592 52.5785 22.0728 53.6044 21.0671C54.092 20.5699 54.6039 20.0847 55.1232 19.6162C55.6425 19.1477 56.1569 18.6959 56.7298 18.237C57.0818 18.0325 57.4971 17.9589 57.8999 18.0296C58.3027 18.1002 58.6662 18.3104 58.9241 18.6218C59.182 18.9333 59.3173 19.3252 59.3052 19.7263C59.293 20.1273 59.1343 20.5107 58.858 20.8066L58.8434 20.8138Z" fill="#407BFF"/>
<path opacity="0.2" d="M58.8434 20.8138C58.3558 21.2034 57.8414 21.636 57.3514 22.0591C56.8614 22.4822 56.3616 22.9172 55.8887 23.3618C54.9477 24.2158 54.0665 25.131 53.2509 26.1011L52.973 26.4549L52.9389 26.5003C52.9462 26.4897 52.9527 26.4785 52.9584 26.4669C52.9731 26.4401 52.9853 26.4121 52.995 26.3832C53.0135 26.335 53.0234 26.2841 53.0242 26.2326C53.0242 26.1513 53.0096 26.1513 53.0242 26.1896C53.0349 26.2631 53.0562 26.3347 53.0876 26.4023C53.1859 26.628 53.3084 26.8428 53.4533 27.0429C53.6212 27.2846 53.8018 27.5176 53.9945 27.7409C54.387 28.219 54.8258 28.6755 55.2865 29.1273C55.7473 29.579 56.2349 30.0356 56.7005 30.4539L56.7322 30.4802C56.9376 30.6612 57.0656 30.9115 57.0907 31.1812C57.1157 31.4508 57.0359 31.7197 56.8672 31.9341C56.6986 32.1485 56.4535 32.2924 56.1812 32.3371C55.9088 32.3817 55.6293 32.3238 55.3987 32.1749C54.1758 31.4149 53.0326 30.5382 51.9857 29.5575C51.72 29.297 51.4591 29.0245 51.2031 28.7233C50.9263 28.3968 50.6814 28.0455 50.4718 27.674C50.3447 27.4455 50.241 27.2053 50.1622 26.9569C50.0562 26.6224 50.0181 26.2707 50.05 25.9219C50.07 25.7033 50.1209 25.4885 50.2012 25.2836C50.2433 25.1776 50.293 25.0745 50.3499 24.9753L50.4377 24.8343L50.4767 24.7769L50.7936 24.3156C51.6383 23.1592 52.5785 22.0728 53.6044 21.0671C54.092 20.5699 54.6039 20.0847 55.1232 19.6162C55.6425 19.1477 56.1569 18.6959 56.7298 18.237C57.0818 18.0325 57.4971 17.9589 57.8999 18.0296C58.3027 18.1002 58.6662 18.3104 58.9241 18.6218C59.182 18.9333 59.3173 19.3252 59.3052 19.7263C59.293 20.1273 59.1343 20.5107 58.858 20.8066L58.8434 20.8138Z" fill="black"/>
<path d="M57.0658 30.8486L58.7235 31.843L56.605 33.0262C56.605 33.0262 55.196 31.9936 55.7981 31.3267L56.5051 30.8486C56.5885 30.7954 56.6859 30.7671 56.7854 30.7671C56.885 30.7671 56.9824 30.7954 57.0658 30.8486Z" fill="#FFB573"/>
<path d="M58.8142 33.659L57.9024 34.1848C57.8393 34.2217 57.7693 34.2459 57.6965 34.2557C57.6238 34.2656 57.5497 34.261 57.4788 34.2423C57.4078 34.2236 57.3414 34.1911 57.2835 34.1467C57.2257 34.1023 57.1775 34.047 57.1418 33.9841L56.6055 33.0279L58.724 31.8447L59.0653 33.0399C59.0991 33.1558 59.0929 33.2794 59.0474 33.3914C59.002 33.5035 58.92 33.5975 58.8142 33.659Z" fill="#FFB573"/>
<path d="M74.6759 16.7788L76.9212 16.3462C76.3044 17.4123 77.2113 18.433 78.0255 19.0736C78.4131 19.3795 78.1401 19.9269 77.538 20.0297L76.0752 20.3118C74.3102 20.6607 74.6759 16.7788 74.6759 16.7788Z" fill="#407BFF"/>
<path d="M73.7837 16.9489L78.9325 15.9712C79.7365 15.8141 80.4443 15.3512 80.9011 14.6838C81.358 14.0164 81.5267 13.1987 81.3703 12.4097C81.2089 11.622 80.7365 10.9288 80.0562 10.4811C79.3758 10.0333 78.5426 9.86737 77.7379 10.0193L72.5916 11.0089C71.7881 11.1678 71.0811 11.6314 70.6245 12.2989C70.1679 12.9664 69.9987 13.7837 70.1538 14.5729C70.318 15.3577 70.7912 16.0474 71.4708 16.4923C72.1504 16.9371 72.9815 17.1012 73.7837 16.9489Z" fill="#407BFF"/>
<path opacity="0.3" d="M73.7837 16.9489L78.9325 15.9712C79.7365 15.8141 80.4443 15.3512 80.9011 14.6838C81.358 14.0164 81.5267 13.1987 81.3703 12.4097C81.2089 11.622 80.7365 10.9288 80.0562 10.4811C79.3758 10.0333 78.5426 9.86737 77.7379 10.0193L72.5916 11.0089C71.7881 11.1678 71.0811 11.6314 70.6245 12.2989C70.1679 12.9664 69.9987 13.7837 70.1538 14.5729C70.318 15.3577 70.7912 16.0474 71.4708 16.4923C72.1504 16.9371 72.9815 17.1012 73.7837 16.9489Z" fill="white"/>
<path d="M87.796 17.9789L79.0197 17.8642C78.2591 18.01 76.338 8.3531 77.0889 8.20729L85.1679 4.86084L87.796 17.9789Z" fill="#FD9921"/>
<path d="M85.7837 11.5512C86.5151 15.175 87.4098 18.0529 87.7974 17.9788C88.185 17.9047 87.912 14.9048 87.1855 11.2859C86.459 7.66696 85.5594 4.78423 85.1718 4.85833C84.7842 4.93243 85.0597 7.92511 85.7837 11.5512Z" fill="#407BFF"/>
<path opacity="0.3" d="M85.7837 11.5512C86.5151 15.175 87.4098 18.0529 87.7974 17.9788C88.185 17.9047 87.912 14.9048 87.1855 11.2859C86.459 7.66696 85.5594 4.78423 85.1718 4.85833C84.7842 4.93243 85.0597 7.92511 85.7837 11.5512Z" fill="black"/>
<path d="M89.0868 11.104C88.9089 10.2172 86.8928 9.8563 86.4661 9.93996C86.0395 10.0236 85.8323 10.8076 86.0078 11.6945C86.1833 12.5813 86.6782 13.2314 87.1073 13.1502C87.5364 13.0689 89.2575 11.9885 89.0868 11.104Z" fill="#407BFF"/>
<path d="M102.661 8.80332L91.2422 10.6147L91.2838 10.8672L102.703 9.0558L102.661 8.80332Z" fill="#407BFF"/>
<path d="M94.8503 3.96857L90.168 7.88281L90.3372 8.07744L95.0196 4.1632L94.8503 3.96857Z" fill="#407BFF"/>
<path d="M97.1649 16.0743L97.0781 16.3154L98.7954 16.9097L98.8822 16.6685L97.1649 16.0743Z" fill="#407BFF"/>
<path d="M90.9462 13.9953L90.8633 14.2378L95.2086 15.6667L95.2915 15.4242L90.9462 13.9953Z" fill="#407BFF"/>
</svg>
