<svg width="33" height="18" viewBox="0 0 33 18" fill="none" xmlns="http://www.w3.org/2000/svg">
<path d="M4.67592 13.7788L6.92118 13.3462C6.3044 14.4123 7.21128 15.433 8.02553 16.0736C8.41314 16.3795 8.1401 16.9269 7.53795 17.0297L6.07524 17.3118C4.31024 17.6607 4.67592 13.7788 4.67592 13.7788Z" fill="#407BFF"/>
<path d="M3.78374 13.9489L8.93249 12.9712C9.73646 12.8141 10.4443 12.3512 10.9011 11.6838C11.358 11.0164 11.5267 10.1987 11.3703 9.40966C11.2089 8.62198 10.7365 7.92878 10.0562 7.48105C9.3758 7.03333 8.54255 6.86737 7.73794 7.01934L2.59163 8.00893C1.7881 8.16777 1.08109 8.63141 0.624505 9.29889C0.167924 9.96638 -0.00126458 10.7837 0.15377 11.5729C0.317959 12.3577 0.791213 13.0474 1.47081 13.4923C2.15041 13.9371 2.98152 14.1012 3.78374 13.9489Z" fill="#407BFF"/>
<path opacity="0.3" d="M3.78374 13.9489L8.93249 12.9712C9.73646 12.8141 10.4443 12.3512 10.9011 11.6838C11.358 11.0164 11.5267 10.1987 11.3703 9.40966C11.2089 8.62198 10.7365 7.92878 10.0562 7.48105C9.3758 7.03333 8.54255 6.86737 7.73794 7.01934L2.59163 8.00893C1.7881 8.16777 1.08109 8.63141 0.624505 9.29889C0.167924 9.96638 -0.00126458 10.7837 0.15377 11.5729C0.317959 12.3577 0.791213 13.0474 1.47081 13.4923C2.15041 13.9371 2.98152 14.1012 3.78374 13.9489Z" fill="white"/>
<path d="M17.796 14.9789L9.01967 14.8642C8.25906 15.01 6.33803 5.3531 7.08889 5.20729L15.1679 1.86084L17.796 14.9789Z" fill="#FD9921"/>
<path d="M15.7837 8.55123C16.5151 12.175 17.4098 15.0529 17.7974 14.9788C18.185 14.9047 17.912 11.9048 17.1855 8.2859C16.459 4.66696 15.5594 1.78423 15.1718 1.85833C14.7842 1.93243 15.0597 4.92511 15.7837 8.55123Z" fill="#407BFF"/>
<path opacity="0.3" d="M15.7837 8.55123C16.5151 12.175 17.4098 15.0529 17.7974 14.9788C18.185 14.9047 17.912 11.9048 17.1855 8.2859C16.459 4.66696 15.5594 1.78423 15.1718 1.85833C14.7842 1.93243 15.0597 4.92511 15.7837 8.55123Z" fill="black"/>
<path d="M19.0868 8.10405C18.9089 7.21724 16.8928 6.8563 16.4661 6.93996C16.0395 7.02362 15.8323 7.80765 16.0078 8.69445C16.1833 9.58126 16.6782 10.2314 17.1073 10.1502C17.5364 10.0689 19.2575 8.98846 19.0868 8.10405Z" fill="#407BFF"/>
<path d="M32.6613 5.80332L21.2422 7.61475L21.2838 7.86723L32.703 6.0558L32.6613 5.80332Z" fill="#407BFF"/>
<path d="M24.8503 0.968571L20.168 4.88281L20.3372 5.07744L25.0196 1.1632L24.8503 0.968571Z" fill="#407BFF"/>
<path d="M27.1649 13.0743L27.0781 13.3154L28.7954 13.9097L28.8822 13.6685L27.1649 13.0743Z" fill="#407BFF"/>
<path d="M20.9462 10.9953L20.8633 11.2378L25.2086 12.6667L25.2915 12.4242L20.9462 10.9953Z" fill="#407BFF"/>
</svg>
