<svg width="124" height="83" viewBox="0 0 124 83" fill="none" xmlns="http://www.w3.org/2000/svg">
<path d="M123.987 78.2593H-4V78.319H123.987V78.2593Z" fill="#EBEBEB"/>
<path d="M111.161 82.105H102.684V82.1647H111.161V82.105Z" fill="#EBEBEB"/>
<path d="M80.783 82.7554H78.5586V82.8151H80.783V82.7554Z" fill="#EBEBEB"/>
<path d="M102.432 79.8867H97.5195V79.9465H102.432V79.8867Z" fill="#EBEBEB"/>
<path d="M20.4813 80.2886H9.42578V80.3483H20.4813V80.2886Z" fill="#EBEBEB"/>
<path d="M24.382 80.2886H22.7617V80.3483H24.382V80.2886Z" fill="#EBEBEB"/>
<path d="M53.636 81.2969H29.6562V81.3566H53.636V81.2969Z" fill="#EBEBEB"/>
<path d="M56.6626 67.5982H7.2364C6.8492 67.5976 6.47809 67.4535 6.20454 67.1976C5.93098 66.9417 5.77734 66.5949 5.77734 66.2333V1.35292C5.78071 0.993422 5.93584 0.649683 6.20903 0.396367C6.48222 0.143051 6.85141 0.000615839 7.2364 0H56.6626C57.0502 0 57.422 0.143799 57.6961 0.399762C57.9702 0.655725 58.1242 1.00289 58.1242 1.36487V66.2333C58.1242 66.5953 57.9702 66.9425 57.6961 67.1984C57.422 67.4544 57.0502 67.5982 56.6626 67.5982ZM7.2364 0.0478066C6.86617 0.0484397 6.51134 0.186221 6.24979 0.430909C5.98823 0.675597 5.84134 1.0072 5.84134 1.35292V66.2333C5.84134 66.5791 5.98823 66.9107 6.24979 67.1553C6.51134 67.4 6.86617 67.5378 7.2364 67.5384H56.6626C57.0331 67.5378 57.3881 67.4001 57.6501 67.1555C57.9121 66.9109 58.0595 66.5793 58.0602 66.2333V1.35292C58.0595 1.00698 57.9121 0.675383 57.6501 0.430763C57.3881 0.186144 57.0331 0.0484384 56.6626 0.0478066H7.2364Z" fill="#EBEBEB"/>
<path d="M112.039 67.5982H62.6101C62.2226 67.5976 61.8512 67.4536 61.5773 67.1977C61.3033 66.9419 61.1491 66.5951 61.1484 66.2333V1.35292C61.1525 0.993204 61.3082 0.649468 61.5818 0.396217C61.8554 0.142967 62.2248 0.000609122 62.6101 0H112.039C112.423 0.00124404 112.792 0.143957 113.065 0.397206C113.337 0.650455 113.492 0.993835 113.495 1.35292V66.2333C113.495 66.5945 113.342 66.9409 113.069 67.1968C112.796 67.4526 112.426 67.5969 112.039 67.5982ZM62.6101 0.0478066C62.2396 0.0484384 61.8845 0.186144 61.6225 0.430763C61.3606 0.675383 61.2131 1.00698 61.2124 1.35292V66.2333C61.2131 66.5793 61.3606 66.9109 61.6225 67.1555C61.8845 67.4001 62.2396 67.5378 62.6101 67.5384H112.039C112.409 67.5378 112.764 67.4001 113.026 67.1555C113.288 66.9109 113.436 66.5793 113.436 66.2333V1.35292C113.436 1.00698 113.288 0.675383 113.026 0.430763C112.764 0.186144 112.409 0.0484384 112.039 0.0478066H62.6101Z" fill="#EBEBEB"/>
<path d="M104.264 5.92334H54.4023V46.8217H104.264V5.92334Z" fill="#E6E6E6"/>
<path d="M105.567 5.92334H55.0117V46.8217H105.567V5.92334Z" fill="#F0F0F0"/>
<path d="M104.264 46.8188H54.4023V47.9471H104.264V46.8188Z" fill="#E6E6E6"/>
<path d="M107.727 46.8188H57.1719V47.9471H107.727V46.8188Z" fill="#F0F0F0"/>
<path d="M103.742 45.1219V7.62256L56.8297 7.62256V45.1219H103.742Z" fill="#FAFAFA"/>
<path d="M63.1055 45.1195L68.2787 7.62256H77.2353L72.0595 45.1195H63.1055Z" fill="white"/>
<path d="M73.9844 45.1195L79.1602 7.62256H82.6517L77.4759 45.1195H73.9844Z" fill="white"/>
<path d="M103.742 45.1194V7.62012H103.512V45.1194H103.742Z" fill="#E6E6E6"/>
<path opacity="0.5" d="M105.989 11.1965H56.1273L55.9609 8.28271H105.822L105.989 11.1965Z" fill="#E0E0E0"/>
<path opacity="0.5" d="M105.989 15.9837H56.1273L55.9609 13.0723H105.822L105.989 15.9837Z" fill="#E0E0E0"/>
<path opacity="0.5" d="M105.989 20.7717H56.1273L55.9609 17.8604H105.822L105.989 20.7717Z" fill="#E0E0E0"/>
<path opacity="0.5" d="M105.989 25.5623H56.1273L55.9609 22.6484H105.822L105.989 25.5623Z" fill="#E0E0E0"/>
<path opacity="0.5" d="M105.989 30.3499H56.1273L55.9609 27.436H105.822L105.989 30.3499Z" fill="#E0E0E0"/>
<path opacity="0.5" d="M105.989 35.1379H56.1273L55.9609 32.2241H105.822L105.989 35.1379Z" fill="#E0E0E0"/>
<path d="M26.5878 14.5142H11.0117V43.2721H26.5878V14.5142Z" fill="#E0E0E0"/>
<path d="M27.5121 14.5142H11.6289V43.2721H27.5121V14.5142Z" fill="#F5F5F5"/>
<path d="M12.9609 16.1773L12.9609 41.6079H26.182V16.1773H12.9609Z" fill="white"/>
<path d="M47.3847 10.126H31.8086V38.8839H47.3847V10.126Z" fill="#E0E0E0"/>
<path d="M48.309 10.126H32.4258V38.8839H48.309V10.126Z" fill="#F5F5F5"/>
<path d="M33.7539 11.7891V37.2197H46.9776V11.7891H33.7539Z" fill="white"/>
<path d="M44.618 51.7554H38.0625V78.2592H44.618V51.7554Z" fill="#E6E6E6"/>
<path d="M43.3719 78.2592H44.6159V75.5605H42.0664L43.3719 78.2592Z" fill="#F0F0F0"/>
<path d="M20.1141 51.7554H13.5586V78.2592H20.1141V51.7554Z" fill="#E6E6E6"/>
<path d="M44.6197 51.7554H19.0273V76.6028H44.6197V51.7554Z" fill="#F0F0F0"/>
<path d="M32.2383 53.4065V73.2271H43.6496V53.4065H32.2383Z" fill="#E6E6E6"/>
<path d="M19.9883 53.4065V73.2271H31.3996V53.4065H19.9883Z" fill="#E6E6E6"/>
<path d="M26.8234 54.1647H24.5657C23.6195 54.1734 22.7007 53.8685 21.9727 53.3042H29.4164C28.6883 53.8685 27.7695 54.1734 26.8234 54.1647Z" fill="#F0F0F0"/>
<path d="M39.1867 54.1647H36.929C35.9827 54.1738 35.0638 53.8689 34.3359 53.3042H41.7797C41.0516 53.8685 40.1328 54.1734 39.1867 54.1647Z" fill="#F0F0F0"/>
<path d="M20.2739 78.2592H19.0273V75.5605H21.5794L20.2739 78.2592Z" fill="#F0F0F0"/>
<path d="M25.0312 49.2261C25.0312 49.2261 25.2258 51.755 32.6875 51.755C40.1491 51.755 40.3437 49.2261 40.3437 49.2261H25.0312Z" fill="#E6E6E6"/>
<path d="M54.4446 60.564L110.457 60.564V56.1849L54.4446 56.1849V60.564Z" fill="#EBEBEB"/>
<path d="M54.4452 60.564H70.3438V56.1849H54.4452V60.564Z" fill="#E0E0E0"/>
<path d="M107.104 78.2593H110.457V60.5638H107.104V78.2593Z" fill="#EBEBEB"/>
<path d="M107.105 61.7902L110.459 61.1783V60.564H107.105V61.7902Z" fill="#E0E0E0"/>
<path d="M54.4475 78.2593H57.8008V60.5638H54.4475V78.2593Z" fill="#E0E0E0"/>
<path d="M66.9905 78.2593H70.3438V60.5638H66.9905V78.2593Z" fill="#EBEBEB"/>
<path d="M66.9922 61.7902L70.3455 61.1783V60.564H66.9922V61.7902Z" fill="#E0E0E0"/>
<path d="M96.6077 78.2593H99.9609V60.5638H96.6077V78.2593Z" fill="#E0E0E0"/>
</svg>
