<svg width="28" height="68" viewBox="0 0 28 68" fill="none" xmlns="http://www.w3.org/2000/svg">
<path d="M11.9069 58.1511C11.9234 58.1011 11.9461 58.053 11.9747 58.0077L12.1855 57.5947C12.4451 57.0608 12.6554 56.5082 12.8141 55.9428C13.2282 54.4751 13.3713 52.2327 12.7577 49.5704C12.4276 48.1183 11.9925 46.6873 11.4552 45.2869C10.9018 43.7681 10.2619 42.1571 9.7386 40.413C9.14782 38.594 8.86229 36.7047 8.89161 34.8086C8.97066 32.8256 9.61814 30.8459 10.3296 28.8766C11.0411 26.9072 11.7752 24.9753 11.9935 23.0367C12.2402 21.1713 11.8277 19.2831 10.8152 17.6439C9.87036 16.0671 8.68833 14.7223 7.80369 13.3263C6.97452 12.0336 6.36296 10.6359 5.98923 9.17934C5.456 7.06779 5.41752 4.87828 5.8763 2.7524C6.04506 1.97538 6.29722 1.21518 6.62918 0.482666C6.62035 0.534861 6.6065 0.586248 6.58777 0.636251L6.4372 1.06972C5.55147 3.69094 5.45658 6.47946 6.16239 9.1452C6.53962 10.5851 7.15248 11.9656 7.98061 13.241C8.86525 14.6062 10.0548 15.9715 11.0147 17.5518C12.0429 19.2233 12.4631 21.1463 12.2156 23.0469C11.9935 25.0197 11.2519 26.9618 10.5442 28.9312C9.83648 30.9006 9.19276 32.8563 9.11371 34.8052C9.08093 36.6821 9.35883 38.5528 9.93812 40.3549C10.4538 42.0888 11.09 43.6998 11.6321 45.2255C12.1649 46.6339 12.5937 48.0729 12.9158 49.5329C13.5143 52.2156 13.3412 54.4819 12.9158 55.953C12.7498 56.5203 12.5255 57.0723 12.2457 57.6015C12.1478 57.7722 12.0688 57.9053 12.0123 58.0077C11.9824 58.0585 11.9471 58.1065 11.9069 58.1511Z" fill="#263238"/>
<path d="M8.99735 14.7023C8.99735 14.7023 7.19418 9.48025 10.4278 6.42208C10.4529 6.39748 10.485 6.37966 10.5205 6.37062C10.5561 6.36157 10.5937 6.36165 10.6292 6.37085C10.6647 6.38005 10.6967 6.39801 10.7217 6.42272C10.7466 6.44743 10.7635 6.47793 10.7704 6.51082C10.9436 7.37434 11.1581 10.0025 8.99735 14.7023Z" fill="#407BFF"/>
<path d="M10.0913 8.16187C10.0852 8.48565 10.0436 8.80807 9.96705 9.12437C9.85035 9.807 9.71107 10.5681 9.55673 11.4282C9.40238 12.2884 9.27063 13.07 9.15393 13.7321C9.12349 14.0555 9.0592 14.3755 8.96195 14.6878C8.93151 14.3635 8.94288 14.037 8.99583 13.7151C9.05606 13.1178 9.17275 12.2986 9.33462 11.3975C9.49649 10.4965 9.66966 9.69096 9.81271 9.10048C9.8655 8.77895 9.95897 8.464 10.0913 8.16187Z" fill="#263238"/>
<path d="M11.1211 27.0226C11.1211 27.0226 12.2241 21.6401 16.6586 20.3158C16.6935 20.3047 16.7312 20.3027 16.7673 20.3099C16.8035 20.3172 16.8367 20.3334 16.8633 20.3568C16.8898 20.3801 16.9087 20.4097 16.9177 20.4423C16.9268 20.4748 16.9257 20.509 16.9146 20.541C16.6285 21.367 15.4577 23.7835 11.1211 27.0226Z" fill="#407BFF"/>
<path d="M15.4503 21.6981C15.2781 21.982 15.0751 22.2495 14.8442 22.4968C14.4 23.0361 13.873 23.6641 13.2933 24.3604L11.7348 26.2274C11.5402 26.499 11.3185 26.7538 11.0723 26.9885C11.2122 26.6886 11.3904 26.4045 11.6031 26.142C11.9795 25.6403 12.4877 24.9645 13.1088 24.2375C13.73 23.5105 14.2909 22.8722 14.7162 22.4081C14.9299 22.1465 15.1762 21.9083 15.4503 21.6981Z" fill="#263238"/>
<path d="M9.92806 40.5226C9.92806 40.5226 9.25799 35.082 13.0751 32.6382C13.1052 32.6185 13.1407 32.6069 13.1777 32.6045C13.2146 32.6021 13.2516 32.6091 13.2844 32.6247C13.3173 32.6403 13.3447 32.6638 13.3635 32.6927C13.3824 32.7217 13.392 32.7548 13.3913 32.7884C13.38 33.6621 13.0375 36.28 9.92806 40.5226Z" fill="#407BFF"/>
<path d="M12.3602 34.2866C12.2886 34.6044 12.1801 34.9145 12.0365 35.2116C11.7805 35.843 11.4831 36.5768 11.1481 37.4028L10.271 39.5941C10.1777 39.9058 10.0516 40.2086 9.89453 40.4985C9.93437 40.1752 10.0139 39.857 10.1317 39.5497C10.3161 38.9729 10.6022 38.1844 10.9523 37.3311C11.3024 36.4779 11.645 35.7099 11.9047 35.1604C12.0196 34.8544 12.1724 34.5613 12.3602 34.2866Z" fill="#263238"/>
<path d="M13.2643 54.1057C13.2643 54.1057 12.8088 48.6447 16.7201 46.3306C16.7506 46.3115 16.7865 46.3005 16.8235 46.2989C16.8606 46.2973 16.8974 46.3051 16.9299 46.3214C16.9624 46.3377 16.9892 46.3619 17.0073 46.3912C17.0254 46.4206 17.0341 46.454 17.0325 46.4876C16.9836 47.3579 16.5394 49.9622 13.2643 54.1057Z" fill="#407BFF"/>
<path d="M15.9411 47.9624C15.8508 48.2783 15.7247 48.5848 15.5647 48.8771C15.2824 49.4983 14.9549 50.2424 14.5897 51.0342L13.6223 53.1982C13.5236 53.4993 13.3951 53.7918 13.2383 54.0719C13.2889 53.7504 13.3811 53.4353 13.5131 53.1333C13.7164 52.5633 14.0363 51.7885 14.4203 50.9455C14.8043 50.1024 15.1732 49.3447 15.4555 48.8054C15.5827 48.5091 15.7456 48.2264 15.9411 47.9624Z" fill="#263238"/>
<path d="M6.41384 10.1152C6.41384 10.1152 1.06458 7.58269 0.95918 3.34698C0.957538 3.31336 0.966272 3.28 0.984397 3.25063C1.00252 3.22127 1.02932 3.19707 1.06178 3.18076C1.09425 3.16445 1.13108 3.15666 1.16815 3.15829C1.20522 3.15992 1.24106 3.1709 1.27163 3.18998C2.06592 3.6883 4.26811 5.4051 6.41384 10.1152Z" fill="#407BFF"/>
<path d="M2.07227 4.80029C2.32231 5.03158 2.54557 5.28548 2.73857 5.55801L4.24434 7.44889L5.75011 9.33635C5.9795 9.58417 6.18362 9.85036 6.35995 10.1316C6.07688 9.92609 5.82388 9.68867 5.60707 9.4251C5.18169 8.96774 4.62079 8.31242 4.03353 7.57176C3.44628 6.83111 2.93432 6.14507 2.5767 5.63992C2.37378 5.37841 2.20454 5.0967 2.07227 4.80029Z" fill="#263238"/>
<path d="M12.1652 21.3411C12.1652 21.3411 6.65785 19.1089 6.26635 14.8868C6.26323 14.8537 6.27026 14.8203 6.28668 14.7906C6.3031 14.7608 6.32826 14.7357 6.3594 14.718C6.39054 14.7004 6.42644 14.6909 6.46316 14.6906C6.49988 14.6902 6.53598 14.6991 6.5675 14.7162C7.39568 15.1565 9.7108 16.7504 12.1652 21.3411Z" fill="#407BFF"/>
<path d="M7.47656 16.2687C7.74088 16.4865 7.98049 16.7278 8.19181 16.9888L9.82557 18.7944L11.4631 20.5931C11.7075 20.8226 11.9268 21.0729 12.1181 21.3406C11.831 21.1402 11.5697 20.9112 11.3389 20.658C10.8834 20.2211 10.2811 19.5999 9.64488 18.8934C9.00869 18.1869 8.45155 17.5281 8.06381 17.0469C7.83625 16.8084 7.63924 16.5474 7.47656 16.2687Z" fill="#263238"/>
<path d="M8.99873 33.846C8.99873 33.846 5.21548 29.5796 6.99229 25.6545C7.0058 25.6235 7.02851 25.5964 7.0579 25.5764C7.08729 25.5563 7.12223 25.544 7.15884 25.5409C7.19546 25.5377 7.23233 25.5437 7.26538 25.5584C7.29844 25.573 7.32639 25.5956 7.34615 25.6238C7.85434 26.3781 9.1079 28.7502 8.99873 33.846Z" fill="#407BFF"/>
<path d="M7.36162 27.3982C7.48825 27.7006 7.58033 28.014 7.63643 28.3334C7.79453 28.9921 7.97899 29.7635 8.18603 30.6168C8.39308 31.4701 8.56248 32.238 8.7394 32.8934C8.84011 33.2044 8.90941 33.5232 8.94645 33.8456C8.77929 33.5562 8.65282 33.2489 8.57001 32.9309C8.38178 32.3541 8.15968 31.5656 7.94887 30.6577C7.73807 29.7499 7.57243 28.9512 7.46703 28.3641C7.39304 28.0466 7.35769 27.7227 7.36162 27.3982Z" fill="#263238"/>
<path d="M12.73 48.57C12.73 48.57 7.26028 46.2559 6.9516 42.0236C6.94922 41.9908 6.95681 41.9579 6.97353 41.9286C6.99025 41.8994 7.01548 41.8748 7.04648 41.8576C7.07748 41.8404 7.11308 41.8311 7.14943 41.8309C7.18579 41.8307 7.22151 41.8395 7.25275 41.8564C8.0734 42.324 10.3584 43.9521 12.73 48.57Z" fill="#407BFF"/>
<path d="M8.12891 43.4331C8.39027 43.6543 8.62614 43.899 8.83285 44.1635C9.29211 44.6925 9.83419 45.3103 10.4327 45.9929L12.0364 47.819C12.2775 48.0578 12.4942 48.316 12.6839 48.5903C12.4038 48.3908 12.151 48.1616 11.931 47.9077C11.4868 47.4674 10.8958 46.836 10.2746 46.1192C9.6535 45.4025 9.08884 44.7403 8.71239 44.2523C8.48612 43.9989 8.2905 43.7243 8.12891 43.4331Z" fill="#263238"/>
<path d="M23.63 27.0503C23.6353 27.0911 23.6353 27.1323 23.63 27.1732C23.63 27.2687 23.63 27.3814 23.63 27.5145C23.63 27.8558 23.5924 28.2893 23.566 28.8422C23.4945 30.0095 23.3966 31.6341 23.2799 33.583C22.9035 35.5627 21.7742 37.7573 20.2684 39.8871C19.1729 41.4572 18.0097 42.8873 17.0347 44.215C16.1334 45.3741 15.3221 46.5887 14.6067 47.85C14.139 48.7057 13.7609 49.5993 13.4774 50.519C13.3795 50.8433 13.308 51.0993 13.2666 51.2734C13.2499 51.3631 13.2234 51.4512 13.1875 51.5362C13.1887 51.4455 13.2001 51.3551 13.2214 51.2665C13.2477 51.089 13.308 50.8296 13.3908 50.4986C13.6462 49.5575 14.007 48.6426 14.4674 47.7681C15.1671 46.4915 15.9685 45.2629 16.8653 44.0921C17.8479 42.7542 18.9923 41.324 20.0839 39.7642C21.5897 37.6413 22.6739 35.4807 23.0955 33.5318C23.2461 31.5898 23.3703 29.9651 23.4719 28.7978C23.5209 28.2449 23.5623 27.8012 23.5886 27.4735C23.5886 27.337 23.6187 27.2209 23.63 27.1322C23.6268 27.105 23.6268 27.0775 23.63 27.0503Z" fill="#263238"/>
<path d="M20.3945 39.498C20.3945 39.498 22.7096 34.4431 19.7959 31.1324C19.7734 31.1058 19.7431 31.0855 19.7085 31.0736C19.6739 31.0617 19.6363 31.0588 19.6 31.0652C19.5637 31.0716 19.53 31.087 19.5028 31.1097C19.4756 31.1324 19.4559 31.1615 19.4458 31.1938C19.171 32.0403 18.693 34.6513 20.3945 39.498Z" fill="#407BFF"/>
<path d="M19.9445 32.8967C20.0443 33.2082 20.1062 33.5287 20.129 33.8524C20.2118 34.4463 20.3021 35.2689 20.3737 36.1802C20.4452 37.0915 20.4791 37.9175 20.4791 38.5148C20.5023 38.839 20.4808 39.1647 20.4151 39.4841C20.3496 39.1668 20.3181 38.8444 20.321 38.5216C20.272 37.839 20.2118 37.0642 20.1478 36.1938C20.0838 35.3235 20.0198 34.535 19.9709 33.8661C19.927 33.5445 19.9181 33.2198 19.9445 32.8967Z" fill="#263238"/>
<g opacity="0.3">
<path opacity="0.3" d="M20.3906 39.4969C20.3906 39.4969 22.7057 34.442 19.792 31.1313C19.7694 31.1047 19.7392 31.0844 19.7046 31.0725C19.67 31.0606 19.6324 31.0577 19.5961 31.0641C19.5598 31.0705 19.5261 31.0859 19.4989 31.1086C19.4717 31.1313 19.452 31.1604 19.4419 31.1927C19.1671 32.0392 18.6891 34.6502 20.3906 39.4969Z" fill="black"/>
</g>
<path d="M13.1992 51.676C13.1992 51.676 15.055 46.4709 11.8553 43.3855C11.8305 43.3609 11.7987 43.343 11.7634 43.3337C11.7281 43.3245 11.6906 43.3243 11.6552 43.3331C11.6198 43.3419 11.5877 43.3595 11.5626 43.3838C11.5374 43.408 11.5202 43.4382 11.5127 43.4708C11.3282 44.3309 11.0873 46.9556 13.1992 51.676Z" fill="#407BFF"/>
<path d="M12.1855 45.126C12.3135 45.4299 12.4031 45.7459 12.4528 46.068C12.5883 46.6517 12.754 47.464 12.9083 48.3685C13.0627 49.2729 13.1681 50.0921 13.2208 50.6894C13.2719 51.0116 13.2795 51.3383 13.2434 51.6621C13.1517 51.3491 13.0912 51.0293 13.0627 50.7065C12.9535 50.0238 12.8255 49.2627 12.6862 48.3992C12.5469 47.5357 12.4114 46.7575 12.3098 46.0919C12.2334 45.7744 12.1918 45.4509 12.1855 45.126Z" fill="#263238"/>
<g opacity="0.3">
<path opacity="0.3" d="M13.2031 51.6771C13.2031 51.6771 15.0589 46.472 11.8592 43.3866C11.8344 43.362 11.8026 43.3441 11.7673 43.3348C11.732 43.3256 11.6945 43.3254 11.6591 43.3342C11.6237 43.343 11.5916 43.3606 11.5665 43.3849C11.5413 43.4091 11.5241 43.4393 11.5166 43.4719C11.3321 44.332 11.0912 46.9567 13.2031 51.6771Z" fill="black"/>
</g>
<path d="M23.3184 33.3244C23.3184 33.3244 28.2648 30.1843 27.7641 25.9725C27.7609 25.9391 27.7475 25.9072 27.7255 25.8803C27.7034 25.8534 27.6735 25.8326 27.6391 25.8202C27.6048 25.8078 27.5673 25.8043 27.5309 25.8101C27.4944 25.8159 27.4605 25.8308 27.4329 25.853C26.7176 26.4606 24.7752 28.4027 23.3184 33.3244Z" fill="#407BFF"/>
<g opacity="0.3">
<path opacity="0.3" d="M23.3184 33.3229C23.3184 33.3229 28.2648 30.1829 27.7641 25.971C27.7609 25.9376 27.7475 25.9057 27.7255 25.8788C27.7034 25.8519 27.6735 25.8311 27.6391 25.8187C27.6048 25.8063 27.5673 25.8028 27.5309 25.8086C27.4944 25.8144 27.4605 25.8293 27.4329 25.8516C26.7176 26.4591 24.7752 28.4012 23.3184 33.3229Z" fill="black"/>
</g>
<path d="M26.8777 27.5452C26.7778 27.8561 26.6402 28.156 26.4674 28.4394C26.1851 28.9821 25.7747 29.7193 25.2967 30.5248C24.8186 31.3303 24.3593 32.0437 24.0017 32.5488C23.8307 32.8342 23.6194 33.0981 23.373 33.3339C23.5088 33.0344 23.6739 32.7466 23.8662 32.4737L25.0972 30.4259L26.3244 28.378C26.4767 28.0838 26.6621 27.8048 26.8777 27.5452Z" fill="#263238"/>
<path d="M15.1895 46.5143C15.1895 46.5143 21.141 45.6713 22.7522 41.6915C22.7655 41.6602 22.7689 41.626 22.762 41.593C22.7552 41.56 22.7383 41.5293 22.7132 41.5045C22.6882 41.4797 22.6561 41.4617 22.6204 41.4525C22.5847 41.4434 22.5469 41.4434 22.5113 41.4526C21.5815 41.6915 18.8824 42.6779 15.1895 46.5143Z" fill="#407BFF"/>
<g opacity="0.3">
<path opacity="0.3" d="M15.1895 46.5157C15.1895 46.5157 21.141 45.6727 22.7522 41.693C22.7655 41.6616 22.7689 41.6275 22.762 41.5945C22.7552 41.5614 22.7383 41.5308 22.7132 41.506C22.6882 41.4812 22.6561 41.4632 22.6204 41.454C22.5847 41.4448 22.5469 41.4449 22.5113 41.4541C21.5815 41.693 18.8824 42.6794 15.1895 46.5157Z" fill="black"/>
</g>
<path d="M21.1781 42.7477C20.9377 42.9854 20.6702 43.1993 20.3801 43.3859C19.8643 43.7614 19.1378 44.2597 18.3172 44.7887C17.4965 45.3178 16.7361 45.7785 16.1752 46.0926C15.8803 46.278 15.5618 46.4304 15.2266 46.5465C15.4928 46.331 15.7801 46.138 16.0849 45.9697L18.1892 44.6249L20.286 43.2597C20.563 43.0614 20.862 42.8898 21.1781 42.7477Z" fill="#263238"/>
<path d="M9.49503 56.4683L7.75586 67.0831H18.5974L17.1895 56.4683H9.49503Z" fill="#455A64"/>
<path d="M17.6354 59.7568C17.6354 59.8149 15.6779 59.8593 13.2611 59.8593C10.8444 59.8593 8.89062 59.8149 8.89062 59.7568C10.3446 59.6557 11.8033 59.6216 13.2611 59.6544C14.7202 59.6215 16.1802 59.6557 17.6354 59.7568Z" fill="#263238"/>
<path d="M17.8549 60.5912C17.8549 60.6458 15.8334 60.6935 13.3376 60.6935C10.8418 60.6935 8.82031 60.6458 8.82031 60.5912C8.82031 60.5365 10.8418 60.4888 13.3376 60.4888C15.8334 60.4888 17.8549 60.5434 17.8549 60.5912Z" fill="#263238"/>
</svg>
