<svg width="27" height="42" viewBox="0 0 27 42" fill="none" xmlns="http://www.w3.org/2000/svg">
<path d="M22.4961 18.4738C21.5771 13.9127 18.2134 7.41221 14.1099 3.78836C10.1626 0.307047 4.30371 -0.906672 1.96935 0.700088C-0.365008 2.30685 1.16519 5.77954 5.69606 10.0124C10.8105 14.7852 20.6304 28.028 22.4961 35.5305V18.4738Z" fill="#407BFF"/>
<g opacity="0.2">
<path opacity="0.2" d="M22.4961 18.4736C21.5771 13.9124 18.2134 7.41197 14.1099 3.78812C10.1626 0.306803 4.30372 -0.906916 1.96935 0.699844C-0.36501 2.3066 1.16519 5.77929 5.69606 10.0122C10.8105 14.7849 20.6305 28.0277 22.4961 35.5303V18.4736Z" fill="black"/>
</g>
<path d="M22.4988 29.4489C22.4412 29.4481 22.386 29.4274 22.3436 29.3907C22.3012 29.3541 22.2747 29.3041 22.269 29.2502C21.111 17.761 12.564 4.84644 4.34774 2.15555C4.29038 2.13598 4.2434 2.09614 4.2168 2.04451C4.1902 1.99289 4.18607 1.93355 4.20529 1.87911C4.22611 1.8252 4.26849 1.78105 4.32341 1.75604C4.37833 1.73104 4.44146 1.72715 4.49938 1.74522C13.0189 4.53113 21.543 17.3679 22.7377 29.2113C22.7429 29.2684 22.7242 29.3252 22.6856 29.3695C22.647 29.4139 22.5915 29.4423 22.531 29.4489H22.4988Z" fill="white"/>
<path d="M22.4967 41.046C22.4967 41.046 20.9068 42.2381 15.6039 41.7717C10.3011 41.3052 7.56692 37.7418 7.56692 36.2128C7.56692 34.6838 12.4424 34.4203 13.4993 30.628C12.4243 31.7111 10.9941 32.4243 9.43717 32.6537C6.68005 33.1418 4.46516 32.3125 3.83562 27.5916C5.19452 27.7783 6.58084 27.6704 7.88859 27.2763C10.0713 26.6154 10.5906 25.4881 10.0208 25.2462C9.45096 25.0043 6.40893 25.2462 4.46057 24.5508C2.5122 23.8554 4.00105 14.3185 5.27852 13.6404C6.55598 12.9623 12.5987 14.5604 13.775 15.4156C14.8228 16.1758 16.2932 17.4932 15.6131 20.2791C16.4187 19.5712 17.0466 18.7037 17.4512 17.7394C18.021 16.4436 18.4346 16.7459 19.2893 17.2427C19.8025 17.5146 20.248 17.8865 20.5959 18.3335C20.9438 18.7804 21.1861 19.2921 21.3066 19.8342C21.5134 21.0436 21.1779 25.216 19.3674 26.5722C19.3674 26.5722 21.1044 26.7795 22.5243 24.0239C22.5243 24.0239 25.2814 25.0691 25.9064 26.7623C26.5313 28.4554 27.2114 36.744 22.4967 41.046Z" fill="#407BFF"/>
<path d="M22.9638 41.9878C22.9076 41.9873 22.8535 41.9678 22.8113 41.9329C22.7692 41.898 22.7417 41.85 22.734 41.7977C21.5209 32.4639 13.971 20.2015 6.56813 15.5972C6.51695 15.5651 6.48141 15.5152 6.46935 15.4585C6.45728 15.4018 6.46968 15.3429 6.5038 15.2948C6.53793 15.2467 6.59099 15.2133 6.65131 15.202C6.71163 15.1906 6.77428 15.2023 6.82546 15.2344C14.3202 19.9208 21.9896 32.3083 23.1889 41.7459C23.1968 41.8026 23.1804 41.8599 23.1433 41.9052C23.1063 41.9506 23.0516 41.9803 22.9913 41.9878H22.9638Z" fill="white"/>
</svg>
