<svg width="90" height="73" viewBox="0 0 90 73" fill="none" xmlns="http://www.w3.org/2000/svg">
<path d="M25.2671 28.1683H33.2778V69.1616H25.2671V28.1683Z" fill="#EBEBEB"/>
<path d="M-0.000368118 28.1683H25.3281V69.1616H-0.000368118V28.1683Z" fill="#F5F5F5"/>
<path d="M1.19569 29.4486H23.2759V47.3458H1.19569V29.4486Z" fill="#E0E0E0"/>
<path d="M1.19569 49.2566H23.2759V67.1537H1.19569V49.2566Z" fill="#E0E0E0"/>
<path d="M20.7832 41.9692V47.0714H12.6035H3.58135V41.9692H20.7832Z" fill="#F5F5F5"/>
<path d="M21.5054 40.5417V41.9678H2.98181V40.5417H12.6049H21.5054Z" fill="#F5F5F5"/>
<path d="M12.2456 47.0699H3.58475V41.9677H2.9838V40.5416H12.6069V41.8351L12.2456 47.0699Z" fill="#F5F5F5"/>
<path d="M14.8871 42.7904H18.375V43.559H14.8871V42.7904Z" fill="white"/>
<path d="M14.3455 44.5184H18.8252V46.1397H14.3455V44.5184Z" fill="white"/>
<path d="M2.82965 41.9546C2.82965 41.9976 6.9892 42.0334 12.1189 42.0334C17.2486 42.0334 21.4082 41.9976 21.4082 41.9546C21.4082 41.9116 17.2506 41.8776 12.1189 41.8776C6.98724 41.8776 2.82965 41.9116 2.82965 41.9546Z" fill="#E0E0E0"/>
<path d="M12.0088 47.0516C12.0559 47.0516 12.0952 45.9212 12.0952 44.5256C12.0952 43.13 12.0559 41.9978 12.0088 41.9978C11.9617 41.9978 11.9243 43.13 11.9243 44.5256C11.9243 45.9212 11.9617 47.0516 12.0088 47.0516Z" fill="#E0E0E0"/>
<path d="M20.7832 61.8887V66.9909H12.6035H3.58135V61.8887H20.7832Z" fill="#EBEBEB"/>
<path d="M21.5054 60.462V61.8881H2.97985V60.462H12.603H21.5054Z" fill="#EBEBEB"/>
<path d="M12.2475 66.9903H3.58475V61.8881H2.9838V60.462H12.6069V61.7573L12.2475 66.9903Z" fill="#EBEBEB"/>
<path d="M14.8871 62.7117H18.375V63.4802H14.8871V62.7117Z" fill="white"/>
<path d="M14.3455 64.4406H18.8252V66.0619H14.3455V64.4406Z" fill="white"/>
<path d="M2.82965 61.874C2.82965 61.917 6.9892 61.9529 12.1189 61.9529C17.2486 61.9529 21.4082 61.917 21.4082 61.874C21.4082 61.831 17.2506 61.797 12.1189 61.797C6.98724 61.797 2.82965 61.831 2.82965 61.874Z" fill="#E0E0E0"/>
<path d="M12.0088 66.9729C12.0559 66.9729 12.0952 65.8407 12.0952 64.4451C12.0952 63.0495 12.0559 61.9191 12.0088 61.9191C11.9617 61.9191 11.9244 63.0495 11.9244 64.4451C11.9244 65.8407 11.9617 66.9729 12.0088 66.9729Z" fill="#E0E0E0"/>
<path d="M19.1875 36.5084V40.5429H12.7223H5.58942V36.5084H19.1875Z" fill="#EBEBEB"/>
<path d="M19.7637 35.3815V36.5083H5.11882V35.3815H12.727H19.7637Z" fill="#EBEBEB"/>
<path d="M12.4433 40.5428H5.59707V36.5083H5.12181V35.3815H12.73V36.4044L12.4433 40.5428Z" fill="#EBEBEB"/>
<path d="M14.5332 37.1586H17.2905V37.7659H14.5332V37.1586Z" fill="white"/>
<path d="M14.1153 38.5258H17.6562V39.8085H14.1153V38.5258Z" fill="white"/>
<path d="M5.02386 36.4978C5.02386 36.5408 8.31143 36.5748 12.3669 36.5748C16.4224 36.5748 19.7119 36.5408 19.7119 36.4978C19.7119 36.4548 16.4243 36.4189 12.3669 36.4189C8.30947 36.4189 5.02386 36.4637 5.02386 36.4978Z" fill="#E0E0E0"/>
<path d="M12.2681 40.5269C12.3152 40.5269 12.3545 39.6312 12.3545 38.5294C12.3545 37.4276 12.3152 36.5319 12.2681 36.5319C12.2209 36.5319 12.1836 37.4276 12.1836 38.5294C12.1836 39.6312 12.2229 40.5269 12.2681 40.5269Z" fill="#E0E0E0"/>
<path d="M5.04738 40.5062C5.04738 40.5492 8.2132 40.5851 12.1174 40.5851C16.0217 40.5851 19.1875 40.5492 19.1875 40.5062C19.1875 40.4632 16.0236 40.4292 12.1174 40.4292C8.21123 40.4292 5.04738 40.4632 5.04738 40.5062Z" fill="#E0E0E0"/>
<path d="M13.9501 27.6807L14.9438 27.5535V23.9167L13.9501 24.0439V27.6807Z" fill="#E0E0E0"/>
<path d="M14.3796 24.1495C19.8058 24.1495 24.2207 20.1652 24.2207 15.2672C24.216 13.677 23.7431 12.1171 22.8515 10.7506C21.9598 9.38407 20.6821 8.26117 19.1519 7.49926L19.0419 7.44373L18.384 8.27498L18.6138 8.42547L19.1244 7.77874C20.5811 8.527 21.7942 9.61438 22.6398 10.93C23.4855 12.2455 23.9334 13.7422 23.9379 15.2672C23.9379 20.0237 19.6507 23.8933 14.3796 23.8933C12.1997 23.8929 10.0843 23.2191 8.37787 21.9818L8.77066 21.6235L8.57427 21.4444L7.95367 22.0033L8.07347 22.0947C10.2966 23.759 11.9993 24.1495 14.3796 24.1495Z" fill="#E0E0E0"/>
<path d="M10.188 27.5547H18.9058V28.1692H10.188V27.5547Z" fill="#E0E0E0"/>
<path d="M13.95 23.1224C9.16787 23.1224 5.29117 19.562 5.29117 15.1699C5.29117 10.7779 9.16787 7.21741 13.95 7.21741C18.7322 7.21741 22.6089 10.7779 22.6089 15.1699C22.6089 19.562 18.7322 23.1224 13.95 23.1224Z" fill="#F5F5F5"/>
<path d="M17.1579 18.7134C17.1127 18.3677 16.8182 18.0165 16.9871 17.7048C17.1835 17.3555 17.7333 17.411 18.1222 17.2551C18.6682 17.0366 18.8371 16.4203 19.1925 15.9832C19.5126 15.5926 20.257 15.1645 20.8245 15.2827C20.9812 15.3037 21.1252 15.3732 21.2325 15.4795C21.3397 15.5859 21.4037 15.7225 21.4137 15.8667H21.4648C21.6179 15.8524 21.7947 15.8452 21.8792 15.7306C21.9636 15.6159 21.8791 15.3973 21.9793 15.2666C22.0421 15.2064 22.1159 15.1567 22.1973 15.1197C22.27 15.0713 22.3328 14.9817 22.2876 14.9083C22.2425 14.8348 22.1561 14.8348 22.107 14.7793C22.088 14.757 22.0777 14.7296 22.0777 14.7013C22.0777 14.6731 22.088 14.6457 22.107 14.6234C22.2621 14.4443 22.4369 14.8026 22.5233 14.8796C22.5447 14.9007 22.5677 14.9205 22.592 14.9387C22.593 14.953 22.593 14.9674 22.592 14.9817C22.592 15.0283 22.592 15.0767 22.592 15.125C22.592 15.1734 22.592 15.22 22.592 15.2666C22.592 15.3131 22.592 15.3436 22.592 15.383C22.592 15.4224 22.592 15.4601 22.592 15.4977C22.4988 15.5293 22.4093 15.5695 22.325 15.6177C22.158 15.7073 21.9695 15.8237 21.9577 16.0011C21.9621 16.0302 21.9558 16.0597 21.94 16.0853C21.9196 16.1069 21.8907 16.1204 21.8595 16.1229C21.7151 16.154 21.5678 16.1726 21.4196 16.1784C21.4196 16.3379 21.4058 16.5045 21.4078 16.6622C21.443 16.8877 21.4626 17.1151 21.4667 17.3429C21.4275 17.6618 21.1839 17.9252 20.9718 18.1831C20.1627 19.1667 19.7267 20.2971 19.2554 21.4526C19.167 21.5171 19.0413 21.6013 18.951 21.6604C18.8606 21.7196 18.8155 21.7482 18.7408 21.793C18.6662 21.8378 18.6034 21.8754 18.5287 21.9184C18.4541 21.9614 18.4659 21.9578 18.4129 21.9865C18.4129 21.9722 18.4129 21.9865 18.4129 21.9865C18.6092 21.6067 18.6092 21.0782 18.1949 20.8901C18.1124 20.8622 18.0344 20.8243 17.9631 20.7772C17.7805 20.6214 17.9297 20.2953 17.7471 20.1377C17.645 20.0517 17.4839 20.0571 17.3543 20.0051C17.1245 19.9084 17.0499 19.6468 17.0676 19.4103C17.123 19.1813 17.1533 18.9479 17.1579 18.7134Z" fill="#E0E0E0"/>
<path d="M22.0729 12.8936C22.035 12.8599 21.9902 12.8336 21.9409 12.8161C21.8917 12.7986 21.8391 12.7904 21.7863 12.7919C21.7335 12.7934 21.6816 12.8046 21.6336 12.8248C21.5857 12.8451 21.5427 12.8739 21.5072 12.9097C21.4346 13.034 21.4184 13.1794 21.4621 13.3146C21.4935 13.4937 21.5249 13.6836 21.5583 13.8681C21.5729 13.9234 21.5695 13.9813 21.5485 14.0348C21.4896 14.153 21.2775 14.1297 21.197 14.024C21.1278 13.9098 21.1095 13.7757 21.1459 13.6496C21.1844 13.5236 21.1844 13.3904 21.1459 13.2644C21.0084 12.967 20.5233 13.0118 20.2405 12.8183C20.0841 12.678 19.9622 12.5088 19.8831 12.3221C19.8425 12.2289 19.7748 12.1475 19.6872 12.0869C19.5996 12.0263 19.4956 11.9887 19.3862 11.9781C19.3116 11.9781 19.2389 12.005 19.1663 12.0032C19.1139 11.9978 19.0641 11.9796 19.022 11.9506C18.9799 11.9217 18.9472 11.8829 18.9271 11.8384C18.907 11.794 18.9004 11.7454 18.908 11.6978C18.9155 11.6502 18.9369 11.6053 18.9699 11.5678C19.0058 11.5417 19.0381 11.5116 19.0661 11.4783C19.0814 11.4432 19.0829 11.4045 19.0704 11.3685C19.0579 11.3326 19.0321 11.3017 18.9974 11.2812C18.9277 11.2427 18.8489 11.22 18.7676 11.2149L18.2138 11.1343C18.0174 11.1056 17.7464 11.0089 17.7758 10.8226C17.8053 10.6363 18.041 10.5897 18.0763 10.4302C18.079 10.3901 18.0869 10.3504 18.0999 10.312C18.1549 10.2099 18.3238 10.2511 18.4318 10.312C18.4456 10.2765 18.4681 10.2443 18.4978 10.218C18.5274 10.1917 18.5632 10.172 18.6025 10.1604C18.6419 10.1488 18.6836 10.1456 18.7245 10.1511C18.7653 10.1566 18.8043 10.1705 18.8383 10.192C18.9483 10.2744 18.962 10.4195 19.0013 10.5503C19.1229 10.8428 19.3309 11.0989 19.6023 11.2902C19.6772 11.3691 19.78 11.4217 19.8929 11.4389C20.0068 11.4389 20.1266 11.3332 20.0756 11.2418C20.0382 11.1791 19.9401 11.1433 19.9499 11.0734C19.9597 11.0035 20.1306 10.9928 20.1639 10.9086C20.0972 10.6613 19.7869 10.5503 19.5492 10.4267C19.2571 10.2638 19.0346 10.0147 18.9188 9.7208C18.9077 9.69795 18.902 9.67324 18.902 9.64824C18.902 9.62325 18.9077 9.59854 18.9188 9.57569C18.9542 9.51299 19.0465 9.50403 19.125 9.50403C19.3077 9.50403 19.5375 9.52373 19.6042 9.68318C19.6217 9.77136 19.6322 9.86056 19.6356 9.95011C19.7005 10.2099 20.0913 10.2385 20.3289 10.3926C20.4119 10.4634 20.502 10.527 20.598 10.5825C20.714 10.622 20.8375 10.6403 20.9613 10.6363C20.9829 10.6363 21.0398 10.6363 21.0614 10.6363C21.1361 10.7312 21.197 10.8154 21.2578 10.9175C21.3187 11.0196 21.3992 11.1271 21.464 11.2292C21.7687 11.7142 22.015 12.2277 22.1985 12.761C22.2673 12.9401 22.3242 13.1497 22.3753 13.3432C22.4264 13.5367 22.4637 13.7177 22.499 13.9165C22.4258 13.7567 22.3737 13.5895 22.3439 13.4185C22.3178 13.2215 22.2227 13.0374 22.0729 12.8936Z" fill="#E0E0E0"/>
<path d="M14.803 9.32039C14.7205 9.22186 14.7441 9.08212 14.691 8.96209C14.6046 8.78294 14.3297 8.7059 14.2354 8.52138C14.1981 8.44972 14.1902 8.36193 14.1254 8.30998C14.0606 8.25803 13.9938 8.25624 13.929 8.21682C13.9022 8.19042 13.8822 8.15884 13.8706 8.12443C13.8589 8.09002 13.8559 8.05367 13.8618 8.01805C13.8676 7.98244 13.8822 7.94848 13.9043 7.91869C13.9265 7.88891 13.9558 7.86406 13.9899 7.84598C14.3297 7.64712 14.9542 7.87644 15.2468 8.06992C15.6239 8.31894 15.9931 8.61812 16.4959 8.58946C16.6312 8.56345 16.771 8.56345 16.9063 8.58946C17.0359 8.63424 17.1165 8.8116 17.0045 8.88685C16.9436 8.92805 16.8553 8.9173 16.7846 8.94597C16.726 8.98304 16.6852 9.03916 16.6706 9.1028C16.656 9.16643 16.6687 9.23275 16.706 9.28814C16.7688 9.40459 16.8828 9.49238 16.9574 9.60345C17.0297 9.71069 17.0621 9.83636 17.0497 9.96175C17.0483 10.0054 17.0374 10.0483 17.0175 10.088C16.9975 10.1277 16.9691 10.1634 16.9338 10.1929C16.7767 10.3075 16.541 10.2108 16.4075 10.0728C16.2739 9.93488 16.1836 9.75931 16.0147 9.66615C15.9259 9.62361 15.8305 9.59342 15.7319 9.57658L15.0779 9.43505C14.9749 9.42553 14.8783 9.38522 14.803 9.32039Z" fill="#E0E0E0"/>
<path d="M5.2965 15.108C5.2965 14.9933 5.2965 14.8822 5.2965 14.7694C5.2965 14.6565 5.30828 14.5436 5.32006 14.4326C5.33185 14.3215 5.3397 14.2534 5.35345 14.1638C5.36719 14.0743 5.37898 13.9614 5.39665 13.87C5.44582 13.6017 5.51138 13.3362 5.59304 13.0746C5.62643 12.9725 5.67946 12.8614 5.71677 12.7611C5.75409 12.6608 5.7914 12.5586 5.83264 12.4583C5.87781 12.3831 5.92298 12.3096 5.97404 12.2362C6.4552 11.5411 7.15239 10.9964 7.68264 10.3318C7.85547 10.115 7.98901 9.93766 8.29538 9.89466C8.74708 9.83017 8.97489 10.0738 9.29697 9.67431C9.38142 9.5704 9.53264 9.47187 9.6603 9.53457L9.56014 9.78717C9.55523 9.80541 9.55523 9.82447 9.56014 9.84271C9.56014 9.90004 9.66226 9.91616 9.71725 9.88391C9.76615 9.84436 9.80675 9.79701 9.83705 9.74418C9.87467 9.70004 9.92189 9.66349 9.97576 9.63683C10.0296 9.61016 10.089 9.59396 10.15 9.58925C10.2111 9.58454 10.2726 9.59141 10.3306 9.60945C10.3886 9.62748 10.4419 9.65627 10.4871 9.69402C10.4924 9.65529 10.5086 9.61847 10.5341 9.5871C10.5595 9.55572 10.5934 9.53085 10.6324 9.51486C10.639 9.55242 10.6541 9.58831 10.6769 9.62017C10.6996 9.65203 10.7295 9.67916 10.7645 9.69979C10.7995 9.72041 10.8389 9.73407 10.8801 9.73986C10.9213 9.74566 10.9634 9.74347 11.0036 9.73343C11.0311 9.65819 10.8818 9.64385 10.8288 9.57936C10.7758 9.51486 10.8386 9.43246 10.8995 9.3805C11.0638 9.25121 11.2718 9.17723 11.4887 9.1709C11.6268 9.18707 11.7672 9.17168 11.8972 9.12611C11.9659 9.08849 12.015 9.02578 12.0936 8.98995C12.1761 8.96359 12.2646 8.95634 12.3509 8.96885C12.4373 8.98136 12.5189 9.01323 12.5885 9.06161C12.8108 9.14872 12.9894 9.30846 13.0893 9.50949C13.1639 9.71731 12.9989 9.99857 12.7593 9.9717C12.7009 9.95518 12.6396 9.9491 12.5787 9.95378C12.5383 9.97016 12.5042 9.99715 12.4808 10.0313C12.4573 10.0655 12.4456 10.1052 12.4471 10.1455C12.453 10.2248 12.4396 10.3043 12.4078 10.3784C12.3666 10.4482 12.2428 10.4841 12.1937 10.4178C12.1474 10.361 12.1169 10.2948 12.1049 10.2249C12.0929 10.155 12.0998 10.0834 12.125 10.0165C12.174 9.88188 12.1627 9.73506 12.0936 9.60802C12.0013 9.49516 11.7401 9.53099 11.7577 9.67072C11.7695 9.75313 11.8717 9.81405 11.8677 9.89825C11.8638 9.98245 11.7499 10.0272 11.6576 10.0237C11.5657 10.008 11.4719 10.0037 11.3787 10.0111C11.2884 10.0308 11.2157 10.1401 11.2805 10.201C11.3944 10.3193 11.691 10.1168 11.7499 10.2637C11.7558 10.3035 11.7558 10.3439 11.7499 10.3837C11.7597 10.5056 11.9286 10.5504 12.0622 10.5629C12.1934 10.5857 12.3289 10.5764 12.4549 10.536C12.4858 10.5245 12.5138 10.5074 12.5374 10.4859C12.561 10.4643 12.5796 10.4387 12.5923 10.4105C12.6049 10.3824 12.6112 10.3522 12.6109 10.3217C12.6106 10.2913 12.6036 10.2612 12.5904 10.2333C12.6091 10.2243 12.6296 10.2191 12.6506 10.2178C12.6716 10.2165 12.6927 10.2193 12.7124 10.2258C12.7322 10.2324 12.7503 10.2427 12.7655 10.256C12.7806 10.2693 12.7926 10.2854 12.8006 10.3031C12.8295 10.3761 12.8349 10.455 12.8163 10.5306C12.9577 10.502 13.0853 10.6113 13.1659 10.7205C13.2464 10.8298 13.3269 10.957 13.4644 10.9964C13.6019 11.0359 13.7963 10.9821 13.8689 11.0968C13.9632 11.2473 13.6902 11.4372 13.7865 11.5858C13.8414 11.67 13.973 11.6665 14.0771 11.6933C14.1419 11.7171 14.1997 11.7544 14.246 11.8022C14.2922 11.8499 14.3255 11.9069 14.3432 11.9686C14.361 12.0302 14.3627 12.0947 14.3482 12.1571C14.3337 12.2194 14.3034 12.2778 14.2598 12.3275C14.2098 12.3732 14.1504 12.4095 14.085 12.4343C14.0196 12.459 13.9495 12.4718 13.8788 12.4718C13.808 12.4718 13.7379 12.459 13.6725 12.4343C13.6071 12.4095 13.5478 12.3732 13.4978 12.3275C13.3795 12.1835 13.2806 12.0272 13.2032 11.8617C13.103 11.7095 12.9145 11.5679 12.726 11.6181C12.6531 11.6438 12.5864 11.6821 12.5296 11.731L12.2546 11.9424C12.1957 11.9871 12.1309 12.0445 12.1368 12.1215C12.1427 12.1985 12.1898 12.22 12.2114 12.2738C12.2684 12.4243 12.0288 12.5676 11.8775 12.4852C11.8077 12.4368 11.7617 12.3652 11.7495 12.286C11.7374 12.2068 11.7601 12.1264 11.8127 12.0624C11.9561 11.8832 12.2782 11.7919 12.2703 11.5697C12.1054 11.4479 11.8461 11.5697 11.7499 11.7489C11.6537 11.928 11.6517 12.1269 11.5712 12.306C11.4907 12.4852 11.2786 12.6357 11.0822 12.5461L11.2295 12.0839C11.1097 12.0015 10.9702 12.2415 10.8269 12.2021C10.7385 12.177 10.7287 12.0606 10.766 11.9836C10.816 11.9131 10.8562 11.8373 10.8858 11.7578C10.8875 11.7198 10.8799 11.682 10.8636 11.647C10.8472 11.612 10.8226 11.5807 10.7914 11.5555C10.7601 11.5303 10.7232 11.5117 10.6831 11.5012C10.643 11.4906 10.6009 11.4883 10.5598 11.4945C10.4769 11.5127 10.4019 11.5531 10.3445 11.6106C10.287 11.6681 10.2499 11.74 10.2377 11.817C10.2326 11.8782 10.218 11.9385 10.1945 11.9961C10.1316 12.1161 9.96863 12.1538 9.83508 12.2039C9.70154 12.2541 9.55817 12.3831 9.61513 12.4995C9.64066 12.5533 9.7035 12.6034 9.67993 12.659C9.65636 12.7145 9.58174 12.7288 9.58174 12.7808C9.58174 12.8327 9.62102 12.8399 9.65833 12.8542C9.74867 12.8883 9.85472 12.899 9.93328 12.9384C9.97901 12.9539 10.0187 12.9814 10.0473 13.0174C10.076 13.0535 10.0923 13.0964 10.0943 13.1409C10.0845 13.2645 9.9215 13.32 9.84294 13.4293C9.79227 13.5391 9.75601 13.6539 9.73493 13.7715C9.67879 13.8707 9.60881 13.9628 9.52675 14.0456C9.3009 14.3269 9.24591 14.6905 9.13397 15.0255C9.08487 15.1778 8.99453 15.3462 8.82367 15.3838C8.72959 15.3901 8.63537 15.3734 8.55069 15.3355C8.2989 15.2662 8.06872 15.1434 7.87903 14.9772C7.78749 14.8904 7.73207 14.7772 7.72239 14.6572C7.71271 14.5371 7.74937 14.4177 7.82601 14.3197C7.84592 14.2947 7.87534 14.2775 7.90849 14.2713C7.95511 14.2735 8.00008 14.2878 8.03811 14.3125C8.10292 14.3341 8.1731 14.3385 8.24053 14.3251C8.30796 14.3118 8.36987 14.2814 8.41911 14.2373C8.51695 14.1482 8.59439 14.0422 8.64692 13.9256C8.71369 13.8019 8.78243 13.6783 8.84331 13.5529C8.79841 13.5269 8.74528 13.5152 8.69229 13.5197C8.63931 13.5243 8.58948 13.5448 8.55069 13.578C8.4769 13.6462 8.41109 13.7213 8.3543 13.8019C8.12982 14.023 7.82002 14.156 7.49018 14.1728C7.40681 14.1764 7.3246 14.1921 7.24666 14.2194C7.0051 14.3197 6.93439 14.6457 6.67908 14.7156C6.60532 14.7257 6.53247 14.7406 6.46109 14.7604C6.41298 14.7872 6.37176 14.8232 6.34024 14.8659C6.30873 14.9085 6.28765 14.9569 6.27845 15.0076C6.23982 15.1955 6.18599 15.3806 6.11741 15.5612C6.08269 15.6509 6.021 15.7299 5.93938 15.7892C5.85777 15.8484 5.75953 15.8855 5.65589 15.8962C5.59146 15.8961 5.52775 15.8839 5.46865 15.8605C5.40955 15.8371 5.35632 15.8029 5.31221 15.7601C5.30239 15.5809 5.28864 15.4018 5.28864 15.2351C5.29257 15.1796 5.29257 15.1438 5.2965 15.108Z" fill="#E0E0E0"/>
<path d="M8.8001 18.3853C8.92775 18.4086 8.95328 18.4784 9.02398 18.5644C9.09468 18.6504 9.2459 18.7902 9.32839 18.903C9.46979 19.0929 9.34214 19.3885 9.52478 19.548C9.56644 19.5759 9.60642 19.6058 9.64457 19.6376C9.67845 19.6795 9.6929 19.732 9.68482 19.7836C9.67674 19.8352 9.64677 19.8818 9.60137 19.9134C9.55309 19.9419 9.49683 19.957 9.43935 19.957C9.38187 19.957 9.3256 19.9419 9.27732 19.9134C9.18117 19.8563 9.1113 19.769 9.08093 19.668C9.06765 19.5937 9.0331 19.5238 8.98077 19.4656C8.87472 19.3814 8.70975 19.4441 8.57032 19.4262C7.98114 19.3563 8.23449 18.285 8.8001 18.3853Z" fill="#E0E0E0"/>
<path d="M8.60286 16.8966C8.26114 16.6279 8.12366 16.0188 8.54787 15.8772C8.70891 15.8235 8.89352 15.8665 9.05259 15.811C9.26077 15.7375 9.35896 15.5243 9.43358 15.3326C9.62997 14.8292 9.82637 14.3276 10.0228 13.8242C10.1426 13.5214 10.3232 13.1703 10.6708 13.1255C10.8714 13.1282 11.0702 13.1596 11.26 13.2186C11.9356 13.3315 13.0747 11.8392 13.5892 12.8442C13.6599 12.5701 14.147 12.6651 14.3021 12.9159C14.4573 13.1667 14.4985 13.4802 14.7381 13.6486C14.9345 13.7758 15.2016 13.7848 15.3548 13.946C15.4494 14.0712 15.4988 14.2203 15.4962 14.3724C15.5217 14.659 15.5472 14.9474 15.5747 15.2341C15.6195 15.464 15.5887 15.7008 15.4863 15.9149C15.3607 16.1173 15.0327 16.2302 14.8441 16.0743C14.7706 15.9905 14.7049 15.9012 14.6478 15.8074C14.5896 15.739 14.511 15.6875 14.4214 15.6592C14.3318 15.6309 14.2351 15.627 14.143 15.6479C13.9893 15.6952 13.8532 15.7808 13.7503 15.8952C12.8704 16.7604 12.5542 17.9912 12.515 19.1718C12.5253 19.3878 12.4934 19.6038 12.4207 19.8096C12.3186 20.0461 12.1045 20.236 12.0397 20.4832C11.9926 20.6713 12.0397 20.8809 11.9494 21.0565C11.7844 21.3825 11.2365 21.3951 10.9399 21.1622C10.6434 20.9293 10.5373 20.5531 10.4764 20.2001C10.4155 19.8472 10.3782 19.4728 10.1602 19.1754C10.0005 19.0085 9.85787 18.8286 9.73406 18.638C9.60248 18.3531 9.69871 18.0127 9.57695 17.7225C9.42377 17.3373 8.94458 17.1671 8.60286 16.8966Z" fill="#E0E0E0"/>
<path d="M56.6133 1.69202H89.0825V48.5005H56.6133V1.69202Z" fill="#E0E0E0"/>
<path d="M57.6054 2.57104H88.2148V47.7313H57.6054V2.57104Z" fill="#F5F5F5"/>
<path d="M60.6923 5.20105H72.8979V22.4783H60.6923V5.20105Z" fill="white"/>
<path d="M66.1503 6.72544C66.1503 6.80765 66.177 6.88801 66.2271 6.95636C66.2771 7.02471 66.3483 7.07798 66.4315 7.10944C66.5148 7.1409 66.6064 7.14913 66.6948 7.13309C66.7832 7.11705 66.8644 7.07747 66.9281 7.01934C66.9918 6.96121 67.0352 6.88715 67.0528 6.80653C67.0703 6.72591 67.0613 6.64234 67.0268 6.56639C66.9924 6.49044 66.934 6.42553 66.859 6.37986C66.7841 6.33419 66.696 6.30981 66.6059 6.30981C66.4851 6.30981 66.3692 6.3536 66.2837 6.43155C66.1983 6.5095 66.1503 6.61521 66.1503 6.72544Z" fill="#E0E0E0"/>
<path d="M72.9891 27.2872H85.1948V44.5645H72.9891V27.2872Z" fill="white"/>
<path d="M78.4506 28.815C78.4502 28.897 78.4764 28.9772 78.5259 29.0457C78.5754 29.1141 78.6459 29.1676 78.7287 29.1996C78.8115 29.2315 78.9027 29.2404 78.991 29.2251C79.0793 29.2099 79.1607 29.1711 79.2249 29.1138C79.2891 29.0564 79.3333 28.9831 79.3519 28.9029C79.3705 28.8227 79.3628 28.7392 79.3295 28.6631C79.2963 28.5869 79.2391 28.5214 79.1652 28.4748C79.0913 28.4282 79.0039 28.4026 78.9141 28.4012C78.8537 28.4002 78.7938 28.4102 78.7377 28.4306C78.6817 28.4509 78.6306 28.4812 78.5875 28.5197C78.5444 28.5582 78.5101 28.6042 78.4866 28.6549C78.4631 28.7055 78.4508 28.76 78.4506 28.815Z" fill="#E0E0E0"/>
<path d="M74.9423 5.20105H85.3667V18.6929H74.9423V5.20105Z" fill="white"/>
<path d="M79.7791 6.4271C79.7787 6.49556 79.8006 6.56259 79.842 6.61968C79.8834 6.67678 79.9424 6.72137 80.0117 6.74782C80.0809 6.77426 80.1572 6.78137 80.2308 6.76823C80.3045 6.75509 80.3722 6.7223 80.4254 6.67402C80.4786 6.62573 80.5149 6.56413 80.5297 6.49701C80.5445 6.42989 80.5371 6.36028 80.5084 6.29699C80.4798 6.23371 80.4312 6.1796 80.3689 6.14153C80.3065 6.10346 80.2331 6.08313 80.1581 6.08313C80.0579 6.08313 79.9618 6.11931 79.8908 6.18377C79.8197 6.24822 79.7796 6.33571 79.7791 6.4271Z" fill="#E0E0E0"/>
<path d="M60.2944 27.5231L71.4414 28.6709L70.7442 34.3052L59.5972 33.1575L60.2944 27.5231Z" fill="white"/>
<path d="M65.3502 29.1673C65.3502 29.2381 65.3732 29.3074 65.4164 29.3663C65.4595 29.4252 65.5209 29.4712 65.5926 29.4983C65.6644 29.5254 65.7434 29.5325 65.8196 29.5187C65.8958 29.5049 65.9658 29.4707 66.0207 29.4206C66.0756 29.3705 66.113 29.3067 66.1282 29.2372C66.1434 29.1677 66.1356 29.0956 66.1058 29.0301C66.0761 28.9647 66.0258 28.9087 65.9612 28.8693C65.8966 28.83 65.8206 28.809 65.743 28.809C65.6388 28.809 65.5389 28.8467 65.4652 28.9139C65.3916 28.9811 65.3502 29.0722 65.3502 29.1673Z" fill="#E0E0E0"/>
<path d="M74.6273 31.2291C74.6273 31.2739 76.5441 31.3115 78.9086 31.3115C81.2732 31.3115 83.188 31.2739 83.188 31.2291C83.188 31.1843 81.2732 31.1467 78.9086 31.1467C76.5441 31.1467 74.6273 31.1826 74.6273 31.2291Z" fill="#E0E0E0"/>
<path d="M74.6273 32.4651C74.6273 32.5099 76.5441 32.5475 78.9086 32.5475C81.2732 32.5475 83.188 32.5099 83.188 32.4651C83.188 32.4203 81.2732 32.3827 78.9086 32.3827C76.5441 32.3827 74.6273 32.4185 74.6273 32.4651Z" fill="#E0E0E0"/>
<path d="M74.6273 33.7002C74.6273 33.745 76.5441 33.7826 78.9086 33.7826C81.2732 33.7826 83.188 33.745 83.188 33.7002C83.188 33.6554 81.2732 33.6178 78.9086 33.6178C76.5441 33.6178 74.6273 33.6536 74.6273 33.7002Z" fill="#E0E0E0"/>
<path d="M74.6273 34.9358C74.6273 34.9806 76.5441 35.0182 78.9086 35.0182C81.2732 35.0182 83.188 34.9806 83.188 34.9358C83.188 34.8911 81.2732 34.8499 78.9086 34.8499C76.5441 34.8499 74.6273 34.8893 74.6273 34.9358Z" fill="#E0E0E0"/>
<path d="M74.6273 36.174C74.6273 36.2188 76.5441 36.2564 78.9086 36.2564C81.2732 36.2564 83.188 36.2188 83.188 36.174C83.188 36.1292 81.2732 36.0916 78.9086 36.0916C76.5441 36.0916 74.6273 36.1274 74.6273 36.174Z" fill="#E0E0E0"/>
<path d="M74.6273 37.4104C74.6273 37.4552 76.5441 37.4928 78.9086 37.4928C81.2732 37.4928 83.188 37.4552 83.188 37.4104C83.188 37.3656 81.2732 37.328 78.9086 37.328C76.5441 37.328 74.6273 37.3602 74.6273 37.4104Z" fill="#E0E0E0"/>
<path d="M74.6273 38.6459C74.6273 38.6907 76.5441 38.7283 78.9086 38.7283C81.2732 38.7283 83.188 38.6907 83.188 38.6459C83.188 38.6011 81.2732 38.5635 78.9086 38.5635C76.5441 38.5635 74.6273 38.5993 74.6273 38.6459Z" fill="#E0E0E0"/>
<path d="M61.3318 29.9048C61.3318 29.9496 63.2172 30.2308 65.5582 30.5318C67.8992 30.8328 69.8022 31.0406 69.81 30.9958C69.8179 30.951 67.9247 30.6697 65.5837 30.367C63.2427 30.0642 61.3397 29.8582 61.3318 29.9048Z" fill="#E0E0E0"/>
<path d="M61.1717 30.6768C61.1717 30.7234 63.0551 31.0047 65.3961 31.3057C67.737 31.6066 69.6401 31.8145 69.6479 31.7679C69.6558 31.7213 67.7626 31.4418 65.4216 31.1408C63.0806 30.8399 61.1874 30.6321 61.1717 30.6768Z" fill="#E0E0E0"/>
<path d="M61.0179 31.3912C61.0179 31.436 62.9032 31.7173 65.2442 32.0182C67.5852 32.3192 69.4882 32.527 69.4961 32.4822C69.5039 32.4374 67.6107 32.1562 65.2697 31.8552C62.9288 31.5542 61.0258 31.3464 61.0179 31.3912Z" fill="#E0E0E0"/>
<path d="M61.7692 8.81736C61.7692 8.86214 63.9295 8.89977 66.6043 8.89977C69.2791 8.89977 71.4414 8.86214 71.4414 8.81736C71.4414 8.77257 69.2811 8.73315 66.6043 8.73315C63.9275 8.73315 61.7692 8.77078 61.7692 8.81736Z" fill="#E0E0E0"/>
<path d="M61.7692 9.55214C61.7692 9.59872 63.9295 9.63455 66.6043 9.63455C69.2791 9.63455 71.4414 9.59872 71.4414 9.55214C71.4414 9.50556 69.2811 9.46973 66.6043 9.46973C63.9275 9.46973 61.7692 9.50556 61.7692 9.55214Z" fill="#E0E0E0"/>
<path d="M61.7692 10.2857C61.7692 10.3322 63.9295 10.3699 66.6043 10.3699C69.2791 10.3699 71.4414 10.3322 71.4414 10.2857C71.4414 10.2391 69.2811 10.2032 66.6043 10.2032C63.9275 10.2032 61.7692 10.2409 61.7692 10.2857Z" fill="#E0E0E0"/>
<path d="M61.7692 11.0249C61.7692 11.0697 63.9295 11.1073 66.6043 11.1073C69.2791 11.1073 71.4414 11.0697 71.4414 11.0249C71.4414 10.9801 69.2811 10.9407 66.6043 10.9407C63.9275 10.9407 61.7692 10.9765 61.7692 11.0249Z" fill="#E0E0E0"/>
<path d="M61.7692 11.7557C61.7692 11.8005 63.9295 11.8381 66.6043 11.8381C69.2791 11.8381 71.4414 11.8005 71.4414 11.7557C71.4414 11.7109 69.2811 11.6715 66.6043 11.6715C63.9275 11.6715 61.7692 11.7091 61.7692 11.7557Z" fill="#E0E0E0"/>
<path d="M61.7692 12.4913C61.7692 12.5379 63.9295 12.5738 66.6043 12.5738C69.2791 12.5738 71.4414 12.5379 71.4414 12.4913C71.4414 12.4448 69.2811 12.4089 66.6043 12.4089C63.9275 12.4089 61.7692 12.4466 61.7692 12.4913Z" fill="#E0E0E0"/>
<path d="M61.7692 13.2244C61.7692 13.271 63.9295 13.3086 66.6043 13.3086C69.2791 13.3086 71.4414 13.271 71.4414 13.2244C71.4414 13.1778 69.2811 13.142 66.6043 13.142C63.9275 13.142 61.7692 13.1724 61.7692 13.2244Z" fill="#E0E0E0"/>
<path d="M61.7692 15.4085C61.7692 15.4532 63.9295 15.4909 66.6043 15.4909C69.2791 15.4909 71.4414 15.4532 71.4414 15.4085C71.4414 15.3637 69.2811 15.326 66.6043 15.326C63.9275 15.326 61.7692 15.3619 61.7692 15.4085Z" fill="#E0E0E0"/>
<path d="M61.7076 16.1841C61.7076 16.2307 63.8679 16.2665 66.5447 16.2665C69.2216 16.2665 71.3799 16.2307 71.3799 16.1841C71.3799 16.1375 69.2196 16.1017 66.5447 16.1017C63.8699 16.1017 61.7076 16.1393 61.7076 16.1841Z" fill="#E0E0E0"/>
<path d="M61.6349 16.9584C61.6349 17.005 63.7952 17.0426 66.47 17.0426C69.1449 17.0426 71.3052 17.005 71.3052 16.9584C71.3052 16.9118 69.1449 16.876 66.47 16.876C63.7952 16.876 61.6349 16.9136 61.6349 16.9584Z" fill="#E0E0E0"/>
<path d="M61.5685 17.7379C61.5685 17.7827 63.7288 17.8203 66.4036 17.8203C69.0785 17.8203 71.2407 17.7827 71.2407 17.7379C71.2407 17.6931 69.0804 17.6555 66.4036 17.6555C63.7268 17.6555 61.5685 17.6913 61.5685 17.7379Z" fill="#E0E0E0"/>
<path d="M61.4938 18.5132C61.4938 18.5598 63.6541 18.5956 66.3309 18.5956C69.0077 18.5956 71.166 18.5598 71.166 18.5132C71.166 18.4666 69.0057 18.4308 66.3309 18.4308C63.656 18.4308 61.4938 18.4684 61.4938 18.5132Z" fill="#E0E0E0"/>
<path d="M61.4376 19.2893C61.4376 19.3359 63.5979 19.3735 66.2728 19.3735C68.9476 19.3735 71.1079 19.3359 71.1079 19.2893C71.1079 19.2427 68.9476 19.2069 66.2728 19.2069C63.5979 19.2069 61.4376 19.2445 61.4376 19.2893Z" fill="#E0E0E0"/>
<path d="M7.2294 62.791C7.2294 62.8137 25.6463 62.8331 48.359 62.8331C71.0718 62.8331 89.4922 62.8137 89.4922 62.791C89.4922 62.7684 71.0807 62.7538 48.3608 62.7538C25.6409 62.7538 7.2294 62.7667 7.2294 62.791Z" fill="#263238"/>
<path d="M66.102 22.5578C65.7691 19.32 68.392 16.4504 71.9605 16.1483C75.529 15.8463 78.6917 18.2261 79.0246 21.4639C79.3576 24.7017 76.7346 27.5713 73.1661 27.8734C69.5977 28.1754 66.435 25.7956 66.102 22.5578Z" fill="white"/>
<path d="M65.3864 24.0916C65.3864 24.0916 65.431 24.1418 65.4881 24.2422C65.5648 24.3866 65.5916 24.5486 65.5649 24.707C65.5479 24.8147 65.5046 24.9176 65.4382 25.0082C65.3603 25.1112 65.2512 25.1917 65.124 25.2397C64.9806 25.3016 64.8197 25.3222 64.663 25.2987C64.5062 25.2752 64.3612 25.2087 64.2474 25.1082C64.1335 25.0077 64.0562 24.878 64.026 24.7365C63.9958 24.595 64.014 24.4485 64.0782 24.3167C64.1278 24.2006 64.2134 24.1 64.3245 24.0268C64.4231 23.9638 64.5358 23.9212 64.6546 23.9022C64.8278 23.8739 65.0063 23.8936 65.1669 23.9588C65.2811 24.0074 65.3311 24.0528 65.3453 24.0479C65.3348 24.0354 65.3222 24.0244 65.3079 24.0155C65.2936 24.0018 65.2774 23.9898 65.2597 23.9799C65.2369 23.9646 65.2124 23.9516 65.1865 23.941C65.0223 23.8625 64.8341 23.8352 64.6511 23.8633C64.5232 23.8808 64.4013 23.9239 64.2941 23.9896C64.1727 24.0664 64.0789 24.174 64.0246 24.2989C63.9646 24.4355 63.9467 24.5845 63.9729 24.7296C63.9953 24.8884 64.0763 25.0357 64.2027 25.1474C64.3291 25.2591 64.4934 25.3288 64.6689 25.345C64.8301 25.3658 64.9944 25.3456 65.1437 25.2867C65.2796 25.2338 65.3956 25.146 65.4774 25.0341C65.5458 24.9359 65.5897 24.8254 65.6059 24.7102C65.6327 24.5429 65.5982 24.3722 65.5078 24.2244C65.4937 24.202 65.4782 24.1804 65.4614 24.1596C65.4471 24.1418 65.4328 24.1272 65.4221 24.1159C65.4108 24.1071 65.3989 24.099 65.3864 24.0916Z" fill="#263238"/>
<path d="M67.2986 18.4894C67.2986 18.4894 67.3236 18.4651 67.3682 18.4165L67.5681 18.1995L67.7126 18.0376C67.7698 17.9809 67.8376 17.9242 67.909 17.8611C67.9804 17.7979 68.0553 17.7283 68.1374 17.6554C68.178 17.616 68.2222 17.5797 68.2695 17.5469L68.4176 17.4401C68.9009 17.0749 69.4425 16.7784 70.0239 16.5607C70.7951 16.2666 71.6218 16.1105 72.4583 16.1009H72.8152C72.933 16.1009 73.0526 16.1203 73.1722 16.1284L73.3507 16.143C73.4107 16.1468 73.4703 16.1543 73.5291 16.1656L73.8968 16.2288C73.9593 16.2401 74.0217 16.2482 74.0753 16.2612L74.2538 16.3097L74.6286 16.4101C74.7535 16.4474 74.8731 16.4976 74.998 16.5413L75.1765 16.6093L75.2693 16.645L75.3585 16.6871C75.6054 16.7972 75.8439 16.9222 76.0724 17.0611C76.1866 17.1324 76.3098 17.1988 76.4294 17.2765L76.7631 17.5243C76.8184 17.568 76.8773 17.6069 76.9309 17.6522L77.0862 17.7931C77.1879 17.8886 77.2968 17.9809 77.3967 18.0813C77.5946 18.2862 77.7776 18.5026 77.9446 18.7291L78.0713 18.9023C78.0928 18.9315 78.1142 18.9606 78.1338 18.9898L78.1891 19.0837L78.4069 19.4578C78.4729 19.5857 78.5282 19.7201 78.5853 19.8529C78.6139 19.9193 78.6496 19.9841 78.6728 20.0537L78.7424 20.261C78.8373 20.5411 78.9113 20.8268 78.9637 21.116C78.9816 21.2634 78.9976 21.4123 79.0155 21.5613L79.028 21.6731C79.028 21.7103 79.028 21.7475 79.028 21.7848V22.2382L79.0066 22.4649L78.9833 22.6916L78.9726 22.8066C78.9726 22.8438 78.9566 22.8811 78.9494 22.92C78.9191 23.0706 78.887 23.2212 78.8548 23.3734C78.8227 23.5256 78.7603 23.6713 78.7121 23.8203C78.2943 25.0319 77.4521 26.0866 76.3134 26.8242L75.885 27.0817L75.4353 27.2922L75.3228 27.3456L75.2068 27.3894L74.973 27.4768L74.741 27.5626L74.5018 27.629L74.2627 27.6938L74.1449 27.7262L74.0235 27.7489L73.5416 27.8363C73.221 27.876 72.8979 27.8966 72.5743 27.8979H72.3351C72.2548 27.8979 72.1763 27.8865 72.0978 27.8833C71.9407 27.8687 71.7819 27.8606 71.6284 27.8412L71.1697 27.7634L71.0555 27.744L70.943 27.7149L70.7235 27.6566C70.4337 27.5807 70.1498 27.4871 69.874 27.3764C69.7383 27.3197 69.6098 27.2533 69.4778 27.1918L69.2832 27.0995C69.2208 27.0687 69.1619 27.0283 69.1047 26.9926L68.7478 26.7773C68.6318 26.7028 68.5265 26.6153 68.4158 26.5376C68.201 26.3791 67.9982 26.2076 67.809 26.0243L67.7376 25.9595C67.7144 25.9368 67.6948 25.9125 67.6716 25.8882L67.5449 25.7473C67.4628 25.6518 67.3664 25.5627 67.2968 25.4656L67.0808 25.1709C67.0451 25.1223 67.0094 25.0737 66.9755 25.0251L66.8845 24.8745L66.706 24.5733C66.6756 24.5245 66.6493 24.4736 66.6275 24.4211L66.5579 24.2689C66.5133 24.1669 66.4651 24.0665 66.424 23.9661C66.383 23.8657 66.3544 23.762 66.3205 23.6616C66.0834 22.9348 66.0034 22.1732 66.0849 21.4188C66.0849 21.3362 66.0992 21.2569 66.1081 21.1743L66.1563 20.9411C66.1724 20.865 66.1867 20.7905 66.2027 20.716C66.2027 20.6804 66.2152 20.6431 66.2259 20.6075C66.2366 20.5719 66.2474 20.5379 66.2599 20.5039C66.3027 20.3662 66.3455 20.2351 66.3848 20.1104C66.424 19.9857 66.4865 19.8723 66.5311 19.7622L66.6025 19.6003C66.6226 19.5495 66.647 19.5002 66.6757 19.4529C66.7275 19.3606 66.7774 19.2732 66.8238 19.1938C66.8702 19.1145 66.9095 19.0319 66.9523 18.972L67.0773 18.7987L67.2468 18.5607L67.3021 18.4797L67.2415 18.5574L67.063 18.7922L66.9363 18.9655C66.8917 19.0303 66.8524 19.1064 66.8042 19.1857C66.756 19.2651 66.706 19.3477 66.6525 19.4448C66.6233 19.4921 66.5982 19.5413 66.5775 19.5922L66.5061 19.7541C66.4597 19.8642 66.4008 19.9776 66.3562 20.1023L66.2277 20.4974C66.217 20.5314 66.2045 20.567 66.1938 20.6027C66.1831 20.6383 66.1778 20.6739 66.1688 20.7112C66.1545 20.784 66.1385 20.8601 66.1224 20.9362C66.1064 21.0124 66.0903 21.0982 66.0725 21.1711C66.0546 21.2439 66.0564 21.333 66.0475 21.4172C65.9634 22.1754 66.041 22.9413 66.2759 23.673C66.3092 23.7734 66.3431 23.8754 66.3776 23.979C66.4187 24.081 66.4687 24.1814 66.5133 24.2835L66.5829 24.4454C66.6048 24.4976 66.6305 24.5484 66.6596 24.5976L66.8381 24.9004C66.8685 24.9522 66.897 25.0041 66.9291 25.0624L67.0362 25.2097L67.2522 25.5061C67.3289 25.6048 67.4182 25.6939 67.502 25.7911L67.6288 25.9336C67.652 25.9562 67.6716 25.9822 67.6948 26.0048L67.768 26.0712C67.9578 26.2557 68.1611 26.4282 68.3766 26.5878C68.4872 26.6688 68.5943 26.7497 68.7121 26.8307L69.069 27.0493C69.1297 27.0849 69.1886 27.1238 69.2475 27.1562L69.4438 27.2501C69.5759 27.3116 69.7062 27.378 69.8418 27.4363C70.1202 27.5479 70.4064 27.6425 70.6985 27.7197L70.9216 27.7796L71.0323 27.8088L71.1483 27.8282L71.6105 27.9076C71.7676 27.927 71.9264 27.9351 72.0853 27.9497C72.1638 27.9497 72.2441 27.9659 72.3244 27.9642H72.5654C72.8913 27.9643 73.2169 27.9443 73.5399 27.9043L74.0271 27.8153L74.1502 27.7926L74.2698 27.7602L74.5108 27.6938L74.7517 27.629L74.9873 27.5416L75.2211 27.4541L75.3407 27.4104L75.4531 27.3554L75.9171 27.1303L76.3491 26.8696C77.5097 26.1309 78.3722 25.068 78.8049 23.843C78.8537 23.6908 78.9018 23.5402 78.9494 23.3912C78.9816 23.2293 79.0137 23.0851 79.044 22.9329C79.044 22.894 79.0601 22.8568 79.0672 22.8179L79.0779 22.703L79.1011 22.473L79.1226 22.2447V21.7864C79.1226 21.7475 79.1226 21.7103 79.1226 21.6731L79.1101 21.5597C79.0922 21.4091 79.0744 21.2601 79.0583 21.1111C79.0038 20.8199 78.9287 20.5321 78.8334 20.2496L78.762 20.0391C78.7406 19.9695 78.7031 19.9047 78.6746 19.8367C78.6121 19.7039 78.5568 19.5679 78.4961 19.4383L78.2748 19.061L78.2195 18.9671C78.1998 18.938 78.1766 18.9088 78.157 18.8797L78.0285 18.7032C77.8527 18.4735 77.6614 18.2539 77.4556 18.0457C77.3539 17.9453 77.245 17.853 77.1415 17.7558L76.9844 17.6149C76.9309 17.568 76.872 17.5291 76.8167 17.487L76.4793 17.2376C76.3651 17.1583 76.242 17.0919 76.1224 17.019C75.8905 16.8795 75.6484 16.7546 75.3978 16.645L75.3139 16.6045C75.2836 16.5915 75.2496 16.5818 75.2193 16.5705L75.0301 16.5008C74.9052 16.4571 74.7838 16.4069 74.6571 16.3697L74.2805 16.2709L74.1021 16.2207L73.9129 16.1883L73.5291 16.1187C73.4701 16.1086 73.4106 16.1015 73.3507 16.0976L73.1722 16.083C73.049 16.0749 72.9295 16.062 72.8152 16.0571H72.4583C71.6186 16.0703 70.7896 16.2303 70.0168 16.5284C69.4342 16.7496 68.8925 17.0505 68.4105 17.4206L68.2641 17.5291C68.2169 17.5619 68.1727 17.5982 68.1321 17.6376L67.9036 17.8465C67.834 17.9113 67.7662 17.968 67.7109 18.0263C67.6555 18.0846 67.6091 18.1396 67.5663 18.1882L67.3718 18.4084L67.2986 18.4894Z" fill="#263238"/>
<path d="M35.5251 9.42021C35.184 5.55128 38.3642 2.16397 42.6283 1.85446C46.8924 1.54495 50.6257 4.43043 50.9668 8.29936C51.3079 12.1683 48.1277 15.5556 43.8636 15.8651C39.5995 16.1746 35.8663 13.2891 35.5251 9.42021Z" fill="#407BFF"/>
<path d="M38.1733 13.4487C35.4446 10.9729 35.4446 6.95876 38.1733 4.48292C40.902 2.00709 45.3261 2.00709 48.0548 4.48292C50.7835 6.95876 50.7835 10.9729 48.0548 13.4487C45.3261 15.9246 40.902 15.9246 38.1733 13.4487Z" fill="#FAFAFA"/>
<path d="M50.172 8.58763C50.172 8.58763 50.172 8.62325 50.172 8.69127V8.99409C50.172 9.06048 50.172 9.13659 50.172 9.21756C50.172 9.29852 50.1541 9.38921 50.147 9.48637C50.1398 9.58353 50.1256 9.68717 50.1148 9.7989C50.1041 9.91064 50.0702 10.0272 50.0488 10.1519C49.9282 10.7572 49.7074 11.3425 49.3938 11.8879C48.9857 12.613 48.4269 13.2596 47.7483 13.7922L47.4663 14.0141C47.3645 14.0837 47.2575 14.1485 47.1504 14.2165C47.0453 14.2879 46.9363 14.3544 46.8238 14.4157L46.4668 14.5954L46.2883 14.6861L46.0991 14.7606L45.7154 14.9225C45.5851 14.9711 45.4477 15.0051 45.3121 15.0472C45.1761 15.092 45.0372 15.1293 44.8962 15.159C44.608 15.2251 44.3153 15.2738 44.0199 15.3047C43.87 15.3177 43.7183 15.3403 43.5648 15.3468H43.1025C43.024 15.3468 42.9455 15.3468 42.8687 15.3468L42.6332 15.329C42.4761 15.3144 42.3173 15.3063 42.1584 15.2869C41.8382 15.2416 41.5216 15.1772 41.2107 15.0942L40.9733 15.031C40.9341 15.0213 40.893 15.0116 40.8538 14.9987L40.7395 14.9565L40.2737 14.7946C40.122 14.7298 39.9739 14.6553 39.8222 14.5841C39.7472 14.5469 39.6687 14.5161 39.5973 14.474L39.3831 14.3461C39.0904 14.1762 38.8107 13.9884 38.5461 13.7841C38.4211 13.6724 38.2944 13.5623 38.1659 13.4505L38.0713 13.3663L37.9839 13.2757L37.8054 13.0911L37.6269 12.9048L37.4717 12.7056L37.3164 12.5048L37.2379 12.4028C37.2147 12.3688 37.1932 12.3316 37.17 12.2959L36.9005 11.8636L36.6774 11.4069C36.4014 10.7749 36.2311 10.109 36.1724 9.43131C36.1353 8.74838 36.2124 8.06429 36.4008 7.40226L36.5561 6.91645C36.6239 6.76262 36.6917 6.60878 36.7613 6.45656L36.8113 6.34158L36.8755 6.23147L37.0005 6.01447L37.1147 5.80396L37.27 5.59344L37.4163 5.3894L37.4895 5.289L37.5716 5.19346C37.6823 5.06877 37.7911 4.94246 37.9 4.81777C38.1336 4.58442 38.3834 4.36482 38.6478 4.16031L38.8423 4.00971C38.9084 3.95789 38.9816 3.91903 39.0494 3.87207C39.1904 3.78624 39.326 3.69232 39.467 3.61135L39.9043 3.38788L40.0114 3.3312L40.1256 3.28586L40.3505 3.19356C40.6477 3.07525 40.9529 2.97411 41.2643 2.89074C41.4177 2.85188 41.5748 2.82597 41.7283 2.79358L41.9585 2.74824C42.0353 2.73366 42.1138 2.7288 42.1905 2.72071L42.6474 2.6786C42.8009 2.66727 42.9526 2.6786 43.1043 2.66727C43.4025 2.66259 43.7006 2.67612 43.9967 2.70775C44.1407 2.72075 44.2837 2.74129 44.4251 2.76929C44.566 2.7952 44.7088 2.81301 44.8445 2.8454L45.246 2.95228L45.4459 3.00409L45.6351 3.07211L46.0099 3.20975C46.1331 3.25186 46.2455 3.31663 46.3669 3.37169C46.4882 3.42675 46.5971 3.47857 46.7078 3.53362L47.0254 3.71985C47.7747 4.1683 48.4218 4.74337 48.9316 5.41369C49.3187 5.91702 49.6195 6.47064 49.8239 7.05572C49.8698 7.1675 49.9085 7.28159 49.9399 7.3974C49.9685 7.50752 49.9935 7.60954 50.0167 7.70508C50.0399 7.80062 50.0649 7.88645 50.0809 7.96742C50.097 8.04838 50.1024 8.12935 50.1113 8.18927C50.1291 8.32043 50.1434 8.42083 50.1523 8.49047C50.1612 8.5601 50.1702 8.59249 50.1702 8.59249C50.1702 8.59249 50.1702 8.55686 50.1702 8.48885C50.1702 8.42083 50.1505 8.32691 50.1345 8.18765C50.1273 8.12179 50.1184 8.0473 50.1077 7.96418C50.0952 7.88321 50.0702 7.80224 50.0488 7.70022C50.0274 7.5982 50.0024 7.50104 49.9756 7.39092C49.944 7.2748 49.9059 7.16021 49.8614 7.04762C49.6599 6.45695 49.3589 5.89814 48.969 5.39102C48.4598 4.71332 47.8106 4.13152 47.0576 3.67775L46.7327 3.48828C46.6221 3.42998 46.5043 3.37817 46.3901 3.32635C46.2758 3.27453 46.158 3.20813 46.0331 3.16441L45.6565 3.02677L45.4656 2.95713L45.2657 2.90369L44.8587 2.7952C44.7213 2.76281 44.5785 2.745 44.4375 2.71747C44.2946 2.68817 44.1497 2.66707 44.0039 2.65431C43.7078 2.62158 43.4096 2.60751 43.1115 2.61221C42.958 2.61221 42.8045 2.61221 42.6492 2.62193L42.1852 2.67213C42.1067 2.67213 42.0281 2.68508 41.9514 2.69804L41.7176 2.745C41.5623 2.77739 41.4035 2.80329 41.2482 2.84216C40.9347 2.924 40.6271 3.02352 40.3273 3.14012L40.0988 3.23242C40.0613 3.24862 40.0221 3.26157 39.9846 3.27938L39.8757 3.33444L39.4331 3.56115C39.2903 3.64374 39.1529 3.73604 39.0119 3.82511C38.9397 3.86769 38.87 3.91364 38.8031 3.96275L38.605 4.12469C38.3367 4.33046 38.0839 4.55227 37.8482 4.78862C37.7376 4.91385 37.6269 5.04016 37.5163 5.16755L37.4324 5.26309L37.3574 5.36511L37.2111 5.57077L37.0629 5.77643L36.9362 5.99504L36.8095 6.21689L36.7453 6.32701L36.6935 6.44198L36.4865 6.90836C36.4347 7.07029 36.3812 7.23223 36.3294 7.39416C36.1439 8.061 36.0705 8.74944 36.1117 9.43617C36.169 10.1178 36.3393 10.7876 36.6168 11.4231L36.8416 11.8863L37.1147 12.3235L37.1825 12.432L37.2611 12.534L37.4199 12.7364L37.577 12.9388L37.7554 13.1251L37.9339 13.3113L38.0231 13.4052L38.1195 13.4894L38.5032 13.8262C38.7713 14.0322 39.0539 14.222 39.3492 14.3946L39.567 14.5226C39.6383 14.5647 39.7187 14.5971 39.7936 14.6343C39.9471 14.7039 40.097 14.7817 40.2505 14.8448L40.7217 15.0165L40.8377 15.0602L40.9573 15.0926L41.1964 15.1557C41.5108 15.2392 41.831 15.3036 42.1548 15.3484C42.3155 15.3679 42.4761 15.376 42.6349 15.3889L42.8723 15.4083C42.9508 15.4083 43.0312 15.4083 43.1097 15.4083H43.5773C43.7308 15.4083 43.8825 15.3792 44.0342 15.3646C44.335 15.333 44.6331 15.2833 44.9266 15.2156C45.0687 15.1853 45.2087 15.1474 45.346 15.1023C45.4816 15.0586 45.6208 15.0246 45.7529 14.976L46.1402 14.814L46.3294 14.7379L46.5079 14.6456L46.8648 14.4643C46.9826 14.406 47.0861 14.3282 47.195 14.2635C47.3039 14.1987 47.4092 14.1274 47.5109 14.0578L47.8 13.8327C48.4746 13.2926 49.0279 12.6394 49.4295 11.9089C49.7415 11.3591 49.9594 10.7694 50.0756 10.16C50.1051 10.0424 50.1278 9.92352 50.1434 9.80376C50.1523 9.69203 50.163 9.58677 50.172 9.48961C50.1809 9.39245 50.1898 9.30176 50.1916 9.2208C50.1934 9.13983 50.1916 9.05886 50.1916 8.99571C50.1916 8.86454 50.1916 8.76252 50.1827 8.69289C50.1737 8.62325 50.172 8.58763 50.172 8.58763Z" fill="#263238"/>
<path d="M39.9302 9.14109C40.0123 9.15207 40.0953 9.15694 40.1783 9.15567L40.8619 9.16862C41.4419 9.16862 42.2486 9.18158 43.1606 9.18158H43.207V8.72816C43.207 7.8035 43.207 6.96792 43.1928 6.36228C43.1928 6.07079 43.182 5.82951 43.1785 5.6449C43.1811 5.55715 43.1751 5.46936 43.1606 5.38257C43.1473 5.46947 43.1413 5.55717 43.1428 5.6449C43.1428 5.82951 43.1428 6.07079 43.1285 6.36228C43.1285 6.96792 43.116 7.8035 43.116 8.72816V9.14109L43.1606 9.10061C42.2486 9.10061 41.4419 9.10061 40.8619 9.11356L40.1783 9.12652C40.0953 9.12524 40.0123 9.13011 39.9302 9.14109Z" fill="#263238"/>
<path d="M43.1425 3.61499C43.098 3.79006 43.083 3.97023 43.0979 4.14938C43.083 4.32906 43.0981 4.50976 43.1425 4.68538C43.1881 4.50992 43.2038 4.32915 43.1889 4.14938C43.2037 3.97014 43.188 3.78991 43.1425 3.61499Z" fill="#263238"/>
<path d="M39.9404 4.47534C40.0431 4.62648 40.1707 4.76247 40.3188 4.87856C40.4467 5.01291 40.5966 5.12868 40.7632 5.22186C40.6602 5.07045 40.5319 4.93444 40.383 4.81865C40.2559 4.68413 40.1066 4.56832 39.9404 4.47534Z" fill="#263238"/>
<path d="M38.0796 6.33057C38.2247 6.4455 38.3848 6.54393 38.5562 6.62367C38.7165 6.73001 38.8903 6.81862 39.0737 6.88763C38.7917 6.63955 38.452 6.45197 38.0796 6.33866V6.33057Z" fill="#263238"/>
<path d="M36.9816 9.08598C37.5154 9.13971 38.0541 9.13971 38.5879 9.08598C38.0542 9.0301 37.5153 9.0301 36.9816 9.08598Z" fill="#263238"/>
<path d="M48.1249 8.99282C48.63 9.0468 49.1404 9.0468 49.6455 8.99282C49.1405 8.93664 48.6299 8.93664 48.1249 8.99282Z" fill="#263238"/>
<path d="M47.3466 11.0375C47.5167 11.2152 47.7097 11.374 47.9213 11.5103C48.1125 11.6687 48.3241 11.8057 48.5513 11.9184C48.3815 11.7409 48.1892 11.5822 47.9784 11.4456C47.7859 11.2878 47.5739 11.1509 47.3466 11.0375Z" fill="#263238"/>
<path d="M45.3881 12.623C45.5006 12.8371 45.6313 13.0428 45.779 13.2384C45.9009 13.4483 46.0399 13.6497 46.1948 13.8408C46.1199 13.6104 46.0061 13.3919 45.8575 13.1931C45.7343 12.9822 45.576 12.79 45.3881 12.623Z" fill="#263238"/>
<path d="M43.1424 14.6678C43.1882 14.4267 43.2038 14.1817 43.1888 13.9375C43.2038 13.6932 43.1882 13.4482 43.1424 13.2072C43.0978 13.4483 43.0829 13.6933 43.0978 13.9375C43.0828 14.1817 43.0977 14.4266 43.1424 14.6678Z" fill="#263238"/>
<path d="M39.6681 13.6898C39.9107 13.5896 40.1328 13.4527 40.3249 13.285C40.5358 13.1334 40.7168 12.9506 40.8604 12.7441C40.6503 12.8961 40.4495 13.0583 40.2589 13.2299C40.053 13.3735 39.8558 13.527 39.6681 13.6898Z" fill="#263238"/>
<path d="M38.038 12.1054C38.2357 11.9847 38.4156 11.8416 38.5734 11.6795C38.7518 11.5366 38.909 11.3733 39.041 11.1937C38.8439 11.3151 38.664 11.4582 38.5056 11.6196C38.3276 11.7629 38.1705 11.9261 38.038 12.1054Z" fill="#263238"/>
<path d="M47.4064 7.02411C47.5824 6.9224 47.7411 6.79803 47.8776 6.65489C48.0347 6.53151 48.1712 6.38805 48.2827 6.229C48.1074 6.33023 47.9493 6.45406 47.8133 6.5966C47.6556 6.72045 47.5185 6.86446 47.4064 7.02411Z" fill="#263238"/>
<path d="M45.4084 5.10551C45.5788 5.00528 45.7316 4.88246 45.8618 4.74116C46.0167 4.62072 46.1509 4.47989 46.2598 4.32336C46.0872 4.42208 45.9314 4.5432 45.7975 4.68286C45.6458 4.80578 45.5147 4.94817 45.4084 5.10551Z" fill="#263238"/>
<path d="M49.3722 9.02886C49.3722 7.41295 48.6919 5.85807 47.4704 4.68209C46.249 3.5061 44.5786 2.79782 42.8008 2.70204C42.9382 2.70204 43.0756 2.68909 43.2148 2.68909C44.1324 2.68909 45.041 2.85307 45.8888 3.17167C46.7365 3.49028 47.5068 3.95726 48.1556 4.54596C48.8044 5.13467 49.3191 5.83356 49.6703 6.60273C50.0214 7.37191 50.2021 8.19631 50.2021 9.02886C50.2021 9.86141 50.0214 10.6858 49.6703 11.455C49.3191 12.2242 48.8044 12.9231 48.1556 13.5118C47.5068 14.1005 46.7365 14.5674 45.8888 14.886C45.041 15.2046 44.1324 15.3686 43.2148 15.3686C43.0756 15.3686 42.9382 15.3686 42.8008 15.3573C44.5786 15.2607 46.2488 14.552 47.4701 13.3758C48.6914 12.1997 49.3718 10.6448 49.3722 9.02886Z" fill="#E0E0E0"/>
<path d="M49.3277 65.7006L62.5581 65.5532L56.2561 72.0436H40.454L49.3277 65.7006Z" fill="#F5F5F5"/>
<path d="M47.1479 65.0582L60.3765 64.9092L54.0763 71.3996H38.2723L47.1479 65.0582Z" fill="#EBEBEB"/>
<path d="M50.7895 63.9109L64.0181 63.7635L57.7179 70.2539H41.9139L50.7895 63.9109Z" fill="#EBEBEB"/>
<path d="M62.293 63.2163L62.4126 64.3612L56.0392 70.7916L40.3013 70.7107V69.7067L62.293 63.2163Z" fill="#E0E0E0"/>
<path d="M49.0546 63.3637L62.2832 63.2163L55.983 69.7067H40.1791L49.0546 63.3637Z" fill="white"/>
<path d="M49.0738 63.3644L48.9096 63.4762L48.4349 63.8081L46.6323 65.0842L40.175 69.6799C40.1712 69.6831 40.1681 69.687 40.166 69.6913C40.1639 69.6956 40.1628 69.7003 40.1628 69.705C40.1628 69.7097 40.1639 69.7144 40.166 69.7187C40.1681 69.723 40.1712 69.7269 40.175 69.7301C40.1788 69.7341 40.1834 69.7373 40.1887 69.7395C40.1939 69.7417 40.1996 69.743 40.2054 69.7431H53.8391H55.9951C56.0016 69.7434 56.0081 69.7422 56.0141 69.7397C56.02 69.7371 56.0251 69.7333 56.029 69.7285L62.3256 63.2413C62.3295 63.238 62.3326 63.234 62.3347 63.2295C62.3368 63.2251 62.3379 63.2203 62.3379 63.2154C62.3379 63.2106 62.3368 63.2058 62.3347 63.2013C62.3326 63.1969 62.3295 63.1929 62.3256 63.1895C62.3183 63.1833 62.3088 63.1799 62.2988 63.1798L52.7165 63.3029L50.0215 63.3434L49.3076 63.3563H49.1291H49.0684C49.0892 63.3577 49.1101 63.3577 49.1309 63.3563H50.0233L52.72 63.3353L62.2917 63.2446L62.2613 63.1831L55.9576 69.6702L55.9915 69.6556H53.8212H40.1875L40.2125 69.7188L46.6376 65.1052L48.4224 63.8097L48.8917 63.4664C49.0131 63.4033 49.0738 63.3644 49.0738 63.3644Z" fill="#263238"/>
<path d="M44.6144 68.1545C44.6144 68.1788 47.0327 68.1966 50.015 68.1966C52.9974 68.1966 55.4175 68.1788 55.4175 68.1545C55.4175 68.1302 52.9991 68.1124 50.015 68.1124C47.0309 68.1124 44.6144 68.1319 44.6144 68.1545Z" fill="#263238"/>
<path d="M45.65 67.5596C45.65 67.5839 48.0684 67.6017 51.0507 67.6017C54.033 67.6017 56.4531 67.5839 56.4531 67.5596C56.4531 67.5353 54.0348 67.5175 51.0507 67.5175C48.0666 67.5175 45.65 67.5369 45.65 67.5596Z" fill="#263238"/>
<path d="M46.2312 66.9099C46.2312 66.9326 48.6496 66.952 51.6337 66.952C54.6178 66.952 57.0361 66.9326 57.0361 66.9099C57.0361 66.8872 54.6178 66.8678 51.6337 66.8678C48.6496 66.8678 46.2312 66.8856 46.2312 66.9099Z" fill="#263238"/>
<path d="M47.2071 66.258C47.2071 66.2807 49.6255 66.3001 52.6078 66.3001C55.5901 66.3001 58.0103 66.2807 58.0103 66.258C58.0103 66.2354 55.5919 66.2159 52.6078 66.2159C49.6237 66.2159 47.2071 66.2354 47.2071 66.258Z" fill="#263238"/>
<path d="M47.9679 65.5534C47.9679 65.5761 50.3862 65.5955 53.3686 65.5955C56.3509 65.5955 58.771 65.5761 58.771 65.5534C58.771 65.5307 56.3527 65.5081 53.3668 65.5081C50.3809 65.5081 47.9679 65.5307 47.9679 65.5534Z" fill="#263238"/>
<path d="M56.0381 70.7923C56.081 70.6066 56.0942 70.4163 56.0774 70.2271C56.09 70.0373 56.0714 69.8468 56.0221 69.662C55.9663 70.0385 55.9717 70.4204 56.0381 70.7955V70.7923Z" fill="#263238"/>
<path d="M71.0708 62.7921V56.2774C71.0703 55.3144 70.6484 54.391 69.8977 53.7101C69.147 53.0293 68.129 52.6469 67.0676 52.6469H45.1152C44.0547 52.6481 43.0381 53.0312 42.2886 53.7118C41.539 54.3925 41.1178 55.3152 41.1173 56.2774L41.2244 62.7921H71.0708Z" fill="#455A64"/>
<path d="M71.0762 62.7915H72.7021V57.276C72.7021 57.0802 72.6164 56.8924 72.4638 56.7539C72.3112 56.6154 72.1042 56.5376 71.8883 56.5376C71.6728 56.538 71.4662 56.616 71.314 56.7545C71.1617 56.8929 71.0762 57.0805 71.0762 57.276V62.7915Z" fill="#E0E0E0"/>
<path d="M71.0676 62.7905C71.0676 62.7905 71.0676 62.7759 71.0676 62.7484V62.6334C71.0676 62.5265 71.0676 62.3808 71.0676 62.1962C71.0676 61.814 71.0676 61.2715 71.0836 60.6044C71.0997 59.9372 71.0836 59.1388 71.0961 58.2579C71.0961 58.0361 71.0961 57.811 71.0961 57.5794C71.0961 57.466 71.0961 57.3446 71.0961 57.2329C71.1025 57.1182 71.1405 57.0068 71.2068 56.909C71.2744 56.8082 71.3692 56.7246 71.4822 56.6661C71.5952 56.6076 71.7228 56.5762 71.8529 56.5747C71.9829 56.5733 72.1113 56.6019 72.2259 56.6578C72.3405 56.7137 72.4375 56.7951 72.5078 56.8944C72.5929 57.0168 72.6352 57.1596 72.6292 57.3041V57.7511C72.6292 58.0458 72.6292 58.3356 72.6292 58.619C72.6292 59.1858 72.6292 59.7267 72.6292 60.2384C72.6292 61.2489 72.6399 62.1217 72.6435 62.7921L72.6703 62.7662L71.4798 62.7808H71.1586H71.0443C71.0788 62.7831 71.1134 62.7831 71.1479 62.7808H71.462L72.6703 62.7937H72.6988V62.7678C72.6988 62.0974 72.6988 61.2246 72.7113 60.2141C72.7113 59.7072 72.7113 59.1664 72.7113 58.5947V57.2798C72.7157 57.1731 72.696 57.0667 72.6533 56.9672C72.6106 56.8676 72.5458 56.7771 72.463 56.7012C72.3802 56.6253 72.2811 56.5657 72.1718 56.5259C72.0626 56.4862 71.9455 56.4672 71.8279 56.4701C71.6837 56.4733 71.5427 56.5094 71.4179 56.575C71.2931 56.6407 71.1886 56.7338 71.114 56.8458C71.0399 56.9536 70.9975 57.0768 70.9908 57.2037C70.9908 57.3268 70.9908 57.4418 70.9908 57.5584C70.9908 57.7915 70.9908 58.0199 70.9908 58.2433C70.9908 59.1324 70.9997 59.9323 71.0033 60.6076C71.0069 61.2829 71.0158 61.8124 71.0194 62.1946C71.0194 62.3743 71.0194 62.5184 71.0194 62.6205C71.0291 62.6784 71.0453 62.7354 71.0676 62.7905Z" fill="#263238"/>
<path d="M39.6009 62.7915H41.2197V57.276C41.2197 57.0805 41.1342 56.8929 40.982 56.7545C40.8297 56.616 40.6232 56.538 40.4077 56.5376C40.1918 56.5376 39.9848 56.6154 39.8322 56.7539C39.6796 56.8924 39.5938 57.0802 39.5938 57.276L39.6009 62.7915Z" fill="#E0E0E0"/>
<path d="M67.6978 62.7919L67.3069 52.6386C67.3069 52.6386 65.5025 51.301 62.936 52.6386L64.8511 62.7919H67.6978Z" fill="#263238"/>
<path d="M62.1177 21.224L62.0748 12.6414L57.1846 11.7928L56.2048 20.0046C56.2048 20.0046 58.7534 23.8765 62.1177 21.224Z" fill="#FFBF9D"/>
<path d="M62.0845 12.7911C62.0845 12.7911 62.6199 12.1676 62.279 10.1046C61.9382 8.04151 61.5009 6.29099 61.0958 5.75499L60.8156 5.38739C60.8156 5.38739 60.4729 4.03199 59.8197 3.09924C59.1664 2.1665 58.7916 1.63049 58.3562 1.74385C57.9207 1.8572 58.076 2.1665 58.2009 2.47741C58.3258 2.78833 59.4681 4.93559 59.3788 5.24651C59.2896 5.55742 59.104 5.30319 59.0094 5.04895C58.9148 4.79471 58.1384 3.18345 57.1729 2.13411C56.2073 1.08477 56.052 1.06048 55.6166 1.08963C55.1811 1.11878 55.2596 1.556 55.4238 1.81348L55.9235 2.65392C55.9235 2.65392 54.5886 0.822433 53.8104 1.08315C53.0322 1.34387 54.0603 2.38835 54.0603 2.38835C54.0603 2.38835 55.024 3.5219 55.3988 4.11134C55.7736 4.70079 56.3644 5.72098 56.3644 5.72098C56.3644 5.72098 54.7135 4.19555 54.278 3.91378C53.8425 3.63201 52.7824 2.27499 52.0988 2.84015C51.4153 3.4053 54.7759 6.11448 55.2418 6.92092L55.7094 7.53466L56.052 8.43825C55.8159 8.18112 55.5125 7.98177 55.1695 7.85844C54.8266 7.7351 54.455 7.69171 54.0888 7.73222C52.7806 7.84557 53.8711 8.60829 54.2138 8.89005C54.5564 9.17182 55.3025 9.85033 55.6148 10.4155C55.9271 10.9806 57.0212 11.9782 57.5138 12.2405C58.0064 12.5028 59.1325 12.7911 59.1325 12.7911H62.0845Z" fill="#FFBF9D"/>
<path d="M56.0528 6.48851C56.0653 6.49823 56.217 6.35248 56.5043 6.16464C56.6735 6.05455 56.8526 5.95758 57.0397 5.87477C57.2695 5.77557 57.5084 5.69483 57.7536 5.63349C57.9982 5.57631 58.2478 5.53891 58.4997 5.52175C58.7055 5.5099 58.912 5.51315 59.1172 5.53147C59.4741 5.56386 59.6812 5.62053 59.6865 5.60596C59.641 5.58198 59.5916 5.56451 59.5402 5.55414C59.4049 5.51633 59.2664 5.4887 59.1261 5.47155C58.9175 5.44488 58.7066 5.43566 58.4961 5.44403C58.2376 5.45742 57.9811 5.49376 57.7304 5.55252C57.4837 5.61464 57.2445 5.69928 57.0165 5.80514C56.8281 5.89396 56.6489 5.99802 56.4811 6.11606C56.3691 6.19489 56.2647 6.2821 56.1688 6.37677C56.0831 6.44479 56.0474 6.48365 56.0528 6.48851Z" fill="#FF9A6C"/>
<path d="M55.804 2.51434C55.7915 2.51434 55.9254 2.67628 56.1163 2.94023C56.3613 3.28594 56.5848 3.64384 56.7856 4.01224C57.0248 4.44461 57.2193 4.84459 57.3621 5.13284C57.4307 5.29127 57.5131 5.44451 57.6084 5.59111C57.5651 5.42465 57.5053 5.26207 57.4299 5.10531C57.3014 4.81059 57.1158 4.40413 56.8766 3.97176C56.6754 3.59957 56.4414 3.2427 56.177 2.90461C56.0969 2.802 56.0111 2.70309 55.92 2.60826C55.8468 2.53701 55.8094 2.50139 55.804 2.51434Z" fill="#FF9A6C"/>
<path d="M55.7542 8.08411C55.8156 8.16566 55.8848 8.24208 55.9612 8.31244C56.1147 8.48409 56.2807 8.66545 56.461 8.86464C56.5558 8.96848 56.6636 9.06196 56.7822 9.14316C56.8842 9.20564 56.9989 9.24912 57.1195 9.27109C57.2268 9.29836 57.3388 9.30715 57.4497 9.297C57.3483 9.25976 57.2431 9.23156 57.1356 9.2128C57.0265 9.18543 56.9237 9.14045 56.8322 9.08001C56.7225 8.99869 56.6215 8.90814 56.5306 8.80958C56.3342 8.59906 56.154 8.4015 56.0094 8.27195C55.9386 8.19486 55.8519 8.13105 55.7542 8.08411Z" fill="#FF9A6C"/>
<path d="M33.1951 31.6626C33.1416 29.9785 32.8203 28.3057 32.8596 26.6216C32.8988 24.9375 33.3575 23.1772 34.63 21.9498C35.9026 20.7223 38.8046 19.8009 40.0093 21.6437V22.6153C39.531 29.117 39.7309 35.7159 39.2525 42.2176C39.1901 43.0726 38.4405 43.8548 38.0264 44.6256C37.6124 45.3964 36.7664 46.036 35.824 45.9988C34.5908 45.9486 33.7609 44.8264 33.3593 43.7673C31.9083 39.9214 33.329 35.711 33.1951 31.6626Z" fill="#263238"/>
<path d="M37.0758 22.8078C37.2389 22.3452 37.4797 21.9083 37.7897 21.5123C38.1199 21.135 38.616 20.8436 39.1479 20.8517C39.2734 20.846 39.3984 20.8697 39.5109 20.9204C39.6234 20.9712 39.7196 21.0473 39.7904 21.1415C39.9118 21.3391 39.7904 21.6484 39.5406 21.6694L39.4959 21.718C39.0319 22.2427 38.5572 22.7609 38.0681 23.2677C37.9538 23.4026 37.812 23.5164 37.6505 23.6029C37.5684 23.646 37.4745 23.667 37.3797 23.6635C37.2849 23.6601 37.1932 23.6323 37.1151 23.5835C36.8795 23.4151 36.9652 23.0702 37.0758 22.8078Z" fill="#455A64"/>
<path d="M36.3433 24.6005C37.7818 22.2945 40.0092 20.748 42.8809 20.2558C44.4996 19.9772 45.2296 20.1797 46.4504 20.2833C47.6711 20.3869 48.8384 20.7902 49.7057 21.5788C50.7373 22.5164 51.66 23.603 52.0634 24.8758C52.4775 26.1842 52.8933 27.5008 53.0361 28.8562C53.1789 30.2115 53.0361 31.6204 52.3722 32.8414L48.7331 34.0186C46.6734 34.4057 44.5853 34.7943 42.4864 34.681C40.3875 34.5676 38.2405 33.8891 36.8555 32.4527C34.9351 30.4593 34.903 26.9081 36.3433 24.6005Z" fill="#263238"/>
<path d="M39.6811 24.0517L44.3393 21.4607L45.6708 21.3943C48.612 20.9458 51.2035 23.5691 51.6247 25.7261C52.1012 28.1228 52.5796 31.07 52.4939 32.8982C52.3154 36.5871 49.035 37.4049 49.035 37.4049C49.035 37.4049 49.4634 39.2898 49.715 40.4817L47.6001 45.0256L41.9656 41.1748L38.5907 25.467C38.5452 25.1502 38.6318 24.8294 38.8335 24.5676C39.0353 24.3057 39.3376 24.1217 39.6811 24.0517Z" fill="#FFBF9D"/>
<path d="M46.4604 32.9949C46.4561 32.8079 46.5272 32.6259 46.6603 32.4832C46.7813 32.3502 46.9472 32.2571 47.1323 32.2181C47.3175 32.1792 47.5116 32.1967 47.6847 32.2678C47.867 32.3552 48.0204 32.4852 48.1289 32.6443C48.2375 32.8034 48.2973 32.9859 48.3022 33.173C48.2374 33.2962 48.1441 33.4052 48.0286 33.4927C47.9131 33.5802 47.7781 33.644 47.633 33.6799C47.5878 33.691 47.5419 33.6996 47.4955 33.7058C47.2621 33.7416 47.0223 33.6959 46.8245 33.5778C46.7189 33.5122 46.6312 33.4256 46.5681 33.3246C46.505 33.2236 46.4682 33.1108 46.4604 32.9949Z" fill="#FF9A6C"/>
<path d="M50.3211 28.7974C50.338 28.9183 50.3021 29.0404 50.221 29.1375C50.14 29.2347 50.0202 29.2992 49.8874 29.3173C49.823 29.3289 49.7567 29.3287 49.6923 29.3167C49.628 29.3047 49.5669 29.281 49.5128 29.2472C49.4587 29.2134 49.4127 29.1701 49.3774 29.1198C49.3421 29.0695 49.3183 29.0133 49.3074 28.9545C49.2904 28.8337 49.3261 28.7117 49.4067 28.6143C49.4874 28.5169 49.6067 28.4519 49.7393 28.4331C49.8039 28.4217 49.8704 28.4221 49.9349 28.4343C49.9994 28.4465 50.0605 28.4703 50.1147 28.5042C50.1689 28.5381 50.2151 28.5816 50.2505 28.6319C50.286 28.6823 50.31 28.7386 50.3211 28.7974Z" fill="#263238"/>
<path d="M50.9545 27.0781C50.8992 27.1461 50.478 26.9258 49.9265 26.9858C49.375 27.0457 49.0038 27.3372 48.936 27.2821C48.9038 27.2578 48.9556 27.1428 49.1144 27.0068C49.3338 26.8327 49.6065 26.7236 49.8962 26.6943C50.1828 26.6631 50.473 26.7159 50.7243 26.8449C50.9099 26.9453 50.9813 27.0489 50.9545 27.0781Z" fill="#263238"/>
<path d="M48.1823 31.5015C48.1823 31.4739 48.5107 31.3833 49.0568 31.2618C49.196 31.2327 49.3263 31.1938 49.3388 31.0999C49.3343 30.9664 49.2844 30.8374 49.196 30.7307L48.6606 29.8028C47.9057 28.4798 47.3417 27.3867 47.4006 27.3592C47.4595 27.3316 48.1145 28.3826 48.873 29.7056C49.0574 30.0295 49.2323 30.3415 49.3977 30.6416C49.5039 30.7843 49.5525 30.9559 49.5351 31.1274C49.5202 31.1746 49.4936 31.218 49.4574 31.2545C49.4213 31.2909 49.3764 31.3195 49.3263 31.3379C49.2515 31.3661 49.1729 31.3852 49.0925 31.3946C48.5393 31.5015 48.1823 31.5371 48.1823 31.5015Z" fill="#263238"/>
<path d="M49.0424 37.4124C47.167 37.6372 45.2596 37.3849 43.5329 36.6837C43.5329 36.6837 45.2766 39.0431 49.228 38.2836L49.0424 37.4124Z" fill="#FF9A6C"/>
<path d="M46.6031 32.0241C46.6923 32.0095 46.7637 32.552 47.317 32.884C47.8703 33.2159 48.5074 33.088 48.5217 33.1641C48.5342 33.1965 48.3932 33.2839 48.1237 33.318C47.7741 33.36 47.4193 33.2883 47.1225 33.1155C46.8435 32.947 46.6461 32.688 46.571 32.3917C46.5121 32.1666 46.562 32.0257 46.6031 32.0241Z" fill="#263238"/>
<path d="M50.4346 25.3728C50.3578 25.5039 49.9259 25.4667 49.4387 25.5558C48.9515 25.6448 48.557 25.8051 48.4339 25.7064C48.3785 25.6578 48.4178 25.5331 48.5731 25.3938C48.7876 25.2192 49.051 25.1016 49.3344 25.0539C49.6177 25.0062 49.9101 25.0302 50.1794 25.1234C50.3846 25.2044 50.4685 25.308 50.4346 25.3728Z" fill="#263238"/>
<path d="M44.1785 29.5387C44.1971 29.6594 44.2672 29.7687 44.3736 29.8432C44.48 29.9177 44.6143 29.9513 44.7478 29.937C44.8129 29.9323 44.8763 29.916 44.9344 29.8891C44.9925 29.8621 45.0442 29.825 45.0865 29.7798C45.1288 29.7347 45.1608 29.6824 45.1808 29.6261C45.2008 29.5697 45.2083 29.5103 45.2029 29.4512C45.1834 29.3305 45.1129 29.2215 45.0063 29.1471C44.8997 29.0728 44.7654 29.039 44.6318 29.0529C44.5668 29.0576 44.5034 29.0739 44.4454 29.1009C44.3874 29.1279 44.3358 29.165 44.2937 29.2102C44.2516 29.2553 44.2197 29.3076 44.1999 29.364C44.1801 29.4204 44.1728 29.4797 44.1785 29.5387Z" fill="#263238"/>
<path d="M43.5393 28.0392C43.6125 28.091 43.9551 27.7785 44.503 27.7024C45.051 27.6263 45.4954 27.819 45.5436 27.7493C45.5685 27.7186 45.4847 27.6198 45.2901 27.5275C45.0277 27.4115 44.7321 27.3724 44.4441 27.4157C44.1592 27.4544 43.8953 27.5747 43.691 27.759C43.5393 27.8999 43.4964 28.0165 43.5393 28.0392Z" fill="#263238"/>
<path d="M43.5562 26.4013C43.6829 26.4985 44.0916 26.322 44.5931 26.2394C45.0946 26.1568 45.5462 26.1844 45.6247 26.0516C45.6586 25.9884 45.5712 25.8896 45.3659 25.8038C45.0863 25.7081 44.7828 25.6852 44.4896 25.7374C44.1955 25.7814 43.9212 25.9004 43.699 26.0807C43.5366 26.2281 43.4991 26.3528 43.5562 26.4013Z" fill="#263238"/>
<path d="M40.4141 31.4043C40.3784 31.1338 39.9536 30.5347 39.6556 30.5233C38.8578 30.4958 37.4514 30.7015 37.6692 32.5087C37.9672 34.9798 40.6408 34.1993 40.6372 34.128C40.6336 34.0568 40.5355 32.3354 40.4141 31.4043Z" fill="#FFBF9D"/>
<path d="M39.77 33.298C39.7557 33.298 39.7253 33.3337 39.6504 33.3742C39.5419 33.4297 39.4139 33.4448 39.2934 33.4163C38.9954 33.3499 38.7027 32.9596 38.6349 32.5143C38.6028 32.3035 38.623 32.0888 38.6938 31.886C38.7097 31.8061 38.7471 31.7309 38.8024 31.6671C38.8578 31.6033 38.9296 31.5528 39.0114 31.52C39.0643 31.5016 39.1226 31.5004 39.1763 31.5167C39.23 31.5329 39.2758 31.5656 39.3059 31.6091C39.3505 31.6755 39.3381 31.7257 39.3541 31.7289C39.3702 31.7321 39.4077 31.6819 39.372 31.5815C39.3496 31.522 39.3055 31.4712 39.247 31.4374C39.1658 31.3941 39.0693 31.3808 38.9775 31.4002C38.8683 31.4316 38.7696 31.4878 38.6909 31.5635C38.6122 31.6391 38.5561 31.7317 38.5278 31.8325C38.4381 32.0584 38.4099 32.3007 38.4457 32.5386C38.5242 33.0341 38.8615 33.4729 39.2667 33.5361C39.3422 33.5485 39.4198 33.5452 39.4937 33.5264C39.5676 33.5076 39.6358 33.4738 39.6932 33.4276C39.7717 33.3596 39.7789 33.3029 39.77 33.298Z" fill="#FF9A6C"/>
<path d="M39.5452 30.5471L40.3519 31.0848C42.822 28.0549 47.3803 20.7209 47.134 21.1581C47.134 21.1581 44.9655 20.7177 42.8309 21.401C40.6964 22.0844 36.7164 23.7329 37.2268 26.0761C37.7373 28.4193 39.5452 30.5471 39.5452 30.5471Z" fill="#263238"/>
<path d="M35.5174 30.6187C35.5154 30.5692 35.5202 30.5197 35.5317 30.4714C35.5548 30.3304 35.5918 30.1917 35.6423 30.0568C35.834 29.5604 36.1435 29.1082 36.549 28.7322C37.1523 28.1789 37.8563 27.7242 38.63 27.3881C39.4813 26.98 40.4576 26.6157 41.3803 26.0716C42.2555 25.5686 43.0629 24.9746 43.7862 24.3016C44.3767 23.7528 44.9113 23.1566 45.3835 22.5203C45.7004 22.0893 45.9889 21.6415 46.2473 21.1795C46.333 21.0257 46.4008 20.8993 46.4544 20.8006C46.4754 20.7547 46.5024 20.7112 46.5347 20.671C46.5221 20.7195 46.5042 20.7667 46.4811 20.8119C46.4401 20.901 46.383 21.0354 46.3026 21.2022C46.0602 21.6745 45.7823 22.1311 45.471 22.5689C45.0076 23.2194 44.4763 23.8278 43.8843 24.3858C43.1589 25.0701 42.3451 25.6726 41.4606 26.1801C40.5254 26.7306 39.5402 27.095 38.6943 27.4934C37.9309 27.8181 37.2324 28.2559 36.6275 28.7888C36.223 29.1527 35.9063 29.5889 35.6977 30.0698C35.5549 30.4163 35.5317 30.622 35.5174 30.6187Z" fill="#455A64"/>
<path d="M36.3844 30.8832C36.3407 30.7013 36.3407 30.513 36.3844 30.331C36.4985 29.8325 36.7752 29.3766 37.1786 29.0226C37.6695 28.553 38.428 28.1919 39.2757 27.8712C40.2038 27.5471 41.0896 27.1312 41.9172 26.6308C42.7377 26.1232 43.4853 25.5248 44.1427 24.8495C44.6824 24.2971 45.1606 23.6978 45.5705 23.0601C45.842 22.6285 46.0846 22.1823 46.2969 21.7242L46.4594 21.3452C46.4765 21.3002 46.4986 21.2568 46.5254 21.2157C46.519 21.2629 46.5058 21.3092 46.4861 21.3533C46.4504 21.4554 46.404 21.5833 46.3469 21.742C46.1542 22.2108 45.9233 22.6661 45.6562 23.1039C44.7671 24.5573 43.5161 25.8022 42.0028 26.7393C41.1655 27.2449 40.2673 27.6622 39.3257 27.983C38.4779 28.2971 37.7337 28.6421 37.2483 29.089C36.8501 29.4275 36.5687 29.8634 36.438 30.344C36.4012 30.5218 36.3833 30.7024 36.3844 30.8832Z" fill="#455A64"/>
<path d="M40.417 34.6734C40.417 34.6572 40.1796 34.6653 39.762 34.6329C39.1742 34.5717 38.6092 34.3907 38.1093 34.1034C37.3755 33.6653 36.7688 33.0731 36.3406 32.3772C35.8002 31.5315 35.4213 30.6089 35.2198 29.6486C35.0035 28.6908 35.0187 27.7019 35.2644 26.7499C35.4693 25.9733 35.8149 25.2329 36.2871 24.5589C37.1009 23.4076 37.8612 22.8764 37.8237 22.8473C37.7739 22.8721 37.7283 22.9032 37.6881 22.9396C37.606 23.0076 37.4757 23.1015 37.3312 23.2376C36.9007 23.6191 36.5166 24.0415 36.1854 24.4974C35.6902 25.1748 35.3279 25.9248 35.1145 26.7143C34.9924 27.1824 34.9218 27.6603 34.9039 28.141C34.8945 28.6571 34.9447 29.1727 35.0538 29.6793C35.2582 30.6583 35.649 31.5976 36.2086 32.4549C36.6565 33.1658 37.2903 33.7659 38.054 34.2022C38.5738 34.4867 39.1615 34.6533 39.7673 34.688C39.9307 34.6985 40.0947 34.6985 40.2581 34.688C40.3116 34.6897 40.365 34.6848 40.417 34.6734Z" fill="#455A64"/>
<path d="M37.1545 52.7766C37.0028 52.9466 35.2805 57.9472 35.2805 57.9472L44.9717 59.4143L44.6772 63.5923L30.3992 63.4109C30.3992 63.4109 27.3919 62.2773 28.0915 59.1374C28.6947 56.4298 31.9448 47.1121 32.1964 46.2182C32.4481 45.3243 34.6148 42.1358 36.9689 41.4557L39.3586 48.1809L37.1545 52.7766Z" fill="#407BFF"/>
<path d="M63.8203 62.7548C63.8203 62.7548 59.6833 58.2125 59.2281 56.428C58.773 54.6434 59.8028 43.3727 59.8028 43.3727L52.4497 37.4167L49.5405 39.496C49.5405 39.496 48.6481 42.8837 46.5421 43.078C44.4361 43.2723 41.834 40.615 41.834 40.615C41.834 40.615 38.3055 40.6312 35.9782 41.8457L36.3494 48.8186C36.8384 51.876 37.3292 54.8102 37.9896 56.0733L38.0431 56.428L41.5734 62.6771L63.8203 62.7548Z" fill="#407BFF"/>
<path d="M59.8063 43.5088C59.8063 43.5088 59.7795 41.1899 59.7795 40.9843C59.7795 40.7786 61.4268 33.3085 61.8248 30.3726C62.2228 27.4367 62.0997 20.0185 62.0997 20.0185L56.3082 19.0469L54.7144 30.1686L53.2866 34.0453L52.3175 37.9318L53.076 39.1333L59.8063 43.5088Z" fill="#407BFF"/>
<path d="M58.986 33.7231C58.9764 33.7476 58.9716 33.7733 58.9717 33.7993C58.9717 33.8576 58.9556 33.9288 58.9467 34.0146C58.9288 34.217 58.9039 34.4859 58.8735 34.813C58.7892 35.6911 58.7617 36.5731 58.7914 37.4541C58.8424 38.3364 59.001 39.2108 59.2644 40.0613C59.3697 40.3852 59.4571 40.6475 59.5285 40.8256L59.6106 41.0313C59.6177 41.056 59.6292 41.0795 59.6445 41.1009C59.6419 41.0751 59.6365 41.0497 59.6285 41.0248L59.5642 40.8159C59.5035 40.6345 59.4232 40.3722 59.3286 40.0451C59.0851 39.1972 58.9368 38.3291 58.886 37.4541C58.8343 36.4275 58.9039 35.4963 58.9396 34.8211C58.9574 34.4972 58.9717 34.2251 58.9824 34.0227C58.9824 33.9369 58.9824 33.8608 58.9824 33.8041C58.9891 33.7776 58.9903 33.7501 58.986 33.7231Z" fill="#263238"/>
<path d="M36.3502 48.3938C36.3502 48.4275 36.3538 48.4611 36.361 48.4942L36.4091 48.776C36.4466 49.0334 36.5002 49.3865 36.5644 49.8188C36.6965 50.6981 36.875 51.924 37.1623 53.2486C37.3859 54.391 37.7222 55.5129 38.1671 56.6007C38.2135 56.7043 38.251 56.8047 38.2974 56.8954L38.4295 57.1529L38.5455 57.3763C38.5812 57.4444 38.624 57.5027 38.6579 57.5561L38.8203 57.8022C38.8371 57.8321 38.8581 57.8599 38.8828 57.8848C38.87 57.8535 38.8545 57.8232 38.8364 57.7941L38.6901 57.5399C38.6597 57.4848 38.6187 57.4265 38.5848 57.3585C38.5508 57.2905 38.5152 57.2128 38.4759 57.1334L38.351 56.8743C38.3081 56.7837 38.2724 56.6833 38.2278 56.5796C37.8033 55.4898 37.4774 54.3703 37.2533 53.2324C36.9678 51.9046 36.7786 50.6884 36.6304 49.8107C36.5573 49.3703 36.493 49.0156 36.452 48.7711C36.427 48.648 36.402 48.5541 36.3877 48.491C36.3801 48.4572 36.3675 48.4245 36.3502 48.3938Z" fill="#263238"/>
<path d="M32.3782 60.3265C32.5129 60.199 32.637 60.0626 32.7494 59.9184C33.0287 59.578 33.3309 59.2535 33.6543 58.9468C34.4271 58.2408 35.2945 57.9752 35.273 57.9396C35.2516 57.9039 35.2177 57.9493 35.1231 57.98C34.9893 58.028 34.8583 58.082 34.7305 58.142C34.3092 58.3366 33.9238 58.5896 33.5882 58.8917C33.261 59.1984 32.9625 59.5294 32.6959 59.8812C32.577 60.0216 32.4707 60.1706 32.3782 60.3265Z" fill="#263238"/>
<path d="M44.6666 63.5922C44.675 63.5664 44.6798 63.5398 44.6809 63.5129C44.6809 63.4546 44.6934 63.3785 44.7041 63.2829C44.7201 63.0757 44.7451 62.7842 44.7755 62.4214C44.8326 61.6749 44.9129 60.6402 45.0039 59.4159V59.3803H44.9646L42.3982 58.9884L37.3634 58.237L35.8356 58.02L35.4198 57.965C35.3715 57.9567 35.3225 57.9524 35.2734 57.952C35.3202 57.9647 35.368 57.9744 35.4162 57.9812L35.8303 58.0524L37.3527 58.2969L42.3839 59.071L44.9504 59.4564L44.9147 59.4159C44.8361 60.6353 44.7683 61.683 44.7201 62.4231C44.6987 62.7874 44.6826 63.0708 44.6719 63.2862C44.6719 63.3817 44.6719 63.4578 44.663 63.5161C44.6622 63.5415 44.6633 63.567 44.6666 63.5922Z" fill="#263238"/>
<path d="M46.4894 53.8151C46.4894 53.8151 46.5126 53.8394 46.5643 53.8782L46.7928 54.0483L46.9605 54.1681C47.023 54.2102 47.0944 54.2507 47.1693 54.2976C47.3384 54.4051 47.5136 54.5046 47.6941 54.5956L48.0082 54.7575C48.1171 54.8126 48.2384 54.8563 48.3651 54.9098C48.6079 55.0199 48.8791 55.1041 49.1629 55.2012C50.4133 55.5909 51.7436 55.7231 53.0572 55.5883C53.3571 55.5494 53.6444 55.5186 53.9068 55.4603C54.0371 55.4312 54.1656 55.4118 54.2869 55.381L54.6314 55.2871C54.829 55.2341 55.0232 55.1714 55.2132 55.0992C55.2989 55.0684 55.3774 55.0425 55.4488 55.0134L55.6416 54.9292L55.9039 54.8094C55.9353 54.7964 55.9652 54.7807 55.9932 54.7624C55.9591 54.7686 55.9261 54.7789 55.895 54.7932L55.6255 54.8984L55.4328 54.9761C55.3596 55.0037 55.2793 55.0263 55.1954 55.0555C55.0169 55.1089 54.8384 55.1802 54.6118 55.2304L54.2691 55.3178C54.1495 55.347 54.021 55.3648 53.8907 55.3907C53.6123 55.4435 53.3312 55.4835 53.0483 55.5105C52.3991 55.5688 51.7451 55.5688 51.0958 55.5105C50.449 55.4406 49.8112 55.3137 49.1915 55.1316C48.9095 55.0377 48.6382 54.9551 48.3973 54.8482C48.2759 54.798 48.1545 54.7543 48.0403 54.7025L47.7262 54.5503C47.5209 54.4579 47.3532 54.3511 47.1908 54.2652C47.1158 54.2199 47.0426 54.181 46.9784 54.1422L46.7999 54.0272L46.5625 53.8653C46.5396 53.8469 46.5151 53.8301 46.4894 53.8151Z" fill="#263238"/>
<path d="M59.6722 63.3835C59.6943 63.3428 59.7067 63.2984 59.7087 63.2531C59.7107 63.2077 59.7021 63.1625 59.6836 63.1204C59.6651 63.0783 59.6371 63.0401 59.6013 63.0085C59.5655 62.9768 59.5228 62.9523 59.4759 62.9366C58.3586 62.5819 54.3715 61.3172 54.1074 61.2314C53.8022 61.1391 47.6822 60.0638 47.6822 60.0638L44.9177 59.9246L44.6821 63.288H47.3074C47.6479 63.3804 47.9958 63.4486 48.348 63.492C48.7388 63.526 54.6107 63.8045 56.1687 63.7446C56.2663 63.7403 56.361 63.7131 56.4436 63.6657C56.5262 63.6183 56.5938 63.5523 56.6399 63.4742C56.6399 63.4742 57.6197 63.8272 58.2337 63.7527C58.8476 63.6782 58.8459 63.5665 58.8459 63.5665C58.8459 63.5665 59.4384 63.7786 59.6722 63.3835Z" fill="#FFBF9D"/>
<path d="M51.997 62.2676C52.0514 62.3034 52.1116 62.3312 52.1755 62.3502C52.341 62.4115 52.5117 62.4608 52.6859 62.4975C52.9036 62.5461 53.1678 62.5882 53.4516 62.6595C53.5943 62.6918 53.7371 62.742 53.896 62.7842C54.0548 62.8263 54.2154 62.8635 54.3832 62.8959C54.7205 62.9623 55.0382 63.0141 55.3327 63.0578C55.6272 63.1015 55.8967 63.1064 56.1126 63.1485C56.2837 63.1644 56.4449 63.2291 56.5731 63.3331C56.5911 63.3564 56.6032 63.383 56.6084 63.411C56.6137 63.439 56.612 63.4677 56.6034 63.495C56.6034 63.495 56.6195 63.4837 56.6302 63.4529C56.6406 63.4067 56.631 63.3586 56.6034 63.3185C56.4791 63.1943 56.3103 63.114 56.1269 63.0918C55.9056 63.04 55.6361 63.0254 55.347 62.9817C55.0578 62.938 54.7348 62.8732 54.4028 62.8084C54.2369 62.7761 54.0744 62.7404 53.921 62.6999C53.7675 62.6595 53.6193 62.6109 53.473 62.5801C53.1821 62.5137 52.9179 62.4781 52.7002 62.4376C52.4627 62.3918 52.228 62.3351 51.997 62.2676Z" fill="#FF9A6C"/>
<path d="M53.2246 61.5784C53.3007 61.6091 53.3795 61.634 53.4602 61.6529L54.1134 61.8261C54.6631 61.9719 55.4252 62.1727 56.2551 62.4042C57.085 62.6358 57.8489 62.8512 58.3968 63.0083C58.5183 63.0368 58.6323 63.0869 58.7323 63.1556C58.7681 63.182 58.7976 63.2147 58.8191 63.2517C58.8406 63.2887 58.8536 63.3293 58.8573 63.371C58.861 63.407 58.8561 63.4433 58.8429 63.4774C58.8296 63.5116 58.8083 63.5426 58.7805 63.5686C58.7805 63.5686 58.8037 63.5686 58.8341 63.5329C58.8763 63.4881 58.8975 63.4299 58.893 63.371C58.8922 63.3239 58.8807 63.2774 58.8592 63.2344C58.8377 63.1915 58.8067 63.1531 58.768 63.1216C58.6622 63.0465 58.5408 62.9914 58.4111 62.9597C57.8756 62.788 57.1136 62.5629 56.2694 62.3314C55.4252 62.0998 54.6631 61.9087 54.1098 61.7776C53.8332 61.7112 53.6065 61.661 53.4495 61.6286C53.3765 61.6052 53.3012 61.5884 53.2246 61.5784Z" fill="#FF9A6C"/>
</svg>
