<svg width="27" height="10" viewBox="0 0 27 10" fill="none" xmlns="http://www.w3.org/2000/svg">
<path d="M11.3282 2.7006L24.5586 2.55324L18.2566 9.04361H2.45444L11.3282 2.7006Z" fill="#F5F5F5"/>
<path d="M9.14837 2.05817L22.377 1.90919L16.0768 8.39956H0.272797L9.14837 2.05817Z" fill="#EBEBEB"/>
<path d="M12.789 0.9109L26.0176 0.763538L19.7174 7.25391H3.91343L12.789 0.9109Z" fill="#EBEBEB"/>
<path d="M24.2925 0.216335L24.4121 1.36122L18.0388 7.79167L2.30082 7.7107V6.7067L24.2925 0.216335Z" fill="#E0E0E0"/>
<path d="M11.0546 0.363697L24.2832 0.216335L17.983 6.7067H2.17905L11.0546 0.363697Z" fill="white"/>
<path d="M11.0738 0.36446L10.9096 0.476196L10.4349 0.808162L8.63225 2.08421L2.17502 6.67994C2.17118 6.68313 2.16811 6.687 2.16601 6.69133C2.16391 6.69565 2.16283 6.70032 2.16283 6.70504C2.16283 6.70977 2.16391 6.71444 2.16601 6.71876C2.16811 6.72308 2.17118 6.72696 2.17502 6.73014C2.17879 6.73412 2.18344 6.73733 2.18867 6.73956C2.19389 6.74179 2.19958 6.743 2.20536 6.7431H15.8391H17.9951C18.0016 6.74343 18.0081 6.74227 18.0141 6.73972C18.02 6.73718 18.0251 6.73333 18.029 6.72852L24.3256 0.241388C24.3295 0.238058 24.3326 0.234042 24.3347 0.229587C24.3368 0.225131 24.3379 0.22033 24.3379 0.215478C24.3379 0.210626 24.3368 0.205824 24.3347 0.201368C24.3326 0.196913 24.3295 0.192897 24.3256 0.189567C24.3183 0.183365 24.3088 0.179893 24.2988 0.179852L14.7165 0.302924L12.0215 0.343408L11.3076 0.356361H11.1291H11.0684C11.0892 0.357758 11.1101 0.357758 11.1309 0.356361H12.0233L14.72 0.335308L24.2917 0.244625L24.2613 0.183093L17.9576 6.67023L17.9915 6.65565H15.8212H2.18751L2.2125 6.71881L8.63761 2.10527L10.4224 0.809783L10.8917 0.466481C11.0131 0.403326 11.0738 0.36446 11.0738 0.36446Z" fill="#263238"/>
<path d="M6.61487 5.1546C6.61487 5.17889 9.03321 5.1967 12.0155 5.1967C14.9978 5.1967 17.418 5.17889 17.418 5.1546C17.418 5.13031 14.9996 5.11249 12.0155 5.11249C9.03142 5.11249 6.61487 5.13193 6.61487 5.1546Z" fill="#263238"/>
<path d="M7.65002 4.55963C7.65002 4.58392 10.0684 4.60173 13.0507 4.60173C16.033 4.60173 18.4531 4.58392 18.4531 4.55963C18.4531 4.53534 16.0348 4.51752 13.0507 4.51752C10.0666 4.51752 7.65002 4.53696 7.65002 4.55963Z" fill="#263238"/>
<path d="M8.23027 3.90992C8.23027 3.9326 10.6486 3.95203 13.6327 3.95203C16.6168 3.95203 19.0352 3.9326 19.0352 3.90992C19.0352 3.88725 16.6168 3.86782 13.6327 3.86782C10.6486 3.86782 8.23027 3.88563 8.23027 3.90992Z" fill="#263238"/>
<path d="M9.20666 3.25806C9.20666 3.28073 11.625 3.30016 14.6073 3.30016C17.5896 3.30016 20.0098 3.28073 20.0098 3.25806C20.0098 3.23539 17.5914 3.21596 14.6073 3.21596C11.6232 3.21596 9.20666 3.23539 9.20666 3.25806Z" fill="#263238"/>
<path d="M9.96838 2.55341C9.96838 2.57609 12.3867 2.59552 15.369 2.59552C18.3514 2.59552 20.7715 2.57609 20.7715 2.55341C20.7715 2.53074 18.3531 2.50807 15.3673 2.50807C12.3814 2.50807 9.96838 2.53074 9.96838 2.55341Z" fill="#263238"/>
<path d="M18.0376 7.79235C18.0805 7.60665 18.0937 7.41632 18.0769 7.2272C18.0895 7.03736 18.0709 6.84688 18.0216 6.66204C17.9658 7.03857 17.9713 7.42048 18.0376 7.79559V7.79235Z" fill="#263238"/>
</svg>
