<svg width="41" height="69" viewBox="0 0 41 69" fill="none" xmlns="http://www.w3.org/2000/svg">
<path d="M32.6624 0.767752H3.5812C3.12071 0.763091 2.66428 0.852402 2.24089 1.03001C1.8175 1.20761 1.43642 1.46962 1.12187 1.7994C0.80731 2.12918 0.566157 2.51951 0.413729 2.94558C0.261301 3.37166 0.200932 3.82417 0.236458 4.27435L4.40519 65.0841C4.48383 66.0313 4.91938 66.916 5.62695 67.5656C6.33453 68.2151 7.26343 68.5831 8.23263 68.5978H37.3138C37.775 68.603 38.2322 68.5137 38.6561 68.3358C39.0801 68.1578 39.4616 67.8951 39.7761 67.5644C40.0907 67.2337 40.3314 66.8423 40.4829 66.4153C40.6345 65.9882 40.6934 65.5348 40.6561 65.0841L36.4874 4.27435C36.4071 3.32876 35.9711 2.4462 35.2642 1.79816C34.5573 1.15011 33.63 0.782862 32.6624 0.767752Z" fill="#407BFF"/>
<path opacity="0.3" d="M32.6624 0.767752H3.5812C3.12071 0.763091 2.66428 0.852402 2.24089 1.03001C1.8175 1.20761 1.43642 1.46962 1.12187 1.7994C0.80731 2.12918 0.566157 2.51951 0.413729 2.94558C0.261301 3.37166 0.200932 3.82417 0.236458 4.27435L4.40519 65.0841C4.48383 66.0313 4.91938 66.916 5.62695 67.5656C6.33453 68.2151 7.26343 68.5831 8.23263 68.5978H37.3138C37.775 68.603 38.2322 68.5137 38.6561 68.3358C39.0801 68.1578 39.4616 67.8951 39.7761 67.5644C40.0907 67.2337 40.3314 66.8423 40.4829 66.4153C40.6345 65.9882 40.6934 65.5348 40.6561 65.0841L36.4874 4.27435C36.4071 3.32876 35.9711 2.4462 35.2642 1.79816C34.5573 1.15011 33.63 0.782862 32.6624 0.767752Z" fill="white"/>
<path d="M0.274488 13.797L0.03125 13.813L0.423901 19.5488L0.667139 19.5328L0.274488 13.797Z" fill="#407BFF"/>
<path d="M0.883861 22.5484L0.640625 22.5645L0.817082 25.1354L1.06032 25.1193L0.883861 22.5484Z" fill="#407BFF"/>
<path d="M6.52298 65.7053C6.54283 65.9371 6.47581 66.168 6.33449 66.3548C6.19316 66.5416 5.98723 66.6715 5.75524 66.7202C5.52326 66.7689 5.28114 66.7329 5.07423 66.6191C4.86733 66.5054 4.70982 66.3215 4.63121 66.1021C4.50997 65.7785 4.4361 65.4397 4.4118 65.0957L0.243069 4.27407C0.218388 3.93169 0.246329 3.58763 0.325955 3.2534C0.374961 3.02563 0.507032 2.82321 0.697397 2.68411C0.887763 2.54501 1.12334 2.47878 1.35996 2.49784C1.59658 2.51691 1.81797 2.61996 1.98262 2.78766C2.14728 2.95537 2.24387 3.17621 2.2543 3.40877L6.52298 65.7053Z" fill="#407BFF"/>
<path d="M37.3156 67.457H10.2969C9.62605 67.4393 8.9852 67.1807 8.49586 66.7304C8.00652 66.2801 7.70271 65.6694 7.64206 65.0141L3.47333 4.20681C3.4466 3.91319 3.48319 3.61735 3.58071 3.33851C3.67823 3.05967 3.8345 2.80407 4.03936 2.58832C4.24423 2.37257 4.4931 2.2015 4.76981 2.08624C5.04651 1.97097 5.34486 1.91408 5.64546 1.91927H32.6642C33.3347 1.937 33.9752 2.19522 34.4645 2.64501C34.9538 3.0948 35.2578 3.70491 35.319 4.35979L39.4878 65.1695C39.5137 65.463 39.4766 65.7585 39.3788 66.037C39.281 66.3155 39.1247 66.5708 38.92 66.7864C38.7153 67.002 38.4667 67.1731 38.1904 67.2886C37.914 67.4041 37.616 67.4615 37.3156 67.457ZM5.64546 2.17504C5.3807 2.17027 5.1179 2.22027 4.87417 2.32177C4.63045 2.42327 4.41127 2.57399 4.23094 2.76412C4.05061 2.95424 3.91316 3.17949 3.82757 3.42519C3.74198 3.67089 3.71015 3.93151 3.73418 4.19007L7.90291 64.9879C7.95708 65.5791 8.23084 66.1302 8.67219 66.5365C9.11353 66.9427 9.69171 67.1759 10.2969 67.1917H37.3156C37.5804 67.1965 37.8432 67.1465 38.0869 67.045C38.3307 66.9435 38.5498 66.7928 38.7302 66.6026C38.9105 66.4125 39.0479 66.1873 39.1335 65.9416C39.2191 65.6959 39.2509 65.4353 39.2269 65.1767L35.0582 4.36935C35.004 3.77815 34.7303 3.22705 34.2889 2.82075C33.8476 2.41445 33.2694 2.18126 32.6642 2.16547L5.64546 2.17504Z" fill="white"/>
<g opacity="0.5">
<path opacity="0.5" d="M30.5873 29.5166C34.7076 25.2444 34.0993 18.12 29.2286 13.6038C24.3579 9.08764 17.0692 8.88982 12.9488 13.162C8.82848 17.4342 9.43678 24.5586 14.3075 29.0748C19.1782 33.591 26.4669 33.7888 30.5873 29.5166Z" fill="#407BFF"/>
<path opacity="0.5" d="M28.8242 27.8838C32.1203 24.4662 31.6337 18.767 27.7373 15.1542C23.8409 11.5415 18.0103 11.3832 14.7142 14.8007C11.4181 18.2183 11.9047 23.9175 15.8011 27.5303C19.6975 31.1431 25.5282 31.3013 28.8242 27.8838Z" fill="white"/>
<path opacity="0.5" d="M27.0564 26.2584C29.5287 23.6959 29.1645 19.4218 26.2429 16.712C23.3214 14.0021 18.9488 13.8826 16.4765 16.4451C14.0042 19.0076 14.3684 23.2817 17.29 25.9916C20.2115 28.7014 24.5841 28.8209 27.0564 26.2584Z" fill="#407BFF"/>
<path opacity="0.5" d="M25.2956 24.6138C26.9441 22.9046 26.7008 20.0542 24.7521 18.2473C22.8034 16.4405 19.8873 16.3614 18.2388 18.0706C16.5903 19.7799 16.8336 22.6303 18.7823 24.4371C20.731 26.244 23.6471 26.3231 25.2956 24.6138Z" fill="white"/>
<path opacity="0.5" d="M23.5323 22.9852C24.3567 22.1308 24.2352 20.7056 23.2611 19.802C22.2869 18.8984 20.8288 18.8586 20.0044 19.7131C19.18 20.5676 19.3014 21.9928 20.2756 22.8963C21.2498 23.7999 22.7078 23.8397 23.5323 22.9852Z" fill="#407BFF"/>
</g>
<path d="M23.9805 36.6654C23.9366 36.6654 23.8952 36.6654 23.8513 36.6654C23.5167 36.032 23.013 35.4995 22.3939 35.1248C21.7747 34.7501 21.0634 34.5473 20.3359 34.538C19.9628 34.5377 19.5919 34.5941 19.2365 34.7054C18.8858 34.0752 18.3704 33.548 17.7432 33.1779C17.1159 32.8078 16.3995 32.6082 15.6674 32.5995C15.2073 32.5929 14.7504 32.6754 14.3229 32.8423C13.8954 33.0091 13.5056 33.2572 13.1761 33.5721C12.8466 33.887 12.5837 34.2626 12.4025 34.6773C12.2213 35.0921 12.1254 35.5378 12.1204 35.989C11.7565 36.01 11.4006 36.1023 11.0736 36.2604C10.7467 36.4184 10.4554 36.6391 10.2168 36.9093C9.97821 37.1796 9.79724 37.4939 9.68454 37.8338C9.57185 38.1737 9.52971 38.5323 9.56061 38.8884C9.62377 39.6735 9.98384 40.407 10.5702 40.9452C11.1565 41.4834 11.9267 41.7874 12.7298 41.7974H24.3389C24.6759 41.8013 25.01 41.736 25.3197 41.6058C25.6295 41.4756 25.908 41.2834 26.1376 41.0414C26.3671 40.7995 26.5425 40.5132 26.6526 40.2009C26.7627 39.8886 26.805 39.5571 26.7767 39.2279C26.7192 38.5362 26.4008 37.8905 25.8838 37.4167C25.3667 36.9429 24.6882 36.675 23.9805 36.6654Z" fill="white"/>
<path d="M31.3735 8.85446H31.2736C31.0126 8.36092 30.6199 7.94613 30.1373 7.65438C29.6547 7.36263 29.1003 7.20488 28.5334 7.19797C28.2423 7.19736 27.9528 7.2409 27.6753 7.32705C27.4016 6.83641 26.9998 6.42597 26.511 6.13782C26.0222 5.84967 25.464 5.69417 24.8937 5.68729C24.1716 5.67707 23.475 5.94821 22.9567 6.4412C22.4383 6.93418 22.1407 7.6087 22.1292 8.31664C21.8454 8.33319 21.5679 8.40525 21.313 8.52856C21.0581 8.65188 20.8309 8.82396 20.6448 9.03468C20.4588 9.2454 20.3176 9.49049 20.2296 9.75552C20.1416 10.0205 20.1086 10.3002 20.1326 10.5779C20.1823 11.1894 20.4631 11.7606 20.9199 12.1797C21.3766 12.5989 21.9765 12.8357 22.6021 12.8439H31.6514C31.9144 12.8475 32.1753 12.797 32.4173 12.6958C32.6592 12.5946 32.8769 12.4448 33.0562 12.2561C33.2355 12.0674 33.3726 11.844 33.4586 11.6003C33.5446 11.3565 33.5775 11.0978 33.5554 10.8408C33.5071 10.3036 33.2573 9.80302 32.8542 9.43606C32.4511 9.0691 31.9235 8.86186 31.3735 8.85446Z" fill="white"/>
<path opacity="0.3" d="M34.9787 46.0713H18.2648C18.144 46.07 18.0243 46.0933 17.9132 46.1399C17.8021 46.1865 17.7022 46.2553 17.6199 46.3419C17.5375 46.4285 17.4744 46.5311 17.4348 46.6429C17.3951 46.7548 17.3798 46.8736 17.3896 46.9916L18.0673 56.7656C18.0868 57.0141 18.2005 57.2463 18.3859 57.4167C18.5714 57.587 18.8152 57.6831 19.0693 57.6859H21.3121L21.4998 60.3894L24.0669 57.6859H35.7686C35.8895 57.6877 36.0094 57.6646 36.1207 57.6181C36.2319 57.5716 36.332 57.5028 36.4144 57.4161C36.4969 57.3294 36.5599 57.2268 36.5994 57.1147C36.6389 57.0027 36.654 56.8838 36.6438 56.7656L35.9685 46.9916C35.9482 46.7456 35.8359 46.5156 35.6532 46.3458C35.4706 46.1759 35.2304 46.0782 34.9787 46.0713Z" fill="white"/>
<path d="M34.8449 52.4966H19.2767L19.1914 51.2607H34.762L34.8449 52.4966Z" fill="white"/>
<path d="M30.104 55.0644H19.4603L19.375 53.8286H30.0187L30.104 55.0644Z" fill="white"/>
<path d="M34.6715 49.9296H19.101L19.0156 48.6938H34.5862L34.6715 49.9296Z" fill="white"/>
</svg>
