<svg width="17" height="14" viewBox="0 0 17 14" fill="none" xmlns="http://www.w3.org/2000/svg">
<path d="M3.10154 7.5578C2.76862 4.32002 5.39156 1.45041 8.96003 1.14834C12.5285 0.84627 15.6912 3.22613 16.0241 6.46391C16.3571 9.70168 13.7341 12.5713 10.1657 12.8734C6.59717 13.1754 3.43446 10.7956 3.10154 7.5578Z" fill="white"/>
<path d="M2.38689 9.09163C2.38689 9.09163 2.4315 9.14183 2.48862 9.24223C2.56533 9.38657 2.59209 9.54859 2.56536 9.70699C2.54844 9.81471 2.50514 9.91763 2.43864 10.0082C2.36075 10.1113 2.25166 10.1917 2.12453 10.2398C1.98107 10.3016 1.82017 10.3222 1.66345 10.2987C1.50674 10.2752 1.3617 10.2087 1.24784 10.1082C1.13397 10.0077 1.05673 9.87802 1.02649 9.73653C0.996246 9.59504 1.01445 9.44855 1.07866 9.31672C1.12834 9.20063 1.21385 9.09999 1.32495 9.02686C1.42358 8.96379 1.53631 8.92121 1.65513 8.90217C1.82827 8.87388 2.00679 8.89364 2.16736 8.95885C2.28159 9.00743 2.33156 9.05277 2.34584 9.04791C2.33531 9.03538 2.32266 9.02445 2.30836 9.01552C2.29408 9.00178 2.27788 8.9898 2.26017 8.9799C2.23738 8.9646 2.21285 8.95158 2.18699 8.94103C2.02275 8.86252 1.83461 8.83521 1.65157 8.8633C1.52371 8.88079 1.40176 8.92394 1.29461 8.98961C1.17317 9.06638 1.07941 9.17398 1.02511 9.29891C0.965052 9.43556 0.94716 9.58447 0.973357 9.72966C0.995812 9.88845 1.07681 10.0357 1.20319 10.1474C1.32956 10.2591 1.49388 10.3288 1.66941 10.345C1.83056 10.3658 1.9949 10.3456 2.14416 10.2867C2.28013 10.2338 2.39612 10.146 2.47791 10.0341C2.54629 9.93595 2.59015 9.8254 2.60641 9.71022C2.63317 9.54291 2.59868 9.37224 2.50825 9.22442C2.49421 9.20201 2.47872 9.18038 2.46184 9.15964C2.44757 9.14183 2.43329 9.12726 2.42258 9.11592C2.41131 9.10709 2.39939 9.09897 2.38689 9.09163Z" fill="#263238"/>
<path d="M4.29711 3.48935C4.29711 3.48935 4.3221 3.46506 4.36672 3.41648L4.56661 3.19949L4.71117 3.03755C4.76829 2.98087 4.83611 2.92419 4.9075 2.86104C4.97889 2.79789 5.05385 2.72825 5.13594 2.65538C5.17657 2.61595 5.22075 2.57966 5.26802 2.54689L5.41615 2.44001C5.89942 2.07481 6.44102 1.77832 7.02243 1.5607C7.79368 1.26657 8.62029 1.11041 9.45683 1.1008H9.81378C9.93157 1.1008 10.0512 1.12023 10.1707 1.12833L10.3492 1.1429C10.4092 1.1467 10.4688 1.15428 10.5277 1.16558L10.8953 1.22873C10.9578 1.24007 11.0203 1.24816 11.0738 1.26112L11.2523 1.3097L11.6271 1.4101C11.752 1.44735 11.8716 1.49754 11.9965 1.54127L12.175 1.60928L12.2678 1.64491L12.3571 1.68701C12.6039 1.79716 12.8424 1.92213 13.071 2.06108C13.1852 2.13233 13.3083 2.19872 13.4279 2.27645L13.7617 2.52421C13.817 2.56794 13.8759 2.6068 13.9294 2.65214L14.0847 2.79303C14.1864 2.88857 14.2953 2.98087 14.3952 3.08127C14.5931 3.28619 14.7762 3.50256 14.9432 3.72901L15.0699 3.90229C15.0913 3.93143 15.1127 3.96058 15.1323 3.98973L15.1877 4.08365L15.4054 4.45772C15.4714 4.58565 15.5268 4.72006 15.5839 4.85285C15.6124 4.91924 15.6481 4.98402 15.6713 5.05365L15.7409 5.26092C15.8359 5.54108 15.9098 5.82674 15.9623 6.11594C15.9801 6.2633 15.9962 6.41229 16.014 6.56127L16.0265 6.673C16.0265 6.71025 16.0265 6.74749 16.0265 6.78474V7.23815L16.0051 7.46487L15.9819 7.69158L15.9712 7.80655C15.9712 7.8438 15.9551 7.88104 15.948 7.9199C15.9176 8.0705 15.8855 8.2211 15.8534 8.37332C15.8213 8.52554 15.7588 8.67128 15.7106 8.82027C15.2928 10.0318 14.4506 11.0865 13.3119 11.8242L12.8836 12.0816L12.4338 12.2922L12.3214 12.3456L12.2053 12.3893L11.9715 12.4768L11.7395 12.5626L11.5004 12.629L11.2612 12.6938L11.1434 12.7261L11.0221 12.7488L10.5402 12.8363C10.2196 12.876 9.89642 12.8965 9.57284 12.8978H9.33368C9.25337 12.8978 9.17484 12.8865 9.09631 12.8832C8.93925 12.8687 8.78041 12.8606 8.62692 12.8411L8.16824 12.7634L8.05401 12.744L7.94158 12.7148L7.72205 12.6565C7.43221 12.5807 7.14838 12.4871 6.87251 12.3764C6.73687 12.3197 6.60837 12.2533 6.47629 12.1918L6.28176 12.0995C6.21929 12.0687 6.16039 12.0282 6.10328 11.9926L5.74633 11.7772C5.63032 11.7027 5.52502 11.6153 5.41437 11.5375C5.19952 11.3791 4.99678 11.2076 4.80755 11.0242L4.73616 10.9594C4.71296 10.9368 4.69333 10.9125 4.67012 10.8882L4.54341 10.7473C4.46131 10.6518 4.36493 10.5627 4.29533 10.4655L4.07937 10.1708C4.04368 10.1222 4.00798 10.0736 3.97407 10.0251L3.88305 9.87447L3.70457 9.57327C3.67409 9.52445 3.64784 9.47355 3.62605 9.42105L3.55644 9.26883C3.51182 9.16681 3.46363 9.06641 3.42258 8.96601C3.38153 8.86561 3.35298 8.76197 3.31907 8.66157C3.08194 7.93473 3.00194 7.17315 3.08348 6.41876C3.08348 6.33617 3.09776 6.25683 3.10668 6.17424L3.15487 5.94105C3.17093 5.86494 3.18521 5.79045 3.20127 5.71596C3.20127 5.68034 3.21377 5.64309 3.22448 5.60747C3.23518 5.57184 3.24589 5.53783 3.25839 5.50383C3.30122 5.36618 3.34405 5.23501 3.38332 5.11032C3.42258 4.98563 3.48505 4.87228 3.52967 4.76216L3.60106 4.60023C3.62111 4.54943 3.64558 4.50015 3.67423 4.45287C3.72599 4.36056 3.77596 4.27312 3.82237 4.19377C3.86877 4.11442 3.90803 4.03183 3.95087 3.97192L4.0758 3.79865L4.24535 3.5606L4.30068 3.47963L4.24 3.55736L4.06152 3.79217L3.93481 3.96544C3.89019 4.03022 3.85092 4.10632 3.80274 4.18567C3.75455 4.26502 3.70457 4.34761 3.65103 4.44477C3.62179 4.49201 3.59672 4.54129 3.57607 4.59213L3.50468 4.75407C3.45828 4.86418 3.39938 4.97754 3.35476 5.10223L3.22626 5.49735C3.21555 5.53136 3.20306 5.56698 3.19235 5.60261C3.18164 5.63823 3.17629 5.67386 3.16736 5.7111C3.15308 5.78398 3.13702 5.86009 3.12096 5.9362C3.1049 6.0123 3.08883 6.09813 3.07099 6.171C3.05314 6.24387 3.05492 6.33294 3.046 6.41714C2.96196 7.1754 3.03952 7.94124 3.27445 8.6729C3.30776 8.7733 3.34167 8.87532 3.37618 8.97896C3.41723 9.08098 3.4672 9.18138 3.51182 9.2834L3.58143 9.44534C3.60336 9.49752 3.629 9.54837 3.65817 9.59756L3.83664 9.90037C3.86699 9.95219 3.89554 10.004 3.92767 10.0623L4.03475 10.2097L4.25071 10.506C4.32745 10.6048 4.41669 10.6939 4.50057 10.791L4.62729 10.9335C4.65049 10.9562 4.67012 10.9821 4.69333 11.0048L4.7665 11.0712C4.9563 11.2556 5.15963 11.4282 5.3751 11.5877C5.48576 11.6687 5.59284 11.7497 5.71063 11.8306L6.06758 12.0493C6.12827 12.0849 6.18716 12.1237 6.24606 12.1561L6.44238 12.2501C6.57446 12.3116 6.70474 12.378 6.84038 12.4363C7.11873 12.5478 7.40492 12.6425 7.69706 12.7197L7.92016 12.7796L8.03081 12.8087L8.14682 12.8282L8.60907 12.9075C8.76613 12.9269 8.92497 12.935 9.08382 12.9496C9.16235 12.9496 9.24266 12.9658 9.32297 12.9642H9.56391C9.88986 12.9643 10.2154 12.9443 10.5384 12.9043L11.0256 12.8152L11.1488 12.7925L11.2684 12.7602L11.5093 12.6938L11.7502 12.629L11.9858 12.5415L12.2196 12.4541L12.3392 12.4104L12.4516 12.3553L12.9157 12.1302L13.3476 11.8695C14.5082 11.1308 15.3707 10.0679 15.8034 8.84294C15.8522 8.69072 15.9004 8.54012 15.948 8.39114C15.9801 8.2292 16.0122 8.08508 16.0426 7.93286C16.0426 7.89399 16.0586 7.85675 16.0658 7.81788L16.0765 7.70291L16.0997 7.47296L16.1211 7.24463V6.78636C16.1211 6.74749 16.1211 6.71025 16.1211 6.673L16.1086 6.55965C16.0908 6.40905 16.0729 6.26007 16.0568 6.11109C16.0024 5.81984 15.9272 5.53207 15.832 5.24959L15.7606 5.03907C15.7392 4.96944 15.7017 4.90467 15.6731 4.83665C15.6107 4.70387 15.5553 4.56784 15.4946 4.43829L15.2733 4.06098L15.218 3.96706C15.1984 3.93791 15.1752 3.90876 15.1555 3.87962L15.027 3.70311C14.8512 3.47342 14.6599 3.25385 14.4541 3.04565C14.3524 2.94525 14.2435 2.85294 14.14 2.75578L13.983 2.6149C13.9294 2.56794 13.8705 2.52907 13.8152 2.48697L13.4779 2.23759C13.3637 2.15824 13.2405 2.09185 13.1209 2.01898C12.889 1.8795 12.6469 1.75452 12.3963 1.64491L12.3124 1.60442C12.2821 1.59147 12.2482 1.58175 12.2178 1.57041L12.0287 1.50078C11.9037 1.45706 11.7824 1.40686 11.6556 1.36962L11.2791 1.27084L11.1006 1.22064L10.9114 1.18825L10.5277 1.11862C10.4687 1.1085 10.4091 1.10147 10.3492 1.09756L10.1707 1.08299C10.0476 1.07489 9.928 1.06194 9.81378 1.05708H9.45683C8.61716 1.0703 7.78819 1.23029 7.01529 1.52831C6.43277 1.74953 5.89106 2.05045 5.40901 2.42058L5.26266 2.52907C5.21539 2.56185 5.17122 2.59814 5.13059 2.63757L4.90214 2.84647C4.83254 2.91124 4.76472 2.96792 4.70939 3.02621C4.65406 3.08451 4.60766 3.13957 4.56482 3.18815L4.37029 3.40838L4.29711 3.48935Z" fill="#263238"/>
</svg>
