<svg width="60" height="60" viewBox="0 0 60 60" fill="none" xmlns="http://www.w3.org/2000/svg">
<g clip-path="url(#clip0_14_15951)">
<path d="M53.8419 28.7559C54.4351 14.2506 43.1035 1.93386 28.5321 1.24582C13.9607 0.557787 1.66735 11.759 1.07413 26.2644C0.480904 40.7697 11.8125 53.0864 26.3839 53.7745C40.9553 54.4625 53.2486 43.2613 53.8419 28.7559Z" fill="#CDE6FA"/>
<g opacity="0.68">
<path opacity="0.68" d="M34.2051 27.6336C34.1987 32.2705 33.9028 36.917 33.1424 41.4883C32.9499 42.6301 32.7267 43.7665 32.4608 44.8921C32.1941 46.0174 31.8861 47.1328 31.509 48.2232C31.1287 49.3109 30.6874 50.383 30.089 51.3627C29.7874 51.849 29.4453 52.3149 29.0234 52.6983C28.8124 52.8887 28.5807 53.0578 28.3258 53.1814C28.0714 53.3042 27.7934 53.3821 27.5114 53.3876C27.2295 53.3965 26.9475 53.3371 26.688 53.2249C26.4275 53.1137 26.1903 52.9525 25.9741 52.7683C25.5418 52.397 25.1923 51.936 24.8854 51.4537C24.2764 50.4809 23.829 49.411 23.4447 48.325C23.0628 47.2363 22.7518 46.1219 22.4829 44.9974C22.2141 43.8726 21.9889 42.7367 21.7947 41.5951C21.4073 39.3116 21.1432 37.0062 20.9649 34.6943C20.788 32.3822 20.6992 30.0627 20.6881 27.7426C20.6828 26.5827 20.7123 25.4231 20.7507 24.2644C20.7912 23.1055 20.8505 21.9474 20.9299 20.791C21.0896 18.4781 21.3279 16.1704 21.6825 13.8818C21.8603 12.7377 22.0678 11.5983 22.3172 10.4694C22.5673 9.34061 22.8579 8.22077 23.2186 7.12515C23.3999 6.57784 23.598 6.03645 23.8239 5.50768C24.0496 4.97915 24.302 4.462 24.5988 3.97327C24.8962 3.48652 25.2381 3.02202 25.6637 2.65022C25.8765 2.46581 26.111 2.30562 26.368 2.19685C26.6238 2.08684 26.9015 2.03097 27.1775 2.04234C27.4539 2.05075 27.7263 2.12491 27.9777 2.24382C28.2294 2.36322 28.4606 2.52588 28.673 2.71005C29.0977 3.08086 29.4492 3.53423 29.7609 4.01035C30.381 4.96927 30.8482 6.02657 31.2531 7.10241C31.6551 8.18121 31.9868 9.28796 32.2758 10.4063C32.5638 11.5252 32.8077 12.6564 33.0187 13.794C33.8533 18.3491 34.1927 22.996 34.2051 27.6336ZM33.8858 27.6336C33.8897 25.3232 33.808 23.0121 33.6293 20.7096C33.453 18.4074 33.1861 16.1116 32.7886 13.8412C32.5901 12.7063 32.3588 11.5776 32.0837 10.4617C31.8076 9.3463 31.4887 8.24203 31.1008 7.16643C30.71 6.09381 30.2567 5.04021 29.6553 4.08822C29.353 3.61556 29.0121 3.16664 28.6028 2.80151C28.3983 2.62007 28.1763 2.46062 27.9358 2.34295C27.6959 2.22701 27.4373 2.15087 27.1743 2.14345C26.9116 2.13455 26.6491 2.19141 26.4061 2.2987C26.1623 2.405 25.9382 2.56172 25.7341 2.74243C25.3258 3.10706 24.9947 3.56563 24.7071 4.04818C24.42 4.5327 24.1757 5.04639 23.9576 5.5722C23.7392 6.09826 23.548 6.63741 23.3739 7.18275C23.0272 8.27441 22.7493 9.39129 22.5121 10.5173C22.2753 11.6436 22.0802 12.7802 21.9148 13.9216C21.5849 16.2048 21.3707 18.5068 21.2352 20.813C21.0983 23.1194 21.0509 25.4313 21.0548 27.7419C21.0491 30.0523 21.1211 32.3632 21.2808 34.6674C21.4418 36.9711 21.6887 39.2691 22.0577 41.5444C22.2427 42.6818 22.4589 43.8135 22.7177 44.9334C22.977 46.053 23.278 47.1619 23.6484 48.2432C24.0208 49.3215 24.4563 50.3825 25.0449 51.338C25.3412 51.8119 25.6782 52.261 26.0866 52.6173C26.2907 52.794 26.5129 52.947 26.7531 53.0516C26.9926 53.1567 27.2493 53.215 27.5068 53.2056C27.764 53.1984 28.0175 53.1255 28.2529 53.0096C28.4887 52.8927 28.7059 52.7322 28.9056 52.549C29.3052 52.1805 29.6351 51.7256 29.9261 51.2477C30.5045 50.2846 30.9336 49.2214 31.3019 48.1414C31.6673 47.0581 31.965 45.9481 32.2217 44.8278C32.4778 43.7072 32.6913 42.575 32.8744 41.4371C33.2411 39.1613 33.4848 36.8631 33.6467 34.5596C33.8108 32.2559 33.8865 29.9445 33.8858 27.6336Z" fill="white"/>
<path opacity="0.68" d="M45.0916 27.6337C45.0766 30.6197 44.7195 33.6072 43.9755 36.4867C43.2186 39.3597 42.0775 42.1235 40.5285 44.6049C39.7538 45.8442 38.8761 47.0107 37.8956 48.0693C36.9155 49.1273 35.8315 50.0768 34.6547 50.8728C33.477 51.6656 32.2047 52.3002 30.8731 52.7306C29.5422 53.1622 28.153 53.3872 26.7623 53.3886C25.3718 53.3884 23.982 53.1647 22.6506 52.7343C21.3183 52.3049 20.0451 51.6713 18.866 50.8795C17.6881 50.0845 16.6024 49.1357 15.6207 48.0782C14.6386 47.0201 13.7593 45.8538 12.9828 44.6146C11.4306 42.1329 10.2871 39.3678 9.52678 36.4933C9.15246 35.0536 8.87431 33.5852 8.69003 32.1039C8.50667 30.6224 8.41464 29.1283 8.4082 27.6337C8.41534 26.1391 8.50828 24.645 8.69256 23.1637C8.87776 21.6827 9.15683 20.2148 9.53207 18.7756C10.2945 15.9023 11.4395 13.139 12.9929 10.66C13.7696 9.42179 14.6492 8.2567 15.6313 7.20014C16.613 6.14408 17.698 5.19629 18.8757 4.40375C20.0543 3.61392 21.3273 2.98503 22.6573 2.55588C23.9863 2.125 25.3739 1.90004 26.7625 1.89856C28.1512 1.90128 29.5383 2.12723 30.8669 2.55934C32.1962 2.98973 33.468 3.61986 34.6455 4.41042C35.822 5.20371 36.9052 6.15248 37.8855 7.20904C38.866 8.2661 39.7437 9.43143 40.5186 10.6697C42.0687 13.1484 43.2115 15.9105 43.9702 18.7822C44.7156 21.6607 45.0748 24.6477 45.0916 27.6337ZM44.7253 27.6337C44.7214 24.6816 44.3791 21.7262 43.6541 18.8764C42.9253 16.0311 41.8276 13.2841 40.3166 10.8138C39.5615 9.58 38.7038 8.41689 37.7433 7.35959C36.7823 6.30402 35.721 5.34906 34.5601 4.55529C33.3978 3.76596 32.1428 3.13064 30.8269 2.70099C29.5116 2.27085 28.1381 2.04491 26.7623 2.03996C25.3865 2.04614 24.0135 2.27333 22.6989 2.70445C21.3836 3.13533 20.1295 3.77189 18.9686 4.56196C17.8091 5.35673 16.7492 6.31243 15.7898 7.36849C14.8309 8.42629 13.9751 9.58939 13.2216 10.8234C11.7138 13.2935 10.6184 16.0392 9.89327 18.8831C9.53184 20.3068 9.27026 21.7584 9.09288 23.2206C8.91527 24.6831 8.82738 26.1581 8.82439 27.6335C8.8283 29.1088 8.91688 30.5836 9.09541 32.0458C9.27348 33.5081 9.53621 34.9592 9.89856 36.3821C10.6258 39.225 11.7227 41.9687 13.2317 44.4363C13.9854 45.6691 14.8415 46.831 15.8002 47.8873C16.7596 48.9417 17.8185 49.8966 18.9778 50.6889C20.1385 51.477 21.3921 52.1089 22.7051 52.5397C24.0174 52.9714 25.3881 53.1998 26.7621 53.2072C28.136 53.201 29.5072 52.9741 30.8202 52.5435C32.1339 52.1138 33.3886 51.4829 34.5505 50.6958C35.7109 49.9045 36.7717 48.9503 37.7327 47.8965C38.6932 46.8406 39.5509 45.6788 40.3062 44.4462C41.8182 41.9783 42.9177 39.2334 43.6484 36.3893C44.3754 33.5407 44.7195 30.5858 44.7253 27.6337Z" fill="white"/>
<path opacity="0.68" d="M5.37354 17.494C5.36019 17.4938 5.34961 17.4822 5.34961 17.4678C5.34961 17.4537 5.36042 17.4424 5.37354 17.4421L10.8781 17.3944L16.3826 17.3672L27.3914 17.3455L38.4002 17.3694L43.9048 17.3991L49.4093 17.4508C49.4183 17.4508 49.4254 17.4587 49.4254 17.4683C49.4254 17.4777 49.4183 17.4854 49.4093 17.4856L43.9048 17.5373L38.4002 17.567L27.3914 17.5909L16.3826 17.5692L10.8781 17.542L5.37354 17.494Z" fill="white"/>
<path opacity="0.68" d="M3.46143 27.4006C3.44808 27.4006 3.4375 27.3888 3.4375 27.3747C3.4375 27.3606 3.44831 27.3492 3.46143 27.349L9.44403 27.3013L15.4266 27.2741L27.3921 27.2523L39.3575 27.2763L45.3401 27.306L51.3227 27.3576C51.3317 27.3576 51.3388 27.3655 51.3388 27.3752C51.3388 27.3846 51.3317 27.3922 51.3227 27.3925L45.3401 27.4441L39.3575 27.4738L27.3921 27.4978L15.4266 27.476L9.44403 27.4488L3.46143 27.4006Z" fill="white"/>
<path opacity="0.68" d="M5.37354 37.2551L10.8781 37.2074L16.3826 37.1802L27.3914 37.1584L38.4002 37.1824L43.9048 37.2121L49.4093 37.2638C49.4183 37.2638 49.4254 37.2717 49.4254 37.2813C49.4254 37.2907 49.4183 37.2984 49.4093 37.2986L43.9048 37.3503L38.4002 37.3799L27.3914 37.4039L16.3826 37.3822L10.8781 37.355L5.37354 37.3068C5.36019 37.3068 5.34961 37.2949 5.34961 37.2808C5.34984 37.2665 5.36042 37.2551 5.37354 37.2551Z" fill="white"/>
<path opacity="0.68" d="M43.8957 47.1875C43.8957 47.2377 43.858 47.2782 43.8113 47.2782H12.5473C12.5006 47.2782 12.4629 47.2377 12.4629 47.1875C12.4629 47.1373 12.5006 47.0968 12.5473 47.0968H43.8113C43.858 47.0968 43.8957 47.1373 43.8957 47.1875Z" fill="white"/>
</g>
<path d="M9.85556 18.1243C9.83745 18.1243 9.8189 18.1196 9.80065 18.1097C9.71069 18.0603 9.6624 17.9016 9.69258 17.7551C9.71467 17.6486 9.73749 17.5424 9.76104 17.4364C9.79343 17.2911 9.89193 17.2161 9.98115 17.2686C10.0704 17.3213 10.1165 17.4817 10.0841 17.6273C10.0614 17.729 10.0395 17.8313 10.0182 17.9337C9.99425 18.0507 9.92741 18.1243 9.85556 18.1243ZM10.1661 16.8283C10.1427 16.8283 10.119 16.8204 10.0963 16.8041C10.0096 16.7413 9.97055 16.5759 10.0091 16.4346C10.0372 16.3318 10.066 16.2296 10.0954 16.1275C10.1357 15.9874 10.2382 15.9275 10.324 15.9932C10.41 16.0589 10.447 16.2258 10.4065 16.3656C10.3781 16.4641 10.3502 16.5629 10.3232 16.6624C10.2947 16.7662 10.2319 16.8283 10.1661 16.8283ZM10.5467 15.5827C10.5185 15.5827 10.4901 15.5714 10.4638 15.5479C10.3806 15.4733 10.3504 15.3029 10.3963 15.1676C10.4295 15.0696 10.4633 14.972 10.4978 14.8746C10.5453 14.7406 10.6504 14.695 10.7326 14.7722C10.8148 14.8494 10.843 15.0206 10.7955 15.1547C10.7622 15.2487 10.7294 15.3431 10.6973 15.4381C10.6659 15.5304 10.6072 15.5827 10.5467 15.5827ZM10.9883 14.3931C10.9558 14.3931 10.9231 14.3783 10.894 14.3469C10.8148 14.2617 10.7928 14.0881 10.8449 13.9591C10.8828 13.8656 10.9211 13.7728 10.9599 13.6803C11.0135 13.5527 11.1205 13.5201 11.1989 13.6074C11.2772 13.6947 11.2972 13.869 11.2436 13.9965C11.2059 14.0862 11.1687 14.1766 11.132 14.267C11.0991 14.3488 11.0443 14.3931 10.9883 14.3931ZM11.4839 13.2607C11.4474 13.2607 11.4106 13.2417 11.3795 13.2029C11.3041 13.1089 11.29 12.9331 11.3477 12.8103C11.3894 12.7219 11.4316 12.6336 11.4745 12.5459C11.5335 12.4248 11.6417 12.4046 11.7159 12.5006C11.7903 12.5967 11.8028 12.7727 11.7438 12.8938C11.7022 12.9792 11.661 13.065 11.6205 13.1511C11.5865 13.223 11.5356 13.2607 11.4839 13.2607ZM12.0261 12.1862C11.9858 12.1862 11.9455 12.1634 11.9128 12.1167C11.8414 12.0148 11.8343 11.8378 11.897 11.7217C11.9422 11.6378 11.9879 11.5544 12.0339 11.4714C12.0977 11.3568 12.2064 11.3479 12.2767 11.4515C12.3471 11.5553 12.3526 11.7323 12.2889 11.8469C12.244 11.9277 12.1996 12.009 12.1554 12.0908C12.1214 12.1538 12.074 12.1862 12.0261 12.1862ZM12.609 11.1693C12.5653 11.1693 12.5216 11.1422 12.488 11.0882C12.4206 10.9794 12.4201 10.8022 12.487 10.6924C12.5351 10.6132 12.5837 10.5346 12.6327 10.4562C12.7005 10.3478 12.8093 10.3495 12.8758 10.4598C12.9422 10.5701 12.9413 10.7473 12.8736 10.8557C12.8257 10.9322 12.7783 11.0091 12.7312 11.0863C12.6975 11.1417 12.6532 11.1693 12.609 11.1693ZM13.2274 10.2095C13.1804 10.2095 13.1336 10.1783 13.0997 10.1169C13.0361 10.002 13.0419 9.82509 13.1122 9.7215C13.163 9.64693 13.2141 9.5726 13.2657 9.49899C13.3368 9.39708 13.4454 9.40835 13.5083 9.5244C13.571 9.64046 13.5639 9.81742 13.4927 9.91956C13.4423 9.99173 13.3923 10.0644 13.3425 10.1373C13.3095 10.1857 13.2683 10.2095 13.2274 10.2095ZM13.8767 9.30525C13.8266 9.30525 13.777 9.26976 13.743 9.20166C13.6832 9.08153 13.6945 8.90529 13.7683 8.80794C13.8214 8.73769 13.8747 8.66815 13.9285 8.59885C14.0028 8.50294 14.111 8.52332 14.1699 8.64465C14.2288 8.76598 14.2163 8.94198 14.1418 9.03789C14.0893 9.10575 14.0368 9.17409 13.9849 9.2429C13.9529 9.28486 13.9146 9.30525 13.8767 9.30525ZM14.5543 8.45475C14.5013 8.45475 14.4492 8.41518 14.4155 8.34013C14.3594 8.21545 14.3761 8.04017 14.4526 7.94905C14.508 7.88311 14.5635 7.81765 14.6193 7.75267C14.6966 7.66275 14.8039 7.69177 14.8591 7.81765C14.9143 7.94329 14.8965 8.11833 14.8194 8.20825C14.7646 8.27203 14.71 8.33629 14.6558 8.40103C14.6252 8.43724 14.5895 8.45475 14.5543 8.45475ZM15.2565 7.65844C15.2007 7.65844 15.1461 7.61432 15.1131 7.53303C15.0607 7.40403 15.0823 7.23043 15.1615 7.14507C15.2186 7.08344 15.2759 7.02254 15.3333 6.96188C15.4131 6.87795 15.5194 6.91512 15.571 7.04484C15.6225 7.17456 15.5997 7.34792 15.52 7.43184C15.4636 7.49131 15.4072 7.55125 15.3513 7.61168C15.322 7.64333 15.2892 7.65844 15.2565 7.65844ZM15.9798 6.91656C15.9214 6.91656 15.8644 6.86812 15.8321 6.78036C15.7834 6.64776 15.8099 6.47584 15.8913 6.39648C15.9499 6.33917 16.0088 6.28258 16.0679 6.22647C16.1497 6.14854 16.2551 6.19338 16.303 6.32694C16.3508 6.4605 16.3233 6.63194 16.2413 6.70987C16.1834 6.76502 16.1256 6.82065 16.068 6.87675C16.0403 6.90361 16.0098 6.91656 15.9798 6.91656ZM16.7218 6.22863C16.6607 6.22863 16.6016 6.1754 16.5705 6.08164C16.5253 5.94569 16.5565 5.77568 16.64 5.70231C16.7 5.64956 16.7603 5.59729 16.8205 5.5455C16.9045 5.47356 17.0085 5.52583 17.0527 5.66275C17.0968 5.79942 17.0647 5.96871 16.9807 6.04088C16.9213 6.09171 16.8623 6.14303 16.8033 6.19506C16.7775 6.21784 16.7494 6.22863 16.7218 6.22863ZM17.4808 5.59537C17.4169 5.59537 17.3557 5.53734 17.3261 5.43736C17.2847 5.29828 17.3203 5.13068 17.4057 5.0633C17.4671 5.01486 17.5285 4.96715 17.5899 4.91967C17.6756 4.85373 17.7782 4.91344 17.8187 5.05323C17.8592 5.19302 17.8225 5.35991 17.7367 5.42585C17.6763 5.47236 17.6158 5.51936 17.5556 5.56708C17.5316 5.5865 17.506 5.59537 17.4808 5.59537ZM18.257 5.01654C18.1904 5.01654 18.1271 4.95324 18.0992 4.8475C18.0615 4.70555 18.1017 4.54082 18.1888 4.47943C18.2517 4.43532 18.3146 4.39167 18.3776 4.34875C18.4653 4.28881 18.5659 4.35619 18.6025 4.49862C18.6393 4.64129 18.598 4.8053 18.5105 4.865C18.4487 4.9072 18.3868 4.95012 18.3252 4.99352C18.3028 5.00911 18.2797 5.01654 18.257 5.01654ZM19.0486 4.49334C18.9793 4.49334 18.9139 4.42452 18.8879 4.31255C18.8541 4.16796 18.8989 4.00635 18.9877 3.95144C19.0517 3.91187 19.1158 3.87303 19.1798 3.83467C19.2689 3.78143 19.3677 3.85577 19.4004 4.00107C19.433 4.14614 19.3873 4.30703 19.2982 4.36026C19.2353 4.39791 19.1723 4.43603 19.1094 4.47488C19.0896 4.48759 19.069 4.49334 19.0486 4.49334ZM19.8543 4.02985C19.782 4.02985 19.7145 3.9548 19.691 3.83682C19.6615 3.68984 19.7109 3.53182 19.801 3.48387C19.8662 3.4491 19.9313 3.41529 19.9963 3.38196C20.087 3.33544 20.1833 3.41745 20.2119 3.56491C20.2403 3.71238 20.1901 3.86967 20.0995 3.91595C20.0356 3.9488 19.9718 3.98213 19.9077 4.01618C19.89 4.02529 19.8719 4.02985 19.8543 4.02985ZM20.6726 3.62941C20.597 3.62941 20.5278 3.54765 20.5069 3.4232C20.4819 3.27406 20.5358 3.12012 20.6274 3.07936C20.6936 3.04987 20.7597 3.02109 20.8258 2.99304C20.9177 2.95419 21.0116 3.04387 21.0355 3.19349C21.0595 3.34312 21.0044 3.4961 20.9124 3.53494C20.8478 3.56228 20.783 3.59057 20.7181 3.61934C20.7027 3.6263 20.6876 3.62941 20.6726 3.62941ZM21.5022 3.29756C21.4231 3.29756 21.3519 3.20812 21.3343 3.07696C21.3142 2.9259 21.3731 2.77676 21.4658 2.74391C21.5331 2.72017 21.6001 2.69715 21.6669 2.67485C21.7597 2.64392 21.8507 2.74175 21.8697 2.89329C21.8887 3.04483 21.8286 3.19254 21.7355 3.22347C21.6702 3.24505 21.6047 3.26759 21.539 3.29085C21.5266 3.2954 21.5143 3.29756 21.5022 3.29756ZM25.9414 3.08823C25.929 3.08823 25.9164 3.08607 25.9037 3.08128C25.8398 3.05802 25.7752 3.0362 25.71 3.01582C25.6168 2.98657 25.5557 2.84006 25.5736 2.68828C25.5914 2.5365 25.6813 2.43675 25.7749 2.46624C25.8435 2.48758 25.9115 2.5106 25.9788 2.5353C26.0714 2.56911 26.1297 2.71873 26.1091 2.86955C26.0911 2.99951 26.0202 3.08823 25.9414 3.08823ZM22.3418 3.04075C22.2586 3.04075 22.1855 2.94221 22.1722 2.80409C22.1575 2.65135 22.2215 2.5082 22.3153 2.48423C22.3835 2.46672 22.4512 2.45018 22.5189 2.43459C22.6121 2.41301 22.6999 2.51923 22.7133 2.67245C22.7265 2.82543 22.6612 2.96714 22.5672 2.98896C22.5013 3.00431 22.4352 3.02037 22.3688 3.03716C22.3596 3.0398 22.3507 3.04075 22.3418 3.04075ZM23.1897 2.86931C23.1018 2.86931 23.0267 2.75997 23.0186 2.61443C23.0101 2.46049 23.0799 2.32429 23.1744 2.31038C23.2432 2.30031 23.3118 2.2912 23.3799 2.28305C23.4736 2.27202 23.5569 2.38759 23.5638 2.54201C23.5707 2.69619 23.4995 2.83023 23.4048 2.8415C23.3386 2.84941 23.272 2.85828 23.2052 2.86811C23.2 2.86907 23.1949 2.86931 23.1897 2.86931ZM25.0987 2.86811C25.0928 2.86811 25.0869 2.86763 25.0809 2.86667C25.0153 2.85564 24.9494 2.84605 24.8828 2.83766C24.7882 2.82567 24.7174 2.69116 24.7247 2.53698C24.7321 2.3828 24.8151 2.26794 24.9093 2.27945C24.9787 2.28809 25.0476 2.29816 25.1159 2.30967C25.2104 2.32549 25.279 2.46289 25.2693 2.61658C25.2605 2.76093 25.1857 2.86811 25.0987 2.86811ZM24.0429 2.79594C23.9491 2.79594 23.8724 2.67317 23.8711 2.51971C23.8698 2.36506 23.9457 2.23821 24.0405 2.23605C24.0874 2.23509 24.1339 2.23438 24.1801 2.23438L24.2471 2.23462C24.3421 2.23557 24.4185 2.3617 24.4179 2.51636C24.4173 2.6703 24.3405 2.7945 24.2461 2.7945C24.2456 2.7945 24.2453 2.7945 24.2449 2.7945L24.1801 2.79426C24.1362 2.79426 24.0919 2.79472 24.0476 2.79565C24.0461 2.79568 24.0445 2.79594 24.0429 2.79594Z" fill="white"/>
<path d="M20.1934 39.5279C20.1934 39.891 20.4877 40.1852 20.8507 40.1852H58.3383C58.7013 40.1852 58.9956 39.891 58.9956 39.5279C58.9956 39.1649 58.7013 38.8706 58.3383 38.8706H20.8507C20.4877 38.8706 20.1934 39.1649 20.1934 39.5279Z" fill="#09005D"/>
<path d="M20.1934 26.3049C20.1934 26.653 20.4755 26.9352 20.8236 26.9352H59.0567C59.4048 26.9352 59.687 26.653 59.687 26.3049C59.687 25.9569 59.4048 25.6747 59.0567 25.6747H20.8236C20.4755 25.6747 20.1934 25.9569 20.1934 26.3049Z" fill="#09005D"/>
<path d="M20.1934 16.1987C20.1934 16.5182 20.4524 16.7773 20.7719 16.7773H58.7182C59.0377 16.7773 59.2968 16.5182 59.2968 16.1987C59.2968 15.8792 59.0377 15.6201 58.7182 15.6201H20.7719C20.4524 15.6201 20.1934 15.8792 20.1934 16.1987Z" fill="#09005D"/>
<path d="M58.6328 49.4247C58.6328 49.8021 58.9387 50.108 59.3161 50.108C59.6935 50.108 59.9994 49.8021 59.9994 49.4247V7.59612C59.9994 7.06768 59.571 6.63928 59.0426 6.63928C58.8164 6.63928 58.6328 6.83631 58.6328 7.07956V49.4247Z" fill="#09005D"/>
<path d="M19.9531 49.4247C19.9531 49.8021 20.259 50.108 20.6364 50.108C21.0138 50.108 21.3197 49.8021 21.3197 49.4247V7.59612C21.3197 7.06768 20.8913 6.63928 20.3629 6.63928C20.1367 6.63928 19.9531 6.83631 19.9531 7.07956V49.4247Z" fill="#09005D"/>
<path d="M30.8434 39.022C30.3428 39.0381 29.9316 38.3536 29.9316 37.5034V30.7451C29.9316 29.8571 30.352 29.1345 30.8751 29.1249C32.4449 29.0959 35.6823 29.0945 38.3313 29.4734C38.6927 29.5251 38.9739 30.0282 38.987 30.6435L39.2345 37.1774C39.2529 38.0416 38.8503 38.7637 38.3412 38.78L30.8434 39.022Z" fill="#5A9FF0"/>
<path opacity="0.37" d="M34.217 32.7633L35.2946 32.8882C35.4453 32.9057 35.5741 32.772 35.5628 32.6096L35.3698 29.7873C35.3456 29.4338 35.0498 29.1553 34.6955 29.1459C34.309 29.1357 34 29.4476 34 29.8343V32.5035C34 32.637 34.0936 32.749 34.217 32.7633Z" fill="white"/>
<path d="M34.6575 32.1663C34.6607 32.2284 34.7086 32.2761 34.7656 32.2761C34.7677 32.2761 34.7698 32.2761 34.7721 32.2758C34.8319 32.2721 34.8774 32.217 34.874 32.1527L34.717 29.2464C34.7139 29.1899 34.6677 29.1452 34.6112 29.1438C34.5479 29.1423 34.4971 29.195 34.5005 29.2582L34.6575 32.1663Z" fill="white"/>
<path d="M40.4645 38.9528C39.9639 38.9689 39.5527 38.2844 39.5527 37.4342V30.6758C39.5527 29.7879 39.9731 29.0653 40.4962 29.0557C42.066 29.0267 45.3034 29.0253 47.9524 29.4042C48.3138 29.4559 48.595 29.959 48.6081 30.5742L48.8556 37.1082C48.874 37.9724 48.4714 38.6945 47.9623 38.7108L40.4645 38.9528Z" fill="#5A9FF0"/>
<path opacity="0.37" d="M43.838 32.6941L44.9157 32.8189C45.0664 32.8365 45.1952 32.7027 45.1839 32.5403L44.9909 29.7181C44.9667 29.3646 44.6709 29.0861 44.3166 29.0767C43.9301 29.0665 43.6211 29.3784 43.6211 29.765V32.4343C43.6213 32.568 43.7147 32.6798 43.838 32.6941Z" fill="white"/>
<path d="M44.2805 32.0971C44.2838 32.1591 44.3316 32.2068 44.3887 32.2068C44.3907 32.2068 44.3928 32.2068 44.3951 32.2066C44.4549 32.2029 44.5005 32.1478 44.497 32.0835L44.34 29.1772C44.337 29.1207 44.2908 29.076 44.2343 29.0746C44.171 29.073 44.1201 29.1258 44.1235 29.189L44.2805 32.0971Z" fill="white"/>
<path d="M50.109 39.0787C49.6084 39.0968 49.1973 38.3314 49.1973 37.3812V29.8268C49.1973 28.8343 49.6176 28.0266 50.1408 28.0158C51.7105 27.9834 54.948 27.9817 57.5969 28.4054C57.9584 28.4632 58.2395 29.0254 58.2526 29.7133L58.5002 37.017C58.5186 37.9831 58.116 38.7903 57.6068 38.8085L50.109 39.0787Z" fill="#5A9FF0"/>
<path opacity="0.37" d="M53.4826 32.0826L54.5602 32.2223C54.7109 32.2418 54.8397 32.0925 54.8285 31.9108L54.631 28.6834C54.6093 28.3298 54.3151 28.0496 53.961 28.0393C53.5749 28.028 53.2656 28.3394 53.2656 28.7258V31.7926C53.2656 31.9417 53.3593 32.0668 53.4826 32.0826Z" fill="white"/>
<path d="M53.9251 31.4153C53.9283 31.4846 53.9761 31.538 54.0332 31.538C54.0353 31.538 54.0373 31.538 54.0396 31.5377C54.0994 31.5335 54.145 31.472 54.1415 31.4003L53.984 28.1404C53.9812 28.0837 53.9351 28.0386 53.8784 28.0371C53.8152 28.0353 53.7643 28.0878 53.7674 28.1509L53.9251 31.4153Z" fill="white"/>
<path d="M11.7388 20.7726C11.7388 24.1095 8.14477 26.7049 8.14477 26.7049C8.14477 26.7049 4.55078 24.1095 4.55078 20.7726C4.55078 19.7893 4.92943 18.8462 5.60344 18.1509C6.27744 17.4556 7.19158 17.0649 8.14477 17.0649C9.09795 17.0649 10.0121 17.4556 10.6861 18.1509C11.3601 18.8462 11.7388 19.7893 11.7388 20.7726Z" fill="#0015A7"/>
<path d="M8.14463 22.2557C8.93859 22.2557 9.58222 21.5917 9.58222 20.7726C9.58222 19.9535 8.93859 19.2896 8.14463 19.2896C7.35066 19.2896 6.70703 19.9535 6.70703 20.7726C6.70703 21.5917 7.35066 22.2557 8.14463 22.2557Z" fill="#CDE6FA"/>
<path d="M28.8789 2.60108C28.8789 4.8379 26.4697 6.57765 26.4697 6.57765C26.4697 6.57765 24.0605 4.8379 24.0605 2.60108C24.0605 1.94192 24.3144 1.30976 24.7662 0.843666C25.218 0.377572 25.8308 0.115723 26.4697 0.115723C27.1086 0.115723 27.7214 0.377572 28.1732 0.843666C28.625 1.30976 28.8789 1.94192 28.8789 2.60108Z" fill="#0015A7"/>
<path d="M26.4695 3.59522C27.0017 3.59522 27.4332 3.15012 27.4332 2.60108C27.4332 2.05203 27.0017 1.60693 26.4695 1.60693C25.9373 1.60693 25.5059 2.05203 25.5059 2.60108C25.5059 3.15012 25.9373 3.59522 26.4695 3.59522Z" fill="#CDE6FA"/>
<path d="M46.3581 41.098C46.2811 39.9777 46.0364 38.8753 45.632 37.8277L42.2746 29.1292C42.1751 28.8709 41.8886 28.7177 41.5654 28.7177C40.8462 28.7177 39.4643 28.7177 37.8021 28.7177C31.074 28.7177 25.6172 34.1719 25.6172 40.9V42.6701C25.6172 48.4206 30.2789 53.0823 36.0294 53.0823C42.0607 53.0823 46.8303 47.9739 46.4171 41.9567L46.3581 41.098Z" fill="#F29937"/>
<path d="M47.5773 51.6543C47.445 51.5607 47.284 51.5103 47.0994 51.5139L38.3468 51.695C37.4792 51.7129 36.7817 52.4147 36.7692 53.2824C36.7564 54.1646 37.4556 54.893 38.3376 54.9163L47.0446 55.1461C47.4222 55.1461 47.7488 54.9504 47.7488 54.6762V52.0103C47.7488 51.8762 47.7096 51.7478 47.5773 51.6543Z" fill="#0015A7"/>
<path d="M44.3457 39.4343L42.3448 33.2727C42.275 33.0585 42.0759 32.8956 41.8647 32.9149L36.0572 33.448C35.9326 33.4594 35.8196 33.5511 35.7405 33.6547C35.6615 33.7582 35.6263 33.9053 35.6408 34.0382L36.1932 39.0676C36.2192 39.3035 36.3981 39.4901 36.6199 39.5077L43.8744 40.0884C44.03 40.1008 44.1808 40.0295 44.2757 39.8973C44.3706 39.7654 44.3969 39.592 44.3457 39.4343Z" fill="#0015A7"/>
<path d="M43.5095 32.7927C43.4932 32.7517 43.4488 32.7296 43.4061 32.7412C43.279 32.7759 43.1716 32.8663 43.1104 32.99C43.0493 33.1139 43.0402 33.2594 43.085 33.391L45.2385 39.6897C45.3219 39.9334 45.5665 40.0676 45.8005 39.9983C46.0709 39.9181 46.2156 39.6225 46.1121 39.3614L43.5095 32.7927Z" fill="#0015A7"/>
<path d="M39.5893 44.9123C39.5893 45.1716 39.3936 45.3819 39.1523 45.3819H37.3316C37.0903 45.3819 36.8945 45.1716 36.8945 44.9123V44.6775C36.8945 44.4182 37.0903 44.2079 37.3316 44.2079H39.1523C39.3936 44.2079 39.5893 44.4182 39.5893 44.6775V44.9123Z" fill="#F29937"/>
<path d="M40.312 60C42.9006 60 44.9991 57.7452 44.9991 54.9638C44.9991 52.1823 42.9006 49.9275 40.312 49.9275C37.7235 49.9275 35.625 52.1823 35.625 54.9638C35.625 57.7452 37.7235 60 40.312 60Z" fill="#0015A7"/>
<path d="M40.9925 58.9946C43.0612 58.5916 44.4342 56.463 44.0591 54.2402C43.6841 52.0174 41.703 50.5421 39.6343 50.9451C37.5657 51.3481 36.1927 53.4767 36.5678 55.6996C36.9428 57.9224 38.9239 59.3976 40.9925 58.9946Z" fill="white"/>
<path d="M43.5092 56.4729C43.497 56.4729 43.4848 56.4702 43.4731 56.4648C43.4258 56.4433 43.4039 56.3851 43.4239 56.3343C43.5949 55.9002 43.6813 55.439 43.6813 54.9634C43.6813 53.0217 42.2112 51.4417 40.4038 51.4417C39.843 51.4417 39.2898 51.5964 38.8041 51.8889C38.7591 51.9158 38.7026 51.8984 38.6779 51.8506C38.6529 51.8026 38.6687 51.7419 38.7135 51.715C39.2272 51.4058 39.8116 51.2424 40.4041 51.2424C42.3135 51.2424 43.867 52.9117 43.867 54.9634C43.867 55.4659 43.7756 55.9531 43.5949 56.4119C43.5798 56.4499 43.5454 56.4729 43.5092 56.4729Z" fill="white"/>
<path d="M40.3121 56.8393C41.2762 56.8393 42.0577 55.9995 42.0577 54.9636C42.0577 53.9277 41.2762 53.0879 40.3121 53.0879C39.348 53.0879 38.5664 53.9277 38.5664 54.9636C38.5664 55.9995 39.348 56.8393 40.3121 56.8393Z" fill="#0015A7"/>
<path d="M46.2117 51.0869C46.2117 51.3615 46.0046 51.584 45.7491 51.584H44.5622C44.3067 51.584 44.0996 51.3615 44.0996 51.0869V49.3421C44.0996 49.0675 44.3067 48.845 44.5622 48.845H45.7491C46.0046 48.845 46.2117 49.0675 46.2117 49.3421V51.0869Z" fill="#F29937"/>
<path opacity="0.8" d="M-nan -nanL45.0465 48.845V51.0472C45.0465 51.2572 44.8763 51.4275 44.6662 51.4275C44.411 51.4275 44.0996 51.1189 44.0996 50.8447V49.2091C44.0996 48.9349 44.411 48.845 44.6662 48.845H45.0465L-nan -nanZ" fill="white"/>
<path d="M32.3908 50.7035H-3.39113C-4.47169 50.7035 -5.34766 51.5795 -5.34766 52.66C-5.34766 53.7406 -4.47169 54.6165 -3.39113 54.6165H32.3908C33.4714 54.6165 34.3473 53.7406 34.3473 52.66C34.3473 51.5795 33.4714 50.7035 32.3908 50.7035Z" fill="#0015A7"/>
<path d="M33.9093 28.3122C33.9093 27.3799 32.9924 26.599 31.998 26.599H-5.45983C-6.45429 26.599 -7.24219 27.3799 -7.24219 28.3122V49.5238C-7.24219 50.4561 -6.45429 51.2513 -5.45983 51.2513H31.998C32.9924 51.2513 33.9093 50.4564 33.9093 49.5238V28.3122Z" fill="#0015A7"/>
<path opacity="0.24" d="M32.5981 29.1672C32.5982 29.1672 32.5983 29.1671 32.5983 29.167C32.5982 28.3139 31.914 27.6165 30.9763 27.6165H-4.36051C-5.29826 27.6165 -6.22266 28.314 -6.22266 29.1672V48.5565C-6.22266 49.4096 -5.29826 50.2338 -4.36051 50.2338H30.976C31.9138 50.2338 32.598 49.4093 32.598 48.5565V29.1673C32.598 29.1672 32.598 29.1672 32.5981 29.1672Z" fill="#4141F9"/>
<path d="M11.4156 59.9999C14.0042 59.9999 16.1026 57.7451 16.1026 54.9636C16.1026 52.1822 14.0042 49.9274 11.4156 49.9274C8.82698 49.9274 6.72852 52.1822 6.72852 54.9636C6.72852 57.7451 8.82698 59.9999 11.4156 59.9999Z" fill="#0015A7"/>
<path d="M12.0279 59.0012C14.1031 58.6393 15.5123 56.5383 15.1756 54.3085C14.8388 52.0787 12.8835 50.5644 10.8083 50.9263C8.73306 51.2882 7.3238 53.3892 7.6606 55.619C7.99739 57.8488 9.95269 59.363 12.0279 59.0012Z" fill="white"/>
<path d="M14.613 56.4729C14.6011 56.4729 14.5885 56.4702 14.5769 56.4648C14.5296 56.4433 14.5076 56.3851 14.5277 56.3343C14.6986 55.8999 14.7851 55.439 14.7851 54.9634C14.7851 53.0217 13.315 51.4417 11.5076 51.4417C10.9468 51.4417 10.3936 51.5964 9.90761 51.8889C9.86257 51.9158 9.80613 51.8984 9.78139 51.8506C9.75637 51.8026 9.77222 51.7419 9.81698 51.715C10.3307 51.4058 10.9154 51.2424 11.5076 51.2424C13.417 51.2424 14.9705 52.9117 14.9705 54.9634C14.9705 55.4656 14.8791 55.9528 14.6984 56.412C14.6836 56.4499 14.6492 56.4729 14.613 56.4729Z" fill="white"/>
<path d="M11.4156 56.8395C12.3797 56.8395 13.1612 55.9997 13.1612 54.9637C13.1612 53.9278 12.3797 53.088 11.4156 53.088C10.4515 53.088 9.66992 53.9278 9.66992 54.9637C9.66992 55.9997 10.4515 56.8395 11.4156 56.8395Z" fill="#0015A7"/>
<path d="M0.690966 59.9999C3.27956 59.9999 5.37802 57.7451 5.37802 54.9636C5.37802 52.1822 3.27956 49.9274 0.690966 49.9274C-1.89762 49.9274 -3.99609 52.1822 -3.99609 54.9636C-3.99609 57.7451 -1.89762 59.9999 0.690966 59.9999Z" fill="#0015A7"/>
<path d="M0.69135 59.0537C2.79367 59.0537 4.49793 57.2224 4.49793 54.9635C4.49793 52.7045 2.79367 50.8733 0.69135 50.8733C-1.41097 50.8733 -3.11523 52.7045 -3.11523 54.9635C-3.11523 57.2224 -1.41097 59.0537 0.69135 59.0537Z" fill="white"/>
<path d="M3.88813 56.4728C3.87589 56.4728 3.86366 56.4701 3.85198 56.4647C3.80472 56.4432 3.78276 56.3849 3.80277 56.3342C3.97375 55.9001 4.06022 55.4389 4.06022 54.9633C4.06022 53.0215 2.59007 51.4416 0.782696 51.4416C0.22194 51.4416 -0.331312 51.5963 -0.817004 51.8888C-0.862043 51.9156 -0.918477 51.8983 -0.943221 51.8505C-0.968242 51.8024 -0.952394 51.7418 -0.907634 51.7149C-0.393862 51.4057 0.190524 51.2423 0.782974 51.2423C2.69238 51.2423 4.24593 52.9116 4.24593 54.9633C4.24593 55.4657 4.15446 55.953 3.97376 56.4118C3.95874 56.4498 3.92427 56.4728 3.88813 56.4728Z" fill="white"/>
<path d="M0.692923 56.8392C1.65702 56.8392 2.43858 55.9994 2.43858 54.9635C2.43858 53.9276 1.65702 53.0878 0.692923 53.0878C-0.271176 53.0878 -1.05273 53.9276 -1.05273 54.9635C-1.05273 55.9994 -0.271176 56.8392 0.692923 56.8392Z" fill="#0015A7"/>
</g>
<defs>
<clipPath id="clip0_14_15951">
<rect width="60" height="60" fill="white"/>
</clipPath>
</defs>
</svg>
