<svg width="34" height="31" viewBox="0 0 34 31" fill="none" xmlns="http://www.w3.org/2000/svg">
<path d="M1.72354 17.663L32.8145 0.789949C33.3115 0.520141 33.7142 0.713435 33.7142 1.21681C33.6917 1.50037 33.5986 1.77497 33.4423 2.01842C33.286 2.26187 33.0709 2.46734 32.8145 2.61821L1.72354 19.4913C1.23085 19.7611 0.828125 19.5678 0.828125 19.0644C0.850795 18.7814 0.943571 18.5073 1.09904 18.2639C1.25452 18.0206 1.46837 17.8148 1.72354 17.663Z" fill="#E0E0E0"/>
<path d="M1.72354 21.3317L32.8145 4.4626C33.3115 4.19279 33.7142 4.38206 33.7142 4.8653C33.6927 5.1491 33.6 5.42408 33.4436 5.66768C33.2872 5.91128 33.0716 6.11656 32.8145 6.2667L1.72354 23.1398C1.23085 23.4096 0.828125 23.2203 0.828125 22.7129C0.854016 22.4334 0.948304 22.1633 1.10363 21.9237C1.25896 21.6841 1.47112 21.4814 1.72354 21.3317Z" fill="#E0E0E0"/>
<path d="M1.72354 24.9881L32.8145 8.11502C33.3115 7.84521 33.7142 8.03851 33.7142 8.54188C33.6917 8.82544 33.5986 9.10005 33.4423 9.3435C33.286 9.58695 33.0709 9.79241 32.8145 9.94327L1.72354 26.8164C1.23085 27.0822 0.828125 26.8929 0.828125 26.3895C0.850131 26.1063 0.942626 25.8319 1.09816 25.5885C1.25369 25.3451 1.46791 25.1394 1.72354 24.9881Z" fill="#E0E0E0"/>
<path d="M1.72354 28.6406L32.8145 11.7675C33.3115 11.5018 33.7142 11.691 33.7142 12.1944C33.6924 12.4781 33.5995 12.753 33.4432 12.9965C33.2868 13.2401 33.0714 13.4454 32.8145 13.5958L1.72354 30.4689C1.23085 30.7387 0.828125 30.5454 0.828125 30.042C0.850795 29.759 0.943571 29.4849 1.09904 29.2415C1.25452 28.9982 1.46837 28.7924 1.72354 28.6406Z" fill="#E0E0E0"/>
</svg>
