<svg width="64" height="105" viewBox="0 0 64 105" fill="none" xmlns="http://www.w3.org/2000/svg">
<path d="M8.67822 28.6454C6.94124 28.1358 5.15831 29.4575 3.99113 32.1268C2.82395 34.7961 0.374708 41.5859 0.0116871 43.3957C-0.351333 45.2054 7.86488 49.1446 7.63512 49.0409C7.40536 48.9373 8.67822 28.6454 8.67822 28.6454Z" fill="#263238"/>
<path d="M4.86161 91.4732C4.61347 91.5596 4.55374 92.0002 4.51698 92.8727C4.4894 93.5335 4.33777 94.6867 5.16031 94.9157C5.98285 95.1446 7.19138 95.028 7.71983 94.406C8.37694 93.6285 8.82268 92.9461 9.7601 91.9958C10.578 91.1752 11.4557 90.4064 11.7866 89.2531C12.0853 88.2079 11.8371 87.7587 11.0789 87.4563C10.0404 87.0244 8.40451 88.3979 7.59116 88.6139C6.8881 88.7996 5.10516 91.3868 4.86161 91.4732Z" fill="#263238"/>
<path d="M4.85742 90.6655V91.7367C5.28523 91.9939 5.77953 92.1366 6.28717 92.1495C6.79482 92.1625 7.29663 92.0451 7.73864 91.8101C7.78918 91.7064 8.03732 90.2767 8.03732 90.2767L4.85742 90.6655Z" fill="#FFA8A7"/>
<path d="M14.0886 97.6494C14.0886 97.6494 13.7624 98.5824 13.5878 99.3771C13.4453 100.025 13.2477 101.105 13.4867 101.597C13.7256 102.09 14.6722 102.401 16.1289 102.388C17.0755 102.388 18.5506 102.988 19.557 103.515C20.5633 104.042 22.7736 104.279 23.8718 104.159C25.1677 104.016 26.5141 103.295 26.7255 102.802C26.9368 102.31 26.6565 101.77 23.5961 100.543C23.5686 100.543 19.341 99.2475 17.8567 97.7056L14.0886 97.6494Z" fill="#263238"/>
<path d="M14.0938 96.4918C14.0938 96.4918 14.0938 97.2866 14.0938 97.7401C14.0938 98.1936 14.6636 98.8717 16.1432 98.8242C17.1817 98.7897 17.9032 98.5262 17.8618 97.7228V96.5609L14.0938 96.4918Z" fill="#FFA8A7"/>
<path d="M4.11439 76.4421C4.36841 74.5437 4.81935 72.6732 5.46078 70.8574C5.46078 70.8574 5.0564 66.0414 4.85881 61.4759C4.64743 56.5434 4.85881 50.3409 4.7715 49.1143C4.7715 49.1143 21.7048 45.8921 22.0081 51.5935C22.3114 57.2949 21.3372 71.8076 21.1396 74.3128C20.942 76.8179 20.4779 79.0337 19.9265 83.0938C19.3751 87.1539 17.8586 96.5612 17.8586 96.5612C17.2729 96.8418 16.6227 96.9822 15.9654 96.9702C15.3082 96.9581 14.6642 96.7939 14.0906 96.4921C14.0906 96.4921 12.9004 85.0893 13.0245 82.1997C13.1213 80.0534 13.5136 77.9279 14.1917 75.8763L13.5897 67.0866C13.3048 62.9963 13.0061 61.0397 12.9372 59.2558L12.5742 59.0831C12.5742 59.0831 12.202 66.1407 12.0044 68.6459C11.8068 71.1511 11.3794 73.5526 10.6258 78.2044C9.9549 82.2386 7.96517 90.7777 7.96517 90.7777C6.03059 91.7625 4.87719 90.6525 4.87719 90.6525C4.87719 90.6525 3.59973 79.9407 4.11439 76.4421Z" fill="#455A64"/>
<path d="M12.9375 59.2689C12.9375 59.2689 8.82944 57.3642 6.77539 55.6494C6.77539 55.6494 8.68238 58.1762 11.1914 59.2992C11.1914 59.2992 12.0828 68.0629 12.0782 67.8902L12.5929 59.2517L12.9375 59.2689Z" fill="#37474F"/>
<path d="M16.5943 26.8397L15.5925 32.0228L10.6113 31.6816L11.6544 25.8031L16.5943 26.8397Z" fill="#FFA8A7"/>
<path d="M5.35023 31.3016C5.84192 29.8935 7.74433 28.3602 9.64674 28.71C12.4762 29.16 15.2645 29.8141 17.987 30.6667C19.7286 31.2498 21.3139 32.6665 21.461 38.0569L22.3433 54.1072L20.2341 54.5391L19.4988 50.9023L19.1588 54.5391C16.9531 55.0575 13.1253 54.6298 10.6117 54.1072C5.37321 53.0317 4.74366 50.9887 4.74366 50.9887C4.74366 50.9887 4.67473 41.9572 4.83097 38.0569C4.97802 34.7224 5.01019 32.2518 5.35023 31.3016Z" fill="#37474F"/>
<path d="M20.2812 20.6976C20.2812 20.6976 21.4898 22.3778 21.3335 22.5549C21.0542 22.7319 20.7427 22.8592 20.4145 22.9307L20.2812 20.6976Z" fill="#FFA8A7"/>
<path d="M16.5961 15.3764C17.7587 15.9293 19.7668 16.9486 20.3182 20.9439C20.888 25.0472 20.139 26.3689 19.5508 26.9131C19.151 27.2802 16.9821 27.3018 15.8976 26.9952C14.5191 26.6107 11.4771 25.518 10.0801 23.4102C8.43505 20.9309 8.06744 17.6094 9.9239 16.2877C12.5294 14.4305 15.6127 14.9099 16.5961 15.3764Z" fill="#FFA8A7"/>
<path d="M20.5615 16.7501C20.1801 17.7349 19.5368 20.145 16.8624 21.1514C16.8624 21.1514 16.481 19.6137 15.107 19.7779C13.7331 19.942 13.4987 21.5876 14.3442 22.6113C15.1897 23.635 16.0077 23.2635 16.0077 23.2635C16.0077 23.2635 16.1915 25.4663 14.6291 26.4641C14.6291 26.4641 12.7405 27.5871 10.7416 26.7232C9.82256 26.3345 8.56806 24.3088 7.82364 22.6458C6.24289 19.13 6.01773 16.3095 8.40264 15.4197C8.69673 13.8216 9.46412 13.2212 11.0035 12.9232C14.3167 12.2796 16.821 14.327 19.6057 13.9685C21.0624 13.7784 20.9981 15.6271 20.5615 16.7501Z" fill="#37474F"/>
<path d="M8.34562 15.9554L6.7832 15.0484C6.84376 14.9466 6.9256 14.8574 7.0238 14.7862C7.122 14.715 7.23452 14.6631 7.35459 14.6339C7.47466 14.6046 7.59981 14.5985 7.72247 14.6159C7.84512 14.6333 7.96276 14.6738 8.0683 14.7351C8.17383 14.7964 8.26508 14.8771 8.33654 14.9724C8.40801 15.0677 8.45821 15.1756 8.48412 15.2896C8.51003 15.4036 8.51112 15.5214 8.48732 15.6358C8.46351 15.7502 8.41531 15.8589 8.34562 15.9554Z" fill="#37474F"/>
<path d="M16.2279 28.7272L16.7977 30.2778C16.7977 30.2778 16.3796 30.9689 14.6012 31.0035C12.8229 31.038 10.9251 30.5067 10.3369 29.7941C10.203 29.6545 10.1038 29.4887 10.0466 29.3087C9.98934 29.1286 9.9755 28.9388 10.006 28.7531C10.006 28.7531 10.7137 27.2846 11.3846 27.3494L11.2743 27.9886C11.2743 27.9886 11.4259 28.5113 13.0389 28.9129C15.5478 29.5392 16.2279 28.7272 16.2279 28.7272Z" fill="#455A64"/>
<path d="M30.5195 39.0329C31.2364 38.2598 31.5121 36.545 32.4679 35.3702C33.4237 34.1954 33.7775 33.3358 34.1543 33.8498C34.6552 34.5279 33.5248 35.8885 33.7776 36.0094C34.0303 36.1304 34.9631 37.9358 35.0596 38.9293C35.1561 39.9227 32.353 42.4279 32.353 42.4279L30.5195 39.0329Z" fill="#FFA8A7"/>
<path d="M16.2285 28.7273C16.3441 28.7251 16.4582 28.7525 16.5585 28.8065C16.6589 28.8605 16.7418 28.9392 16.7983 29.034C17.0793 29.5109 17.331 30.0027 17.5519 30.5068L16.7983 30.2779L16.2285 28.7273Z" fill="#455A64"/>
<path d="M33.6992 35.8715C33.6992 35.8715 37.0859 35.5951 37.5776 35.8715C38.0693 36.1479 37.9222 37.5258 37.5776 38.3724C37.2329 39.2189 35.5051 39.7675 33.9014 40.7868C33.9014 40.6313 33.6992 35.8715 33.6992 35.8715Z" fill="#FFA8A7"/>
<path d="M17.5505 30.5242C19.0071 31.0036 20.28 31.5522 21.6402 33.9537C23.3864 37.0376 26.6949 41.9702 26.6949 41.9702L30.5044 38.8128C30.5044 38.8128 31.0788 38.2902 32.1494 39.9531C32.4632 40.4008 32.6618 40.9109 32.7295 41.4431C32.7973 41.9754 32.7325 42.5151 32.54 43.0198C32.54 43.0198 28.1424 47.8703 27.3015 48.6089C26.4606 49.3475 25.0682 48.773 24.163 47.6111C23.2577 46.4492 17.5367 39.7328 17.5367 39.7328C17.5367 39.7328 14.4303 35.8541 17.5505 30.5242Z" fill="#37474F"/>
<path d="M56.8447 22.4601H45.9954C45.5859 22.4601 45.1932 22.3072 44.9036 22.035C44.6141 21.7629 44.4514 21.3937 44.4514 21.0088V4.80732C44.4514 3.53234 44.9903 2.30958 45.9494 1.40803C46.9086 0.506485 48.2094 0 49.5659 0H53.288C54.642 0.00343132 55.9394 0.511431 56.8956 1.41261C57.8517 2.31378 58.3887 3.53458 58.3887 4.80732V21.0088C58.3887 21.3937 58.226 21.7629 57.9364 22.035C57.6469 22.3072 57.2542 22.4601 56.8447 22.4601Z" fill="#37474F"/>
<path d="M44.1651 16.9313C43.1128 19.8468 41.3482 28.2347 41.3482 28.2347C41.3482 28.2347 37.6721 32.459 36.4727 33.4826C35.8156 34.0528 34.3359 35.0764 34.3359 35.0764L37.0241 36.9337C39.4512 35.1789 41.7311 33.2512 43.8434 31.1675C44.3132 30.6976 44.6429 30.1195 44.7992 29.4916L46.6373 22.0798C46.6373 22.0798 46.6373 16.1192 47.6069 15.3375C48.5765 14.5557 48.8568 14.3915 48.8568 14.3915C47.6115 14.3052 44.9922 14.6377 44.1651 16.9313Z" fill="#F28F8F"/>
<path d="M49.4344 14.3051C47.7204 14.1194 45.5239 14.1539 44.4532 15.9551C43.3825 17.7562 41.5996 27.0685 41.5996 27.0685C41.5996 27.0685 43.286 28.2995 45.1057 28.2779L49.4344 14.3051Z" fill="#407BFF"/>
<path d="M44.6664 22.9829C44.975 24.3711 45.0939 25.7906 45.0202 27.2071C44.887 29.0731 43.5176 32.3298 43.5176 32.3298C43.5176 32.3298 44.5883 33.4355 47.6073 32.9906C50.0658 32.6321 49.1973 25.6479 47.7865 24.3089C46.9638 23.51 45.848 23.0358 44.6664 22.9829Z" fill="#407BFF"/>
<path opacity="0.3" d="M44.6664 22.9829C44.975 24.3711 45.0939 25.7906 45.0202 27.2071C44.887 29.0731 43.5176 32.3298 43.5176 32.3298C43.5176 32.3298 44.5883 33.4355 47.6073 32.9906C50.0658 32.6321 49.1973 25.6479 47.7865 24.3089C46.9638 23.51 45.848 23.0358 44.6664 22.9829Z" fill="black"/>
<path d="M50.3462 72.3084C50.3657 72.627 50.2807 72.9436 50.1027 73.2154C49.6482 73.9213 49.1135 74.5788 48.5082 75.1764C47.658 76.0402 46.3852 77.0552 45.4707 77.8025C44.9653 78.2344 44.9469 78.8477 45.6729 79.068C47.0263 79.3778 48.4543 79.1909 49.6661 78.5454C50.5852 78.0875 51.8627 75.9538 52.6163 75.6515C53.4848 75.2843 53.9672 75.1029 54.2613 74.7272C54.4837 74.5135 54.6225 74.2354 54.6551 73.9381C54.6876 73.6408 54.612 73.3419 54.4406 73.0902C54.0316 72.3732 53.4158 71.2718 53.1631 71.397L53.2412 71.6216C53.0436 72.2047 51.3526 72.8828 50.4841 72.723L50.3462 72.3084Z" fill="#37474F"/>
<path d="M59.2043 47.9392C59.5948 44.0519 60.7161 37.7976 59.5673 33.1674L44.3112 33.9276C43.8884 38.493 43.3921 52.7465 43.9252 54.3792C44.5409 56.3056 50.0414 69.6391 50.3585 72.3213C50.3803 72.6361 50.295 72.9493 50.1149 73.2154C49.661 73.923 49.1263 74.582 48.5204 75.1807C48.1068 75.6126 47.6014 76.0445 47.0683 76.4765C47.0237 76.5381 46.9968 76.6095 46.9902 76.6838C46.9902 77.1157 48.1482 77.2496 48.8283 77.0639C49.6764 76.7825 50.4072 76.2545 50.9145 75.5565C51.3051 75.0684 52.1828 74.1311 52.7526 73.4271C52.9427 73.2098 53.1047 72.972 53.2351 72.7187C53.3872 72.4024 53.4133 72.0452 53.3086 71.7123L53.2718 71.6043C52.9736 70.73 52.7885 69.8251 52.7204 68.9091C52.509 65.9677 51.9714 59.1736 51.4751 57.3638C51.1306 56.045 50.607 54.7734 49.9173 53.5801L51.6589 40.8427C51.6589 40.8427 51.8427 52.0727 52.385 54.9364C52.8123 57.2299 52.9778 60.0979 53.4786 64.0327C53.9382 67.7991 54.4712 74.4335 54.4712 74.4335C54.4849 74.4358 54.4989 74.4358 54.5126 74.4335V77.6038H57.3662V75.7638C57.3662 74.933 57.44 74.1037 57.5867 73.2845C58.0463 70.7794 59.0021 65.0477 59.1997 63.1084C59.5121 60.0331 58.3312 56.1674 58.3312 56.1674C58.3312 56.1674 58.8229 51.7315 59.2043 47.9392Z" fill="#FFA8A7"/>
<path d="M53.8268 14.4393C53.8268 14.4393 57.9303 14.8713 58.422 15.0916C54.5712 17.6356 57.6914 23.2981 57.6914 23.2981L56.2163 27.6476C57.8568 29.6215 59.2721 30.7963 60.1498 32.9603C61.124 35.3791 61.9879 38.977 61.7581 46.35C58.082 48.9415 46.8973 48.6608 42.541 46.35C42.541 46.35 43.2763 39.8408 44.1447 34.783C44.7191 31.4442 46.0747 27.8074 45.845 26.5764C44.1172 21.5834 44.0069 20.685 44.3194 19.5706C45.1787 16.4348 48.5791 14.3141 49.4154 14.3141L53.8268 14.4393Z" fill="#407BFF"/>
<path opacity="0.6" d="M53.8268 14.4393C53.8268 14.4393 57.9303 14.8713 58.422 15.0916C54.5712 17.6356 57.6914 23.2981 57.6914 23.2981L56.2163 27.6476C57.8568 29.6215 59.2721 30.7963 60.1498 32.9603C61.124 35.3791 61.9879 38.977 61.7581 46.35C58.082 48.9415 46.8973 48.6608 42.541 46.35C42.541 46.35 43.2763 39.8408 44.1447 34.783C44.7191 31.4442 46.0747 27.8074 45.845 26.5764C44.1172 21.5834 44.0069 20.685 44.3194 19.5706C45.1787 16.4348 48.5791 14.3141 49.4154 14.3141L53.8268 14.4393Z" fill="white"/>
<path d="M54.4811 76.2608V75.8764C54.1227 77.1679 53.4059 78.3469 52.4041 79.2929C51.4851 80.0747 50.2444 80.9817 49.9227 81.8585C49.601 82.7353 51.3978 83.1284 52.5833 83.0161C53.7321 82.8841 54.7905 82.3636 55.561 81.5519C56.3146 80.7399 56.3008 80.187 56.6501 79.7378C56.9993 79.2886 57.8127 78.7962 58.0011 78.2779C58.0599 77.7943 58.0033 77.3044 57.8356 76.8439C57.7024 76.3644 57.5553 75.8332 57.3761 75.8764V76.1744C56.9626 76.4802 56.4501 76.6433 55.924 76.6366C55.5242 76.6452 54.4765 76.5631 54.4811 76.2608Z" fill="#37474F"/>
<path d="M57.3656 76.1656C56.9521 76.4714 56.4396 76.6345 55.9135 76.6278C55.4908 76.6278 54.4614 76.563 54.466 76.2606V75.8762C54.1076 77.1678 53.3908 78.3467 52.389 79.2928L51.6951 79.8759C51.208 80.3855 51.3459 80.8304 52.4901 80.9211C53.6343 81.0118 54.6407 80.3639 55.5045 79.3662C56.2411 78.3628 56.8648 77.2902 57.3656 76.1656Z" fill="#FFA8A7"/>
<path d="M46.7394 2.64771C46.0042 3.05803 45.0943 4.80733 45.1816 8.44413C45.2597 11.5367 46.3258 12.3012 46.8635 12.5215C47.4011 12.7418 48.4304 12.6079 49.4322 12.4524V14.3053C49.4322 14.3053 48.0536 15.8214 48.1317 16.6723C48.2099 17.5232 50.1352 17.7219 51.4357 16.8926C52.3746 16.2083 53.1826 15.3786 53.8252 14.4392L53.8022 10.1761C53.8022 10.1761 54.395 10.7117 55.3967 9.89108C56.2239 9.21295 56.4996 8.06404 55.8563 7.45071C55.6892 7.30309 55.487 7.19515 55.2666 7.13589C55.0462 7.07663 54.8138 7.06776 54.589 7.11003C54.3642 7.15229 54.1534 7.24446 53.9741 7.37886C53.7949 7.51326 53.6525 7.68598 53.5587 7.88263C53.5587 7.88263 53.0026 6.42704 50.6913 5.72301C48.605 5.0708 47.47 4.33221 46.7394 2.64771Z" fill="#FFA8A7"/>
<path d="M48.8594 7.67105C48.8595 7.74718 48.8833 7.82162 48.928 7.88512C48.9727 7.94862 49.0362 7.99839 49.1107 8.02825C49.1852 8.05812 49.2674 8.06675 49.3471 8.0531C49.4268 8.03945 49.5005 8.0041 49.559 7.95145C49.6175 7.8988 49.6582 7.83116 49.6762 7.75693C49.6942 7.6827 49.6886 7.60514 49.6601 7.53387C49.6316 7.46261 49.5814 7.40078 49.5159 7.35607C49.4503 7.31135 49.3722 7.28571 49.2913 7.28232C49.2358 7.28118 49.1806 7.29032 49.1288 7.30924C49.0771 7.32816 49.0298 7.35647 48.9897 7.39257C48.9496 7.42867 48.9174 7.47185 48.8951 7.51963C48.8727 7.56742 48.8606 7.61887 48.8594 7.67105Z" fill="#37474F"/>
<path d="M48.7495 10.2883L47.7891 10.5777C47.8059 10.638 47.8356 10.6944 47.8763 10.7436C47.917 10.7928 47.9678 10.8338 48.0257 10.864C48.0837 10.8943 48.1476 10.9132 48.2135 10.9197C48.2794 10.9262 48.3461 10.92 48.4094 10.9017C48.5391 10.8601 48.6468 10.7732 48.7101 10.659C48.7734 10.5448 48.7875 10.412 48.7495 10.2883Z" fill="#F28F8F"/>
<path d="M45.4691 6.47478L46.3054 5.93055C46.27 5.8774 46.2236 5.83157 46.1688 5.79584C46.114 5.76011 46.0521 5.73522 45.9867 5.7227C45.9214 5.71017 45.854 5.71028 45.7888 5.72299C45.7235 5.7357 45.6616 5.76076 45.607 5.79665C45.4949 5.87082 45.4179 5.98301 45.3922 6.10952C45.3665 6.23604 45.394 6.367 45.4691 6.47478Z" fill="#37474F"/>
<path d="M50.0636 6.76813L49.2227 6.22389C49.2581 6.17088 49.3045 6.1251 49.3591 6.0893C49.4138 6.0535 49.4755 6.0284 49.5407 6.0155C49.6059 6.0026 49.6731 6.00217 49.7385 6.01422C49.8039 6.02628 49.866 6.05058 49.9211 6.08567C50.0324 6.16133 50.109 6.27385 50.1354 6.40051C50.1619 6.52718 50.1362 6.65856 50.0636 6.76813Z" fill="#37474F"/>
<path d="M45.6602 7.38586C45.6594 7.46217 45.6824 7.53703 45.7266 7.60109C45.7707 7.66515 45.8339 7.71558 45.9083 7.7461C45.9828 7.77661 46.0651 7.78587 46.1451 7.77271C46.225 7.75955 46.2991 7.72455 46.3581 7.67208C46.417 7.61961 46.4583 7.55199 46.4766 7.47765C46.495 7.40331 46.4896 7.32553 46.4613 7.25402C46.4329 7.18251 46.3828 7.12043 46.3171 7.07551C46.2515 7.0306 46.1732 7.00484 46.0921 7.00144C45.9808 6.99911 45.8729 7.03818 45.7921 7.11016C45.7112 7.18214 45.6638 7.28122 45.6602 7.38586Z" fill="#37474F"/>
<path d="M47.6103 7.16577L47.546 9.50681L46.2363 9.12672L47.6103 7.16577Z" fill="#F28F8F"/>
<path d="M49.4316 12.4521C50.4885 12.3182 52.6483 11.7308 53.0067 10.9231C52.8703 11.3322 52.6041 11.6924 52.2439 11.9554C51.5914 12.478 49.4316 13.0698 49.4316 13.0698V12.4521Z" fill="#F28F8F"/>
<path d="M56.9289 25.2762L54.0293 28.9649L56.2166 27.6475L56.9289 25.2762Z" fill="#407BFF"/>
<path d="M34.0856 35.0768C33.4652 35.8283 33.0838 37.2882 32.7576 37.7806C32.4313 38.273 32.0407 38.7006 32.7576 38.7913C33.4744 38.882 34.5221 37.5646 34.9127 36.7656C35.1105 36.3149 35.4835 35.952 35.9558 35.7506C35.6204 35.6426 35.795 34.377 35.5606 34.2C35.5606 34.2 34.3383 34.6707 34.0856 35.0768Z" fill="#F28F8F"/>
<path d="M33.9004 40.7781C34.5483 40.3245 34.5713 39.7674 34.6954 38.8819C34.8194 37.9965 37.4157 37.0376 37.4984 37.6984C37.5811 38.3593 37.8155 38.9121 37.0389 39.7155C36.2623 40.5189 35.0859 41.3741 33.9004 40.7781Z" fill="#F28F8F"/>
<path d="M53.8254 14.4391C53.8254 14.4391 57.667 14.7544 58.4206 15.0913C59.1742 15.4282 60.4287 17.4669 59.3075 20.4256C58.1862 23.3843 57.1661 26.8656 57.281 27.5653C57.3959 28.265 60.0749 31.8845 60.0749 31.8845C59.3357 32.3973 58.5 32.774 57.6118 32.9946L56.2333 30.1784L56.5549 33.1717C55.1702 33.4882 53.7474 33.6334 52.3227 33.6036C52.3227 33.6036 51.0223 22.1058 53.8254 14.4391Z" fill="#407BFF"/>
<path d="M63.2927 28.5417C63.6006 26.8399 63.2927 26.2827 62.6586 24.6155L59.442 26.5721C59.7058 27.2014 59.8609 27.8663 59.9015 28.5417C59.8739 29.0341 59.1616 33.9148 58.4953 35.6166C58.3752 35.9192 58.1393 36.1688 57.8336 36.3163C57.171 36.6967 56.5705 37.1651 56.0507 37.7071C55.559 38.1391 55.1638 38.2168 55.2144 38.3637C55.2903 38.5229 55.4261 38.6502 55.5957 38.7211C55.7653 38.792 55.9567 38.8016 56.1334 38.7481C56.5337 38.6259 56.9176 38.4606 57.2776 38.2557C56.9585 38.8909 56.5334 39.4742 56.0185 39.9834C54.8376 41.1668 54.7319 41.9357 56.9376 42.0955C58.3161 42.1948 59.4695 41.4692 60.7148 38.6833C61.1007 37.662 61.4184 36.619 61.666 35.5605C62.3369 33.146 62.9895 30.2564 63.2927 28.5417Z" fill="#FFA8A7"/>
<path d="M58.4216 15.0913C59.9702 15.7435 60.4113 17.0306 60.9857 18.9225C61.5601 20.8143 63.3614 26.4898 63.3614 26.4898C63.3614 26.4898 61.8174 28.2175 59.6853 27.7337L56.9282 21.4406C56.9282 21.4406 55.6415 17.333 58.4216 15.0913Z" fill="#407BFF"/>
</svg>
