<svg width="6" height="6" viewBox="0 0 6 6" fill="none" xmlns="http://www.w3.org/2000/svg">
<path d="M1 2.99999C1 3.39555 1.11729 3.78224 1.33706 4.11114C1.55682 4.44004 1.86918 4.69637 2.23463 4.84775C2.60008 4.99912 3.00221 5.03874 3.39018 4.96157C3.77814 4.8844 4.1345 4.69391 4.4142 4.4142C4.69391 4.1345 4.8844 3.77814 4.96157 3.39018C5.03874 3.00221 4.99912 2.60008 4.84775 2.23463C4.69637 1.86918 4.44004 1.55682 4.11114 1.33706C3.78224 1.11729 3.39557 1 3.00001 1C2.46957 1 1.96085 1.2107 1.58578 1.58578C1.2107 1.96085 1 2.46956 1 2.99999Z" fill="white" stroke="#263238" stroke-linecap="round" stroke-linejoin="round"/>
</svg>
