<svg width="16" height="19" viewBox="0 0 16 19" fill="none" xmlns="http://www.w3.org/2000/svg">
<path d="M13.633 14.2259C13.6329 14.8805 13.1022 15.4111 12.4475 15.4111C11.7928 15.4111 11.2621 14.8803 11.2621 14.2256V11.2141C11.2621 10.2134 11.2463 8.92502 10.0291 8.92502C8.79431 8.92502 8.60538 10.0155 8.60538 11.1413V14.2255C8.60538 14.8801 8.07469 15.4108 7.42006 15.4108C6.76543 15.4108 6.23475 14.8801 6.23475 14.2255V7.91814C6.23475 7.28969 6.74421 6.78023 7.37266 6.78023H7.92083C8.24653 6.78023 8.51056 7.04426 8.51056 7.36997V7.93988C8.51056 7.95083 8.51943 7.9597 8.53038 7.9597C8.53779 7.9597 8.54458 7.95555 8.54801 7.94899C8.77554 7.51359 9.10252 7.15531 9.49474 6.9118C9.89017 6.66628 10.3371 6.54661 10.7879 6.56552C13.1908 6.56552 13.6338 8.35217 13.6338 10.6765L13.633 14.2259ZM3.55975 5.60055C2.79994 5.60069 2.18387 4.90449 2.18375 4.04557C2.18362 3.18665 2.79944 2.49023 3.55925 2.49009C4.31906 2.48988 4.93512 3.18608 4.93525 4.045C4.93532 4.45747 4.79044 4.85308 4.53248 5.1448C4.27453 5.43652 3.92463 5.60046 3.55975 5.60055ZM4.74512 14.2246C4.74512 14.8799 4.21387 15.4112 3.55853 15.4112C2.90319 15.4112 2.37194 14.8799 2.37194 14.2246V7.9668C2.37194 7.31147 2.90318 6.78023 3.5585 6.78023C4.21382 6.78023 4.74507 7.31147 4.74507 7.96679L4.74512 14.2246ZM14.8146 0.00122483H1.18069C0.536312 -0.00697082 0.007875 0.576545 0 1.30497V16.7815C0.007625 17.5103 0.536 18.0944 1.18062 18.0868H14.8146C15.4606 18.0958 15.9911 17.5117 16 16.7815V1.30377C15.9908 0.573931 15.4603 -0.0095143 14.8146 2.3744e-05" fill="#0A66C2"/>
</svg>
