<svg width="54" height="136" viewBox="0 0 54 136" fill="none" xmlns="http://www.w3.org/2000/svg">
<path d="M49.2979 0.239609L1.59683 26.0929C1.28355 26.2838 1.02279 26.5416 0.835882 26.8454C0.648977 27.1491 0.541243 27.4902 0.521484 27.8406V132.893C0.541905 133.242 0.649954 133.583 0.83683 133.886C1.02371 134.189 1.28412 134.446 1.59683 134.636L2.26946 134.999C2.60192 135.155 2.96866 135.237 3.34053 135.237C3.7124 135.237 4.07914 135.155 4.4116 134.999L52.1127 109.105C52.4253 108.914 52.6855 108.656 52.8723 108.352C53.0591 108.048 53.1673 107.708 53.188 107.358V2.3417C53.1678 1.99146 53.0594 1.65075 52.8717 1.3476C52.684 1.04445 52.4224 0.787539 52.1084 0.598011L51.4401 0.239609C51.1076 0.0830062 50.7409 0.00146484 50.369 0.00146484C49.9971 0.00146484 49.6304 0.0830062 49.2979 0.239609Z" fill="#407BFF"/>
<path opacity="0.25" d="M49.2979 0.239609L1.59683 26.0929C1.28355 26.2838 1.02279 26.5416 0.835882 26.8454C0.648977 27.1491 0.541243 27.4902 0.521484 27.8406V132.893C0.541905 133.242 0.649954 133.583 0.83683 133.886C1.02371 134.189 1.28412 134.446 1.59683 134.636L2.26946 134.999C2.60192 135.155 2.96866 135.237 3.34053 135.237C3.7124 135.237 4.07914 135.155 4.4116 134.999L52.1127 109.105C52.4253 108.914 52.6855 108.656 52.8723 108.352C53.0591 108.048 53.1673 107.708 53.188 107.358V2.3417C53.1678 1.99146 53.0594 1.65075 52.8717 1.3476C52.684 1.04445 52.4224 0.787539 52.1084 0.598011L51.4401 0.239609C51.1076 0.0830062 50.7409 0.00146484 50.369 0.00146484C49.9971 0.00146484 49.6304 0.0830062 49.2979 0.239609Z" fill="black"/>
<path d="M53.1975 107.426C53.1975 108.312 52.5334 108.876 51.7109 109.323L4.83236 134.765C4.01407 135.208 3.34572 134.85 3.34572 133.96V29.7978C3.34388 29.3083 3.4796 28.8271 3.73915 28.4029C3.9987 27.9786 4.37286 27.6263 4.82379 27.3816L51.7109 1.935C51.8613 1.85286 52.0322 1.80947 52.2062 1.80921C52.3803 1.80894 52.5513 1.85181 52.702 1.93349C52.8528 2.01517 52.978 2.13277 53.065 2.27444C53.152 2.41611 53.1977 2.57683 53.1975 2.7404V107.426Z" fill="#FAFAFA"/>
<path d="M52.2036 2.61547C52.2392 2.61545 52.2734 2.62847 52.299 2.65177C52.3246 2.67508 52.3395 2.70683 52.3406 2.7403V107.442C52.3406 107.752 52.2121 108.139 51.2824 108.65L4.40394 134.069C4.3471 134.099 4.28673 134.123 4.224 134.141C4.21012 134.082 4.20294 134.021 4.20258 133.96V29.7977C4.20327 29.4516 4.30058 29.1118 4.48478 28.8122C4.66897 28.5125 4.9336 28.2636 5.25222 28.0902L52.1393 2.63157C52.1603 2.62608 52.1825 2.62608 52.2036 2.63157V2.61547ZM52.2036 1.82618C52.0306 1.82715 51.8609 1.87015 51.7109 1.95101L4.82379 27.3936C4.37286 27.6383 3.9987 27.9906 3.73915 28.4149C3.4796 28.8391 3.34388 29.3203 3.34572 29.8097V133.96C3.34572 134.592 3.67989 134.955 4.1683 134.955C4.40342 134.947 4.63235 134.882 4.83236 134.765L51.7109 109.323C52.5334 108.876 53.1975 108.312 53.1975 107.426V2.7403C53.1975 2.6178 53.1718 2.49651 53.1218 2.38338C53.0718 2.27026 52.9985 2.16753 52.9061 2.0811C52.8138 1.99466 52.7042 1.92623 52.5836 1.87972C52.463 1.83321 52.3339 1.80954 52.2036 1.81007V1.82618Z" fill="#407BFF"/>
<path d="M53.1975 2.34168V2.74437C53.1968 2.58069 53.1504 2.42005 53.0629 2.27854C52.9754 2.13703 52.8498 2.01961 52.6989 1.93805C52.5479 1.85649 52.3767 1.81364 52.2026 1.81381C52.0285 1.81397 51.8574 1.85713 51.7066 1.93898L4.82383 27.3936C4.37309 27.634 4.00001 27.9847 3.7442 28.4084V28.4366L0.84375 26.8661C1.02518 26.5509 1.291 26.2858 1.61491 26.0969L49.2988 0.239585C49.631 0.0820602 49.9979 0 50.3699 0C50.742 0 51.1088 0.0820602 51.441 0.239585L52.1093 0.597987C52.4249 0.786607 52.6882 1.04312 52.8774 1.34633C53.0666 1.64953 53.1764 1.99072 53.1975 2.34168Z" fill="#407BFF"/>
<path opacity="0.45" d="M53.1975 2.34168V2.74437C53.1968 2.58069 53.1504 2.42005 53.0629 2.27854C52.9754 2.13703 52.8498 2.01961 52.6989 1.93805C52.5479 1.85649 52.3767 1.81364 52.2026 1.81381C52.0285 1.81397 51.8574 1.85713 51.7066 1.93898L4.82383 27.3936C4.37309 27.634 4.00001 27.9847 3.7442 28.4084V28.4366L0.84375 26.8661C1.02518 26.5509 1.291 26.2858 1.61491 26.0969L49.2988 0.239585C49.631 0.0820602 49.9979 0 50.3699 0C50.742 0 51.1088 0.0820602 51.441 0.239585L52.1093 0.597987C52.4249 0.786607 52.6882 1.04312 52.8774 1.34633C53.0666 1.64953 53.1764 1.99072 53.1975 2.34168Z" fill="white"/>
<path d="M9.01756 38.2987C8.97044 38.2987 8.94045 38.2585 8.93188 38.19L8.04075 32.371C8.0385 32.3442 8.0385 32.3173 8.04075 32.2905C8.04243 32.2677 8.04243 32.2448 8.04075 32.222C8.04075 32.0529 8.17357 31.8958 8.44347 31.7509L8.64055 31.6461C8.91046 31.4971 9.06898 31.5213 9.06898 31.7146L9.38601 35.1617L9.44599 35.8342L9.51026 36.5671L9.63022 35.3147C9.63022 35.1738 9.66021 35.0731 9.66449 35.0127L10.0929 31.0663C10.0963 30.9907 10.1264 30.9184 10.1786 30.8609C10.2445 30.791 10.3227 30.7324 10.4099 30.6877L10.7484 30.5025C10.8188 30.4579 10.8997 30.4303 10.984 30.4219C11.0312 30.4219 11.0612 30.4622 11.0697 30.5387L11.4982 34.0342L11.6438 35.4557L11.7424 34.3563L11.7381 33.869L12.0637 30.0716C12.0808 29.9549 12.129 29.8443 12.2039 29.7499C12.2789 29.6555 12.378 29.5806 12.4921 29.532L12.6506 29.4474C12.9162 29.3024 13.0491 29.3145 13.0491 29.4837C13.0491 29.5441 13.0491 29.5924 13.0491 29.6367L12.1665 36.4222C12.1505 36.5048 12.1132 36.5824 12.0579 36.6484C12.0027 36.7144 11.9311 36.7666 11.8495 36.8007L11.3996 37.0423C11.2197 37.143 11.1169 37.1269 11.0954 37.002L10.6327 33.7805L10.5599 32.7697L10.4528 33.869L10.0244 37.594C10.0083 37.6745 9.97182 37.7501 9.91814 37.8146C9.86447 37.879 9.79511 37.9305 9.7159 37.9645L9.28747 38.2061C9.21153 38.2653 9.11619 38.298 9.01756 38.2987Z" fill="#455A64"/>
<path d="M13.5499 35.7617C13.4962 35.6828 13.4735 35.5888 13.4856 35.4959V29.4111C13.4804 29.2966 13.5023 29.1825 13.5499 29.0769C13.5872 28.993 13.6536 28.9234 13.7384 28.8796L15.7391 27.7963C15.7506 27.787 15.7644 27.7804 15.7792 27.7771C15.794 27.7739 15.8094 27.774 15.8242 27.7776C15.8389 27.7811 15.8525 27.788 15.8638 27.7976C15.8751 27.8071 15.8838 27.8191 15.8891 27.8325C15.9278 27.9442 15.9438 28.0617 15.9362 28.1789V28.4849C15.9403 28.6206 15.9245 28.7561 15.8891 28.8876C15.8664 28.9684 15.813 29.0386 15.7391 29.0849L14.5438 29.7333V31.1548L15.602 30.583C15.6706 30.5467 15.722 30.5588 15.752 30.6192C15.7907 30.7309 15.8067 30.8483 15.7991 30.9655V31.2716C15.8032 31.4072 15.7874 31.5428 15.752 31.6743C15.7308 31.7557 15.6771 31.8264 15.602 31.8716L14.5438 32.4435V34.0341L15.7434 33.3858C15.8119 33.3455 15.8634 33.3616 15.8933 33.422C15.9274 33.5359 15.9419 33.6542 15.9362 33.7724V34.0744C15.9397 34.2098 15.9253 34.345 15.8933 34.4771C15.8722 34.5585 15.8185 34.6292 15.7434 34.6744L13.7384 35.7617C13.6527 35.7979 13.5884 35.802 13.5499 35.7617Z" fill="#455A64"/>
<path d="M17.1447 33.708C17.1393 33.645 17.1393 33.5817 17.1447 33.5187L18.1901 26.7091C18.2157 26.6004 18.2676 26.4988 18.342 26.4121C18.4163 26.3255 18.511 26.2562 18.6185 26.2097L19.047 25.9721C19.2954 25.8352 19.4325 25.8513 19.4754 26.0164L20.5208 31.6945C20.5208 31.7804 20.5208 31.8368 20.5208 31.8636C20.5133 31.9451 20.4822 32.0231 20.4308 32.0892C20.3795 32.1552 20.3098 32.2067 20.2294 32.2381L19.8695 32.4314C19.651 32.5522 19.5311 32.5482 19.5097 32.4314L19.334 31.328L18.3015 31.8878L18.1173 33.1845C18.1005 33.2668 18.063 33.3442 18.0078 33.4101C17.9527 33.4759 17.8815 33.5284 17.8002 33.563L17.4489 33.7563C17.2518 33.8691 17.1447 33.8691 17.1447 33.708ZM19.2398 30.1844L18.9356 28.2715C18.9013 28.0501 18.8756 27.8165 18.8542 27.5668L18.8199 27.5869C18.7942 27.8608 18.7685 28.1225 18.7385 28.3923L18.4386 30.6354L19.2398 30.1844Z" fill="#455A64"/>
<path d="M20.9185 31.5575V25.3761C20.9144 25.2617 20.9363 25.1477 20.9827 25.0419C21.0292 24.9551 21.1023 24.8836 21.1927 24.8365L22.3237 24.2204C22.4627 24.1144 22.6316 24.0489 22.8096 24.0317C22.9877 24.0146 23.1672 24.0465 23.3262 24.1237C23.579 24.2848 23.7075 24.7117 23.7075 25.4043C23.7239 26.1223 23.499 26.8268 23.0649 27.4178V27.454C23.1249 27.4762 23.1796 27.5093 23.226 27.5515C23.2723 27.5936 23.3093 27.644 23.3348 27.6997C23.4212 27.8542 23.4832 28.0197 23.519 28.191L23.9174 29.8581V29.9629C23.9174 30.14 23.7761 30.3051 23.489 30.4582L23.2491 30.587C23.0092 30.7159 22.8764 30.7038 22.8421 30.5427L22.4822 28.8715C22.4652 28.7827 22.4169 28.7019 22.3451 28.642C22.2937 28.6138 22.2123 28.642 22.0966 28.6903L21.9338 28.7789V30.9978C21.9237 31.1155 21.878 31.2281 21.8021 31.3223C21.7262 31.4165 21.6233 31.4883 21.5054 31.5294L21.274 31.6542C21.0556 31.7992 20.9185 31.7669 20.9185 31.5575ZM22.3451 27.1278C22.469 27.0395 22.558 26.9148 22.5979 26.7735C22.6764 26.553 22.7127 26.3212 22.705 26.0889C22.7262 25.9004 22.689 25.7102 22.5979 25.5412C22.5838 25.5205 22.5652 25.5028 22.5434 25.4892C22.5216 25.4756 22.497 25.4665 22.4712 25.4623C22.4454 25.4581 22.4189 25.459 22.3936 25.465C22.3682 25.471 22.3444 25.4818 22.3237 25.4969L21.9638 25.6942V27.3332L22.3451 27.1278Z" fill="#455A64"/>
<path d="M24.4791 29.842C24.4285 29.7605 24.4075 29.6658 24.4191 29.5721V23.4753C24.4154 23.3625 24.4358 23.2502 24.4791 23.1451C24.5206 23.0624 24.5879 22.9936 24.6719 22.9477L26.6727 21.8604C26.6845 21.8512 26.6985 21.8448 26.7135 21.8418C26.7286 21.8388 26.7442 21.8393 26.759 21.8433C26.7738 21.8472 26.7873 21.8545 26.7984 21.8646C26.8095 21.8746 26.8178 21.887 26.8226 21.9007C26.8617 22.0123 26.8777 22.1298 26.8697 22.247V22.5491C26.8739 22.6847 26.858 22.8202 26.8226 22.9518C26.8001 23.0337 26.7469 23.1052 26.6727 23.1531L25.4774 23.7974V25.223L26.5356 24.6471C26.6041 24.6109 26.6555 24.623 26.6855 24.6834C26.7242 24.7964 26.7401 24.9152 26.7326 25.0337V25.3357C26.7371 25.4714 26.7212 25.6069 26.6855 25.7384C26.6645 25.821 26.6109 25.893 26.5356 25.9398L25.4774 26.5116V28.1023L26.6769 27.4499C26.7455 27.4137 26.7969 27.4258 26.8226 27.4902C26.8617 27.6031 26.8776 27.722 26.8697 27.8405V28.1426C26.8739 28.2782 26.858 28.4137 26.8226 28.5453C26.8033 28.6264 26.7511 28.6972 26.6769 28.7426L24.6719 29.8299C24.5905 29.8661 24.522 29.8661 24.4791 29.842Z" fill="#455A64"/>
<path d="M28.4473 27.4741V21.192C28.4539 21.0787 28.4938 20.9694 28.5627 20.8763C28.6315 20.7831 28.7265 20.7098 28.8371 20.6645L29.1242 20.5114C29.3812 20.3705 29.5098 20.4067 29.5098 20.6161V23.0323L30.6708 22.4041V19.9879C30.6778 19.8742 30.7184 19.7646 30.788 19.6714C30.8576 19.5782 30.9536 19.5051 31.065 19.4604L31.3434 19.3114C31.6048 19.1664 31.7333 19.2027 31.7333 19.4121V25.6942C31.7262 25.8073 31.6861 25.9164 31.6173 26.0095C31.5485 26.1025 31.4537 26.176 31.3434 26.2217L31.065 26.3707C30.7993 26.5116 30.6708 26.4794 30.6708 26.27V23.7089L29.5098 24.3371V26.8982C29.5037 27.0106 29.4644 27.1191 29.3963 27.2116C29.3282 27.3041 29.2339 27.3769 29.1242 27.4217L28.8371 27.5788C28.5801 27.7157 28.4473 27.6835 28.4473 27.4741Z" fill="#455A64"/>
<path d="M32.4824 25.2835V19.0014C32.4893 18.8866 32.5297 18.7759 32.5993 18.6814C32.6688 18.5869 32.7648 18.5123 32.8766 18.4658L33.1636 18.3087C33.4207 18.1718 33.5492 18.2081 33.5492 18.4255V24.7076C33.5433 24.821 33.5041 24.9307 33.4361 25.0245C33.368 25.1183 33.2738 25.1926 33.1636 25.2392L32.8766 25.3922C32.6152 25.5372 32.4824 25.5009 32.4824 25.2835Z" fill="#455A64"/>
<path d="M34.2739 24.3129V18.1275C34.2698 18.013 34.2917 17.8991 34.3382 17.7932C34.3832 17.7056 34.4567 17.6336 34.5481 17.5878L35.6792 16.9757C36.1076 16.7502 36.4289 16.714 36.6817 16.8751C36.9344 17.0361 37.063 17.463 37.063 18.1556C37.0799 18.8737 36.855 19.5784 36.4203 20.1691V20.2094C36.4807 20.231 36.5358 20.2639 36.5822 20.3061C36.6286 20.3483 36.6654 20.399 36.6902 20.4551C36.7766 20.6082 36.8387 20.7723 36.8745 20.9423L37.2729 22.6095L37.2943 22.7182C37.2943 22.8954 37.1529 23.0605 36.8659 23.2095L36.626 23.3384C36.3861 23.4713 36.2532 23.4552 36.1975 23.2941L35.8377 21.6269C35.8316 21.5374 35.7939 21.4524 35.7306 21.3853C35.6792 21.3531 35.5935 21.3853 35.4821 21.4296L35.3193 21.5182V23.7371C35.3108 23.853 35.2682 23.9644 35.1964 24.059C35.1245 24.1535 35.0262 24.2275 34.9123 24.2726L34.6809 24.3975C34.411 24.5505 34.2739 24.5223 34.2739 24.3129ZM35.7006 19.8832C35.8255 19.7957 35.9147 19.6707 35.9533 19.5288C36.0318 19.3084 36.0681 19.0766 36.0605 18.8443C36.0805 18.6559 36.0433 18.466 35.9533 18.2966C35.9389 18.2762 35.92 18.2588 35.8981 18.2456C35.8761 18.2324 35.8514 18.2237 35.8257 18.2199C35.7999 18.2161 35.7736 18.2174 35.7483 18.2236C35.7231 18.2299 35.6996 18.241 35.6792 18.2563L35.3193 18.4496V20.0886L35.7006 19.8832Z" fill="#455A64"/>
<path d="M37.7383 22.4323V16.1502C37.7449 16.0349 37.7851 15.9235 37.8547 15.8283C37.9242 15.7332 38.0203 15.6578 38.1324 15.6106L38.4195 15.4576C38.6765 15.3166 38.8051 15.3569 38.8051 15.5703V21.8524C38.7999 21.9665 38.7611 22.077 38.693 22.1716C38.625 22.2662 38.5302 22.3411 38.4195 22.388L38.1324 22.541C37.8711 22.686 37.7383 22.6458 37.7383 22.4323Z" fill="#455A64"/>
<path d="M39.5176 21.4659V15.1838C39.526 15.0705 39.5671 14.9614 39.6366 14.8685C39.7061 14.7755 39.8012 14.7021 39.9117 14.6562L40.0874 14.5636C40.1512 14.5211 40.2277 14.4986 40.3059 14.4992C40.3573 14.4992 40.4044 14.5556 40.4387 14.6442L41.6597 17.1812C41.7504 17.3901 41.8276 17.6039 41.8911 17.8215L41.9168 17.7892C41.8825 17.4671 41.8654 17.2214 41.8654 17.0443V13.9113C41.8724 13.7981 41.9126 13.689 41.9814 13.596C42.0502 13.5029 42.1449 13.4294 42.2552 13.3837L42.4223 13.2951C42.6837 13.1542 42.8122 13.1864 42.8122 13.3958V19.6779C42.8056 19.7912 42.7656 19.9005 42.6968 19.9936C42.6279 20.0868 42.5329 20.1601 42.4223 20.2054L42.2895 20.2739C42.2246 20.3179 42.1467 20.3418 42.0667 20.3424C42.011 20.3424 41.9596 20.29 41.9253 20.2014L40.6401 17.5678C40.5635 17.3955 40.5019 17.2178 40.4558 17.0362L40.4216 17.0845C40.4515 17.2969 40.4701 17.5106 40.4773 17.7248V20.9464C40.4698 21.06 40.429 21.1694 40.3594 21.2625C40.2899 21.3556 40.1942 21.4288 40.0831 21.4739L39.9203 21.5625C39.6504 21.7115 39.5176 21.6753 39.5176 21.4659Z" fill="#455A64"/>
<path d="M46.5095 14.0361C46.5616 14.1155 46.5828 14.2094 46.5694 14.3019V17.2255C46.5563 17.4138 46.4848 17.5944 46.3638 17.745C46.0783 18.1412 45.7039 18.4738 45.267 18.7195C44.6386 19.0631 44.1717 19.0296 43.866 18.6188C43.5604 18.2081 43.4105 17.4027 43.4162 16.2026C43.3844 15.2277 43.5382 14.2554 43.8703 13.3314C44.1277 12.6561 44.6277 12.0864 45.2841 11.7206C45.4662 11.6192 45.6644 11.5458 45.8711 11.5031C46.0221 11.461 46.1828 11.461 46.3338 11.5031C46.3861 11.5188 46.4315 11.5501 46.4632 11.5923C46.4949 11.6344 46.5111 11.6851 46.5095 11.7367C46.5045 11.8734 46.48 12.0088 46.4366 12.1394C46.3931 12.3005 46.3358 12.4581 46.2652 12.6105C46.2309 12.7111 46.1671 12.8004 46.081 12.8683C46.0348 12.8803 45.9859 12.8803 45.9396 12.8683C45.8541 12.8606 45.7681 12.8606 45.6826 12.8683C45.5624 12.8937 45.4479 12.9387 45.3441 13.0012C45.0188 13.2036 44.7899 13.5169 44.7058 13.875C44.5518 14.4499 44.484 15.0423 44.5044 15.6348C44.4642 16.1783 44.5295 16.7241 44.6972 17.2456C44.8257 17.5033 45.0142 17.5678 45.267 17.4268C45.3684 17.3757 45.4621 17.3121 45.5455 17.2376V15.7476L45.2027 15.9368C45.1342 15.9731 45.0828 15.961 45.0528 15.9006C45.0119 15.7894 44.9958 15.6715 45.0057 15.5543V15.2402C44.9988 15.1044 45.0147 14.9685 45.0528 14.8375C45.0725 14.7544 45.1264 14.682 45.2027 14.6361L46.3209 14.028C46.4066 13.9998 46.4709 13.9958 46.5095 14.0361Z" fill="#455A64"/>
<path d="M47.2285 17.2818V16.3798C47.235 16.266 47.2754 16.1562 47.3451 16.0629C47.4148 15.9696 47.511 15.8966 47.6227 15.8522L47.8455 15.7314C48.1068 15.5865 48.2396 15.6227 48.2396 15.8321V16.7342C48.2321 16.8477 48.1914 16.9571 48.1218 17.0502C48.0522 17.1434 47.9566 17.2165 47.8455 17.2617L47.6227 17.3825C47.357 17.5234 47.2285 17.4912 47.2285 17.2818ZM47.4342 15.212C47.387 15.1878 47.3656 15.1234 47.3656 15.0106V10.9151C47.3722 10.8019 47.4122 10.6926 47.481 10.5994C47.5499 10.5063 47.6449 10.433 47.7555 10.3876L48.0682 10.2185C48.1542 10.1637 48.2557 10.1343 48.3596 10.1339C48.4281 10.1339 48.4624 10.1822 48.4624 10.2789L48.1154 14.5878C48.1115 14.6889 48.0837 14.788 48.034 14.8777C47.968 14.9689 47.8779 15.0425 47.7726 15.0911L47.7169 15.1193C47.5755 15.2079 47.4813 15.2361 47.4342 15.212Z" fill="#455A64"/>
<path d="M10.9317 87.428L45.7586 68.5293C48.4448 62.7465 50.5913 54.0804 48.2349 49.4695C47.5409 48.1084 46.5683 47.5889 45.7115 46.5057C44.5461 45.0197 44.9103 41.4679 44.8289 38.9752C44.6533 30.6836 39.6878 30.7923 34.6538 34.5455C31.5091 36.6395 28.8828 37.2798 26.1795 36.3818C24.2001 35.7173 22.1822 35.3388 19.8216 36.7845C18.0008 37.8879 16.9811 38.9108 15.2374 41.6733C14.422 43.0247 13.8106 44.4763 13.4209 45.9862C11.8186 52.0267 12.9925 57.4188 11.4673 63.4633C10.6104 66.5359 8.82386 69.1817 8.03984 72.3227C6.16761 78.2464 8.11695 85.5151 10.9317 87.428Z" fill="#407BFF"/>
<path opacity="0.8" d="M10.9317 87.428L45.7586 68.5293C48.4448 62.7465 50.5913 54.0804 48.2349 49.4695C47.5409 48.1084 46.5683 47.5889 45.7115 46.5057C44.5461 45.0197 44.9103 41.4679 44.8289 38.9752C44.6533 30.6836 39.6878 30.7923 34.6538 34.5455C31.5091 36.6395 28.8828 37.2798 26.1795 36.3818C24.2001 35.7173 22.1822 35.3388 19.8216 36.7845C18.0008 37.8879 16.9811 38.9108 15.2374 41.6733C14.422 43.0247 13.8106 44.4763 13.4209 45.9862C11.8186 52.0267 12.9925 57.4188 11.4673 63.4633C10.6104 66.5359 8.82386 69.1817 8.03984 72.3227C6.16761 78.2464 8.11695 85.5151 10.9317 87.428Z" fill="white"/>
<path d="M47.1816 68.1225L9.16725 88.7568C9.09871 88.7931 9.04301 88.7568 9.04301 88.6441C9.04218 88.5975 9.05298 88.5514 9.07456 88.5094C9.09613 88.4674 9.12789 88.4308 9.16725 88.4025L47.1859 67.7682C47.2544 67.7319 47.3101 67.7682 47.3101 67.8809C47.3105 67.9279 47.299 67.9742 47.2767 68.0162C47.2543 68.0582 47.2217 68.0946 47.1816 68.1225V68.1225Z" fill="#455A64"/>
<path d="M21.9045 56.549L22.9627 55.9731L22.8984 54.8859L21.8359 55.4617L21.9045 56.549Z" fill="#F5F5F5"/>
<path d="M21.6076 69.4877L22.1903 69.1696L22.1217 68.0863L21.5391 68.4004L21.6076 69.4877Z" fill="#F5F5F5"/>
<path d="M24.6545 67.8327L25.2414 67.5186L25.1729 66.4313L24.5859 66.7494L24.6545 67.8327Z" fill="#F5F5F5"/>
<path d="M24.4665 54.1005L20.1608 56.4201C19.8909 56.5691 19.651 56.3798 19.6253 56.0174L19.4368 52.9891C19.4225 52.8075 19.4561 52.6254 19.5346 52.4589C19.613 52.2925 19.734 52.1467 19.8866 52.0347L24.1709 49.699C24.4451 49.5541 24.6808 49.7393 24.7065 50.1219L24.895 53.1502C24.9125 53.3295 24.8826 53.5101 24.8078 53.676C24.7331 53.8418 24.6158 53.9876 24.4665 54.1005V54.1005Z" fill="#455A64"/>
<path d="M19.933 52.0106L19.7573 52.1032C19.6083 52.2172 19.4913 52.3638 19.4166 52.5302C19.3419 52.6967 19.3118 52.8777 19.3289 53.0576L19.5174 56.0859C19.5431 56.4645 19.7788 56.6537 20.0529 56.4886L20.2286 56.396C20.3777 56.282 20.4947 56.1354 20.5694 55.969C20.6441 55.8026 20.6742 55.6215 20.657 55.4416L20.4685 52.4133C20.4428 52.0509 20.2072 51.8616 19.933 52.0106Z" fill="#37474F"/>
<path d="M26.1836 65.8835L20.1042 69.1816C19.8343 69.3266 19.5944 69.1373 19.5687 68.7588L18.9518 58.8605C18.935 58.6806 18.9653 58.4996 19.0399 58.3333C19.1146 58.1669 19.2314 58.0203 19.3802 57.9061L25.4553 54.608C25.7295 54.463 25.9651 54.6482 25.9908 55.0308L26.6078 64.9291C26.6254 65.1087 26.596 65.2896 26.522 65.4559C26.4481 65.6223 26.3319 65.7691 26.1836 65.8835V65.8835Z" fill="#455A64"/>
<path d="M20.2799 69.085L20.1042 69.1817C19.8343 69.3266 19.5944 69.1374 19.5687 68.7588L18.9518 58.8605C18.935 58.6806 18.9653 58.4996 19.0399 58.3333C19.1146 58.167 19.2314 58.0203 19.3802 57.9061L19.5558 57.8135C19.8258 57.6645 20.0657 57.8537 20.0871 58.2162L20.734 68.1306C20.7467 68.3124 20.7119 68.4944 20.6328 68.6607C20.5536 68.827 20.4325 68.9727 20.2799 69.085V69.085Z" fill="#37474F"/>
<path d="M29.4568 65.1829L20.5669 70.0152C20.4153 70.1188 20.2917 70.2544 20.2061 70.4111C20.1206 70.5678 20.0754 70.7412 20.0742 70.9173V71.5334C20.0742 71.8838 20.297 72.0489 20.5669 71.9039L29.4568 67.0715C29.6071 66.9671 29.7295 66.8313 29.8142 66.6747C29.899 66.5181 29.9438 66.3451 29.9452 66.1695V65.5533C29.9452 65.199 29.7309 65.0339 29.4568 65.1829Z" fill="#37474F"/>
<path d="M22.9072 71.5052L27.1144 69.2219C27.3078 69.0781 27.4634 68.8943 27.5689 68.6848C27.6745 68.4752 27.7271 68.2456 27.7227 68.0138V68.0138L22.2988 70.9575C22.2988 71.4408 22.573 71.6864 22.9072 71.5052Z" fill="#263238"/>
<path d="M25.4473 70.8206L24.5904 71.2716C24.3291 71.4126 24.1191 71.2233 24.1191 70.8448L25.8971 69.8783C25.9034 70.0572 25.8661 70.2351 25.7882 70.3984C25.7102 70.5617 25.5936 70.7061 25.4473 70.8206V70.8206Z" fill="#263238"/>
<path d="M25.4602 73.9295L24.5605 74.4168V71.2918L25.4602 70.8005V73.9295Z" fill="#F5F5F5"/>
<path d="M25.5035 75.9269L24.5224 76.4585C24.4068 76.5189 24.3125 76.4585 24.3125 76.3135V74.9443C24.3153 74.829 24.3466 74.7159 24.4038 74.6138C24.4611 74.5118 24.5427 74.4237 24.6424 74.3564L25.3836 73.9537C25.5635 73.857 25.7092 73.9537 25.7092 74.1872V75.5403C25.7106 75.6156 25.6926 75.69 25.6568 75.7573C25.621 75.8246 25.5684 75.8828 25.5035 75.9269V75.9269Z" fill="#37474F"/>
<path d="M28.9302 76.4101C28.8317 76.4665 28.7503 76.39 28.7503 76.249C28.7503 75.9913 28.6346 75.8222 28.4675 75.8463L25.5285 75.6812C25.4343 75.6812 25.3829 75.5685 25.4128 75.4154C25.4428 75.2624 25.5499 75.1335 25.6399 75.1255L28.5832 75.2906C28.896 75.2704 29.1102 75.5805 29.1102 76.0638C29.1096 76.1305 29.0931 76.1962 29.0619 76.2561C29.0308 76.316 28.9858 76.3687 28.9302 76.4101V76.4101Z" fill="#37474F"/>
<path d="M25.0194 79.2492C24.9252 79.3015 24.8438 79.229 24.8438 79.0881V75.5403C24.8435 75.4727 24.8591 75.4059 24.8894 75.3447C24.9198 75.2834 24.9642 75.2292 25.0194 75.186C25.1179 75.1336 25.1951 75.1859 25.1951 75.347V78.8988C25.1969 78.9661 25.182 79.0328 25.1515 79.0936C25.121 79.1544 25.0757 79.2077 25.0194 79.2492V79.2492Z" fill="#37474F"/>
<path d="M28.9303 76.0597C28.7527 76.1922 28.6101 76.3615 28.5135 76.5542C28.4169 76.747 28.369 76.9581 28.3733 77.1712C28.3733 77.6141 28.6218 77.8397 28.9303 77.6746C29.1078 77.542 29.2504 77.3728 29.347 77.18C29.4436 76.9873 29.4916 76.7761 29.4872 76.5631C29.4872 76.1201 29.2387 75.8946 28.9303 76.0597Z" fill="#263238"/>
<path d="M25.0181 78.19C24.8409 78.3219 24.6985 78.4904 24.6019 78.6825C24.5053 78.8746 24.4571 79.085 24.4612 79.2974C24.4612 79.7404 24.7139 79.9659 25.0181 79.8008C25.1951 79.6687 25.3373 79.5001 25.4339 79.3081C25.5305 79.1161 25.5788 78.9057 25.5751 78.6934C25.5665 78.2464 25.318 78.0209 25.0181 78.19Z" fill="#263238"/>
<path d="M21.0686 80.6747C20.9701 80.731 20.8887 80.6746 20.8887 80.5136C20.8936 80.0195 21.0815 79.5425 21.4199 79.1645L24.3589 75.81C24.4532 75.7134 24.556 75.7335 24.586 75.8503C24.5993 75.9213 24.5959 75.9942 24.5759 76.0638C24.5559 76.1334 24.5199 76.198 24.4703 76.253L21.5313 79.6035C21.3518 79.8061 21.2519 80.0606 21.2485 80.3243C21.2486 80.3917 21.2324 80.4582 21.2013 80.5188C21.1701 80.5795 21.1248 80.6328 21.0686 80.6747Z" fill="#37474F"/>
<path d="M21.0688 80.3284C20.8921 80.4607 20.7501 80.6293 20.6535 80.8213C20.557 81.0132 20.5085 81.2235 20.5119 81.4358C20.5119 81.8788 20.7647 82.1043 21.0688 81.9392C21.2463 81.8075 21.3889 81.639 21.4855 81.4469C21.5821 81.2547 21.6301 81.0442 21.6258 80.8317C21.6258 80.3847 21.3773 80.1794 21.0688 80.3284Z" fill="#263238"/>
<path d="M15.7129 66.9427L42.2154 52.5623V51.5314L15.7129 65.9118V66.9427Z" fill="#407BFF"/>
<path opacity="0.15" d="M21.4581 63.8258L15.7129 66.9427V65.9118L21.4581 62.7949V63.8258Z" fill="black"/>
<path d="M17.7358 83.7433L18.267 83.4574L18.4555 65.4486L17.543 65.944L17.7358 83.7433ZM35.7768 73.9536L36.3081 73.6677L36.4966 55.659L35.584 56.1543L35.7768 73.9536ZM40.5966 53.416L40.7894 71.2153L41.3207 70.9253L41.5092 52.9207L40.5966 53.416Z" fill="#407BFF"/>
<path opacity="0.15" d="M17.7358 83.7433L18.267 83.4574L18.4555 65.4486L17.543 65.944L17.7358 83.7433ZM35.7768 73.9536L36.3081 73.6677L36.4966 55.659L35.584 56.1543L35.7768 73.9536ZM40.5966 53.416L40.7894 71.2153L41.3207 70.9253L41.5092 52.9207L40.5966 53.416Z" fill="black"/>
<path opacity="0.15" d="M17.5648 67.1279L18.4516 66.6446V65.4365L17.5391 65.9319L17.5648 67.1279ZM35.6058 57.3383L36.4927 56.855V55.6469L35.5801 56.1422L35.6058 57.3383ZM40.6056 53.4361V54.616L41.4924 54.1368V52.9287L40.6056 53.4361Z" fill="black"/>
<path d="M30.6819 56.3879C30.6906 56.3017 30.6647 56.2155 30.6091 56.1463C30.5191 56.0658 30.3691 56.1222 30.2106 56.2067C30.2106 56.1463 30.2106 56.0859 30.2106 56.0255L27.8457 57.3101C27.8457 58.4216 28.0299 59.227 29.0282 58.6833C29.4424 58.4641 29.7633 58.1169 29.9364 57.7007C30.1716 57.5619 30.3641 57.3678 30.4949 57.1375C30.6256 56.9072 30.6901 56.6488 30.6819 56.3879ZM30.0564 57.3826C30.1411 57.0799 30.19 56.7692 30.2021 56.4564C30.3263 56.392 30.442 56.3396 30.4891 56.3839C30.5362 56.4282 30.5148 56.4161 30.5148 56.4806C30.5226 56.6547 30.4848 56.8279 30.4049 56.9852C30.325 57.1424 30.2054 57.2789 30.0564 57.3826V57.3826Z" fill="#407BFF"/>
<path opacity="0.5" d="M30.6819 56.3879C30.6906 56.3017 30.6647 56.2155 30.6091 56.1463C30.5191 56.0658 30.3691 56.1222 30.2106 56.2067C30.2106 56.1463 30.2106 56.0859 30.2106 56.0255L27.8457 57.3101C27.8457 58.4216 28.0299 59.227 29.0282 58.6833C29.4424 58.4641 29.7633 58.1169 29.9364 57.7007C30.1716 57.5619 30.3641 57.3678 30.4949 57.1375C30.6256 56.9072 30.6901 56.6488 30.6819 56.3879ZM30.0564 57.3826C30.1411 57.0799 30.19 56.7692 30.2021 56.4564C30.3263 56.392 30.442 56.3396 30.4891 56.3839C30.5362 56.4282 30.5148 56.4161 30.5148 56.4806C30.5226 56.6547 30.4848 56.8279 30.4049 56.9852C30.325 57.1424 30.2054 57.2789 30.0564 57.3826V57.3826Z" fill="white"/>
<path d="M28.4458 56.992C28.4458 56.992 28.223 56.8591 28.2959 56.2873C28.3687 55.7154 28.7757 55.1396 28.7243 54.5758C28.6729 54.012 28.3944 53.7946 28.493 53.0496C28.6085 52.4534 28.8028 51.873 29.0713 51.322L30.5066 50.5448C30.209 51.1718 29.9877 51.8283 29.8468 52.5019C29.8468 53.0456 30.1039 53.4281 30.0482 54.0443C29.9925 54.6604 29.3841 55.3128 29.3841 55.9007C29.3776 55.987 29.3907 56.0736 29.4225 56.1548C29.4542 56.2361 29.5039 56.31 29.5683 56.3719L28.4458 56.992Z" fill="white"/>
<path d="M14.2094 79.6881C14.7484 79.1943 15.0825 78.5362 15.152 77.8317C15.3362 76.5551 15.9103 76.4625 16.1416 75.347C16.373 74.2316 15.8203 74.0222 16.0474 73.2852C16.2744 72.5483 16.0945 71.8113 15.589 72.3026C15.0834 72.7939 15.1905 73.5309 14.5307 74.1107C13.871 74.6906 13.6739 75.9269 13.751 76.8894C13.8281 77.9203 12.817 78.9029 13.1555 80.26L14.2094 79.6881Z" fill="#407BFF"/>
<path opacity="0.2" d="M14.2094 79.6881C14.7484 79.1943 15.0825 78.5362 15.152 77.8317C15.3362 76.5551 15.9103 76.4625 16.1416 75.347C16.373 74.2316 15.8203 74.0222 16.0474 73.2852C16.2744 72.5483 16.0945 71.8113 15.589 72.3026C15.0834 72.7939 15.1905 73.5309 14.5307 74.1107C13.871 74.6906 13.6739 75.9269 13.751 76.8894C13.8281 77.9203 12.817 78.9029 13.1555 80.26L14.2094 79.6881Z" fill="white"/>
<path d="M14.2091 79.6881C14.748 79.1942 15.0822 78.5361 15.1516 77.8316C15.3358 76.5551 15.9099 76.4624 16.1413 75.347C16.3726 74.2315 15.8199 74.0221 16.047 73.2851C16.2184 72.7375 16.1627 72.1938 15.9142 72.1495C15.3572 73.7603 14.1534 77.4128 13.9648 79.8209L14.2091 79.6881Z" fill="#407BFF"/>
<path opacity="0.1" d="M14.2091 79.6881C14.748 79.1942 15.0822 78.5361 15.1516 77.8316C15.3358 76.5551 15.9099 76.4624 16.1413 75.347C16.3726 74.2315 15.8199 74.0221 16.047 73.2851C16.2184 72.7375 16.1627 72.1938 15.9142 72.1495C15.3572 73.7603 14.1534 77.4128 13.9648 79.8209L14.2091 79.6881Z" fill="white"/>
<path d="M11.9647 80.9043C11.9647 80.9043 11.2063 81.1499 11.0221 80.0747C10.8379 78.9995 10.2638 79.5271 10.0325 78.6613C9.8011 77.7954 10.3538 76.99 10.1267 76.4987C9.89964 76.0075 10.0796 75.0772 10.5851 75.0168C11.0907 74.9564 10.9836 75.8222 11.6433 75.6773C12.3031 75.5323 12.5002 76.5712 12.4231 77.6102C12.346 78.7216 13.3571 78.617 13.0186 80.3365L11.9647 80.9043Z" fill="#407BFF"/>
<path opacity="0.2" d="M11.9647 80.9043C11.9647 80.9043 11.2063 81.1499 11.0221 80.0747C10.8379 78.9995 10.2638 79.5271 10.0325 78.6613C9.8011 77.7954 10.3538 76.99 10.1267 76.4987C9.89964 76.0075 10.0796 75.0772 10.5851 75.0168C11.0907 74.9564 10.9836 75.8222 11.6433 75.6773C12.3031 75.5323 12.5002 76.5712 12.4231 77.6102C12.346 78.7216 13.3571 78.617 13.0186 80.3365L11.9647 80.9043Z" fill="white"/>
<path d="M11.9647 80.9043C11.9647 80.9043 11.2063 81.1499 11.0221 80.0747C10.8379 78.9995 10.2638 79.527 10.0325 78.6612C9.8011 77.7954 10.3538 76.99 10.1267 76.4987C10.0435 76.2899 10.0121 76.0659 10.0352 75.844C10.0582 75.622 10.1349 75.4079 10.2595 75.2181C10.8165 76.2088 12.0204 78.5726 12.2089 80.7754L11.9647 80.9043Z" fill="#407BFF"/>
<path opacity="0.1" d="M11.9647 80.9043C11.9647 80.9043 11.2063 81.1499 11.0221 80.0747C10.8379 78.9995 10.2638 79.527 10.0325 78.6612C9.8011 77.7954 10.3538 76.99 10.1267 76.4987C10.0435 76.2899 10.0121 76.0659 10.0352 75.844C10.0582 75.622 10.1349 75.4079 10.2595 75.2181C10.8165 76.2088 12.0204 78.5726 12.2089 80.7754L11.9647 80.9043Z" fill="white"/>
<path d="M11.248 81.2949L11.5779 86.1272C11.6336 86.6588 11.9678 86.8964 12.362 86.683L13.9472 85.8252C14.1774 85.6569 14.3662 85.4438 14.5008 85.2005C14.6354 84.9573 14.7125 84.6896 14.7269 84.4158L15.0611 79.2451L11.248 81.2949Z" fill="#407BFF"/>
<path opacity="0.5" d="M11.248 81.2949L11.5779 86.1272C11.6336 86.6588 11.9678 86.8964 12.362 86.683L13.9472 85.8252C14.1774 85.6569 14.3662 85.4438 14.5008 85.2005C14.6354 84.9573 14.7125 84.6896 14.7269 84.4158L15.0611 79.2451L11.248 81.2949Z" fill="white"/>
<path d="M14.2093 76.1524C13.9094 75.4396 13.8237 75.4355 14.1665 74.5416C14.5092 73.6476 14.6977 72.5281 14.2436 72.0046C13.7895 71.481 14.2779 70.5871 14.0422 70.3253C14.0242 70.3055 14.0018 70.2896 13.9767 70.2785C13.9516 70.2674 13.9243 70.2614 13.8966 70.2609V70.2609H13.8794H13.8066C13.4596 70.3253 13.1854 70.6636 12.9497 71.2555C12.7013 71.9079 12.7784 72.0609 12.5213 72.7254C12.2643 73.3898 11.7544 73.9657 11.8787 74.9885C11.9215 75.3188 12.1015 75.504 12.1314 75.8503C12.2086 76.8812 11.5102 77.4611 11.6045 79.0357C11.6345 79.5793 11.8872 80.4169 12.4142 80.6706L13.6995 79.978C13.9687 79.5279 14.1801 79.0494 14.3293 78.5524C14.608 77.7662 14.5653 76.9106 14.2093 76.1524V76.1524Z" fill="#407BFF"/>
<path opacity="0.15" d="M12.9419 71.2475C12.6934 71.8998 12.7705 72.0529 12.5135 72.7173C12.2564 73.3818 11.7466 73.9576 11.8709 74.9805C11.9137 75.3107 12.0936 75.496 12.1236 75.8423C12.2007 76.8732 11.5024 77.4531 11.5967 79.0276C11.6266 79.5713 11.8794 80.4089 12.4064 80.6626L12.9933 80.3444C12.6763 77.7591 12.7877 73.3858 13.7645 70.2528C13.4517 70.3253 13.169 70.6716 12.9419 71.2475Z" fill="black"/>
<path d="M41.9714 49.2963L32.666 54.3462L33.2872 43.735L42.5841 38.7013C42.8411 38.5604 43.0125 38.7577 43.0125 39.1402L42.477 48.3661C42.4678 48.546 42.418 48.722 42.3308 48.8824C42.2436 49.0428 42.1211 49.1839 41.9714 49.2963Z" fill="#37474F"/>
<path d="M40.0342 52.7153C40.0342 52.7153 39.6871 49.538 38.8988 48.334C38.8876 48.3159 38.8724 48.3003 38.8543 48.2881C38.8362 48.2759 38.8155 48.2674 38.7937 48.2633C38.7719 48.2591 38.7493 48.2593 38.7276 48.2638C38.7058 48.2684 38.6854 48.2772 38.6675 48.2897L37.5921 48.8736C37.4912 48.95 37.4124 49.0491 37.363 49.1617C37.3135 49.2743 37.2951 49.3968 37.3094 49.5179C37.518 51.0469 37.5568 52.5922 37.4251 54.1288L40.0342 52.7153Z" fill="#455A64"/>
<path d="M39.0581 45.4063C39.0669 45.7398 38.9942 46.0707 38.8457 46.3737C38.6971 46.6767 38.4767 46.9436 38.2013 47.154C37.7171 47.4158 37.3444 47.0614 37.3444 46.3486C37.336 46.0152 37.4088 45.6843 37.5573 45.3814C37.7058 45.0785 37.9261 44.8115 38.2013 44.6009C38.6682 44.3392 39.0581 44.7056 39.0581 45.4063Z" fill="#263238"/>
<path d="M35.7286 54.5637L38.7576 52.9207V53.4039L35.4844 55.1798V54.9342C35.4907 54.8586 35.5161 54.7855 35.5586 54.721C35.6011 54.6566 35.6594 54.6026 35.7286 54.5637V54.5637Z" fill="#455A64"/>
<path d="M33.2487 54.0281L32.666 54.3462L33.2872 43.7351L33.8699 43.417C34.1227 43.2801 34.2983 43.4774 34.2983 43.8599L33.7585 53.0858C33.7518 53.2683 33.7026 53.4472 33.6146 53.61C33.5265 53.7728 33.4016 53.9155 33.2487 54.0281V54.0281Z" fill="#455A64"/>
<path opacity="0.15" d="M15.9707 118.593V109.625C15.9781 109.509 16.0141 109.397 16.0758 109.297C16.1376 109.197 16.2233 109.112 16.3263 109.049L39.1229 96.6901C39.3157 96.5854 39.4742 96.6699 39.4742 96.8834V105.847C39.468 105.963 39.433 106.075 39.3719 106.175C39.3109 106.275 39.2256 106.36 39.1229 106.423L16.3263 118.79C16.1292 118.891 15.9707 118.806 15.9707 118.593Z" fill="black"/>
<path d="M40.3573 97.3585L17.5607 109.725C17.457 109.788 17.3707 109.873 17.3088 109.973C17.247 110.073 17.2114 110.186 17.2051 110.301V119.265C17.2114 119.38 17.247 119.492 17.3089 119.592C17.3707 119.691 17.4571 119.776 17.5607 119.837L18.846 120.506C18.9561 120.558 19.078 120.586 19.2016 120.586C19.3251 120.586 19.447 120.558 19.5571 120.506L42.3538 108.143C42.4564 108.08 42.5417 107.994 42.6028 107.894C42.6638 107.794 42.6989 107.682 42.7051 107.567V98.5948C42.6981 98.4799 42.6622 98.3681 42.6004 98.2687C42.5386 98.1693 42.4526 98.0851 42.3495 98.023L41.0642 97.3545C40.9542 97.3034 40.833 97.2771 40.7102 97.2778C40.5875 97.2785 40.4667 97.3062 40.3573 97.3585V97.3585Z" fill="#407BFF"/>
<path d="M19.1836 120.312V111.344C19.1903 111.229 19.226 111.116 19.2878 111.016C19.3496 110.916 19.4358 110.831 19.5392 110.768L42.3358 98.4056C42.5286 98.2968 42.6871 98.3854 42.6871 98.5948V107.563C42.6809 107.678 42.6459 107.79 42.5848 107.89C42.5238 107.99 42.4385 108.076 42.3358 108.139L19.5392 120.502C19.3421 120.61 19.1836 120.522 19.1836 120.312Z" fill="#407BFF"/>
<path opacity="0.2" d="M19.5396 120.502C19.4291 120.553 19.3074 120.58 19.184 120.58C19.0606 120.58 18.9388 120.553 18.8284 120.502L17.5431 119.833C17.4393 119.772 17.3527 119.688 17.2908 119.588C17.2289 119.489 17.1935 119.377 17.1875 119.261V110.301C17.1983 110.186 17.2395 110.075 17.3075 109.979L19.2825 111.038C19.2155 111.136 19.1784 111.248 19.1754 111.364V120.333C19.184 120.506 19.3297 120.618 19.5396 120.502Z" fill="black"/>
<path opacity="0.4" d="M42.6824 98.5344C42.6567 98.3693 42.511 98.3089 42.3311 98.4056L19.5387 110.785C19.4332 110.845 19.3473 110.931 19.2903 111.034L17.3066 109.979C17.3662 109.882 17.45 109.801 17.5508 109.742L40.3475 97.3787C40.4572 97.327 40.5782 97.3 40.7009 97.3C40.8236 97.3 40.9447 97.327 41.0544 97.3787L42.3396 98.0472C42.4293 98.102 42.5059 98.1735 42.5649 98.2573C42.6239 98.3412 42.6638 98.4355 42.6824 98.5344V98.5344Z" fill="white"/>
<path d="M25.2888 109.979L26.5398 114.493C26.5439 114.534 26.5439 114.574 26.5398 114.614C26.5398 114.711 26.4627 114.816 26.2828 114.916L26.1114 115.009C25.9657 115.085 25.8543 115.106 25.8329 115.009L25.5759 114.054L24.162 114.812L23.905 116.044C23.8894 116.105 23.8598 116.162 23.8184 116.212C23.777 116.261 23.7247 116.301 23.6651 116.33L23.5108 116.414C23.3052 116.523 23.2109 116.519 23.2109 116.414C23.2134 116.364 23.2205 116.314 23.2324 116.265L24.4834 110.402C24.5038 110.335 24.5398 110.272 24.5886 110.219C24.6375 110.167 24.6981 110.124 24.7661 110.096L25.0189 109.979C25.1517 109.899 25.2588 109.883 25.2888 109.979ZM24.8604 111.264C24.8604 111.445 24.8175 111.626 24.779 111.807L24.3506 113.821L25.3574 113.273L24.9289 111.719C24.8936 111.569 24.8678 111.417 24.8518 111.264H24.8604Z" fill="white"/>
<path d="M29.6296 109.174C29.6598 109.636 29.5629 110.098 29.3484 110.514C29.1338 110.931 28.8086 111.289 28.4043 111.554L27.7188 111.924V113.938C27.7116 114.021 27.6802 114.1 27.628 114.168C27.5759 114.235 27.505 114.288 27.4232 114.32L27.2904 114.393C27.089 114.501 26.9991 114.469 26.9991 114.324V109.202C26.9864 109.124 26.9983 109.044 27.0333 108.973C27.0684 108.901 27.125 108.841 27.1961 108.799L28.3486 108.175C28.8327 107.917 29.6296 107.692 29.6296 109.174ZM27.7188 109.411V111.022L28.3443 110.684C28.535 110.561 28.687 110.393 28.7842 110.195C28.8815 109.998 28.9204 109.78 28.897 109.564C28.897 108.908 28.5714 108.94 28.3143 109.081L27.7188 109.411Z" fill="white"/>
<path d="M32.782 107.462C32.8122 107.924 32.7153 108.386 32.5007 108.803C32.2861 109.22 31.961 109.578 31.5566 109.842L30.8712 110.217V112.23C30.8639 112.313 30.8325 112.393 30.7804 112.46C30.7282 112.528 30.6574 112.581 30.5755 112.613L30.4427 112.685C30.2414 112.794 30.1514 112.762 30.1514 112.617V107.49C30.1387 107.413 30.1507 107.333 30.1857 107.261C30.2207 107.19 30.2773 107.129 30.3485 107.088L31.501 106.464C31.9851 106.206 32.782 105.98 32.782 107.462ZM30.8712 107.7V109.311L31.4967 108.972C31.6873 108.85 31.8393 108.681 31.9366 108.484C32.0338 108.287 32.0728 108.069 32.0493 107.853C32.0493 107.196 31.7237 107.233 31.4667 107.37L30.8712 107.7Z" fill="white"/>
<path d="M34.0459 105.296V109.806L35.3826 109.077C35.4855 109.025 35.5283 109.105 35.5283 109.347V109.544C35.5283 109.786 35.4855 109.915 35.3826 109.967L33.5275 110.974C33.3862 111.05 33.3262 110.974 33.3262 110.797V105.686C33.333 105.604 33.3638 105.524 33.4152 105.457C33.4665 105.39 33.5365 105.337 33.6175 105.304L33.7503 105.231C33.956 105.123 34.0459 105.147 34.0459 105.296Z" fill="white"/>
<path d="M38.3431 102.731C38.553 102.614 38.6473 102.622 38.6473 102.731C38.6398 102.801 38.6225 102.87 38.5959 102.936L37.4734 106.105V108.63C37.467 108.713 37.4364 108.792 37.385 108.86C37.3336 108.927 37.2633 108.98 37.182 109.013L37.0492 109.085C36.8436 109.194 36.7579 109.162 36.7579 109.017V106.472L35.6354 104.543C35.6061 104.498 35.5885 104.447 35.584 104.394C35.584 104.297 35.6782 104.192 35.8967 104.072L36.0767 103.975C36.2181 103.898 36.3252 103.874 36.3723 103.975L37.1306 105.364L37.9018 103.137C37.9596 103.005 38.0681 102.897 38.206 102.835L38.3431 102.731Z" fill="white"/>
<path d="M12.7235 92.663L43.8145 75.7899C44.3115 75.5201 44.7142 75.7134 44.7142 76.2168C44.6917 76.5004 44.5986 76.775 44.4423 77.0184C44.286 77.2619 44.0709 77.4673 43.8145 77.6182L12.7235 94.4913C12.2308 94.7611 11.8281 94.5678 11.8281 94.0644C11.8508 93.7814 11.9436 93.5073 12.099 93.2639C12.2545 93.0206 12.4684 92.8148 12.7235 92.663V92.663Z" fill="#E0E0E0"/>
<path d="M12.7235 96.3317L43.8145 79.4626C44.3115 79.1928 44.7142 79.3821 44.7142 79.8653C44.6927 80.1491 44.6 80.4241 44.4436 80.6677C44.2872 80.9113 44.0716 81.1166 43.8145 81.2667L12.7235 98.1398C12.2308 98.4096 11.8281 98.2203 11.8281 97.7129C11.854 97.4334 11.9483 97.1633 12.1036 96.9237C12.259 96.6841 12.4711 96.4814 12.7235 96.3317Z" fill="#E0E0E0"/>
<path d="M12.7235 99.9881L43.8145 83.115C44.3115 82.8452 44.7142 83.0385 44.7142 83.5419C44.6917 83.8254 44.5986 84.1 44.4423 84.3435C44.286 84.5869 44.0709 84.7924 43.8145 84.9433L12.7235 101.816C12.2308 102.082 11.8281 101.893 11.8281 101.39C11.8501 101.106 11.9426 100.832 12.0982 100.589C12.2537 100.345 12.4679 100.139 12.7235 99.9881V99.9881Z" fill="#E0E0E0"/>
<path d="M12.7235 103.641L43.8145 86.7675C44.3115 86.5018 44.7142 86.691 44.7142 87.1944C44.6924 87.4781 44.5995 87.753 44.4432 87.9965C44.2868 88.2401 44.0714 88.4454 43.8145 88.5958L12.7235 105.469C12.2308 105.739 11.8281 105.545 11.8281 105.042C11.8508 104.759 11.9436 104.485 12.099 104.242C12.2545 103.998 12.4684 103.792 12.7235 103.641V103.641Z" fill="#E0E0E0"/>
</svg>
