<svg width="164" height="142" viewBox="0 0 164 142" fill="none" xmlns="http://www.w3.org/2000/svg">
<path d="M22.7988 124.522V127.089H43.9926V124.522H22.7988Z" fill="#E0E0E0"/>
<path d="M25.6961 124.625C25.7676 124.625 25.8278 125.164 25.8278 125.83C25.8278 126.495 25.7676 127.031 25.6961 127.031C25.6245 127.031 25.5605 126.492 25.5605 125.83C25.5605 125.168 25.6208 124.625 25.6961 124.625Z" fill="#FAFAFA"/>
<path d="M25.2314 124.573C25.3066 124.573 25.3631 125.113 25.3631 125.775C25.3631 126.437 25.3066 126.98 25.2314 126.98C25.1561 126.98 25.0996 126.44 25.0996 125.775C25.0996 125.109 25.1561 124.573 25.2314 124.573Z" fill="#FAFAFA"/>
<path d="M42.3622 124.625C42.4375 124.625 42.4977 125.164 42.4977 125.83C42.4977 126.495 42.4375 127.031 42.3622 127.031C42.2869 127.031 42.2305 126.492 42.2305 125.83C42.2305 125.168 42.2907 124.625 42.3622 124.625Z" fill="#FAFAFA"/>
<path d="M41.905 124.573C41.9766 124.573 42.0368 125.113 42.0368 125.775C42.0368 126.437 41.9766 126.98 41.905 126.98C41.8335 126.98 41.7695 126.44 41.7695 125.775C41.7695 125.109 41.8298 124.573 41.905 124.573Z" fill="#FAFAFA"/>
<path d="M39.1326 125.88C39.1326 125.948 36.7045 125.999 33.7118 125.999C30.7191 125.999 28.291 125.948 28.291 125.88C28.291 125.811 30.7191 125.76 33.7118 125.76C36.7045 125.76 39.1326 125.811 39.1326 125.88Z" fill="#FAFAFA"/>
<path d="M22.7266 136.079V141.212H43.9203V136.079H22.7266Z" fill="#E0E0E0"/>
<path d="M44.1815 139.769C44.1815 139.769 44.1476 139.793 44.0685 139.827C43.9895 139.861 43.8728 139.913 43.7147 139.974C43.254 140.151 42.771 140.276 42.2767 140.346C41.4845 140.476 40.6672 140.371 39.9465 140.046C39.5007 139.83 39.1205 139.519 38.8397 139.138C38.5175 138.704 38.3834 138.178 38.4633 137.66C38.5096 137.379 38.6398 137.114 38.8397 136.895C38.9469 136.776 39.0832 136.68 39.238 136.616C39.3928 136.552 39.5619 136.521 39.7319 136.527C39.9069 136.54 40.0771 136.585 40.2319 136.66C40.3867 136.736 40.5227 136.839 40.6316 136.964C40.8634 137.211 41.0065 137.517 41.0419 137.841C41.0708 138.174 41.0206 138.508 40.8946 138.822C40.7686 139.136 40.5698 139.422 40.3116 139.66C39.7753 140.174 39.052 140.496 38.2751 140.565C37.4751 140.634 36.6679 140.543 35.911 140.298C35.1021 140.069 34.3841 139.631 33.8443 139.039C33.566 138.721 33.3982 138.334 33.3625 137.93C33.34 137.719 33.3688 137.507 33.4468 137.307C33.5249 137.108 33.6503 136.926 33.8142 136.776C33.9936 136.62 34.2285 136.527 34.4768 136.513C34.7222 136.507 34.9638 136.569 35.1694 136.691C35.5667 136.927 35.8464 137.294 35.9487 137.715C36.0373 138.125 36.0069 138.549 35.8604 138.946C35.7139 139.343 35.4564 139.698 35.113 139.977C34.4401 140.492 33.6045 140.801 32.7263 140.858C31.8939 140.945 31.0506 140.869 30.2531 140.636C29.4702 140.413 28.8021 139.942 28.3709 139.308C28.1564 139.008 28.0235 138.666 27.9829 138.31C27.9423 137.954 27.9953 137.594 28.1375 137.261C28.2079 137.093 28.3238 136.945 28.4746 136.829C28.6253 136.713 28.8059 136.634 28.9995 136.598C29.1857 136.568 29.3769 136.573 29.5609 136.613C29.7449 136.653 29.9177 136.727 30.0686 136.831C30.3328 137.041 30.5219 137.318 30.6118 137.626C30.7016 137.934 30.6881 138.26 30.5731 138.561C30.367 139.099 29.9962 139.573 29.504 139.926C28.6887 140.552 27.6655 140.913 26.5978 140.95C25.9479 140.971 25.3005 140.868 24.6974 140.647C24.0943 140.427 23.549 140.094 23.0969 139.67C23.0064 139.586 22.9209 139.497 22.8409 139.404C22.8127 139.373 22.7875 139.34 22.7656 139.305C23.2131 139.753 23.7478 140.122 24.3429 140.394C25.0441 140.706 25.8213 140.852 26.6016 140.817C27.6316 140.764 28.6135 140.404 29.3948 139.793C29.8533 139.456 30.1978 139.009 30.3886 138.503C30.4883 138.239 30.4997 137.954 30.4213 137.685C30.3429 137.415 30.1783 137.173 29.9482 136.988C29.8217 136.902 29.6773 136.841 29.5239 136.808C29.3704 136.775 29.2112 136.771 29.056 136.796C28.8986 136.826 28.7522 136.892 28.6309 136.987C28.5096 137.083 28.4175 137.205 28.3633 137.342C28.2396 137.644 28.1959 137.968 28.2358 138.287C28.2757 138.607 28.398 138.913 28.593 139.182C28.9971 139.767 29.6197 140.201 30.3472 140.404C31.1103 140.624 31.9161 140.693 32.7113 140.609C33.5331 140.553 34.3152 140.266 34.9473 139.786C35.2574 139.533 35.4898 139.211 35.6217 138.852C35.7537 138.493 35.7807 138.11 35.7002 137.738C35.6153 137.377 35.3791 137.06 35.0414 136.854C34.8891 136.752 34.7021 136.702 34.5129 136.712C34.3237 136.722 34.1444 136.791 34.0062 136.909C33.8693 137.035 33.7647 137.186 33.6996 137.352C33.6345 137.519 33.6107 137.696 33.6298 137.872C33.6615 138.23 33.8095 138.572 34.0552 138.855C34.5625 139.41 35.2356 139.821 35.9938 140.039C36.7166 140.275 37.4875 140.364 38.2525 140.302C38.9686 140.239 39.6363 139.946 40.1347 139.476C40.3723 139.26 40.5561 139.001 40.6737 138.715C40.7912 138.43 40.8398 138.124 40.8161 137.82C40.8034 137.544 40.6877 137.28 40.4881 137.071C40.2884 136.862 40.0166 136.721 39.7169 136.67C39.5773 136.666 39.4386 136.691 39.3114 136.743C39.1842 136.795 39.0718 136.873 38.9828 136.97C38.7992 137.165 38.6781 137.401 38.6327 137.653C38.5557 138.131 38.6778 138.618 38.9753 139.018C39.2363 139.383 39.5917 139.684 40.0105 139.896C40.706 140.219 41.4974 140.333 42.2691 140.22C42.7576 140.159 43.2372 140.05 43.6996 139.896C44.0158 139.824 44.1777 139.759 44.1815 139.769Z" fill="#FAFAFA"/>
<path d="M24.6133 127.16V136.069H43.9135V127.16H24.6133Z" fill="#EBEBEB"/>
<path d="M27.8133 127.468C27.8848 127.468 27.945 129.396 27.945 131.778C27.945 134.161 27.8848 136.089 27.8133 136.089C27.7417 136.089 27.6777 134.161 27.6777 131.778C27.6777 129.396 27.738 127.468 27.8133 127.468Z" fill="#E0E0E0"/>
<path d="M29.282 127.355C29.3535 127.355 29.4138 129.263 29.4138 131.611C29.4138 133.959 29.3535 135.867 29.282 135.867C29.2105 135.867 29.1465 133.963 29.1465 131.611C29.1465 129.259 29.2067 127.355 29.282 127.355Z" fill="#E0E0E0"/>
<path d="M41.7293 127.082C41.8008 127.082 41.861 129.089 41.861 131.567C41.861 134.045 41.8008 136.049 41.7293 136.049C41.6577 136.049 41.5938 134.042 41.5938 131.567C41.5938 129.093 41.654 127.082 41.7293 127.082Z" fill="#E0E0E0"/>
<path d="M40.0086 127.191C40.0801 127.191 40.1403 129.144 40.1403 131.557C40.1403 133.97 40.0801 135.922 40.0086 135.922C39.937 135.922 39.873 133.97 39.873 131.557C39.873 129.144 39.9333 127.191 40.0086 127.191Z" fill="#E0E0E0"/>
<path d="M143.905 107.715C145.907 106.777 148.26 106.657 150.485 106.988C151.678 107.169 152.921 107.49 153.734 108.306C154.547 109.122 154.697 110.548 153.768 111.245C153.21 111.661 152.439 111.726 151.716 111.716C149.977 111.699 148.049 111.422 146.66 112.371C145.866 112.91 145.339 113.811 144.402 114.078C143.464 114.344 142.429 113.842 141.94 113.084C141.487 112.294 141.388 111.376 141.661 110.521C141.772 109.928 142.032 109.367 142.421 108.88C142.81 108.394 143.318 107.995 143.905 107.715V107.715Z" fill="#EBEBEB"/>
<path d="M139.318 99.6913C140.541 101.275 142.92 100.749 144.023 99.7835C145.126 98.8176 145.593 97.4148 146.015 96.0768C146.986 93.0255 147.961 89.8205 147.242 86.7112C147.07 85.768 146.612 84.8866 145.921 84.165C145.571 83.8092 145.124 83.5426 144.626 83.3917C144.127 83.2408 143.594 83.2109 143.078 83.3049C141.881 83.595 141.136 84.6701 140.598 85.6702C139.011 88.6614 138.179 91.9353 138.162 95.2542C138.162 96.797 138.358 98.4148 139.318 99.6913Z" fill="#EBEBEB"/>
<path d="M135.973 101.964C137.301 100.534 137.554 98.4488 136.963 96.6604C136.372 94.8719 135.035 93.3428 133.496 92.1004C131.684 90.6382 129.576 89.5101 127.288 88.7794C126.403 88.4564 125.452 88.3097 124.499 88.3494C124.022 88.3744 123.56 88.5047 123.152 88.729C122.743 88.9533 122.402 89.2647 122.157 89.6361C121.502 90.7659 122.131 92.1345 122.808 93.2541C124.003 95.2223 125.364 97.1029 126.882 98.8789C128.105 100.309 129.517 101.719 131.365 102.364C133.213 103.009 135.163 102.93 136.15 101.76" fill="#EBEBEB"/>
<path d="M139.234 123.59C139.299 123.354 139.336 123.113 139.347 122.87C139.403 122.348 139.471 121.689 139.558 120.907C139.666 119.939 139.828 118.977 140.043 118.023C140.327 116.859 140.713 115.718 141.199 114.61C141.676 113.51 142.321 112.476 143.115 111.538C143.762 110.774 144.589 110.15 145.536 109.712C146.179 109.426 146.867 109.231 147.576 109.135C147.843 109.128 148.108 109.094 148.366 109.033C148.099 109.006 147.829 109.006 147.561 109.033C146.825 109.084 146.104 109.254 145.434 109.535C144.438 109.962 143.565 110.591 142.882 111.374C142.051 112.326 141.381 113.384 140.894 114.515C140.408 115.635 140.03 116.792 139.765 117.972C139.56 118.936 139.418 119.911 139.339 120.89C139.272 121.723 139.245 122.399 139.234 122.867C139.206 123.107 139.206 123.35 139.234 123.59V123.59Z" fill="#E0E0E0"/>
<path d="M139.394 122.078C139.416 121.965 139.424 121.851 139.416 121.737C139.416 121.487 139.416 121.17 139.416 120.781C139.416 119.955 139.416 118.753 139.461 117.272C139.544 114.31 139.838 111.129 140.369 106.623C140.884 102.398 141.573 97.476 142.303 94.2779C142.458 93.5509 142.616 92.8956 142.766 92.3222C142.917 91.7488 143.026 91.2539 143.143 90.8545C143.26 90.4552 143.324 90.1719 143.388 89.9262C143.422 89.8145 143.444 89.7002 143.455 89.5848C143.398 89.684 143.355 89.7896 143.327 89.8988C143.245 90.1378 143.143 90.4415 143.019 90.8136C142.894 91.1856 142.744 91.701 142.586 92.2744C142.428 92.8478 142.247 93.4997 142.078 94.2267C141.173 98.0091 140.493 101.833 140.041 105.681C139.499 110.187 139.254 114.289 139.232 117.259C139.213 118.743 139.232 119.945 139.288 120.774C139.314 121.163 139.337 121.481 139.352 121.73C139.35 121.847 139.364 121.964 139.394 122.078V122.078Z" fill="#E0E0E0"/>
<path d="M139.414 114.167C139.442 113.835 139.442 113.502 139.414 113.171C139.372 112.529 139.274 111.6 139.075 110.467C138.835 109.139 138.512 107.824 138.107 106.529C137.633 104.935 137.025 103.376 136.289 101.866C135.03 99.0828 133.222 96.5303 130.955 94.3334C130.56 93.9582 130.14 93.6048 129.698 93.2753C129.506 93.1286 129.321 92.9818 129.163 92.8658L128.677 92.562C128.384 92.3592 128.073 92.1789 127.748 92.0227C127.695 92.0876 129.061 92.8146 130.785 94.4802C132.979 96.6963 134.738 99.2358 135.988 101.989C136.707 103.489 137.315 105.03 137.806 106.604C138.284 108.051 138.6 109.382 138.841 110.501C139.082 111.621 139.199 112.549 139.278 113.181C139.294 113.512 139.339 113.842 139.414 114.167Z" fill="#407BFF"/>
<path d="M130.383 126.922L131.26 137.782H146.645L147.522 126.922H130.383Z" fill="#407BFF"/>
<path d="M149.362 122.641H128.902V126.921H149.362V122.641Z" fill="#EBEBEB"/>
<path d="M128.902 137.367V138.554H129.866H149.027V137.367H128.902Z" fill="#E0E0E0"/>
<path d="M130.804 140.509L129.863 138.423H148.29L147.191 140.509H130.804Z" fill="#E0E0E0"/>
<path d="M147.746 126.851C147.746 126.899 143.887 126.936 139.133 126.936C134.378 126.936 130.52 126.899 130.52 126.851C130.52 126.803 134.374 126.766 139.133 126.766C143.891 126.766 147.746 126.803 147.746 126.851Z" fill="#F5F5F5"/>
<path d="M77.8632 12.2228H4.34766V62.1331H77.8632V12.2228Z" fill="#E0E0E0"/>
<path d="M75.5757 14.5453H6.92383V60.0834H75.5757V14.5453Z" fill="#FAFAFA"/>
<path d="M22.0918 34.4386C22.0918 34.4386 22.1633 42.0806 22.5925 44.4152L33.1668 43.9612C33.1668 43.9612 32.2407 36.4523 32.5983 34.4386H22.0918Z" fill="#E0E0E0"/>
<path d="M27.2971 35.5168H27.4514C27.5986 35.5119 27.746 35.5187 27.8919 35.5373C28.1236 35.5685 28.3492 35.6294 28.5619 35.7182C28.8436 35.8447 29.0925 36.0238 29.2922 36.2438C29.5378 36.5114 29.7117 36.8268 29.8004 37.1654C29.8831 37.5618 29.8454 37.9712 29.6913 38.3497C29.6125 38.5556 29.5129 38.7544 29.3939 38.9436C29.2675 39.1362 29.1544 39.3357 29.0551 39.5409C28.8442 39.9762 28.6999 40.4355 28.6259 40.9062V40.9369H28.5921H27.5493H26.4539H26.4124V40.9028C26.3655 40.4344 26.1909 39.984 25.9042 39.5921C25.7763 39.3941 25.637 39.2133 25.5278 39.0255C25.3911 38.8488 25.2655 38.6654 25.1514 38.476C24.9583 38.1134 24.9001 37.7038 24.9857 37.3087C25.0472 36.9676 25.187 36.642 25.396 36.353C25.5746 36.1208 25.8088 35.9283 26.0812 35.7899C26.4174 35.6282 26.7861 35.5295 27.1653 35.4998H27.3159C27.3159 35.4998 27.3159 35.4998 27.2783 35.4998H27.1653C27.0217 35.5151 26.8795 35.5402 26.7399 35.5748C26.5173 35.6275 26.3034 35.7067 26.1038 35.8104C25.8374 35.9468 25.6094 36.1372 25.4375 36.3667C25.243 36.6532 25.1149 36.9725 25.061 37.3053C24.9789 37.6882 25.037 38.0849 25.2266 38.4351C25.3419 38.6216 25.4676 38.8027 25.6031 38.9777C25.7348 39.1586 25.8741 39.3464 26.0021 39.5443C26.2993 39.9452 26.4793 40.4079 26.5254 40.8891L26.484 40.8516H27.5794H28.6259L28.5845 40.8857C28.6598 40.409 28.8067 39.9439 29.0212 39.5034C29.1245 39.2965 29.2401 39.0948 29.3675 38.8992C29.4844 38.7142 29.5827 38.52 29.6611 38.319C29.8135 37.9521 29.8539 37.5547 29.7778 37.1688C29.692 36.8383 29.5261 36.5294 29.2922 36.2643C29.098 36.047 28.8556 35.8691 28.5808 35.7421C28.3724 35.6508 28.1505 35.5875 27.922 35.5544C27.7786 35.5345 27.634 35.5231 27.4891 35.5202H27.3724C27.3121 35.5202 27.2971 35.5202 27.2971 35.5168Z" fill="white"/>
<path d="M27.8409 40.8464C27.8401 40.8362 27.8401 40.8259 27.8409 40.8157V40.727C27.8409 40.6485 27.807 40.5324 27.7844 40.3857C27.7355 40.0853 27.6639 39.6552 27.6188 39.1194C27.6188 38.9863 27.5962 38.8463 27.5924 38.6996C27.5829 38.5461 27.5829 38.3923 27.5924 38.2388C27.5965 38.0741 27.6361 37.9118 27.7091 37.761C27.7905 37.598 27.9352 37.468 28.1157 37.3957C28.2118 37.3591 28.3176 37.349 28.4201 37.3666C28.5225 37.3842 28.6169 37.4288 28.6916 37.4947C28.7314 37.5281 28.7627 37.5689 28.7835 37.6142C28.8043 37.6596 28.814 37.7085 28.8121 37.7575C28.8099 37.8564 28.773 37.9521 28.7067 38.0306C28.6386 38.1104 28.551 38.1746 28.4507 38.2183C28.3512 38.2607 28.2462 38.2917 28.1382 38.3105C27.6972 38.3922 27.2442 38.4061 26.7981 38.3514C26.6878 38.3378 26.5801 38.3102 26.4781 38.2695C26.3787 38.229 26.2892 38.171 26.2146 38.0989C26.1382 38.0266 26.0849 37.937 26.0603 37.8395C26.0366 37.7439 26.0499 37.6439 26.0979 37.5562C26.1415 37.4678 26.2211 37.3981 26.32 37.3616C26.367 37.3433 26.4176 37.3339 26.4687 37.3339C26.5198 37.3339 26.5704 37.3433 26.6174 37.3616C26.7083 37.399 26.7863 37.458 26.8433 37.5323C26.8963 37.6052 26.9345 37.6861 26.9562 37.7712C26.9881 37.9335 27.0057 38.0979 27.0089 38.2627L27.0616 39.1399C27.088 39.6757 27.1143 40.1092 27.1294 40.413C27.1294 40.5597 27.1294 40.6758 27.1294 40.7543V40.8737C27.1302 40.8635 27.1302 40.8532 27.1294 40.843C27.1294 40.8225 27.1294 40.7918 27.1294 40.7543C27.1294 40.7167 27.1294 40.5563 27.1068 40.413C27.1068 40.1092 27.0579 39.6757 27.024 39.1399C27.024 38.8736 26.9901 38.5801 26.9713 38.2627C26.9689 38.0999 26.95 37.9377 26.9148 37.778C26.8964 37.6963 26.8606 37.6186 26.8094 37.5493C26.7535 37.4798 26.6799 37.4236 26.5948 37.3855C26.5514 37.3687 26.5047 37.36 26.4574 37.36C26.4102 37.36 26.3635 37.3687 26.32 37.3855C26.2284 37.4201 26.1545 37.4847 26.113 37.5664C26.0696 37.6493 26.0577 37.7429 26.0791 37.8326C26.1045 37.9234 26.155 38.0069 26.2259 38.075C26.3787 38.2116 26.5774 38.2981 26.7906 38.3207C27.0114 38.347 27.2343 38.3561 27.4569 38.348C27.6795 38.3427 27.9012 38.3199 28.1194 38.2798C28.2251 38.2614 28.3277 38.2305 28.4243 38.1876C28.5197 38.1461 28.6034 38.0854 28.669 38.0101C28.7312 37.9363 28.7667 37.8469 28.7707 37.7541C28.7705 37.709 28.7604 37.6643 28.741 37.6227C28.7216 37.5811 28.6933 37.5434 28.6577 37.5118C28.5869 37.4506 28.4982 37.409 28.4021 37.3921C28.306 37.3751 28.2066 37.3835 28.1157 37.4162C27.9485 37.4846 27.8147 37.606 27.7392 37.7575C27.6676 37.9064 27.628 38.0663 27.6225 38.2286C27.6225 38.3856 27.6225 38.5357 27.6225 38.6825C27.6225 38.8293 27.6225 38.9692 27.6489 39.1057C27.694 39.6416 27.7618 40.0716 27.8032 40.3686C27.8258 40.5188 27.8446 40.6314 27.8559 40.7099V40.7986C27.853 40.8151 27.8479 40.8311 27.8409 40.8464V40.8464Z" fill="white"/>
<path d="M26.4375 40.8974C26.4547 41.0025 26.4647 41.1085 26.4676 41.2148C26.4676 41.4423 26.4827 41.7188 26.5128 42.0442V42.0237L27.228 42.778H27.1904L28.0148 42.737H27.9809L28.3875 42.2865L28.5945 42.0578V42.0885C28.5945 41.6482 28.5719 41.2353 28.5644 40.8598L28.6096 40.8974H27.0699H26.4375C26.4862 40.8911 26.5356 40.8911 26.5843 40.8974L27.0172 40.8769L28.5832 40.8223H28.6284V40.8632C28.6284 41.2421 28.6548 41.6551 28.6698 42.092V42.0954C28.6021 42.1705 28.5343 42.249 28.4628 42.324L28.0524 42.778H28.0299L27.2054 42.8155H27.1904L26.4902 42.0612C26.4902 41.7199 26.4902 41.4469 26.4902 41.2079C26.4659 41.1054 26.4483 41.0017 26.4375 40.8974Z" fill="white"/>
<path d="M28.57 41.9759C28.57 41.9759 28.5399 41.9759 28.491 41.9452C28.4209 41.9168 28.3493 41.8918 28.2764 41.8701C28.0347 41.7936 27.7793 41.7589 27.5235 41.7677C27.2649 41.7729 27.0096 41.8215 26.7706 41.9111L26.5636 41.9998L26.4883 42.034C26.5077 42.0155 26.5307 42.0005 26.556 41.9896C26.6228 41.9528 26.6919 41.9198 26.7631 41.8906C27.0005 41.7951 27.2563 41.7429 27.516 41.737C27.7727 41.7284 28.0288 41.7667 28.2689 41.8497C28.3414 41.8732 28.4119 41.9017 28.4797 41.935L28.57 41.9759Z" fill="white"/>
<path d="M28.5662 41.6788L28.491 41.6481L28.2764 41.5696C28.0341 41.4951 27.7792 41.4605 27.5235 41.4672C27.2653 41.4756 27.0107 41.5241 26.7706 41.6106C26.6803 41.6447 26.6125 41.6754 26.5636 41.6993L26.4883 41.7335L26.556 41.6891C26.6222 41.6523 26.6914 41.6204 26.7631 41.5935C27.0002 41.4967 27.256 41.4433 27.516 41.4365C27.7725 41.4313 28.0278 41.4695 28.2689 41.5491C28.3592 41.5833 28.4307 41.614 28.4797 41.6379C28.5286 41.6618 28.57 41.6754 28.5662 41.6788Z" fill="white"/>
<path d="M28.5545 41.3917L28.4792 41.3644C28.4265 41.3439 28.355 41.3132 28.2647 41.2859C28.0224 41.2115 27.7675 41.1769 27.5118 41.1835C27.2531 41.1881 26.9977 41.2367 26.7589 41.3268C26.6685 41.361 26.6008 41.3917 26.5519 41.4156L26.4766 41.4497L26.5443 41.4053C26.6106 41.3678 26.6798 41.3348 26.7514 41.3063C26.9894 41.2125 27.2448 41.1604 27.5043 41.1528C27.7607 41.1479 28.016 41.186 28.2571 41.2654C28.3296 41.2905 28.4 41.3202 28.4679 41.3541C28.4993 41.3613 28.5287 41.3741 28.5545 41.3917V41.3917Z" fill="white"/>
<path d="M19.2149 25.1514C18.0413 25.309 16.8585 25.4047 15.6726 25.4381C14.4902 25.537 13.3021 25.57 12.1152 25.5371C13.2892 25.3816 14.4718 25.2859 15.6576 25.2504C16.8403 25.1557 18.028 25.1226 19.2149 25.1514V25.1514Z" fill="white"/>
<path d="M19.2209 26.7705C18.0475 26.9307 16.8647 27.0276 15.6786 27.0606C14.4972 27.1554 13.3107 27.1884 12.125 27.1596C13.2986 27.0018 14.4814 26.9061 15.6673 26.8729C16.8487 26.7761 18.0352 26.7419 19.2209 26.7705V26.7705Z" fill="white"/>
<path d="M17.4297 28.3595C16.7665 28.4892 16.0904 28.5578 15.412 28.5643C14.7386 28.6264 14.0601 28.6264 13.3867 28.5643C14.0487 28.4347 14.7235 28.3661 15.4007 28.3595C16.0753 28.2973 16.7551 28.2973 17.4297 28.3595V28.3595Z" fill="white"/>
<path d="M9.80664 44.4327C9.80664 44.4327 9.87816 52.0747 10.3073 54.4093L20.8816 53.9554C20.8816 53.9554 19.9518 46.4465 20.3094 44.4327H9.80664Z" fill="#EBEBEB"/>
<path d="M18.7073 47.642C17.5338 47.8017 16.351 47.8986 15.1649 47.9321C13.9835 48.0268 12.797 48.0598 11.6113 48.0311C12.7837 47.8732 13.9652 47.7774 15.1499 47.7444C16.3325 47.6476 17.5203 47.6134 18.7073 47.642V47.642Z" fill="white"/>
<path d="M18.7073 49.2623C17.5337 49.4202 16.3509 49.516 15.1649 49.549C13.9835 49.6437 12.797 49.6768 11.6113 49.6479C12.785 49.4902 13.9677 49.3944 15.1537 49.3612C16.3351 49.2665 17.5216 49.2335 18.7073 49.2623V49.2623Z" fill="white"/>
<path d="M16.92 50.8534C16.258 50.9827 15.5831 51.0502 14.906 51.0548C14.232 51.1226 13.5522 51.1283 12.877 51.0718C13.539 50.9423 14.2137 50.8737 14.8909 50.867C15.5649 50.7992 16.2449 50.7946 16.92 50.8534V50.8534Z" fill="white"/>
<path d="M38.7051 23.9674L39.7516 46.0163L70.108 46.3474L68.7452 24.2575L38.7051 23.9674Z" fill="#EBEBEB"/>
<path d="M68.5065 23.8115H38.3496V44.4576H68.5065V23.8115Z" fill="#F5F5F5"/>
<path d="M68.5004 44.4575C68.5004 44.4575 68.5004 44.3244 68.5004 44.0718C68.5004 43.8192 68.5004 43.4506 68.5004 42.9728C68.5004 42.0034 68.5004 40.5836 68.4778 38.7951C68.4778 35.1942 68.4515 30.0438 68.4326 23.8114L68.5192 23.8865H38.3661L38.4715 23.7943C38.4715 31.2179 38.4715 38.249 38.4715 44.4404L38.3774 44.3551L60.1283 44.396L66.317 44.4199H67.9621H68.3875H68.5343H67.9809L66.3246 44.4848L60.1622 44.5087L38.3285 44.5496H38.2344V44.4677C38.2344 38.2763 38.2344 31.2452 38.2344 23.8216V23.7261H38.3398H68.4929H68.5832V23.8046C68.5832 30.054 68.5493 35.2249 68.538 38.8224C68.538 40.6143 68.538 42.0171 68.5155 42.983C68.5155 43.454 68.5155 43.8158 68.5155 44.0684C68.5079 44.3346 68.5004 44.4575 68.5004 44.4575Z" fill="#E0E0E0"/>
<path d="M54.2114 28.1824H41.9883V42.1319H54.2114V28.1824Z" fill="#F5F5F5"/>
<path d="M54.2099 42.1332C54.2057 42.1095 54.2057 42.0853 54.2099 42.0616V41.8636C54.2099 41.6793 54.2099 41.4267 54.2099 41.1025C54.2099 40.4198 54.2099 39.4608 54.1873 38.2388C54.1873 35.7848 54.1572 32.3102 54.1384 28.1837L54.2325 28.2691H42.0094C41.983 28.2691 42.2051 28.0916 42.111 28.1769V31.9689C42.111 33.2079 42.111 34.4161 42.111 35.5868C42.111 37.9317 42.111 40.1263 42.111 42.1196L42.0282 42.0411L50.8784 42.082L53.3591 42.1025H54.0179H54.2513C54.1799 42.1072 54.1082 42.1072 54.0367 42.1025H53.3968L50.9311 42.123L42.0282 42.164H41.9416V42.0855C41.9416 40.0922 41.9416 37.8975 41.9416 35.5527C41.9416 34.382 41.9416 33.1635 41.9416 31.9348V28.1906C41.8475 28.2725 42.0659 28.0711 42.047 28.095H54.2701H54.3642V28.1803C54.3454 32.3273 54.3266 35.8223 54.3153 38.29L54.2927 41.1332C54.2927 41.4517 54.2927 41.7009 54.2927 41.8807C54.2927 41.9558 54.2927 42.0172 54.2927 42.0684C54.268 42.0929 54.2402 42.1147 54.2099 42.1332V42.1332Z" fill="#E0E0E0"/>
<path d="M65.8967 24.9918H42.4707V27.0022H65.8967V24.9918Z" fill="#F5F5F5"/>
<path d="M65.8819 27.0038C65.8819 27.0038 65.8819 26.9526 65.8819 26.8672C65.8819 26.7819 65.8819 26.6386 65.8819 26.4747C65.8819 26.1334 65.8819 25.6317 65.8556 24.9934L65.897 25.031C61.9481 25.0651 52.9436 25.089 42.4709 25.089C42.678 24.8979 42.5274 25.0344 42.5763 24.9934V26.9969L42.4747 26.9014L59.0796 26.9423L64.0637 26.9696H65.4189H65.7765C65.8179 26.9668 65.8594 26.9668 65.9007 26.9696H65.7916H65.449H64.1164L59.1549 27.0004L42.4747 27.0379H42.373V26.9457C42.373 26.6249 42.373 26.2938 42.373 25.9594V24.9354L42.4785 24.8398C52.9511 24.8398 61.9556 24.8637 65.9045 24.8979H65.9497V24.9354C65.9497 25.5805 65.9497 26.0856 65.9271 26.4406C65.9271 26.601 65.9271 26.7239 65.9271 26.8195C65.924 26.8828 65.9087 26.9452 65.8819 27.0038V27.0038Z" fill="#E0E0E0"/>
<path d="M65.8725 28.1824H55.6973V36.5889H65.8725V28.1824Z" fill="#F5F5F5"/>
<path d="M65.8844 36.5897C65.8844 36.5897 65.8844 36.5317 65.8844 36.4293V35.972C65.8844 35.5624 65.8844 34.9856 65.8618 34.2654C65.8618 32.7841 65.8355 30.6987 65.8167 28.19L65.9032 28.2719H55.7393L55.8409 28.1798V30.4359C55.8409 31.1731 55.8409 31.8967 55.8409 32.6032C55.8409 34.0128 55.8409 35.3337 55.8409 36.5829L55.7468 36.501L63.0875 36.542L65.1692 36.5659H65.7263C65.7915 36.5609 65.8569 36.5609 65.9221 36.5659C65.8632 36.5708 65.804 36.5708 65.7451 36.5659H65.2068L63.1477 36.5863L55.7468 36.6273H55.6565V36.542C55.6565 35.3098 55.6565 33.9719 55.6565 32.5622C55.6565 31.8557 55.6565 31.1321 55.6565 30.3949V28.1388C55.5624 28.2207 55.7807 28.0228 55.7619 28.0432H65.9258H66.0162V28.1217C65.9974 30.6509 65.9823 32.7568 65.971 34.2654C65.971 34.9822 65.9522 35.5522 65.9484 35.972C65.9484 36.1517 65.9484 36.2985 65.9484 36.4123C65.9362 36.4738 65.9146 36.5335 65.8844 36.5897V36.5897Z" fill="#E0E0E0"/>
<path d="M65.8725 37.9066H55.6973V42.1321H65.8725V37.9066Z" fill="#F5F5F5"/>
<path d="M65.8812 42.1322C65.8812 42.1322 65.8812 42.023 65.8812 41.825L65.8624 40.9785C65.8624 40.2311 65.8398 39.1901 65.821 37.9067L65.8963 37.975L55.7323 38.0023C55.6382 38.0876 55.8566 37.8862 55.834 37.9101V40.0843C55.834 40.7908 55.834 41.4769 55.834 42.1322L55.7323 42.0434L63.009 42.0844L65.1321 42.1117H65.7043H65.9076C65.8475 42.1167 65.787 42.1167 65.7269 42.1117H65.1735L63.0767 42.139L55.7323 42.18H55.6345V42.0912C55.6345 41.4359 55.6345 40.7499 55.6345 40.0433V37.8692C55.6119 37.8692 55.8302 37.6883 55.7399 37.7736L65.9038 37.7975H65.9528V37.8658C65.9528 39.1662 65.9226 40.2242 65.9151 40.9785C65.9151 41.3199 65.9151 41.6031 65.9151 41.8113C65.9153 41.919 65.9039 42.0265 65.8812 42.1322V42.1322Z" fill="#E0E0E0"/>
<path d="M53.9102 28.207C50.1232 32.9479 45.7715 37.3918 41.9883 42.1326Z" fill="white"/>
<path d="M41.9883 42.1328C41.9883 42.1328 42.0146 42.0748 42.0862 41.9758L42.4061 41.5526C42.6847 41.184 43.1026 40.6617 43.6296 40.0235C44.6798 38.7401 46.1819 37.0063 47.8683 35.112C49.5548 33.2177 51.0719 31.4975 52.1485 30.238L53.4246 28.7465L53.7747 28.3403C53.8575 28.2516 53.9027 28.2038 53.9102 28.2072C53.8829 28.2628 53.8489 28.3155 53.8086 28.3642L53.4886 28.7874C53.21 29.1561 52.7922 29.6783 52.2652 30.3199C51.2149 31.5999 49.7129 33.3337 48.0264 35.228C46.34 37.1223 44.8267 38.8425 43.7463 40.102L42.4701 41.5969L42.12 41.9997C42.082 42.0486 42.0378 42.0932 41.9883 42.1328Z" fill="#E0E0E0"/>
<path d="M54.2163 42.1322C54.1712 42.1629 51.3968 39.0603 48.0238 35.2171C44.6509 31.3739 41.9481 28.2168 42.0008 28.1827C42.0535 28.1485 44.8165 31.2545 48.1932 35.1011C51.5699 38.9477 54.2615 42.0946 54.2163 42.1322Z" fill="#E0E0E0"/>
<path d="M39.7465 28.2132C39.7465 28.5562 39.6344 28.8914 39.4243 29.1765C39.2141 29.4617 38.9155 29.6839 38.566 29.8151C38.2166 29.9464 37.8321 29.9807 37.4611 29.9138C37.0902 29.8469 36.7494 29.6818 36.482 29.4393C36.2145 29.1968 36.0324 28.8878 35.9586 28.5515C35.8848 28.2152 35.9227 27.8665 36.0674 27.5497C36.2122 27.2329 36.4573 26.9621 36.7718 26.7716C37.0863 26.5811 37.456 26.4794 37.8342 26.4794C38.3411 26.4803 38.8269 26.6632 39.1853 26.9882C39.5437 27.3132 39.7455 27.7537 39.7465 28.2132V28.2132Z" fill="#E0E0E0"/>
<path d="M145.838 36.0808H123.801V65.0447H145.838V36.0808Z" fill="#E0E0E0"/>
<path d="M144.73 36.0808H122.693V65.0447H144.73V36.0808Z" fill="#F5F5F5"/>
<path d="M141.997 39.2174H125.434V61.9079H141.997V39.2174Z" fill="white"/>
<path d="M142.003 61.9088C142.003 61.9088 142.003 61.8678 142.003 61.7961C142.003 61.7245 142.003 61.6153 142.003 61.4753C142.003 61.1886 142.003 60.7722 142.003 60.2295C142.003 59.1441 142.003 57.557 142.003 55.5569C142.003 51.5567 142.003 45.8909 141.977 39.2182L142.033 39.2694H125.44L125.5 39.2148C125.5 47.775 125.5 55.6662 125.5 61.9054L125.451 61.861L137.497 61.8849H140.829H141.702H142.007H141.713H140.848H137.527L125.443 61.9054H125.395V61.8644C125.395 55.6252 125.395 47.734 125.395 39.1739V39.1193H125.44H142.003H142.056V39.167C142.056 45.8534 142.037 51.5294 142.03 55.5501C142.03 57.5468 142.03 59.1271 142.03 60.2125C142.03 60.7483 142.03 61.1613 142.03 61.4446C142.03 61.5845 142.03 61.6869 142.03 61.762L142.003 61.9088Z" fill="#E0E0E0"/>
<path d="M144.786 36.0808C144.68 36.2646 144.554 36.4384 144.41 36.5996C144.154 36.9102 143.788 37.33 143.374 37.7874C142.96 38.2447 142.572 38.6475 142.286 38.9376C142.14 39.1001 141.978 39.2498 141.801 39.3847C141.926 39.2087 142.067 39.042 142.222 38.8864L143.284 37.7191L144.342 36.5518C144.477 36.3852 144.625 36.2278 144.786 36.0808V36.0808Z" fill="#E0E0E0"/>
<path d="M142.08 61.8337C142.902 63.0217 143.871 64.121 144.967 65.1104Z" fill="white"/>
<path d="M144.967 65.1104C144.784 64.9887 144.616 64.8491 144.467 64.694C144.082 64.3405 143.717 63.9691 143.375 63.5813C143.033 63.1934 142.712 62.7902 142.415 62.373C142.283 62.2046 142.17 62.0238 142.08 61.8337C142.228 61.99 142.364 62.1553 142.487 62.3286C142.728 62.6392 143.07 63.0591 143.469 63.513C143.868 63.967 144.248 64.3595 144.527 64.6428C144.687 64.788 144.834 64.9443 144.967 65.1104V65.1104Z" fill="#E0E0E0"/>
<path d="M122.693 65.0213L125.581 61.7925Z" fill="white"/>
<path d="M125.584 61.7925C125.607 61.7925 124.982 62.5502 124.187 63.441C123.717 63.9915 123.214 64.519 122.682 65.0213C123.581 63.8999 124.545 62.8221 125.569 61.7925H125.584Z" fill="#E0E0E0"/>
<path d="M122.693 36.0808C123.188 36.5655 123.655 37.0724 124.094 37.5997C124.561 38.1064 124.997 38.6363 125.4 39.1868C124.904 38.6998 124.436 38.1894 124 37.6577C123.531 37.1553 123.095 36.6288 122.693 36.0808V36.0808Z" fill="#E0E0E0"/>
<path d="M136.826 43.8252H131.281V58.1024H136.826V43.8252Z" fill="#E0E0E0"/>
<path d="M140.752 5.30545L137.598 5.32092L137.683 19.5535L140.837 19.538L140.752 5.30545Z" fill="#E0E0E0"/>
<path d="M118.446 5.34359L110.277 5.38367L110.324 13.2406L118.493 13.2005L118.446 5.34359Z" fill="#EBEBEB"/>
<path d="M126.563 5.30685L118.395 5.34692L118.441 13.2039L126.61 13.1638L126.563 5.30685Z" fill="#F5F5F5"/>
<path d="M110.28 7.55994C115.709 7.6009 121.152 7.55994 126.58 7.49167C126.603 7.49167 126.625 7.4834 126.642 7.46868C126.658 7.45395 126.667 7.43399 126.667 7.41317C126.667 7.39234 126.658 7.37238 126.642 7.35765C126.625 7.34293 126.603 7.33466 126.58 7.33466C121.147 7.30735 115.714 7.33693 110.28 7.4234C110.26 7.4234 110.241 7.4306 110.227 7.4434C110.213 7.4562 110.205 7.47357 110.205 7.49167C110.205 7.50978 110.213 7.52714 110.227 7.53994C110.241 7.55274 110.26 7.55994 110.28 7.55994V7.55994Z" fill="#E0E0E0"/>
<path d="M120.011 13.0737L105.168 13.1465L105.206 19.5494L120.049 19.4766L120.011 13.0737Z" fill="#EBEBEB"/>
<path d="M134.794 13.002L119.951 13.0748L119.989 19.4778L134.832 19.405L134.794 13.002Z" fill="#F5F5F5"/>
<path d="M105.183 14.9292C115.046 15.0316 124.938 14.9292 134.798 14.7961C134.82 14.7961 134.842 14.7879 134.859 14.7731C134.875 14.7584 134.884 14.7384 134.884 14.7176C134.884 14.6968 134.875 14.6768 134.859 14.6621C134.842 14.6474 134.82 14.6391 134.798 14.6391C124.935 14.5913 115.042 14.5982 105.183 14.7927C105.163 14.7927 105.144 14.7999 105.129 14.8127C105.115 14.8255 105.107 14.8429 105.107 14.861C105.107 14.8791 105.115 14.8964 105.129 14.9092C105.144 14.922 105.163 14.9292 105.183 14.9292V14.9292Z" fill="#E0E0E0"/>
<path d="M157.138 19.5516H99.6328V21.8453H157.138V19.5516Z" fill="#E0E0E0"/>
<path d="M111.395 20.6527H109.061V28.479H111.395V20.6527Z" fill="#E0E0E0"/>
<path d="M146.228 20.6527H143.895V28.479H146.228V20.6527Z" fill="#E0E0E0"/>
<path d="M143.838 -0.000460513L140.684 0.0150146L140.8 19.5891L143.955 19.5736L143.838 -0.000460513Z" fill="#EBEBEB"/>
<path d="M148.774 3.64454L143.873 3.66858L143.968 19.5326L148.869 19.5086L148.774 3.64454Z" fill="#F5F5F5"/>
<path d="M148.728 6.70401C147.099 6.80836 145.463 6.80836 143.834 6.70401C145.463 6.6042 147.098 6.6042 148.728 6.70401Z" fill="#E0E0E0"/>
<path d="M148.728 6.03823C147.099 6.14257 145.463 6.14257 143.834 6.03823C145.463 5.93843 147.098 5.93843 148.728 6.03823V6.03823Z" fill="#E0E0E0"/>
<path d="M148.728 17.1252C147.099 17.2295 145.463 17.2295 143.834 17.1252C145.463 17.0253 147.098 17.0253 148.728 17.1252Z" fill="#E0E0E0"/>
<path d="M148.728 16.4588C147.099 16.5631 145.463 16.5631 143.834 16.4588C145.463 16.359 147.098 16.359 148.728 16.4588V16.4588Z" fill="#E0E0E0"/>
<path d="M146.36 15.0054C146.311 15.0054 146.273 13.4046 146.273 11.4318C146.273 9.45904 146.311 7.85828 146.36 7.85828C146.409 7.85828 146.443 9.45904 146.443 11.4318C146.443 13.4046 146.405 15.0054 146.36 15.0054Z" fill="#E0E0E0"/>
<path d="M154.119 7.54346H148.785V19.5167H154.119V7.54346Z" fill="#EBEBEB"/>
<path d="M151.607 16.415C151.448 16.4234 151.289 16.4013 151.141 16.3501C150.992 16.2989 150.857 16.2198 150.744 16.118C150.631 16.0162 150.544 15.8939 150.487 15.7593C150.43 15.6246 150.405 15.4805 150.414 15.3365C150.405 15.1795 150.44 15.0232 150.516 14.8818C150.592 14.7404 150.705 14.6186 150.847 14.5276L150.967 14.6812C150.854 14.756 150.763 14.855 150.702 14.9692C150.641 15.0835 150.612 15.2096 150.617 15.3365C150.617 15.5746 150.721 15.8029 150.907 15.9712C151.093 16.1396 151.345 16.2341 151.607 16.2341C151.87 16.2341 152.122 16.1396 152.307 15.9712C152.493 15.8029 152.597 15.5746 152.597 15.3365C152.603 15.2092 152.573 15.0827 152.512 14.9683C152.45 14.8539 152.358 14.7552 152.243 14.6812L152.368 14.5276C152.507 14.6198 152.619 14.742 152.694 14.8831C152.769 15.0243 152.804 15.18 152.797 15.3365C152.805 15.4802 152.781 15.624 152.724 15.7584C152.667 15.8928 152.58 16.0149 152.468 16.1167C152.355 16.2185 152.221 16.2976 152.072 16.349C151.924 16.4004 151.766 16.4229 151.607 16.415V16.415Z" fill="#FAFAFA"/>
<path d="M152.494 14.2305L152.317 14.1383C152.502 13.9176 152.601 13.6476 152.599 13.3704C152.599 12.9233 152.423 12.7424 152.159 12.7424C151.474 12.7424 151.978 14.1554 151.056 14.1554C150.702 14.1554 150.412 13.8858 150.412 13.3465C150.408 13.0878 150.488 12.8337 150.642 12.6161L150.823 12.7117C150.681 12.8993 150.607 13.1225 150.612 13.3499C150.612 13.7663 150.8 13.9506 151.052 13.9506C151.756 13.9506 151.259 12.5376 152.155 12.5376C152.532 12.5376 152.795 12.838 152.795 13.3806C152.807 13.687 152.7 13.9875 152.494 14.2305V14.2305Z" fill="#FAFAFA"/>
<path d="M152.494 12.2818L152.317 12.1896C152.502 11.9689 152.601 11.6989 152.599 11.4217C152.599 10.9746 152.423 10.7937 152.159 10.7937C151.474 10.7937 151.978 12.2033 151.056 12.2033C150.702 12.2033 150.412 11.9371 150.412 11.3978C150.408 11.1391 150.488 10.885 150.642 10.6674L150.823 10.7595C150.681 10.9486 150.608 11.1727 150.612 11.4012C150.612 11.8176 150.8 12.0019 151.052 12.0019C151.756 12.0019 151.259 10.5889 152.155 10.5889C152.532 10.5889 152.795 10.8858 152.795 11.4285C152.807 11.736 152.701 12.0377 152.494 12.2818V12.2818Z" fill="#FAFAFA"/>
<path d="M142.204 4.1721C142.705 4.1721 143.111 3.80383 143.111 3.34954C143.111 2.89525 142.705 2.52698 142.204 2.52698C141.703 2.52698 141.297 2.89525 141.297 3.34954C141.297 3.80383 141.703 4.1721 142.204 4.1721Z" fill="#E0E0E0"/>
<path d="M142.489 5.60852H141.928V17.2542H142.489V5.60852Z" fill="#E0E0E0"/>
<path d="M163.733 141.076C163.733 141.124 127.372 141.165 82.5304 141.165C37.6885 141.165 1.32031 141.131 1.32031 141.076C1.32031 141.021 37.6734 140.987 82.5304 140.987C127.387 140.987 163.733 141.035 163.733 141.076Z" fill="#263238"/>
<path d="M89.7915 114.654L81.698 106.425L81.6152 116.429L84.0546 122.846L59.8041 126.658L58.7764 109.309L57.0297 95.9978C56.9259 95.2042 57.1149 94.4018 57.5671 93.7158C58.0193 93.0298 58.7092 92.4989 59.5293 92.2058L66.2036 89.8167L75.6147 91.3799L79.398 92.6837C80.9842 93.2314 82.3982 94.1232 83.5162 95.2811L94.8999 107.084" fill="#407BFF"/>
<path d="M81.1484 104.445C81.6054 104.44 82.0617 104.41 82.5149 104.356C83.6068 104.205 84.624 103.762 85.4362 103.084C86.2484 102.405 86.8186 101.522 87.0737 100.547C87.1674 100.14 87.2365 99.7291 87.2807 99.3153C87.3112 99.4268 87.3227 99.5419 87.3146 99.6566C87.3174 99.9664 87.282 100.276 87.2092 100.578C86.9813 101.592 86.4075 102.514 85.569 103.216C84.7306 103.917 83.67 104.362 82.5375 104.486C82.1992 104.526 81.8572 104.533 81.5174 104.507C81.3915 104.504 81.267 104.484 81.1484 104.445Z" fill="white"/>
<path d="M81.8521 116.001C81.9085 116.001 81.9236 112.534 81.886 108.26C81.8483 103.987 81.7693 100.523 81.7128 100.523C81.6563 100.523 81.6413 103.987 81.6789 108.264C81.7166 112.54 81.7956 116.001 81.8521 116.001Z" fill="#263238"/>
<path d="M80.958 118.544L66.3068 113.196C65.7276 112.984 65.2251 112.63 64.856 112.174C64.4868 111.717 64.2657 111.176 64.2176 110.612L63.1447 97.874C63.1447 97.874 63.2727 92.454 59.5384 92.1912L57.4265 92.9489C54.6823 94.2698 54.0047 97.8945 54.3773 100.69C54.9081 104.663 55.1302 110.288 55.7212 113.735C56.2106 116.558 57.9799 119.039 61.0366 119.766L79.0833 123.309L80.958 118.544Z" fill="#407BFF"/>
<path d="M63.3499 99.8171C63.3744 99.9124 63.3896 100.01 63.3951 100.107C63.4177 100.315 63.4516 100.595 63.4892 100.947C63.5645 101.694 63.6699 102.746 63.7979 104.036C63.9259 105.326 64.069 106.899 64.2346 108.62C64.2722 109.053 64.3136 109.493 64.3551 109.944C64.3841 110.402 64.447 110.858 64.5433 111.309C64.6455 111.765 64.9005 112.181 65.2736 112.5C65.675 112.82 66.1315 113.079 66.625 113.265C70.6642 114.849 74.3873 116.159 77.0901 117.077L80.3012 118.149L81.1745 118.439C81.2767 118.47 81.3761 118.507 81.4719 118.552C81.3654 118.534 81.2608 118.508 81.1595 118.473L80.2748 118.214C79.5219 117.982 78.3926 117.637 77.0449 117.19C74.3233 116.303 70.5965 115.012 66.5422 113.436C66.0294 113.24 65.5552 112.97 65.138 112.637C64.7377 112.292 64.4643 111.844 64.3551 111.354C64.2579 110.896 64.1962 110.433 64.1706 109.968C64.1292 109.514 64.0915 109.074 64.0539 108.64C63.9071 106.934 63.7716 105.363 63.6774 104.053C63.5833 102.742 63.4892 101.708 63.429 100.961C63.4026 100.619 63.3838 100.326 63.3725 100.117C63.3554 100.018 63.3479 99.9177 63.3499 99.8171V99.8171Z" fill="#263238"/>
<path d="M54.9655 106.742C54.9806 106.798 54.9895 106.855 54.9919 106.912L55.0408 107.404C55.086 107.858 55.1424 108.469 55.214 109.213C55.2855 109.957 55.3984 110.882 55.5452 111.885C55.6893 112.972 55.9093 114.049 56.204 115.111C56.3426 115.657 56.5846 116.178 56.9193 116.65C57.2462 117.083 57.6126 117.491 58.0147 117.869C58.6998 118.508 59.4912 119.045 60.3599 119.462C61.1698 119.836 62.0383 120.094 62.9348 120.227C62.8711 120.234 62.8066 120.234 62.7428 120.227C62.5608 120.216 62.3797 120.194 62.2008 120.162C61.5386 120.05 60.8972 119.854 60.2959 119.579C59.4027 119.171 58.5889 118.634 57.8867 117.988C57.4705 117.606 57.0926 117.192 56.7574 116.749C56.4059 116.264 56.151 115.727 56.0045 115.162C55.7057 114.092 55.4881 113.006 55.3533 111.909C55.2177 110.885 55.1274 109.991 55.0672 109.226C55.0069 108.462 54.9731 107.841 54.9542 107.411C54.9542 107.213 54.9542 107.049 54.9542 106.916C54.9478 106.858 54.9516 106.799 54.9655 106.742Z" fill="#263238"/>
<path d="M61.2285 115.654C61.267 115.405 61.3577 115.165 61.4958 114.947C61.7977 114.403 62.2162 113.919 62.7268 113.524C63.2375 113.128 63.83 112.829 64.4697 112.643C64.729 112.554 65.0053 112.511 65.2828 112.517C65.0365 112.61 64.7852 112.692 64.5299 112.763C63.9247 112.975 63.3635 113.279 62.8698 113.661C62.3774 114.043 61.9588 114.498 61.6313 115.005C61.3678 115.398 61.2586 115.664 61.2285 115.654Z" fill="#263238"/>
<path d="M64.0996 105.967C64.1316 105.975 64.162 105.988 64.19 106.005L64.4535 106.131C64.7933 106.283 65.1427 106.416 65.5 106.53C66.8173 106.949 68.23 107.06 69.607 106.851C71.6522 106.52 73.4794 105.49 74.7115 103.974C75.448 103.098 75.9097 102.058 76.0479 100.963C76.1163 100.388 76.0496 99.8067 75.8522 99.2567C75.6439 98.6953 75.2811 98.1913 74.7981 97.7925C74.3221 97.3884 73.7224 97.1243 73.0778 97.0348C72.7724 96.9852 72.4585 96.9991 72.1599 97.0753C71.8613 97.1516 71.5856 97.2883 71.3537 97.4751C71.1436 97.6616 71.022 97.9151 71.0149 98.1816C71.0213 98.4466 71.1217 98.7027 71.301 98.912C71.4879 99.1143 71.7172 99.2809 71.9757 99.4022C72.2342 99.5235 72.5167 99.597 72.8067 99.6185C73.8261 99.7337 74.8611 99.615 75.8168 99.2733C76.7724 98.9316 77.6182 98.3779 78.2764 97.6628C78.7754 97.1064 79.1512 96.4678 79.3832 95.7822C79.5562 95.2626 79.65 94.724 79.6618 94.1814C79.6659 93.8386 79.6382 93.4961 79.5789 93.1574C79.5563 93.0516 79.5375 92.9629 79.5262 92.8946C79.523 92.864 79.523 92.8331 79.5262 92.8025C79.6818 93.2436 79.7581 93.7046 79.7521 94.1677C79.7559 94.7184 79.6723 95.2668 79.5037 95.7958C79.0845 97.071 78.1798 98.1698 76.9507 98.8968C75.7215 99.6237 74.2477 99.9315 72.7917 99.7653C72.4808 99.7404 72.1784 99.6601 71.9019 99.5288C71.6254 99.3976 71.3802 99.2182 71.1805 99.0007C70.976 98.7622 70.8624 98.47 70.8568 98.1679C70.8571 97.8573 70.9923 97.5594 71.2332 97.3385C71.4861 97.1338 71.7867 96.9833 72.1125 96.8982C72.4383 96.8131 72.7811 96.7956 73.1154 96.8471C73.8001 96.939 74.4372 97.219 74.9412 97.6491C75.4508 98.0667 75.8322 98.5971 76.0479 99.1885C76.2529 99.7605 76.3222 100.365 76.2512 100.963C76.1043 102.081 75.627 103.143 74.8696 104.035C73.8246 105.328 72.3413 106.275 70.6465 106.731C68.9516 107.187 67.1387 107.127 65.4849 106.561C64.9963 106.419 64.5305 106.219 64.0996 105.967Z" fill="white"/>
<path d="M54.5137 102.57C54.5772 102.468 54.6586 102.376 54.7546 102.297C54.9952 102.066 55.2599 101.857 55.5451 101.672C56.5061 101.074 57.6239 100.715 58.7863 100.631C59.424 100.566 60.069 100.59 60.6986 100.703C61.2104 100.799 61.7054 100.958 62.1705 101.174C62.4827 101.317 62.7822 101.481 63.0665 101.665C63.1764 101.727 63.2754 101.803 63.3601 101.891C63.3375 101.918 62.9008 101.618 62.1103 101.287C61.0798 100.853 59.9369 100.688 58.8089 100.809C57.6762 100.89 56.5827 101.222 55.6242 101.775C54.8976 102.215 54.54 102.594 54.5137 102.57Z" fill="white"/>
<path d="M56.8594 93.4602C57.2165 93.7652 57.615 94.0279 58.0452 94.2418C58.5149 94.4602 59.0257 94.5968 59.5509 94.6446C60.1904 94.7028 60.8359 94.6208 61.4332 94.4057C62.0187 94.1793 62.5353 93.828 62.9389 93.3817C63.2722 93.0094 63.5273 92.5849 63.6918 92.1291C63.8271 91.7012 63.9042 91.2599 63.9214 90.8151C63.9581 90.9327 63.9746 91.0547 63.9704 91.1769C63.9767 91.5116 63.9272 91.8453 63.8236 92.1667C63.6701 92.6463 63.4143 93.0939 63.0707 93.4841C62.658 93.9736 62.1097 94.3553 61.4816 94.5903C60.8534 94.8253 60.1678 94.9053 59.4945 94.8221C58.9486 94.766 58.4203 94.6129 57.9398 94.3715C57.6162 94.2105 57.3217 94.0056 57.0664 93.764C56.9774 93.6751 56.9072 93.5722 56.8594 93.4602Z" fill="white"/>
<path d="M69.625 114.409C69.6257 114.324 69.6358 114.239 69.6551 114.156C69.7077 113.919 69.7951 113.689 69.9149 113.473C70.3935 112.678 71.1709 112.066 72.1058 111.746C73.4817 111.25 75.0045 111.201 76.416 111.606C77.1915 111.815 78.0799 112.074 78.6747 112.76C78.8243 112.935 78.9187 113.144 78.9479 113.364C78.977 113.584 78.9399 113.807 78.8403 114.009C78.6132 114.404 78.2458 114.718 77.7976 114.9C77.3649 115.094 76.8911 115.201 76.4085 115.214C75.9294 115.235 75.4575 115.102 75.0759 114.839C74.8997 114.702 74.7561 114.535 74.6539 114.347C74.5516 114.158 74.4928 113.953 74.4811 113.743C74.4565 113.351 74.5245 112.959 74.6806 112.593C75.2479 111.349 76.3284 110.354 77.6922 109.821C78.597 109.456 79.5882 109.301 80.5757 109.371C80.9353 109.396 81.2897 109.463 81.6298 109.572C81.6298 109.596 81.2533 109.483 80.5682 109.439C79.7501 109.399 78.9315 109.51 78.1625 109.767C77.3936 110.023 76.6904 110.419 76.0961 110.931C75.5442 111.41 75.1139 111.992 74.835 112.637C74.6889 112.982 74.6261 113.351 74.6505 113.719C74.6614 113.906 74.7145 114.089 74.8064 114.256C74.8984 114.423 75.0273 114.572 75.1851 114.692C75.5292 114.932 75.9562 115.053 76.3897 115.033C76.8422 115.023 77.2868 114.922 77.6922 114.74C78.1014 114.574 78.438 114.29 78.6483 113.931C78.7331 113.756 78.7646 113.565 78.7394 113.375C78.7142 113.186 78.6334 113.007 78.5053 112.856C78.2427 112.555 77.9062 112.314 77.5228 112.153C77.151 111.991 76.7643 111.86 76.3671 111.76C74.9928 111.357 73.5078 111.392 72.1585 111.859C71.244 112.159 70.4742 112.74 69.9826 113.501C69.8197 113.788 69.6994 114.093 69.625 114.409V114.409Z" fill="white"/>
<path d="M59.8574 119.204C59.8574 119.17 60.4146 119.129 61.2615 118.863C62.3673 118.51 63.3579 117.911 64.1431 117.122C64.9282 116.332 65.4828 115.377 65.7563 114.344C65.9709 113.552 65.9633 113.036 66.001 113.04C66.0273 113.158 66.0337 113.279 66.0198 113.398C66.0111 113.725 65.9683 114.051 65.8918 114.371C65.6478 115.438 65.0943 116.426 64.2883 117.235C63.4823 118.043 62.453 118.641 61.3067 118.968C60.9635 119.07 60.6107 119.142 60.2527 119.183C60.1227 119.208 59.9896 119.214 59.8574 119.204V119.204Z" fill="white"/>
<path d="M55.1172 109.301C55.1729 109.273 55.2323 109.251 55.2941 109.236C55.4146 109.202 55.5877 109.154 55.8174 109.099C56.469 108.944 57.1435 108.882 57.8163 108.915C58.2835 108.947 58.7416 109.05 59.1715 109.219C59.6722 109.415 60.108 109.725 60.4363 110.12C60.7967 110.568 60.9714 111.117 60.9295 111.67C60.9053 111.964 60.8061 112.249 60.6396 112.502C60.4711 112.77 60.2047 112.975 59.8867 113.083C59.719 113.134 59.5393 113.145 59.3655 113.114C59.1917 113.083 59.03 113.011 58.8967 112.905C58.6707 112.679 58.5482 112.384 58.5541 112.079C58.5347 111.535 58.6532 110.995 58.9004 110.499C59.244 109.792 59.838 109.21 60.5883 108.845C61.3385 108.479 62.2019 108.351 63.0413 108.482C63.2218 108.507 63.3994 108.547 63.5721 108.601C63.6888 108.642 63.749 108.666 63.7453 108.673C63.7415 108.68 63.493 108.601 63.03 108.55C62.3757 108.478 61.7119 108.556 61.0989 108.775C60.1907 109.106 59.4639 109.749 59.0774 110.564C58.8475 111.037 58.7381 111.552 58.7574 112.069C58.7494 112.33 58.8518 112.584 59.0435 112.779C59.1514 112.862 59.2814 112.918 59.4207 112.942C59.56 112.966 59.7037 112.957 59.8378 112.915C60.1166 112.822 60.3509 112.643 60.5003 112.41C60.6501 112.18 60.7402 111.922 60.7638 111.656C60.8033 111.143 60.645 110.634 60.3159 110.216C60.0102 109.84 59.6014 109.543 59.1301 109.355C58.7182 109.186 58.278 109.08 57.8276 109.041C57.1693 108.997 56.5073 109.039 55.8625 109.168C55.3769 109.253 55.1247 109.314 55.1172 109.301Z" fill="white"/>
<g opacity="0.3">
<path opacity="0.3" d="M76.7655 117.025C75.1995 116.223 73.6674 115.605 72.0299 114.932C70.3923 114.26 68.7849 113.39 67.7121 112.079C65.6906 109.608 65.9202 106.041 63.8535 103.604C63.989 105.243 64.1233 106.882 64.2563 108.523C64.3805 110.024 64.1283 111.512 65.1937 112.533C66.0933 113.393 67.8476 114.052 69.0898 114.424C71.5857 115.171 74.2735 116.281 76.7655 117.025" fill="black"/>
</g>
<path d="M102.217 135.747C102.217 135.747 114.478 138.818 114.971 138.982C115.724 139.218 115.585 141.672 114.437 141.631C113.891 141.614 105.026 141.931 103.896 141.87C102.767 141.808 99.3789 140.597 99.3789 140.597L102.217 135.747Z" fill="#407BFF"/>
<path d="M107.323 139.989C107.475 139.581 107.656 139.182 107.865 138.795C108.129 138.437 108.418 138.095 108.731 137.771C108.295 137.987 107.933 138.309 107.684 138.699C107.436 139.09 107.311 139.535 107.323 139.986V139.989Z" fill="#263238"/>
<path d="M106.039 139.463C106.099 139.463 106.224 138.948 106.551 138.368C106.879 137.787 107.263 137.381 107.221 137.344C106.863 137.596 106.572 137.918 106.367 138.285C106.163 138.652 106.051 139.056 106.039 139.467V139.463Z" fill="#263238"/>
<path d="M104.864 139.172C104.924 138.775 105.02 138.382 105.15 137.998C105.342 137.636 105.565 137.288 105.816 136.957C105.428 137.195 105.128 137.534 104.958 137.93C104.788 138.326 104.755 138.759 104.864 139.172Z" fill="#263238"/>
<path d="M105.051 137.737C105.159 137.473 105.204 137.192 105.183 136.911C105.179 136.605 105.137 136.3 105.059 136.003C105.011 135.827 104.95 135.655 104.874 135.488C104.839 135.382 104.771 135.287 104.678 135.214C104.616 135.173 104.54 135.152 104.463 135.156C104.387 135.16 104.313 135.188 104.257 135.235C104.162 135.318 104.104 135.43 104.095 135.549C104.086 135.647 104.086 135.745 104.095 135.843C104.096 136.025 104.121 136.208 104.17 136.385C104.252 136.683 104.378 136.969 104.547 137.235C104.681 137.492 104.868 137.723 105.096 137.918C105.126 137.918 104.919 137.641 104.675 137.187C104.532 136.925 104.424 136.647 104.355 136.361C104.315 136.194 104.295 136.024 104.294 135.853C104.294 135.682 104.294 135.47 104.407 135.389C104.429 135.37 104.458 135.36 104.488 135.36C104.518 135.36 104.547 135.37 104.569 135.389C104.63 135.443 104.677 135.51 104.705 135.583C104.777 135.744 104.838 135.908 104.889 136.075C104.975 136.358 105.03 136.648 105.051 136.942C105.074 137.419 105.017 137.733 105.051 137.737Z" fill="#263238"/>
<path d="M105.035 137.624C104.785 137.529 104.514 137.489 104.244 137.508C103.951 137.508 103.659 137.54 103.374 137.603C103.199 137.639 103.03 137.696 102.87 137.771C102.77 137.817 102.688 137.891 102.639 137.983C102.589 138.075 102.574 138.179 102.595 138.279C102.623 138.375 102.679 138.462 102.756 138.532C102.834 138.603 102.93 138.653 103.036 138.678C103.216 138.719 103.405 138.719 103.585 138.678C103.875 138.618 104.148 138.502 104.383 138.337C104.606 138.202 104.799 138.029 104.952 137.829C104.725 137.949 104.508 138.082 104.301 138.228C104.073 138.37 103.817 138.47 103.548 138.525C103.398 138.559 103.242 138.559 103.092 138.525C103.021 138.509 102.957 138.476 102.904 138.43C102.852 138.384 102.814 138.326 102.795 138.262C102.783 138.199 102.795 138.135 102.827 138.079C102.86 138.023 102.912 137.978 102.975 137.951C103.115 137.882 103.265 137.829 103.42 137.794C103.69 137.725 103.967 137.681 104.248 137.665C104.726 137.61 105.027 137.654 105.035 137.624Z" fill="#263238"/>
<path d="M109.202 140.109C109.255 139.769 109.337 139.434 109.447 139.106C109.619 138.801 109.819 138.51 110.045 138.235C109.688 138.412 109.409 138.695 109.256 139.036C109.102 139.377 109.083 139.756 109.202 140.109V140.109Z" fill="#263238"/>
<path d="M100.641 140.623C100.789 140.709 100.948 140.777 101.115 140.828C101.56 140.981 102.015 141.109 102.478 141.21C104.015 141.515 105.587 141.65 107.161 141.613C108.998 141.593 110.654 141.518 111.855 141.473L113.274 141.405C113.448 141.402 113.622 141.386 113.794 141.357C113.621 141.333 113.445 141.325 113.27 141.333H111.851L107.161 141.415C105.602 141.451 104.043 141.337 102.512 141.074C101.337 140.859 100.656 140.586 100.641 140.623Z" fill="#263238"/>
<path d="M100.283 140.876C100.283 140.9 100.633 140.722 101.202 140.497C101.924 140.188 102.728 140.069 103.521 140.156C104.3 140.309 105.004 140.687 105.527 141.234C105.745 141.467 105.98 141.686 106.231 141.889C106.069 141.618 105.868 141.368 105.632 141.145C105.391 140.891 105.118 140.662 104.819 140.463C104.445 140.212 104.01 140.045 103.551 139.978C102.719 139.887 101.876 140.031 101.138 140.391C100.826 140.51 100.537 140.674 100.283 140.876V140.876Z" fill="#263238"/>
<path d="M89.1922 132.678C89.1922 132.678 77.5902 139.566 77.1761 139.846C76.5512 140.273 77.2664 142.31 78.3506 141.959C78.8626 141.792 88.5974 139.334 89.6439 138.965C90.6904 138.597 93.5099 136.528 93.5099 136.528L89.1922 132.678Z" fill="#407BFF"/>
<path d="M85.7554 138.125C85.6155 137.692 85.347 137.302 84.9791 136.998C84.6113 136.694 84.1584 136.487 83.6699 136.401C84.0779 136.623 84.469 136.869 84.8407 137.138C85.1679 137.45 85.4734 137.779 85.7554 138.125V138.125Z" fill="#263238"/>
<path d="M86.7857 137.273C86.6381 136.883 86.3972 136.528 86.0802 136.233C85.7632 135.938 85.3781 135.71 84.9524 135.566C84.9223 135.614 85.4305 135.907 85.9312 136.358C86.4319 136.809 86.733 137.3 86.7857 137.273Z" fill="#263238"/>
<path d="M87.8349 136.664C87.8334 136.234 87.6532 135.821 87.3305 135.507C87.0608 135.16 86.6582 134.916 86.2012 134.824C86.5503 135.071 86.8788 135.342 87.1837 135.633C87.4306 135.961 87.6483 136.305 87.8349 136.664V136.664Z" fill="#263238"/>
<path d="M87.158 135.358C87.1881 135.358 87.03 135.061 86.8982 134.569C86.819 134.284 86.7724 133.993 86.759 133.699C86.746 133.526 86.746 133.353 86.759 133.18C86.7576 133.102 86.7797 133.026 86.8229 132.958C86.8392 132.935 86.8649 132.919 86.8944 132.912C86.9239 132.906 86.955 132.91 86.9811 132.924C87.1128 132.972 87.1806 133.177 87.2446 133.341C87.2998 133.503 87.3376 133.67 87.3575 133.839C87.3866 134.131 87.3765 134.426 87.3274 134.716C87.2483 135.215 87.1392 135.518 87.1693 135.529C87.3244 135.284 87.4266 135.016 87.4704 134.737C87.5426 134.438 87.568 134.131 87.5457 133.825C87.5306 133.643 87.494 133.462 87.4365 133.286C87.4056 133.192 87.3678 133.1 87.3236 133.01C87.2734 132.898 87.1796 132.807 87.0601 132.754C86.9903 132.724 86.9113 132.718 86.837 132.736C86.7626 132.754 86.6977 132.795 86.6536 132.853C86.5913 132.948 86.5587 133.056 86.5594 133.167C86.518 133.653 86.5793 134.142 86.7401 134.607C86.8194 134.881 86.9618 135.137 87.158 135.358V135.358Z" fill="#263238"/>
<path d="M87.1172 135.245C87.1172 135.272 87.4033 135.15 87.8701 135.044C88.1429 134.985 88.4216 134.95 88.702 134.941C88.862 134.932 89.0227 134.941 89.1801 134.969C89.2494 134.977 89.3138 135.006 89.3639 135.05C89.414 135.094 89.4472 135.152 89.4586 135.214C89.4618 135.282 89.445 135.35 89.4099 135.41C89.3749 135.47 89.3228 135.52 89.2591 135.556C89.1296 135.63 88.9825 135.674 88.83 135.685C88.5549 135.71 88.2772 135.684 88.0131 135.61C87.7678 135.527 87.5162 135.46 87.2602 135.409C87.4726 135.563 87.7154 135.679 87.9755 135.75C88.2548 135.847 88.5541 135.888 88.8526 135.87C89.0383 135.861 89.2184 135.809 89.3758 135.72C89.469 135.668 89.545 135.594 89.596 135.506C89.647 135.419 89.6711 135.32 89.6657 135.221C89.6524 135.12 89.603 135.025 89.5249 134.951C89.4468 134.877 89.3442 134.828 89.2328 134.812C89.0564 134.783 88.8766 134.776 88.6982 134.791C88.4055 134.809 88.1161 134.858 87.8362 134.938C87.5736 134.989 87.3276 135.094 87.1172 135.245V135.245Z" fill="#263238"/>
<path d="M79.8327 141.581C79.8327 141.598 80.0284 141.475 80.1188 141.175C80.2089 140.782 80.1309 140.373 79.9004 140.031C79.7889 139.848 79.6631 139.672 79.524 139.506C79.4108 139.363 79.278 139.235 79.1287 139.123C79.0218 139.043 78.8905 138.994 78.7523 138.983C78.6544 138.983 78.6055 139 78.6055 139.011C78.6055 139.021 78.8125 139.028 79.0271 139.226C79.1537 139.342 79.266 139.47 79.3621 139.608C79.4971 139.773 79.6228 139.944 79.7386 140.12C79.9465 140.426 80.0366 140.786 79.9945 141.144C79.9503 141.292 79.8963 141.438 79.8327 141.581V141.581Z" fill="#263238"/>
<path d="M83.993 138.758C84.0086 138.573 83.98 138.388 83.9092 138.214C83.8383 138.04 83.727 137.882 83.5827 137.751C83.4668 137.598 83.3154 137.471 83.1391 137.377C82.9628 137.283 82.766 137.226 82.5625 137.208C82.8702 137.406 83.1586 137.628 83.4246 137.87C83.6412 138.151 83.8314 138.448 83.993 138.758V138.758Z" fill="#263238"/>
<path d="M92.3112 136.893C92.1308 136.984 91.9595 137.089 91.7992 137.207C91.3394 137.497 90.8618 137.762 90.3687 138.003C89.639 138.353 88.8845 138.66 88.1101 138.921C87.2292 139.218 86.2279 139.498 85.2039 139.771C83.1147 140.317 81.2249 140.815 79.8622 141.187L78.2397 141.648C78.0395 141.696 77.8442 141.76 77.6562 141.839C77.8614 141.814 78.0641 141.774 78.2623 141.719L79.8923 141.306C81.2663 140.965 83.1598 140.487 85.2491 139.941C86.2918 139.665 87.2819 139.378 88.1628 139.071C88.9467 138.801 89.7079 138.479 90.4403 138.108C90.9321 137.856 91.4027 137.571 91.8481 137.255C92.0133 137.146 92.1681 137.025 92.3112 136.893V136.893Z" fill="#263238"/>
<path d="M92.7488 137.033C92.4367 136.909 92.1053 136.828 91.7663 136.794C90.9416 136.656 90.0898 136.751 89.327 137.067C88.9146 137.263 88.5606 137.546 88.2955 137.893C88.0772 138.167 87.894 138.462 87.7497 138.774C87.5987 139.05 87.491 139.344 87.4297 139.648C87.6001 139.384 87.751 139.11 87.8814 138.828C88.1953 138.162 88.7397 137.606 89.4324 137.245C90.161 136.948 90.9672 136.842 91.7588 136.941C92.3611 136.985 92.7413 137.06 92.7488 137.033Z" fill="#263238"/>
<path d="M113.315 115.883C113.315 115.883 116.797 117.009 116.808 120.549C116.838 127.324 101.705 134.795 101.705 134.795L81.5658 122.699L80.3047 122.235C80.3047 122.235 107.503 112.978 113.315 115.883Z" fill="#263238"/>
<path d="M91.7715 128.808C91.9569 128.715 92.1332 128.608 92.2985 128.487C92.626 128.269 93.0966 127.948 93.6725 127.542C94.8282 126.737 96.3942 125.59 98.0844 124.276C99.7747 122.962 101.258 121.729 102.312 120.818C102.839 120.364 103.261 119.989 103.55 119.726C103.707 119.598 103.851 119.457 103.98 119.306C103.806 119.416 103.644 119.539 103.494 119.675L102.214 120.723C101.134 121.607 99.6354 122.825 97.9489 124.136C96.2624 125.446 94.7115 126.607 93.5859 127.44L92.2496 128.429C92.0793 128.544 91.9195 128.671 91.7715 128.808V128.808Z" fill="#455A64"/>
<path d="M107.627 118.416C106.31 118.29 104.992 118.642 103.961 119.396C103.995 119.447 104.714 119.02 105.745 118.754C106.777 118.488 107.627 118.474 107.627 118.416Z" fill="#455A64"/>
<path d="M105.894 117.345C105.428 117.525 105.018 117.805 104.701 118.162C104.383 118.52 104.167 118.942 104.072 119.393C104.132 119.393 104.351 118.844 104.859 118.281C105.367 117.717 105.928 117.393 105.894 117.345Z" fill="#455A64"/>
<path d="M114.41 138.809C114.41 138.788 114.169 138.744 113.89 138.952C113.562 139.229 113.356 139.605 113.311 140.01C113.245 140.408 113.307 140.815 113.491 141.181C113.634 141.457 113.793 141.587 113.811 141.573C113.762 141.422 113.7 141.273 113.627 141.13C113.495 140.779 113.456 140.404 113.514 140.037C113.559 139.672 113.724 139.327 113.988 139.048C114.203 138.846 114.414 138.839 114.41 138.809Z" fill="#263238"/>
<path d="M108.676 104.807L101.505 121.292L70.6249 121.75L70.0527 120.234L80.8755 119.879L86.0779 105.254L108.676 104.807Z" fill="#455A64"/>
<path d="M94.2466 111.954C94.4838 111.846 94.7502 111.802 95.014 111.828C95.2778 111.854 95.5276 111.949 95.7336 112.1C95.9084 112.249 96.0296 112.443 96.0813 112.655C96.133 112.868 96.1129 113.09 96.0234 113.292C95.9267 113.493 95.7697 113.666 95.5701 113.791C95.3705 113.916 95.1363 113.988 94.8941 113.998C94.6391 114.013 94.3858 113.952 94.1725 113.824C93.9592 113.697 93.7975 113.51 93.7121 113.292C93.6315 113.047 93.6383 112.786 93.7317 112.546C93.825 112.306 94 112.098 94.2316 111.954" fill="#EBEBEB"/>
<path d="M103.598 135.62C103.598 135.62 75.1462 118.698 73.9867 118.346C72.8273 117.994 70.004 116.322 67.1919 117.025C64.3799 117.728 61.8502 120.018 60.5891 123.363C59.8664 125.275 59.5276 128.534 59.3657 130.981C59.15 133.908 60.196 136.796 62.2831 139.036C63.2077 140.082 64.4358 140.873 65.8292 141.32C66.1266 141.405 66.4353 141.477 66.7515 141.538C72.1309 142.596 77.6683 140.405 80.6799 136.234L81.3424 135.32C81.3424 135.32 99.9575 141.518 100.247 141.433L103.598 135.62Z" fill="#263238"/>
<path d="M68.4082 130.962C68.4584 130.985 68.5099 131.005 68.5625 131.023L69.0293 131.19L70.8325 131.822L77.5369 134.112C80.3829 135.074 83.7934 136.221 87.6219 137.484C91.4503 138.747 95.689 140.129 100.221 141.518L100.3 141.546L100.342 141.474L102.567 137.624L103.696 135.661L103.737 135.586L103.658 135.542L81.9564 123.05L75.4364 119.323L73.6671 118.319L73.2041 118.063C73.0987 118.005 73.0422 117.981 73.0422 117.981L73.1928 118.08L73.6445 118.35L75.395 119.374L81.8999 123.159L103.568 135.699L103.53 135.576C103.173 136.201 102.777 136.866 102.401 137.539L100.18 141.389L100.304 141.344C95.7869 139.959 91.5331 138.58 87.7009 137.327L77.6009 133.996L70.8589 131.75L69.0444 131.149L68.5701 130.999L68.4082 130.962Z" fill="#455A64"/>
<path d="M71.3567 70.8735C71.8423 69.6823 72.9151 69.1669 74.2741 68.87C74.9576 68.7257 75.6695 68.7333 76.3491 68.8919C77.0288 69.0506 77.6561 69.3557 78.1778 69.7813C78.8667 70.3513 79.3711 71.1465 80.2219 71.4878C81.626 72.0647 83.4217 71.2216 84.7392 71.9281C85.135 72.1395 85.4378 72.4687 85.5962 72.8597C85.7545 73.2506 85.7586 73.6792 85.6078 74.0726C85.4569 74.466 85.1605 74.7999 84.7688 75.0175C84.3771 75.2351 83.9144 75.323 83.4593 75.2662C84.3741 75.6553 84.5435 76.9045 83.9148 77.6212C83.2861 78.338 82.1229 78.5326 81.148 78.2834C80.1869 77.9832 79.3344 77.451 78.6823 76.7441C77.9971 76.0614 77.3948 75.3276 76.6495 74.6962C75.934 74.0371 74.9847 73.6286 73.9692 73.5425C72.6027 73.4948 71.3341 74.331 70.6226 75.3856C69.9111 76.4403 69.6363 77.6929 69.4368 78.9216C69.2373 80.1504 69.0867 81.3996 68.5635 82.5464C68.5032 82.6829 68.4129 82.8297 68.2585 82.8604C68.0289 82.9048 67.8633 82.6761 67.7729 82.4815C66.7428 80.2896 66.198 77.9354 66.1693 75.5529C66.1505 74.1876 66.3236 72.8804 67.2685 71.7984C68.2134 70.7165 70.393 70.0441 71.3454 70.8564" fill="#263238"/>
<path d="M68.1429 76.3796L66.0499 90.1619C65.966 90.7184 66.0079 91.2847 66.173 91.8261C66.3381 92.3675 66.6231 92.8728 67.0104 93.3112C67.3978 93.7496 67.8796 94.1119 68.4263 94.3762C68.973 94.6404 69.5734 94.801 70.1908 94.8481V94.8481C71.3596 94.9403 72.5227 94.6214 73.4393 93.9574C74.3559 93.2934 74.9557 92.3353 75.1146 91.2814C75.269 90.2574 75.4007 89.3803 75.4271 89.2745C75.4271 89.2745 79.3459 89.4281 80.1514 85.991C80.5279 84.3288 81.0361 80.8474 81.4464 77.6937C81.6534 76.0617 81.176 74.4187 80.1091 73.091C79.0422 71.7632 77.4636 70.8477 75.6868 70.5261L75.3104 70.4613C71.3013 69.9425 68.5909 72.7412 68.1429 76.3796Z" fill="#FFBE9D"/>
<path d="M75.4373 89.2257C73.6753 88.9325 72.0492 88.1709 70.7656 87.0378C70.7656 87.0378 71.3905 89.7274 75.2491 90.1097L75.4373 89.2257Z" fill="#EB996E"/>
<path d="M79.8164 79.8015C79.7898 79.9299 79.7086 80.0438 79.5903 80.1185C79.472 80.1932 79.3261 80.2228 79.1839 80.2008C79.1139 80.1937 79.0462 80.1739 78.9848 80.1425C78.9235 80.1111 78.8698 80.0688 78.8269 80.0181C78.784 79.9675 78.7528 79.9094 78.7353 79.8476C78.7177 79.7857 78.7141 79.7213 78.7247 79.6581C78.7504 79.529 78.8312 79.4143 78.9496 79.3389C79.068 79.2635 79.2144 79.2335 79.3571 79.2554C79.4273 79.2629 79.4951 79.2831 79.5564 79.3149C79.6178 79.3466 79.6715 79.3892 79.7144 79.4402C79.7572 79.4911 79.7883 79.5494 79.8059 79.6114C79.8234 79.6735 79.8269 79.7381 79.8164 79.8015Z" fill="#263238"/>
<path d="M80.243 79.2348C80.1602 79.2894 79.8101 78.9379 79.2267 78.8321C78.6432 78.7262 78.1538 78.9174 78.0973 78.8321C78.0409 78.7467 78.1689 78.6955 78.3834 78.6068C78.6694 78.4915 78.9884 78.4616 79.2944 78.5215C79.5984 78.5742 79.8755 78.7142 80.0849 78.9208C80.2468 79.0846 80.2807 79.2143 80.243 79.2348Z" fill="#263238"/>
<path d="M74.0534 78.9416C74.0277 79.0707 73.9469 79.1854 73.8285 79.2608C73.7101 79.3362 73.5637 79.3662 73.421 79.3444C73.3509 79.3364 73.2833 79.3159 73.222 79.2841C73.1607 79.2522 73.1069 79.2097 73.0639 79.1589C73.0208 79.1081 72.9893 79.0501 72.9711 78.9882C72.9529 78.9263 72.9485 78.8618 72.958 78.7983C72.9863 78.6704 73.0678 78.5574 73.1855 78.4824C73.3032 78.4075 73.4482 78.3764 73.5904 78.3956C73.6607 78.4031 73.7286 78.4233 73.7902 78.455C73.8517 78.4867 73.9057 78.5293 73.9488 78.5802C73.992 78.631 74.0235 78.6892 74.0414 78.7513C74.0594 78.8134 74.0635 78.8781 74.0534 78.9416V78.9416Z" fill="#263238"/>
<path d="M74.4755 78.2968C74.3926 78.348 74.0426 77.9964 73.4591 77.8906C72.8756 77.7848 72.3862 77.976 72.3297 77.8906C72.2733 77.8053 72.4013 77.7541 72.6158 77.6654C72.9024 77.5518 73.2208 77.522 73.5268 77.58C73.8306 77.6358 74.108 77.7753 74.3211 77.9794C74.4792 78.1637 74.5131 78.2729 74.4755 78.2968Z" fill="#263238"/>
<path d="M75.7383 82.602C76.0652 82.569 76.3955 82.5747 76.7208 82.6191C76.8751 82.6191 77.022 82.6191 77.0671 82.5406C77.115 82.4052 77.115 82.2596 77.0671 82.1242C76.9994 81.7829 76.9278 81.4006 76.8525 81.0115C76.5627 79.4346 76.3858 78.1513 76.4535 78.1411C76.5213 78.1308 76.83 79.4005 77.1048 80.9774C77.1725 81.3665 77.2403 81.7351 77.3005 82.0901C77.3594 82.2707 77.3447 82.4645 77.2591 82.6362C77.2272 82.6793 77.1848 82.7152 77.1352 82.7413C77.0856 82.7673 77.0302 82.7827 76.973 82.7863C76.8869 82.7974 76.7994 82.7974 76.7133 82.7863C76.3811 82.762 76.0535 82.7001 75.7383 82.602V82.602Z" fill="#263238"/>
<path d="M73.9414 82.6611C74.0393 82.6611 73.9113 83.2482 74.363 83.7533C74.8148 84.2585 75.4924 84.3199 75.4924 84.4018C75.4924 84.4837 75.3192 84.4838 75.0331 84.4394C74.6603 84.3771 74.3233 84.1983 74.0807 83.9342C73.8509 83.6783 73.7389 83.3519 73.7683 83.0229C73.7984 82.7772 73.9 82.6475 73.9414 82.6611Z" fill="#263238"/>
<path d="M75.0789 76.2447C74.9923 76.3813 74.4239 76.2072 73.7199 76.156C73.016 76.1048 72.4287 76.1765 72.3647 76.0297C72.3384 75.9614 72.4664 75.8454 72.7186 75.7464C73.0533 75.6267 73.4143 75.5799 73.7726 75.6099C74.133 75.6348 74.4816 75.7378 74.789 75.9102C75.0186 76.0468 75.1127 76.1833 75.0789 76.2447Z" fill="#263238"/>
<path d="M80.3634 77.6649C80.2354 77.7673 79.8627 77.5693 79.3771 77.4737C78.8915 77.3782 78.4661 77.3952 78.4021 77.2519C78.372 77.1836 78.4624 77.0744 78.6694 76.9925C78.939 76.8961 79.2351 76.8782 79.5164 76.9413C79.8002 76.9955 80.0575 77.1306 80.2505 77.3269C80.3898 77.4805 80.4236 77.6137 80.3634 77.6649Z" fill="#263238"/>
<path d="M67.9091 78.9869C67.8489 78.9494 65.451 77.8128 65.0143 80.1849C64.5776 82.5571 67.2955 82.4649 67.3106 82.3966C67.3256 82.3284 67.9091 78.9869 67.9091 78.9869Z" fill="#FFBE9D"/>
<path d="M66.6635 81.3758C66.6635 81.3758 66.6146 81.3996 66.5318 81.4201C66.4155 81.4453 66.293 81.4295 66.1892 81.3758C66.0368 81.2539 65.9234 81.0969 65.8611 80.9215C65.7989 80.7461 65.7899 80.5587 65.8353 80.3791C65.8655 80.1742 65.9466 79.9781 66.0725 79.8057C66.1081 79.735 66.1619 79.6729 66.2294 79.6249C66.2968 79.5768 66.376 79.544 66.4602 79.5293C66.5153 79.5251 66.5703 79.5384 66.6157 79.5671C66.6611 79.5958 66.694 79.6379 66.7087 79.6863C66.7313 79.7545 66.7087 79.8023 66.7087 79.8057C66.7087 79.8091 66.7727 79.775 66.7689 79.676C66.7649 79.6153 66.7384 79.5575 66.6936 79.5122C66.6631 79.4816 66.626 79.457 66.5845 79.4399C66.5431 79.4229 66.4982 79.4138 66.4527 79.4132C66.3422 79.4161 66.2344 79.4446 66.1395 79.496C66.0446 79.5474 65.9658 79.6199 65.9106 79.7067C65.7611 79.8957 65.6642 80.1147 65.6283 80.345C65.5568 80.8262 65.745 81.3143 66.1064 81.4679C66.1733 81.4972 66.2466 81.5125 66.3209 81.5125C66.3953 81.5125 66.4686 81.4972 66.5355 81.4679C66.6485 81.4338 66.671 81.3826 66.6635 81.3758Z" fill="#EB996E"/>
<path d="M82.3977 77.1387C81.5131 77.182 80.6298 77.0344 79.8203 76.708C79.0109 76.3817 78.2983 75.8859 77.7411 75.2615C76.9882 74.3809 76.4876 73.2307 75.3997 72.6982C75.025 72.531 74.6175 72.4329 74.2007 72.4095C73.7839 72.386 73.3662 72.4378 72.9716 72.5617C72.1862 72.8163 71.4663 73.2135 70.856 73.729C71.2023 75.613 70.28 77.4834 69.3803 79.19C69.3028 79.3913 69.153 79.5632 68.9549 79.6781C68.6011 79.8385 68.1795 79.5859 67.9649 79.2822C67.6642 78.7729 67.5334 78.1954 67.5885 77.62C67.5965 76.3086 67.8908 75.0118 68.4543 73.8041C69.0265 72.5928 69.978 71.5604 71.191 70.8346C72.7468 69.9733 74.6106 69.6931 76.3897 70.053C78.1587 70.4261 79.7535 71.2942 80.9484 72.5344C81.5307 73.084 81.9536 73.756 82.1794 74.4901" fill="#263238"/>
<path d="M11.9069 132.151C11.9234 132.101 11.9461 132.053 11.9747 132.008L12.1855 131.595C12.4451 131.061 12.6554 130.508 12.8141 129.943C13.2282 128.475 13.3713 126.233 12.7577 123.57C12.4276 122.118 11.9925 120.687 11.4552 119.287C10.9018 117.768 10.2619 116.157 9.7386 114.413C9.14782 112.594 8.86229 110.705 8.89161 108.809C8.97066 106.826 9.61814 104.846 10.3296 102.877C11.0411 100.907 11.7752 98.9753 11.9935 97.0367C12.2402 95.1713 11.8277 93.2831 10.8152 91.6439C9.87036 90.0671 8.68833 88.7223 7.80369 87.3263C6.97452 86.0336 6.36296 84.6359 5.98923 83.1793C5.456 81.0678 5.41752 78.8783 5.8763 76.7524C6.04506 75.9754 6.29722 75.2152 6.62918 74.4827C6.62035 74.5349 6.6065 74.5862 6.58777 74.6363L6.4372 75.0697C5.55147 77.6909 5.45658 80.4795 6.16239 83.1452C6.53962 84.5851 7.15248 85.9656 7.98061 87.241C8.86525 88.6062 10.0548 89.9715 11.0147 91.5518C12.0429 93.2233 12.4631 95.1463 12.2156 97.0469C11.9935 99.0197 11.2519 100.962 10.5442 102.931C9.83648 104.901 9.19276 106.856 9.11371 108.805C9.08093 110.682 9.35883 112.553 9.93812 114.355C10.4538 116.089 11.09 117.7 11.6321 119.226C12.1649 120.634 12.5937 122.073 12.9158 123.533C13.5143 126.216 13.3412 128.482 12.9158 129.953C12.7498 130.52 12.5255 131.072 12.2457 131.602C12.1478 131.772 12.0688 131.905 12.0123 132.008C11.9824 132.058 11.9471 132.106 11.9069 132.151V132.151Z" fill="#263238"/>
<path d="M8.99735 88.7023C8.99735 88.7023 7.19418 83.4802 10.4278 80.4221C10.4529 80.3975 10.485 80.3797 10.5205 80.3706C10.5561 80.3616 10.5937 80.3616 10.6292 80.3708C10.6647 80.38 10.6967 80.398 10.7217 80.4227C10.7466 80.4474 10.7635 80.4779 10.7704 80.5108C10.9436 81.3743 11.1581 84.0025 8.99735 88.7023Z" fill="#407BFF"/>
<path d="M10.0913 82.1619C10.0852 82.4856 10.0436 82.8081 9.96705 83.1244C9.85035 83.807 9.71107 84.5681 9.55673 85.4282C9.40238 86.2884 9.27063 87.07 9.15393 87.7321C9.12349 88.0555 9.0592 88.3755 8.96195 88.6878C8.93151 88.3635 8.94288 88.037 8.99583 87.7151C9.05606 87.1178 9.17275 86.2986 9.33462 85.3975C9.49649 84.4965 9.66966 83.691 9.81271 83.1005C9.8655 82.7789 9.95897 82.464 10.0913 82.1619V82.1619Z" fill="#263238"/>
<path d="M11.1211 101.023C11.1211 101.023 12.2241 95.6401 16.6586 94.3158C16.6935 94.3047 16.7312 94.3027 16.7673 94.3099C16.8035 94.3172 16.8367 94.3334 16.8633 94.3568C16.8898 94.3801 16.9087 94.4097 16.9177 94.4423C16.9268 94.4748 16.9257 94.509 16.9146 94.541C16.6285 95.367 15.4577 97.7835 11.1211 101.023Z" fill="#407BFF"/>
<path d="M15.4503 95.6981C15.2781 95.982 15.0751 96.2495 14.8442 96.4968C14.4 97.0361 13.873 97.6641 13.2933 98.3604L11.7348 100.227C11.5402 100.499 11.3185 100.754 11.0723 100.988C11.2122 100.689 11.3904 100.404 11.6031 100.142C11.9795 99.6403 12.4877 98.9645 13.1088 98.2375C13.73 97.5105 14.2909 96.8722 14.7162 96.4081C14.9299 96.1465 15.1762 95.9083 15.4503 95.6981V95.6981Z" fill="#263238"/>
<path d="M9.92806 114.523C9.92806 114.523 9.25799 109.082 13.0751 106.638C13.1052 106.619 13.1407 106.607 13.1777 106.604C13.2146 106.602 13.2516 106.609 13.2844 106.625C13.3173 106.64 13.3447 106.664 13.3635 106.693C13.3824 106.722 13.392 106.755 13.3913 106.788C13.38 107.662 13.0375 110.28 9.92806 114.523Z" fill="#407BFF"/>
<path d="M12.3602 108.287C12.2886 108.604 12.1801 108.914 12.0365 109.212C11.7805 109.843 11.4831 110.577 11.1481 111.403L10.271 113.594C10.1777 113.906 10.0516 114.209 9.89453 114.499C9.93437 114.175 10.0139 113.857 10.1317 113.55C10.3161 112.973 10.6022 112.184 10.9523 111.331C11.3024 110.478 11.645 109.71 11.9047 109.16C12.0196 108.854 12.1724 108.561 12.3602 108.287V108.287Z" fill="#263238"/>
<path d="M13.2643 128.106C13.2643 128.106 12.8088 122.645 16.7201 120.331C16.7506 120.312 16.7865 120.301 16.8235 120.299C16.8606 120.297 16.8974 120.305 16.9299 120.321C16.9624 120.338 16.9892 120.362 17.0073 120.391C17.0254 120.421 17.0341 120.454 17.0325 120.488C16.9836 121.358 16.5394 123.962 13.2643 128.106Z" fill="#407BFF"/>
<path d="M15.9411 121.962C15.8508 122.278 15.7247 122.585 15.5647 122.877C15.2824 123.498 14.9549 124.242 14.5897 125.034L13.6223 127.198C13.5236 127.499 13.3951 127.792 13.2383 128.072C13.2889 127.75 13.3811 127.435 13.5131 127.133C13.7164 126.563 14.0363 125.789 14.4203 124.945C14.8043 124.102 15.1732 123.345 15.4555 122.805C15.5827 122.509 15.7456 122.226 15.9411 121.962V121.962Z" fill="#263238"/>
<path d="M6.41384 84.1152C6.41384 84.1152 1.06458 81.5827 0.95918 77.347C0.957538 77.3134 0.966272 77.28 0.984397 77.2506C1.00252 77.2213 1.02932 77.1971 1.06178 77.1808C1.09425 77.1644 1.13108 77.1567 1.16815 77.1583C1.20522 77.1599 1.24106 77.1709 1.27163 77.19C2.06592 77.6883 4.26811 79.4051 6.41384 84.1152Z" fill="#407BFF"/>
<path d="M2.07227 78.8003C2.32231 79.0316 2.54557 79.2855 2.73857 79.558L4.24434 81.4489L5.75011 83.3364C5.9795 83.5842 6.18362 83.8504 6.35995 84.1316C6.07688 83.9261 5.82388 83.6887 5.60707 83.4251C5.18169 82.9677 4.62079 82.3124 4.03353 81.5718C3.44628 80.8311 2.93432 80.1451 2.5767 79.6399C2.37378 79.3784 2.20454 79.0967 2.07227 78.8003V78.8003Z" fill="#263238"/>
<path d="M12.1652 95.3411C12.1652 95.3411 6.65785 93.1089 6.26635 88.8868C6.26323 88.8537 6.27026 88.8203 6.28668 88.7906C6.3031 88.7608 6.32826 88.7357 6.3594 88.718C6.39054 88.7004 6.42644 88.6909 6.46316 88.6906C6.49988 88.6902 6.53598 88.6991 6.5675 88.7162C7.39568 89.1565 9.7108 90.7504 12.1652 95.3411Z" fill="#407BFF"/>
<path d="M7.47656 90.2687C7.74088 90.4865 7.98049 90.7278 8.1918 90.9888L9.82557 92.7944L11.4631 94.5931C11.7075 94.8226 11.9268 95.0729 12.1181 95.3406C11.831 95.1402 11.5697 94.9112 11.3389 94.658C10.8834 94.2211 10.2811 93.5999 9.64488 92.8934C9.00869 92.1869 8.45155 91.5281 8.06381 91.0469C7.83625 90.8084 7.63924 90.5474 7.47656 90.2687Z" fill="#263238"/>
<path d="M8.99873 107.846C8.99873 107.846 5.21548 103.58 6.99229 99.6545C7.0058 99.6235 7.02851 99.5964 7.0579 99.5764C7.08729 99.5563 7.12223 99.544 7.15884 99.5409C7.19546 99.5377 7.23233 99.5437 7.26538 99.5584C7.29844 99.573 7.32639 99.5956 7.34615 99.6238C7.85434 100.378 9.1079 102.75 8.99873 107.846Z" fill="#407BFF"/>
<path d="M7.36162 101.398C7.48825 101.701 7.58033 102.014 7.63643 102.333C7.79453 102.992 7.97899 103.764 8.18603 104.617C8.39308 105.47 8.56248 106.238 8.7394 106.893C8.84011 107.204 8.90941 107.523 8.94645 107.846C8.77929 107.556 8.65282 107.249 8.57001 106.931C8.38178 106.354 8.15968 105.566 7.94887 104.658C7.73807 103.75 7.57243 102.951 7.46703 102.364C7.39304 102.047 7.35769 101.723 7.36162 101.398V101.398Z" fill="#263238"/>
<path d="M12.73 122.57C12.73 122.57 7.26028 120.256 6.9516 116.024C6.94922 115.991 6.95681 115.958 6.97353 115.929C6.99025 115.899 7.01548 115.875 7.04648 115.858C7.07748 115.84 7.11308 115.831 7.14943 115.831C7.18579 115.831 7.22151 115.84 7.25275 115.856C8.0734 116.324 10.3584 117.952 12.73 122.57Z" fill="#407BFF"/>
<path d="M8.12891 117.433C8.39027 117.654 8.62614 117.899 8.83285 118.164C9.29212 118.693 9.83419 119.31 10.4327 119.993L12.0364 121.819C12.2775 122.058 12.4942 122.316 12.6839 122.59C12.4038 122.391 12.151 122.162 11.931 121.908C11.4868 121.467 10.8958 120.836 10.2746 120.119C9.6535 119.402 9.08884 118.74 8.71239 118.252C8.48612 117.999 8.2905 117.724 8.12891 117.433V117.433Z" fill="#263238"/>
<path d="M23.63 101.05C23.6353 101.091 23.6353 101.132 23.63 101.173C23.63 101.269 23.63 101.381 23.63 101.514C23.63 101.856 23.5924 102.289 23.566 102.842C23.4945 104.009 23.3966 105.634 23.2799 107.583C22.9035 109.563 21.7742 111.757 20.2684 113.887C19.1729 115.457 18.0097 116.887 17.0347 118.215C16.1334 119.374 15.3221 120.589 14.6067 121.85C14.139 122.706 13.7609 123.599 13.4774 124.519C13.3795 124.843 13.308 125.099 13.2666 125.273C13.2499 125.363 13.2234 125.451 13.1875 125.536C13.1887 125.445 13.2001 125.355 13.2214 125.267C13.2477 125.089 13.308 124.83 13.3908 124.499C13.6462 123.558 14.007 122.643 14.4674 121.768C15.1671 120.491 15.9685 119.263 16.8653 118.092C17.8479 116.754 18.9923 115.324 20.0839 113.764C21.5897 111.641 22.6739 109.481 23.0955 107.532C23.2461 105.59 23.3703 103.965 23.4719 102.798C23.5209 102.245 23.5623 101.801 23.5886 101.474C23.5886 101.337 23.6187 101.221 23.63 101.132C23.6268 101.105 23.6268 101.078 23.63 101.05V101.05Z" fill="#263238"/>
<path d="M20.3945 113.498C20.3945 113.498 22.7096 108.443 19.7959 105.132C19.7734 105.106 19.7431 105.085 19.7085 105.074C19.6739 105.062 19.6363 105.059 19.6 105.065C19.5637 105.072 19.53 105.087 19.5028 105.11C19.4756 105.132 19.4559 105.162 19.4458 105.194C19.171 106.04 18.693 108.651 20.3945 113.498Z" fill="#407BFF"/>
<path d="M19.9445 106.897C20.0443 107.208 20.1062 107.529 20.129 107.852C20.2118 108.446 20.3021 109.269 20.3737 110.18C20.4452 111.091 20.4791 111.917 20.4791 112.515C20.5023 112.839 20.4808 113.165 20.4151 113.484C20.3496 113.167 20.3181 112.844 20.321 112.522C20.272 111.839 20.2118 111.064 20.1478 110.194C20.0838 109.323 20.0198 108.535 19.9709 107.866C19.927 107.545 19.9181 107.22 19.9445 106.897V106.897Z" fill="#263238"/>
<g opacity="0.3">
<path opacity="0.3" d="M20.3906 113.497C20.3906 113.497 22.7057 108.442 19.792 105.131C19.7694 105.105 19.7392 105.084 19.7046 105.072C19.67 105.061 19.6324 105.058 19.5961 105.064C19.5598 105.07 19.5261 105.086 19.4989 105.109C19.4717 105.131 19.452 105.16 19.4419 105.193C19.1671 106.039 18.6891 108.65 20.3906 113.497Z" fill="black"/>
</g>
<path d="M13.1992 125.676C13.1992 125.676 15.055 120.471 11.8553 117.385C11.8305 117.361 11.7987 117.343 11.7634 117.334C11.7281 117.325 11.6906 117.324 11.6552 117.333C11.6198 117.342 11.5877 117.359 11.5626 117.384C11.5374 117.408 11.5202 117.438 11.5127 117.471C11.3282 118.331 11.0873 120.956 13.1992 125.676Z" fill="#407BFF"/>
<path d="M12.1855 119.126C12.3135 119.43 12.4031 119.746 12.4528 120.068C12.5883 120.652 12.754 121.464 12.9083 122.368C13.0627 123.273 13.1681 124.092 13.2208 124.689C13.2719 125.012 13.2795 125.338 13.2434 125.662C13.1517 125.349 13.0912 125.029 13.0627 124.706C12.9535 124.024 12.8255 123.263 12.6862 122.399C12.5469 121.536 12.4114 120.757 12.3098 120.092C12.2334 119.774 12.1918 119.451 12.1855 119.126Z" fill="#263238"/>
<g opacity="0.3">
<path opacity="0.3" d="M13.2031 125.677C13.2031 125.677 15.0589 120.472 11.8592 117.387C11.8344 117.362 11.8026 117.344 11.7673 117.335C11.732 117.326 11.6945 117.325 11.6591 117.334C11.6237 117.343 11.5916 117.361 11.5665 117.385C11.5413 117.409 11.5241 117.439 11.5166 117.472C11.3321 118.332 11.0912 120.957 13.2031 125.677Z" fill="black"/>
</g>
<path d="M23.3184 107.324C23.3184 107.324 28.2648 104.184 27.7641 99.9725C27.7609 99.9391 27.7475 99.9072 27.7255 99.8803C27.7034 99.8534 27.6735 99.8326 27.6391 99.8202C27.6048 99.8078 27.5673 99.8043 27.5309 99.8101C27.4944 99.8159 27.4605 99.8308 27.4329 99.853C26.7176 100.461 24.7752 102.403 23.3184 107.324Z" fill="#407BFF"/>
<g opacity="0.3">
<path opacity="0.3" d="M23.3184 107.323C23.3184 107.323 28.2648 104.183 27.7641 99.971C27.7609 99.9376 27.7475 99.9057 27.7255 99.8788C27.7034 99.8519 27.6735 99.8311 27.6391 99.8187C27.6048 99.8063 27.5673 99.8028 27.5309 99.8086C27.4944 99.8144 27.4605 99.8293 27.4329 99.8516C26.7176 100.459 24.7752 102.401 23.3184 107.323Z" fill="black"/>
</g>
<path d="M26.8777 101.545C26.7778 101.856 26.6402 102.156 26.4674 102.439C26.1851 102.982 25.7747 103.719 25.2967 104.525C24.8186 105.33 24.3593 106.044 24.0017 106.549C23.8307 106.834 23.6194 107.098 23.373 107.334C23.5088 107.034 23.6739 106.747 23.8662 106.474L25.0972 104.426L26.3244 102.378C26.4767 102.084 26.6621 101.805 26.8777 101.545V101.545Z" fill="#263238"/>
<path d="M15.1895 120.514C15.1895 120.514 21.141 119.671 22.7522 115.692C22.7655 115.66 22.7689 115.626 22.762 115.593C22.7552 115.56 22.7383 115.529 22.7132 115.505C22.6882 115.48 22.6561 115.462 22.6204 115.453C22.5847 115.443 22.5469 115.443 22.5113 115.453C21.5815 115.692 18.8824 116.678 15.1895 120.514Z" fill="#407BFF"/>
<g opacity="0.3">
<path opacity="0.3" d="M15.1895 120.516C15.1895 120.516 21.141 119.673 22.7522 115.693C22.7655 115.662 22.7689 115.628 22.762 115.594C22.7552 115.561 22.7383 115.531 22.7132 115.506C22.6882 115.481 22.6561 115.463 22.6204 115.454C22.5847 115.445 22.5469 115.445 22.5113 115.454C21.5815 115.693 18.8824 116.679 15.1895 120.516Z" fill="black"/>
</g>
<path d="M21.1781 116.748C20.9377 116.985 20.6702 117.199 20.3801 117.386C19.8643 117.761 19.1378 118.26 18.3172 118.789C17.4965 119.318 16.7361 119.779 16.1752 120.093C15.8803 120.278 15.5618 120.43 15.2266 120.547C15.4928 120.331 15.7801 120.138 16.0849 119.97L18.1892 118.625L20.286 117.26C20.563 117.061 20.862 116.89 21.1781 116.748V116.748Z" fill="#263238"/>
<path d="M9.49503 130.468L7.75586 141.083H18.5974L17.1895 130.468H9.49503Z" fill="#455A64"/>
<path d="M17.6354 133.757C17.6354 133.815 15.6779 133.859 13.2611 133.859C10.8444 133.859 8.89062 133.815 8.89062 133.757C10.3446 133.656 11.8033 133.622 13.2611 133.654C14.7202 133.622 16.1802 133.656 17.6354 133.757V133.757Z" fill="#263238"/>
<path d="M17.8549 134.591C17.8549 134.646 15.8334 134.694 13.3376 134.694C10.8418 134.694 8.82031 134.646 8.82031 134.591C8.82031 134.537 10.8418 134.489 13.3376 134.489C15.8334 134.489 17.8549 134.543 17.8549 134.591Z" fill="#263238"/>
</svg>
